<?xml version="1.0" standalone="no"?>
  <!DOCTYPE svg PUBLIC "-//W3C//DTD SVG 1.1//EN" "http://www.w3.org/Graphics/SVG/1.1/DTD/svg11.dtd" >
  <svg>
  <metadata>
  Created by font-carrier
  </metadata>
  <defs>
  <font id="NotoSans-Thin" horiz-adv-x="2840" vert-adv-y="2840" >
    <font-face
      
      font-family="Noto Sans Thin"
      
      font-weight="400"
      
      font-stretch="normal"
      
      units-per-em="1000"
      
      ascent="1069"
      
      descent="-293"
      
    />
      <missing-glyph />

      

      
      <glyph glyph-name="uni21" unicode="&#x21;" d="M125 174L100 174L98 714L127 714L125 174M85 23Q85 35 90 44.50Q95 54 110 54Q128 54 132.50 44.50Q137 35 137 23Q137 10 132.50 1Q128-8 110-8Q95-8 90 1Q85 10 85 23Z"  horiz-adv-x="223" vert-adv-y="1000"  />

      
      <glyph glyph-name="uni22" unicode="&#x22;" d="M101 714L97 456L77 456L73 714L101 714M247 714L243 456L223 456L219 714L247 714Z"  horiz-adv-x="320" vert-adv-y="1000"  />

      
      <glyph glyph-name="uni23" unicode="&#x23;" d="M467 462L426 251L579 251L579 227L422 227L378 0L353 0L397 227L198 227L154 0L129 0L173 227L28 227L28 251L177 251L218 462L67 462L67 486L222 486L266 714L291 714L247 486L446 486L490 714L515 714L471 486L618 486L618 462L467 462M202 251L401 251L442 462L243 462L202 251Z"  horiz-adv-x="646" vert-adv-y="1000"  />

      
      <glyph glyph-name="uni24" unicode="&#x24;" d="M253 10Q190 11 144.50 20Q99 29 67 39L67 68Q102 55 150 45.50Q198 36 253 35L253 353Q202 373 159 394.50Q116 416 90 449Q64 482 64 536Q64 589 89 625Q114 661 156.50 681Q199 701 253 704L253 759L277 759L277 704Q317 703 358 694.50Q399 686 439 667L428 644Q386 663 347.50 670.50Q309 678 277 679L277 370Q333 350 376.50 327.50Q420 305 444.50 272Q469 239 469 186Q469 101 414.50 58Q360 15 277 10L277-58L253-58L253 10M253 679Q208 677 171.50 661Q135 645 113 614.50Q91 584 91 538Q91 492 114 462.50Q137 433 174 414Q211 395 253 379L253 679M277 35Q348 39 395 75.50Q442 112 442 187Q442 229 422 256.50Q402 284 365 304Q328 324 277 343L277 35Z"  horiz-adv-x="570" vert-adv-y="1000"  />

      
      <glyph glyph-name="uni25" unicode="&#x25;" d="M197 724Q266 724 299.50 667Q333 610 333 501Q333 388 296.50 332Q260 276 195 276Q129 276 94 333Q59 390 59 501Q59 612 96 668Q133 724 197 724M609 714L213 0L185 0L581 714L609 714M197 699Q145 699 115.50 650Q86 601 86 501Q86 402 114.50 351.50Q143 301 195 301Q251 301 278.50 352.50Q306 404 306 501Q306 597 280 648Q254 699 197 699M598 438Q667 438 700.50 381Q734 324 734 215Q734 102 697.50 46Q661-10 596-10Q530-10 495 47Q460 104 460 215Q460 326 497 382Q534 438 598 438M598 413Q546 413 516.50 364Q487 315 487 215Q487 116 515.50 65.50Q544 15 596 15Q652 15 679.50 66.50Q707 118 707 215Q707 311 681 362Q655 413 598 413Z"  horiz-adv-x="793" vert-adv-y="1000"  />

      
      <glyph glyph-name="uni26" unicode="&#x26;" d="M304 725Q372 725 416 686.50Q460 648 460 581Q460 512 413.50 469Q367 426 289 388L532 141Q562 177 586 225Q610 273 622 328L649 328Q635 267 609 216.50Q583 166 549 122L667 0L632 0L533 105Q487 55 428.50 22.50Q370-10 281-10Q185-10 124 39Q63 88 63 179Q63 235 84.50 272.50Q106 310 147 338.50Q188 367 246 395Q211 430 187 458Q163 486 151 514Q139 542 139 576Q139 644 185 684.50Q231 725 304 725M304 700Q240 700 203 666.50Q166 633 166 576Q166 530 193 493Q220 456 269 406Q345 439 389 479.50Q433 520 433 581Q433 637 398 668.50Q363 700 304 700M264 377Q208 351 169 325Q130 299 110 265Q90 231 90 179Q90 100 143 57.50Q196 15 281 15Q364 15 417 44Q470 73 516 122L264 377Z"  horiz-adv-x="702" vert-adv-y="1000"  />

      
      <glyph glyph-name="uni27" unicode="&#x27;" d="M101 714L97 456L77 456L73 714L101 714Z"  horiz-adv-x="172" vert-adv-y="1000"  />

      
      <glyph glyph-name="uni28" unicode="&#x28;" d="M42 274Q42 407 80.50 520Q119 633 187 714L220 714Q143 626 106 513.50Q69 401 69 275Q69 151 106.50 41Q144-69 220-158L187-158Q119-74 80.50 34.50Q42 143 42 274Z"  horiz-adv-x="255" vert-adv-y="1000"  />

      
      <glyph glyph-name="uni29" unicode="&#x29;" d="M214 282Q214 149 175.50 36Q137-77 69-158L36-158Q113-69 150 43Q187 155 187 281Q187 406 149.50 515.50Q112 625 36 714L69 714Q137 630 175.50 521.50Q214 413 214 282Z"  horiz-adv-x="255" vert-adv-y="1000"  />

      
      <glyph glyph-name="uni2a" unicode="&#x2a;" d="M287 758L281 552L475 621L483 594L287 537L412 374L389 357L273 527L158 358L135 374L260 537L62 594L71 621L265 552L259 758L287 758Z"  horiz-adv-x="551" vert-adv-y="1000"  />

      
      <glyph glyph-name="uni2b" unicode="&#x2b;" d="M297 365L515 365L515 341L297 341L297 123L273 123L273 341L55 341L55 365L273 365L273 583L297 583L297 365Z"  horiz-adv-x="570" vert-adv-y="1000"  />

      
      <glyph glyph-name="uni2c" unicode="&#x2c;" d="M125 104Q114 49 97.50-14Q81-77 60-129L38-129Q60-56 73 1.50Q86 59 94 116L122 116L125 104Z"  horiz-adv-x="183" vert-adv-y="1000"  />

      
      <glyph glyph-name="uni2d" unicode="&#x2d;" d="M40 259L40 284L282 284L282 259L40 259Z"  horiz-adv-x="322" vert-adv-y="1000"  />

      
      <glyph glyph-name="uni2e" unicode="&#x2e;" d="M85 23Q85 35 90 44.50Q95 54 110 54Q128 54 132.50 44.50Q137 35 137 23Q137 10 132.50 1Q128-8 110-8Q95-8 90 1Q85 10 85 23Z"  horiz-adv-x="220" vert-adv-y="1000"  />

      
      <glyph glyph-name="uni2f" unicode="&#x2f;" d="M309 714L41 0L13 0L281 714L309 714Z"  horiz-adv-x="322" vert-adv-y="1000"  />

      
      <glyph glyph-name="uni30" unicode="&#x30;" d="M507 360Q507-10 285-10Q179-10 120.50 81Q62 172 62 360Q62 464 83.50 546.50Q105 629 154.50 677Q204 725 286 725Q371 725 419 678.50Q467 632 487 549.50Q507 467 507 360M89 360Q89 184 138.50 99.50Q188 15 285 15Q388 15 434 100Q480 185 480 360Q480 462 463.50 538.50Q447 615 405 657.50Q363 700 286 700Q211 700 168 656Q125 612 107 535.50Q89 459 89 360Z"  horiz-adv-x="570" vert-adv-y="1000"  />

      
      <glyph glyph-name="uni31" unicode="&#x31;" d="M320 0L294 0L294 563Q294 606 294 635.50Q294 665 295 685Q283 675 271.50 665.50Q260 656 241 642L118 551L102 572L297 714L320 714L320 0Z"  horiz-adv-x="570" vert-adv-y="1000"  />

      
      <glyph glyph-name="uni32" unicode="&#x32;" d="M491 0L59 0L59 23L283 260Q332 311 364.50 353.50Q397 396 414 440Q431 484 431 539Q431 614 388 656.50Q345 699 268 699Q225 699 180 683Q135 667 95 635L80 655Q126 693 175.50 708.50Q225 724 268 724Q325 724 368 700.50Q411 677 434.50 635.50Q458 594 458 539Q458 479 439.50 432Q421 385 386.50 341Q352 297 303 246L95 26L95 25L491 25L491 0Z"  horiz-adv-x="570" vert-adv-y="1000"  />

      
      <glyph glyph-name="uni33" unicode="&#x33;" d="M470 551Q470 481 426.50 433.50Q383 386 318 375L318 373Q401 362 446.50 318Q492 274 492 194Q492 105 429.50 47.50Q367-10 247-10Q188-10 136.50 2Q85 14 47 32L47 60Q85 41 138.50 28Q192 15 247 15Q355 15 410 63.50Q465 112 465 194Q465 254 436 290.50Q407 327 356.50 343Q306 359 239 359L156 359L156 384L239 384Q292 384 338.50 401.50Q385 419 414 456Q443 493 443 551Q443 626 396.50 662.50Q350 699 273 699Q217 699 167.50 681.50Q118 664 69 629L55 650Q99 684 153 704Q207 724 273 724Q361 724 415.50 679Q470 634 470 551Z"  horiz-adv-x="570" vert-adv-y="1000"  />

      
      <glyph glyph-name="uni34" unicode="&#x34;" d="M560 194L426 194L426 0L400 0L400 194L25 194L25 212L398 718L426 718L426 219L560 219L560 194M400 524Q400 567 400 593.50Q400 620 400.50 640.50Q401 661 401 686L399 686Q382 659 370 641Q358 623 335 592L60 219L400 219L400 524Z"  horiz-adv-x="570" vert-adv-y="1000"  />

      
      <glyph glyph-name="uni35" unicode="&#x35;" d="M274 426Q381 426 443 372Q505 318 505 217Q505 147 473.50 96Q442 45 385 17.50Q328-10 253-10Q196-10 151 2Q106 14 74 32L74 62Q108 42 153 28.50Q198 15 253 15Q355 15 416.50 68.50Q478 122 478 217Q478 303 426.50 352Q375 401 274 401Q228 401 191 395Q154 389 117 378L98 393L128 714L462 714L462 689L151 689L126 406Q151 412 187 419Q223 426 274 426Z"  horiz-adv-x="570" vert-adv-y="1000"  />

      
      <glyph glyph-name="uni36" unicode="&#x36;" d="M68 303Q68 456 107 549Q146 642 214 684Q282 726 367 726Q397 726 421 722.50Q445 719 465 713L465 686Q447 693 422 697Q397 701 367 701Q288 701 227.50 662.50Q167 624 131.50 541Q96 458 93 322L95 322Q108 350 135 377Q162 404 204.50 421.50Q247 439 304 439Q403 439 458 381Q513 323 513 225Q513 156 488 103Q463 50 415 20Q367-10 299-10Q236-10 191.50 17Q147 44 120 89Q93 134 80.50 190Q68 246 68 303M299 15Q390 15 438 71.50Q486 128 486 225Q486 313 441 363.50Q396 414 304 414Q241 414 195 389Q149 364 124.50 328Q100 292 100 258Q100 228 108.50 187Q117 146 138.50 106.50Q160 67 199 41Q238 15 299 15Z"  horiz-adv-x="570" vert-adv-y="1000"  />

      
      <glyph glyph-name="uni37" unicode="&#x37;" d="M183 0L480 689L58 689L58 714L510 714L510 697L212 0L183 0Z"  horiz-adv-x="570" vert-adv-y="1000"  />

      
      <glyph glyph-name="uni38" unicode="&#x38;" d="M283 724Q373 724 426 681Q479 638 479 561Q479 495 434.50 453.50Q390 412 314 382Q403 352 453 305Q503 258 503 181Q503 120 473 77.50Q443 35 392.50 12.50Q342-10 279-10Q216-10 167.50 13.50Q119 37 91.50 78.50Q64 120 64 175Q64 257 115 305Q166 353 251 381Q206 398 169 420.50Q132 443 109.50 476.50Q87 510 87 559Q87 609 112 646Q137 683 181.50 703.50Q226 724 283 724M283 699Q210 699 162 663Q114 627 114 559Q114 495 161 458Q208 421 286 394Q369 428 410.50 465Q452 502 452 561Q452 630 407.50 664.50Q363 699 283 699M91 175Q91 101 143 58Q195 15 279 15Q365 15 420.50 57Q476 99 476 181Q476 246 433.50 287.50Q391 329 309 358L281 368Q228 351 185 326.50Q142 302 116.50 265.50Q91 229 91 175Z"  horiz-adv-x="570" vert-adv-y="1000"  />

      
      <glyph glyph-name="uni39" unicode="&#x39;" d="M500 413Q500 260 461 166.50Q422 73 354.50 30.50Q287-12 201-12Q172-12 142.50-8.50Q113-5 93 1L93 29Q111 22 140.50 17.50Q170 13 201 13Q279 13 340 52Q401 91 436.50 175Q472 259 475 394L473 394Q460 366 432.50 338.50Q405 311 362.50 293Q320 275 262 275Q163 275 109 334Q55 393 55 491Q55 560 80 612.50Q105 665 153 694.50Q201 724 269 724Q334 724 378 697.50Q422 671 449 626.50Q476 582 488 526.50Q500 471 500 413M269 699Q178 699 130 643.50Q82 588 82 491Q82 403 127.50 351.50Q173 300 264 300Q327 300 372.50 325.50Q418 351 443 387.50Q468 424 468 458Q468 487 459.50 528Q451 569 429.50 608Q408 647 369 673Q330 699 269 699Z"  horiz-adv-x="570" vert-adv-y="1000"  />

      
      <glyph glyph-name="uni3a" unicode="&#x3a;" d="M85 501Q85 513 90 522.50Q95 532 110 532Q128 532 132.50 522.50Q137 513 137 501Q137 488 132.50 479Q128 470 110 470Q95 470 90 479Q85 488 85 501M85 23Q85 35 90 44.50Q95 54 110 54Q128 54 132.50 44.50Q137 35 137 23Q137 10 132.50 1Q128-8 110-8Q95-8 90 1Q85 10 85 23Z"  horiz-adv-x="220" vert-adv-y="1000"  />

      
      <glyph glyph-name="uni3b" unicode="&#x3b;" d="M85 501Q85 513 90 522.50Q95 532 110 532Q128 532 132.50 522.50Q137 513 137 501Q137 488 132.50 479Q128 470 110 470Q95 470 90 479Q85 488 85 501M125 104Q114 49 97.50-14Q81-77 60-129L38-129Q60-56 73 1.50Q86 59 94 116L122 116L125 104Z"  horiz-adv-x="220" vert-adv-y="1000"  />

      
      <glyph glyph-name="uni3c" unicode="&#x3c;" d="M514 138L56 353L56 371L514 586L514 560L91 362L514 164L514 138Z"  horiz-adv-x="570" vert-adv-y="1000"  />

      
      <glyph glyph-name="uni3d" unicode="&#x3d;" d="M55 443L55 467L515 467L515 443L55 443M55 239L55 263L515 263L515 239L55 239Z"  horiz-adv-x="570" vert-adv-y="1000"  />

      
      <glyph glyph-name="uni3e" unicode="&#x3e;" d="M56 164L479 362L56 560L56 586L514 371L514 353L56 138L56 164Z"  horiz-adv-x="570" vert-adv-y="1000"  />

      
      <glyph glyph-name="uni3f" unicode="&#x3f;" d="M144 186Q144 236 151 267.50Q158 299 176.50 323Q195 347 229 371Q265 397 291.50 421.50Q318 446 332.50 477Q347 508 347 554Q347 629 302.50 664Q258 699 188 699Q151 699 117.50 691Q84 683 48 665L38 691Q82 709 115 716.50Q148 724 188 724Q272 724 323 682Q374 640 374 554Q374 504 357.50 468.50Q341 433 311.50 405.50Q282 378 242 350Q203 323 186 288.50Q169 254 169 186L169 174L144 174L144 186M133 23Q133 35 138 44.50Q143 54 158 54Q176 54 180.50 44.50Q185 35 185 23Q185 10 180.50 1Q176-8 158-8Q143-8 138 1Q133 10 133 23Z"  horiz-adv-x="413" vert-adv-y="1000"  />

      
      <glyph glyph-name="uni40" unicode="&#x40;" d="M826 351Q826 283 809 227.50Q792 172 757.50 139.50Q723 107 670 107Q625 107 596.50 134Q568 161 566 212L565 212Q543 156 501 131.50Q459 107 411 107Q338 107 298 152.50Q258 198 258 284Q258 348 285 398Q312 448 359.50 477Q407 506 470 506Q506 506 538 501Q570 496 598 486L591 341Q590 323 588.50 297.50Q587 272 587 246Q587 192 605.50 162Q624 132 670 132Q715 132 743.50 160Q772 188 785.50 237.50Q799 287 799 351Q799 450 761 524.50Q723 599 649 640Q575 681 467 681Q354 681 266 635Q178 589 128.50 500.50Q79 412 79 284Q79 173 119 92.50Q159 12 234-31.50Q309-75 414-75Q464-75 516-64.50Q568-54 616-34L616-62Q573-80 522-90Q471-100 414-100Q302-100 221-53Q140-6 96 80.50Q52 167 52 284Q52 420 104.50 514Q157 608 251 657Q345 706 467 706Q579 706 659 662.50Q739 619 782.50 539.50Q826 460 826 351M285 284Q285 212 316 172Q347 132 411 132Q481 132 520 176.50Q559 221 564 316L572 466Q529 481 470 481Q388 481 336.50 428Q285 375 285 284Z"  horiz-adv-x="878" vert-adv-y="1000"  />

      
      <glyph glyph-name="uni41" unicode="&#x41;" d="M549 0L445 271L135 271L28 0L0 0L282 716L307 716L577 0L549 0M325 594Q319 611 311 632.50Q303 654 293 682Q286 660 277 636.50Q268 613 260 593L144 296L435 296L325 594Z"  horiz-adv-x="577" vert-adv-y="1000"  />

      
      <glyph glyph-name="uni42" unicode="&#x42;" d="M294 714Q425 714 482 671Q539 628 539 542Q539 481 503 435Q467 389 398 377L398 375Q487 362 522 316.50Q557 271 557 203Q557 130 524 85Q491 40 433.50 20Q376 0 303 0L103 0L103 714L294 714M303 388Q512 388 512 541Q512 620 459.50 654.50Q407 689 291 689L129 689L129 388L303 388M129 363L129 25L311 25Q413 25 471.50 67.50Q530 110 530 202Q530 264 502.50 299Q475 334 423.50 348.50Q372 363 300 363L129 363Z"  horiz-adv-x="613" vert-adv-y="1000"  />

      
      <glyph glyph-name="uni43" unicode="&#x43;" d="M405 699Q305 699 234.50 655Q164 611 127 534.50Q90 458 90 360Q90 257 123 179Q156 101 222 58Q288 15 386 15Q444 15 489 23Q534 31 570 44L570 21Q537 8 491-1Q445-10 386-10Q280-10 208 36.50Q136 83 99.50 166Q63 249 63 360Q63 464 104 546.50Q145 629 221.50 676.50Q298 724 405 724Q502 724 583 687L573 662Q530 685 488 692Q446 699 405 699Z"  horiz-adv-x="614" vert-adv-y="1000"  />

      
      <glyph glyph-name="uni44" unicode="&#x44;" d="M628 364Q628 185 536.50 92.50Q445 0 257 0L103 0L103 714L280 714Q457 714 542.50 624Q628 534 628 364M601 363Q601 522 522.50 605.50Q444 689 270 689L129 689L129 25L260 25Q601 25 601 363Z"  horiz-adv-x="692" vert-adv-y="1000"  />

      
      <glyph glyph-name="uni45" unicode="&#x45;" d="M488 0L103 0L103 714L488 714L488 689L129 689L129 389L468 389L468 364L129 364L129 25L488 25L488 0Z"  horiz-adv-x="550" vert-adv-y="1000"  />

      
      <glyph glyph-name="uni46" unicode="&#x46;" d="M129 0L103 0L103 714L489 714L489 689L129 689L129 354L470 354L470 329L129 329L129 0Z"  horiz-adv-x="492" vert-adv-y="1000"  />

      
      <glyph glyph-name="uni47" unicode="&#x47;" d="M367 350L639 350L639 36Q591 13 533.50 1.50Q476-10 417-10Q244-10 153.50 85Q63 180 63 355Q63 461 106.50 544.50Q150 628 231 677Q312 726 424 726Q481 726 532.50 715.50Q584 705 631 682L619 657Q568 682 519.50 691.50Q471 701 423 701Q320 701 245 656Q170 611 130 533Q90 455 90 356Q90 235 130.50 160Q171 85 245 50Q319 15 419 15Q477 15 525.50 24.50Q574 34 613 50L613 325L367 325L367 350Z"  horiz-adv-x="720" vert-adv-y="1000"  />

      
      <glyph glyph-name="uni48" unicode="&#x48;" d="M603 0L577 0L577 363L129 363L129 0L103 0L103 714L129 714L129 388L577 388L577 714L603 714L603 0Z"  horiz-adv-x="706" vert-adv-y="1000"  />

      
      <glyph glyph-name="uni49" unicode="&#x49;" d="M223 0L61 0L61 20L129 23L129 690L61 694L61 714L223 714L223 694L155 690L155 23L223 20L223 0Z"  horiz-adv-x="283" vert-adv-y="1000"  />

      
      <glyph glyph-name="uni4a" unicode="&#x4a;" d="M-19-174Q-47-174-66-170Q-85-166-98-162L-98-134Q-84-140-63-144Q-42-148-19-148Q53-148 79.50-105.50Q106-63 106 5L106 714L132 714L132 2Q132-47 117.50-87Q103-127 70-150.50Q37-174-19-174Z"  horiz-adv-x="231" vert-adv-y="1000"  />

      
      <glyph glyph-name="uni4b" unicode="&#x4b;" d="M558 0L524 0L234 398L129 293L129 0L103 0L103 714L129 714L129 324Q140 337 153 350Q166 363 179 376L514 714L552 714L254 417L558 0Z"  horiz-adv-x="558" vert-adv-y="1000"  />

      
      <glyph glyph-name="uni4c" unicode="&#x4c;" d="M103 0L103 714L129 714L129 25L486 25L486 0L103 0Z"  horiz-adv-x="506" vert-adv-y="1000"  />

      
      <glyph glyph-name="uni4d" unicode="&#x4d;" d="M408 0L130 679L128 679Q129 654 129 636.50Q129 619 129 596L129 0L103 0L103 714L145 714L417 48L420 48L693 714L733 714L733 0L707 0L707 602Q707 617 707 635Q707 653 708 678L706 678L428 0L408 0Z"  horiz-adv-x="837" vert-adv-y="1000"  />

      
      <glyph glyph-name="uni4e" unicode="&#x4e;" d="M594 0L575 0L130 655L128 655Q129 612 129 577Q129 542 129 502L129 0L103 0L103 714L123 714L567 61L569 61Q568 99 568 138Q568 177 568 211L568 714L594 714L594 0Z"  horiz-adv-x="698" vert-adv-y="1000"  />

      
      <glyph glyph-name="uni4f" unicode="&#x4f;" d="M690 358Q690 250 655.50 167Q621 84 551.50 37Q482-10 376-10Q272-10 202.50 37.50Q133 85 98 168Q63 251 63 359Q63 467 100 549.50Q137 632 208.50 678.50Q280 725 382 725Q530 725 610 628.50Q690 532 690 358M90 359Q90 259 121 181.50Q152 104 216 59.50Q280 15 377 15Q475 15 538.50 58.50Q602 102 632.50 179.50Q663 257 663 358Q663 521 590 610.50Q517 700 382 700Q284 700 219 656Q154 612 122 535Q90 458 90 359Z"  horiz-adv-x="754" vert-adv-y="1000"  />

      
      <glyph glyph-name="uni50" unicode="&#x50;" d="M270 714Q389 714 452.50 668.50Q516 623 516 519Q516 442 484 394.50Q452 347 393.50 326Q335 305 256 305L129 305L129 0L103 0L103 714L270 714M266 689L129 689L129 330L254 330Q324 330 377 346.50Q430 363 459.50 404Q489 445 489 518Q489 609 434.50 649Q380 689 266 689Z"  horiz-adv-x="573" vert-adv-y="1000"  />

      
      <glyph glyph-name="uni51" unicode="&#x51;" d="M690 358Q690 263 662.50 186Q635 109 580.50 59.50Q526 10 443-4L585-170L549-170L413-8Q404-9 395-9.50Q386-10 376-10Q272-10 202.50 37.50Q133 85 98 168Q63 251 63 359Q63 467 100 549.50Q137 632 208.50 678.50Q280 725 382 725Q530 725 610 628.50Q690 532 690 358M90 359Q90 259 121 181.50Q152 104 216 59.50Q280 15 377 15Q475 15 538.50 58.50Q602 102 632.50 179.50Q663 257 663 358Q663 521 590 610.50Q517 700 382 700Q284 700 219 656Q154 612 122 535Q90 458 90 359Z"  horiz-adv-x="754" vert-adv-y="1000"  />

      
      <glyph glyph-name="uni52" unicode="&#x52;" d="M262 714Q345 714 401.50 697.50Q458 681 487 640Q516 599 516 525Q516 446 473.50 396.50Q431 347 355 327L551 0L518 0L327 320L129 320L129 0L103 0L103 714L262 714M257 689L129 689L129 345L292 345Q379 345 434 392Q489 439 489 524Q489 588 463.50 624Q438 660 386.50 674.50Q335 689 257 689Z"  horiz-adv-x="577" vert-adv-y="1000"  />

      
      <glyph glyph-name="uni53" unicode="&#x53;" d="M489 180Q489 116 456.50 73.50Q424 31 369.50 10.50Q315-10 250-10Q181-10 136.50-0.50Q92 9 56 19L56 48Q96 34 143.50 24.50Q191 15 252 15Q309 15 356.50 32.50Q404 50 433 86.50Q462 123 462 181Q462 231 438 261.50Q414 292 369.50 312.50Q325 333 263 352Q205 371 160 392.50Q115 414 89.50 449.50Q64 485 64 544Q64 604 94.50 644Q125 684 176.50 704Q228 724 291 724Q338 724 382.50 715.50Q427 707 471 687L460 664Q414 684 371.50 691.50Q329 699 289 699Q236 699 191 683Q146 667 118.50 633.50Q91 600 91 546Q91 492 116 460Q141 428 183.50 409.50Q226 391 277 375Q341 355 388.50 332.50Q436 310 462.50 274.50Q489 239 489 180Z"  horiz-adv-x="543" vert-adv-y="1000"  />

      
      <glyph glyph-name="uni54" unicode="&#x54;" d="M265 0L239 0L239 689L2 689L2 714L503 714L503 689L265 689L265 0Z"  horiz-adv-x="505" vert-adv-y="1000"  />

      
      <glyph glyph-name="uni55" unicode="&#x55;" d="M618 252Q618 163 584.50 105Q551 47 492 18.50Q433-10 355-10Q231-10 163 57Q95 124 95 254L95 714L121 714L121 256Q121 136 182.50 75.50Q244 15 356 15Q463 15 527.50 72.50Q592 130 592 244L592 714L618 714L618 252Z"  horiz-adv-x="712" vert-adv-y="1000"  />

      
      <glyph glyph-name="uni56" unicode="&#x56;" d="M563 714L294 0L269 0L0 714L28 714L244 143Q255 115 265 87.50Q275 60 282 37Q290 60 298.50 84.50Q307 109 320 143L535 714L563 714Z"  horiz-adv-x="563" vert-adv-y="1000"  />

      
      <glyph glyph-name="uni57" unicode="&#x57;" d="M839 714L641 0L617 0L456 582Q449 611 443 629.50Q437 648 431 675Q427 650 423.50 635.50Q420 621 415 604L252 0L228 0L33 714L60 714L208 170Q218 133 225.50 107Q233 81 240 52Q247 81 254 107.50Q261 134 271 171L420 714L445 714L598 168Q609 129 615.50 103.50Q622 78 629 48Q635 78 641 103.50Q647 129 658 168L812 714L839 714Z"  horiz-adv-x="869" vert-adv-y="1000"  />

      
      <glyph glyph-name="uni58" unicode="&#x58;" d="M512 0L481 0L256 350L28 0L-3 0L239 370L22 714L53 714L257 390L463 714L494 714L274 370L512 0Z"  horiz-adv-x="509" vert-adv-y="1000"  />

      
      <glyph glyph-name="uni59" unicode="&#x59;" d="M253 301L475 714L505 714L267 275L267 0L241 0L241 271L0 714L30 714L253 301Z"  horiz-adv-x="505" vert-adv-y="1000"  />

      
      <glyph glyph-name="uni5a" unicode="&#x5a;" d="M538 0L36 0L36 18L489 689L64 689L64 714L526 714L526 696L73 25L538 25L538 0Z"  horiz-adv-x="578" vert-adv-y="1000"  />

      
      <glyph glyph-name="uni5b" unicode="&#x5b;" d="M288-158L88-158L88 714L288 714L288 689L113 689L113-133L288-133L288-158Z"  horiz-adv-x="313" vert-adv-y="1000"  />

      
      <glyph glyph-name="uni5c" unicode="&#x5c;" d="M41 714L309 0L281 0L13 714L41 714Z"  horiz-adv-x="322" vert-adv-y="1000"  />

      
      <glyph glyph-name="uni5d" unicode="&#x5d;" d="M25-133L200-133L200 689L25 689L25 714L225 714L225-158L25-158L25-133Z"  horiz-adv-x="313" vert-adv-y="1000"  />

      
      <glyph glyph-name="uni5e" unicode="&#x5e;" d="M46 278L282 719L305 719L524 278L495 278L292 686L75 278L46 278Z"  horiz-adv-x="570" vert-adv-y="1000"  />

      
      <glyph glyph-name="uni5f" unicode="&#x5f;" d="M393-116L-2-116L-2-91L393-91L393-116Z"  horiz-adv-x="391" vert-adv-y="1000"  />

      
      <glyph glyph-name="uni60" unicode="&#x60;" d="M70 766Q85 745 109 716.50Q133 688 160 660Q187 632 209 612L209 606L188 606Q148 639 107 682Q66 725 40 759L40 766L70 766Z"  horiz-adv-x="249" vert-adv-y="1000"  />

      
      <glyph glyph-name="uni61" unicode="&#x61;" d="M264 537Q346 537 387 492.50Q428 448 428 350L428 0L406 0L402 103L400 103Q379 57 334 23.50Q289-10 208-10Q129-10 88.50 28Q48 66 48 129Q48 208 114.50 247.50Q181 287 299 294L402 300L402 343Q402 433 368 472.50Q334 512 264 512Q224 512 186.50 503Q149 494 106 472L97 498Q137 516 178.50 526.50Q220 537 264 537M301 270Q199 265 137.50 232Q76 199 76 129Q76 76 110 45.50Q144 15 208 15Q308 15 354.50 72Q401 129 402 220L402 275L301 270Z"  horiz-adv-x="511" vert-adv-y="1000"  />

      
      <glyph glyph-name="uni62" unicode="&#x62;" d="M115 525Q115 501 114.50 466Q114 431 113 406L115 406Q132 464 183.50 501.50Q235 539 311 539Q416 539 470 469.50Q524 400 524 266Q524 190 500.50 127.50Q477 65 426.50 27.50Q376-10 295-10Q224-10 179.50 22.50Q135 55 117 104L115 104L111 0L89 0L89 760L115 760L115 525M311 514Q211 514 163 447Q115 380 115 263L115 253Q115 137 159.50 76Q204 15 295 15Q394 15 445.50 80.50Q497 146 497 266Q497 514 311 514Z"  horiz-adv-x="583" vert-adv-y="1000"  />

      
      <glyph glyph-name="uni63" unicode="&#x63;" d="M302-10Q218-10 164 25.50Q110 61 84.50 122.50Q59 184 59 261Q59 342 90.50 404.50Q122 467 180 502.50Q238 538 319 538Q355 538 384.50 532Q414 526 442 514L437 489Q407 503 377.50 508Q348 513 319 513Q247 513 195 481Q143 449 114.50 392Q86 335 86 261Q86 193 108.50 137Q131 81 178.50 48Q226 15 302 15Q338 15 373.50 22Q409 29 438 41L438 16Q413 6 378-2Q343-10 302-10Z"  horiz-adv-x="472" vert-adv-y="1000"  />

      
      <glyph glyph-name="uni64" unicode="&#x64;" d="M283-10Q169-10 114 58Q59 126 59 254Q59 391 119 464.50Q179 538 291 538Q363 538 407.50 502.50Q452 467 468 414L470 414Q469 448 468.50 480Q468 512 468 543L468 760L494 760L494 0L472 0L470 113L468 113Q450 63 406 26.50Q362-10 283-10M283 15Q383 15 425.50 80.50Q468 146 468 263L468 266Q468 386 424 449.50Q380 513 291 513Q192 513 139 448.50Q86 384 86 254Q86 134 134.50 74.50Q183 15 283 15Z"  horiz-adv-x="583" vert-adv-y="1000"  />

      
      <glyph glyph-name="uni65" unicode="&#x65;" d="M287 538Q355 538 397 505Q439 472 459 416.50Q479 361 479 291L479 266L86 266Q85 145 139 80Q193 15 296 15Q344 15 378.50 22Q413 29 459 50L459 23Q421 6 382.50-2Q344-10 296-10Q213-10 160.50 25Q108 60 83.50 121Q59 182 59 259Q59 334 84 397.50Q109 461 159.50 499.50Q210 538 287 538M287 513Q203 513 149.50 456.50Q96 400 87 291L452 291Q453 390 412 451.50Q371 513 287 513Z"  horiz-adv-x="540" vert-adv-y="1000"  />

      
      <glyph glyph-name="uni66" unicode="&#x66;" d="M258 503L139 503L139 0L113 0L113 503L11 503L11 525L113 528L113 603Q113 681 146.50 723Q180 765 257 765Q282 765 301 761.50Q320 758 339 753L335 727Q317 734 296.50 737Q276 740 257 740Q193 740 166 708.50Q139 677 139 603L139 528L258 528L258 503Z"  horiz-adv-x="274" vert-adv-y="1000"  />

      
      <glyph glyph-name="uni67" unicode="&#x67;" d="M290 538Q363 538 402.50 509.50Q442 481 463 437L465 437L470 528L492 528L492-25Q492-88 470.50-136.50Q449-185 401-212.50Q353-240 273-240Q212-240 167.50-229Q123-218 87-203L87-173Q123-190 170-202.50Q217-215 273-215Q379-215 422.50-163Q466-111 466-25L466 17Q466 46 466.50 67Q467 88 468 117L466 117Q448 55 399 22.50Q350-10 276-10Q174-10 116.50 57.50Q59 125 59 256Q59 387 117 462.50Q175 538 290 538M290 513Q185 513 135.50 445Q86 377 86 256Q86 138 135.50 76.50Q185 15 276 15Q335 15 372 35.50Q409 56 429.50 89.50Q450 123 458 164Q466 205 466 246L466 294Q466 357 450 406.50Q434 456 396 484.50Q358 513 290 513Z"  horiz-adv-x="583" vert-adv-y="1000"  />

      
      <glyph glyph-name="uni68" unicode="&#x68;" d="M116 496Q116 474 115.50 456.50Q115 439 114 417L116 417Q127 449 151 476.50Q175 504 214 521Q253 538 309 538Q395 538 442 491Q489 444 489 346L489 0L463 0L463 345Q463 433 422.50 473Q382 513 309 513Q223 513 169.50 461.50Q116 410 116 302L116 0L90 0L90 760L116 760L116 496Z"  horiz-adv-x="573" vert-adv-y="1000"  />

      
      <glyph glyph-name="uni69" unicode="&#x69;" d="M103 721Q121 721 125.50 711.50Q130 702 130 690Q130 677 125.50 668Q121 659 103 659Q88 659 83 668Q78 677 78 690Q78 702 83 711.50Q88 721 103 721M116 528L116 0L90 0L90 528L116 528Z"  horiz-adv-x="207" vert-adv-y="1000"  />

      
      <glyph glyph-name="uni6a" unicode="&#x6a;" d="M78 690Q78 702 83 711.50Q88 721 103 721Q121 721 125.50 711.50Q130 702 130 690Q130 677 125.50 668Q121 659 103 659Q88 659 83 668Q78 677 78 690M11-240Q-8-240-23-237Q-38-234-50-230L-50-204Q-35-211-19.50-213Q-4-215 11-215Q51-215 70.50-188.50Q90-162 90-116L90 528L116 528L116-120Q116-181 85-210.50Q54-240 11-240Z"  horiz-adv-x="207" vert-adv-y="1000"  />

      
      <glyph glyph-name="uni6b" unicode="&#x6b;" d="M116 385Q116 337 116 294Q116 251 115 204Q132 223 144 236.50Q156 250 172 268L405 528L439 528L234 301L459 0L428 0L216 283L116 172L116 0L90 0L90 760L116 760L116 385Z"  horiz-adv-x="454" vert-adv-y="1000"  />

      
      <glyph glyph-name="uni6c" unicode="&#x6c;" d="M117 0L91 0L91 760L117 760L117 0Z"  horiz-adv-x="207" vert-adv-y="1000"  />

      
      <glyph glyph-name="uni6d" unicode="&#x6d;" d="M614 538Q682 538 726 495Q770 452 770 361L770 0L744 0L744 360Q744 440 706.50 476.50Q669 513 614 513Q539 513 491 469.50Q443 426 443 325L443 0L417 0L417 360Q417 440 379.50 476.50Q342 513 287 513Q241 513 202 494Q163 475 139.50 433.50Q116 392 116 325L116 0L90 0L90 528L111 528L115 432L117 432Q128 457 148 481Q168 505 202 521.50Q236 538 287 538Q342 538 381 510Q420 482 433 429L435 429Q454 478 498.50 508Q543 538 614 538Z"  horiz-adv-x="852" vert-adv-y="1000"  />

      
      <glyph glyph-name="uni6e" unicode="&#x6e;" d="M309 538Q395 538 442 491Q489 444 489 346L489 0L463 0L463 345Q463 433 422.50 473Q382 513 309 513Q223 513 169.50 461.50Q116 410 116 302L116 0L90 0L90 528L111 528L115 417L117 417Q129 448 152.50 475.50Q176 503 214.50 520.50Q253 538 309 538Z"  horiz-adv-x="573" vert-adv-y="1000"  />

      
      <glyph glyph-name="uni6f" unicode="&#x6f;" d="M515 264Q515 187 490.50 124.50Q466 62 415.50 26Q365-10 286-10Q210-10 159.50 26Q109 62 84 124Q59 186 59 264Q59 390 120.50 464Q182 538 292 538Q372 538 421 501.50Q470 465 492.50 403Q515 341 515 264M86 264Q86 191 108 134.50Q130 78 174.50 46.50Q219 15 286 15Q356 15 400.50 47Q445 79 466.50 135.50Q488 192 488 264Q488 333 468.50 389.50Q449 446 406 479.50Q363 513 292 513Q193 513 139.50 447Q86 381 86 264Z"  horiz-adv-x="575" vert-adv-y="1000"  />

      
      <glyph glyph-name="uni70" unicode="&#x70;" d="M313 538Q418 538 472 469.50Q526 401 526 269Q526 136 467.50 63Q409-10 303-10Q224-10 179 27Q134 64 117 116L115 116Q117 82 117 49.50Q117 17 117-15L117-232L91-232L91 528L113 528L115 402L117 402Q128 437 153 468Q178 499 218 518.50Q258 538 313 538M313 513Q217 513 167 447.50Q117 382 117 265L117 262Q117 135 167.50 75Q218 15 303 15Q395 15 447 79Q499 143 499 269Q499 393 452 453Q405 513 313 513Z"  horiz-adv-x="583" vert-adv-y="1000"  />

      
      <glyph glyph-name="uni71" unicode="&#x71;" d="M465 3Q465 27 465.50 62Q466 97 467 122L465 122Q449 64 397 26.50Q345-11 269-11Q164-11 110 59Q56 129 56 262Q56 338 79.50 400.50Q103 463 154 500.50Q205 538 285 538Q356 538 401 504.50Q446 471 463 424L465 424L469 528L491 528L491-232L465-232L465 3M269 14Q370 14 417.50 81Q465 148 465 265L465 275Q465 391 420.50 452Q376 513 285 513Q186 513 134.50 447.50Q83 382 83 262Q83 14 269 14Z"  horiz-adv-x="583" vert-adv-y="1000"  />

      
      <glyph glyph-name="uni72" unicode="&#x72;" d="M278 536Q302 536 321.50 533Q341 530 359 525L353 501Q334 506 317.50 508.50Q301 511 278 511Q195 511 156 453Q117 395 117 297L117 0L91 0L91 528L115 528L117 427L119 427Q133 473 173.50 504.50Q214 536 278 536Z"  horiz-adv-x="375" vert-adv-y="1000"  />

      
      <glyph glyph-name="uni73" unicode="&#x73;" d="M411 134Q411 67 361.50 28.50Q312-10 213-10Q158-10 113 0.50Q68 11 39 24L39 54Q119 15 213 15Q304 15 344 47Q384 79 384 134Q384 173 362.50 196.50Q341 220 304.50 234.50Q268 249 224 262Q178 276 139.50 290.50Q101 305 78.50 331.50Q56 358 56 407Q56 469 105 503.50Q154 538 238 538Q285 538 326 529.50Q367 521 398 508L387 483Q359 497 318.50 505Q278 513 238 513Q166 513 124.50 486.50Q83 460 83 407Q83 366 103.50 344.50Q124 323 158.50 311Q193 299 233 286Q277 272 318 256Q359 240 385 212.50Q411 185 411 134Z"  horiz-adv-x="458" vert-adv-y="1000"  />

      
      <glyph glyph-name="uni74" unicode="&#x74;" d="M212 15Q237 15 256 18.50Q275 22 291 28L291 3Q275-2 256.50-6Q238-10 212-10Q142-10 116.50 30Q91 70 91 140L91 503L10 503L10 525L90 528L96 659L117 659L117 528L289 528L289 503L117 503L117 143Q117 82 137 48.50Q157 15 212 15Z"  horiz-adv-x="319" vert-adv-y="1000"  />

      
      <glyph glyph-name="uni75" unicode="&#x75;" d="M481 528L481 0L460 0L456 111L454 111Q443 81 419 53Q395 25 356.50 7.50Q318-10 262-10Q174-10 128 39Q82 88 82 182L82 528L108 528L108 186Q108 98 148 56.50Q188 15 262 15Q348 15 401.50 66.50Q455 118 455 226L455 528L481 528Z"  horiz-adv-x="573" vert-adv-y="1000"  />

      
      <glyph glyph-name="uni76" unicode="&#x76;" d="M204 0L0 528L27 528L177 138Q190 106 198 83.50Q206 61 214 36L216 36Q225 61 232.50 83.50Q240 106 253 138L403 528L430 528L226 0L204 0Z"  horiz-adv-x="430" vert-adv-y="1000"  />

      
      <glyph glyph-name="uni77" unicode="&#x77;" d="M380 388Q372 414 365.50 434.50Q359 455 351 482L349 482Q335 432 320 388L191-1L169-1L16 527L45 527L150 156Q163 110 169 87Q175 64 180 41L182 41Q188 64 194.50 87Q201 110 216 156L341 527L362 527L481 157Q504 84 515 41L517 41Q520 64 526.50 88.50Q533 113 544 156L643 527L669 527L528-1L506-1L380 388Z"  horiz-adv-x="685" vert-adv-y="1000"  />

      
      <glyph glyph-name="uni78" unicode="&#x78;" d="M219 272L34 528L67 528L236 290L405 528L437 528L254 272L449 0L417 0L236 253L57 0L26 0L219 272Z"  horiz-adv-x="479" vert-adv-y="1000"  />

      
      <glyph glyph-name="uni79" unicode="&#x79;" d="M0 528L27 528L164 172Q182 124 194.50 91Q207 58 214 37L216 37Q224 59 235.50 91Q247 123 264 168L403 528L430 528L181-115Q156-180 126.50-211.50Q97-243 48-243Q21-243-6-233L-6-207Q8-212 20-215Q32-218 48-218Q86-218 110.50-192Q135-166 160-102L201 6L0 528Z"  horiz-adv-x="428" vert-adv-y="1000"  />

      
      <glyph glyph-name="uni7a" unicode="&#x7a;" d="M412 0L41 0L41 17L377 503L68 503L68 528L415 528L415 513L77 25L412 25L412 0Z"  horiz-adv-x="456" vert-adv-y="1000"  />

      
      <glyph glyph-name="uni7b" unicode="&#x7b;" d="M300-158Q218-158 177-123Q136-88 136-23L136 148Q136 210 111 238Q86 266 26 266L26 290Q86 290 111 317Q136 344 136 408L136 579Q136 644 177 679Q218 714 300 714L300 689Q229 689 196 661.50Q163 634 163 573L163 404Q163 353 145.50 320Q128 287 84 279L84 277Q128 269 145.50 236Q163 203 163 152L163-20Q163-78 196-105.50Q229-133 300-133L300-158Z"  horiz-adv-x="337" vert-adv-y="1000"  />

      
      <glyph glyph-name="uni7c" unicode="&#x7c;" d="M253 763L278 763L278-251L253-251L253 763Z"  horiz-adv-x="535" vert-adv-y="1000"  />

      
      <glyph glyph-name="uni7d" unicode="&#x7d;" d="M36-133Q107-133 140-105.50Q173-78 173-20L173 152Q173 203 190.50 236Q208 269 252 277L252 279Q208 287 190.50 320Q173 353 173 404L173 573Q173 634 140 661.50Q107 689 36 689L36 714Q118 714 159 679Q200 644 200 579L200 408Q200 344 225 317Q250 290 310 290L310 266Q250 266 225 238Q200 210 200 148L200-23Q200-88 159-123Q118-158 36-158L36-133Z"  horiz-adv-x="337" vert-adv-y="1000"  />

      
      <glyph glyph-name="uni7e" unicode="&#x7e;" d="M282 342Q255 356 231.50 364.50Q208 373 173 373Q144 373 114.50 360.50Q85 348 56 318L56 349Q79 371 109.50 384Q140 397 173 397Q215 397 241 387.50Q267 378 295 364Q322 351 345.50 342Q369 333 400 333Q427 333 455.50 344.50Q484 356 514 387L514 358Q495 338 465.50 323.50Q436 309 400 309Q364 309 338 318Q312 327 282 342Z"  horiz-adv-x="570" vert-adv-y="1000"  />

      
      <glyph glyph-name="unia1" unicode="&#xa1;" d="M137 505Q137 493 132 483.50Q127 474 112 474Q94 474 89.50 483.50Q85 493 85 505Q85 518 89.50 527Q94 536 112 536Q127 536 132 527Q137 518 137 505M98 354L122 354L124-186L96-186L98 354Z"  horiz-adv-x="223" vert-adv-y="1000"  />

      
      <glyph glyph-name="unia2" unicode="&#xa2;" d="M338 638Q378 638 408 632.50Q438 627 468 614L463 589Q433 603 403.50 608Q374 613 345 613Q273 613 221 581Q169 549 140.50 492Q112 435 112 361Q112 293 134.50 237Q157 181 204.50 148Q252 115 328 115Q364 115 399.50 122Q435 129 464 141L464 116Q441 106 408.50 98.50Q376 91 338 90L338-10L313-10L313 90Q234 94 183.50 130Q133 166 109 226Q85 286 85 361Q85 436 112 495.50Q139 555 190 592Q241 629 313 636L313 724L338 724L338 638Z"  horiz-adv-x="570" vert-adv-y="1000"  />

      
      <glyph glyph-name="unia3" unicode="&#xa3;" d="M344 723Q391 723 426.50 714.50Q462 706 491 694L482 669Q449 683 417.50 690.50Q386 698 344 698Q267 698 229 652.50Q191 607 191 512L191 360L390 360L390 335L191 335L191 188Q191 118 168.50 80Q146 42 111 25L518 25L518 0L42 0L42 23Q103 34 134 74Q165 114 165 187L165 335L58 335L58 360L165 360L165 516Q165 620 211 671.50Q257 723 344 723Z"  horiz-adv-x="570" vert-adv-y="1000"  />

      
      <glyph glyph-name="unia4" unicode="&#xa4;" d="M84 354Q84 390 96.50 425Q109 460 134 488L57 566L72 582L150 504Q179 530 213.50 542.50Q248 555 284 555Q320 555 355.50 542.50Q391 530 419 504L496 581L511 565L434 488Q460 460 472.50 425Q485 390 485 354Q485 318 472.50 283.50Q460 249 434 220L512 142L496 126L419 204Q391 179 355.50 166Q320 153 284 153Q248 153 213.50 166Q179 179 150 204L72 126L57 142L134 220Q109 249 96.50 283.50Q84 318 84 354M106 354Q106 303 130.50 262.50Q155 222 195.50 198.50Q236 175 283 175Q333 175 373.50 199.50Q414 224 438.50 265Q463 306 463 355Q463 404 438.50 444Q414 484 374 508.50Q334 533 285 533Q236 533 195.50 509Q155 485 130.50 444.50Q106 404 106 354Z"  horiz-adv-x="570" vert-adv-y="1000"  />

      
      <glyph glyph-name="unia5" unicode="&#xa5;" d="M286 336L514 714L545 714L306 323L474 323L474 298L299 298L299 187L474 187L474 162L299 162L299 0L273 0L273 162L97 162L97 187L273 187L273 298L97 298L97 323L264 323L25 714L56 714L286 336Z"  horiz-adv-x="570" vert-adv-y="1000"  />

      
      <glyph glyph-name="unia6" unicode="&#xa6;" d="M253 763L278 763L278 395L253 395L253 763M253 118L278 118L278-251L253-251L253 118Z"  horiz-adv-x="535" vert-adv-y="1000"  />

      
      <glyph glyph-name="unia7" unicode="&#xa7;" d="M82 395Q82 444 112 475Q142 506 190 522Q146 538 117 561.50Q88 585 88 633Q88 692 135 725.50Q182 759 263 759Q308 759 347 751Q386 743 417 730L406 706Q379 720 340 727.50Q301 735 263 735Q193 735 153.50 709.50Q114 684 114 633Q114 599 134 580.50Q154 562 186.50 551Q219 540 258 527Q301 514 340 498.50Q379 483 404 456.50Q429 430 429 381Q429 333 403 298.50Q377 264 337 244Q374 228 398.50 203Q423 178 423 133Q423 72 375.50 35.50Q328-1 233-1Q181-1 137 9.50Q93 20 65 32L65 61Q143 23 233 23Q320 23 358.50 53.50Q397 84 397 133Q397 168 376 189.50Q355 211 320.50 225Q286 239 243 251Q199 265 162 280Q125 295 103.50 321.50Q82 348 82 395M108 395Q108 356 127.50 334Q147 312 179.50 299.50Q212 287 251 274L311 255Q353 272 378 305Q403 338 403 381Q403 436 356.50 463Q310 490 225 511Q176 498 142 471Q108 444 108 395Z"  horiz-adv-x="518" vert-adv-y="1000"  />

      
      <glyph glyph-name="unia8" unicode="&#xa8;" d="M170 678Q170 690 175 699.50Q180 709 193 709Q210 709 214 699.50Q218 690 218 678Q218 665 214 656Q210 647 193 647Q180 647 175 656Q170 665 170 678M355 678Q355 690 360 699.50Q365 709 378 709Q395 709 399 699.50Q403 690 403 678Q403 665 399 656Q395 647 378 647Q365 647 360 656Q355 665 355 678Z"  horiz-adv-x="575" vert-adv-y="1000"  />

      
      <glyph glyph-name="unia9" unicode="&#xa9;" d="M416-8Q336-8 269 20.50Q202 49 153 99.50Q104 150 77 216Q50 282 50 357Q50 435 79 501.50Q108 568 158.50 617.50Q209 667 275 694.50Q341 722 416 722Q496 722 563 692Q630 662 679 610.50Q728 559 755 493.50Q782 428 782 357Q782 282 753.50 215.50Q725 149 674.50 99Q624 49 557.50 20.50Q491-8 416-8M416 17Q489 17 551 44.50Q613 72 659 119.50Q705 167 730.50 228Q756 289 756 357Q756 426 730.50 487Q705 548 659 595.50Q613 643 551 670Q489 697 416 697Q344 697 282.50 670.50Q221 644 174.50 597.50Q128 551 102 489.50Q76 428 76 357Q76 288 100.50 226.50Q125 165 170 118Q215 71 277.50 44Q340 17 416 17M435 143Q343 143 286.50 196Q230 249 230 356Q230 422 256.50 470.50Q283 519 330.50 545.50Q378 572 439 572Q483 572 511.50 565Q540 558 565 546L554 523Q531 534 504 540Q477 546 439 546Q359 546 308 495Q257 444 257 356Q257 262 308 215Q359 168 435 168Q470 168 495 172.50Q520 177 550 188L550 164Q525 154 497 148.50Q469 143 435 143Z"  horiz-adv-x="832" vert-adv-y="1000"  />

      
      <glyph glyph-name="uniaa" unicode="&#xaa;" d="M169 722Q219 722 243.50 696Q268 670 268 622L268 402L245 402L241 449Q230 427 205 412.50Q180 398 143 398Q96 398 68.50 420Q41 442 41 486Q41 533 79 557Q117 581 197 585L242 587L242 618Q242 659 222.50 678Q203 697 168 697Q120 697 74 672L64 696Q87 707 114 714.50Q141 722 169 722M196 560Q131 557 99.50 541Q68 525 68 486Q68 423 144 423Q193 423 217.50 450.50Q242 478 242 527L242 562L196 560Z"  horiz-adv-x="322" vert-adv-y="1000"  />

      
      <glyph glyph-name="uniab" unicode="&#xab;" d="M26 285L178 472L194 460L57 279L194 98L178 87L26 272L26 285M195 285L347 472L363 460L226 279L363 98L347 87L195 272L195 285Z"  horiz-adv-x="389" vert-adv-y="1000"  />

      
      <glyph glyph-name="uniac" unicode="&#xac;" d="M498 365L498 132L474 132L474 341L55 341L55 365L498 365Z"  horiz-adv-x="570" vert-adv-y="1000"  />

      
      <glyph glyph-name="uniad" unicode="&#xad;" d="M40 259L40 284L282 284L282 259L40 259Z"  horiz-adv-x="322" vert-adv-y="1000"  />

      
      <glyph glyph-name="uniae" unicode="&#xae;" d="M416-8Q336-8 269 20.50Q202 49 153 99.50Q104 150 77 216Q50 282 50 357Q50 435 79 501.50Q108 568 158.50 617.50Q209 667 275 694.50Q341 722 416 722Q496 722 563 692Q630 662 679 610.50Q728 559 755 493.50Q782 428 782 357Q782 282 753.50 215.50Q725 149 674.50 99Q624 49 557.50 20.50Q491-8 416-8M416 17Q489 17 551 44.50Q613 72 659 119.50Q705 167 730.50 228Q756 289 756 357Q756 426 730.50 487Q705 548 659 595.50Q613 643 551 670Q489 697 416 697Q344 697 282.50 670.50Q221 644 174.50 597.50Q128 551 102 489.50Q76 428 76 357Q76 288 100.50 226.50Q125 165 170 118Q215 71 277.50 44Q340 17 416 17M298 143L298 569L416 569Q478 569 517 540.50Q556 512 556 449Q556 400 529.50 370.50Q503 341 463 329L577 143L545 143L436 324L323 324L323 143L298 143M412 346Q462 346 497 370.50Q532 395 532 449Q532 500 499 522.50Q466 545 414 545L322 545L322 346L412 346Z"  horiz-adv-x="832" vert-adv-y="1000"  />

      
      <glyph glyph-name="uniaf" unicode="&#xaf;" d="M503 760L-3 760L-3 785L503 785L503 760Z"  horiz-adv-x="500" vert-adv-y="1000"  />

      
      <glyph glyph-name="unib0" unicode="&#xb0;" d="M214 441Q154 441 112.50 479.50Q71 518 71 583Q71 647 112 685.50Q153 724 214 724Q276 724 316.50 684.50Q357 645 357 583Q357 518 316.50 479.50Q276 441 214 441M213 466Q264 466 297 499Q330 532 330 583Q330 636 297 667.50Q264 699 213 699Q161 699 129.50 667.50Q98 636 98 583Q98 532 129.50 499Q161 466 213 466Z"  horiz-adv-x="428" vert-adv-y="1000"  />

      
      <glyph glyph-name="unib1" unicode="&#xb1;" d="M297 365L515 365L515 341L297 341L297 123L273 123L273 341L55 341L55 365L273 365L273 583L297 583L297 365M55 0L55 24L515 24L515 0L55 0Z"  horiz-adv-x="570" vert-adv-y="1000"  />

      
      <glyph glyph-name="unib2" unicode="&#xb2;" d="M307 416L27 416L27 437L150 563Q204 619 236 657.50Q268 696 268 741Q268 780 243 805Q218 830 169 830Q138 830 111 820Q84 810 56 789L43 809Q98 855 169 855Q229 855 262 823Q295 791 295 741Q295 706 279.50 677Q264 648 235.50 617.50Q207 587 167 546L64 441L307 441L307 416Z"  horiz-adv-x="328" vert-adv-y="1000"  />

      
      <glyph glyph-name="unib3" unicode="&#xb3;" d="M170 851Q226 851 260 824Q294 797 294 747Q294 705 272.50 678.50Q251 652 218 644L218 642Q259 633 281.50 607.50Q304 582 304 539Q304 478 263.50 445Q223 412 151 412Q116 412 84 419Q52 426 26 437L26 465Q56 452 86.50 444.50Q117 437 151 437Q213 437 245 464Q277 491 277 539Q277 628 156 628L89 628L89 653L156 653Q209 653 238 677.50Q267 702 267 747Q267 783 242 804.50Q217 826 170 826Q133 826 103.50 815.50Q74 805 45 788L35 810Q63 829 96.50 840Q130 851 170 851Z"  horiz-adv-x="328" vert-adv-y="1000"  />

      
      <glyph glyph-name="unib4" unicode="&#xb4;" d="M209 759Q183 725 142 682Q101 639 61 606L40 606L40 612Q63 632 89.50 660Q116 688 140.50 716.50Q165 745 179 766L209 766L209 759Z"  horiz-adv-x="249" vert-adv-y="1000"  />

      
      <glyph glyph-name="unib5" unicode="&#xb5;" d="M489 528L489 0L466 0L463 94L461 94Q448 66 428 42.50Q408 19 373.50 4.50Q339-10 282-10Q216-10 175.50 12Q135 34 117 71L115 71L115-240L90-240L90 528L115 528L115 185Q115 15 282 15Q383 15 423.50 70.50Q464 126 464 227L464 528L489 528Z"  horiz-adv-x="580" vert-adv-y="1000"  />

      
      <glyph glyph-name="unib6" unicode="&#xb6;" d="M517-127L491-127L491 735L357 735L357-127L331-127L331 355Q315 351 298.50 348.50Q282 346 260 346Q205 346 168 374Q131 402 113 450Q95 498 95 557Q95 653 139 706.50Q183 760 275 760L517 760L517-127Z"  horiz-adv-x="655" vert-adv-y="1000"  />

      
      <glyph glyph-name="unib7" unicode="&#xb7;" d="M85 314Q85 326 90 335.50Q95 345 110 345Q128 345 132.50 335.50Q137 326 137 314Q137 301 132.50 292Q128 283 110 283Q95 283 90 292Q85 301 85 314Z"  horiz-adv-x="220" vert-adv-y="1000"  />

      
      <glyph glyph-name="unib8" unicode="&#xb8;" d="M180-145Q180-188 148-214Q116-240 67-240Q33-240 10-234L10-210Q23-214 35.50-215Q48-216 67-216Q105-216 130-198Q155-180 155-146Q155-114 130-99.50Q105-85 52-85L96 0L121 0L88-65Q132-67 156-88Q180-109 180-145Z"  horiz-adv-x="193" vert-adv-y="1000"  />

      
      <glyph glyph-name="unib9" unicode="&#xb9;" d="M193 844L193 416L167 416L167 696Q167 725 167 756.50Q167 788 168 815Q151 804 135 795.50Q119 787 95 774L48 749L37 771L173 844L193 844Z"  horiz-adv-x="328" vert-adv-y="1000"  />

      
      <glyph glyph-name="uniba" unicode="&#xba;" d="M318 560Q318 490 283 442.50Q248 395 177 395Q108 395 72.50 442.50Q37 490 37 560Q37 636 75.50 680.50Q114 725 180 725Q228 725 258.50 703Q289 681 303.50 643.50Q318 606 318 560M64 560Q64 499 92.50 459.50Q121 420 177 420Q236 420 263.50 460Q291 500 291 560Q291 617 265 658.50Q239 700 180 700Q125 700 94.50 662.50Q64 625 64 560Z"  horiz-adv-x="352" vert-adv-y="1000"  />

      
      <glyph glyph-name="unibb" unicode="&#xbb;" d="M363 274L211 87L195 99L332 280L195 461L211 472L363 287L363 274M194 274L42 87L26 99L163 280L26 461L42 472L194 287L194 274Z"  horiz-adv-x="389" vert-adv-y="1000"  />

      
      <glyph glyph-name="unibc" unicode="&#xbc;" d="M147 0L519 714L547 714L175 0L147 0M146 566Q146 595 146 626.50Q146 658 147 685Q130 674 114 665.50Q98 657 74 644L27 619L16 641L152 714L172 714L172 286L146 286L146 566M590 0L590 131L386 131L386 149L587 431L615 431L615 155L689 155L689 131L615 131L615 0L590 0M418 155L590 155L590 319Q590 343 590 363Q590 383 591 402Q581 386 574.50 375.50Q568 365 557 350L418 155Z"  horiz-adv-x="698" vert-adv-y="1000"  />

      
      <glyph glyph-name="unibd" unicode="&#xbd;" d="M147 0L519 714L547 714L175 0L147 0M146 566Q146 595 146 626.50Q146 658 147 685Q130 674 114 665.50Q98 657 74 644L27 619L16 641L152 714L172 714L172 286L146 286L146 566M443 0L443 21L566 147Q620 203 652 241.50Q684 280 684 325Q684 364 659 389Q634 414 585 414Q554 414 527 404Q500 394 472 373L459 393Q514 439 585 439Q645 439 678 407Q711 375 711 325Q711 290 695.50 261Q680 232 651.50 201.50Q623 171 583 130L480 25L723 25L723 0L443 0Z"  horiz-adv-x="744" vert-adv-y="1000"  />

      
      <glyph glyph-name="unibe" unicode="&#xbe;" d="M151 282Q116 282 84 289Q52 296 26 307L26 335Q56 322 86.50 314.50Q117 307 151 307Q213 307 245 334Q277 361 277 409Q277 498 156 498L89 498L89 523L156 523Q209 523 238 547.50Q267 572 267 617Q267 653 242 674.50Q217 696 170 696Q133 696 103.50 685.50Q74 675 45 658L35 680Q63 699 96.50 710Q130 721 170 721Q226 721 260 694Q294 667 294 617Q294 575 272.50 548.50Q251 522 218 514L218 512Q259 503 281.50 477.50Q304 452 304 409Q304 348 263.50 315Q223 282 151 282M207 0L579 714L607 714L235 0L207 0M650 0L650 131L446 131L446 149L647 431L675 431L675 155L749 155L749 131L675 131L675 0L650 0M478 155L650 155L650 319Q650 343 650 363Q650 383 651 402Q641 386 634.50 375.50Q628 365 617 350L478 155Z"  horiz-adv-x="758" vert-adv-y="1000"  />

      
      <glyph glyph-name="unibf" unicode="&#xbf;" d="M272 346Q272 296 265 264.50Q258 233 239.50 209Q221 185 187 161Q151 135 124.50 110.50Q98 86 83.50 55Q69 24 69-22Q69-97 113.50-132Q158-167 228-167Q265-167 298.50-159Q332-151 368-133L378-159Q334-177 301-184.50Q268-192 228-192Q144-192 93-150Q42-108 42-22Q42 28 58.50 63.50Q75 99 104.50 126.50Q134 154 174 182Q213 209 230 243.50Q247 278 247 346L247 358L272 358L272 346M283 509Q283 497 278 487.50Q273 478 258 478Q240 478 235.50 487.50Q231 497 231 509Q231 522 235.50 531Q240 540 258 540Q273 540 278 531Q283 522 283 509Z"  horiz-adv-x="413" vert-adv-y="1000"  />

      
      <glyph glyph-name="unic0" unicode="&#xc0;" d="M549 0L445 271L135 271L28 0L0 0L282 716L307 716L577 0L549 0M325 594Q319 611 311 632.50Q303 654 293 682Q286 660 277 636.50Q268 613 260 593L144 296L435 296L325 594M201 952Q216 931 240 902.50Q264 874 291 846Q318 818 340 798L340 792L319 792Q279 825 238 868Q197 911 171 945L171 952L201 952Z"  horiz-adv-x="577" vert-adv-y="1000"  />

      
      <glyph glyph-name="unic1" unicode="&#xc1;" d="M549 0L445 271L135 271L28 0L0 0L282 716L307 716L577 0L549 0M325 594Q319 611 311 632.50Q303 654 293 682Q286 660 277 636.50Q268 613 260 593L144 296L435 296L325 594M437 945Q411 911 370 868Q329 825 289 792L268 792L268 798Q291 818 317.50 846Q344 874 368.50 902.50Q393 931 407 952L437 952L437 945Z"  horiz-adv-x="577" vert-adv-y="1000"  />

      
      <glyph glyph-name="unic2" unicode="&#xc2;" d="M549 0L445 271L135 271L28 0L0 0L282 716L307 716L577 0L549 0M325 594Q319 611 311 632.50Q303 654 293 682Q286 660 277 636.50Q268 613 260 593L144 296L435 296L325 594M305 949Q317 929 337 901.50Q357 874 379 846.50Q401 819 419 798L419 792L398 792Q370 820 342.50 854.50Q315 889 294 917Q273 889 244.50 854.50Q216 820 188 792L167 792L167 798Q186 819 208 846.50Q230 874 250.50 901.50Q271 929 283 949L305 949Z"  horiz-adv-x="577" vert-adv-y="1000"  />

      
      <glyph glyph-name="unic3" unicode="&#xc3;" d="M549 0L445 271L135 271L28 0L0 0L282 716L307 716L577 0L549 0M325 594Q319 611 311 632.50Q303 654 293 682Q286 660 277 636.50Q268 613 260 593L144 296L435 296L325 594M107 804Q111 854 134.50 878Q158 902 196 902Q221 902 239.50 890.50Q258 879 273.50 864.50Q289 850 305.50 838.50Q322 827 342 827Q364 827 383.50 841.50Q403 856 407 902L432 902Q428 853 403.50 828Q379 803 341 803Q316 803 297.50 814.50Q279 826 263.50 840.50Q248 855 232 866.50Q216 878 194 878Q174 878 155.50 863.50Q137 849 132 804L107 804Z"  horiz-adv-x="577" vert-adv-y="1000"  />

      
      <glyph glyph-name="unic4" unicode="&#xc4;" d="M549 0L445 271L135 271L28 0L0 0L282 716L307 716L577 0L549 0M325 594Q319 611 311 632.50Q303 654 293 682Q286 660 277 636.50Q268 613 260 593L144 296L435 296L325 594M177 864Q177 876 182 885.50Q187 895 200 895Q217 895 221 885.50Q225 876 225 864Q225 851 221 842Q217 833 200 833Q187 833 182 842Q177 851 177 864M362 864Q362 876 367 885.50Q372 895 385 895Q402 895 406 885.50Q410 876 410 864Q410 851 406 842Q402 833 385 833Q372 833 367 842Q362 851 362 864Z"  horiz-adv-x="577" vert-adv-y="1000"  />

      
      <glyph glyph-name="unic5" unicode="&#xc5;" d="M549 0L445 271L135 271L28 0L0 0L282 716L307 716L577 0L549 0M325 594Q319 611 311 632.50Q303 654 293 682Q286 660 277 636.50Q268 613 260 593L144 296L435 296L325 594M292 696Q252 696 221.50 723.50Q191 751 191 796Q191 839 221 867.50Q251 896 292 896Q333 896 362.50 866.50Q392 837 392 796Q392 752 362.50 724Q333 696 292 696M292 720Q326 720 347 742.50Q368 765 368 796Q368 828 345.50 850Q323 872 292 872Q259 872 237 850Q215 828 215 796Q215 765 236.50 742.50Q258 720 292 720Z"  horiz-adv-x="577" vert-adv-y="1000"  />

      
      <glyph glyph-name="unic6" unicode="&#xc6;" d="M750 0L365 0L365 270L144 270L30 0L-1 0L306 714L750 714L750 689L391 689L391 389L730 389L730 364L391 364L391 25L750 25L750 0M156 295L365 295L365 689L323 689L156 295Z"  horiz-adv-x="763" vert-adv-y="1000"  />

      
      <glyph glyph-name="unic7" unicode="&#xc7;" d="M405 699Q305 699 234.50 655Q164 611 127 534.50Q90 458 90 360Q90 257 123 179Q156 101 222 58Q288 15 386 15Q444 15 489 23Q534 31 570 44L570 21Q537 8 491-1Q445-10 386-10Q280-10 208 36.50Q136 83 99.50 166Q63 249 63 360Q63 464 104 546.50Q145 629 221.50 676.50Q298 724 405 724Q502 724 583 687L573 662Q530 685 488 692Q446 699 405 699M439-145Q439-188 407-214Q375-240 326-240Q292-240 269-234L269-210Q282-214 294.50-215Q307-216 326-216Q364-216 389-198Q414-180 414-146Q414-114 389-99.50Q364-85 311-85L355 0L380 0L347-65Q391-67 415-88Q439-109 439-145Z"  horiz-adv-x="614" vert-adv-y="1000"  />

      
      <glyph glyph-name="unic8" unicode="&#xc8;" d="M488 0L103 0L103 714L488 714L488 689L129 689L129 389L468 389L468 364L129 364L129 25L488 25L488 0M217 952Q232 931 256 902.50Q280 874 307 846Q334 818 356 798L356 792L335 792Q295 825 254 868Q213 911 187 945L187 952L217 952Z"  horiz-adv-x="550" vert-adv-y="1000"  />

      
      <glyph glyph-name="unic9" unicode="&#xc9;" d="M488 0L103 0L103 714L488 714L488 689L129 689L129 389L468 389L468 364L129 364L129 25L488 25L488 0M453 945Q427 911 386 868Q345 825 305 792L284 792L284 798Q307 818 333.50 846Q360 874 384.50 902.50Q409 931 423 952L453 952L453 945Z"  horiz-adv-x="550" vert-adv-y="1000"  />

      
      <glyph glyph-name="unica" unicode="&#xca;" d="M488 0L103 0L103 714L488 714L488 689L129 689L129 389L468 389L468 364L129 364L129 25L488 25L488 0M321 949Q333 929 353 901.50Q373 874 395 846.50Q417 819 435 798L435 792L414 792Q386 820 358.50 854.50Q331 889 310 917Q289 889 260.50 854.50Q232 820 204 792L183 792L183 798Q202 819 224 846.50Q246 874 266.50 901.50Q287 929 299 949L321 949Z"  horiz-adv-x="550" vert-adv-y="1000"  />

      
      <glyph glyph-name="unicb" unicode="&#xcb;" d="M488 0L103 0L103 714L488 714L488 689L129 689L129 389L468 389L468 364L129 364L129 25L488 25L488 0M193 864Q193 876 198 885.50Q203 895 216 895Q233 895 237 885.50Q241 876 241 864Q241 851 237 842Q233 833 216 833Q203 833 198 842Q193 851 193 864M378 864Q378 876 383 885.50Q388 895 401 895Q418 895 422 885.50Q426 876 426 864Q426 851 422 842Q418 833 401 833Q388 833 383 842Q378 851 378 864Z"  horiz-adv-x="550" vert-adv-y="1000"  />

      
      <glyph glyph-name="unicc" unicode="&#xcc;" d="M223 0L61 0L61 20L129 23L129 690L61 694L61 714L223 714L223 694L155 690L155 23L223 20L223 0M49 952Q64 931 88 902.50Q112 874 139 846Q166 818 188 798L188 792L167 792Q127 825 86 868Q45 911 19 945L19 952L49 952Z"  horiz-adv-x="283" vert-adv-y="1000"  />

      
      <glyph glyph-name="unicd" unicode="&#xcd;" d="M223 0L61 0L61 20L129 23L129 690L61 694L61 714L223 714L223 694L155 690L155 23L223 20L223 0M284 945Q258 911 217 868Q176 825 136 792L115 792L115 798Q138 818 164.50 846Q191 874 215.50 902.50Q240 931 254 952L284 952L284 945Z"  horiz-adv-x="283" vert-adv-y="1000"  />

      
      <glyph glyph-name="unice" unicode="&#xce;" d="M223 0L61 0L61 20L129 23L129 690L61 694L61 714L223 714L223 694L155 690L155 23L223 20L223 0M152 949Q164 929 184 901.50Q204 874 226 846.50Q248 819 266 798L266 792L245 792Q217 820 189.50 854.50Q162 889 141 917Q120 889 91.50 854.50Q63 820 35 792L14 792L14 798Q33 819 55 846.50Q77 874 97.50 901.50Q118 929 130 949L152 949Z"  horiz-adv-x="283" vert-adv-y="1000"  />

      
      <glyph glyph-name="unicf" unicode="&#xcf;" d="M223 0L61 0L61 20L129 23L129 690L61 694L61 714L223 714L223 694L155 690L155 23L223 20L223 0M24 864Q24 876 29 885.50Q34 895 47 895Q64 895 68 885.50Q72 876 72 864Q72 851 68 842Q64 833 47 833Q34 833 29 842Q24 851 24 864M209 864Q209 876 214 885.50Q219 895 232 895Q249 895 253 885.50Q257 876 257 864Q257 851 253 842Q249 833 232 833Q219 833 214 842Q209 851 209 864Z"  horiz-adv-x="283" vert-adv-y="1000"  />

      
      <glyph glyph-name="unid0" unicode="&#xd0;" d="M280 714Q457 714 542.50 624Q628 534 628 364Q628 185 536.50 92.50Q445 0 257 0L103 0L103 343L17 343L17 368L103 368L103 714L280 714M270 689L129 689L129 368L335 368L335 343L129 343L129 25L260 25Q601 25 601 363Q601 522 522.50 605.50Q444 689 270 689Z"  horiz-adv-x="692" vert-adv-y="1000"  />

      
      <glyph glyph-name="unid1" unicode="&#xd1;" d="M594 0L575 0L130 655L128 655Q129 612 129 577Q129 542 129 502L129 0L103 0L103 714L123 714L567 61L569 61Q568 99 568 138Q568 177 568 211L568 714L594 714L594 0M182 804Q186 854 209.50 878Q233 902 271 902Q296 902 314.50 890.50Q333 879 348.50 864.50Q364 850 380.50 838.50Q397 827 417 827Q439 827 458.50 841.50Q478 856 482 902L507 902Q503 853 478.50 828Q454 803 416 803Q391 803 372.50 814.50Q354 826 338.50 840.50Q323 855 307 866.50Q291 878 269 878Q249 878 230.50 863.50Q212 849 207 804L182 804Z"  horiz-adv-x="698" vert-adv-y="1000"  />

      
      <glyph glyph-name="unid2" unicode="&#xd2;" d="M690 358Q690 250 655.50 167Q621 84 551.50 37Q482-10 376-10Q272-10 202.50 37.50Q133 85 98 168Q63 251 63 359Q63 467 100 549.50Q137 632 208.50 678.50Q280 725 382 725Q530 725 610 628.50Q690 532 690 358M90 359Q90 259 121 181.50Q152 104 216 59.50Q280 15 377 15Q475 15 538.50 58.50Q602 102 632.50 179.50Q663 257 663 358Q663 521 590 610.50Q517 700 382 700Q284 700 219 656Q154 612 122 535Q90 458 90 359M284 952Q299 931 323 902.50Q347 874 374 846Q401 818 423 798L423 792L402 792Q362 825 321 868Q280 911 254 945L254 952L284 952Z"  horiz-adv-x="754" vert-adv-y="1000"  />

      
      <glyph glyph-name="unid3" unicode="&#xd3;" d="M690 358Q690 250 655.50 167Q621 84 551.50 37Q482-10 376-10Q272-10 202.50 37.50Q133 85 98 168Q63 251 63 359Q63 467 100 549.50Q137 632 208.50 678.50Q280 725 382 725Q530 725 610 628.50Q690 532 690 358M90 359Q90 259 121 181.50Q152 104 216 59.50Q280 15 377 15Q475 15 538.50 58.50Q602 102 632.50 179.50Q663 257 663 358Q663 521 590 610.50Q517 700 382 700Q284 700 219 656Q154 612 122 535Q90 458 90 359M520 945Q494 911 453 868Q412 825 372 792L351 792L351 798Q374 818 400.50 846Q427 874 451.50 902.50Q476 931 490 952L520 952L520 945Z"  horiz-adv-x="754" vert-adv-y="1000"  />

      
      <glyph glyph-name="unid4" unicode="&#xd4;" d="M690 358Q690 250 655.50 167Q621 84 551.50 37Q482-10 376-10Q272-10 202.50 37.50Q133 85 98 168Q63 251 63 359Q63 467 100 549.50Q137 632 208.50 678.50Q280 725 382 725Q530 725 610 628.50Q690 532 690 358M90 359Q90 259 121 181.50Q152 104 216 59.50Q280 15 377 15Q475 15 538.50 58.50Q602 102 632.50 179.50Q663 257 663 358Q663 521 590 610.50Q517 700 382 700Q284 700 219 656Q154 612 122 535Q90 458 90 359M387 949Q399 929 419 901.50Q439 874 461 846.50Q483 819 501 798L501 792L480 792Q452 820 424.50 854.50Q397 889 376 917Q355 889 326.50 854.50Q298 820 270 792L249 792L249 798Q268 819 290 846.50Q312 874 332.50 901.50Q353 929 365 949L387 949Z"  horiz-adv-x="754" vert-adv-y="1000"  />

      
      <glyph glyph-name="unid5" unicode="&#xd5;" d="M690 358Q690 250 655.50 167Q621 84 551.50 37Q482-10 376-10Q272-10 202.50 37.50Q133 85 98 168Q63 251 63 359Q63 467 100 549.50Q137 632 208.50 678.50Q280 725 382 725Q530 725 610 628.50Q690 532 690 358M90 359Q90 259 121 181.50Q152 104 216 59.50Q280 15 377 15Q475 15 538.50 58.50Q602 102 632.50 179.50Q663 257 663 358Q663 521 590 610.50Q517 700 382 700Q284 700 219 656Q154 612 122 535Q90 458 90 359M189 804Q193 854 216.50 878Q240 902 278 902Q303 902 321.50 890.50Q340 879 355.50 864.50Q371 850 387.50 838.50Q404 827 424 827Q446 827 465.50 841.50Q485 856 489 902L514 902Q510 853 485.50 828Q461 803 423 803Q398 803 379.50 814.50Q361 826 345.50 840.50Q330 855 314 866.50Q298 878 276 878Q256 878 237.50 863.50Q219 849 214 804L189 804Z"  horiz-adv-x="754" vert-adv-y="1000"  />

      
      <glyph glyph-name="unid6" unicode="&#xd6;" d="M690 358Q690 250 655.50 167Q621 84 551.50 37Q482-10 376-10Q272-10 202.50 37.50Q133 85 98 168Q63 251 63 359Q63 467 100 549.50Q137 632 208.50 678.50Q280 725 382 725Q530 725 610 628.50Q690 532 690 358M90 359Q90 259 121 181.50Q152 104 216 59.50Q280 15 377 15Q475 15 538.50 58.50Q602 102 632.50 179.50Q663 257 663 358Q663 521 590 610.50Q517 700 382 700Q284 700 219 656Q154 612 122 535Q90 458 90 359M260 864Q260 876 265 885.50Q270 895 283 895Q300 895 304 885.50Q308 876 308 864Q308 851 304 842Q300 833 283 833Q270 833 265 842Q260 851 260 864M445 864Q445 876 450 885.50Q455 895 468 895Q485 895 489 885.50Q493 876 493 864Q493 851 489 842Q485 833 468 833Q455 833 450 842Q445 851 445 864Z"  horiz-adv-x="754" vert-adv-y="1000"  />

      
      <glyph glyph-name="unid7" unicode="&#xd7;" d="M482 567L499 550L302 353L499 156L482 139L285 336L88 139L71 156L268 353L71 550L88 567L285 370L482 567Z"  horiz-adv-x="570" vert-adv-y="1000"  />

      
      <glyph glyph-name="unid8" unicode="&#xd8;" d="M690 358Q690 250 655.50 167Q621 84 551.50 37Q482-10 376-10Q312-10 260.50 9Q209 28 171 63L105-26L85-11L153 81Q109 131 86 202Q63 273 63 359Q63 467 100 549.50Q137 632 208.50 678.50Q280 725 382 725Q502 725 579 659L639 740L659 725L598 642Q642 595 666 523Q690 451 690 358M90 359Q90 280 109.50 214.50Q129 149 168 102L564 638Q530 668 484 684Q438 700 382 700Q284 700 219 656Q154 612 122 535Q90 458 90 359M663 358Q663 531 582 620L186 84Q221 51 268.50 33Q316 15 377 15Q475 15 538.50 58.50Q602 102 632.50 179.50Q663 257 663 358Z"  horiz-adv-x="754" vert-adv-y="1000"  />

      
      <glyph glyph-name="unid9" unicode="&#xd9;" d="M618 252Q618 163 584.50 105Q551 47 492 18.50Q433-10 355-10Q231-10 163 57Q95 124 95 254L95 714L121 714L121 256Q121 136 182.50 75.50Q244 15 356 15Q463 15 527.50 72.50Q592 130 592 244L592 714L618 714L618 252M264 952Q279 931 303 902.50Q327 874 354 846Q381 818 403 798L403 792L382 792Q342 825 301 868Q260 911 234 945L234 952L264 952Z"  horiz-adv-x="712" vert-adv-y="1000"  />

      
      <glyph glyph-name="unida" unicode="&#xda;" d="M618 252Q618 163 584.50 105Q551 47 492 18.50Q433-10 355-10Q231-10 163 57Q95 124 95 254L95 714L121 714L121 256Q121 136 182.50 75.50Q244 15 356 15Q463 15 527.50 72.50Q592 130 592 244L592 714L618 714L618 252M499 945Q473 911 432 868Q391 825 351 792L330 792L330 798Q353 818 379.50 846Q406 874 430.50 902.50Q455 931 469 952L499 952L499 945Z"  horiz-adv-x="712" vert-adv-y="1000"  />

      
      <glyph glyph-name="unidb" unicode="&#xdb;" d="M618 252Q618 163 584.50 105Q551 47 492 18.50Q433-10 355-10Q231-10 163 57Q95 124 95 254L95 714L121 714L121 256Q121 136 182.50 75.50Q244 15 356 15Q463 15 527.50 72.50Q592 130 592 244L592 714L618 714L618 252M367 949Q379 929 399 901.50Q419 874 441 846.50Q463 819 481 798L481 792L460 792Q432 820 404.50 854.50Q377 889 356 917Q335 889 306.50 854.50Q278 820 250 792L229 792L229 798Q248 819 270 846.50Q292 874 312.50 901.50Q333 929 345 949L367 949Z"  horiz-adv-x="712" vert-adv-y="1000"  />

      
      <glyph glyph-name="unidc" unicode="&#xdc;" d="M618 252Q618 163 584.50 105Q551 47 492 18.50Q433-10 355-10Q231-10 163 57Q95 124 95 254L95 714L121 714L121 256Q121 136 182.50 75.50Q244 15 356 15Q463 15 527.50 72.50Q592 130 592 244L592 714L618 714L618 252M240 864Q240 876 245 885.50Q250 895 263 895Q280 895 284 885.50Q288 876 288 864Q288 851 284 842Q280 833 263 833Q250 833 245 842Q240 851 240 864M425 864Q425 876 430 885.50Q435 895 448 895Q465 895 469 885.50Q473 876 473 864Q473 851 469 842Q465 833 448 833Q435 833 430 842Q425 851 425 864Z"  horiz-adv-x="712" vert-adv-y="1000"  />

      
      <glyph glyph-name="unidd" unicode="&#xdd;" d="M253 301L475 714L505 714L267 275L267 0L241 0L241 271L0 714L30 714L253 301M396 945Q370 911 329 868Q288 825 248 792L227 792L227 798Q250 818 276.50 846Q303 874 327.50 902.50Q352 931 366 952L396 952L396 945Z"  horiz-adv-x="505" vert-adv-y="1000"  />

      
      <glyph glyph-name="unide" unicode="&#xde;" d="M518 382Q518 272 448 222.50Q378 173 256 173L129 173L129 0L103 0L103 714L129 714L129 582L281 582Q399 582 458.50 534.50Q518 487 518 382M252 198Q324 198 378 215Q432 232 461.50 272.50Q491 313 491 382Q491 475 439 516Q387 557 274 557L129 557L129 198L252 198Z"  horiz-adv-x="573" vert-adv-y="1000"  />

      
      <glyph glyph-name="unidf" unicode="&#xdf;" d="M439 636Q439 599 425 575.50Q411 552 391 536.50Q371 521 350.50 506Q330 491 316 471.50Q302 452 302 420Q302 380 327.50 355.50Q353 331 396 302Q425 283 449 262Q473 241 488 211Q503 181 503 134Q503 96 485 63Q467 30 430 10Q393-10 337-10Q290-10 259.50-1.50Q229 7 203 17L203 45Q236 30 268 22.50Q300 15 337 15Q405 15 440.50 47.50Q476 80 476 134Q476 173 463.50 199Q451 225 430 244.50Q409 264 382 282Q353 303 328.50 321.50Q304 340 289.50 363Q275 386 275 420Q275 456 289 478Q303 500 323.50 515.50Q344 531 364 545.50Q384 560 398 581Q412 602 412 636Q412 684 379 712Q346 740 282 740Q197 740 156 694Q115 648 115 563L115 0L89 0L89 563Q89 660 138.50 712.50Q188 765 282 765Q359 765 399 729.50Q439 694 439 636Z"  horiz-adv-x="554" vert-adv-y="1000"  />

      
      <glyph glyph-name="unie0" unicode="&#xe0;" d="M264 537Q346 537 387 492.50Q428 448 428 350L428 0L406 0L402 103L400 103Q379 57 334 23.50Q289-10 208-10Q129-10 88.50 28Q48 66 48 129Q48 208 114.50 247.50Q181 287 299 294L402 300L402 343Q402 433 368 472.50Q334 512 264 512Q224 512 186.50 503Q149 494 106 472L97 498Q137 516 178.50 526.50Q220 537 264 537M301 270Q199 265 137.50 232Q76 199 76 129Q76 76 110 45.50Q144 15 208 15Q308 15 354.50 72Q401 129 402 220L402 275L301 270M158 766Q173 745 197 716.50Q221 688 248 660Q275 632 297 612L297 606L276 606Q236 639 195 682Q154 725 128 759L128 766L158 766Z"  horiz-adv-x="511" vert-adv-y="1000"  />

      
      <glyph glyph-name="unie1" unicode="&#xe1;" d="M264 537Q346 537 387 492.50Q428 448 428 350L428 0L406 0L402 103L400 103Q379 57 334 23.50Q289-10 208-10Q129-10 88.50 28Q48 66 48 129Q48 208 114.50 247.50Q181 287 299 294L402 300L402 343Q402 433 368 472.50Q334 512 264 512Q224 512 186.50 503Q149 494 106 472L97 498Q137 516 178.50 526.50Q220 537 264 537M301 270Q199 265 137.50 232Q76 199 76 129Q76 76 110 45.50Q144 15 208 15Q308 15 354.50 72Q401 129 402 220L402 275L301 270M394 759Q368 725 327 682Q286 639 246 606L225 606L225 612Q248 632 274.50 660Q301 688 325.50 716.50Q350 745 364 766L394 766L394 759Z"  horiz-adv-x="511" vert-adv-y="1000"  />

      
      <glyph glyph-name="unie2" unicode="&#xe2;" d="M264 537Q346 537 387 492.50Q428 448 428 350L428 0L406 0L402 103L400 103Q379 57 334 23.50Q289-10 208-10Q129-10 88.50 28Q48 66 48 129Q48 208 114.50 247.50Q181 287 299 294L402 300L402 343Q402 433 368 472.50Q334 512 264 512Q224 512 186.50 503Q149 494 106 472L97 498Q137 516 178.50 526.50Q220 537 264 537M301 270Q199 265 137.50 232Q76 199 76 129Q76 76 110 45.50Q144 15 208 15Q308 15 354.50 72Q401 129 402 220L402 275L301 270M261 763Q273 743 293 715.50Q313 688 335 660.50Q357 633 375 612L375 606L354 606Q326 634 298.50 668.50Q271 703 250 731Q229 703 200.50 668.50Q172 634 144 606L123 606L123 612Q142 633 164 660.50Q186 688 206.50 715.50Q227 743 239 763L261 763Z"  horiz-adv-x="511" vert-adv-y="1000"  />

      
      <glyph glyph-name="unie3" unicode="&#xe3;" d="M264 537Q346 537 387 492.50Q428 448 428 350L428 0L406 0L402 103L400 103Q379 57 334 23.50Q289-10 208-10Q129-10 88.50 28Q48 66 48 129Q48 208 114.50 247.50Q181 287 299 294L402 300L402 343Q402 433 368 472.50Q334 512 264 512Q224 512 186.50 503Q149 494 106 472L97 498Q137 516 178.50 526.50Q220 537 264 537M301 270Q199 265 137.50 232Q76 199 76 129Q76 76 110 45.50Q144 15 208 15Q308 15 354.50 72Q401 129 402 220L402 275L301 270M63 618Q67 668 90.50 692Q114 716 152 716Q177 716 195.50 704.50Q214 693 229.50 678.50Q245 664 261.50 652.50Q278 641 298 641Q320 641 339.50 655.50Q359 670 363 716L388 716Q384 667 359.50 642Q335 617 297 617Q272 617 253.50 628.50Q235 640 219.50 654.50Q204 669 188 680.50Q172 692 150 692Q130 692 111.50 677.50Q93 663 88 618L63 618Z"  horiz-adv-x="511" vert-adv-y="1000"  />

      
      <glyph glyph-name="unie4" unicode="&#xe4;" d="M264 537Q346 537 387 492.50Q428 448 428 350L428 0L406 0L402 103L400 103Q379 57 334 23.50Q289-10 208-10Q129-10 88.50 28Q48 66 48 129Q48 208 114.50 247.50Q181 287 299 294L402 300L402 343Q402 433 368 472.50Q334 512 264 512Q224 512 186.50 503Q149 494 106 472L97 498Q137 516 178.50 526.50Q220 537 264 537M301 270Q199 265 137.50 232Q76 199 76 129Q76 76 110 45.50Q144 15 208 15Q308 15 354.50 72Q401 129 402 220L402 275L301 270M134 678Q134 690 139 699.50Q144 709 157 709Q174 709 178 699.50Q182 690 182 678Q182 665 178 656Q174 647 157 647Q144 647 139 656Q134 665 134 678M319 678Q319 690 324 699.50Q329 709 342 709Q359 709 363 699.50Q367 690 367 678Q367 665 363 656Q359 647 342 647Q329 647 324 656Q319 665 319 678Z"  horiz-adv-x="511" vert-adv-y="1000"  />

      
      <glyph glyph-name="unie5" unicode="&#xe5;" d="M264 537Q346 537 387 492.50Q428 448 428 350L428 0L406 0L402 103L400 103Q379 57 334 23.50Q289-10 208-10Q129-10 88.50 28Q48 66 48 129Q48 208 114.50 247.50Q181 287 299 294L402 300L402 343Q402 433 368 472.50Q334 512 264 512Q224 512 186.50 503Q149 494 106 472L97 498Q137 516 178.50 526.50Q220 537 264 537M301 270Q199 265 137.50 232Q76 199 76 129Q76 76 110 45.50Q144 15 208 15Q308 15 354.50 72Q401 129 402 220L402 275L301 270M249 611Q209 611 178.50 638.50Q148 666 148 711Q148 754 178 782.50Q208 811 249 811Q290 811 319.50 781.50Q349 752 349 711Q349 667 319.50 639Q290 611 249 611M249 635Q283 635 304 657.50Q325 680 325 711Q325 743 302.50 765Q280 787 249 787Q216 787 194 765Q172 743 172 711Q172 680 193.50 657.50Q215 635 249 635Z"  horiz-adv-x="511" vert-adv-y="1000"  />

      
      <glyph glyph-name="unie6" unicode="&#xe6;" d="M604 538Q668 538 710 505Q752 472 772 416.50Q792 361 789 291L789 266L418 266Q417 145 469.50 80Q522 15 613 15Q656 15 689.50 22Q723 29 769 50L769 23Q696-10 613-10Q529-10 478 34Q427 78 408 145Q390 75 342 32.50Q294-10 210-10Q129-10 88.50 28Q48 66 48 129Q48 208 114.50 247.50Q181 287 296 294L392 300L392 343Q392 433 359 472.50Q326 512 261 512Q224 512 186.50 503Q149 494 106 472L97 498Q137 516 178 526.50Q219 537 261 537Q331 537 369 500.50Q407 464 414 384Q436 452 483.50 495Q531 538 604 538M604 513Q531 513 479.50 456.50Q428 400 419 291L762 291Q763 390 723 451.50Q683 513 604 513M298 270Q198 265 137 232Q76 199 76 129Q76 76 110.50 45.50Q145 15 210 15Q303 15 347 72Q391 129 392 220L392 275L298 270Z"  horiz-adv-x="850" vert-adv-y="1000"  />

      
      <glyph glyph-name="unie7" unicode="&#xe7;" d="M302-10Q218-10 164 25.50Q110 61 84.50 122.50Q59 184 59 261Q59 342 90.50 404.50Q122 467 180 502.50Q238 538 319 538Q355 538 384.50 532Q414 526 442 514L437 489Q407 503 377.50 508Q348 513 319 513Q247 513 195 481Q143 449 114.50 392Q86 335 86 261Q86 193 108.50 137Q131 81 178.50 48Q226 15 302 15Q338 15 373.50 22Q409 29 438 41L438 16Q413 6 378-2Q343-10 302-10M358-145Q358-188 326-214Q294-240 245-240Q211-240 188-234L188-210Q201-214 213.50-215Q226-216 245-216Q283-216 308-198Q333-180 333-146Q333-114 308-99.50Q283-85 230-85L274 0L299 0L266-65Q310-67 334-88Q358-109 358-145Z"  horiz-adv-x="472" vert-adv-y="1000"  />

      
      <glyph glyph-name="unie8" unicode="&#xe8;" d="M287 538Q355 538 397 505Q439 472 459 416.50Q479 361 479 291L479 266L86 266Q85 145 139 80Q193 15 296 15Q344 15 378.50 22Q413 29 459 50L459 23Q421 6 382.50-2Q344-10 296-10Q213-10 160.50 25Q108 60 83.50 121Q59 182 59 259Q59 334 84 397.50Q109 461 159.50 499.50Q210 538 287 538M287 513Q203 513 149.50 456.50Q96 400 87 291L452 291Q453 390 412 451.50Q371 513 287 513M188 766Q203 745 227 716.50Q251 688 278 660Q305 632 327 612L327 606L306 606Q266 639 225 682Q184 725 158 759L158 766L188 766Z"  horiz-adv-x="540" vert-adv-y="1000"  />

      
      <glyph glyph-name="unie9" unicode="&#xe9;" d="M287 538Q355 538 397 505Q439 472 459 416.50Q479 361 479 291L479 266L86 266Q85 145 139 80Q193 15 296 15Q344 15 378.50 22Q413 29 459 50L459 23Q421 6 382.50-2Q344-10 296-10Q213-10 160.50 25Q108 60 83.50 121Q59 182 59 259Q59 334 84 397.50Q109 461 159.50 499.50Q210 538 287 538M287 513Q203 513 149.50 456.50Q96 400 87 291L452 291Q453 390 412 451.50Q371 513 287 513M423 759Q397 725 356 682Q315 639 275 606L254 606L254 612Q277 632 303.50 660Q330 688 354.50 716.50Q379 745 393 766L423 766L423 759Z"  horiz-adv-x="540" vert-adv-y="1000"  />

      
      <glyph glyph-name="uniea" unicode="&#xea;" d="M287 538Q355 538 397 505Q439 472 459 416.50Q479 361 479 291L479 266L86 266Q85 145 139 80Q193 15 296 15Q344 15 378.50 22Q413 29 459 50L459 23Q421 6 382.50-2Q344-10 296-10Q213-10 160.50 25Q108 60 83.50 121Q59 182 59 259Q59 334 84 397.50Q109 461 159.50 499.50Q210 538 287 538M287 513Q203 513 149.50 456.50Q96 400 87 291L452 291Q453 390 412 451.50Q371 513 287 513M291 763Q303 743 323 715.50Q343 688 365 660.50Q387 633 405 612L405 606L384 606Q356 634 328.50 668.50Q301 703 280 731Q259 703 230.50 668.50Q202 634 174 606L153 606L153 612Q172 633 194 660.50Q216 688 236.50 715.50Q257 743 269 763L291 763Z"  horiz-adv-x="540" vert-adv-y="1000"  />

      
      <glyph glyph-name="unieb" unicode="&#xeb;" d="M287 538Q355 538 397 505Q439 472 459 416.50Q479 361 479 291L479 266L86 266Q85 145 139 80Q193 15 296 15Q344 15 378.50 22Q413 29 459 50L459 23Q421 6 382.50-2Q344-10 296-10Q213-10 160.50 25Q108 60 83.50 121Q59 182 59 259Q59 334 84 397.50Q109 461 159.50 499.50Q210 538 287 538M287 513Q203 513 149.50 456.50Q96 400 87 291L452 291Q453 390 412 451.50Q371 513 287 513M163 678Q163 690 168 699.50Q173 709 186 709Q203 709 207 699.50Q211 690 211 678Q211 665 207 656Q203 647 186 647Q173 647 168 656Q163 665 163 678M348 678Q348 690 353 699.50Q358 709 371 709Q388 709 392 699.50Q396 690 396 678Q396 665 392 656Q388 647 371 647Q358 647 353 656Q348 665 348 678Z"  horiz-adv-x="540" vert-adv-y="1000"  />

      
      <glyph glyph-name="uniec" unicode="&#xec;" d="M116 0L90 0L90 528L116 528L116 0M11 766Q26 745 50 716.50Q74 688 101 660Q128 632 150 612L150 606L129 606Q89 639 48 682Q7 725-19 759L-19 766L11 766Z"  horiz-adv-x="207" vert-adv-y="1000"  />

      
      <glyph glyph-name="unied" unicode="&#xed;" d="M116 0L90 0L90 528L116 528L116 0M246 759Q220 725 179 682Q138 639 98 606L77 606L77 612Q100 632 126.50 660Q153 688 177.50 716.50Q202 745 216 766L246 766L246 759Z"  horiz-adv-x="207" vert-adv-y="1000"  />

      
      <glyph glyph-name="uniee" unicode="&#xee;" d="M116 0L90 0L90 528L116 528L116 0M114 763Q126 743 146 715.50Q166 688 188 660.50Q210 633 228 612L228 606L207 606Q179 634 151.50 668.50Q124 703 103 731Q82 703 53.50 668.50Q25 634-3 606L-24 606L-24 612Q-5 633 17 660.50Q39 688 59.50 715.50Q80 743 92 763L114 763Z"  horiz-adv-x="207" vert-adv-y="1000"  />

      
      <glyph glyph-name="unief" unicode="&#xef;" d="M116 0L90 0L90 528L116 528L116 0M-13 678Q-13 690-8 699.50Q-3 709 10 709Q27 709 31 699.50Q35 690 35 678Q35 665 31 656Q27 647 10 647Q-3 647-8 656Q-13 665-13 678M172 678Q172 690 177 699.50Q182 709 195 709Q212 709 216 699.50Q220 690 220 678Q220 665 216 656Q212 647 195 647Q182 647 177 656Q172 665 172 678Z"  horiz-adv-x="207" vert-adv-y="1000"  />

      
      <glyph glyph-name="unif0" unicode="&#xf0;" d="M204 757Q241 740 270 722Q299 704 321 685L430 752L443 731L339 669Q419 590 456.50 489Q494 388 494 272Q494 195 470 130.50Q446 66 397.50 28Q349-10 274-10Q170-10 113.50 54Q57 118 57 223Q57 298 86 352Q115 406 165.50 435.50Q216 465 279 465Q350 465 390 444Q430 423 455 391L457 391Q443 463 407.50 534Q372 605 317 656L188 578L175 598L298 672Q277 689 249 706Q221 723 191 736L204 757M279 440Q224 440 180 414.50Q136 389 110 340.50Q84 292 84 223Q84 123 136.50 69Q189 15 274 15Q365 15 416 84Q467 153 467 285Q467 307 459 333.50Q451 360 430.50 384.50Q410 409 373.50 424.50Q337 440 279 440Z"  horiz-adv-x="554" vert-adv-y="1000"  />

      
      <glyph glyph-name="unif1" unicode="&#xf1;" d="M309 538Q395 538 442 491Q489 444 489 346L489 0L463 0L463 345Q463 433 422.50 473Q382 513 309 513Q223 513 169.50 461.50Q116 410 116 302L116 0L90 0L90 528L111 528L115 417L117 417Q129 448 152.50 475.50Q176 503 214.50 520.50Q253 538 309 538M117 618Q121 668 144.50 692Q168 716 206 716Q231 716 249.50 704.50Q268 693 283.50 678.50Q299 664 315.50 652.50Q332 641 352 641Q374 641 393.50 655.50Q413 670 417 716L442 716Q438 667 413.50 642Q389 617 351 617Q326 617 307.50 628.50Q289 640 273.50 654.50Q258 669 242 680.50Q226 692 204 692Q184 692 165.50 677.50Q147 663 142 618L117 618Z"  horiz-adv-x="573" vert-adv-y="1000"  />

      
      <glyph glyph-name="unif2" unicode="&#xf2;" d="M515 264Q515 187 490.50 124.50Q466 62 415.50 26Q365-10 286-10Q210-10 159.50 26Q109 62 84 124Q59 186 59 264Q59 390 120.50 464Q182 538 292 538Q372 538 421 501.50Q470 465 492.50 403Q515 341 515 264M86 264Q86 191 108 134.50Q130 78 174.50 46.50Q219 15 286 15Q356 15 400.50 47Q445 79 466.50 135.50Q488 192 488 264Q488 333 468.50 389.50Q449 446 406 479.50Q363 513 292 513Q193 513 139.50 447Q86 381 86 264M194 766Q209 745 233 716.50Q257 688 284 660Q311 632 333 612L333 606L312 606Q272 639 231 682Q190 725 164 759L164 766L194 766Z"  horiz-adv-x="575" vert-adv-y="1000"  />

      
      <glyph glyph-name="unif3" unicode="&#xf3;" d="M515 264Q515 187 490.50 124.50Q466 62 415.50 26Q365-10 286-10Q210-10 159.50 26Q109 62 84 124Q59 186 59 264Q59 390 120.50 464Q182 538 292 538Q372 538 421 501.50Q470 465 492.50 403Q515 341 515 264M86 264Q86 191 108 134.50Q130 78 174.50 46.50Q219 15 286 15Q356 15 400.50 47Q445 79 466.50 135.50Q488 192 488 264Q488 333 468.50 389.50Q449 446 406 479.50Q363 513 292 513Q193 513 139.50 447Q86 381 86 264M430 759Q404 725 363 682Q322 639 282 606L261 606L261 612Q284 632 310.50 660Q337 688 361.50 716.50Q386 745 400 766L430 766L430 759Z"  horiz-adv-x="575" vert-adv-y="1000"  />

      
      <glyph glyph-name="unif4" unicode="&#xf4;" d="M515 264Q515 187 490.50 124.50Q466 62 415.50 26Q365-10 286-10Q210-10 159.50 26Q109 62 84 124Q59 186 59 264Q59 390 120.50 464Q182 538 292 538Q372 538 421 501.50Q470 465 492.50 403Q515 341 515 264M86 264Q86 191 108 134.50Q130 78 174.50 46.50Q219 15 286 15Q356 15 400.50 47Q445 79 466.50 135.50Q488 192 488 264Q488 333 468.50 389.50Q449 446 406 479.50Q363 513 292 513Q193 513 139.50 447Q86 381 86 264M298 763Q310 743 330 715.50Q350 688 372 660.50Q394 633 412 612L412 606L391 606Q363 634 335.50 668.50Q308 703 287 731Q266 703 237.50 668.50Q209 634 181 606L160 606L160 612Q179 633 201 660.50Q223 688 243.50 715.50Q264 743 276 763L298 763Z"  horiz-adv-x="575" vert-adv-y="1000"  />

      
      <glyph glyph-name="unif5" unicode="&#xf5;" d="M515 264Q515 187 490.50 124.50Q466 62 415.50 26Q365-10 286-10Q210-10 159.50 26Q109 62 84 124Q59 186 59 264Q59 390 120.50 464Q182 538 292 538Q372 538 421 501.50Q470 465 492.50 403Q515 341 515 264M86 264Q86 191 108 134.50Q130 78 174.50 46.50Q219 15 286 15Q356 15 400.50 47Q445 79 466.50 135.50Q488 192 488 264Q488 333 468.50 389.50Q449 446 406 479.50Q363 513 292 513Q193 513 139.50 447Q86 381 86 264M100 618Q104 668 127.50 692Q151 716 189 716Q214 716 232.50 704.50Q251 693 266.50 678.50Q282 664 298.50 652.50Q315 641 335 641Q357 641 376.50 655.50Q396 670 400 716L425 716Q421 667 396.50 642Q372 617 334 617Q309 617 290.50 628.50Q272 640 256.50 654.50Q241 669 225 680.50Q209 692 187 692Q167 692 148.50 677.50Q130 663 125 618L100 618Z"  horiz-adv-x="575" vert-adv-y="1000"  />

      
      <glyph glyph-name="unif6" unicode="&#xf6;" d="M515 264Q515 187 490.50 124.50Q466 62 415.50 26Q365-10 286-10Q210-10 159.50 26Q109 62 84 124Q59 186 59 264Q59 390 120.50 464Q182 538 292 538Q372 538 421 501.50Q470 465 492.50 403Q515 341 515 264M86 264Q86 191 108 134.50Q130 78 174.50 46.50Q219 15 286 15Q356 15 400.50 47Q445 79 466.50 135.50Q488 192 488 264Q488 333 468.50 389.50Q449 446 406 479.50Q363 513 292 513Q193 513 139.50 447Q86 381 86 264M170 678Q170 690 175 699.50Q180 709 193 709Q210 709 214 699.50Q218 690 218 678Q218 665 214 656Q210 647 193 647Q180 647 175 656Q170 665 170 678M355 678Q355 690 360 699.50Q365 709 378 709Q395 709 399 699.50Q403 690 403 678Q403 665 399 656Q395 647 378 647Q365 647 360 656Q355 665 355 678Z"  horiz-adv-x="575" vert-adv-y="1000"  />

      
      <glyph glyph-name="unif7" unicode="&#xf7;" d="M284 500Q269 500 264 509Q259 518 259 531Q259 543 264 552.50Q269 562 284 562Q302 562 306.50 552.50Q311 543 311 531Q311 518 306.50 509Q302 500 284 500M55 341L55 365L515 365L515 341L55 341M284 144Q269 144 264 153Q259 162 259 175Q259 187 264 196.50Q269 206 284 206Q302 206 306.50 196.50Q311 187 311 175Q311 162 306.50 153Q302 144 284 144Z"  horiz-adv-x="570" vert-adv-y="1000"  />

      
      <glyph glyph-name="unif8" unicode="&#xf8;" d="M515 264Q515 187 490.50 124.50Q466 62 415.50 26Q365-10 286-10Q234-10 195 7Q156 24 128 54L62-27L43-11L112 74Q59 148 59 264Q59 390 120.50 464Q182 538 292 538Q341 538 378 523.50Q415 509 441 483L499 555L518 539L458 465Q487 428 501 376Q515 324 515 264M86 264Q86 160 128 95L424 463Q401 486 368.50 499.50Q336 513 292 513Q193 513 139.50 447Q86 381 86 264M488 264Q488 317 477 363Q466 409 441 443L144 74Q169 46 204.50 30.50Q240 15 286 15Q356 15 400.50 47Q445 79 466.50 135.50Q488 192 488 264Z"  horiz-adv-x="575" vert-adv-y="1000"  />

      
      <glyph glyph-name="unif9" unicode="&#xf9;" d="M481 528L481 0L460 0L456 111L454 111Q443 81 419 53Q395 25 356.50 7.50Q318-10 262-10Q174-10 128 39Q82 88 82 182L82 528L108 528L108 186Q108 98 148 56.50Q188 15 262 15Q348 15 401.50 66.50Q455 118 455 226L455 528L481 528M194 766Q209 745 233 716.50Q257 688 284 660Q311 632 333 612L333 606L312 606Q272 639 231 682Q190 725 164 759L164 766L194 766Z"  horiz-adv-x="573" vert-adv-y="1000"  />

      
      <glyph glyph-name="unifa" unicode="&#xfa;" d="M481 528L481 0L460 0L456 111L454 111Q443 81 419 53Q395 25 356.50 7.50Q318-10 262-10Q174-10 128 39Q82 88 82 182L82 528L108 528L108 186Q108 98 148 56.50Q188 15 262 15Q348 15 401.50 66.50Q455 118 455 226L455 528L481 528M430 759Q404 725 363 682Q322 639 282 606L261 606L261 612Q284 632 310.50 660Q337 688 361.50 716.50Q386 745 400 766L430 766L430 759Z"  horiz-adv-x="573" vert-adv-y="1000"  />

      
      <glyph glyph-name="unifb" unicode="&#xfb;" d="M481 528L481 0L460 0L456 111L454 111Q443 81 419 53Q395 25 356.50 7.50Q318-10 262-10Q174-10 128 39Q82 88 82 182L82 528L108 528L108 186Q108 98 148 56.50Q188 15 262 15Q348 15 401.50 66.50Q455 118 455 226L455 528L481 528M297 763Q309 743 329 715.50Q349 688 371 660.50Q393 633 411 612L411 606L390 606Q362 634 334.50 668.50Q307 703 286 731Q265 703 236.50 668.50Q208 634 180 606L159 606L159 612Q178 633 200 660.50Q222 688 242.50 715.50Q263 743 275 763L297 763Z"  horiz-adv-x="573" vert-adv-y="1000"  />

      
      <glyph glyph-name="unifc" unicode="&#xfc;" d="M481 528L481 0L460 0L456 111L454 111Q443 81 419 53Q395 25 356.50 7.50Q318-10 262-10Q174-10 128 39Q82 88 82 182L82 528L108 528L108 186Q108 98 148 56.50Q188 15 262 15Q348 15 401.50 66.50Q455 118 455 226L455 528L481 528M170 678Q170 690 175 699.50Q180 709 193 709Q210 709 214 699.50Q218 690 218 678Q218 665 214 656Q210 647 193 647Q180 647 175 656Q170 665 170 678M355 678Q355 690 360 699.50Q365 709 378 709Q395 709 399 699.50Q403 690 403 678Q403 665 399 656Q395 647 378 647Q365 647 360 656Q355 665 355 678Z"  horiz-adv-x="573" vert-adv-y="1000"  />

      
      <glyph glyph-name="unifd" unicode="&#xfd;" d="M0 528L27 528L164 172Q182 124 194.50 91Q207 58 214 37L216 37Q224 59 235.50 91Q247 123 264 168L403 528L430 528L181-115Q156-180 126.50-211.50Q97-243 48-243Q21-243-6-233L-6-207Q8-212 20-215Q32-218 48-218Q86-218 110.50-192Q135-166 160-102L201 6L0 528M356 759Q330 725 289 682Q248 639 208 606L187 606L187 612Q210 632 236.50 660Q263 688 287.50 716.50Q312 745 326 766L356 766L356 759Z"  horiz-adv-x="428" vert-adv-y="1000"  />

      
      <glyph glyph-name="unife" unicode="&#xfe;" d="M526 269Q526 136 467.50 63Q409-10 303-10Q224-10 179 27Q134 64 117 116L115 116Q117 82 117 49.50Q117 17 117-15L117-232L91-232L91 760L117 760L117 525Q117 501 116.50 466Q116 431 115 406L117 406Q128 441 153 471Q178 501 218 519.50Q258 538 313 538Q418 538 472 469.50Q526 401 526 269M499 269Q499 393 452 453Q405 513 313 513Q217 513 167.50 447.50Q118 382 118 265L118 262Q118 135 168 75Q218 15 303 15Q395 15 447 79Q499 143 499 269Z"  horiz-adv-x="583" vert-adv-y="1000"  />

      
      <glyph glyph-name="uniff" unicode="&#xff;" d="M0 528L27 528L164 172Q182 124 194.50 91Q207 58 214 37L216 37Q224 59 235.50 91Q247 123 264 168L403 528L430 528L181-115Q156-180 126.50-211.50Q97-243 48-243Q21-243-6-233L-6-207Q8-212 20-215Q32-218 48-218Q86-218 110.50-192Q135-166 160-102L201 6L0 528M97 678Q97 690 102 699.50Q107 709 120 709Q137 709 141 699.50Q145 690 145 678Q145 665 141 656Q137 647 120 647Q107 647 102 656Q97 665 97 678M282 678Q282 690 287 699.50Q292 709 305 709Q322 709 326 699.50Q330 690 330 678Q330 665 326 656Q322 647 305 647Q292 647 287 656Q282 665 282 678Z"  horiz-adv-x="428" vert-adv-y="1000"  />

      
      <glyph glyph-name="uni0100" unicode="&#x0100;" d="M549 0L445 271L135 271L28 0L0 0L282 716L307 716L577 0L549 0M325 594Q319 611 311 632.50Q303 654 293 682Q286 660 277 636.50Q268 613 260 593L144 296L435 296L325 594M421 824L421 800L166 800L166 824L421 824Z"  horiz-adv-x="577" vert-adv-y="1000"  />

      
      <glyph glyph-name="uni0101" unicode="&#x0101;" d="M264 537Q346 537 387 492.50Q428 448 428 350L428 0L406 0L402 103L400 103Q379 57 334 23.50Q289-10 208-10Q129-10 88.50 28Q48 66 48 129Q48 208 114.50 247.50Q181 287 299 294L402 300L402 343Q402 433 368 472.50Q334 512 264 512Q224 512 186.50 503Q149 494 106 472L97 498Q137 516 178.50 526.50Q220 537 264 537M301 270Q199 265 137.50 232Q76 199 76 129Q76 76 110 45.50Q144 15 208 15Q308 15 354.50 72Q401 129 402 220L402 275L301 270M377 638L377 614L122 614L122 638L377 638Z"  horiz-adv-x="511" vert-adv-y="1000"  />

      
      <glyph glyph-name="uni0102" unicode="&#x0102;" d="M549 0L445 271L135 271L28 0L0 0L282 716L307 716L577 0L549 0M325 594Q319 611 311 632.50Q303 654 293 682Q286 660 277 636.50Q268 613 260 593L144 296L435 296L325 594M413 904Q399 792 290 792Q236 792 204.50 820.50Q173 849 168 904L193 904Q197 864 220.50 840Q244 816 290 816Q339 816 361.50 840Q384 864 388 904L413 904Z"  horiz-adv-x="577" vert-adv-y="1000"  />

      
      <glyph glyph-name="uni0103" unicode="&#x0103;" d="M264 537Q346 537 387 492.50Q428 448 428 350L428 0L406 0L402 103L400 103Q379 57 334 23.50Q289-10 208-10Q129-10 88.50 28Q48 66 48 129Q48 208 114.50 247.50Q181 287 299 294L402 300L402 343Q402 433 368 472.50Q334 512 264 512Q224 512 186.50 503Q149 494 106 472L97 498Q137 516 178.50 526.50Q220 537 264 537M301 270Q199 265 137.50 232Q76 199 76 129Q76 76 110 45.50Q144 15 208 15Q308 15 354.50 72Q401 129 402 220L402 275L301 270M370 718Q356 606 247 606Q193 606 161.50 634.50Q130 663 125 718L150 718Q154 678 177.50 654Q201 630 247 630Q296 630 318.50 654Q341 678 345 718L370 718Z"  horiz-adv-x="511" vert-adv-y="1000"  />

      
      <glyph glyph-name="uni0104" unicode="&#x0104;" d="M549 0L445 271L135 271L28 0L0 0L282 716L307 716L577 0L549 0M325 594Q319 611 311 632.50Q303 654 293 682Q286 660 277 636.50Q268 613 260 593L144 296L435 296L325 594M470-131Q470-192 528-192Q557-192 576-185L576-209Q568-212 555-214.50Q542-217 526-217Q492-217 468-196.50Q444-176 444-135Q444-99 468-63.50Q492-28 544 11L562 0Q528-27 499-60Q470-93 470-131Z"  horiz-adv-x="577" vert-adv-y="1000"  />

      
      <glyph glyph-name="uni0105" unicode="&#x0105;" d="M264 537Q346 537 387 492.50Q428 448 428 350L428 0L406 0L402 103L400 103Q379 57 334 23.50Q289-10 208-10Q129-10 88.50 28Q48 66 48 129Q48 208 114.50 247.50Q181 287 299 294L402 300L402 343Q402 433 368 472.50Q334 512 264 512Q224 512 186.50 503Q149 494 106 472L97 498Q137 516 178.50 526.50Q220 537 264 537M301 270Q199 265 137.50 232Q76 199 76 129Q76 76 110 45.50Q144 15 208 15Q308 15 354.50 72Q401 129 402 220L402 275L301 270M343-131Q343-192 401-192Q430-192 449-185L449-209Q441-212 428-214.50Q415-217 399-217Q365-217 341-196.50Q317-176 317-135Q317-99 341-63.50Q365-28 417 11L435 0Q401-27 372-60Q343-93 343-131Z"  horiz-adv-x="511" vert-adv-y="1000"  />

      
      <glyph glyph-name="uni0106" unicode="&#x0106;" d="M405 699Q305 699 234.50 655Q164 611 127 534.50Q90 458 90 360Q90 257 123 179Q156 101 222 58Q288 15 386 15Q444 15 489 23Q534 31 570 44L570 21Q537 8 491-1Q445-10 386-10Q280-10 208 36.50Q136 83 99.50 166Q63 249 63 360Q63 464 104 546.50Q145 629 221.50 676.50Q298 724 405 724Q502 724 583 687L573 662Q530 685 488 692Q446 699 405 699M517 945Q491 911 450 868Q409 825 369 792L348 792L348 798Q371 818 397.50 846Q424 874 448.50 902.50Q473 931 487 952L517 952L517 945Z"  horiz-adv-x="614" vert-adv-y="1000"  />

      
      <glyph glyph-name="uni0107" unicode="&#x0107;" d="M302-10Q218-10 164 25.50Q110 61 84.50 122.50Q59 184 59 261Q59 342 90.50 404.50Q122 467 180 502.50Q238 538 319 538Q355 538 384.50 532Q414 526 442 514L437 489Q407 503 377.50 508Q348 513 319 513Q247 513 195 481Q143 449 114.50 392Q86 335 86 261Q86 193 108.50 137Q131 81 178.50 48Q226 15 302 15Q338 15 373.50 22Q409 29 438 41L438 16Q413 6 378-2Q343-10 302-10M427 759Q401 725 360 682Q319 639 279 606L258 606L258 612Q281 632 307.50 660Q334 688 358.50 716.50Q383 745 397 766L427 766L427 759Z"  horiz-adv-x="472" vert-adv-y="1000"  />

      
      <glyph glyph-name="uni0108" unicode="&#x0108;" d="M405 699Q305 699 234.50 655Q164 611 127 534.50Q90 458 90 360Q90 257 123 179Q156 101 222 58Q288 15 386 15Q444 15 489 23Q534 31 570 44L570 21Q537 8 491-1Q445-10 386-10Q280-10 208 36.50Q136 83 99.50 166Q63 249 63 360Q63 464 104 546.50Q145 629 221.50 676.50Q298 724 405 724Q502 724 583 687L573 662Q530 685 488 692Q446 699 405 699M384 949Q396 929 416 901.50Q436 874 458 846.50Q480 819 498 798L498 792L477 792Q449 820 421.50 854.50Q394 889 373 917Q352 889 323.50 854.50Q295 820 267 792L246 792L246 798Q265 819 287 846.50Q309 874 329.50 901.50Q350 929 362 949L384 949Z"  horiz-adv-x="614" vert-adv-y="1000"  />

      
      <glyph glyph-name="uni0109" unicode="&#x0109;" d="M302-10Q218-10 164 25.50Q110 61 84.50 122.50Q59 184 59 261Q59 342 90.50 404.50Q122 467 180 502.50Q238 538 319 538Q355 538 384.50 532Q414 526 442 514L437 489Q407 503 377.50 508Q348 513 319 513Q247 513 195 481Q143 449 114.50 392Q86 335 86 261Q86 193 108.50 137Q131 81 178.50 48Q226 15 302 15Q338 15 373.50 22Q409 29 438 41L438 16Q413 6 378-2Q343-10 302-10M295 763Q307 743 327 715.50Q347 688 369 660.50Q391 633 409 612L409 606L388 606Q360 634 332.50 668.50Q305 703 284 731Q263 703 234.50 668.50Q206 634 178 606L157 606L157 612Q176 633 198 660.50Q220 688 240.50 715.50Q261 743 273 763L295 763Z"  horiz-adv-x="472" vert-adv-y="1000"  />

      
      <glyph glyph-name="uni010A" unicode="&#x010A;" d="M405 699Q305 699 234.50 655Q164 611 127 534.50Q90 458 90 360Q90 257 123 179Q156 101 222 58Q288 15 386 15Q444 15 489 23Q534 31 570 44L570 21Q537 8 491-1Q445-10 386-10Q280-10 208 36.50Q136 83 99.50 166Q63 249 63 360Q63 464 104 546.50Q145 629 221.50 676.50Q298 724 405 724Q502 724 583 687L573 662Q530 685 488 692Q446 699 405 699M364 907Q382 907 386.50 897.50Q391 888 391 876Q391 863 386.50 854Q382 845 364 845Q349 845 344 854Q339 863 339 876Q339 888 344 897.50Q349 907 364 907Z"  horiz-adv-x="614" vert-adv-y="1000"  />

      
      <glyph glyph-name="uni010B" unicode="&#x010B;" d="M302-10Q218-10 164 25.50Q110 61 84.50 122.50Q59 184 59 261Q59 342 90.50 404.50Q122 467 180 502.50Q238 538 319 538Q355 538 384.50 532Q414 526 442 514L437 489Q407 503 377.50 508Q348 513 319 513Q247 513 195 481Q143 449 114.50 392Q86 335 86 261Q86 193 108.50 137Q131 81 178.50 48Q226 15 302 15Q338 15 373.50 22Q409 29 438 41L438 16Q413 6 378-2Q343-10 302-10M275 721Q293 721 297.50 711.50Q302 702 302 690Q302 677 297.50 668Q293 659 275 659Q260 659 255 668Q250 677 250 690Q250 702 255 711.50Q260 721 275 721Z"  horiz-adv-x="472" vert-adv-y="1000"  />

      
      <glyph glyph-name="uni010C" unicode="&#x010C;" d="M405 699Q305 699 234.50 655Q164 611 127 534.50Q90 458 90 360Q90 257 123 179Q156 101 222 58Q288 15 386 15Q444 15 489 23Q534 31 570 44L570 21Q537 8 491-1Q445-10 386-10Q280-10 208 36.50Q136 83 99.50 166Q63 249 63 360Q63 464 104 546.50Q145 629 221.50 676.50Q298 724 405 724Q502 724 583 687L573 662Q530 685 488 692Q446 699 405 699M360 792Q348 813 328 840.50Q308 868 286.50 895.50Q265 923 246 943L246 949L267 949Q295 921 322.50 887Q350 853 371 824Q392 853 420.50 887Q449 921 477 949L498 949L498 943Q480 923 457.50 895.50Q435 868 414.50 840.50Q394 813 382 792L360 792Z"  horiz-adv-x="614" vert-adv-y="1000"  />

      
      <glyph glyph-name="uni010D" unicode="&#x010D;" d="M302-10Q218-10 164 25.50Q110 61 84.50 122.50Q59 184 59 261Q59 342 90.50 404.50Q122 467 180 502.50Q238 538 319 538Q355 538 384.50 532Q414 526 442 514L437 489Q407 503 377.50 508Q348 513 319 513Q247 513 195 481Q143 449 114.50 392Q86 335 86 261Q86 193 108.50 137Q131 81 178.50 48Q226 15 302 15Q338 15 373.50 22Q409 29 438 41L438 16Q413 6 378-2Q343-10 302-10M271 606Q259 627 239 654.50Q219 682 197.50 709.50Q176 737 157 757L157 763L178 763Q206 735 233.50 701Q261 667 282 638Q303 667 331.50 701Q360 735 388 763L409 763L409 757Q391 737 368.50 709.50Q346 682 325.50 654.50Q305 627 293 606L271 606Z"  horiz-adv-x="472" vert-adv-y="1000"  />

      
      <glyph glyph-name="uni010E" unicode="&#x010E;" d="M628 364Q628 185 536.50 92.50Q445 0 257 0L103 0L103 714L280 714Q457 714 542.50 624Q628 534 628 364M601 363Q601 522 522.50 605.50Q444 689 270 689L129 689L129 25L260 25Q601 25 601 363M335 792Q323 813 303 840.50Q283 868 261.50 895.50Q240 923 221 943L221 949L242 949Q270 921 297.50 887Q325 853 346 824Q367 853 395.50 887Q424 921 452 949L473 949L473 943Q455 923 432.50 895.50Q410 868 389.50 840.50Q369 813 357 792L335 792Z"  horiz-adv-x="692" vert-adv-y="1000"  />

      
      <glyph glyph-name="uni010F" unicode="&#x010F;" d="M611 754Q602 715 587.50 675Q573 635 552 600L535 600L535 606Q543 621 553 649.50Q563 678 571 708.50Q579 739 582 760L611 760L611 754M283-10Q169-10 114 58Q59 126 59 254Q59 391 119 464.50Q179 538 291 538Q363 538 407.50 502.50Q452 467 468 414L470 414Q469 448 468.50 480Q468 512 468 543L468 760L494 760L494 0L472 0L470 113L468 113Q450 63 406 26.50Q362-10 283-10M283 15Q383 15 425.50 80.50Q468 146 468 263L468 266Q468 386 424 449.50Q380 513 291 513Q192 513 139 448.50Q86 384 86 254Q86 134 134.50 74.50Q183 15 283 15Z"  horiz-adv-x="583" vert-adv-y="1000"  />

      
      <glyph glyph-name="uni0110" unicode="&#x0110;" d="M280 714Q457 714 542.50 624Q628 534 628 364Q628 185 536.50 92.50Q445 0 257 0L103 0L103 343L17 343L17 368L103 368L103 714L280 714M270 689L129 689L129 368L335 368L335 343L129 343L129 25L260 25Q601 25 601 363Q601 522 522.50 605.50Q444 689 270 689Z"  horiz-adv-x="692" vert-adv-y="1000"  />

      
      <glyph glyph-name="uni0111" unicode="&#x0111;" d="M283-10Q169-10 114 58Q59 126 59 254Q59 391 119 464.50Q179 538 291 538Q363 538 407.50 502.50Q452 467 468 414L470 414Q469 448 468.50 480Q468 512 468 543L468 630L226 630L226 655L468 655L468 760L494 760L494 655L568 655L568 630L494 630L494 0L472 0L470 113L468 113Q450 63 406 26.50Q362-10 283-10M283 15Q383 15 425 80.50Q467 146 467 263L467 266Q467 386 423.50 449.50Q380 513 291 513Q192 513 139 448.50Q86 384 86 254Q86 134 134.50 74.50Q183 15 283 15Z"  horiz-adv-x="582" vert-adv-y="1000"  />

      
      <glyph glyph-name="uni0112" unicode="&#x0112;" d="M488 0L103 0L103 714L488 714L488 689L129 689L129 389L468 389L468 364L129 364L129 25L488 25L488 0M436 824L436 800L181 800L181 824L436 824Z"  horiz-adv-x="550" vert-adv-y="1000"  />

      
      <glyph glyph-name="uni0113" unicode="&#x0113;" d="M287 538Q355 538 397 505Q439 472 459 416.50Q479 361 479 291L479 266L86 266Q85 145 139 80Q193 15 296 15Q344 15 378.50 22Q413 29 459 50L459 23Q421 6 382.50-2Q344-10 296-10Q213-10 160.50 25Q108 60 83.50 121Q59 182 59 259Q59 334 84 397.50Q109 461 159.50 499.50Q210 538 287 538M287 513Q203 513 149.50 456.50Q96 400 87 291L452 291Q453 390 412 451.50Q371 513 287 513M407 638L407 614L152 614L152 638L407 638Z"  horiz-adv-x="540" vert-adv-y="1000"  />

      
      <glyph glyph-name="uni0114" unicode="&#x0114;" d="M488 0L103 0L103 714L488 714L488 689L129 689L129 389L468 389L468 364L129 364L129 25L488 25L488 0M429 904Q415 792 306 792Q252 792 220.50 820.50Q189 849 184 904L209 904Q213 864 236.50 840Q260 816 306 816Q355 816 377.50 840Q400 864 404 904L429 904Z"  horiz-adv-x="550" vert-adv-y="1000"  />

      
      <glyph glyph-name="uni0115" unicode="&#x0115;" d="M287 538Q355 538 397 505Q439 472 459 416.50Q479 361 479 291L479 266L86 266Q85 145 139 80Q193 15 296 15Q344 15 378.50 22Q413 29 459 50L459 23Q421 6 382.50-2Q344-10 296-10Q213-10 160.50 25Q108 60 83.50 121Q59 182 59 259Q59 334 84 397.50Q109 461 159.50 499.50Q210 538 287 538M287 513Q203 513 149.50 456.50Q96 400 87 291L452 291Q453 390 412 451.50Q371 513 287 513M400 718Q386 606 277 606Q223 606 191.50 634.50Q160 663 155 718L180 718Q184 678 207.50 654Q231 630 277 630Q326 630 348.50 654Q371 678 375 718L400 718Z"  horiz-adv-x="540" vert-adv-y="1000"  />

      
      <glyph glyph-name="uni0116" unicode="&#x0116;" d="M488 0L103 0L103 714L488 714L488 689L129 689L129 389L468 389L468 364L129 364L129 25L488 25L488 0M300 907Q318 907 322.50 897.50Q327 888 327 876Q327 863 322.50 854Q318 845 300 845Q285 845 280 854Q275 863 275 876Q275 888 280 897.50Q285 907 300 907Z"  horiz-adv-x="550" vert-adv-y="1000"  />

      
      <glyph glyph-name="uni0117" unicode="&#x0117;" d="M287 538Q355 538 397 505Q439 472 459 416.50Q479 361 479 291L479 266L86 266Q85 145 139 80Q193 15 296 15Q344 15 378.50 22Q413 29 459 50L459 23Q421 6 382.50-2Q344-10 296-10Q213-10 160.50 25Q108 60 83.50 121Q59 182 59 259Q59 334 84 397.50Q109 461 159.50 499.50Q210 538 287 538M287 513Q203 513 149.50 456.50Q96 400 87 291L452 291Q453 390 412 451.50Q371 513 287 513M271 721Q289 721 293.50 711.50Q298 702 298 690Q298 677 293.50 668Q289 659 271 659Q256 659 251 668Q246 677 246 690Q246 702 251 711.50Q256 721 271 721Z"  horiz-adv-x="540" vert-adv-y="1000"  />

      
      <glyph glyph-name="uni0118" unicode="&#x0118;" d="M488 0L103 0L103 714L488 714L488 689L129 689L129 389L468 389L468 364L129 364L129 25L488 25L488 0M375-131Q375-192 433-192Q462-192 481-185L481-209Q473-212 460-214.50Q447-217 431-217Q397-217 373-196.50Q349-176 349-135Q349-99 373-63.50Q397-28 449 11L467 0Q433-27 404-60Q375-93 375-131Z"  horiz-adv-x="550" vert-adv-y="1000"  />

      
      <glyph glyph-name="uni0119" unicode="&#x0119;" d="M350-131Q350-192 408-192Q437-192 456-185L456-209Q448-212 435-214.50Q422-217 406-217Q372-217 348-196.50Q324-176 324-135Q324-103 342-69.50Q360-36 402 2Q355-10 296-10Q213-10 160.50 25Q108 60 83.50 121Q59 182 59 259Q59 334 84 397.50Q109 461 159.50 499.50Q210 538 287 538Q355 538 397 505Q439 472 459 416.50Q479 361 479 291L479 266L86 266Q85 145 139 80Q193 15 296 15Q344 15 378.50 22Q413 29 459 50L459 23Q453 20 446 18Q405-21 377.50-57Q350-93 350-131M287 513Q203 513 149.50 456.50Q96 400 87 291L452 291Q453 390 412 451.50Q371 513 287 513Z"  horiz-adv-x="540" vert-adv-y="1000"  />

      
      <glyph glyph-name="uni011A" unicode="&#x011A;" d="M488 0L103 0L103 714L488 714L488 689L129 689L129 389L468 389L468 364L129 364L129 25L488 25L488 0M297 792Q285 813 265 840.50Q245 868 223.50 895.50Q202 923 183 943L183 949L204 949Q232 921 259.50 887Q287 853 308 824Q329 853 357.50 887Q386 921 414 949L435 949L435 943Q417 923 394.50 895.50Q372 868 351.50 840.50Q331 813 319 792L297 792Z"  horiz-adv-x="550" vert-adv-y="1000"  />

      
      <glyph glyph-name="uni011B" unicode="&#x011B;" d="M287 538Q355 538 397 505Q439 472 459 416.50Q479 361 479 291L479 266L86 266Q85 145 139 80Q193 15 296 15Q344 15 378.50 22Q413 29 459 50L459 23Q421 6 382.50-2Q344-10 296-10Q213-10 160.50 25Q108 60 83.50 121Q59 182 59 259Q59 334 84 397.50Q109 461 159.50 499.50Q210 538 287 538M287 513Q203 513 149.50 456.50Q96 400 87 291L452 291Q453 390 412 451.50Q371 513 287 513M267 606Q255 627 235 654.50Q215 682 193.50 709.50Q172 737 153 757L153 763L174 763Q202 735 229.50 701Q257 667 278 638Q299 667 327.50 701Q356 735 384 763L405 763L405 757Q387 737 364.50 709.50Q342 682 321.50 654.50Q301 627 289 606L267 606Z"  horiz-adv-x="540" vert-adv-y="1000"  />

      
      <glyph glyph-name="uni011C" unicode="&#x011C;" d="M367 350L639 350L639 36Q591 13 533.50 1.50Q476-10 417-10Q244-10 153.50 85Q63 180 63 355Q63 461 106.50 544.50Q150 628 231 677Q312 726 424 726Q481 726 532.50 715.50Q584 705 631 682L619 657Q568 682 519.50 691.50Q471 701 423 701Q320 701 245 656Q170 611 130 533Q90 455 90 356Q90 235 130.50 160Q171 85 245 50Q319 15 419 15Q477 15 525.50 24.50Q574 34 613 50L613 325L367 325L367 350M408 949Q420 929 440 901.50Q460 874 482 846.50Q504 819 522 798L522 792L501 792Q473 820 445.50 854.50Q418 889 397 917Q376 889 347.50 854.50Q319 820 291 792L270 792L270 798Q289 819 311 846.50Q333 874 353.50 901.50Q374 929 386 949L408 949Z"  horiz-adv-x="720" vert-adv-y="1000"  />

      
      <glyph glyph-name="uni011D" unicode="&#x011D;" d="M290 538Q363 538 402.50 509.50Q442 481 463 437L465 437L470 528L492 528L492-25Q492-88 470.50-136.50Q449-185 401-212.50Q353-240 273-240Q212-240 167.50-229Q123-218 87-203L87-173Q123-190 170-202.50Q217-215 273-215Q379-215 422.50-163Q466-111 466-25L466 17Q466 46 466.50 67Q467 88 468 117L466 117Q448 55 399 22.50Q350-10 276-10Q174-10 116.50 57.50Q59 125 59 256Q59 387 117 462.50Q175 538 290 538M290 513Q185 513 135.50 445Q86 377 86 256Q86 138 135.50 76.50Q185 15 276 15Q335 15 372 35.50Q409 56 429.50 89.50Q450 123 458 164Q466 205 466 246L466 294Q466 357 450 406.50Q434 456 396 484.50Q358 513 290 513M293 763Q305 743 325 715.50Q345 688 367 660.50Q389 633 407 612L407 606L386 606Q358 634 330.50 668.50Q303 703 282 731Q261 703 232.50 668.50Q204 634 176 606L155 606L155 612Q174 633 196 660.50Q218 688 238.50 715.50Q259 743 271 763L293 763Z"  horiz-adv-x="583" vert-adv-y="1000"  />

      
      <glyph glyph-name="uni011E" unicode="&#x011E;" d="M367 350L639 350L639 36Q591 13 533.50 1.50Q476-10 417-10Q244-10 153.50 85Q63 180 63 355Q63 461 106.50 544.50Q150 628 231 677Q312 726 424 726Q481 726 532.50 715.50Q584 705 631 682L619 657Q568 682 519.50 691.50Q471 701 423 701Q320 701 245 656Q170 611 130 533Q90 455 90 356Q90 235 130.50 160Q171 85 245 50Q319 15 419 15Q477 15 525.50 24.50Q574 34 613 50L613 325L367 325L367 350M516 904Q502 792 393 792Q339 792 307.50 820.50Q276 849 271 904L296 904Q300 864 323.50 840Q347 816 393 816Q442 816 464.50 840Q487 864 491 904L516 904Z"  horiz-adv-x="720" vert-adv-y="1000"  />

      
      </font>
</defs>
</svg>
