<?xml version="1.0" standalone="no"?>
  <!DOCTYPE svg PUBLIC "-//W3C//DTD SVG 1.1//EN" "http://www.w3.org/Graphics/SVG/1.1/DTD/svg11.dtd" >
  <svg>
  <metadata>
  Created by font-carrier
  </metadata>
  <defs>
  <font id="NotoSans-LightItalic" horiz-adv-x="2704" vert-adv-y="2704" >
    <font-face
      
      font-family="Noto Sans Light"
      
      font-weight="400"
      
      font-stretch="normal"
      
      units-per-em="1000"
      
      ascent="1069"
      
      descent="-293"
      
    />
      <missing-glyph />

      

      
      <glyph glyph-name="uni21" unicode="&#x21;" d="M77 188L180 714L247 714L125 188L77 188M64-11Q26-11 26 27Q26 50 39 69Q52 88 79 88Q96 88 105.50 77.50Q115 67 115 50Q115 28 102.50 8.50Q90-11 64-11Z"  horiz-adv-x="236" vert-adv-y="1000"  />

      
      <glyph glyph-name="uni22" unicode="&#x22;" d="M265 456L308 714L370 714L303 456L265 456M110 456L153 714L215 714L148 456L110 456Z"  horiz-adv-x="351" vert-adv-y="1000"  />

      
      <glyph glyph-name="uni23" unicode="&#x23;" d="M102 0L164 218L33 218L37 263L177 263L232 450L93 450L97 494L244 494L307 714L356 714L293 494L458 494L522 714L568 714L505 494L639 494L635 450L492 450L439 263L580 263L576 218L427 218L363 0L314 0L379 218L213 218L149 0L102 0M225 263L392 263L444 450L279 450L225 263Z"  horiz-adv-x="630" vert-adv-y="1000"  />

      
      <glyph glyph-name="uni24" unicode="&#x24;" d="M203 50Q156 51 113.50 60.50Q71 70 43 83L43 137Q77 120 121.50 109.50Q166 99 213 99L266 345Q203 368 165.50 401.50Q128 435 128 499Q128 555 156 592.50Q184 630 231 650Q278 670 335 674L353 758L397 758L380 674Q417 671 452.50 662Q488 653 519 638L497 591Q438 620 370 625L317 381Q361 363 393 344Q425 325 442 298.50Q459 272 459 232Q459 176 430 137Q401 98 353 76.50Q305 55 247 51L223-58L179-58L203 50M325 625Q263 621 222.50 589.50Q182 558 182 501Q182 459 208 436Q234 413 276 396L325 625M258 100Q297 103 330 118.50Q363 134 383.50 161.50Q404 189 404 227Q404 266 379 288Q354 310 306 329L258 100Z"  horiz-adv-x="551" vert-adv-y="1000"  />

      
      <glyph glyph-name="uni25" unicode="&#x25;" d="M192 276Q140 276 111.50 311Q83 346 83 415Q83 446 88.50 486.50Q94 527 107 568.50Q120 610 141.50 645.50Q163 681 194.50 702.50Q226 724 269 724Q378 724 378 591Q378 561 372 520.50Q366 480 353 437.50Q340 395 318.50 358.50Q297 322 265.50 299Q234 276 192 276M117 0L645 714L699 714L171 0L117 0M196 322Q225 322 247.50 341.50Q270 361 285.50 393Q301 425 310.50 461Q320 497 324.50 530.50Q329 564 329 587Q329 635 313 657Q297 679 266 679Q236 679 213.50 660Q191 641 175.50 610.50Q160 580 150.50 544.50Q141 509 137 475Q133 441 133 416Q133 322 196 322M545-11Q493-11 464.50 23.50Q436 58 436 127Q436 159 441.50 199.50Q447 240 460 282Q473 324 494.50 359Q516 394 547.50 415.50Q579 437 622 437Q732 437 732 305Q731 275 725.50 234Q720 193 706.50 150.50Q693 108 671.50 71.50Q650 35 618.50 12Q587-11 545-11M549 35Q578 35 600.50 54.50Q623 74 638.50 106Q654 138 663.50 174Q673 210 677.50 243.50Q682 277 682 300Q682 348 666 370Q650 392 619 392Q589 392 567 373Q545 354 529.50 323.50Q514 293 504.50 257.50Q495 222 490.50 188Q486 154 486 129Q486 35 549 35Z"  horiz-adv-x="781" vert-adv-y="1000"  />

      
      <glyph glyph-name="uni26" unicode="&#x26;" d="M220-10Q141-10 90.50 33.50Q40 77 40 157Q40 217 65 259.50Q90 302 137 334.50Q184 367 247 396Q221 433 205 470Q189 507 189 548Q189 598 211 638.50Q233 679 275 702Q317 725 374 725Q439 725 480 687.50Q521 650 521 590Q521 536 494 499.50Q467 463 421.50 436Q376 409 320 382L474 167Q508 199 537 243Q566 287 585 333L643 333Q616 272 580.50 221Q545 170 503 127L595 0L528 0L464 92Q413 47 356.50 18.50Q300-10 220-10M295 419Q322 431 351.50 446Q381 461 407 480.50Q433 500 449 526Q465 552 465 586Q465 627 438.50 652Q412 677 370 677Q315 677 279.50 643Q244 609 244 548Q244 515 256.50 484Q269 453 295 419M230 39Q295 39 342.50 64.50Q390 90 436 130L272 360Q222 336 182.50 309.50Q143 283 120 247.50Q97 212 97 161Q97 103 135.50 71Q174 39 230 39Z"  horiz-adv-x="678" vert-adv-y="1000"  />

      
      <glyph glyph-name="uni27" unicode="&#x27;" d="M110 456L153 714L215 714L148 456L110 456Z"  horiz-adv-x="196" vert-adv-y="1000"  />

      
      <glyph glyph-name="uni28" unicode="&#x28;" d="M105-158Q72-99 54-27.50Q36 44 36 126Q36 306 103 454Q170 602 282 714L339 714Q264 637 208 543.50Q152 450 121.50 344.50Q91 239 91 126Q91 44 107-27Q123-98 153-158L105-158Z"  horiz-adv-x="266" vert-adv-y="1000"  />

      
      <glyph glyph-name="uni29" unicode="&#x29;" d="M-70-158Q43-42 110.50 109Q178 260 178 430Q178 592 116 714L165 714Q197 655 215 583.50Q233 512 233 430Q233 250 166 102Q99-46-13-158L-70-158Z"  horiz-adv-x="266" vert-adv-y="1000"  />

      
      <glyph glyph-name="uni2a" unicode="&#x2a;" d="M384 319L318 512L182 359L142 399L295 534L115 609L136 661L313 562L342 760L399 749L345 555L549 574L547 519L352 523L439 338L384 319Z"  horiz-adv-x="541" vert-adv-y="1000"  />

      
      <glyph glyph-name="uni2b" unicode="&#x2b;" d="M329 377L538 377L538 329L329 329L329 117L281 117L281 329L73 329L73 377L281 377L281 589L329 589L329 377Z"  horiz-adv-x="571" vert-adv-y="1000"  />

      
      <glyph glyph-name="uni2c" unicode="&#x2c;" d="M-44-129Q-12-63 13.50-0.50Q39 62 58 116L120 116L122 105Q99 50 66.50-13Q34-76 1-129L-44-129Z"  horiz-adv-x="220" vert-adv-y="1000"  />

      
      <glyph glyph-name="uni2d" unicode="&#x2d;" d="M32 243L44 296L277 296L266 243L32 243Z"  horiz-adv-x="313" vert-adv-y="1000"  />

      
      <glyph glyph-name="uni2e" unicode="&#x2e;" d="M64-11Q26-11 26 26Q26 49 39 68.50Q52 88 80 88Q115 88 115 50Q115 28 102 8.50Q89-11 64-11Z"  horiz-adv-x="233" vert-adv-y="1000"  />

      
      <glyph glyph-name="uni2f" unicode="&#x2f;" d="M-44 0L357 714L417 714L16 0L-44 0Z"  horiz-adv-x="331" vert-adv-y="1000"  />

      
      <glyph glyph-name="uni30" unicode="&#x30;" d="M236-10Q154-10 108 48.50Q62 107 62 218Q61 281 71.50 350.50Q82 420 104 486.50Q126 553 160.50 607Q195 661 244 693Q293 725 357 725Q445 725 488 667.50Q531 610 531 509Q531 435 519.50 361Q508 287 485 220.50Q462 154 427 102Q392 50 344.50 20Q297-10 236-10M242 40Q287 40 324 68Q361 96 388.50 144Q416 192 435 252.50Q454 313 463.50 379Q473 445 473 509Q473 588 444 631.50Q415 675 354 675Q306 675 268.50 646.50Q231 618 203 569.50Q175 521 156.50 461.50Q138 402 129 339Q120 276 120 219Q120 40 242 40Z"  horiz-adv-x="551" vert-adv-y="1000"  />

      
      <glyph glyph-name="uni31" unicode="&#x31;" d="M323 503Q332 547 341 586Q350 625 358 650Q343 636 328.50 625.50Q314 615 294 601L182 529L155 572L375 714L426 714L274 0L216 0L323 503Z"  horiz-adv-x="551" vert-adv-y="1000"  />

      
      <glyph glyph-name="uni32" unicode="&#x32;" d="M7 0L17 49L262 271Q318 321 362.50 366Q407 411 433 458Q459 505 459 563Q459 614 427.50 644Q396 674 341 674Q298 674 258 657Q218 640 178 611L150 651Q196 687 245 705.50Q294 724 346 724Q427 724 472.50 681Q518 638 518 570Q518 507 492 455Q466 403 417.50 351Q369 299 300 238L93 55L93 53L443 53L433 0L7 0Z"  horiz-adv-x="551" vert-adv-y="1000"  />

      
      <glyph glyph-name="uni33" unicode="&#x33;" d="M210-10Q151-10 104.50 1.50Q58 13 22 31L22 88Q55 68 105.50 54Q156 40 211 40Q305 40 358 86.50Q411 133 411 208Q411 276 367 311Q323 346 247 346L175 346L185 395L257 395Q309 395 357 413.50Q405 432 436 469.50Q467 507 467 565Q467 616 434 645.50Q401 675 348 675Q298 675 253.50 658Q209 641 164 611L137 652Q182 684 235 704Q288 724 353 724Q433 724 479 681Q525 638 525 570Q525 489 473 436.50Q421 384 342 370L342 367Q400 356 435.50 315.50Q471 275 471 210Q471 149 441 99.50Q411 50 353 20Q295-10 210-10Z"  horiz-adv-x="551" vert-adv-y="1000"  />

      
      <glyph glyph-name="uni34" unicode="&#x34;" d="M309 0L347 178L11 178L20 227L451 716L517 716L414 230L533 230L521 178L403 178L365 0L309 0M84 230L358 230L409 468Q421 526 433 572Q445 618 455 655L452 655Q436 633 417 608.50Q398 584 378 562L84 230Z"  horiz-adv-x="551" vert-adv-y="1000"  />

      
      <glyph glyph-name="uni35" unicode="&#x35;" d="M203-10Q154-10 110.50 1Q67 12 38 31L38 88Q69 67 113 53.50Q157 40 204 40Q304 40 363 93.50Q422 147 422 242Q422 308 383 346.50Q344 385 273 385Q236 385 207 379Q178 373 143 364L117 386L214 714L537 714L526 662L253 662L180 418Q201 423 227 427.50Q253 432 289 432Q376 432 428.50 382Q481 332 481 248Q481 174 449 116Q417 58 355 24Q293-10 203-10Z"  horiz-adv-x="551" vert-adv-y="1000"  />

      
      <glyph glyph-name="uni36" unicode="&#x36;" d="M252-10Q159-10 112.50 49.50Q66 109 66 209Q66 261 76 319.50Q86 378 106.50 436.50Q127 495 156.50 546.50Q186 598 225 636Q269 681 327 703Q385 725 451 725Q478 725 502.50 721.50Q527 718 545 713L533 662Q516 668 494.50 671.50Q473 675 446 675Q378 675 318 642.50Q258 610 211.50 537.50Q165 465 137 344L140 344Q168 384 216.50 414Q265 444 331 444Q406 444 451 396.50Q496 349 496 268Q496 194 465.50 130.50Q435 67 380 28.50Q325-10 252-10M256 40Q312 40 353 72.50Q394 105 416.50 156.50Q439 208 439 264Q439 327 406.50 361.50Q374 396 315 396Q267 396 228.50 375.50Q190 355 164.50 325.50Q139 296 132 269Q123 240 123 200Q123 162 134.50 125Q146 88 175 64Q204 40 256 40Z"  horiz-adv-x="551" vert-adv-y="1000"  />

      
      <glyph glyph-name="uni37" unicode="&#x37;" d="M98 0L489 663L118 663L128 714L562 714L554 671L161 0L98 0Z"  horiz-adv-x="551" vert-adv-y="1000"  />

      
      <glyph glyph-name="uni38" unicode="&#x38;" d="M242-10Q180-10 136 13Q92 36 69 75Q46 114 46 164Q46 221 72.50 261.50Q99 302 146 330.50Q193 359 254 381Q213 408 184 444.50Q155 481 155 540Q155 597 182 638.50Q209 680 255.50 702.50Q302 725 361 725Q419 725 458 704Q497 683 517 648.50Q537 614 537 574Q537 520 512 482.50Q487 445 445.50 419Q404 393 355 373Q391 352 419 328Q447 304 464 271Q481 238 481 192Q481 132 451.50 86.50Q422 41 368.50 15.50Q315-10 242-10M311 400Q387 428 433 466.50Q479 505 479 569Q479 618 444.50 646.50Q410 675 357 675Q294 675 253 640Q212 605 212 540Q212 490 239.50 457.50Q267 425 311 400M247 39Q325 39 374 80.50Q423 122 423 191Q423 250 390 284.50Q357 319 300 351Q247 334 202.50 311.50Q158 289 131.50 254.50Q105 220 105 166Q105 106 145 72.50Q185 39 247 39Z"  horiz-adv-x="551" vert-adv-y="1000"  />

      
      <glyph glyph-name="uni39" unicode="&#x39;" d="M165-10Q133-10 102-5.50Q71-1 47 7L47 61Q70 53 101 47Q132 41 166 41Q262 41 336 117Q410 193 450 365L447 365Q421 327 374.50 298.50Q328 270 264 270Q183 270 138.50 318.50Q94 367 94 449Q94 525 125 587.50Q156 650 211.50 687Q267 724 339 724Q430 724 476.50 665Q523 606 523 506Q523 452 512 392Q501 332 480.50 272.50Q460 213 431.50 161.50Q403 110 369 75Q324 30 272 10Q220-10 165-10M274 318Q319 318 356 335.50Q393 353 419 382Q445 411 456 445Q466 474 466 514Q466 558 452.50 594.50Q439 631 411 653Q383 675 337 675Q278 675 236.50 643Q195 611 173 560Q151 509 151 451Q151 388 183 353Q215 318 274 318Z"  horiz-adv-x="551" vert-adv-y="1000"  />

      
      <glyph glyph-name="uni3a" unicode="&#x3a;" d="M154 443Q117 443 117 479Q117 503 130 522Q143 541 170 541Q206 541 206 504Q206 481 193 462Q180 443 154 443M64-11Q26-11 26 26Q26 49 39 68.50Q52 88 80 88Q115 88 115 50Q115 28 102 8.50Q89-11 64-11Z"  horiz-adv-x="233" vert-adv-y="1000"  />

      
      <glyph glyph-name="uni3b" unicode="&#x3b;" d="M154 443Q116 443 116 479Q116 503 129 522Q142 541 170 541Q205 541 205 504Q205 481 192 462Q179 443 154 443M-47-129Q-15-63 10.50-0.50Q36 62 55 116L117 116L119 105Q96 50 63.50-13Q31-76-2-129L-47-129Z"  horiz-adv-x="233" vert-adv-y="1000"  />

      
      <glyph glyph-name="uni3c" unicode="&#x3c;" d="M538 127L73 338L73 372L538 597L538 545L138 357L538 179L538 127Z"  horiz-adv-x="571" vert-adv-y="1000"  />

      
      <glyph glyph-name="uni3d" unicode="&#x3d;" d="M76 430L76 477L535 477L535 430L76 430M76 228L76 276L535 276L535 228L76 228Z"  horiz-adv-x="571" vert-adv-y="1000"  />

      
      <glyph glyph-name="uni3e" unicode="&#x3e;" d="M73 179L473 357L73 545L73 597L538 372L538 338L73 127L73 179Z"  horiz-adv-x="571" vert-adv-y="1000"  />

      
      <glyph glyph-name="uni3f" unicode="&#x3f;" d="M124 188Q132 238 148 271Q164 304 189.50 330Q215 356 251 384Q284 409 313.50 433.50Q343 458 361.50 488.50Q380 519 380 563Q380 614 350 644Q320 674 267 674Q233 674 198.50 663.50Q164 653 129 637L108 682Q194 724 272 724Q348 724 393 682.50Q438 641 438 569Q438 520 419.50 483.50Q401 447 368 416Q335 385 291 353Q256 327 232.50 305.50Q209 284 194.50 257Q180 230 172 188L124 188M117-11Q79-11 79 26Q79 49 92 68.50Q105 88 133 88Q168 88 168 50Q168 28 155 8.50Q142-11 117-11Z"  horiz-adv-x="417" vert-adv-y="1000"  />

      
      <glyph glyph-name="uni40" unicode="&#x40;" d="M380-90Q288-90 214-52Q140-14 97 60.50Q54 135 54 244Q54 333 85 416Q116 499 175.50 565.50Q235 632 321.50 671Q408 710 520 710Q617 710 682.50 671Q748 632 781.50 565.50Q815 499 815 414Q815 328 787.50 258Q760 188 713 147.50Q666 107 607 107Q557 107 535.50 133Q514 159 513 202L510 202Q485 159 447.50 133Q410 107 360 107Q307 107 274.50 141Q242 175 242 239Q242 318 276 380Q310 442 367 477Q424 512 491 512Q532 512 563.50 504Q595 496 620 486L578 326Q567 287 561.50 261.50Q556 236 556 217Q556 151 610 151Q653 151 688 187.50Q723 224 744 283Q765 342 765 411Q765 484 737.50 541Q710 598 654.50 631Q599 664 512 664Q417 664 341.50 631Q266 598 213.50 540Q161 482 133.50 406.50Q106 331 106 247Q106 152 141.50 87Q177 22 240-11Q303-44 386-44Q437-44 488.50-34Q540-24 587-6L587-51Q539-70 486.50-80Q434-90 380-90M370 151Q425 151 464 196Q503 241 525 321L561 455Q546 460 527.50 464.50Q509 469 485 469Q433 469 389.50 439.50Q346 410 320 359Q294 308 294 243Q294 196 314 173.50Q334 151 370 151Z"  horiz-adv-x="841" vert-adv-y="1000"  />

      
      <glyph glyph-name="uni41" unicode="&#x41;" d="M-53 0L350 715L409 715L506 0L449 0L415 247L148 247L11 0L-53 0M176 299L409 299L379 523Q376 552 372.50 586Q369 620 368 650L365 650Q351 619 334.50 586.50Q318 554 301 521L176 299Z"  horiz-adv-x="555" vert-adv-y="1000"  />

      
      <glyph glyph-name="uni42" unicode="&#x42;" d="M46 0L197 714L380 714Q585 714 585 561Q585 484 540 436Q495 388 419 374L419 371Q473 357 504.50 320Q536 283 536 223Q536 147 499 98Q462 49 398.50 24.50Q335 0 255 0L46 0M328 399Q385 399 429 415.50Q473 432 499 466.50Q525 501 525 555Q525 608 488 635.50Q451 663 371 663L244 663L188 399L328 399M262 51Q324 51 372 69.50Q420 88 447.50 126Q475 164 475 223Q475 284 434 317Q393 350 314 350L178 350L114 51L262 51Z"  horiz-adv-x="599" vert-adv-y="1000"  />

      
      <glyph glyph-name="uni43" unicode="&#x43;" d="M326-10Q209-10 143.50 64.50Q78 139 78 266Q78 357 104.50 439.50Q131 522 181.50 586Q232 650 303.50 687Q375 724 465 724Q561 724 633 686L609 636Q577 654 541.50 663Q506 672 465 672Q389 672 328.50 640Q268 608 225.50 551.50Q183 495 161 422Q139 349 139 268Q139 163 191 102.50Q243 42 335 42Q381 42 422 50.50Q463 59 500 71L500 21Q464 7 422-1.50Q380-10 326-10Z"  horiz-adv-x="591" vert-adv-y="1000"  />

      
      <glyph glyph-name="uni44" unicode="&#x44;" d="M46 0L197 714L354 714Q486 714 561.50 643.50Q637 573 637 427Q637 339 609.50 262Q582 185 528.50 126Q475 67 394.50 33.50Q314 0 207 0L46 0M210 51Q299 51 367.50 80.50Q436 110 482.50 162Q529 214 552.50 282Q576 350 576 428Q576 550 514 606.50Q452 663 343 663L244 663L114 51L210 51Z"  horiz-adv-x="672" vert-adv-y="1000"  />

      
      <glyph glyph-name="uni45" unicode="&#x45;" d="M46 0L197 714L557 714L546 662L244 662L188 401L472 401L462 349L178 349L114 52L417 52L406 0L46 0Z"  horiz-adv-x="525" vert-adv-y="1000"  />

      
      <glyph glyph-name="uni46" unicode="&#x46;" d="M46 0L197 714L557 714L547 662L244 662L182 368L467 368L455 316L170 316L104 0L46 0Z"  horiz-adv-x="482" vert-adv-y="1000"  />

      
      <glyph glyph-name="uni47" unicode="&#x47;" d="M338-10Q214-10 146 63Q78 136 78 263Q78 365 107 449.50Q136 534 188.50 595.50Q241 657 310.50 690.50Q380 724 461 724Q521 724 570.50 713Q620 702 664 682L642 631Q601 649 556 660.50Q511 672 460 672Q393 672 335 643Q277 614 232.50 560Q188 506 163.50 431.50Q139 357 139 266Q139 161 192.50 101.50Q246 42 343 42Q389 42 431 50Q473 58 503 70L555 312L385 312L396 363L624 363L553 32Q505 12 451 1Q397-10 338-10Z"  horiz-adv-x="684" vert-adv-y="1000"  />

      
      <glyph glyph-name="uni48" unicode="&#x48;" d="M46 0L197 714L255 714L189 400L556 400L623 714L680 714L529 0L472 0L545 348L178 348L104 0L46 0Z"  horiz-adv-x="681" vert-adv-y="1000"  />

      
      <glyph glyph-name="uni49" unicode="&#x49;" d="M-6 0L1 35L77 46L209 668L138 679L145 714L349 714L342 679L266 668L134 46L205 35L198 0L-6 0Z"  horiz-adv-x="302" vert-adv-y="1000"  />

      
      <glyph glyph-name="uni4a" unicode="&#x4a;" d="M-84-182Q-107-182-128.50-178.50Q-150-175-163-169L-161-118Q-126-129-84-129Q-30-129 2-96.50Q34-64 47 0L199 714L257 714L104-7Q85-98 37.50-140Q-10-182-84-182Z"  horiz-adv-x="252" vert-adv-y="1000"  />

      
      <glyph glyph-name="uni4b" unicode="&#x4b;" d="M46 0L197 714L255 714L176 346L236 405L568 714L640 714L312 407L497 0L433 0L268 371L164 288L104 0L46 0Z"  horiz-adv-x="553" vert-adv-y="1000"  />

      
      <glyph glyph-name="uni4c" unicode="&#x4c;" d="M46 0L197 714L255 714L114 53L416 53L405 0L46 0Z"  horiz-adv-x="485" vert-adv-y="1000"  />

      
      <glyph glyph-name="uni4d" unicode="&#x4d;" d="M45 0L196 714L278 714L372 89L375 89L733 714L823 714L673 0L615 0L724 513Q732 553 740.50 588.50Q749 624 757 653L755 653L379 0L334 0L236 653L233 653Q229 625 223 587.50Q217 550 209 513L101 0L45 0Z"  horiz-adv-x="824" vert-adv-y="1000"  />

      
      <glyph glyph-name="uni4e" unicode="&#x4e;" d="M45 0L196 714L253 714L504 89L507 89Q513 127 521.50 175Q530 223 540 266L635 714L691 714L540 0L482 0L231 626L228 626Q222 588 213.50 540Q205 492 195 445L101 0L45 0Z"  horiz-adv-x="691" vert-adv-y="1000"  />

      
      <glyph glyph-name="uni4f" unicode="&#x4f;" d="M336-10Q247-10 190 26.50Q133 63 105.50 126.50Q78 190 78 272Q78 359 100.50 440Q123 521 168 585.50Q213 650 279 687.50Q345 725 432 725Q548 725 615.50 653.50Q683 582 683 445Q683 385 671 321Q659 257 633 198Q607 139 566 92Q525 45 468 17.50Q411-10 336-10M338 42Q412 42 465.50 79Q519 116 554 176.50Q589 237 605.50 307.50Q622 378 622 446Q622 552 572.50 612.50Q523 673 428 673Q354 673 299.50 638Q245 603 209.50 544.50Q174 486 156.50 415Q139 344 139 273Q139 168 188.50 105Q238 42 338 42Z"  horiz-adv-x="719" vert-adv-y="1000"  />

      
      <glyph glyph-name="uni50" unicode="&#x50;" d="M46 0L197 714L355 714Q461 714 512 666Q563 618 563 533Q563 422 489.50 357Q416 292 268 292L165 292L104 0L46 0M277 342Q389 342 446.50 391.50Q504 441 504 531Q504 600 463.50 631.50Q423 663 346 663L244 663L176 342L277 342Z"  horiz-adv-x="563" vert-adv-y="1000"  />

      
      <glyph glyph-name="uni51" unicode="&#x51;" d="M343-9Q339-10 331-10Q246-9 189.50 26.50Q133 62 105.50 125.50Q78 189 78 272Q78 359 100.50 440Q123 521 168 585.50Q213 650 279 687.50Q345 725 432 725Q548 725 615.50 653.50Q683 582 683 445Q683 378 667.50 306Q652 234 618.50 169.50Q585 105 532 59Q479 13 404-1L528-170L453-170L343-9M338 42Q412 42 466 79Q520 116 554.50 176.50Q589 237 605.50 307.50Q622 378 622 446Q622 552 572.50 612.50Q523 673 428 673Q354 673 299.50 638Q245 603 209.50 544.50Q174 486 156.50 415Q139 344 139 273Q139 168 188.50 105Q238 42 338 42Z"  horiz-adv-x="719" vert-adv-y="1000"  />

      
      <glyph glyph-name="uni52" unicode="&#x52;" d="M46 0L197 714L349 714Q564 714 564 541Q564 454 517.50 398Q471 342 375 320L492 0L429 0L321 308L169 308L104 0L46 0M294 358Q391 358 447.50 403.50Q504 449 504 538Q504 604 463.50 633.50Q423 663 342 663L244 663L179 358L294 358Z"  horiz-adv-x="568" vert-adv-y="1000"  />

      
      <glyph glyph-name="uni53" unicode="&#x53;" d="M192-10Q133-10 92.50-1Q52 8 19 23L19 82Q52 65 94.50 53.50Q137 42 192 42Q237 42 280 57Q323 72 351.50 105Q380 138 380 192Q380 246 345 279Q310 312 244 347Q208 367 177.50 390.50Q147 414 129 446Q111 478 111 524Q111 592 144 636.50Q177 681 230 702.50Q283 724 342 724Q397 724 437 713.50Q477 703 514 685L492 634Q458 651 421.50 661.50Q385 672 342 672Q302 672 262.50 657.50Q223 643 197.50 611Q172 579 172 528Q172 491 186.50 467.50Q201 444 227 426Q253 408 286 390Q330 365 365 339.50Q400 314 420.50 280.50Q441 247 441 196Q441 124 405.50 78.50Q370 33 313.50 11.50Q257-10 192-10Z"  horiz-adv-x="502" vert-adv-y="1000"  />

      
      <glyph glyph-name="uni54" unicode="&#x54;" d="M162 0L302 662L92 662L103 714L583 714L572 662L361 662L221 0L162 0Z"  horiz-adv-x="493" vert-adv-y="1000"  />

      
      <glyph glyph-name="uni55" unicode="&#x55;" d="M300-10Q196-10 140 40.50Q84 91 84 186Q84 219 94 269L189 714L247 714L152 267Q142 223 142 187Q142 117 184.50 79.50Q227 42 303 42Q398 42 454.50 95Q511 148 534 254L633 714L691 714L592 248Q565 120 493 55Q421-10 300-10Z"  horiz-adv-x="685" vert-adv-y="1000"  />

      
      <glyph glyph-name="uni56" unicode="&#x56;" d="M183 0L99 714L156 714L214 204Q218 170 220.50 134.50Q223 99 224 69L226 69Q239 98 255 130.50Q271 163 293 204L563 714L627 714L242 0L183 0Z"  horiz-adv-x="544" vert-adv-y="1000"  />

      
      <glyph glyph-name="uni57" unicode="&#x57;" d="M149 0L116 714L172 714L193 225Q194 190 193.50 153Q193 116 192 81L195 81Q208 114 223.50 152Q239 190 259 231L488 714L546 714L574 232Q576 194 577 152.50Q578 111 578 79L581 79Q593 112 606.50 148.50Q620 185 638 224L856 714L917 714L592 0L536 0L506 520Q504 550 503.50 579.50Q503 609 503 637L500 637Q491 610 480.50 586Q470 562 455 529L206 0L149 0Z"  horiz-adv-x="841" vert-adv-y="1000"  />

      
      <glyph glyph-name="uni58" unicode="&#x58;" d="M-55 0L245 375L114 714L173 714L284 416L522 714L587 714L310 372L452 0L392 0L270 330L10 0L-55 0Z"  horiz-adv-x="508" vert-adv-y="1000"  />

      
      <glyph glyph-name="uni59" unicode="&#x59;" d="M162 0L220 270L94 714L152 714L258 329L524 714L590 714L277 270L221 0L162 0Z"  horiz-adv-x="497" vert-adv-y="1000"  />

      
      <glyph glyph-name="uni5a" unicode="&#x5a;" d="M-9 0L0 44L489 662L145 662L156 714L572 714L564 670L75 53L443 53L433 0L-9 0Z"  horiz-adv-x="535" vert-adv-y="1000"  />

      
      <glyph glyph-name="uni5b" unicode="&#x5b;" d="M-9-158L177 714L370 714L359 665L221 665L57-108L196-108L184-158L-9-158Z"  horiz-adv-x="297" vert-adv-y="1000"  />

      
      <glyph glyph-name="uni5c" unicode="&#x5c;" d="M221 0L103 714L155 714L273 0L221 0Z"  horiz-adv-x="331" vert-adv-y="1000"  />

      
      <glyph glyph-name="uni5d" unicode="&#x5d;" d="M-72-158L-61-108L76-108L240 665L102 665L113 714L306 714L120-158L-72-158Z"  horiz-adv-x="297" vert-adv-y="1000"  />

      
      <glyph glyph-name="uni5e" unicode="&#x5e;" d="M44 273L306 719L343 719L519 273L468 273L323 656L99 273L44 273Z"  horiz-adv-x="561" vert-adv-y="1000"  />

      
      <glyph glyph-name="uni5f" unicode="&#x5f;" d="M-88-146L-78-99L306-99L296-146L-88-146Z"  horiz-adv-x="383" vert-adv-y="1000"  />

      
      <glyph glyph-name="uni60" unicode="&#x60;" d="M250 606Q233 625 212.50 652.50Q192 680 174 708.50Q156 737 147 756L147 766L208 766Q221 729 243.50 688Q266 647 285 618L285 606L250 606Z"  horiz-adv-x="252" vert-adv-y="1000"  />

      
      <glyph glyph-name="uni61" unicode="&#x61;" d="M195-10Q127-10 88.50 39Q50 88 50 176Q50 244 68 309Q86 374 120.50 426.50Q155 479 204 510.50Q253 542 315 542Q356 542 384 525Q412 508 428.50 482.50Q445 457 453 430L457 430L486 532L531 532L418 0L372 0L392 119L389 119Q369 89 340 59Q311 29 274 9.50Q237-10 195-10M211 39Q252 39 294 69Q336 99 369 150Q402 201 417 265Q423 295 426 318.50Q429 342 429 362Q429 422 399.50 457.50Q370 493 319 493Q270 493 231 465.50Q192 438 164.50 392.50Q137 347 122.50 290.50Q108 234 108 175Q108 110 134 74.50Q160 39 211 39Z"  horiz-adv-x="558" vert-adv-y="1000"  />

      
      <glyph glyph-name="uni62" unicode="&#x62;" d="M254-10Q189-10 154 24.50Q119 59 108 102L104 102L75 0L30 0L191 760L248 760L206 562Q197 520 186 476.50Q175 433 170 413L173 413Q194 444 223 473.50Q252 503 288.50 522.50Q325 542 370 542Q439 542 480.50 493Q522 444 522 357Q522 290 504.50 224.50Q487 159 453 106Q419 53 369 21.50Q319-10 254-10M251 39Q302 39 341.50 66.50Q381 94 408 140.50Q435 187 449 243Q463 299 463 357Q463 422 434.50 457.50Q406 493 354 493Q309 493 269 465.50Q229 438 198 392Q167 346 149 288.50Q131 231 131 171Q131 108 162.50 73.50Q194 39 251 39Z"  horiz-adv-x="574" vert-adv-y="1000"  />

      
      <glyph glyph-name="uni63" unicode="&#x63;" d="M247-10Q156-10 104 44Q52 98 52 192Q52 262 70.50 325.50Q89 389 125.50 437.50Q162 486 214 514Q266 542 332 542Q366 542 399.50 535.50Q433 529 460 517L443 468Q421 479 391.50 486Q362 493 332 493Q265 493 215 452Q165 411 137.50 343Q110 275 110 194Q110 126 146.50 82.50Q183 39 252 39Q288 39 318.50 48Q349 57 380 71L380 21Q354 7 321-1.50Q288-10 247-10Z"  horiz-adv-x="453" vert-adv-y="1000"  />

      
      <glyph glyph-name="uni64" unicode="&#x64;" d="M197-10Q126-10 88 38.50Q50 87 50 176Q50 243 67 308Q84 373 118.50 425.50Q153 478 202.50 510Q252 542 318 542Q361 542 390.50 525.50Q420 509 437.50 483.50Q455 458 463 430L467 430Q471 464 477 497Q483 530 491 564L532 760L589 760L428 0L381 0L400 120L397 120Q375 88 345 58Q315 28 278 9Q241-10 197-10M213 39Q253 39 293.50 65Q334 91 367 135.50Q400 180 420 238.50Q440 297 440 361Q440 424 408.50 458.50Q377 493 320 493Q269 493 230 465Q191 437 163.50 391Q136 345 122 288.50Q108 232 108 175Q108 109 134.50 74Q161 39 213 39Z"  horiz-adv-x="574" vert-adv-y="1000"  />

      
      <glyph glyph-name="uni65" unicode="&#x65;" d="M244-10Q162-10 108.50 41Q55 92 55 193Q55 261 74.50 323.50Q94 386 130 435.50Q166 485 215.50 513.50Q265 542 325 542Q390 542 427 509.50Q464 477 464 423Q464 334 378 289Q292 244 142 244L116 244Q115 234 114 220.50Q113 207 113 195Q113 120 150 79.50Q187 39 255 39Q295 39 329 50Q363 61 395 76L395 26Q365 11 327.50 0.50Q290-10 244-10M152 292Q224 292 281.50 305Q339 318 373 346Q407 374 407 419Q407 451 385.50 472Q364 493 320 493Q280 493 240.50 469.50Q201 446 170 401Q139 356 125 292L152 292Z"  horiz-adv-x="495" vert-adv-y="1000"  />

      
      <glyph glyph-name="uni66" unicode="&#x66;" d="M-59-240Q-76-240-93.50-237Q-111-234-122-230L-122-180Q-108-185-93-188Q-78-191-63-191Q-28-191-7-163.50Q14-136 25-84L146 486L53 486L58 516L156 534L170 598Q189 686 229 725.50Q269 765 343 765Q367 765 390 760Q413 755 428 749L413 703Q398 709 380.50 713Q363 717 345 717Q295 717 267.50 689.50Q240 662 226 596L212 532L330 532L321 486L203 486L81-91Q65-165 31.50-202.50Q-2-240-59-240Z"  horiz-adv-x="291" vert-adv-y="1000"  />

      
      <glyph glyph-name="uni67" unicode="&#x67;" d="M179-240Q133-240 93.50-230Q54-220 26-206L26-151Q53-167 95-179Q137-191 178-191Q257-191 302-150Q347-109 365-30L374 9Q379 34 387 66Q395 98 401 122L398 122Q376 89 346 58.50Q316 28 279 9Q242-10 198-10Q126-10 88 39Q50 88 50 176Q50 242 67 307Q84 372 118 425.50Q152 479 202.50 510.50Q253 542 318 542Q361 542 390.50 525.50Q420 509 438 483.50Q456 458 464 430L467 430L497 532L541 532L421-29Q399-134 340.50-187Q282-240 179-240M214 39Q254 39 293.50 65Q333 91 366.50 136Q400 181 420 239Q440 297 440 361Q440 424 409 458.50Q378 493 321 493Q270 493 230.50 465Q191 437 163.50 391Q136 345 122 288.50Q108 232 108 175Q108 110 134 74.50Q160 39 214 39Z"  horiz-adv-x="574" vert-adv-y="1000"  />

      
      <glyph glyph-name="uni68" unicode="&#x68;" d="M30 0L191 760L248 760L205 560Q198 524 188.50 486Q179 448 170 413L173 413Q191 441 219.50 471Q248 501 286.50 521.50Q325 542 373 542Q437 542 472.50 508Q508 474 508 408Q508 391 505.50 372.50Q503 354 499 334L428 0L371 0L443 341Q451 378 451 403Q451 493 359 493Q314 493 269.50 464Q225 435 190.50 381.50Q156 328 141 253L87 0L30 0Z"  horiz-adv-x="566" vert-adv-y="1000"  />

      
      <glyph glyph-name="uni69" unicode="&#x69;" d="M201 642Q185 642 175.50 651Q166 660 166 677Q166 696 177 712.50Q188 729 210 729Q228 729 236 719.50Q244 710 244 695Q244 673 231.50 657.50Q219 642 201 642M30 0L143 532L200 532L87 0L30 0Z"  horiz-adv-x="233" vert-adv-y="1000"  />

      
      <glyph glyph-name="uni6a" unicode="&#x6a;" d="M201 642Q185 642 175.50 651Q166 660 166 677Q166 696 177 712.50Q188 729 210 729Q228 729 236 719.50Q244 710 244 695Q244 673 231 657.50Q218 642 201 642M-75-240Q-91-240-107-237Q-123-234-134-230L-134-180Q-109-191-77-191Q-41-191-20-165.50Q1-140 11-92L143 532L200 532L66-98Q52-166 19.50-203Q-13-240-75-240Z"  horiz-adv-x="233" vert-adv-y="1000"  />

      
      <glyph glyph-name="uni6b" unicode="&#x6b;" d="M30 0L191 760L248 760L176 421Q162 356 151 313.50Q140 271 132 241L133 241L433 532L501 532L264 302L411 0L348 0L221 266L125 183L87 0L30 0Z"  horiz-adv-x="467" vert-adv-y="1000"  />

      
      <glyph glyph-name="uni6c" unicode="&#x6c;" d="M30 0L191 760L248 760L87 0L30 0Z"  horiz-adv-x="233" vert-adv-y="1000"  />

      
      <glyph glyph-name="uni6d" unicode="&#x6d;" d="M30 0L143 532L190 532L170 413L174 413Q190 441 216 471Q242 501 277.50 521.50Q313 542 359 542Q421 542 449 505.50Q477 469 479 408L481 408Q499 439 526.50 470Q554 501 591 521.50Q628 542 674 542Q734 542 767.50 508.50Q801 475 801 411Q801 392 798.50 373Q796 354 791 334L721 0L663 0L736 341Q744 378 744 405Q744 493 658 493Q617 493 576 463.50Q535 434 503.50 381.50Q472 329 458 259L403 0L346 0L417 333Q422 355 424 373.50Q426 392 426 405Q426 446 405 469.50Q384 493 343 493Q301 493 260.50 463.50Q220 434 188 380Q156 326 141 253L87 0L30 0Z"  horiz-adv-x="859" vert-adv-y="1000"  />

      
      <glyph glyph-name="uni6e" unicode="&#x6e;" d="M28 0L142 534L192 534L172 415L174 415Q191 443 219 472.50Q247 502 286 523Q325 544 373 544Q438 544 474 509.50Q510 475 510 411Q510 392 507 371.50Q504 351 500 334L429 0L369 0L441 341Q445 361 447.50 376Q450 391 450 405Q450 448 426.50 469.50Q403 491 359 491Q315 491 271 462.50Q227 434 192.50 380.50Q158 327 142 253L88 0L28 0Z"  horiz-adv-x="566" vert-adv-y="1000"  />

      
      <glyph glyph-name="uni6f" unicode="&#x6f;" d="M243-9Q150-9 101 47Q52 103 52 195Q52 265 70.50 327.50Q89 390 125 438Q161 486 211 513.50Q261 541 324 541Q414 541 463.50 484.50Q513 428 513 337Q513 271 495.50 209Q478 147 443.50 98Q409 49 358.50 20Q308-9 243-9M247 40Q308 40 355 78.50Q402 117 428.50 185.50Q455 254 455 343Q455 383 441 416.50Q427 450 398 471Q369 492 323 492Q260 492 212 453Q164 414 137 347Q110 280 110 194Q110 122 144.50 81Q179 40 247 40Z"  horiz-adv-x="564" vert-adv-y="1000"  />

      
      <glyph glyph-name="uni70" unicode="&#x70;" d="M-19-236L143 532L190 532L170 413L173 413Q194 445 223 474.50Q252 504 289 523Q326 542 371 542Q439 542 480.50 493Q522 444 522 356Q522 289 504.50 224Q487 159 453 106Q419 53 369 21.50Q319-10 254-10Q211-10 181.50 6Q152 22 134 47.50Q116 73 108 102L104 102Q101 76 95.50 44.50Q90 13 85-12L37-236L-19-236M251 39Q302 39 341.50 66.50Q381 94 408 140.50Q435 187 449 243Q463 299 463 357Q463 422 434.50 457.50Q406 493 354 493Q311 493 271 466Q231 439 199.50 393.50Q168 348 149.50 290.50Q131 233 131 171Q131 108 162.50 73.50Q194 39 251 39Z"  horiz-adv-x="574" vert-adv-y="1000"  />

      
      <glyph glyph-name="uni71" unicode="&#x71;" d="M368-13Q374 11 383.50 51Q393 91 401 122L398 122Q377 90 347 60Q317 30 279.50 10Q242-10 198-10Q127-10 88.50 39Q50 88 50 176Q50 242 67 307Q84 372 118.50 425.50Q153 479 203 510.50Q253 542 319 542Q361 542 390.50 525.50Q420 509 437.50 483.50Q455 458 463 430L467 430L497 532L541 532L378-236L321-236L368-13M214 39Q255 39 295 65.50Q335 92 368 138Q401 184 420.50 241.50Q440 299 440 361Q440 422 409 457.50Q378 493 321 493Q270 493 230.50 465Q191 437 163.50 391Q136 345 122 288.50Q108 232 108 175Q108 110 133.50 74.50Q159 39 214 39Z"  horiz-adv-x="574" vert-adv-y="1000"  />

      
      <glyph glyph-name="uni72" unicode="&#x72;" d="M30 0L143 532L190 532L171 413L174 413Q192 441 218 471Q244 501 277.50 521Q311 541 354 541Q387 541 412 534L400 482Q388 485 375 487Q362 489 348 489Q299 489 257 455.50Q215 422 184.50 369Q154 316 141 256L87 0L30 0Z"  horiz-adv-x="384" vert-adv-y="1000"  />

      
      <glyph glyph-name="uni73" unicode="&#x73;" d="M160-10Q109-10 71.50 1Q34 12 9 26L9 81Q36 65 75.50 52Q115 39 159 39Q229 39 262.50 67.50Q296 96 296 141Q296 181 268.50 203.50Q241 226 194 252Q140 282 107 312.50Q74 343 74 397Q74 467 124.50 504.50Q175 542 252 542Q300 542 338.50 532Q377 522 406 509L387 461Q361 473 327 483Q293 493 252 493Q199 493 165.50 469.50Q132 446 132 400Q132 364 157.50 342.50Q183 321 231 295Q264 277 292 257.50Q320 238 337 212Q354 186 354 146Q354 75 304 32.50Q254-10 160-10Z"  horiz-adv-x="428" vert-adv-y="1000"  />

      
      <glyph glyph-name="uni74" unicode="&#x74;" d="M166-10Q114-10 84 15Q54 40 54 95Q54 125 62 159L131 486L51 486L58 517L141 538L189 659L226 659L198 532L347 532L337 486L189 486L120 160Q116 145 114 129.50Q112 114 112 101Q112 72 126 55.50Q140 39 173 39Q194 39 211.50 42.50Q229 46 247 52L247 6Q233 0 211-5Q189-10 166-10Z"  horiz-adv-x="321" vert-adv-y="1000"  />

      
      <glyph glyph-name="uni75" unicode="&#x75;" d="M190-10Q127-10 91 23.50Q55 57 55 122Q55 140 57.50 159Q60 178 65 198L136 532L193 532L121 191Q113 154 113 128Q113 39 204 39Q249 39 293 68Q337 97 372 151Q407 205 423 280L477 532L533 532L420 0L373 0L393 119L389 119Q371 91 343 61Q315 31 276.50 10.50Q238-10 190-10Z"  horiz-adv-x="566" vert-adv-y="1000"  />

      
      <glyph glyph-name="uni76" unicode="&#x76;" d="M121 0L49 532L106 532L151 188Q155 152 158 113Q161 74 163 52L165 52Q180 82 198 120Q216 158 234 190L426 532L487 532L189 0L121 0Z"  horiz-adv-x="439" vert-adv-y="1000"  />

      
      <glyph glyph-name="uni77" unicode="&#x77;" d="M83 0L56 532L112 532L127 203Q128 157 128 121.50Q128 86 127 60L130 60Q140 87 155.50 121.50Q171 156 190 195L357 532L415 532L443 203Q445 165 446.50 128Q448 91 448 60L451 60Q461 90 476.50 128Q492 166 514 215L661 532L721 532L472 0L407 0L380 340Q377 372 376.50 401Q376 430 375 467L373 467Q359 435 347.50 408Q336 381 318 345L147 0L83 0Z"  horiz-adv-x="687" vert-adv-y="1000"  />

      
      <glyph glyph-name="uni78" unicode="&#x78;" d="M-35 0L201 275L83 532L142 532L238 315L423 532L490 532L263 272L390 0L331 0L225 231L32 0L-35 0Z"  horiz-adv-x="469" vert-adv-y="1000"  />

      
      <glyph glyph-name="uni79" unicode="&#x79;" d="M-41-241Q-62-241-76.50-238.50Q-91-236-104-231L-104-183Q-91-187-76.50-190Q-62-193-42-193Q-4-193 25-166.50Q54-140 84-86L134 0L49 532L106 532L153 222Q160 174 164 128Q168 82 170 55L172 55Q179 70 191 95.50Q203 121 217.50 150.50Q232 180 247 205L426 532L487 532L136-102Q98-170 58-205.50Q18-241-41-241Z"  horiz-adv-x="439" vert-adv-y="1000"  />

      
      <glyph glyph-name="uni7a" unicode="&#x7a;" d="M-14 0L-7 39L361 487L104 487L114 532L438 532L429 489L63 46L347 46L338 0L-14 0Z"  horiz-adv-x="441" vert-adv-y="1000"  />

      
      <glyph glyph-name="uni7b" unicode="&#x7b;" d="M208-158Q138-158 104.50-133.50Q71-109 71-53Q71-40 73-26Q75-12 79 5L109 142Q112 155 114 167.50Q116 180 116 190Q116 257 19 257L30 306Q89 306 121 330Q153 354 165 411L200 576Q216 650 258.50 682Q301 714 379 714L391 714L381 665Q327 665 296 644Q265 623 253 569L218 406Q207 355 181 322Q155 289 105 280L105 278Q138 268 153.50 245Q169 222 169 188Q169 176 166.50 162Q164 148 161 133L132-1Q126-29 126-46Q126-84 148.50-96.50Q171-109 219-109L219-158L208-158Z"  horiz-adv-x="339" vert-adv-y="1000"  />

      
      <glyph glyph-name="uni7c" unicode="&#x7c;" d="M271-241L271 760L320 760L320-241L271-241Z"  horiz-adv-x="543" vert-adv-y="1000"  />

      
      <glyph glyph-name="uni7d" unicode="&#x7d;" d="M-41-109Q15-109 47.50-88.50Q80-68 92-13L127 150Q138 201 164 234Q190 267 240 276L240 278Q177 297 177 367Q177 379 179 393Q181 407 184 422L214 557Q220 585 220 602Q220 640 195.50 652.50Q171 665 121 665L129 714L136 714Q206 714 240 689Q274 664 274 609Q274 596 272 581.50Q270 567 266 551L236 414Q233 400 231 388Q229 376 229 366Q229 299 325 299L315 250Q255 250 223.50 226Q192 202 180 145L145-20Q128-98 84.50-128Q41-158-37-158L-43-158L-41-109Z"  horiz-adv-x="339" vert-adv-y="1000"  />

      
      <glyph glyph-name="uni7e" unicode="&#x7e;" d="M296 331Q264 345 240.50 352.50Q217 360 189 360Q128 360 73 303L73 357Q122 408 192 408Q227 408 254 400Q281 392 319 375Q350 360 373.50 353Q397 346 423 346Q451 346 481 360Q511 374 538 403L538 350Q516 326 486.50 312Q457 298 421 298Q388 298 360.50 305.50Q333 313 296 331Z"  horiz-adv-x="571" vert-adv-y="1000"  />

      
      <glyph glyph-name="unia1" unicode="&#xa1;" d="M162 443Q125 443 125 480Q125 503 138 522Q151 541 178 541Q214 541 214 503Q214 482 201 462.50Q188 443 162 443M-7-182L119 343L160 343L60-182L-7-182Z"  horiz-adv-x="236" vert-adv-y="1000"  />

      
      <glyph glyph-name="unia2" unicode="&#xa2;" d="M251 94Q183 107 145 159Q107 211 107 289Q107 379 138 456Q169 533 226 582.50Q283 632 361 640L378 724L422 724L404 640Q434 639 462.50 633Q491 627 514 616L498 567Q475 578 445.50 585Q416 592 386 592Q321 592 271 551Q221 510 193.50 441.50Q166 373 166 290Q166 222 202.50 180Q239 138 305 138Q339 138 370.50 146Q402 154 434 169L434 120Q401 103 367 96Q333 89 294 89L274-10L229-10L251 94Z"  horiz-adv-x="551" vert-adv-y="1000"  />

      
      <glyph glyph-name="unia3" unicode="&#xa3;" d="M1 49Q52 59 88 95Q124 131 139 201L165 326L66 326L75 371L175 371L209 534Q230 633 283.50 678Q337 723 418 723Q465 723 503 711.50Q541 700 568 686L545 640Q521 651 489 662.50Q457 674 417 674Q359 674 320 640Q281 606 264 525L232 371L415 371L406 326L222 326L195 199Q181 134 155.50 101.50Q130 69 96 53L462 53L451 0L-8 0L1 49Z"  horiz-adv-x="551" vert-adv-y="1000"  />

      
      <glyph glyph-name="unia4" unicode="&#xa4;" d="M418 203Q366 161 298 161Q231 161 179 203L109 133L78 165L148 235Q106 286 106 354Q106 420 148 473L78 543L109 575L179 505Q231 547 298 547Q365 547 418 505L488 575L519 543L449 473Q469 448 480 417Q491 386 491 354Q491 286 449 234L519 164L488 133L418 203M298 206Q339 206 373 225.50Q407 245 427.50 279Q448 313 448 354Q448 395 427.50 429Q407 463 373.50 483Q340 503 299 503Q258 503 224 482.50Q190 462 170.50 428.50Q151 395 151 354Q151 312 170.50 278.50Q190 245 223.50 225.50Q257 206 298 206Z"  horiz-adv-x="561" vert-adv-y="1000"  />

      
      <glyph glyph-name="unia5" unicode="&#xa5;" d="M188 0L219 145L65 145L75 191L229 191L248 285L95 285L105 331L238 331L118 714L174 714L284 345L550 714L614 714L332 331L466 331L456 285L302 285L282 191L436 191L427 145L273 145L242 0L188 0Z"  horiz-adv-x="551" vert-adv-y="1000"  />

      
      <glyph glyph-name="unia6" unicode="&#xa6;" d="M271 387L271 760L320 760L320 387L271 387M271-240L271 133L320 133L320-240L271-240Z"  horiz-adv-x="543" vert-adv-y="1000"  />

      
      <glyph glyph-name="unia7" unicode="&#xa7;" d="M175-3Q126-3 88 7Q50 17 28 29L28 81Q56 66 95.50 54.50Q135 43 175 43Q246 43 285.50 68.50Q325 94 325 142Q325 176 296.50 195.50Q268 215 218 238Q185 253 156.50 271.50Q128 290 111 316.50Q94 343 94 381Q94 422 112.50 450Q131 478 160.50 496.50Q190 515 221 525Q193 539 172.50 563.50Q152 588 152 626Q152 670 176.50 700Q201 730 243 746Q285 762 336 762Q379 762 419 753Q459 744 488 731L469 687Q439 700 404 708.50Q369 717 336 717Q307 717 277 708.50Q247 700 227 680.50Q207 661 207 627Q207 596 233.50 576.50Q260 557 312 534Q344 520 372.50 503Q401 486 419.50 460.50Q438 435 438 397Q438 342 403.50 302.50Q369 263 324 239Q348 224 364 202Q380 180 380 147Q380 77 326 37Q272-3 175-3M288 261Q325 281 355 313Q385 345 385 390Q385 429 354.50 451.50Q324 474 261 501Q234 494 207.50 480Q181 466 163.50 443.50Q146 421 146 386Q146 357 161 337Q176 317 207.50 299.50Q239 282 288 261Z"  horiz-adv-x="492" vert-adv-y="1000"  />

      
      <glyph glyph-name="unia8" unicode="&#xa8;" d="M451 639Q420 639 420 671Q420 688 430 704Q440 720 461 720Q476 720 483.50 711.50Q491 703 491 689Q491 668 479.50 653.50Q468 639 451 639M273 639Q242 639 242 671Q242 688 252 704Q262 720 283 720Q299 720 306 711.50Q313 703 313 689Q313 668 302 653.50Q291 639 273 639Z"  horiz-adv-x="565" vert-adv-y="1000"  />

      
      <glyph glyph-name="unia9" unicode="&#xa9;" d="M416-9Q336-9 269 19Q202 47 153 96.50Q104 146 77 213Q50 280 50 357Q50 436 77.50 503Q105 570 155.50 619Q206 668 272.50 695.50Q339 723 416 723Q494 723 560.50 694.50Q627 666 677 615.50Q727 565 755 498.50Q783 432 783 357Q783 279 755 212.50Q727 146 677 96.50Q627 47 560.50 19Q494-9 416-9M416 30Q485 30 544 55Q603 80 647 125Q691 170 716 229.50Q741 289 741 357Q741 424 717 483Q693 542 649 587.50Q605 633 546 658.50Q487 684 416 684Q346 684 287 659.50Q228 635 183.50 590.50Q139 546 115 486.50Q91 427 91 357Q91 290 114.50 231Q138 172 181.50 126.50Q225 81 284.50 55.50Q344 30 416 30M433 138Q337 138 284.50 195Q232 252 232 357Q232 422 257 471.50Q282 521 328 548.50Q374 576 437 576Q474 576 504.50 568.50Q535 561 562 548L542 506Q518 518 492.50 524.50Q467 531 438 531Q368 531 326.50 484Q285 437 285 357Q285 271 324.50 227Q364 183 435 183Q464 183 491 188.50Q518 194 545 205L545 161Q520 150 494 144Q468 138 433 138Z"  horiz-adv-x="832" vert-adv-y="1000"  />

      
      <glyph glyph-name="uniaa" unicode="&#xaa;" d="M177 391Q138 391 112 418.50Q86 446 86 500Q86 559 106 609.50Q126 660 162 691Q198 722 245 722Q278 722 296.50 705.50Q315 689 323 666L326 666L343 716L376 716L309 396L275 396L285 460L283 460Q263 431 237.50 411Q212 391 177 391M187 430Q213 430 235 447Q257 464 273 491Q289 518 298 549.50Q307 581 307 609Q307 640 292 662Q277 684 245 684Q214 684 187.50 659Q161 634 145 593Q129 552 129 503Q129 468 144.50 449Q160 430 187 430Z"  horiz-adv-x="331" vert-adv-y="1000"  />

      
      <glyph glyph-name="uniab" unicode="&#xab;" d="M140 71L31 272L33 285L221 472L250 443L92 272L179 89L140 71M315 71L210 262L212 275L394 469L425 443L271 263L355 89L315 71Z"  horiz-adv-x="424" vert-adv-y="1000"  />

      
      <glyph glyph-name="uniac" unicode="&#xac;" d="M529 377L529 130L482 130L482 329L73 329L73 377L529 377Z"  horiz-adv-x="571" vert-adv-y="1000"  />

      
      <glyph glyph-name="uniad" unicode="&#xad;" d="M32 243L44 296L277 296L266 243L32 243Z"  horiz-adv-x="308" vert-adv-y="1000"  />

      
      <glyph glyph-name="uniae" unicode="&#xae;" d="M416-9Q336-9 269 19Q202 47 153 96.50Q104 146 77 213Q50 280 50 357Q50 436 77.50 503Q105 570 155.50 619Q206 668 272.50 695.50Q339 723 416 723Q494 723 560.50 694.50Q627 666 677 615.50Q727 565 755 498.50Q783 432 783 357Q783 279 755 212.50Q727 146 677 96.50Q627 47 560.50 19Q494-9 416-9M416 30Q485 30 544 55Q603 80 647 125Q691 170 716 229.50Q741 289 741 357Q741 424 717 483Q693 542 649 587.50Q605 633 546 658.50Q487 684 416 684Q346 684 287 659.50Q228 635 183.50 590.50Q139 546 115 486.50Q91 427 91 357Q91 290 114.50 231Q138 172 181.50 126.50Q225 81 284.50 55.50Q344 30 416 30M289 141L289 572L412 572Q483 572 522 541.50Q561 511 561 448Q561 400 535.50 371.50Q510 343 475 331L590 141L531 141L427 318L339 318L339 141L289 141M409 360Q453 360 481.50 382Q510 404 510 447Q510 490 483.50 509Q457 528 409 528L339 528L339 360L409 360Z"  horiz-adv-x="832" vert-adv-y="1000"  />

      
      <glyph glyph-name="uniaf" unicode="&#xaf;" d="M101 760L112 806L507 806L495 760L101 760Z"  horiz-adv-x="437" vert-adv-y="1000"  />

      
      <glyph glyph-name="unib0" unicode="&#xb0;" d="M214 429Q148 429 105.50 469.50Q63 510 63 577Q63 643 105 683.50Q147 724 214 724Q280 724 322.50 683Q365 642 365 577Q365 510 322.50 469.50Q280 429 214 429M214 471Q264 471 291.50 500.50Q319 530 319 577Q319 625 290.50 654Q262 683 214 683Q163 683 136 654Q109 625 109 577Q109 530 136 500.50Q163 471 214 471Z"  horiz-adv-x="428" vert-adv-y="1000"  />

      
      <glyph glyph-name="unib1" unicode="&#xb1;" d="M329 378L538 378L538 331L329 331L329 119L281 119L281 331L73 331L73 378L281 378L281 591L329 591L329 378M73 0L73 48L538 48L538 0L73 0Z"  horiz-adv-x="571" vert-adv-y="1000"  />

      
      <glyph glyph-name="unib2" unicode="&#xb2;" d="M61 416L69 454L205 570Q272 627 305.50 666Q339 705 339 750Q339 778 321.50 795.50Q304 813 272 813Q220 813 166 773L145 806Q206 854 279 854Q334 854 361 824.50Q388 795 388 756Q388 701 352 656Q316 611 245 553L133 459L343 459L334 416L61 416Z"  horiz-adv-x="333" vert-adv-y="1000"  />

      
      <glyph glyph-name="unib3" unicode="&#xb3;" d="M184 411Q151 411 122 418Q93 425 70 437L70 483Q96 469 125 460.50Q154 452 185 452Q241 452 273.50 477Q306 502 306 550Q306 620 210 620L164 620L172 660L219 660Q269 660 303.50 682.50Q338 705 338 748Q338 778 320 794.50Q302 811 268 811Q237 811 211 801.50Q185 792 159 776L140 811Q167 829 200.50 841Q234 853 275 853Q328 853 357 826Q386 799 386 756Q386 707 357.50 679Q329 651 287 641L287 638Q318 630 336 606Q354 582 354 549Q354 483 309 447Q264 411 184 411Z"  horiz-adv-x="333" vert-adv-y="1000"  />

      
      <glyph glyph-name="unib4" unicode="&#xb4;" d="M115 616Q135 635 158.50 662Q182 689 204 716.50Q226 744 240 766L305 766L305 758Q289 738 263 710Q237 682 208 654Q179 626 153 606L115 606L115 616Z"  horiz-adv-x="241" vert-adv-y="1000"  />

      
      <glyph glyph-name="uni03BC" unicode="&#x03BC;" d="M-19-236L144 532L201 532L129 193Q124 168 122 152Q120 136 120 125Q120 87 143 63Q166 39 211 39Q252 39 296 64.50Q340 90 376.50 144.50Q413 199 432 284L485 532L541 532L428 0L381 0L401 119L397 119Q378 89 350 59Q322 29 284.50 9.50Q247-10 199-10Q157-10 132.50 8.50Q108 27 97 55L94 55Q90 28 83-11.50Q76-51 69-86L37-236L-19-236Z"  horiz-adv-x="574" vert-adv-y="1000"  />

      
      <glyph glyph-name="unib6" unicode="&#xb6;" d="M366 314Q335 305 295 305Q207 305 158.50 362.50Q110 420 110 533Q110 653 162.50 706.50Q215 760 310 760L568 760L568-127L526-127L526 709L408 709L408-127L366-127L366 314Z"  horiz-adv-x="655" vert-adv-y="1000"  />

      
      <glyph glyph-name="unib7" unicode="&#xb7;" d="M126 284Q88 284 88 321Q88 344 101 363.50Q114 383 142 383Q177 383 177 345Q177 323 164 303.50Q151 284 126 284Z"  horiz-adv-x="233" vert-adv-y="1000"  />

      
      <glyph glyph-name="unib8" unicode="&#xb8;" d="M-35-240Q-65-240-85-234L-85-196Q-65-201-40-201Q-5-201 22-186Q49-171 49-136Q49-112 29-100Q9-88-27-86L21 0L62 0L30-61Q58-66 78.50-84Q99-102 99-136Q99-183 61-211.50Q23-240-35-240Z"  horiz-adv-x="199" vert-adv-y="1000"  />

      
      <glyph glyph-name="unib9" unicode="&#xb9;" d="M247 681Q253 708 261 739Q269 770 276 795Q262 786 248 776.50Q234 767 216 756L165 727L146 761L290 844L331 844L240 416L191 416L247 681Z"  horiz-adv-x="333" vert-adv-y="1000"  />

      
      <glyph glyph-name="uniba" unicode="&#xba;" d="M206 389Q154 389 122 422.50Q90 456 90 516Q90 572 110.50 619Q131 666 168.50 695Q206 724 257 724Q316 724 344 688.50Q372 653 372 599Q372 544 352.50 496Q333 448 296.50 418.50Q260 389 206 389M209 428Q246 428 273 451.50Q300 475 314.50 513.50Q329 552 329 596Q329 638 309.50 661.50Q290 685 255 685Q218 685 190.50 662Q163 639 148 601.50Q133 564 133 517Q133 475 153 451.50Q173 428 209 428Z"  horiz-adv-x="346" vert-adv-y="1000"  />

      
      <glyph glyph-name="unibb" unicode="&#xbb;" d="M206 71L177 100L334 270L247 454L287 472L395 270L394 257L206 71M32 74L1 100L156 278L72 454L111 472L216 280L215 266L32 74Z"  horiz-adv-x="424" vert-adv-y="1000"  />

      
      <glyph glyph-name="unibc" unicode="&#xbc;" d="M81 0L611 714L668 714L137 0L81 0M217 552Q223 579 231 610Q239 641 246 666Q232 657 218 647.50Q204 638 186 627L135 598L116 632L260 715L301 715L210 287L161 287L217 552M522 1L545 108L358 108L367 148L613 432L661 432L601 150L665 150L656 108L592 108L569 1L522 1M419 150L554 150L577 256Q583 284 589.50 314Q596 344 602 368Q594 354 573.50 329.50Q553 305 536 285L419 150Z"  horiz-adv-x="702" vert-adv-y="1000"  />

      
      <glyph glyph-name="unibd" unicode="&#xbd;" d="M78 0L608 714L665 714L134 0L78 0M217 552Q223 579 231 610Q239 641 246 666Q232 657 218 647.50Q204 638 186 627L135 598L116 632L260 715L301 715L210 287L161 287L217 552M404 1L412 39L548 155Q615 212 648.50 251Q682 290 682 335Q682 363 664.50 380.50Q647 398 615 398Q563 398 509 358L488 391Q549 439 622 439Q677 439 704 409.50Q731 380 731 341Q731 286 695 241Q659 196 588 138L476 44L686 44L677 1L404 1Z"  horiz-adv-x="759" vert-adv-y="1000"  />

      
      <glyph glyph-name="unibe" unicode="&#xbe;" d="M152 280Q119 280 90 287Q61 294 38 306L38 352Q64 338 93 329.50Q122 321 153 321Q209 321 241.50 346Q274 371 274 419Q274 489 178 489L132 489L140 529L187 529Q237 529 271.50 551.50Q306 574 306 617Q306 647 288 663.50Q270 680 236 680Q205 680 179 670.50Q153 661 127 645L108 680Q135 698 168.50 710Q202 722 243 722Q296 722 325 695Q354 668 354 625Q354 576 325.50 548Q297 520 255 510L255 507Q286 499 304 475Q322 451 322 418Q322 352 277 316Q232 280 152 280M131 0L661 714L718 714L187 0L131 0M561 1L584 108L397 108L406 148L652 432L700 432L640 150L704 150L695 108L631 108L608 1L561 1M458 150L593 150L616 256Q622 284 628.50 314Q635 344 641 368Q633 354 612.50 329.50Q592 305 575 285L458 150Z"  horiz-adv-x="740" vert-adv-y="1000"  />

      
      <glyph glyph-name="unibf" unicode="&#xbf;" d="M301 344Q293 294 277 261Q261 228 235.50 202Q210 176 174 148Q141 123 111.50 98.50Q82 74 63.50 43.50Q45 13 45-31Q45-82 75-112Q105-142 158-142Q192-142 226.50-131.50Q261-121 296-105L317-150Q231-192 153-192Q77-192 32-150.50Q-13-109-13-37Q-13 12 5.50 48.50Q24 85 57 116Q90 147 134 179Q169 205 192.50 226.50Q216 248 230.50 275Q245 302 253 344L301 344M308 543Q346 543 346 506Q346 483 333 463.50Q320 444 292 444Q257 444 257 482Q257 504 270 523.50Q283 543 308 543Z"  horiz-adv-x="417" vert-adv-y="1000"  />

      
      <glyph glyph-name="unic0" unicode="&#xc0;" d="M-53 0L350 715L409 715L506 0L449 0L415 247L148 247L11 0L-53 0M176 299L409 299L379 523Q376 552 372.50 586Q369 620 368 650L365 650Q351 619 334.50 586.50Q318 554 301 521L176 299M399 788Q382 807 361.50 834.50Q341 862 323 890.50Q305 919 296 938L296 948L357 948Q370 911 392.50 870Q415 829 434 800L434 788L399 788Z"  horiz-adv-x="555" vert-adv-y="1000"  />

      
      <glyph glyph-name="unic1" unicode="&#xc1;" d="M-53 0L350 715L409 715L506 0L449 0L415 247L148 247L11 0L-53 0M176 299L409 299L379 523Q376 552 372.50 586Q369 620 368 650L365 650Q351 619 334.50 586.50Q318 554 301 521L176 299M351 798Q371 817 394.50 844Q418 871 440 898.50Q462 926 476 948L541 948L541 940Q525 920 499 892Q473 864 444 836Q415 808 389 788L351 788L351 798Z"  horiz-adv-x="555" vert-adv-y="1000"  />

      
      <glyph glyph-name="unic2" unicode="&#xc2;" d="M-53 0L350 715L409 715L506 0L449 0L415 247L148 247L11 0L-53 0M176 299L409 299L379 523Q376 552 372.50 586Q369 620 368 650L365 650Q351 619 334.50 586.50Q318 554 301 521L176 299M248 798Q267 816 294 842.50Q321 869 347 897Q373 925 388 947L442 947Q454 912 478 870Q502 828 522 798L521 788L485 788Q465 810 445 839Q425 868 409 896Q380 868 348 839.50Q316 811 288 788L247 788L248 798Z"  horiz-adv-x="555" vert-adv-y="1000"  />

      
      <glyph glyph-name="unic3" unicode="&#xc3;" d="M-53 0L350 715L409 715L506 0L449 0L415 247L148 247L11 0L-53 0M176 299L409 299L379 523Q376 552 372.50 586Q369 620 368 650L365 650Q351 619 334.50 586.50Q318 554 301 521L176 299M230 794Q243 850 268.50 878.50Q294 907 336 907Q358 907 377 897.50Q396 888 412.50 875Q429 862 444 852.50Q459 843 474 843Q495 843 510.50 856.50Q526 870 539 908L579 908Q564 853 538 823.50Q512 794 470 794Q449 794 431.50 803.50Q414 813 397.50 826Q381 839 365 849Q349 859 332 859Q311 859 296 844.50Q281 830 269 794L230 794Z"  horiz-adv-x="555" vert-adv-y="1000"  />

      
      <glyph glyph-name="unic4" unicode="&#xc4;" d="M-53 0L350 715L409 715L506 0L449 0L415 247L148 247L11 0L-53 0M176 299L409 299L379 523Q376 552 372.50 586Q369 620 368 650L365 650Q351 619 334.50 586.50Q318 554 301 521L176 299M485 821Q454 821 454 853Q454 870 464 886Q474 902 495 902Q510 902 517.50 893.50Q525 885 525 871Q525 850 513.50 835.50Q502 821 485 821M307 821Q276 821 276 853Q276 870 286 886Q296 902 317 902Q333 902 340 893.50Q347 885 347 871Q347 850 336 835.50Q325 821 307 821Z"  horiz-adv-x="555" vert-adv-y="1000"  />

      
      <glyph glyph-name="unic5" unicode="&#xc5;" d="M-53 0L350 715L409 715L506 0L449 0L415 247L148 247L11 0L-53 0M176 299L409 299L379 523Q376 552 372.50 586Q369 620 368 650L365 650Q351 619 334.50 586.50Q318 554 301 521L176 299M394 740Q349 740 319 767Q289 794 289 842Q289 888 320 916Q351 944 394 944Q438 944 468 916Q498 888 498 843Q498 795 467.50 767.50Q437 740 394 740M394 777Q423 777 441.50 795.50Q460 814 460 842Q460 871 440.50 889.50Q421 908 394 908Q365 908 346.50 889.50Q328 871 328 842Q328 814 346 795.50Q364 777 394 777Z"  horiz-adv-x="555" vert-adv-y="1000"  />

      
      <glyph glyph-name="unic6" unicode="&#xc6;" d="M-54 0L395 714L841 714L830 662L523 662L467 401L756 401L746 349L457 349L394 52L701 52L690 0L324 0L376 246L165 246L13 0L-54 0M198 299L387 299L464 662L424 662L198 299Z"  horiz-adv-x="804" vert-adv-y="1000"  />

      
      <glyph glyph-name="unic7" unicode="&#xc7;" d="M326-10Q209-10 143.50 64.50Q78 139 78 266Q78 357 104.50 439.50Q131 522 181.50 586Q232 650 303.50 687Q375 724 465 724Q561 724 633 686L609 636Q577 654 541.50 663Q506 672 465 672Q389 672 328.50 640Q268 608 225.50 551.50Q183 495 161 422Q139 349 139 268Q139 163 191 102.50Q243 42 335 42Q381 42 422 50.50Q463 59 500 71L500 21Q464 7 422-1.50Q380-10 326-10M233-240Q203-240 183-234L183-196Q203-201 228-201Q263-201 290-186Q317-171 317-136Q317-112 297-100Q277-88 241-86L289 0L330 0L298-61Q326-66 346.50-84Q367-102 367-136Q367-183 329-211.50Q291-240 233-240Z"  horiz-adv-x="591" vert-adv-y="1000"  />

      
      <glyph glyph-name="unic8" unicode="&#xc8;" d="M46 0L197 714L557 714L546 662L244 662L188 401L472 401L462 349L178 349L114 52L417 52L406 0L46 0M398 788Q381 807 360.50 834.50Q340 862 322 890.50Q304 919 295 938L295 948L356 948Q369 911 391.50 870Q414 829 433 800L433 788L398 788Z"  horiz-adv-x="525" vert-adv-y="1000"  />

      
      <glyph glyph-name="unic9" unicode="&#xc9;" d="M46 0L197 714L557 714L546 662L244 662L188 401L472 401L462 349L178 349L114 52L417 52L406 0L46 0M346 798Q366 817 389.50 844Q413 871 435 898.50Q457 926 471 948L536 948L536 940Q520 920 494 892Q468 864 439 836Q410 808 384 788L346 788L346 798Z"  horiz-adv-x="525" vert-adv-y="1000"  />

      
      <glyph glyph-name="unica" unicode="&#xca;" d="M46 0L197 714L557 714L546 662L244 662L188 401L472 401L462 349L178 349L114 52L417 52L406 0L46 0M250 798Q269 816 296 842.50Q323 869 349 897Q375 925 390 947L444 947Q456 912 480 870Q504 828 524 798L523 788L487 788Q467 810 447 839Q427 868 411 896Q382 868 350 839.50Q318 811 290 788L249 788L250 798Z"  horiz-adv-x="525" vert-adv-y="1000"  />

      
      <glyph glyph-name="unicb" unicode="&#xcb;" d="M46 0L197 714L557 714L546 662L244 662L188 401L472 401L462 349L178 349L114 52L417 52L406 0L46 0M490 821Q459 821 459 853Q459 870 469 886Q479 902 500 902Q515 902 522.50 893.50Q530 885 530 871Q530 850 518.50 835.50Q507 821 490 821M312 821Q281 821 281 853Q281 870 291 886Q301 902 322 902Q338 902 345 893.50Q352 885 352 871Q352 850 341 835.50Q330 821 312 821Z"  horiz-adv-x="525" vert-adv-y="1000"  />

      
      <glyph glyph-name="unicc" unicode="&#xcc;" d="M-6 0L1 35L77 46L209 668L138 679L145 714L349 714L342 679L266 668L134 46L205 35L198 0L-6 0M273 788Q256 807 235.50 834.50Q215 862 197 890.50Q179 919 170 938L170 948L231 948Q244 911 266.50 870Q289 829 308 800L308 788L273 788Z"  horiz-adv-x="302" vert-adv-y="1000"  />

      
      <glyph glyph-name="unicd" unicode="&#xcd;" d="M-6 0L1 35L77 46L209 668L138 679L145 714L349 714L342 679L266 668L134 46L205 35L198 0L-6 0M220 798Q240 817 263.50 844Q287 871 309 898.50Q331 926 345 948L410 948L410 940Q394 920 368 892Q342 864 313 836Q284 808 258 788L220 788L220 798Z"  horiz-adv-x="302" vert-adv-y="1000"  />

      
      <glyph glyph-name="unice" unicode="&#xce;" d="M-6 0L1 35L77 46L209 668L138 679L145 714L349 714L342 679L266 668L134 46L205 35L198 0L-6 0M117 798Q136 816 163 842.50Q190 869 216 897Q242 925 257 947L311 947Q323 912 347 870Q371 828 391 798L390 788L354 788Q334 810 314 839Q294 868 278 896Q249 868 217 839.50Q185 811 157 788L116 788L117 798Z"  horiz-adv-x="302" vert-adv-y="1000"  />

      
      <glyph glyph-name="unicf" unicode="&#xcf;" d="M-6 0L1 35L77 46L209 668L138 679L145 714L349 714L342 679L266 668L134 46L205 35L198 0L-6 0M356 821Q325 821 325 853Q325 870 335 886Q345 902 366 902Q381 902 388.50 893.50Q396 885 396 871Q396 850 384.50 835.50Q373 821 356 821M178 821Q147 821 147 853Q147 870 157 886Q167 902 188 902Q204 902 211 893.50Q218 885 218 871Q218 850 207 835.50Q196 821 178 821Z"  horiz-adv-x="302" vert-adv-y="1000"  />

      
      <glyph glyph-name="unid0" unicode="&#xd0;" d="M46 0L115 329L39 329L50 380L126 380L197 714L354 714Q486 714 561.50 643.50Q637 573 637 427Q637 339 609.50 262Q582 185 528.50 126Q475 67 394.50 33.50Q314 0 207 0L46 0M210 51Q299 51 367.50 80.50Q436 110 482.50 162Q529 214 552.50 282Q576 350 576 428Q576 550 514 606.50Q452 663 343 663L244 663L184 380L360 380L349 329L173 329L114 51L210 51Z"  horiz-adv-x="672" vert-adv-y="1000"  />

      
      <glyph glyph-name="unid1" unicode="&#xd1;" d="M45 0L196 714L253 714L504 89L507 89Q513 127 521.50 175Q530 223 540 266L635 714L691 714L540 0L482 0L231 626L228 626Q222 588 213.50 540Q205 492 195 445L101 0L45 0M304 794Q317 850 342.50 878.50Q368 907 410 907Q432 907 451 897.50Q470 888 486.50 875Q503 862 518 852.50Q533 843 548 843Q569 843 584.50 856.50Q600 870 613 908L653 908Q638 853 612 823.50Q586 794 544 794Q523 794 505.50 803.50Q488 813 471.50 826Q455 839 439 849Q423 859 406 859Q385 859 370 844.50Q355 830 343 794L304 794Z"  horiz-adv-x="691" vert-adv-y="1000"  />

      
      <glyph glyph-name="unid2" unicode="&#xd2;" d="M336-10Q247-10 190 26.50Q133 63 105.50 126.50Q78 190 78 272Q78 359 100.50 440Q123 521 168 585.50Q213 650 279 687.50Q345 725 432 725Q548 725 615.50 653.50Q683 582 683 445Q683 385 671 321Q659 257 633 198Q607 139 566 92Q525 45 468 17.50Q411-10 336-10M338 42Q412 42 465.50 79Q519 116 554 176.50Q589 237 605.50 307.50Q622 378 622 446Q622 552 572.50 612.50Q523 673 428 673Q354 673 299.50 638Q245 603 209.50 544.50Q174 486 156.50 415Q139 344 139 273Q139 168 188.50 105Q238 42 338 42M472 788Q455 807 434.50 834.50Q414 862 396 890.50Q378 919 369 938L369 948L430 948Q443 911 465.50 870Q488 829 507 800L507 788L472 788Z"  horiz-adv-x="719" vert-adv-y="1000"  />

      
      <glyph glyph-name="unid3" unicode="&#xd3;" d="M336-10Q247-10 190 26.50Q133 63 105.50 126.50Q78 190 78 272Q78 359 100.50 440Q123 521 168 585.50Q213 650 279 687.50Q345 725 432 725Q548 725 615.50 653.50Q683 582 683 445Q683 385 671 321Q659 257 633 198Q607 139 566 92Q525 45 468 17.50Q411-10 336-10M338 42Q412 42 465.50 79Q519 116 554 176.50Q589 237 605.50 307.50Q622 378 622 446Q622 552 572.50 612.50Q523 673 428 673Q354 673 299.50 638Q245 603 209.50 544.50Q174 486 156.50 415Q139 344 139 273Q139 168 188.50 105Q238 42 338 42M419 798Q439 817 462.50 844Q486 871 508 898.50Q530 926 544 948L609 948L609 940Q593 920 567 892Q541 864 512 836Q483 808 457 788L419 788L419 798Z"  horiz-adv-x="719" vert-adv-y="1000"  />

      
      <glyph glyph-name="unid4" unicode="&#xd4;" d="M336-10Q247-10 190 26.50Q133 63 105.50 126.50Q78 190 78 272Q78 359 100.50 440Q123 521 168 585.50Q213 650 279 687.50Q345 725 432 725Q548 725 615.50 653.50Q683 582 683 445Q683 385 671 321Q659 257 633 198Q607 139 566 92Q525 45 468 17.50Q411-10 336-10M338 42Q412 42 465.50 79Q519 116 554 176.50Q589 237 605.50 307.50Q622 378 622 446Q622 552 572.50 612.50Q523 673 428 673Q354 673 299.50 638Q245 603 209.50 544.50Q174 486 156.50 415Q139 344 139 273Q139 168 188.50 105Q238 42 338 42M317 798Q336 816 363 842.50Q390 869 416 897Q442 925 457 947L511 947Q523 912 547 870Q571 828 591 798L590 788L554 788Q534 810 514 839Q494 868 478 896Q449 868 417 839.50Q385 811 357 788L316 788L317 798Z"  horiz-adv-x="719" vert-adv-y="1000"  />

      
      <glyph glyph-name="unid5" unicode="&#xd5;" d="M336-10Q247-10 190 26.50Q133 63 105.50 126.50Q78 190 78 272Q78 359 100.50 440Q123 521 168 585.50Q213 650 279 687.50Q345 725 432 725Q548 725 615.50 653.50Q683 582 683 445Q683 385 671 321Q659 257 633 198Q607 139 566 92Q525 45 468 17.50Q411-10 336-10M338 42Q412 42 465.50 79Q519 116 554 176.50Q589 237 605.50 307.50Q622 378 622 446Q622 552 572.50 612.50Q523 673 428 673Q354 673 299.50 638Q245 603 209.50 544.50Q174 486 156.50 415Q139 344 139 273Q139 168 188.50 105Q238 42 338 42M301 794Q314 850 339.50 878.50Q365 907 407 907Q429 907 448 897.50Q467 888 483.50 875Q500 862 515 852.50Q530 843 545 843Q566 843 581.50 856.50Q597 870 610 908L650 908Q635 853 609 823.50Q583 794 541 794Q520 794 502.50 803.50Q485 813 468.50 826Q452 839 436 849Q420 859 403 859Q382 859 367 844.50Q352 830 340 794L301 794Z"  horiz-adv-x="719" vert-adv-y="1000"  />

      
      <glyph glyph-name="unid6" unicode="&#xd6;" d="M336-10Q247-10 190 26.50Q133 63 105.50 126.50Q78 190 78 272Q78 359 100.50 440Q123 521 168 585.50Q213 650 279 687.50Q345 725 432 725Q548 725 615.50 653.50Q683 582 683 445Q683 385 671 321Q659 257 633 198Q607 139 566 92Q525 45 468 17.50Q411-10 336-10M338 42Q412 42 465.50 79Q519 116 554 176.50Q589 237 605.50 307.50Q622 378 622 446Q622 552 572.50 612.50Q523 673 428 673Q354 673 299.50 638Q245 603 209.50 544.50Q174 486 156.50 415Q139 344 139 273Q139 168 188.50 105Q238 42 338 42M557 821Q526 821 526 853Q526 870 536 886Q546 902 567 902Q582 902 589.50 893.50Q597 885 597 871Q597 850 585.50 835.50Q574 821 557 821M379 821Q348 821 348 853Q348 870 358 886Q368 902 389 902Q405 902 412 893.50Q419 885 419 871Q419 850 408 835.50Q397 821 379 821Z"  horiz-adv-x="719" vert-adv-y="1000"  />

      
      <glyph glyph-name="unid7" unicode="&#xd7;" d="M489 571L523 537L339 353L522 170L489 136L305 319L123 136L88 170L271 353L88 536L122 571L305 387L489 571Z"  horiz-adv-x="571" vert-adv-y="1000"  />

      
      <glyph glyph-name="unid8" unicode="&#xd8;" d="M79-33L42-1L124 93Q100 129 89 174.50Q78 220 78 272Q78 359 100.50 440Q123 521 168 585.50Q213 650 279 687.50Q345 725 432 725Q542 725 607 658L683 746L721 715L639 620Q683 555 683 445Q683 385 671 321Q659 257 633 198Q607 139 566 92Q525 45 468 17.50Q411-10 336-10Q276-10 232 7.50Q188 25 157 57L79-33M570 615Q546 643 510.50 658.50Q475 674 428 674Q354 674 299.50 638.50Q245 603 209 544.50Q173 486 156 415Q139 344 139 273Q139 195 164 142L570 615M338 42Q412 42 466 79Q520 116 554.50 176.50Q589 237 606 307.50Q623 378 623 446Q623 520 599 570L193 100Q216 73 252.50 57.50Q289 42 338 42Z"  horiz-adv-x="719" vert-adv-y="1000"  />

      
      <glyph glyph-name="unid9" unicode="&#xd9;" d="M300-10Q196-10 140 40.50Q84 91 84 186Q84 219 94 269L189 714L247 714L152 267Q142 223 142 187Q142 117 184.50 79.50Q227 42 303 42Q398 42 454.50 95Q511 148 534 254L633 714L691 714L592 248Q565 120 493 55Q421-10 300-10M463 788Q446 807 425.50 834.50Q405 862 387 890.50Q369 919 360 938L360 948L421 948Q434 911 456.50 870Q479 829 498 800L498 788L463 788Z"  horiz-adv-x="685" vert-adv-y="1000"  />

      
      <glyph glyph-name="unida" unicode="&#xda;" d="M300-10Q196-10 140 40.50Q84 91 84 186Q84 219 94 269L189 714L247 714L152 267Q142 223 142 187Q142 117 184.50 79.50Q227 42 303 42Q398 42 454.50 95Q511 148 534 254L633 714L691 714L592 248Q565 120 493 55Q421-10 300-10M406 798Q426 817 449.50 844Q473 871 495 898.50Q517 926 531 948L596 948L596 940Q580 920 554 892Q528 864 499 836Q470 808 444 788L406 788L406 798Z"  horiz-adv-x="685" vert-adv-y="1000"  />

      
      <glyph glyph-name="unidb" unicode="&#xdb;" d="M300-10Q196-10 140 40.50Q84 91 84 186Q84 219 94 269L189 714L247 714L152 267Q142 223 142 187Q142 117 184.50 79.50Q227 42 303 42Q398 42 454.50 95Q511 148 534 254L633 714L691 714L592 248Q565 120 493 55Q421-10 300-10M306 798Q325 816 352 842.50Q379 869 405 897Q431 925 446 947L500 947Q512 912 536 870Q560 828 580 798L579 788L543 788Q523 810 503 839Q483 868 467 896Q438 868 406 839.50Q374 811 346 788L305 788L306 798Z"  horiz-adv-x="685" vert-adv-y="1000"  />

      
      <glyph glyph-name="unidc" unicode="&#xdc;" d="M300-10Q196-10 140 40.50Q84 91 84 186Q84 219 94 269L189 714L247 714L152 267Q142 223 142 187Q142 117 184.50 79.50Q227 42 303 42Q398 42 454.50 95Q511 148 534 254L633 714L691 714L592 248Q565 120 493 55Q421-10 300-10M545 821Q514 821 514 853Q514 870 524 886Q534 902 555 902Q570 902 577.50 893.50Q585 885 585 871Q585 850 573.50 835.50Q562 821 545 821M367 821Q336 821 336 853Q336 870 346 886Q356 902 377 902Q393 902 400 893.50Q407 885 407 871Q407 850 396 835.50Q385 821 367 821Z"  horiz-adv-x="685" vert-adv-y="1000"  />

      
      <glyph glyph-name="unidd" unicode="&#xdd;" d="M162 0L220 270L94 714L152 714L258 329L524 714L590 714L277 270L221 0L162 0M314 798Q334 817 357.50 844Q381 871 403 898.50Q425 926 439 948L504 948L504 940Q488 920 462 892Q436 864 407 836Q378 808 352 788L314 788L314 798Z"  horiz-adv-x="497" vert-adv-y="1000"  />

      
      <glyph glyph-name="unide" unicode="&#xde;" d="M46 0L197 714L255 714L228 586L328 586Q435 586 485.50 539.50Q536 493 536 412Q536 324 497 269Q458 214 389 189Q320 164 229 164L138 164L104 0L46 0M238 215Q306 215 360 233.50Q414 252 445.50 295Q477 338 477 410Q477 535 319 535L217 535L149 215L238 215Z"  horiz-adv-x="563" vert-adv-y="1000"  />

      
      <glyph glyph-name="unidf" unicode="&#xdf;" d="M-76-240Q-94-240-109-237Q-124-234-134-230L-134-179Q-111-190-79-190Q-10-190 11-92L150 567Q171 666 224.50 715.50Q278 765 371 765Q445 765 486 731Q527 697 527 640Q527 600 512 573.50Q497 547 474 528Q451 509 427 492Q395 471 370.50 449Q346 427 346 391Q346 365 368.50 345Q391 325 411 308Q443 279 466 247.50Q489 216 489 168Q489 82 436.50 36Q384-10 298-10Q253-10 221-1Q189 8 168 21L168 76Q192 60 224.50 49.50Q257 39 292 39Q359 39 394.50 72.50Q430 106 430 163Q430 199 413 223Q396 247 368 272Q333 301 311.50 327.50Q290 354 290 389Q290 424 303.50 448Q317 472 338.50 489Q360 506 384 521Q417 542 443.50 567Q470 592 470 637Q470 673 442.50 695Q415 717 367 717Q297 717 259.50 678Q222 639 207 567L68-91Q53-163 17.50-201.50Q-18-240-76-240Z"  horiz-adv-x="558" vert-adv-y="1000"  />

      
      <glyph glyph-name="unie0" unicode="&#xe0;" d="M195-10Q127-10 88.50 39Q50 88 50 176Q50 244 68 309Q86 374 120.50 426.50Q155 479 204 510.50Q253 542 315 542Q356 542 384 525Q412 508 428.50 482.50Q445 457 453 430L457 430L486 532L531 532L418 0L372 0L392 119L389 119Q369 89 340 59Q311 29 274 9.50Q237-10 195-10M211 39Q252 39 294 69Q336 99 369 150Q402 201 417 265Q423 295 426 318.50Q429 342 429 362Q429 422 399.50 457.50Q370 493 319 493Q270 493 231 465.50Q192 438 164.50 392.50Q137 347 122.50 290.50Q108 234 108 175Q108 110 134 74.50Q160 39 211 39M369 606Q352 625 331.50 652.50Q311 680 293 708.50Q275 737 266 756L266 766L327 766Q340 729 362.50 688Q385 647 404 618L404 606L369 606Z"  horiz-adv-x="558" vert-adv-y="1000"  />

      
      <glyph glyph-name="unie1" unicode="&#xe1;" d="M195-10Q127-10 88.50 39Q50 88 50 176Q50 244 68 309Q86 374 120.50 426.50Q155 479 204 510.50Q253 542 315 542Q356 542 384 525Q412 508 428.50 482.50Q445 457 453 430L457 430L486 532L531 532L418 0L372 0L392 119L389 119Q369 89 340 59Q311 29 274 9.50Q237-10 195-10M211 39Q252 39 294 69Q336 99 369 150Q402 201 417 265Q423 295 426 318.50Q429 342 429 362Q429 422 399.50 457.50Q370 493 319 493Q270 493 231 465.50Q192 438 164.50 392.50Q137 347 122.50 290.50Q108 234 108 175Q108 110 134 74.50Q160 39 211 39M306 616Q326 635 349.50 662Q373 689 395 716.50Q417 744 431 766L496 766L496 758Q480 738 454 710Q428 682 399 654Q370 626 344 606L306 606L306 616Z"  horiz-adv-x="558" vert-adv-y="1000"  />

      
      <glyph glyph-name="unie2" unicode="&#xe2;" d="M195-10Q127-10 88.50 39Q50 88 50 176Q50 244 68 309Q86 374 120.50 426.50Q155 479 204 510.50Q253 542 315 542Q356 542 384 525Q412 508 428.50 482.50Q445 457 453 430L457 430L486 532L531 532L418 0L372 0L392 119L389 119Q369 89 340 59Q311 29 274 9.50Q237-10 195-10M211 39Q252 39 294 69Q336 99 369 150Q402 201 417 265Q423 295 426 318.50Q429 342 429 362Q429 422 399.50 457.50Q370 493 319 493Q270 493 231 465.50Q192 438 164.50 392.50Q137 347 122.50 290.50Q108 234 108 175Q108 110 134 74.50Q160 39 211 39M210 616Q229 634 256 660.50Q283 687 309 715Q335 743 350 765L404 765Q416 730 440 688Q464 646 484 616L483 606L447 606Q427 628 407 657Q387 686 371 714Q342 686 310 657.50Q278 629 250 606L209 606L210 616Z"  horiz-adv-x="558" vert-adv-y="1000"  />

      
      <glyph glyph-name="unie3" unicode="&#xe3;" d="M195-10Q127-10 88.50 39Q50 88 50 176Q50 244 68 309Q86 374 120.50 426.50Q155 479 204 510.50Q253 542 315 542Q356 542 384 525Q412 508 428.50 482.50Q445 457 453 430L457 430L486 532L531 532L418 0L372 0L392 119L389 119Q369 89 340 59Q311 29 274 9.50Q237-10 195-10M211 39Q252 39 294 69Q336 99 369 150Q402 201 417 265Q423 295 426 318.50Q429 342 429 362Q429 422 399.50 457.50Q370 493 319 493Q270 493 231 465.50Q192 438 164.50 392.50Q137 347 122.50 290.50Q108 234 108 175Q108 110 134 74.50Q160 39 211 39M184 612Q197 668 222.50 696.50Q248 725 290 725Q312 725 331 715.50Q350 706 366.50 693Q383 680 398 670.50Q413 661 428 661Q449 661 464.50 674.50Q480 688 493 726L533 726Q518 671 492 641.50Q466 612 424 612Q403 612 385.50 621.50Q368 631 351.50 644Q335 657 319 667Q303 677 286 677Q265 677 250 662.50Q235 648 223 612L184 612Z"  horiz-adv-x="558" vert-adv-y="1000"  />

      
      <glyph glyph-name="unie4" unicode="&#xe4;" d="M195-10Q127-10 88.50 39Q50 88 50 176Q50 244 68 309Q86 374 120.50 426.50Q155 479 204 510.50Q253 542 315 542Q356 542 384 525Q412 508 428.50 482.50Q445 457 453 430L457 430L486 532L531 532L418 0L372 0L392 119L389 119Q369 89 340 59Q311 29 274 9.50Q237-10 195-10M211 39Q252 39 294 69Q336 99 369 150Q402 201 417 265Q423 295 426 318.50Q429 342 429 362Q429 422 399.50 457.50Q370 493 319 493Q270 493 231 465.50Q192 438 164.50 392.50Q137 347 122.50 290.50Q108 234 108 175Q108 110 134 74.50Q160 39 211 39M449 639Q418 639 418 671Q418 688 428 704Q438 720 459 720Q474 720 481.50 711.50Q489 703 489 689Q489 668 477.50 653.50Q466 639 449 639M271 639Q240 639 240 671Q240 688 250 704Q260 720 281 720Q297 720 304 711.50Q311 703 311 689Q311 668 300 653.50Q289 639 271 639Z"  horiz-adv-x="558" vert-adv-y="1000"  />

      
      <glyph glyph-name="unie5" unicode="&#xe5;" d="M195-10Q127-10 88.50 39Q50 88 50 176Q50 244 68 309Q86 374 120.50 426.50Q155 479 204 510.50Q253 542 315 542Q356 542 384 525Q412 508 428.50 482.50Q445 457 453 430L457 430L486 532L531 532L418 0L372 0L392 119L389 119Q369 89 340 59Q311 29 274 9.50Q237-10 195-10M211 39Q252 39 294 69Q336 99 369 150Q402 201 417 265Q423 295 426 318.50Q429 342 429 362Q429 422 399.50 457.50Q370 493 319 493Q270 493 231 465.50Q192 438 164.50 392.50Q137 347 122.50 290.50Q108 234 108 175Q108 110 134 74.50Q160 39 211 39M358 609Q313 609 283 636Q253 663 253 711Q253 757 284 785Q315 813 358 813Q402 813 432 785Q462 757 462 712Q462 664 431.50 636.50Q401 609 358 609M358 646Q387 646 405.50 664.50Q424 683 424 711Q424 740 404.50 758.50Q385 777 358 777Q329 777 310.50 758.50Q292 740 292 711Q292 683 310 664.50Q328 646 358 646Z"  horiz-adv-x="558" vert-adv-y="1000"  />

      
      <glyph glyph-name="unie6" unicode="&#xe6;" d="M186-10Q123-10 86.50 39Q50 88 50 175Q50 243 68 308.50Q86 374 119.50 427Q153 480 201 511Q249 542 309 542Q348 542 372.50 524.50Q397 507 411 481Q425 455 432 430L435 430L466 532L505 532L485 436Q516 483 562 512.50Q608 542 672 542Q724 542 761.50 510.50Q799 479 799 423Q799 335 713.50 289.50Q628 244 478 244L451 244Q449 234 448.50 220.50Q448 207 448 195Q448 122 483.50 80.50Q519 39 591 39Q629 39 664 50.50Q699 62 730 76L730 25Q699 9 661-0.50Q623-10 583-10Q522-10 477 18Q432 46 415 106L393 0L352 0L372 116L369 116Q347 83 320.50 54Q294 25 261 7.50Q228-10 186-10M488 292Q559 292 617 304.50Q675 317 708.50 345Q742 373 742 418Q742 452 720.50 472.50Q699 493 662 493Q595 493 538.50 440.50Q482 388 459 292L488 292M202 39Q244 39 283 69Q322 99 352 150Q382 201 397 266Q404 296 406.50 318.50Q409 341 409 362Q409 422 384 457.50Q359 493 314 493Q267 493 229 466Q191 439 164 393Q137 347 122.50 290.50Q108 234 108 175Q108 109 132.50 74Q157 39 202 39Z"  horiz-adv-x="831" vert-adv-y="1000"  />

      
      <glyph glyph-name="unie7" unicode="&#xe7;" d="M247-10Q156-10 104 44Q52 98 52 192Q52 262 70.50 325.50Q89 389 125.50 437.50Q162 486 214 514Q266 542 332 542Q366 542 399.50 535.50Q433 529 460 517L443 468Q421 479 391.50 486Q362 493 332 493Q265 493 215 452Q165 411 137.50 343Q110 275 110 194Q110 126 146.50 82.50Q183 39 252 39Q288 39 318.50 48Q349 57 380 71L380 21Q354 7 321-1.50Q288-10 247-10M146-240Q116-240 96-234L96-196Q116-201 141-201Q176-201 203-186Q230-171 230-136Q230-112 210-100Q190-88 154-86L202 0L243 0L211-61Q239-66 259.50-84Q280-102 280-136Q280-183 242-211.50Q204-240 146-240Z"  horiz-adv-x="453" vert-adv-y="1000"  />

      
      <glyph glyph-name="unie8" unicode="&#xe8;" d="M244-10Q162-10 108.50 41Q55 92 55 193Q55 261 74.50 323.50Q94 386 130 435.50Q166 485 215.50 513.50Q265 542 325 542Q390 542 427 509.50Q464 477 464 423Q464 334 378 289Q292 244 142 244L116 244Q115 234 114 220.50Q113 207 113 195Q113 120 150 79.50Q187 39 255 39Q295 39 329 50Q363 61 395 76L395 26Q365 11 327.50 0.50Q290-10 244-10M152 292Q224 292 281.50 305Q339 318 373 346Q407 374 407 419Q407 451 385.50 472Q364 493 320 493Q280 493 240.50 469.50Q201 446 170 401Q139 356 125 292L152 292M340 606Q323 625 302.50 652.50Q282 680 264 708.50Q246 737 237 756L237 766L298 766Q311 729 333.50 688Q356 647 375 618L375 606L340 606Z"  horiz-adv-x="495" vert-adv-y="1000"  />

      
      <glyph glyph-name="unie9" unicode="&#xe9;" d="M244-10Q162-10 108.50 41Q55 92 55 193Q55 261 74.50 323.50Q94 386 130 435.50Q166 485 215.50 513.50Q265 542 325 542Q390 542 427 509.50Q464 477 464 423Q464 334 378 289Q292 244 142 244L116 244Q115 234 114 220.50Q113 207 113 195Q113 120 150 79.50Q187 39 255 39Q295 39 329 50Q363 61 395 76L395 26Q365 11 327.50 0.50Q290-10 244-10M152 292Q224 292 281.50 305Q339 318 373 346Q407 374 407 419Q407 451 385.50 472Q364 493 320 493Q280 493 240.50 469.50Q201 446 170 401Q139 356 125 292L152 292M282 616Q302 635 325.50 662Q349 689 371 716.50Q393 744 407 766L472 766L472 758Q456 738 430 710Q404 682 375 654Q346 626 320 606L282 606L282 616Z"  horiz-adv-x="495" vert-adv-y="1000"  />

      
      <glyph glyph-name="uniea" unicode="&#xea;" d="M244-10Q162-10 108.50 41Q55 92 55 193Q55 261 74.50 323.50Q94 386 130 435.50Q166 485 215.50 513.50Q265 542 325 542Q390 542 427 509.50Q464 477 464 423Q464 334 378 289Q292 244 142 244L116 244Q115 234 114 220.50Q113 207 113 195Q113 120 150 79.50Q187 39 255 39Q295 39 329 50Q363 61 395 76L395 26Q365 11 327.50 0.50Q290-10 244-10M152 292Q224 292 281.50 305Q339 318 373 346Q407 374 407 419Q407 451 385.50 472Q364 493 320 493Q280 493 240.50 469.50Q201 446 170 401Q139 356 125 292L152 292M183 616Q202 634 229 660.50Q256 687 282 715Q308 743 323 765L377 765Q389 730 413 688Q437 646 457 616L456 606L420 606Q400 628 380 657Q360 686 344 714Q315 686 283 657.50Q251 629 223 606L182 606L183 616Z"  horiz-adv-x="495" vert-adv-y="1000"  />

      
      <glyph glyph-name="unieb" unicode="&#xeb;" d="M244-10Q162-10 108.50 41Q55 92 55 193Q55 261 74.50 323.50Q94 386 130 435.50Q166 485 215.50 513.50Q265 542 325 542Q390 542 427 509.50Q464 477 464 423Q464 334 378 289Q292 244 142 244L116 244Q115 234 114 220.50Q113 207 113 195Q113 120 150 79.50Q187 39 255 39Q295 39 329 50Q363 61 395 76L395 26Q365 11 327.50 0.50Q290-10 244-10M152 292Q224 292 281.50 305Q339 318 373 346Q407 374 407 419Q407 451 385.50 472Q364 493 320 493Q280 493 240.50 469.50Q201 446 170 401Q139 356 125 292L152 292M421 639Q390 639 390 671Q390 688 400 704Q410 720 431 720Q446 720 453.50 711.50Q461 703 461 689Q461 668 449.50 653.50Q438 639 421 639M243 639Q212 639 212 671Q212 688 222 704Q232 720 253 720Q269 720 276 711.50Q283 703 283 689Q283 668 272 653.50Q261 639 243 639Z"  horiz-adv-x="495" vert-adv-y="1000"  />

      
      <glyph glyph-name="uniec" unicode="&#xec;" d="M30 0L143 532L200 532L87 0L30 0M197 606Q180 625 159.50 652.50Q139 680 121 708.50Q103 737 94 756L94 766L155 766Q168 729 190.50 688Q213 647 232 618L232 606L197 606Z"  horiz-adv-x="233" vert-adv-y="1000"  />

      
      <glyph glyph-name="unied" unicode="&#xed;" d="M30 0L143 532L200 532L87 0L30 0M139 616Q159 635 182.50 662Q206 689 228 716.50Q250 744 264 766L329 766L329 758Q313 738 287 710Q261 682 232 654Q203 626 177 606L139 606L139 616Z"  horiz-adv-x="233" vert-adv-y="1000"  />

      
      <glyph glyph-name="uniee" unicode="&#xee;" d="M30 0L143 532L200 532L87 0L30 0M45 616Q64 634 91 660.50Q118 687 144 715Q170 743 185 765L239 765Q251 730 275 688Q299 646 319 616L318 606L282 606Q262 628 242 657Q222 686 206 714Q177 686 145 657.50Q113 629 85 606L44 606L45 616Z"  horiz-adv-x="233" vert-adv-y="1000"  />

      
      <glyph glyph-name="unief" unicode="&#xef;" d="M30 0L143 532L200 532L87 0L30 0M282 639Q251 639 251 671Q251 688 261 704Q271 720 292 720Q307 720 314.50 711.50Q322 703 322 689Q322 668 310.50 653.50Q299 639 282 639M104 639Q73 639 73 671Q73 688 83 704Q93 720 114 720Q130 720 137 711.50Q144 703 144 689Q144 668 133 653.50Q122 639 104 639Z"  horiz-adv-x="233" vert-adv-y="1000"  />

      
      <glyph glyph-name="unif0" unicode="&#xf0;" d="M230-10Q144-10 95.50 43Q47 96 47 183Q47 238 63.50 289.50Q80 341 112.50 381.50Q145 422 191.50 445.50Q238 469 297 469Q360 469 399.50 439Q439 409 453 368L456 369Q456 438 436.50 505.50Q417 573 374 629L242 556L222 593L344 661Q314 693 271 723L304 764Q327 747 349 727.50Q371 708 391 687L516 757L537 720L420 655Q456 604 482 534Q508 464 508 370Q508 299 492 231.50Q476 164 442.50 109.50Q409 55 356.50 22.50Q304-10 230-10M233 39Q294 39 339.50 73.50Q385 108 410.50 164Q436 220 436 284Q436 313 423 345Q410 377 380 399Q350 421 299 421Q235 421 192 387Q149 353 127 298.50Q105 244 105 184Q105 119 138 79Q171 39 233 39Z"  horiz-adv-x="561" vert-adv-y="1000"  />

      
      <glyph glyph-name="unif1" unicode="&#xf1;" d="M28 0L142 534L192 534L172 415L174 415Q191 443 219 472.50Q247 502 286 523Q325 544 373 544Q438 544 474 509.50Q510 475 510 411Q510 392 507 371.50Q504 351 500 334L429 0L369 0L441 341Q445 361 447.50 376Q450 391 450 405Q450 448 426.50 469.50Q403 491 359 491Q315 491 271 462.50Q227 434 192.50 380.50Q158 327 142 253L88 0L28 0M188 612Q201 668 226.50 696.50Q252 725 294 725Q316 725 335 715.50Q354 706 370.50 693Q387 680 402 670.50Q417 661 432 661Q453 661 468.50 674.50Q484 688 497 726L537 726Q522 671 496 641.50Q470 612 428 612Q407 612 389.50 621.50Q372 631 355.50 644Q339 657 323 667Q307 677 290 677Q269 677 254 662.50Q239 648 227 612L188 612Z"  horiz-adv-x="566" vert-adv-y="1000"  />

      
      <glyph glyph-name="unif2" unicode="&#xf2;" d="M243-9Q150-9 101 47Q52 103 52 195Q52 265 70.50 327.50Q89 390 125 438Q161 486 211 513.50Q261 541 324 541Q414 541 463.50 484.50Q513 428 513 337Q513 271 495.50 209Q478 147 443.50 98Q409 49 358.50 20Q308-9 243-9M247 40Q308 40 355 78.50Q402 117 428.50 185.50Q455 254 455 343Q455 383 441 416.50Q427 450 398 471Q369 492 323 492Q260 492 212 453Q164 414 137 347Q110 280 110 194Q110 122 144.50 81Q179 40 247 40M351 606Q334 625 313.50 652.50Q293 680 275 708.50Q257 737 248 756L248 766L309 766Q322 729 344.50 688Q367 647 386 618L386 606L351 606Z"  horiz-adv-x="564" vert-adv-y="1000"  />

      
      <glyph glyph-name="unif3" unicode="&#xf3;" d="M243-9Q150-9 101 47Q52 103 52 195Q52 265 70.50 327.50Q89 390 125 438Q161 486 211 513.50Q261 541 324 541Q414 541 463.50 484.50Q513 428 513 337Q513 271 495.50 209Q478 147 443.50 98Q409 49 358.50 20Q308-9 243-9M247 40Q308 40 355 78.50Q402 117 428.50 185.50Q455 254 455 343Q455 383 441 416.50Q427 450 398 471Q369 492 323 492Q260 492 212 453Q164 414 137 347Q110 280 110 194Q110 122 144.50 81Q179 40 247 40M297 616Q317 635 340.50 662Q364 689 386 716.50Q408 744 422 766L487 766L487 758Q471 738 445 710Q419 682 390 654Q361 626 335 606L297 606L297 616Z"  horiz-adv-x="564" vert-adv-y="1000"  />

      
      <glyph glyph-name="unif4" unicode="&#xf4;" d="M243-9Q150-9 101 47Q52 103 52 195Q52 265 70.50 327.50Q89 390 125 438Q161 486 211 513.50Q261 541 324 541Q414 541 463.50 484.50Q513 428 513 337Q513 271 495.50 209Q478 147 443.50 98Q409 49 358.50 20Q308-9 243-9M247 40Q308 40 355 78.50Q402 117 428.50 185.50Q455 254 455 343Q455 383 441 416.50Q427 450 398 471Q369 492 323 492Q260 492 212 453Q164 414 137 347Q110 280 110 194Q110 122 144.50 81Q179 40 247 40M196 616Q215 634 242 660.50Q269 687 295 715Q321 743 336 765L390 765Q402 730 426 688Q450 646 470 616L469 606L433 606Q413 628 393 657Q373 686 357 714Q328 686 296 657.50Q264 629 236 606L195 606L196 616Z"  horiz-adv-x="564" vert-adv-y="1000"  />

      
      <glyph glyph-name="unif5" unicode="&#xf5;" d="M243-9Q150-9 101 47Q52 103 52 195Q52 265 70.50 327.50Q89 390 125 438Q161 486 211 513.50Q261 541 324 541Q414 541 463.50 484.50Q513 428 513 337Q513 271 495.50 209Q478 147 443.50 98Q409 49 358.50 20Q308-9 243-9M247 40Q308 40 355 78.50Q402 117 428.50 185.50Q455 254 455 343Q455 383 441 416.50Q427 450 398 471Q369 492 323 492Q260 492 212 453Q164 414 137 347Q110 280 110 194Q110 122 144.50 81Q179 40 247 40M178 612Q191 668 216.50 696.50Q242 725 284 725Q306 725 325 715.50Q344 706 360.50 693Q377 680 392 670.50Q407 661 422 661Q443 661 458.50 674.50Q474 688 487 726L527 726Q512 671 486 641.50Q460 612 418 612Q397 612 379.50 621.50Q362 631 345.50 644Q329 657 313 667Q297 677 280 677Q259 677 244 662.50Q229 648 217 612L178 612Z"  horiz-adv-x="564" vert-adv-y="1000"  />

      
      <glyph glyph-name="unif6" unicode="&#xf6;" d="M243-9Q150-9 101 47Q52 103 52 195Q52 265 70.50 327.50Q89 390 125 438Q161 486 211 513.50Q261 541 324 541Q414 541 463.50 484.50Q513 428 513 337Q513 271 495.50 209Q478 147 443.50 98Q409 49 358.50 20Q308-9 243-9M247 40Q308 40 355 78.50Q402 117 428.50 185.50Q455 254 455 343Q455 383 441 416.50Q427 450 398 471Q369 492 323 492Q260 492 212 453Q164 414 137 347Q110 280 110 194Q110 122 144.50 81Q179 40 247 40M439 639Q408 639 408 671Q408 688 418 704Q428 720 449 720Q464 720 471.50 711.50Q479 703 479 689Q479 668 467.50 653.50Q456 639 439 639M261 639Q230 639 230 671Q230 688 240 704Q250 720 271 720Q287 720 294 711.50Q301 703 301 689Q301 668 290 653.50Q279 639 261 639Z"  horiz-adv-x="564" vert-adv-y="1000"  />

      
      <glyph glyph-name="unif7" unicode="&#xf7;" d="M305 481Q264 481 264 527Q264 573 305 573Q346 573 346 527Q346 481 305 481M73 329L73 377L538 377L538 329L73 329M305 133Q264 133 264 179Q264 224 305 224Q346 224 346 179Q346 133 305 133Z"  horiz-adv-x="571" vert-adv-y="1000"  />

      
      <glyph glyph-name="unif8" unicode="&#xf8;" d="M48-33L13-4L82 73Q52 121 52 195Q52 265 71 327.50Q90 390 125.50 438Q161 486 211 513.50Q261 541 324 541Q366 541 398.50 528Q431 515 454 493L518 564L554 535L484 461Q498 437 505 405.50Q512 374 512 341Q512 275 494.50 212.50Q477 150 443 100Q409 50 358.50 20.50Q308-9 243-9Q200-9 167.50 3.50Q135 16 113 39L48-33M420 453Q405 470 381 481Q357 492 323 492Q260 492 211.50 453.50Q163 415 135.50 348.50Q108 282 108 198Q108 149 121 119L420 453M247 39Q308 39 355.50 77.50Q403 116 429.50 183Q456 250 456 337Q456 383 444 411L146 79Q180 39 247 39Z"  horiz-adv-x="564" vert-adv-y="1000"  />

      
      <glyph glyph-name="unif9" unicode="&#xf9;" d="M190-10Q127-10 91 23.50Q55 57 55 122Q55 140 57.50 159Q60 178 65 198L136 532L193 532L121 191Q113 154 113 128Q113 39 204 39Q249 39 293 68Q337 97 372 151Q407 205 423 280L477 532L533 532L420 0L373 0L393 119L389 119Q371 91 343 61Q315 31 276.50 10.50Q238-10 190-10M367 606Q350 625 329.50 652.50Q309 680 291 708.50Q273 737 264 756L264 766L325 766Q338 729 360.50 688Q383 647 402 618L402 606L367 606Z"  horiz-adv-x="566" vert-adv-y="1000"  />

      
      <glyph glyph-name="unifa" unicode="&#xfa;" d="M190-10Q127-10 91 23.50Q55 57 55 122Q55 140 57.50 159Q60 178 65 198L136 532L193 532L121 191Q113 154 113 128Q113 39 204 39Q249 39 293 68Q337 97 372 151Q407 205 423 280L477 532L533 532L420 0L373 0L393 119L389 119Q371 91 343 61Q315 31 276.50 10.50Q238-10 190-10M307 616Q327 635 350.50 662Q374 689 396 716.50Q418 744 432 766L497 766L497 758Q481 738 455 710Q429 682 400 654Q371 626 345 606L307 606L307 616Z"  horiz-adv-x="566" vert-adv-y="1000"  />

      
      <glyph glyph-name="unifb" unicode="&#xfb;" d="M190-10Q127-10 91 23.50Q55 57 55 122Q55 140 57.50 159Q60 178 65 198L136 532L193 532L121 191Q113 154 113 128Q113 39 204 39Q249 39 293 68Q337 97 372 151Q407 205 423 280L477 532L533 532L420 0L373 0L393 119L389 119Q371 91 343 61Q315 31 276.50 10.50Q238-10 190-10M208 616Q227 634 254 660.50Q281 687 307 715Q333 743 348 765L402 765Q414 730 438 688Q462 646 482 616L481 606L445 606Q425 628 405 657Q385 686 369 714Q340 686 308 657.50Q276 629 248 606L207 606L208 616Z"  horiz-adv-x="566" vert-adv-y="1000"  />

      
      <glyph glyph-name="unifc" unicode="&#xfc;" d="M190-10Q127-10 91 23.50Q55 57 55 122Q55 140 57.50 159Q60 178 65 198L136 532L193 532L121 191Q113 154 113 128Q113 39 204 39Q249 39 293 68Q337 97 372 151Q407 205 423 280L477 532L533 532L420 0L373 0L393 119L389 119Q371 91 343 61Q315 31 276.50 10.50Q238-10 190-10M446 639Q415 639 415 671Q415 688 425 704Q435 720 456 720Q471 720 478.50 711.50Q486 703 486 689Q486 668 474.50 653.50Q463 639 446 639M268 639Q237 639 237 671Q237 688 247 704Q257 720 278 720Q294 720 301 711.50Q308 703 308 689Q308 668 297 653.50Q286 639 268 639Z"  horiz-adv-x="566" vert-adv-y="1000"  />

      
      <glyph glyph-name="unifd" unicode="&#xfd;" d="M-41-241Q-62-241-76.50-238.50Q-91-236-104-231L-104-183Q-91-187-76.50-190Q-62-193-42-193Q-4-193 25-166.50Q54-140 84-86L134 0L49 532L106 532L153 222Q160 174 164 128Q168 82 170 55L172 55Q179 70 191 95.50Q203 121 217.50 150.50Q232 180 247 205L426 532L487 532L136-102Q98-170 58-205.50Q18-241-41-241M229 616Q249 635 272.50 662Q296 689 318 716.50Q340 744 354 766L419 766L419 758Q403 738 377 710Q351 682 322 654Q293 626 267 606L229 606L229 616Z"  horiz-adv-x="439" vert-adv-y="1000"  />

      
      <glyph glyph-name="unife" unicode="&#xfe;" d="M-19-236L191 760L248 760L206 562Q198 525 188.50 485.50Q179 446 170 413L173 413Q195 445 224 474.50Q253 504 290 523Q327 542 371 542Q440 542 481 492.50Q522 443 522 356Q522 289 504.50 224Q487 159 453 106Q419 53 369.50 21.50Q320-10 255-10Q190-10 154.50 24.50Q119 59 107 102L104 102Q101 77 95.50 45Q90 13 85-12L37-236L-19-236M251 39Q302 39 341.50 66.50Q381 94 408 140.50Q435 187 449 243Q463 299 463 357Q463 422 434.50 457.50Q406 493 354 493Q310 493 267 463Q224 433 190.50 381Q157 329 141 262Q135 237 133 214.50Q131 192 131 171Q131 108 162.50 73.50Q194 39 251 39Z"  horiz-adv-x="574" vert-adv-y="1000"  />

      
      <glyph glyph-name="uniff" unicode="&#xff;" d="M-41-241Q-62-241-76.50-238.50Q-91-236-104-231L-104-183Q-91-187-76.50-190Q-62-193-42-193Q-4-193 25-166.50Q54-140 84-86L134 0L49 532L106 532L153 222Q160 174 164 128Q168 82 170 55L172 55Q179 70 191 95.50Q203 121 217.50 150.50Q232 180 247 205L426 532L487 532L136-102Q98-170 58-205.50Q18-241-41-241M372 639Q341 639 341 671Q341 688 351 704Q361 720 382 720Q397 720 404.50 711.50Q412 703 412 689Q412 668 400.50 653.50Q389 639 372 639M194 639Q163 639 163 671Q163 688 173 704Q183 720 204 720Q220 720 227 711.50Q234 703 234 689Q234 668 223 653.50Q212 639 194 639Z"  horiz-adv-x="439" vert-adv-y="1000"  />

      
      <glyph glyph-name="uni0100" unicode="&#x0100;" d="M-53 0L350 715L409 715L506 0L449 0L415 247L148 247L11 0L-53 0M176 299L409 299L379 523Q376 552 372.50 586Q369 620 368 650L365 650Q351 619 334.50 586.50Q318 554 301 521L176 299M260 792L270 840L525 840L515 792L260 792Z"  horiz-adv-x="555" vert-adv-y="1000"  />

      
      <glyph glyph-name="uni0101" unicode="&#x0101;" d="M195-10Q127-10 88.50 39Q50 88 50 176Q50 244 68 309Q86 374 120.50 426.50Q155 479 204 510.50Q253 542 315 542Q356 542 384 525Q412 508 428.50 482.50Q445 457 453 430L457 430L486 532L531 532L418 0L372 0L392 119L389 119Q369 89 340 59Q311 29 274 9.50Q237-10 195-10M211 39Q252 39 294 69Q336 99 369 150Q402 201 417 265Q423 295 426 318.50Q429 342 429 362Q429 422 399.50 457.50Q370 493 319 493Q270 493 231 465.50Q192 438 164.50 392.50Q137 347 122.50 290.50Q108 234 108 175Q108 110 134 74.50Q160 39 211 39M222 610L232 658L487 658L477 610L222 610Z"  horiz-adv-x="558" vert-adv-y="1000"  />

      
      <glyph glyph-name="uni0102" unicode="&#x0102;" d="M-53 0L350 715L409 715L506 0L449 0L415 247L148 247L11 0L-53 0M176 299L409 299L379 523Q376 552 372.50 586Q369 620 368 650L365 650Q351 619 334.50 586.50Q318 554 301 521L176 299M388 788Q338 788 306.50 814.50Q275 841 275 890Q275 902 277 911L316 911Q313 881 329.50 859Q346 837 393 837Q438 837 462 857Q486 877 496 911L537 911Q520 848 483 818Q446 788 388 788Z"  horiz-adv-x="555" vert-adv-y="1000"  />

      
      <glyph glyph-name="uni0103" unicode="&#x0103;" d="M195-10Q127-10 88.50 39Q50 88 50 176Q50 244 68 309Q86 374 120.50 426.50Q155 479 204 510.50Q253 542 315 542Q356 542 384 525Q412 508 428.50 482.50Q445 457 453 430L457 430L486 532L531 532L418 0L372 0L392 119L389 119Q369 89 340 59Q311 29 274 9.50Q237-10 195-10M211 39Q252 39 294 69Q336 99 369 150Q402 201 417 265Q423 295 426 318.50Q429 342 429 362Q429 422 399.50 457.50Q370 493 319 493Q270 493 231 465.50Q192 438 164.50 392.50Q137 347 122.50 290.50Q108 234 108 175Q108 110 134 74.50Q160 39 211 39M350 606Q300 606 268.50 632.50Q237 659 237 708Q237 720 239 729L278 729Q275 699 291.50 677Q308 655 355 655Q400 655 424 675Q448 695 458 729L499 729Q482 666 445 636Q408 606 350 606Z"  horiz-adv-x="558" vert-adv-y="1000"  />

      
      <glyph glyph-name="uni0104" unicode="&#x0104;" d="M-53 0L350 715L409 715L506 0L449 0L415 247L148 247L11 0L-53 0M176 299L409 299L379 523Q376 552 372.50 586Q369 620 368 650L365 650Q351 619 334.50 586.50Q318 554 301 521L176 299M418-217Q384-217 361.50-198.50Q339-180 339-143Q339-110 355.50-83.50Q372-57 398.50-35Q425-13 455 6L493 0Q472-16 447.50-36.50Q423-57 405.50-82Q388-107 388-136Q388-175 428-175Q440-175 450.50-173.50Q461-172 470-170L470-209Q446-217 418-217Z"  horiz-adv-x="555" vert-adv-y="1000"  />

      
      <glyph glyph-name="uni0105" unicode="&#x0105;" d="M195-10Q127-10 88.50 39Q50 88 50 176Q50 244 68 309Q86 374 120.50 426.50Q155 479 204 510.50Q253 542 315 542Q356 542 384 525Q412 508 428.50 482.50Q445 457 453 430L457 430L486 532L531 532L418 0L372 0L392 119L389 119Q369 89 340 59Q311 29 274 9.50Q237-10 195-10M211 39Q252 39 294 69Q336 99 369 150Q402 201 417 265Q423 295 426 318.50Q429 342 429 362Q429 422 399.50 457.50Q370 493 319 493Q270 493 231 465.50Q192 438 164.50 392.50Q137 347 122.50 290.50Q108 234 108 175Q108 110 134 74.50Q160 39 211 39M338-217Q304-217 281.50-198.50Q259-180 259-143Q259-110 275.50-83.50Q292-57 318.50-35Q345-13 375 6L413 0Q392-16 367.50-36.50Q343-57 325.50-82Q308-107 308-136Q308-175 348-175Q360-175 370.50-173.50Q381-172 390-170L390-209Q366-217 338-217Z"  horiz-adv-x="558" vert-adv-y="1000"  />

      
      <glyph glyph-name="uni0106" unicode="&#x0106;" d="M326-10Q209-10 143.50 64.50Q78 139 78 266Q78 357 104.50 439.50Q131 522 181.50 586Q232 650 303.50 687Q375 724 465 724Q561 724 633 686L609 636Q577 654 541.50 663Q506 672 465 672Q389 672 328.50 640Q268 608 225.50 551.50Q183 495 161 422Q139 349 139 268Q139 163 191 102.50Q243 42 335 42Q381 42 422 50.50Q463 59 500 71L500 21Q464 7 422-1.50Q380-10 326-10M411 798Q431 817 454.50 844Q478 871 500 898.50Q522 926 536 948L601 948L601 940Q585 920 559 892Q533 864 504 836Q475 808 449 788L411 788L411 798Z"  horiz-adv-x="591" vert-adv-y="1000"  />

      
      <glyph glyph-name="uni0107" unicode="&#x0107;" d="M247-10Q156-10 104 44Q52 98 52 192Q52 262 70.50 325.50Q89 389 125.50 437.50Q162 486 214 514Q266 542 332 542Q366 542 399.50 535.50Q433 529 460 517L443 468Q421 479 391.50 486Q362 493 332 493Q265 493 215 452Q165 411 137.50 343Q110 275 110 194Q110 126 146.50 82.50Q183 39 252 39Q288 39 318.50 48Q349 57 380 71L380 21Q354 7 321-1.50Q288-10 247-10M275 616Q295 635 318.50 662Q342 689 364 716.50Q386 744 400 766L465 766L465 758Q449 738 423 710Q397 682 368 654Q339 626 313 606L275 606L275 616Z"  horiz-adv-x="453" vert-adv-y="1000"  />

      
      <glyph glyph-name="uni0108" unicode="&#x0108;" d="M326-10Q209-10 143.50 64.50Q78 139 78 266Q78 357 104.50 439.50Q131 522 181.50 586Q232 650 303.50 687Q375 724 465 724Q561 724 633 686L609 636Q577 654 541.50 663Q506 672 465 672Q389 672 328.50 640Q268 608 225.50 551.50Q183 495 161 422Q139 349 139 268Q139 163 191 102.50Q243 42 335 42Q381 42 422 50.50Q463 59 500 71L500 21Q464 7 422-1.50Q380-10 326-10M324 798Q343 816 370 842.50Q397 869 423 897Q449 925 464 947L518 947Q530 912 554 870Q578 828 598 798L597 788L561 788Q541 810 521 839Q501 868 485 896Q456 868 424 839.50Q392 811 364 788L323 788L324 798Z"  horiz-adv-x="591" vert-adv-y="1000"  />

      
      <glyph glyph-name="uni0109" unicode="&#x0109;" d="M247-10Q156-10 104 44Q52 98 52 192Q52 262 70.50 325.50Q89 389 125.50 437.50Q162 486 214 514Q266 542 332 542Q366 542 399.50 535.50Q433 529 460 517L443 468Q421 479 391.50 486Q362 493 332 493Q265 493 215 452Q165 411 137.50 343Q110 275 110 194Q110 126 146.50 82.50Q183 39 252 39Q288 39 318.50 48Q349 57 380 71L380 21Q354 7 321-1.50Q288-10 247-10M180 616Q199 634 226 660.50Q253 687 279 715Q305 743 320 765L374 765Q386 730 410 688Q434 646 454 616L453 606L417 606Q397 628 377 657Q357 686 341 714Q312 686 280 657.50Q248 629 220 606L179 606L180 616Z"  horiz-adv-x="453" vert-adv-y="1000"  />

      
      <glyph glyph-name="uni010A" unicode="&#x010A;" d="M326-10Q209-10 143.50 64.50Q78 139 78 266Q78 357 104.50 439.50Q131 522 181.50 586Q232 650 303.50 687Q375 724 465 724Q561 724 633 686L609 636Q577 654 541.50 663Q506 672 465 672Q389 672 328.50 640Q268 608 225.50 551.50Q183 495 161 422Q139 349 139 268Q139 163 191 102.50Q243 42 335 42Q381 42 422 50.50Q463 59 500 71L500 21Q464 7 422-1.50Q380-10 326-10M477 824Q461 824 451 833Q441 842 441 859Q441 878 452.50 894.50Q464 911 486 911Q503 911 511.50 901.50Q520 892 520 877Q520 855 507 839.50Q494 824 477 824Z"  horiz-adv-x="591" vert-adv-y="1000"  />

      
      <glyph glyph-name="uni010B" unicode="&#x010B;" d="M247-10Q156-10 104 44Q52 98 52 192Q52 262 70.50 325.50Q89 389 125.50 437.50Q162 486 214 514Q266 542 332 542Q366 542 399.50 535.50Q433 529 460 517L443 468Q421 479 391.50 486Q362 493 332 493Q265 493 215 452Q165 411 137.50 343Q110 275 110 194Q110 126 146.50 82.50Q183 39 252 39Q288 39 318.50 48Q349 57 380 71L380 21Q354 7 321-1.50Q288-10 247-10M334 642Q318 642 308 651Q298 660 298 677Q298 696 309.50 712.50Q321 729 343 729Q360 729 368.50 719.50Q377 710 377 695Q377 673 364 657.50Q351 642 334 642Z"  horiz-adv-x="453" vert-adv-y="1000"  />

      
      <glyph glyph-name="uni010C" unicode="&#x010C;" d="M326-10Q209-10 143.50 64.50Q78 139 78 266Q78 357 104.50 439.50Q131 522 181.50 586Q232 650 303.50 687Q375 724 465 724Q561 724 633 686L609 636Q577 654 541.50 663Q506 672 465 672Q389 672 328.50 640Q268 608 225.50 551.50Q183 495 161 422Q139 349 139 268Q139 163 191 102.50Q243 42 335 42Q381 42 422 50.50Q463 59 500 71L500 21Q464 7 422-1.50Q380-10 326-10M433 788Q421 823 397 865Q373 907 354 937L355 947L390 947Q410 925 430 895.50Q450 866 466 839Q495 866 527 895Q559 924 589 947L629 947L628 937Q609 919 581.50 892.50Q554 866 528 838Q502 810 487 788L433 788Z"  horiz-adv-x="591" vert-adv-y="1000"  />

      
      <glyph glyph-name="uni010D" unicode="&#x010D;" d="M247-10Q156-10 104 44Q52 98 52 192Q52 262 70.50 325.50Q89 389 125.50 437.50Q162 486 214 514Q266 542 332 542Q366 542 399.50 535.50Q433 529 460 517L443 468Q421 479 391.50 486Q362 493 332 493Q265 493 215 452Q165 411 137.50 343Q110 275 110 194Q110 126 146.50 82.50Q183 39 252 39Q288 39 318.50 48Q349 57 380 71L380 21Q354 7 321-1.50Q288-10 247-10M299 606Q287 641 263 683Q239 725 220 755L221 765L256 765Q276 743 296 713.50Q316 684 332 657Q361 684 393 713Q425 742 455 765L495 765L494 755Q475 737 447.50 710.50Q420 684 394 656Q368 628 353 606L299 606Z"  horiz-adv-x="453" vert-adv-y="1000"  />

      
      <glyph glyph-name="uni010E" unicode="&#x010E;" d="M46 0L197 714L354 714Q486 714 561.50 643.50Q637 573 637 427Q637 339 609.50 262Q582 185 528.50 126Q475 67 394.50 33.50Q314 0 207 0L46 0M210 51Q299 51 367.50 80.50Q436 110 482.50 162Q529 214 552.50 282Q576 350 576 428Q576 550 514 606.50Q452 663 343 663L244 663L114 51L210 51M410 788Q398 823 374 865Q350 907 331 937L332 947L367 947Q387 925 407 895.50Q427 866 443 839Q472 866 504 895Q536 924 566 947L606 947L605 937Q586 919 558.50 892.50Q531 866 505 838Q479 810 464 788L410 788Z"  horiz-adv-x="672" vert-adv-y="1000"  />

      
      <glyph glyph-name="uni010F" unicode="&#x010F;" d="M606 610Q618 626 633.50 653Q649 680 663 709.50Q677 739 685 760L741 760L741 752Q733 732 716.50 704.50Q700 677 679.50 649Q659 621 639 600L606 600L606 610M195-10Q124-10 85.50 38.50Q47 87 47 176Q47 243 64.50 308Q82 373 116 425.50Q150 478 200 510Q250 542 315 542Q358 542 387.50 525.50Q417 509 435 483.50Q453 458 461 430L464 430Q469 464 475 497Q481 530 488 564L530 760L586 760L425 0L378 0L398 120L395 120Q372 88 342.50 58Q313 28 276 9Q239-10 195-10M211 39Q251 39 291 65Q331 91 364 135.50Q397 180 417.50 238.50Q438 297 438 361Q438 424 406.50 458.50Q375 493 318 493Q267 493 227.50 465Q188 437 161 391Q134 345 120 288.50Q106 232 106 175Q106 109 132 74Q158 39 211 39Z"  horiz-adv-x="593" vert-adv-y="1000"  />

      
      <glyph glyph-name="uni0110" unicode="&#x0110;" d="M46 0L115 329L39 329L50 380L126 380L197 714L354 714Q486 714 561.50 643.50Q637 573 637 427Q637 339 609.50 262Q582 185 528.50 126Q475 67 394.50 33.50Q314 0 207 0L46 0M210 51Q299 51 367.50 80.50Q436 110 482.50 162Q529 214 552.50 282Q576 350 576 428Q576 550 514 606.50Q452 663 343 663L244 663L184 380L360 380L349 329L173 329L114 51L210 51Z"  horiz-adv-x="672" vert-adv-y="1000"  />

      
      <glyph glyph-name="uni0111" unicode="&#x0111;" d="M200-10Q131-10 90.50 39Q50 88 50 176Q50 242 67 307.50Q84 373 117.50 426Q151 479 201 510.50Q251 542 316 542Q360 542 389.50 526Q419 510 437 484.50Q455 459 463 431L467 431Q470 457 475 487Q480 517 486 544L501 617L301 617L310 663L512 663L532 760L589 760L568 663L641 663L631 617L558 617L428 0L381 0L400 119L397 119Q376 87 347 57.50Q318 28 281 9Q244-10 200-10M216 39Q258 39 298 65.50Q338 92 370 137.50Q402 183 421 241.50Q440 300 440 363Q440 425 408.50 459Q377 493 320 493Q269 493 229.50 465.50Q190 438 163 391.50Q136 345 122 288.50Q108 232 108 175Q108 110 136 74.50Q164 39 216 39Z"  horiz-adv-x="574" vert-adv-y="1000"  />

      
      <glyph glyph-name="uni0112" unicode="&#x0112;" d="M46 0L197 714L557 714L546 662L244 662L188 401L472 401L462 349L178 349L114 52L417 52L406 0L46 0M262 792L272 840L527 840L517 792L262 792Z"  horiz-adv-x="525" vert-adv-y="1000"  />

      
      <glyph glyph-name="uni0113" unicode="&#x0113;" d="M244-10Q162-10 108.50 41Q55 92 55 193Q55 261 74.50 323.50Q94 386 130 435.50Q166 485 215.50 513.50Q265 542 325 542Q390 542 427 509.50Q464 477 464 423Q464 334 378 289Q292 244 142 244L116 244Q115 234 114 220.50Q113 207 113 195Q113 120 150 79.50Q187 39 255 39Q295 39 329 50Q363 61 395 76L395 26Q365 11 327.50 0.50Q290-10 244-10M152 292Q224 292 281.50 305Q339 318 373 346Q407 374 407 419Q407 451 385.50 472Q364 493 320 493Q280 493 240.50 469.50Q201 446 170 401Q139 356 125 292L152 292M193 610L203 658L458 658L448 610L193 610Z"  horiz-adv-x="495" vert-adv-y="1000"  />

      
      <glyph glyph-name="uni0114" unicode="&#x0114;" d="M46 0L197 714L557 714L546 662L244 662L188 401L472 401L462 349L178 349L114 52L417 52L406 0L46 0M387 788Q337 788 305.50 814.50Q274 841 274 890Q274 902 276 911L315 911Q312 881 328.50 859Q345 837 392 837Q437 837 461 857Q485 877 495 911L536 911Q519 848 482 818Q445 788 387 788Z"  horiz-adv-x="525" vert-adv-y="1000"  />

      
      <glyph glyph-name="uni0115" unicode="&#x0115;" d="M244-10Q162-10 108.50 41Q55 92 55 193Q55 261 74.50 323.50Q94 386 130 435.50Q166 485 215.50 513.50Q265 542 325 542Q390 542 427 509.50Q464 477 464 423Q464 334 378 289Q292 244 142 244L116 244Q115 234 114 220.50Q113 207 113 195Q113 120 150 79.50Q187 39 255 39Q295 39 329 50Q363 61 395 76L395 26Q365 11 327.50 0.50Q290-10 244-10M152 292Q224 292 281.50 305Q339 318 373 346Q407 374 407 419Q407 451 385.50 472Q364 493 320 493Q280 493 240.50 469.50Q201 446 170 401Q139 356 125 292L152 292M326 606Q276 606 244.50 632.50Q213 659 213 708Q213 720 215 729L254 729Q251 699 267.50 677Q284 655 331 655Q376 655 400 675Q424 695 434 729L475 729Q458 666 421 636Q384 606 326 606Z"  horiz-adv-x="495" vert-adv-y="1000"  />

      
      <glyph glyph-name="uni0116" unicode="&#x0116;" d="M46 0L197 714L557 714L546 662L244 662L188 401L472 401L462 349L178 349L114 52L417 52L406 0L46 0M404 824Q388 824 378 833Q368 842 368 859Q368 878 379.50 894.50Q391 911 413 911Q430 911 438.50 901.50Q447 892 447 877Q447 855 434 839.50Q421 824 404 824Z"  horiz-adv-x="525" vert-adv-y="1000"  />

      
      <glyph glyph-name="uni0117" unicode="&#x0117;" d="M244-10Q162-10 108.50 41Q55 92 55 193Q55 261 74.50 323.50Q94 386 130 435.50Q166 485 215.50 513.50Q265 542 325 542Q390 542 427 509.50Q464 477 464 423Q464 334 378 289Q292 244 142 244L116 244Q115 234 114 220.50Q113 207 113 195Q113 120 150 79.50Q187 39 255 39Q295 39 329 50Q363 61 395 76L395 26Q365 11 327.50 0.50Q290-10 244-10M152 292Q224 292 281.50 305Q339 318 373 346Q407 374 407 419Q407 451 385.50 472Q364 493 320 493Q280 493 240.50 469.50Q201 446 170 401Q139 356 125 292L152 292M335 642Q319 642 309 651Q299 660 299 677Q299 696 310.50 712.50Q322 729 344 729Q361 729 369.50 719.50Q378 710 378 695Q378 673 365 657.50Q352 642 335 642Z"  horiz-adv-x="495" vert-adv-y="1000"  />

      
      </font>
</defs>
</svg>
