<?xml version="1.0" standalone="no"?>
  <!DOCTYPE svg PUBLIC "-//W3C//DTD SVG 1.1//EN" "http://www.w3.org/Graphics/SVG/1.1/DTD/svg11.dtd" >
  <svg>
  <metadata>
  Created by font-carrier
  </metadata>
  <defs>
  <font id="NotoSans-Light" horiz-adv-x="2840" vert-adv-y="2840" >
    <font-face
      
      font-family="Noto Sans Light"
      
      font-weight="400"
      
      font-stretch="normal"
      
      units-per-em="1000"
      
      ascent="1069"
      
      descent="-293"
      
    />
      <missing-glyph />

      

      
      <glyph glyph-name="uni21" unicode="&#x21;" d="M144 188L103 188L90 714L158 714L144 188M79 39Q79 88 122 88Q167 88 167 39Q167-11 122-11Q79-11 79 39Z"  horiz-adv-x="246" vert-adv-y="1000"  />

      
      <glyph glyph-name="uni22" unicode="&#x22;" d="M131 714L119 456L81 456L69 714L131 714M295 714L283 456L246 456L234 714L295 714Z"  horiz-adv-x="364" vert-adv-y="1000"  />

      
      <glyph glyph-name="uni23" unicode="&#x23;" d="M474 449L438 264L583 264L583 218L429 218L387 0L339 0L381 218L210 218L169 0L121 0L162 218L27 218L27 264L171 264L207 449L65 449L65 494L215 494L257 714L306 714L264 494L435 494L477 714L524 714L482 494L619 494L619 449L474 449M219 264L390 264L426 449L255 449L219 264Z"  horiz-adv-x="646" vert-adv-y="1000"  />

      
      <glyph glyph-name="uni24" unicode="&#x24;" d="M253 30Q194 30 145 39Q96 48 65 61L65 118Q99 103 149.50 92Q200 81 253 81L253 341Q194 359 151.50 382Q109 405 86 438Q63 471 63 522Q63 598 116 640.50Q169 683 253 688L253 759L297 759L297 688Q344 687 386 677.50Q428 668 466 651L447 603Q410 618 371.50 627Q333 636 297 638L297 383Q358 363 402 341Q446 319 469.50 287Q493 255 493 203Q493 126 439.50 82.50Q386 39 297 32L297-58L253-58L253 30M253 637Q192 633 156 605.50Q120 578 120 527Q120 472 155.50 445Q191 418 253 398L253 637M297 83Q362 88 399 117Q436 146 436 201Q436 251 402 276.50Q368 302 297 325L297 83Z"  horiz-adv-x="571" vert-adv-y="1000"  />

      
      <glyph glyph-name="uni25" unicode="&#x25;" d="M196 724Q267 724 303 666Q339 608 339 501Q339 392 302.50 334Q266 276 195 276Q126 276 90 334.50Q54 393 54 501Q54 609 90 666.50Q126 724 196 724M631 714L235 0L182 0L578 714L631 714M196 681Q104 681 104 501Q104 320 195 320Q289 320 289 501Q289 589 266.50 635Q244 681 196 681M615 438Q686 438 722 380Q758 322 758 215Q758 106 721.50 48Q685-10 614-10Q545-10 509 48.50Q473 107 473 215Q473 323 509 380.50Q545 438 615 438M615 394Q523 394 523 215Q523 34 614 34Q708 34 708 215Q708 303 685.50 348.50Q663 394 615 394Z"  horiz-adv-x="812" vert-adv-y="1000"  />

      
      <glyph glyph-name="uni26" unicode="&#x26;" d="M304 725Q378 725 423.50 685.50Q469 646 469 576Q469 510 425 466.50Q381 423 312 386L530 170Q558 203 578 247Q598 291 610 343L668 343Q637 216 567 132L699 0L622 0L529 95Q482 48 424 19Q366-10 280-10Q180-10 119 40Q58 90 58 183Q58 236 78 273.50Q98 311 136 339.50Q174 368 227 396Q184 440 157 479.50Q130 519 130 573Q130 643 177.50 684Q225 725 304 725M303 677Q249 677 217.50 649Q186 621 186 573Q186 532 209 498Q232 464 275 421Q342 454 377 489.50Q412 525 412 576Q412 622 382 649.50Q352 677 303 677M262 359Q216 335 183.50 311.50Q151 288 134.50 258Q118 228 118 184Q118 117 162.50 79.50Q207 42 281 42Q354 42 403.50 66.50Q453 91 492 131L262 359Z"  horiz-adv-x="717" vert-adv-y="1000"  />

      
      <glyph glyph-name="uni27" unicode="&#x27;" d="M131 714L119 456L81 456L69 714L131 714Z"  horiz-adv-x="199" vert-adv-y="1000"  />

      
      <glyph glyph-name="uni28" unicode="&#x28;" d="M41 274Q41 402 78 515Q115 628 187 714L245 714Q172 623 135.50 510Q99 397 99 275Q99 155 135.50 44.50Q172-66 245-158L187-158Q115-72 78 38Q41 148 41 274Z"  horiz-adv-x="278" vert-adv-y="1000"  />

      
      <glyph glyph-name="uni29" unicode="&#x29;" d="M237 278Q237 151 200 38.50Q163-74 91-158L34-158Q107-67 143 45Q179 157 179 278Q179 400 142.50 511.50Q106 623 33 714L91 714Q163 627 200 516Q237 405 237 278Z"  horiz-adv-x="278" vert-adv-y="1000"  />

      
      <glyph glyph-name="uni2a" unicode="&#x2a;" d="M305 759L292 560L485 622L496 562L306 526L428 366L373 334L273 506L177 334L121 366L242 526L52 562L63 622L255 560L242 759L305 759Z"  horiz-adv-x="551" vert-adv-y="1000"  />

      
      <glyph glyph-name="uni2b" unicode="&#x2b;" d="M309 377L518 377L518 329L309 329L309 117L261 117L261 329L53 329L53 377L261 377L261 589L309 589L309 377Z"  horiz-adv-x="571" vert-adv-y="1000"  />

      
      <glyph glyph-name="uni2c" unicode="&#x2c;" d="M159 105Q146 50 126-13Q106-76 83-129L40-129Q76 4 93 116L154 116L159 105Z"  horiz-adv-x="226" vert-adv-y="1000"  />

      
      <glyph glyph-name="uni2d" unicode="&#x2d;" d="M40 244L40 296L282 296L282 244L40 244Z"  horiz-adv-x="322" vert-adv-y="1000"  />

      
      <glyph glyph-name="uni2e" unicode="&#x2e;" d="M79 39Q79 88 122 88Q167 88 167 39Q167-11 122-11Q79-11 79 39Z"  horiz-adv-x="244" vert-adv-y="1000"  />

      
      <glyph glyph-name="uni2f" unicode="&#x2f;" d="M336 714L69 0L12 0L279 714L336 714Z"  horiz-adv-x="347" vert-adv-y="1000"  />

      
      <glyph glyph-name="uni30" unicode="&#x30;" d="M515 359Q515 181 460 85.50Q405-10 285-10Q172-10 114 84Q56 178 56 359Q56 469 78 551Q100 633 151 679Q202 725 286 725Q368 725 418.50 680Q469 635 492 553Q515 471 515 359M113 359Q113 197 154.50 118.50Q196 40 285 40Q377 40 417 119Q457 198 457 359Q457 459 441.50 529.50Q426 600 388.50 637.50Q351 675 286 675Q221 675 183.50 637Q146 599 129.50 528Q113 457 113 359Z"  horiz-adv-x="571" vert-adv-y="1000"  />

      
      <glyph glyph-name="uni31" unicode="&#x31;" d="M338 0L282 0L282 531Q282 574 282.50 601.50Q283 629 284 654Q270 640 257.50 630Q245 620 226 605L127 528L96 568L290 714L338 714L338 0Z"  horiz-adv-x="571" vert-adv-y="1000"  />

      
      <glyph glyph-name="uni32" unicode="&#x32;" d="M506 0L54 0L54 48L259 261Q310 314 345 356Q380 398 398 440Q416 482 416 534Q416 601 377 637.50Q338 674 272 674Q224 674 182 657Q140 640 99 608L68 648Q112 684 164 704Q216 724 272 724Q364 724 419.50 673Q475 622 475 537Q475 479 454 431Q433 383 395 337Q357 291 306 239L127 55L127 53L506 53L506 0Z"  horiz-adv-x="571" vert-adv-y="1000"  />

      
      <glyph glyph-name="uni33" unicode="&#x33;" d="M482 549Q482 478 440 433Q398 388 332 376L332 373Q504 350 504 199Q504 107 439.50 48.50Q375-10 244-10Q130-10 46 31L46 86Q87 65 140 52.50Q193 40 245 40Q347 40 395.50 83Q444 126 444 200Q444 278 386 311.50Q328 345 231 345L155 345L155 395L232 395Q315 395 369 433.50Q423 472 423 546Q423 609 382 642Q341 675 273 675Q216 675 170.50 657.50Q125 640 81 610L52 650Q93 682 148.50 703Q204 724 273 724Q372 724 427 676.50Q482 629 482 549Z"  horiz-adv-x="571" vert-adv-y="1000"  />

      
      <glyph glyph-name="uni34" unicode="&#x34;" d="M556 178L437 178L437 0L382 0L382 178L23 178L23 225L378 718L437 718L437 230L556 230L556 178M382 495Q382 534 382 561Q382 588 383 609.50Q384 631 385 655L382 655Q369 632 357 612Q345 592 328 569L84 230L382 230L382 495Z"  horiz-adv-x="571" vert-adv-y="1000"  />

      
      <glyph glyph-name="uni35" unicode="&#x35;" d="M275 432Q383 432 446.50 377.50Q510 323 510 223Q510 114 440 52Q370-10 251-10Q194-10 147.50 1Q101 12 69 31L69 87Q103 66 151.50 53Q200 40 251 40Q341 40 396.50 85.50Q452 131 452 218Q452 296 404.50 339.50Q357 383 260 383Q223 383 186.50 377Q150 371 121 364L89 385L118 714L464 714L464 662L167 662L146 417Q167 421 199 426.50Q231 432 275 432Z"  horiz-adv-x="571" vert-adv-y="1000"  />

      
      <glyph glyph-name="uni36" unicode="&#x36;" d="M62 304Q62 432 94 526.50Q126 621 195.50 673Q265 725 375 725Q429 725 468 714L468 663Q429 677 376 677Q247 677 185 590Q123 503 118 343L122 343Q143 381 189.50 412Q236 443 311 443Q407 443 463 385.50Q519 328 519 228Q519 120 460.50 55Q402-10 299-10Q222-10 169 30.50Q116 71 89 141.50Q62 212 62 304M298 40Q375 40 418.50 88Q462 136 462 228Q462 306 422 351Q382 396 302 396Q247 396 206.50 373.50Q166 351 144 318Q122 285 122 253Q122 221 131 184.50Q140 148 160.50 115Q181 82 215 61Q249 40 298 40Z"  horiz-adv-x="571" vert-adv-y="1000"  />

      
      <glyph glyph-name="uni37" unicode="&#x37;" d="M160 0L455 662L51 662L51 714L517 714L517 672L223 0L160 0Z"  horiz-adv-x="571" vert-adv-y="1000"  />

      
      <glyph glyph-name="uni38" unicode="&#x38;" d="M284 724Q376 724 432.50 680.50Q489 637 489 557Q489 492 446.50 450.50Q404 409 339 380Q416 349 464.50 303.50Q513 258 513 183Q513 122 483.50 79Q454 36 402 13Q350-10 284-10Q179-10 118 41Q57 92 57 179Q57 256 104.50 302.50Q152 349 224 377Q184 396 151 419.50Q118 443 99 476.50Q80 510 80 557Q80 609 106 646.50Q132 684 178.50 704Q225 724 284 724M284 676Q219 676 177.50 644.50Q136 613 136 555Q136 495 178.50 461.50Q221 428 288 403Q355 431 393.50 465Q432 499 432 556Q432 615 392 645.50Q352 676 284 676M113 178Q113 115 157.50 76.50Q202 38 283 38Q362 38 409 76Q456 114 456 183Q456 241 414.50 279Q373 317 298 345L276 353Q203 325 158 285.50Q113 246 113 178Z"  horiz-adv-x="571" vert-adv-y="1000"  />

      
      <glyph glyph-name="uni39" unicode="&#x39;" d="M510 411Q510 283 477.50 188.50Q445 94 376 41.50Q307-11 197-11Q172-11 144-8Q116-5 98 1L98 52Q116 46 142.50 42Q169 38 196 38Q324 38 386.50 125Q449 212 453 372L449 372Q428 333 381 302Q334 271 259 271Q163 271 108 328.50Q53 386 53 487Q53 595 112 659.50Q171 724 274 724Q351 724 403.50 684Q456 644 483 573.50Q510 503 510 411M274 675Q197 675 153.50 626.50Q110 578 110 488Q110 409 149 363.50Q188 318 269 318Q325 318 365.50 340.50Q406 363 428 396.50Q450 430 450 463Q450 493 440.50 529.50Q431 566 411 599Q391 632 357 653.50Q323 675 274 675Z"  horiz-adv-x="571" vert-adv-y="1000"  />

      
      <glyph glyph-name="uni3a" unicode="&#x3a;" d="M79 492Q79 541 122 541Q167 541 167 492Q167 442 122 442Q79 442 79 492M79 39Q79 88 122 88Q167 88 167 39Q167-11 122-11Q79-11 79 39Z"  horiz-adv-x="244" vert-adv-y="1000"  />

      
      <glyph glyph-name="uni3b" unicode="&#x3b;" d="M78 492Q78 541 121 541Q166 541 166 492Q166 442 121 442Q78 442 78 492M154 105Q142 51 121.50-12.50Q101-76 79-129L35-129Q53-64 66.50-1.50Q80 61 88 116L149 116L154 105Z"  horiz-adv-x="244" vert-adv-y="1000"  />

      
      <glyph glyph-name="uni3c" unicode="&#x3c;" d="M518 127L53 338L53 372L518 597L518 545L118 357L518 179L518 127Z"  horiz-adv-x="571" vert-adv-y="1000"  />

      
      <glyph glyph-name="uni3d" unicode="&#x3d;" d="M56 430L56 477L515 477L515 430L56 430M56 228L56 276L515 276L515 228L56 228Z"  horiz-adv-x="571" vert-adv-y="1000"  />

      
      <glyph glyph-name="uni3e" unicode="&#x3e;" d="M53 179L453 357L53 545L53 597L518 372L518 338L53 127L53 179Z"  horiz-adv-x="571" vert-adv-y="1000"  />

      
      <glyph glyph-name="uni3f" unicode="&#x3f;" d="M142 207Q142 251 149 280.50Q156 310 174.50 334.50Q193 359 227 385Q264 414 288 437Q312 460 324 486.50Q336 513 336 551Q336 612 298 642.50Q260 673 196 673Q152 673 116.50 662.50Q81 652 46 635L25 683Q67 703 107.50 713.50Q148 724 199 724Q288 724 339.50 679.50Q391 635 391 552Q391 504 375.50 470.50Q360 437 332 410Q304 383 266 354Q236 331 219.50 310Q203 289 196.50 264Q190 239 190 202L190 188L142 188L142 207M125 39Q125 88 169 88Q213 88 213 39Q213-11 169-11Q125-11 125 39Z"  horiz-adv-x="424" vert-adv-y="1000"  />

      
      <glyph glyph-name="uni40" unicode="&#x40;" d="M834 354Q834 289 815.50 233Q797 177 761 142.50Q725 108 669 108Q624 108 596 134.50Q568 161 565 204L562 204Q541 158 503 133Q465 108 414 108Q339 108 298.50 156Q258 204 258 290Q258 354 284.50 404.50Q311 455 358.50 484Q406 513 470 513Q510 513 547 506.50Q584 500 611 491L602 317Q601 299 600.50 282.50Q600 266 600 252Q600 198 618.50 175Q637 152 672 152Q710 152 735 178.50Q760 205 772.50 251Q785 297 785 355Q785 450 747 519.50Q709 589 639.50 627Q570 665 475 665Q361 665 278 618Q195 571 150 485.50Q105 400 105 284Q105 126 188 38.50Q271-49 424-49Q479-49 533-37Q587-25 632-7L632-55Q589-73 536.50-83.50Q484-94 424-94Q309-94 226-49Q143-4 99 80.50Q55 165 55 282Q55 412 107 508.50Q159 605 253 657.50Q347 710 475 710Q582 710 663 666.50Q744 623 789 543.50Q834 464 834 354M311 289Q311 152 421 152Q483 152 515 195Q547 238 552 319L559 457Q541 462 518.50 465.50Q496 469 471 469Q419 469 383 445Q347 421 329 380Q311 339 311 289Z"  horiz-adv-x="889" vert-adv-y="1000"  />

      
      <glyph glyph-name="uni41" unicode="&#x41;" d="M547 0L452 246L156 246L60 0L0 0L281 717L334 717L608 0L547 0M339 556Q333 570 323 600Q313 630 306 653Q298 626 289 600Q280 574 274 555L175 299L434 299L339 556Z"  horiz-adv-x="608" vert-adv-y="1000"  />

      
      <glyph glyph-name="uni42" unicode="&#x42;" d="M298 714Q430 714 493 672.50Q556 631 556 540Q556 478 520.50 434Q485 390 417 378L417 375Q495 362 536 320Q577 278 577 203Q577 134 545 89Q513 44 456.50 22Q400 0 326 0L100 0L100 714L298 714M311 399Q410 399 453 433Q496 467 496 534Q496 603 449 633Q402 663 298 663L158 663L158 399L311 399M158 349L158 51L321 51Q419 51 467 90.50Q515 130 515 206Q515 280 465 314.50Q415 349 312 349L158 349Z"  horiz-adv-x="632" vert-adv-y="1000"  />

      
      <glyph glyph-name="uni43" unicode="&#x43;" d="M404 672Q316 672 253 632.50Q190 593 156.50 522.50Q123 452 123 359Q123 263 153 191.50Q183 120 243.50 81Q304 42 394 42Q446 42 489.50 50Q533 58 572 71L572 20Q535 6 491-2Q447-10 388-10Q280-10 207.50 36Q135 82 98.50 165Q62 248 62 359Q62 465 102.50 547.50Q143 630 219.50 677Q296 724 405 724Q509 724 592 685L569 634Q492 672 404 672Z"  horiz-adv-x="623" vert-adv-y="1000"  />

      
      <glyph glyph-name="uni44" unicode="&#x44;" d="M649 364Q649 184 553.50 92Q458 0 277 0L100 0L100 714L299 714Q468 714 558.50 624.50Q649 535 649 364M588 362Q588 663 287 663L158 663L158 51L272 51Q588 51 588 362Z"  horiz-adv-x="711" vert-adv-y="1000"  />

      
      <glyph glyph-name="uni45" unicode="&#x45;" d="M492 0L100 0L100 714L492 714L492 662L158 662L158 401L473 401L473 349L158 349L158 52L492 52L492 0Z"  horiz-adv-x="553" vert-adv-y="1000"  />

      
      <glyph glyph-name="uni46" unicode="&#x46;" d="M158 0L100 0L100 714L493 714L493 662L158 662L158 368L474 368L474 316L158 316L158 0Z"  horiz-adv-x="506" vert-adv-y="1000"  />

      
      <glyph glyph-name="uni47" unicode="&#x47;" d="M387 364L647 364L647 32Q542-10 410-10Q240-10 151 87Q62 184 62 356Q62 465 105.50 548Q149 631 231 678Q313 725 428 725Q544 725 638 682L615 631Q570 651 522 662Q474 673 425 673Q330 673 262.50 633Q195 593 159 522Q123 451 123 357Q123 202 199 122Q275 42 422 42Q474 42 515 49Q556 56 589 68L589 311L387 311L387 364Z"  horiz-adv-x="724" vert-adv-y="1000"  />

      
      <glyph glyph-name="uni48" unicode="&#x48;" d="M623 0L565 0L565 348L158 348L158 0L100 0L100 714L158 714L158 400L565 400L565 714L623 714L623 0Z"  horiz-adv-x="724" vert-adv-y="1000"  />

      
      <glyph glyph-name="uni49" unicode="&#x49;" d="M261 0L51 0L51 36L127 47L127 666L51 678L51 714L261 714L261 678L185 666L185 47L261 36L261 0Z"  horiz-adv-x="311" vert-adv-y="1000"  />

      
      <glyph glyph-name="uni4a" unicode="&#x4a;" d="M-11-182Q-37-182-56-178.50Q-75-175-88-169L-88-117Q-73-123-53.50-126Q-34-129-12-129Q99-129 99 5L99 714L157 714L157 7Q157-82 115-132Q73-182-11-182Z"  horiz-adv-x="252" vert-adv-y="1000"  />

      
      <glyph glyph-name="uni4b" unicode="&#x4b;" d="M589 0L519 0L247 370L158 285L158 0L100 0L100 714L158 714L158 343Q179 366 200.50 389.50Q222 413 245 437L509 714L580 714L290 410L589 0Z"  horiz-adv-x="589" vert-adv-y="1000"  />

      
      <glyph glyph-name="uni4c" unicode="&#x4c;" d="M100 0L100 714L158 714L158 53L493 53L493 0L100 0Z"  horiz-adv-x="515" vert-adv-y="1000"  />

      
      <glyph glyph-name="uni4d" unicode="&#x4d;" d="M410 0L154 653L151 653Q152 625 153.50 589.50Q155 554 155 515L155 0L100 0L100 714L188 714L434 89L437 89L686 714L772 714L772 0L714 0L714 521Q714 554 715.50 588.50Q717 623 718 652L715 652L457 0L410 0Z"  horiz-adv-x="872" vert-adv-y="1000"  />

      
      <glyph glyph-name="uni4e" unicode="&#x4e;" d="M629 0L567 0L153 624L150 624Q152 585 153.50 541.50Q155 498 155 451L155 0L100 0L100 714L162 714L575 92L578 92Q576 123 575 171Q574 219 574 261L574 714L629 714L629 0Z"  horiz-adv-x="729" vert-adv-y="1000"  />

      
      <glyph glyph-name="uni4f" unicode="&#x4f;" d="M705 358Q705 249 669 166Q633 83 561.50 36.50Q490-10 384-10Q276-10 204.50 36.50Q133 83 97.50 166.50Q62 250 62 359Q62 468 98.50 550Q135 632 207.50 678.50Q280 725 387 725Q490 725 561 680.50Q632 636 668.50 554Q705 472 705 358M123 359Q123 264 151 192.50Q179 121 237 81.50Q295 42 384 42Q474 42 531.50 81Q589 120 616.50 191.50Q644 263 644 358Q644 507 579.50 590Q515 673 387 673Q298 673 239 633.50Q180 594 151.50 523.50Q123 453 123 359Z"  horiz-adv-x="768" vert-adv-y="1000"  />

      
      <glyph glyph-name="uni50" unicode="&#x50;" d="M278 714Q535 714 535 512Q535 409 468.50 350.50Q402 292 263 292L158 292L158 0L100 0L100 714L278 714M272 663L158 663L158 343L257 343Q360 343 417.50 379Q475 415 475 509Q475 589 425.50 626Q376 663 272 663Z"  horiz-adv-x="589" vert-adv-y="1000"  />

      
      <glyph glyph-name="uni51" unicode="&#x51;" d="M705 358Q705 267 679.50 193Q654 119 603.50 69.50Q553 20 478 2L634-170L552-170L415-8Q407-9 399-9.50Q391-10 384-10Q276-10 204.50 36.50Q133 83 97.50 166.50Q62 250 62 359Q62 468 98.50 550Q135 632 207.50 678.50Q280 725 387 725Q490 725 561 680.50Q632 636 668.50 554Q705 472 705 358M123 359Q123 264 151 192.50Q179 121 237 81.50Q295 42 384 42Q474 42 531.50 81Q589 120 616.50 191.50Q644 263 644 358Q644 507 579.50 590Q515 673 387 673Q298 673 239 633.50Q180 594 151.50 523.50Q123 453 123 359Z"  horiz-adv-x="768" vert-adv-y="1000"  />

      
      <glyph glyph-name="uni52" unicode="&#x52;" d="M278 714Q406 714 470.50 669.50Q535 625 535 518Q535 436 491.50 389.50Q448 343 383 324L579 0L510 0L328 308L158 308L158 0L100 0L100 714L278 714M273 663L158 663L158 358L293 358Q380 358 427.50 398.50Q475 439 475 516Q475 598 425 630.50Q375 663 273 663Z"  horiz-adv-x="600" vert-adv-y="1000"  />

      
      <glyph glyph-name="uni53" unicode="&#x53;" d="M496 186Q496 122 464 78Q432 34 376 12Q320-10 249-10Q184-10 136-1Q88 8 54 22L54 79Q91 64 142 53Q193 42 252 42Q334 42 385.50 77Q437 112 437 182Q437 224 417.50 251.50Q398 279 357.50 299.50Q317 320 254 341Q194 361 151 386Q108 411 85 448.50Q62 486 62 543Q62 601 91.50 641.50Q121 682 172.50 703Q224 724 290 724Q342 724 389 714Q436 704 478 686L459 636Q373 672 288 672Q214 672 167.50 639.50Q121 607 121 544Q121 498 141 470.50Q161 443 199 424Q237 405 292 386Q355 364 400.50 340Q446 316 471 279.50Q496 243 496 186Z"  horiz-adv-x="546" vert-adv-y="1000"  />

      
      <glyph glyph-name="uni54" unicode="&#x54;" d="M294 0L236 0L236 662L6 662L6 714L524 714L524 662L294 662L294 0Z"  horiz-adv-x="531" vert-adv-y="1000"  />

      
      <glyph glyph-name="uni55" unicode="&#x55;" d="M629 252Q629 130 558.50 60Q488-10 359-10Q230-10 161.50 60Q93 130 93 254L93 714L151 714L151 254Q151 150 205 96Q259 42 362 42Q463 42 517.50 96.50Q572 151 572 248L572 714L629 714L629 252Z"  horiz-adv-x="722" vert-adv-y="1000"  />

      
      <glyph glyph-name="uni56" unicode="&#x56;" d="M582 714L320 0L262 0L0 714L61 714L250 200Q276 126 291 69Q304 123 333 201L520 714L582 714Z"  horiz-adv-x="582" vert-adv-y="1000"  />

      
      <glyph glyph-name="uni57" unicode="&#x57;" d="M878 714L684 0L627 0L477 525Q466 561 458 591.50Q450 622 446 642Q443 623 436.50 594.50Q430 566 421 535L272 0L215 0L23 714L83 714L213 224Q223 182 231.50 147.50Q240 113 246 80Q252 114 260 150Q268 186 280 227L418 714L477 714L619 224Q631 181 639.50 145.50Q648 110 654 78Q659 111 666.50 145.50Q674 180 686 224L818 714L878 714Z"  horiz-adv-x="900" vert-adv-y="1000"  />

      
      <glyph glyph-name="uni58" unicode="&#x58;" d="M547 0L481 0L274 330L64 0L1 0L240 371L21 714L86 714L276 412L467 714L530 714L309 372L547 0Z"  horiz-adv-x="548" vert-adv-y="1000"  />

      
      <glyph glyph-name="uni59" unicode="&#x59;" d="M268 332L472 714L536 714L298 276L298 0L240 0L240 272L0 714L64 714L268 332Z"  horiz-adv-x="536" vert-adv-y="1000"  />

      
      <glyph glyph-name="uni5a" unicode="&#x5a;" d="M536 0L37 0L37 43L452 662L57 662L57 714L525 714L525 671L110 53L536 53L536 0Z"  horiz-adv-x="575" vert-adv-y="1000"  />

      
      <glyph glyph-name="uni5b" unicode="&#x5b;" d="M296-158L84-158L84 714L296 714L296 666L140 666L140-109L296-109L296-158Z"  horiz-adv-x="321" vert-adv-y="1000"  />

      
      <glyph glyph-name="uni5c" unicode="&#x5c;" d="M69 714L336 0L279 0L12 714L69 714Z"  horiz-adv-x="347" vert-adv-y="1000"  />

      
      <glyph glyph-name="uni5d" unicode="&#x5d;" d="M25-109L182-109L182 666L25 666L25 714L237 714L237-158L25-158L25-109Z"  horiz-adv-x="321" vert-adv-y="1000"  />

      
      <glyph glyph-name="uni5e" unicode="&#x5e;" d="M42 273L266 719L303 719L529 273L476 273L284 656L96 273L42 273Z"  horiz-adv-x="571" vert-adv-y="1000"  />

      
      <glyph glyph-name="uni5f" unicode="&#x5f;" d="M420-135L-2-135L-2-90L420-90L420-135Z"  horiz-adv-x="418" vert-adv-y="1000"  />

      
      <glyph glyph-name="uni60" unicode="&#x60;" d="M108 766Q120 744 140.50 716Q161 688 183.50 661Q206 634 225 615L225 606L185 606Q160 626 132 653.50Q104 681 79.50 709Q55 737 40 758L40 766L108 766Z"  horiz-adv-x="265" vert-adv-y="1000"  />

      
      <glyph glyph-name="uni61" unicode="&#x61;" d="M276 541Q366 541 410 497Q454 453 454 358L454 0L411 0L401 90L398 90Q369 45 327.50 17.50Q286-10 212-10Q135-10 91 28.50Q47 67 47 139Q47 219 112 260.50Q177 302 301 307L398 312L398 349Q398 427 366.50 460Q335 493 274 493Q233 493 195 482Q157 471 119 453L101 499Q139 517 183.50 529Q228 541 276 541M308 265Q206 260 156.50 229.50Q107 199 107 139Q107 89 137.50 63.50Q168 38 222 38Q305 38 351 85.50Q397 133 398 217L398 269L308 265Z"  horiz-adv-x="536" vert-adv-y="1000"  />

      
      <glyph glyph-name="uni62" unicode="&#x62;" d="M144 550Q144 521 143 488.50Q142 456 141 436L144 436Q164 481 210 511.50Q256 542 325 542Q427 542 484.50 472.50Q542 403 542 267Q542 141 484.50 65.50Q427-10 317-10Q250-10 207.50 17.50Q165 45 145 86L141 86L130 0L87 0L87 760L144 760L144 550M318 493Q225 493 184.50 435Q144 377 144 267L144 260Q144 152 182.50 95.50Q221 39 311 39Q396 39 439.50 98.50Q483 158 483 268Q483 493 318 493Z"  horiz-adv-x="599" vert-adv-y="1000"  />

      
      <glyph glyph-name="uni63" unicode="&#x63;" d="M301-10Q184-10 120.50 62Q57 134 57 263Q57 353 89 415Q121 477 178.50 509.50Q236 542 313 542Q351 542 385 535Q419 528 445 516L429 467Q402 478 371 484.50Q340 491 312 491Q217 491 166.50 430Q116 369 116 264Q116 164 161 102.50Q206 41 301 41Q340 41 375 49Q410 57 438 69L438 18Q412 5 378.50-2.50Q345-10 301-10Z"  horiz-adv-x="476" vert-adv-y="1000"  />

      
      <glyph glyph-name="uni64" unicode="&#x64;" d="M279-10Q172-10 114.50 58.50Q57 127 57 261Q57 398 117 470Q177 542 284 542Q351 542 392.50 512.50Q434 483 455 441L459 441Q458 464 456.50 492.50Q455 521 455 545L455 760L512 760L512 0L466 0L458 93L455 93Q434 50 392 20Q350-10 279-10M286 39Q378 39 417 95Q456 151 456 257L456 266Q456 376 417.50 434.50Q379 493 290 493Q204 493 160 432.50Q116 372 116 260Q116 152 158 95.50Q200 39 286 39Z"  horiz-adv-x="599" vert-adv-y="1000"  />

      
      <glyph glyph-name="uni65" unicode="&#x65;" d="M290 542Q358 542 403.50 510.50Q449 479 472.50 424Q496 369 496 298L496 259L116 259Q116 153 165.50 96.50Q215 40 307 40Q356 40 393 48.50Q430 57 474 76L474 24Q434 6 395-2Q356-10 305-10Q185-10 121 63Q57 136 57 262Q57 343 84.50 406Q112 469 164 505.50Q216 542 290 542M289 494Q216 494 170.50 445Q125 396 118 306L437 306Q437 390 400.50 442Q364 494 289 494Z"  horiz-adv-x="552" vert-adv-y="1000"  />

      
      <glyph glyph-name="uni66" unicode="&#x66;" d="M295 486L168 486L168 0L111 0L111 486L13 486L13 517L111 534L111 587Q111 765 270 765Q298 765 321 760.50Q344 756 363 750L350 703Q332 709 311.50 713Q291 717 271 717Q217 717 192.50 686Q168 655 168 587L168 532L295 532L295 486Z"  horiz-adv-x="309" vert-adv-y="1000"  />

      
      <glyph glyph-name="uni67" unicode="&#x67;" d="M283 542Q345 542 386.50 517.50Q428 493 453 451L457 451L465 532L511 532L511-17Q511-122 457-181Q403-240 282-240Q222-240 175.50-230.50Q129-221 92-204L92-149Q129-168 178-179.50Q227-191 284-191Q371-191 413-145Q455-99 455-20L455 11Q455 32 455.50 53.50Q456 75 457 94L454 94Q408-10 276-10Q173-10 115 60Q57 130 57 262Q57 391 115 466.50Q173 542 283 542M289 493Q202 493 159 432Q116 371 116 261Q116 153 159 96Q202 39 283 39Q349 39 386.50 65.50Q424 92 439.50 139Q455 186 455 246L455 281Q455 382 417.50 437.50Q380 493 289 493Z"  horiz-adv-x="599" vert-adv-y="1000"  />

      
      <glyph glyph-name="uni68" unicode="&#x68;" d="M145 517Q145 496 144 477Q143 458 141 440L145 440Q166 484 211.50 513Q257 542 325 542Q417 542 465 495Q513 448 513 348L513 0L457 0L457 344Q457 420 422 456.50Q387 493 320 493Q145 493 145 290L145 0L88 0L88 760L145 760L145 517Z"  horiz-adv-x="596" vert-adv-y="1000"  />

      
      <glyph glyph-name="uni69" unicode="&#x69;" d="M117 729Q156 729 156 686Q156 642 117 642Q78 642 78 686Q78 729 117 729M145 532L145 0L88 0L88 532L145 532Z"  horiz-adv-x="233" vert-adv-y="1000"  />

      
      <glyph glyph-name="uni6a" unicode="&#x6a;" d="M78 686Q78 729 117 729Q156 729 156 686Q156 642 117 642Q78 642 78 686M17-240Q-6-240-23-237Q-40-234-52-229L-52-180Q-24-191 11-191Q47-191 67.50-169Q88-147 88-99L88 532L145 532L145-100Q145-168 111-204Q77-240 17-240Z"  horiz-adv-x="233" vert-adv-y="1000"  />

      
      <glyph glyph-name="uni6b" unicode="&#x6b;" d="M144 374Q144 342 143 307.50Q142 273 142 240L143 240Q156 255 172.50 275Q189 295 204 312L406 532L475 532L264 304L492 0L424 0L225 267L144 185L144 0L88 0L88 760L144 760L144 374Z"  horiz-adv-x="494" vert-adv-y="1000"  />

      
      <glyph glyph-name="uni6c" unicode="&#x6c;" d="M145 0L88 0L88 760L145 760L145 0Z"  horiz-adv-x="233" vert-adv-y="1000"  />

      
      <glyph glyph-name="uni6d" unicode="&#x6d;" d="M644 542Q723 542 767.50 497Q812 452 812 355L812 0L756 0L756 353Q756 424 723.50 458.50Q691 493 636 493Q560 493 519 448.50Q478 404 478 311L478 0L422 0L422 353Q422 424 389.50 458.50Q357 493 302 493Q226 493 185.50 446Q145 399 145 302L145 0L88 0L88 532L134 532L142 448L146 448Q166 487 206.50 514.50Q247 542 310 542Q368 542 408 517Q448 492 465 443L468 443Q491 490 536.50 516Q582 542 644 542Z"  horiz-adv-x="894" vert-adv-y="1000"  />

      
      <glyph glyph-name="uni6e" unicode="&#x6e;" d="M326 542Q417 542 465 495Q513 448 513 348L513 0L457 0L457 344Q457 420 422 456.50Q387 493 320 493Q145 493 145 290L145 0L88 0L88 532L134 532L142 440L146 440Q167 484 213 513Q259 542 326 542Z"  horiz-adv-x="596" vert-adv-y="1000"  />

      
      <glyph glyph-name="uni6f" unicode="&#x6f;" d="M533 267Q533 183 505.50 121Q478 59 424.50 24.50Q371-10 294-10Q220-10 167 24Q114 58 85.50 120.50Q57 183 57 267Q57 396 121 469Q185 542 298 542Q374 542 426.50 507.50Q479 473 506 411Q533 349 533 267M116 267Q116 164 159.50 101.50Q203 39 295 39Q388 39 431 102Q474 165 474 267Q474 333 456 384Q438 435 399 464Q360 493 297 493Q207 493 161.50 433Q116 373 116 267Z"  horiz-adv-x="590" vert-adv-y="1000"  />

      
      <glyph glyph-name="uni70" unicode="&#x70;" d="M327 542Q429 542 486 473Q543 404 543 269Q543 134 483.50 62Q424-10 321-10Q251-10 208 20Q165 50 145 92L141 92Q143 67 144 37.50Q145 8 145-17L145-236L88-236L88 532L135 532L142 433L145 433Q165 476 209 509Q253 542 327 542M319 493Q230 493 188 437Q146 381 145 276L145 266Q145 152 186.50 95.50Q228 39 315 39Q397 39 440.50 100.50Q484 162 484 270Q484 377 442.50 435Q401 493 319 493Z"  horiz-adv-x="599" vert-adv-y="1000"  />

      
      <glyph glyph-name="uni71" unicode="&#x71;" d="M454-4Q454 17 454.50 46.50Q455 76 457 97L453 97Q433 51 387 20.50Q341-10 271-10Q170-10 113 59.50Q56 129 56 265Q56 391 113.50 466.50Q171 542 281 542Q348 542 390 513Q432 484 453 444L456 444L465 532L511 532L511-236L454-236L454-4M280 39Q371 39 412 95Q453 151 454 257L454 271Q454 380 414.50 436.50Q375 493 287 493Q201 493 158 432Q115 371 115 264Q115 154 155.50 96.50Q196 39 280 39Z"  horiz-adv-x="599" vert-adv-y="1000"  />

      
      <glyph glyph-name="uni72" unicode="&#x72;" d="M307 541Q346 541 379 533L370 480Q338 489 304 489Q231 489 188 435Q145 381 145 292L145 0L88 0L88 532L136 532L142 433L145 433Q165 478 206 509.50Q247 541 307 541Z"  horiz-adv-x="394" vert-adv-y="1000"  />

      
      <glyph glyph-name="uni73" unicode="&#x73;" d="M423 141Q423 69 369 29.50Q315-10 217-10Q161-10 118-0.50Q75 9 46 24L46 79Q81 61 126 49.50Q171 38 218 38Q296 38 331.50 64.50Q367 91 367 137Q367 181 330 204.50Q293 228 221 253Q171 270 133.50 287.50Q96 305 75 332Q54 359 54 406Q54 470 106 506Q158 542 245 542Q293 542 334.50 533Q376 524 411 509L390 462Q359 475 320 484.50Q281 494 242 494Q179 494 144 472Q109 450 109 408Q109 376 126 357.50Q143 339 175 326Q207 313 253 297Q301 280 339 262Q377 244 400 216Q423 188 423 141Z"  horiz-adv-x="469" vert-adv-y="1000"  />

      
      <glyph glyph-name="uni74" unicode="&#x74;" d="M238 39Q260 39 280 42Q300 45 315 51L315 5Q300-1 278-5.50Q256-10 231-10Q164-10 128 27Q92 64 92 148L92 486L13 486L13 518L92 537L112 659L149 659L149 532L312 532L312 486L149 486L149 151Q149 39 238 39Z"  horiz-adv-x="340" vert-adv-y="1000"  />

      
      <glyph glyph-name="uni75" unicode="&#x75;" d="M507 532L507 0L461 0L452 91L449 91Q427 47 381.50 18.50Q336-10 268-10Q81-10 81 184L81 532L138 532L138 189Q138 112 172.50 75.50Q207 39 275 39Q450 39 450 242L450 532L507 532Z"  horiz-adv-x="596" vert-adv-y="1000"  />

      
      <glyph glyph-name="uni76" unicode="&#x76;" d="M204 0L0 532L61 532L193 179Q205 146 215.50 114Q226 82 233 57L236 57Q243 82 254 114.50Q265 147 277 179L409 532L469 532L265 0L204 0Z"  horiz-adv-x="469" vert-adv-y="1000"  />

      
      <glyph glyph-name="uni77" unicode="&#x77;" d="M406 346Q395 379 387 409Q379 439 373 464L370 464Q364 439 356 408.50Q348 378 337 345L225 0L164 0L14 532L74 532L163 204Q175 159 183 125.50Q191 92 196 66L199 66Q204 90 212.50 123Q221 156 234 196L344 532L402 532L508 196Q519 160 528.50 126Q538 92 543 67L546 67Q549 91 557 125Q565 159 577 204L664 532L722 532L577 0L515 0L406 346Z"  horiz-adv-x="736" vert-adv-y="1000"  />

      
      <glyph glyph-name="uni78" unicode="&#x78;" d="M216 273L31 532L97 532L251 312L404 532L469 532L285 273L480 0L414 0L251 234L87 0L22 0L216 273Z"  horiz-adv-x="504" vert-adv-y="1000"  />

      
      <glyph glyph-name="uni79" unicode="&#x79;" d="M1 532L61 532L188 202Q204 157 216 122.50Q228 88 235 61L238 61Q253 111 285 200L409 532L470 532L230-94Q203-165 166-203Q129-241 66-241Q47-241 31.50-239Q16-237 3-232L3-184Q15-188 29-190.50Q43-193 59-193Q101-193 127.50-167Q154-141 175-87L209 2L1 532Z"  horiz-adv-x="469" vert-adv-y="1000"  />

      
      <glyph glyph-name="uni7a" unicode="&#x7a;" d="M422 0L40 0L40 38L352 486L62 486L62 532L420 532L420 492L109 47L422 47L422 0Z"  horiz-adv-x="463" vert-adv-y="1000"  />

      
      <glyph glyph-name="uni7b" unicode="&#x7b;" d="M324-158Q237-158 190-121Q143-84 143-11L143 148Q143 205 115 229.50Q87 254 27 254L27 303Q87 303 115 327Q143 351 143 408L143 568Q143 640 191 677Q239 714 324 714L324 666Q263 665 231.50 640Q200 615 200 561L200 404Q200 353 178 321.50Q156 290 106 281L106 277Q156 268 178 236Q200 204 200 153L200-6Q200-60 231-84.50Q262-109 324-109L324-158Z"  horiz-adv-x="359" vert-adv-y="1000"  />

      
      <glyph glyph-name="uni7c" unicode="&#x7c;" d="M246 762L295 762L295-246L246-246L246 762Z"  horiz-adv-x="543" vert-adv-y="1000"  />

      
      <glyph glyph-name="uni7d" unicode="&#x7d;" d="M34-109Q96-109 127-84.50Q158-60 158-6L158 153Q158 204 180.50 235.50Q203 267 252 276L252 280Q202 289 180 321Q158 353 158 404L158 561Q158 616 127 640.50Q96 665 34 666L34 714Q121 714 168 677Q215 640 215 567L215 409Q215 351 243 327Q271 303 331 303L331 254Q271 254 243 229.50Q215 205 215 149L215-11Q215-84 167-121Q119-158 34-158L34-109Z"  horiz-adv-x="359" vert-adv-y="1000"  />

      
      <glyph glyph-name="uni7e" unicode="&#x7e;" d="M276 331Q244 345 220.50 352.50Q197 360 169 360Q108 360 53 303L53 357Q102 408 172 408Q207 408 234 400Q261 392 299 375Q330 360 353.50 353Q377 346 403 346Q431 346 461 360Q491 374 518 403L518 350Q496 326 466.50 312Q437 298 401 298Q368 298 340.50 305.50Q313 313 276 331Z"  horiz-adv-x="571" vert-adv-y="1000"  />

      
      <glyph glyph-name="unia1" unicode="&#xa1;" d="M167 492Q167 443 123 443Q79 443 79 492Q79 541 123 541Q167 541 167 492M101 342L142 342L156-184L88-184L101 342Z"  horiz-adv-x="246" vert-adv-y="1000"  />

      
      <glyph glyph-name="unia2" unicode="&#xa2;" d="M346 641Q384 640 416.50 633.50Q449 627 477 615L461 566Q433 577 401.50 584Q370 591 343 591Q248 591 197.50 530Q147 469 147 362Q147 259 192 199.50Q237 140 332 140Q372 140 406 147.50Q440 155 470 168L470 117Q445 105 414.50 97.50Q384 90 345 89L345-10L299-10L299 90Q196 99 142 168.50Q88 238 88 362Q88 486 145 556Q202 626 299 638L299 724L346 724L346 641Z"  horiz-adv-x="571" vert-adv-y="1000"  />

      
      <glyph glyph-name="unia3" unicode="&#xa3;" d="M339 723Q390 723 429.50 713Q469 703 501 688L481 641Q450 654 415.50 664Q381 674 340 674Q273 674 239 636.50Q205 599 205 519L205 373L407 373L407 328L205 328L205 202Q205 137 183 103Q161 69 131 53L527 53L527 0L37 0L37 49Q89 59 118.50 95Q148 131 148 201L148 328L47 328L47 373L148 373L148 525Q148 621 198.50 672Q249 723 339 723Z"  horiz-adv-x="571" vert-adv-y="1000"  />

      
      <glyph glyph-name="unia4" unicode="&#xa4;" d="M87 354Q87 421 130 476L58 549L90 580L162 509Q215 552 285 552Q354 552 408 509L480 580L511 548L441 476Q461 450 472.50 418.50Q484 387 484 354Q484 283 441 231L511 159L480 127L408 198Q354 156 285 156Q214 156 162 199L90 128L59 159L130 231Q87 285 87 354M132 354Q132 310 152.50 275Q173 240 208 220Q243 200 285 200Q328 200 363 220.50Q398 241 419 276.50Q440 312 440 354Q440 397 419 432Q398 467 363 488Q328 509 286 509Q243 509 208 488Q173 467 152.50 432Q132 397 132 354Z"  horiz-adv-x="571" vert-adv-y="1000"  />

      
      <glyph glyph-name="unia5" unicode="&#xa5;" d="M286 351L489 714L551 714L331 331L477 331L477 287L314 287L314 190L477 190L477 146L314 146L314 0L258 0L258 146L94 146L94 190L258 190L258 287L94 287L94 331L239 331L20 714L82 714L286 351Z"  horiz-adv-x="571" vert-adv-y="1000"  />

      
      <glyph glyph-name="unia6" unicode="&#xa6;" d="M246 762L295 762L295 387L246 387L246 762M246 129L295 129L295-246L246-246L246 129Z"  horiz-adv-x="543" vert-adv-y="1000"  />

      
      <glyph glyph-name="unia7" unicode="&#xa7;" d="M75 395Q75 444 102 475Q129 506 168 522Q128 539 103.50 564.50Q79 590 79 635Q79 694 128 728Q177 762 265 762Q316 762 354.50 753Q393 744 428 731L409 685Q378 699 341.50 707.50Q305 716 262 716Q133 716 133 636Q133 596 168.50 577Q204 558 271 535Q318 519 356 500.50Q394 482 416 454Q438 426 438 382Q438 333 413.50 299Q389 265 355 247Q391 230 413 204Q435 178 435 137Q435 72 382.50 34.50Q330-3 231-3Q177-3 134.50 6.50Q92 16 62 30L62 82Q97 65 141.50 54Q186 43 233 43Q313 43 346.50 68.50Q380 94 380 133Q380 173 345.50 194.50Q311 216 238 241Q190 258 153 276Q116 294 95.50 322Q75 350 75 395M125 400Q125 352 162 328.50Q199 305 268 281L309 267Q342 282 364.50 309.50Q387 337 387 376Q387 422 347.50 449Q308 476 220 501Q181 491 153 466Q125 441 125 400Z"  horiz-adv-x="516" vert-adv-y="1000"  />

      
      <glyph glyph-name="unia8" unicode="&#xa8;" d="M160 680Q160 720 195 720Q231 720 231 680Q231 639 195 639Q160 639 160 680M346 680Q346 720 381 720Q417 720 417 680Q417 639 381 639Q346 639 346 680Z"  horiz-adv-x="578" vert-adv-y="1000"  />

      
      <glyph glyph-name="unia9" unicode="&#xa9;" d="M416-9Q336-9 269 19Q202 47 153 96.50Q104 146 77 213Q50 280 50 357Q50 436 77.50 503Q105 570 155.50 619Q206 668 272.50 695.50Q339 723 416 723Q494 723 560.50 694.50Q627 666 677 615.50Q727 565 755 498.50Q783 432 783 357Q783 279 755 212.50Q727 146 677 96.50Q627 47 560.50 19Q494-9 416-9M416 30Q485 30 544 55Q603 80 647 125Q691 170 716 229.50Q741 289 741 357Q741 424 717 483Q693 542 649 587.50Q605 633 546 658.50Q487 684 416 684Q346 684 287 659.50Q228 635 183.50 590.50Q139 546 115 486.50Q91 427 91 357Q91 290 114.50 231Q138 172 181.50 126.50Q225 81 284.50 55.50Q344 30 416 30M433 138Q337 138 284.50 195Q232 252 232 357Q232 422 257 471.50Q282 521 328 548.50Q374 576 437 576Q474 576 504.50 568.50Q535 561 562 548L542 506Q518 518 492.50 524.50Q467 531 438 531Q368 531 326.50 484Q285 437 285 357Q285 271 324.50 227Q364 183 435 183Q464 183 491 188.50Q518 194 545 205L545 161Q520 150 494 144Q468 138 433 138Z"  horiz-adv-x="832" vert-adv-y="1000"  />

      
      <glyph glyph-name="uniaa" unicode="&#xaa;" d="M173 722Q288 722 288 616L288 396L253 396L245 440Q229 419 202.50 405Q176 391 139 391Q92 391 64.50 414Q37 437 37 484Q37 533 75 558Q113 583 194 586L244 588L244 615Q244 652 224 668Q204 684 172 684Q145 684 121 677Q97 670 74 658L58 695Q82 707 112 714.50Q142 722 173 722M197 551Q134 548 108 532.50Q82 517 82 484Q82 456 99 442.50Q116 429 147 429Q197 429 220.50 454.50Q244 480 244 524L244 553L197 551Z"  horiz-adv-x="340" vert-adv-y="1000"  />

      
      <glyph glyph-name="uniab" unicode="&#xab;" d="M33 278L193 472L233 448L94 272L233 96L193 72L33 265L33 278M217 278L378 472L417 448L278 272L417 96L378 72L217 265L217 278Z"  horiz-adv-x="449" vert-adv-y="1000"  />

      
      <glyph glyph-name="uniac" unicode="&#xac;" d="M509 377L509 130L462 130L462 329L53 329L53 377L509 377Z"  horiz-adv-x="571" vert-adv-y="1000"  />

      
      <glyph glyph-name="uniad" unicode="&#xad;" d="M40 244L40 296L282 296L282 244L40 244Z"  horiz-adv-x="322" vert-adv-y="1000"  />

      
      <glyph glyph-name="uniae" unicode="&#xae;" d="M416-9Q336-9 269 19Q202 47 153 96.50Q104 146 77 213Q50 280 50 357Q50 436 77.50 503Q105 570 155.50 619Q206 668 272.50 695.50Q339 723 416 723Q494 723 560.50 694.50Q627 666 677 615.50Q727 565 755 498.50Q783 432 783 357Q783 279 755 212.50Q727 146 677 96.50Q627 47 560.50 19Q494-9 416-9M416 30Q485 30 544 55Q603 80 647 125Q691 170 716 229.50Q741 289 741 357Q741 424 717 483Q693 542 649 587.50Q605 633 546 658.50Q487 684 416 684Q346 684 287 659.50Q228 635 183.50 590.50Q139 546 115 486.50Q91 427 91 357Q91 290 114.50 231Q138 172 181.50 126.50Q225 81 284.50 55.50Q344 30 416 30M289 141L289 572L412 572Q483 572 522 541.50Q561 511 561 448Q561 400 535.50 371.50Q510 343 475 331L590 141L531 141L427 318L339 318L339 141L289 141M409 360Q453 360 481.50 382Q510 404 510 447Q510 490 483.50 509Q457 528 409 528L339 528L339 360L409 360Z"  horiz-adv-x="832" vert-adv-y="1000"  />

      
      <glyph glyph-name="uniaf" unicode="&#xaf;" d="M503 760L-3 760L-3 806L503 806L503 760Z"  horiz-adv-x="500" vert-adv-y="1000"  />

      
      <glyph glyph-name="unib0" unicode="&#xb0;" d="M214 429Q148 429 105.50 469.50Q63 510 63 577Q63 643 105 683.50Q147 724 214 724Q280 724 322.50 683Q365 642 365 577Q365 510 322.50 469.50Q280 429 214 429M214 471Q264 471 291.50 500.50Q319 530 319 577Q319 625 290.50 654Q262 683 214 683Q163 683 136 654Q109 625 109 577Q109 530 136 500.50Q163 471 214 471Z"  horiz-adv-x="428" vert-adv-y="1000"  />

      
      <glyph glyph-name="unib1" unicode="&#xb1;" d="M309 378L518 378L518 331L309 331L309 119L261 119L261 331L53 331L53 378L261 378L261 591L309 591L309 378M53 0L53 48L518 48L518 0L53 0Z"  horiz-adv-x="571" vert-adv-y="1000"  />

      
      <glyph glyph-name="unib2" unicode="&#xb2;" d="M307 416L26 416L26 454L145 573Q183 611 206.50 637.50Q230 664 241 687Q252 710 252 736Q252 771 230 792Q208 813 169 813Q138 813 112.50 802Q87 791 60 771L36 804Q64 827 97.50 840.50Q131 854 170 854Q231 854 266 822Q301 790 301 738Q301 704 286.50 675.50Q272 647 245 617.50Q218 588 180 551L88 460L307 460L307 416Z"  horiz-adv-x="339" vert-adv-y="1000"  />

      
      <glyph glyph-name="unib3" unicode="&#xb3;" d="M168 852Q231 852 266 823Q301 794 301 745Q301 704 279.50 677.50Q258 651 227 643L227 640Q267 632 290 606.50Q313 581 313 539Q313 480 271.50 445Q230 410 150 410Q78 410 22 437L22 482Q53 467 85.50 459Q118 451 150 451Q207 451 235 474.50Q263 498 263 540Q263 619 148 619L86 619L86 659L148 659Q199 659 225.50 681Q252 703 252 741Q252 775 229 793Q206 811 168 811Q134 811 106 800.50Q78 790 50 773L27 807Q56 828 90 840Q124 852 168 852Z"  horiz-adv-x="339" vert-adv-y="1000"  />

      
      <glyph glyph-name="unib4" unicode="&#xb4;" d="M225 758Q210 737 185.50 709Q161 681 133 653.50Q105 626 80 606L40 606L40 615Q59 634 81 661Q103 688 123.50 716Q144 744 157 766L225 766L225 758Z"  horiz-adv-x="265" vert-adv-y="1000"  />

      
      <glyph glyph-name="unib5" unicode="&#xb5;" d="M514 532L514 0L467 0L458 83L455 83Q432 42 393.50 16Q355-10 285-10Q232-10 197.50 7.50Q163 25 145 53L142 53Q143 34 143.50 7.50Q144-19 144-51L144-240L88-240L88 532L144 532L144 188Q144 39 288 39Q382 39 419.50 92Q457 145 457 242L457 532L514 532Z"  horiz-adv-x="602" vert-adv-y="1000"  />

      
      <glyph glyph-name="unib6" unicode="&#xb6;" d="M533-127L491-127L491 720L373 720L373-127L331-127L331 314Q300 305 260 305Q172 305 123.50 362.50Q75 420 75 533Q75 653 127.50 706.50Q180 760 275 760L533 760L533-127Z"  horiz-adv-x="655" vert-adv-y="1000"  />

      
      <glyph glyph-name="unib7" unicode="&#xb7;" d="M79 334Q79 383 122 383Q167 383 167 334Q167 284 122 284Q79 284 79 334Z"  horiz-adv-x="244" vert-adv-y="1000"  />

      
      <glyph glyph-name="unib8" unicode="&#xb8;" d="M196-142Q196-188 161.50-214Q127-240 66-240Q32-240 12-234L12-195Q32-200 67-200Q104-200 126-186.50Q148-173 148-143Q148-115 122.50-101.50Q97-88 51-85L95 0L136 0L107-59Q146-64 171-84.50Q196-105 196-142Z"  horiz-adv-x="209" vert-adv-y="1000"  />

      
      <glyph glyph-name="unib9" unicode="&#xb9;" d="M217 844L217 416L168 416L168 694Q168 721 168.50 747.50Q169 774 171 798Q157 788 143 778.50Q129 769 111 758L60 726L37 762L170 844L217 844Z"  horiz-adv-x="339" vert-adv-y="1000"  />

      
      <glyph glyph-name="uniba" unicode="&#xba;" d="M332 557Q332 481 292.50 435Q253 389 182 389Q114 389 74.50 434.50Q35 480 35 557Q35 635 75 679.50Q115 724 185 724Q256 724 294 678Q332 632 332 557M80 557Q80 497 105 462.50Q130 428 183 428Q236 428 261 462.50Q286 497 286 557Q286 615 262 650Q238 685 184 685Q132 685 106 652Q80 619 80 557Z"  horiz-adv-x="364" vert-adv-y="1000"  />

      
      <glyph glyph-name="unibb" unicode="&#xbb;" d="M416 266L255 72L216 96L355 272L216 448L255 472L416 279L416 266M232 266L72 72L33 96L171 272L33 448L72 472L232 279L232 266Z"  horiz-adv-x="449" vert-adv-y="1000"  />

      
      <glyph glyph-name="unibc" unicode="&#xbc;" d="M137 0L541 714L592 714L188 0L137 0M156 564Q156 591 156.50 617.50Q157 644 159 668Q145 658 131 648.50Q117 639 99 628L48 596L25 632L158 714L205 714L205 286L156 286L156 564M595 0L595 114L396 114L396 149L595 431L645 431L645 156L713 156L713 114L645 114L645 0L595 0M447 156L595 156L595 284Q595 307 595.50 330.50Q596 354 597 376Q590 362 578.50 344.50Q567 327 556 312L447 156Z"  horiz-adv-x="722" vert-adv-y="1000"  />

      
      <glyph glyph-name="unibd" unicode="&#xbd;" d="M122 0L526 714L577 714L173 0L122 0M150 564Q150 591 150.50 617.50Q151 644 153 668Q139 658 125 648.50Q111 639 93 628L42 596L19 632L152 714L199 714L199 286L150 286L150 564M444 0L444 38L563 157Q601 195 625 221.50Q649 248 660 271Q671 294 671 320Q671 355 649 376Q627 397 588 397Q557 397 531 386Q505 375 479 355L455 388Q483 411 516 424.50Q549 438 588 438Q650 438 685 406Q720 374 720 322Q720 288 705.50 259.50Q691 231 663.50 201.50Q636 172 598 135L506 44L725 44L725 0L444 0Z"  horiz-adv-x="758" vert-adv-y="1000"  />

      
      <glyph glyph-name="unibe" unicode="&#xbe;" d="M149 280Q77 280 21 307L21 352Q52 337 84.50 329Q117 321 149 321Q206 321 234 344.50Q262 368 262 410Q262 489 147 489L85 489L85 529L147 529Q198 529 224.50 551Q251 573 251 611Q251 645 228 663Q205 681 167 681Q133 681 105 670.50Q77 660 49 643L26 677Q55 698 89 710Q123 722 167 722Q230 722 265 693Q300 664 300 615Q300 574 278.50 547.50Q257 521 226 513L226 510Q266 502 289 476.50Q312 451 312 409Q312 350 270.50 315Q229 280 149 280M189 0L593 714L644 714L240 0L189 0M643 0L643 114L444 114L444 149L643 431L693 431L693 156L761 156L761 114L693 114L693 0L643 0M495 156L643 156L643 284Q643 307 643.50 330.50Q644 354 645 376Q638 362 626.50 344.50Q615 327 604 312L495 156Z"  horiz-adv-x="770" vert-adv-y="1000"  />

      
      <glyph glyph-name="unibf" unicode="&#xbf;" d="M282 325Q282 281 275 251.50Q268 222 249.50 197.50Q231 173 197 147Q160 118 136 95Q112 72 100 45.50Q88 19 88-19Q88-80 126-110.50Q164-141 228-141Q272-141 307.50-130.50Q343-120 378-103L399-151Q357-171 316.50-181.50Q276-192 225-192Q136-192 84.50-147.50Q33-103 33-20Q33 28 48.50 61.50Q64 95 92 122Q120 149 158 178Q188 201 204.50 222Q221 243 227.50 268Q234 293 234 330L234 344L282 344L282 325M299 493Q299 444 255 444Q211 444 211 493Q211 543 255 543Q299 543 299 493Z"  horiz-adv-x="424" vert-adv-y="1000"  />

      
      <glyph glyph-name="unic0" unicode="&#xc0;" d="M547 0L452 246L156 246L60 0L0 0L281 717L334 717L608 0L547 0M339 556Q333 570 323 600Q313 630 306 653Q298 626 289 600Q280 574 274 555L175 299L434 299L339 556M247 948Q259 926 279.50 898Q300 870 322.50 843Q345 816 364 797L364 788L324 788Q299 808 271 835.50Q243 863 218.50 891Q194 919 179 940L179 948L247 948Z"  horiz-adv-x="608" vert-adv-y="1000"  />

      
      <glyph glyph-name="unic1" unicode="&#xc1;" d="M547 0L452 246L156 246L60 0L0 0L281 717L334 717L608 0L547 0M339 556Q333 570 323 600Q313 630 306 653Q298 626 289 600Q280 574 274 555L175 299L434 299L339 556M448 940Q433 919 408.50 891Q384 863 356 835.50Q328 808 303 788L263 788L263 797Q282 816 304 843Q326 870 346.50 898Q367 926 380 948L448 948L448 940Z"  horiz-adv-x="608" vert-adv-y="1000"  />

      
      <glyph glyph-name="unic2" unicode="&#xc2;" d="M547 0L452 246L156 246L60 0L0 0L281 717L334 717L608 0L547 0M339 556Q333 570 323 600Q313 630 306 653Q298 626 289 600Q280 574 274 555L175 299L434 299L339 556M335 947Q347 925 368 897.50Q389 870 412 843Q435 816 454 797L454 788L413 788Q386 810 358 839Q330 868 306 896Q282 868 254.50 839Q227 810 200 788L159 788L159 797Q178 817 201 843.50Q224 870 245 897.50Q266 925 279 947L335 947Z"  horiz-adv-x="608" vert-adv-y="1000"  />

      
      <glyph glyph-name="unic3" unicode="&#xc3;" d="M547 0L452 246L156 246L60 0L0 0L281 717L334 717L608 0L547 0M339 556Q333 570 323 600Q313 630 306 653Q298 626 289 600Q280 574 274 555L175 299L434 299L339 556M121 794Q126 848 152 877.50Q178 907 221 907Q244 907 263.50 897Q283 887 300.50 874Q318 861 335 851Q352 841 370 841Q392 841 408 855.50Q424 870 430 908L467 908Q462 854 435.50 824Q409 794 367 794Q344 794 324.50 804Q305 814 288 827Q271 840 254 850Q237 860 218 860Q195 860 180 845.50Q165 831 159 794L121 794Z"  horiz-adv-x="608" vert-adv-y="1000"  />

      
      <glyph glyph-name="unic4" unicode="&#xc4;" d="M547 0L452 246L156 246L60 0L0 0L281 717L334 717L608 0L547 0M339 556Q333 570 323 600Q313 630 306 653Q298 626 289 600Q280 574 274 555L175 299L434 299L339 556M178 862Q178 902 213 902Q249 902 249 862Q249 821 213 821Q178 821 178 862M364 862Q364 902 399 902Q435 902 435 862Q435 821 399 821Q364 821 364 862Z"  horiz-adv-x="608" vert-adv-y="1000"  />

      
      <glyph glyph-name="unic5" unicode="&#xc5;" d="M547 0L452 246L156 246L60 0L0 0L281 717L334 717L608 0L547 0M339 556Q333 570 323 600Q313 630 306 653Q298 626 289 600Q280 574 274 555L175 299L434 299L339 556M305 682Q260 682 230 709.50Q200 737 200 785Q200 831 230 859Q260 887 305 887Q349 887 380 858.50Q411 830 411 785Q411 737 380.50 709.50Q350 682 305 682M305 719Q334 719 352.50 737.50Q371 756 371 785Q371 813 351.50 832Q332 851 305 851Q277 851 258 832Q239 813 239 785Q239 756 257 737.50Q275 719 305 719Z"  horiz-adv-x="608" vert-adv-y="1000"  />

      
      <glyph glyph-name="unic6" unicode="&#xc6;" d="M786 0L407 0L407 246L172 246L61 0L-1 0L322 714L786 714L786 662L465 662L465 401L766 401L766 349L465 349L465 52L786 52L786 0M195 298L407 298L407 662L357 662L195 298Z"  horiz-adv-x="822" vert-adv-y="1000"  />

      
      <glyph glyph-name="unic7" unicode="&#xc7;" d="M404 672Q316 672 253 632.50Q190 593 156.50 522.50Q123 452 123 359Q123 263 153 191.50Q183 120 243.50 81Q304 42 394 42Q446 42 489.50 50Q533 58 572 71L572 20Q535 6 491-2Q447-10 388-10Q280-10 207.50 36Q135 82 98.50 165Q62 248 62 359Q62 465 102.50 547.50Q143 630 219.50 677Q296 724 405 724Q509 724 592 685L569 634Q492 672 404 672M456-142Q456-188 421.50-214Q387-240 326-240Q292-240 272-234L272-195Q292-200 327-200Q364-200 386-186.50Q408-173 408-143Q408-115 382.50-101.50Q357-88 311-85L355 0L396 0L367-59Q406-64 431-84.50Q456-105 456-142Z"  horiz-adv-x="623" vert-adv-y="1000"  />

      
      <glyph glyph-name="unic8" unicode="&#xc8;" d="M492 0L100 0L100 714L492 714L492 662L158 662L158 401L473 401L473 349L158 349L158 52L492 52L492 0M249 948Q261 926 281.50 898Q302 870 324.50 843Q347 816 366 797L366 788L326 788Q301 808 273 835.50Q245 863 220.50 891Q196 919 181 940L181 948L249 948Z"  horiz-adv-x="553" vert-adv-y="1000"  />

      
      <glyph glyph-name="unic9" unicode="&#xc9;" d="M492 0L100 0L100 714L492 714L492 662L158 662L158 401L473 401L473 349L158 349L158 52L492 52L492 0M450 940Q435 919 410.50 891Q386 863 358 835.50Q330 808 305 788L265 788L265 797Q284 816 306 843Q328 870 348.50 898Q369 926 382 948L450 948L450 940Z"  horiz-adv-x="553" vert-adv-y="1000"  />

      
      <glyph glyph-name="unica" unicode="&#xca;" d="M492 0L100 0L100 714L492 714L492 662L158 662L158 401L473 401L473 349L158 349L158 52L492 52L492 0M337 947Q349 925 370 897.50Q391 870 414 843Q437 816 456 797L456 788L415 788Q388 810 360 839Q332 868 308 896Q284 868 256.50 839Q229 810 202 788L161 788L161 797Q180 817 203 843.50Q226 870 247 897.50Q268 925 281 947L337 947Z"  horiz-adv-x="553" vert-adv-y="1000"  />

      
      <glyph glyph-name="unicb" unicode="&#xcb;" d="M492 0L100 0L100 714L492 714L492 662L158 662L158 401L473 401L473 349L158 349L158 52L492 52L492 0M179 862Q179 902 214 902Q250 902 250 862Q250 821 214 821Q179 821 179 862M365 862Q365 902 400 902Q436 902 436 862Q436 821 400 821Q365 821 365 862Z"  horiz-adv-x="553" vert-adv-y="1000"  />

      
      <glyph glyph-name="unicc" unicode="&#xcc;" d="M261 0L51 0L51 36L127 47L127 666L51 678L51 714L261 714L261 678L185 666L185 47L261 36L261 0M97 948Q109 926 129.50 898Q150 870 172.50 843Q195 816 214 797L214 788L174 788Q149 808 121 835.50Q93 863 68.50 891Q44 919 29 940L29 948L97 948Z"  horiz-adv-x="311" vert-adv-y="1000"  />

      
      <glyph glyph-name="unicd" unicode="&#xcd;" d="M261 0L51 0L51 36L127 47L127 666L51 678L51 714L261 714L261 678L185 666L185 47L261 36L261 0M298 940Q283 919 258.50 891Q234 863 206 835.50Q178 808 153 788L113 788L113 797Q132 816 154 843Q176 870 196.50 898Q217 926 230 948L298 948L298 940Z"  horiz-adv-x="311" vert-adv-y="1000"  />

      
      <glyph glyph-name="unice" unicode="&#xce;" d="M261 0L51 0L51 36L127 47L127 666L51 678L51 714L261 714L261 678L185 666L185 47L261 36L261 0M185 947Q197 925 218 897.50Q239 870 262 843Q285 816 304 797L304 788L263 788Q236 810 208 839Q180 868 156 896Q132 868 104.50 839Q77 810 50 788L9 788L9 797Q28 817 51 843.50Q74 870 95 897.50Q116 925 129 947L185 947Z"  horiz-adv-x="311" vert-adv-y="1000"  />

      
      <glyph glyph-name="unicf" unicode="&#xcf;" d="M261 0L51 0L51 36L127 47L127 666L51 678L51 714L261 714L261 678L185 666L185 47L261 36L261 0M27 862Q27 902 62 902Q98 902 98 862Q98 821 62 821Q27 821 27 862M213 862Q213 902 248 902Q284 902 284 862Q284 821 248 821Q213 821 213 862Z"  horiz-adv-x="311" vert-adv-y="1000"  />

      
      <glyph glyph-name="unid0" unicode="&#xd0;" d="M299 714Q467 714 558 624.50Q649 535 649 364Q649 184 553.50 92Q458 0 276 0L104 0L104 329L24 329L24 380L104 380L104 714L299 714M287 663L162 663L162 380L354 380L354 329L162 329L162 51L272 51Q588 51 588 362Q588 663 287 663Z"  horiz-adv-x="711" vert-adv-y="1000"  />

      
      <glyph glyph-name="unid1" unicode="&#xd1;" d="M629 0L567 0L153 624L150 624Q152 585 153.50 541.50Q155 498 155 451L155 0L100 0L100 714L162 714L575 92L578 92Q576 123 575 171Q574 219 574 261L574 714L629 714L629 0M189 794Q194 848 220 877.50Q246 907 289 907Q312 907 331.50 897Q351 887 368.50 874Q386 861 403 851Q420 841 438 841Q460 841 476 855.50Q492 870 498 908L535 908Q530 854 503.50 824Q477 794 435 794Q412 794 392.50 804Q373 814 356 827Q339 840 322 850Q305 860 286 860Q263 860 248 845.50Q233 831 227 794L189 794Z"  horiz-adv-x="729" vert-adv-y="1000"  />

      
      <glyph glyph-name="unid2" unicode="&#xd2;" d="M705 358Q705 249 669 166Q633 83 561.50 36.50Q490-10 384-10Q276-10 204.50 36.50Q133 83 97.50 166.50Q62 250 62 359Q62 468 98.50 550Q135 632 207.50 678.50Q280 725 387 725Q490 725 561 680.50Q632 636 668.50 554Q705 472 705 358M123 359Q123 264 151 192.50Q179 121 237 81.50Q295 42 384 42Q474 42 531.50 81Q589 120 616.50 191.50Q644 263 644 358Q644 507 579.50 590Q515 673 387 673Q298 673 239 633.50Q180 594 151.50 523.50Q123 453 123 359M325 948Q337 926 357.50 898Q378 870 400.50 843Q423 816 442 797L442 788L402 788Q377 808 349 835.50Q321 863 296.50 891Q272 919 257 940L257 948L325 948Z"  horiz-adv-x="768" vert-adv-y="1000"  />

      
      <glyph glyph-name="unid3" unicode="&#xd3;" d="M705 358Q705 249 669 166Q633 83 561.50 36.50Q490-10 384-10Q276-10 204.50 36.50Q133 83 97.50 166.50Q62 250 62 359Q62 468 98.50 550Q135 632 207.50 678.50Q280 725 387 725Q490 725 561 680.50Q632 636 668.50 554Q705 472 705 358M123 359Q123 264 151 192.50Q179 121 237 81.50Q295 42 384 42Q474 42 531.50 81Q589 120 616.50 191.50Q644 263 644 358Q644 507 579.50 590Q515 673 387 673Q298 673 239 633.50Q180 594 151.50 523.50Q123 453 123 359M526 940Q511 919 486.50 891Q462 863 434 835.50Q406 808 381 788L341 788L341 797Q360 816 382 843Q404 870 424.50 898Q445 926 458 948L526 948L526 940Z"  horiz-adv-x="768" vert-adv-y="1000"  />

      
      <glyph glyph-name="unid4" unicode="&#xd4;" d="M705 358Q705 249 669 166Q633 83 561.50 36.50Q490-10 384-10Q276-10 204.50 36.50Q133 83 97.50 166.50Q62 250 62 359Q62 468 98.50 550Q135 632 207.50 678.50Q280 725 387 725Q490 725 561 680.50Q632 636 668.50 554Q705 472 705 358M123 359Q123 264 151 192.50Q179 121 237 81.50Q295 42 384 42Q474 42 531.50 81Q589 120 616.50 191.50Q644 263 644 358Q644 507 579.50 590Q515 673 387 673Q298 673 239 633.50Q180 594 151.50 523.50Q123 453 123 359M413 947Q425 925 446 897.50Q467 870 490 843Q513 816 532 797L532 788L491 788Q464 810 436 839Q408 868 384 896Q360 868 332.50 839Q305 810 278 788L237 788L237 797Q256 817 279 843.50Q302 870 323 897.50Q344 925 357 947L413 947Z"  horiz-adv-x="768" vert-adv-y="1000"  />

      
      <glyph glyph-name="unid5" unicode="&#xd5;" d="M705 358Q705 249 669 166Q633 83 561.50 36.50Q490-10 384-10Q276-10 204.50 36.50Q133 83 97.50 166.50Q62 250 62 359Q62 468 98.50 550Q135 632 207.50 678.50Q280 725 387 725Q490 725 561 680.50Q632 636 668.50 554Q705 472 705 358M123 359Q123 264 151 192.50Q179 121 237 81.50Q295 42 384 42Q474 42 531.50 81Q589 120 616.50 191.50Q644 263 644 358Q644 507 579.50 590Q515 673 387 673Q298 673 239 633.50Q180 594 151.50 523.50Q123 453 123 359M198 794Q203 848 229 877.50Q255 907 298 907Q321 907 340.50 897Q360 887 377.50 874Q395 861 412 851Q429 841 447 841Q469 841 485 855.50Q501 870 507 908L544 908Q539 854 512.50 824Q486 794 444 794Q421 794 401.50 804Q382 814 365 827Q348 840 331 850Q314 860 295 860Q272 860 257 845.50Q242 831 236 794L198 794Z"  horiz-adv-x="768" vert-adv-y="1000"  />

      
      <glyph glyph-name="unid6" unicode="&#xd6;" d="M705 358Q705 249 669 166Q633 83 561.50 36.50Q490-10 384-10Q276-10 204.50 36.50Q133 83 97.50 166.50Q62 250 62 359Q62 468 98.50 550Q135 632 207.50 678.50Q280 725 387 725Q490 725 561 680.50Q632 636 668.50 554Q705 472 705 358M123 359Q123 264 151 192.50Q179 121 237 81.50Q295 42 384 42Q474 42 531.50 81Q589 120 616.50 191.50Q644 263 644 358Q644 507 579.50 590Q515 673 387 673Q298 673 239 633.50Q180 594 151.50 523.50Q123 453 123 359M256 862Q256 902 291 902Q327 902 327 862Q327 821 291 821Q256 821 256 862M442 862Q442 902 477 902Q513 902 513 862Q513 821 477 821Q442 821 442 862Z"  horiz-adv-x="768" vert-adv-y="1000"  />

      
      <glyph glyph-name="unid7" unicode="&#xd7;" d="M469 571L503 537L319 353L502 170L469 136L285 319L103 136L68 170L251 353L68 536L102 571L285 387L469 571Z"  horiz-adv-x="571" vert-adv-y="1000"  />

      
      <glyph glyph-name="unid8" unicode="&#xd8;" d="M705 358Q705 249 669 166Q633 83 561.50 36.50Q490-10 384-10Q264-10 189 50L132-28L91-1L151 82Q107 131 84.50 201.50Q62 272 62 359Q62 468 98.50 550Q135 632 207.50 678.50Q280 725 387 725Q443 725 490 710.50Q537 696 575 670L628 743L668 715L612 638Q657 590 681 519Q705 448 705 358M123 359Q123 288 138.50 230.50Q154 173 186 131L543 625Q481 673 387 673Q298 673 239 633.50Q180 594 151.50 523.50Q123 453 123 359M644 358Q644 509 578 590L220 95Q250 70 291.50 56Q333 42 384 42Q474 42 531.50 81Q589 120 616.50 191.50Q644 263 644 358Z"  horiz-adv-x="768" vert-adv-y="1000"  />

      
      <glyph glyph-name="unid9" unicode="&#xd9;" d="M629 252Q629 130 558.50 60Q488-10 359-10Q230-10 161.50 60Q93 130 93 254L93 714L151 714L151 254Q151 150 205 96Q259 42 362 42Q463 42 517.50 96.50Q572 151 572 248L572 714L629 714L629 252M303 948Q315 926 335.50 898Q356 870 378.50 843Q401 816 420 797L420 788L380 788Q355 808 327 835.50Q299 863 274.50 891Q250 919 235 940L235 948L303 948Z"  horiz-adv-x="722" vert-adv-y="1000"  />

      
      <glyph glyph-name="unida" unicode="&#xda;" d="M629 252Q629 130 558.50 60Q488-10 359-10Q230-10 161.50 60Q93 130 93 254L93 714L151 714L151 254Q151 150 205 96Q259 42 362 42Q463 42 517.50 96.50Q572 151 572 248L572 714L629 714L629 252M503 940Q488 919 463.50 891Q439 863 411 835.50Q383 808 358 788L318 788L318 797Q337 816 359 843Q381 870 401.50 898Q422 926 435 948L503 948L503 940Z"  horiz-adv-x="722" vert-adv-y="1000"  />

      
      <glyph glyph-name="unidb" unicode="&#xdb;" d="M629 252Q629 130 558.50 60Q488-10 359-10Q230-10 161.50 60Q93 130 93 254L93 714L151 714L151 254Q151 150 205 96Q259 42 362 42Q463 42 517.50 96.50Q572 151 572 248L572 714L629 714L629 252M390 947Q402 925 423 897.50Q444 870 467 843Q490 816 509 797L509 788L468 788Q441 810 413 839Q385 868 361 896Q337 868 309.50 839Q282 810 255 788L214 788L214 797Q233 817 256 843.50Q279 870 300 897.50Q321 925 334 947L390 947Z"  horiz-adv-x="722" vert-adv-y="1000"  />

      
      <glyph glyph-name="unidc" unicode="&#xdc;" d="M629 252Q629 130 558.50 60Q488-10 359-10Q230-10 161.50 60Q93 130 93 254L93 714L151 714L151 254Q151 150 205 96Q259 42 362 42Q463 42 517.50 96.50Q572 151 572 248L572 714L629 714L629 252M233 862Q233 902 268 902Q304 902 304 862Q304 821 268 821Q233 821 233 862M419 862Q419 902 454 902Q490 902 490 862Q490 821 454 821Q419 821 419 862Z"  horiz-adv-x="722" vert-adv-y="1000"  />

      
      <glyph glyph-name="unidd" unicode="&#xdd;" d="M268 332L472 714L536 714L298 276L298 0L240 0L240 272L0 714L64 714L268 332M410 940Q395 919 370.50 891Q346 863 318 835.50Q290 808 265 788L225 788L225 797Q244 816 266 843Q288 870 308.50 898Q329 926 342 948L410 948L410 940Z"  horiz-adv-x="536" vert-adv-y="1000"  />

      
      <glyph glyph-name="unide" unicode="&#xde;" d="M536 382Q536 282 470.50 223Q405 164 262 164L158 164L158 0L100 0L100 714L158 714L158 586L282 586Q413 586 474.50 535Q536 484 536 382M256 215Q362 215 419 251.50Q476 288 476 380Q476 461 428 498Q380 535 275 535L158 535L158 215L256 215Z"  horiz-adv-x="589" vert-adv-y="1000"  />

      
      <glyph glyph-name="unidf" unicode="&#xdf;" d="M481 627Q481 591 467 566.50Q453 542 432 524.50Q411 507 390.50 491.50Q370 476 356 458.50Q342 441 342 416Q342 386 363 366Q384 346 433 313Q465 291 490.50 268.50Q516 246 530.50 216.50Q545 187 545 144Q545 72 498.50 31Q452-10 369-10Q321-10 288-1.50Q255 7 229 21L229 74Q258 59 293 48.50Q328 38 367 38Q429 38 458.50 66Q488 94 488 141Q488 187 464.50 215Q441 243 394 275Q341 310 313.50 339Q286 368 286 414Q286 447 300 469Q314 491 334 507Q354 523 374.50 538.50Q395 554 409 574Q423 594 423 624Q423 669 388.50 692.50Q354 716 294 716Q225 716 184.50 682Q144 648 144 574L144 0L87 0L87 574Q87 672 143.50 718.50Q200 765 294 765Q381 765 431 729Q481 693 481 627Z"  horiz-adv-x="593" vert-adv-y="1000"  />

      
      <glyph glyph-name="unie0" unicode="&#xe0;" d="M276 541Q366 541 410 497Q454 453 454 358L454 0L411 0L401 90L398 90Q369 45 327.50 17.50Q286-10 212-10Q135-10 91 28.50Q47 67 47 139Q47 219 112 260.50Q177 302 301 307L398 312L398 349Q398 427 366.50 460Q335 493 274 493Q233 493 195 482Q157 471 119 453L101 499Q139 517 183.50 529Q228 541 276 541M308 265Q206 260 156.50 229.50Q107 199 107 139Q107 89 137.50 63.50Q168 38 222 38Q305 38 351 85.50Q397 133 398 217L398 269L308 265M207 766Q219 744 239.50 716Q260 688 282.50 661Q305 634 324 615L324 606L284 606Q259 626 231 653.50Q203 681 178.50 709Q154 737 139 758L139 766L207 766Z"  horiz-adv-x="536" vert-adv-y="1000"  />

      
      <glyph glyph-name="unie1" unicode="&#xe1;" d="M276 541Q366 541 410 497Q454 453 454 358L454 0L411 0L401 90L398 90Q369 45 327.50 17.50Q286-10 212-10Q135-10 91 28.50Q47 67 47 139Q47 219 112 260.50Q177 302 301 307L398 312L398 349Q398 427 366.50 460Q335 493 274 493Q233 493 195 482Q157 471 119 453L101 499Q139 517 183.50 529Q228 541 276 541M308 265Q206 260 156.50 229.50Q107 199 107 139Q107 89 137.50 63.50Q168 38 222 38Q305 38 351 85.50Q397 133 398 217L398 269L308 265M408 758Q393 737 368.50 709Q344 681 316 653.50Q288 626 263 606L223 606L223 615Q242 634 264 661Q286 688 306.50 716Q327 744 340 766L408 766L408 758Z"  horiz-adv-x="536" vert-adv-y="1000"  />

      
      <glyph glyph-name="unie2" unicode="&#xe2;" d="M276 541Q366 541 410 497Q454 453 454 358L454 0L411 0L401 90L398 90Q369 45 327.50 17.50Q286-10 212-10Q135-10 91 28.50Q47 67 47 139Q47 219 112 260.50Q177 302 301 307L398 312L398 349Q398 427 366.50 460Q335 493 274 493Q233 493 195 482Q157 471 119 453L101 499Q139 517 183.50 529Q228 541 276 541M308 265Q206 260 156.50 229.50Q107 199 107 139Q107 89 137.50 63.50Q168 38 222 38Q305 38 351 85.50Q397 133 398 217L398 269L308 265M295 765Q307 743 328 715.50Q349 688 372 661Q395 634 414 615L414 606L373 606Q346 628 318 657Q290 686 266 714Q242 686 214.50 657Q187 628 160 606L119 606L119 615Q138 635 161 661.50Q184 688 205 715.50Q226 743 239 765L295 765Z"  horiz-adv-x="536" vert-adv-y="1000"  />

      
      <glyph glyph-name="unie3" unicode="&#xe3;" d="M276 541Q366 541 410 497Q454 453 454 358L454 0L411 0L401 90L398 90Q369 45 327.50 17.50Q286-10 212-10Q135-10 91 28.50Q47 67 47 139Q47 219 112 260.50Q177 302 301 307L398 312L398 349Q398 427 366.50 460Q335 493 274 493Q233 493 195 482Q157 471 119 453L101 499Q139 517 183.50 529Q228 541 276 541M308 265Q206 260 156.50 229.50Q107 199 107 139Q107 89 137.50 63.50Q168 38 222 38Q305 38 351 85.50Q397 133 398 217L398 269L308 265M80 612Q85 666 111 695.50Q137 725 180 725Q203 725 222.50 715Q242 705 259.50 692Q277 679 294 669Q311 659 329 659Q351 659 367 673.50Q383 688 389 726L426 726Q421 672 394.50 642Q368 612 326 612Q303 612 283.50 622Q264 632 247 645Q230 658 213 668Q196 678 177 678Q154 678 139 663.50Q124 649 118 612L80 612Z"  horiz-adv-x="536" vert-adv-y="1000"  />

      
      <glyph glyph-name="unie4" unicode="&#xe4;" d="M276 541Q366 541 410 497Q454 453 454 358L454 0L411 0L401 90L398 90Q369 45 327.50 17.50Q286-10 212-10Q135-10 91 28.50Q47 67 47 139Q47 219 112 260.50Q177 302 301 307L398 312L398 349Q398 427 366.50 460Q335 493 274 493Q233 493 195 482Q157 471 119 453L101 499Q139 517 183.50 529Q228 541 276 541M308 265Q206 260 156.50 229.50Q107 199 107 139Q107 89 137.50 63.50Q168 38 222 38Q305 38 351 85.50Q397 133 398 217L398 269L308 265M138 680Q138 720 173 720Q209 720 209 680Q209 639 173 639Q138 639 138 680M324 680Q324 720 359 720Q395 720 395 680Q395 639 359 639Q324 639 324 680Z"  horiz-adv-x="536" vert-adv-y="1000"  />

      
      <glyph glyph-name="unie5" unicode="&#xe5;" d="M276 541Q366 541 410 497Q454 453 454 358L454 0L411 0L401 90L398 90Q369 45 327.50 17.50Q286-10 212-10Q135-10 91 28.50Q47 67 47 139Q47 219 112 260.50Q177 302 301 307L398 312L398 349Q398 427 366.50 460Q335 493 274 493Q233 493 195 482Q157 471 119 453L101 499Q139 517 183.50 529Q228 541 276 541M308 265Q206 260 156.50 229.50Q107 199 107 139Q107 89 137.50 63.50Q168 38 222 38Q305 38 351 85.50Q397 133 398 217L398 269L308 265M266 609Q221 609 191 636.50Q161 664 161 712Q161 758 191 786Q221 814 266 814Q310 814 341 785.50Q372 757 372 712Q372 664 341.50 636.50Q311 609 266 609M266 646Q295 646 313.50 664.50Q332 683 332 712Q332 740 312.50 759Q293 778 266 778Q238 778 219 759Q200 740 200 712Q200 683 218 664.50Q236 646 266 646Z"  horiz-adv-x="536" vert-adv-y="1000"  />

      
      <glyph glyph-name="unie6" unicode="&#xe6;" d="M604 542Q668 542 712.50 510.50Q757 479 780 424Q803 369 801 299L801 259L444 259Q444 151 490 95.50Q536 40 619 40Q665 40 701 48.50Q737 57 779 76L779 24Q740 6 702-2Q664-10 618-10Q541-10 489.50 26Q438 62 414 124Q387 63 340.50 26.50Q294-10 213-10Q136-10 91.50 28.50Q47 67 47 139Q47 219 110 260Q173 301 293 307L386 312L386 350Q386 428 354 460.50Q322 493 265 493Q226 493 188 482.50Q150 472 112 453L94 499Q132 517 177 529Q222 541 268 541Q334 541 373.50 512.50Q413 484 427 422Q451 476 495.50 509Q540 542 604 542M603 494Q538 494 495.50 446Q453 398 446 306L741 306Q741 390 707 442Q673 494 603 494M301 265Q204 260 155.50 229.50Q107 199 107 139Q107 89 136.50 63.50Q166 38 220 38Q298 38 341 85.50Q384 133 385 217L385 269L301 265Z"  horiz-adv-x="857" vert-adv-y="1000"  />

      
      <glyph glyph-name="unie7" unicode="&#xe7;" d="M301-10Q184-10 120.50 62Q57 134 57 263Q57 353 89 415Q121 477 178.50 509.50Q236 542 313 542Q351 542 385 535Q419 528 445 516L429 467Q402 478 371 484.50Q340 491 312 491Q217 491 166.50 430Q116 369 116 264Q116 164 161 102.50Q206 41 301 41Q340 41 375 49Q410 57 438 69L438 18Q412 5 378.50-2.50Q345-10 301-10M370-142Q370-188 335.50-214Q301-240 240-240Q206-240 186-234L186-195Q206-200 241-200Q278-200 300-186.50Q322-173 322-143Q322-115 296.50-101.50Q271-88 225-85L269 0L310 0L281-59Q320-64 345-84.50Q370-105 370-142Z"  horiz-adv-x="476" vert-adv-y="1000"  />

      
      <glyph glyph-name="unie8" unicode="&#xe8;" d="M290 542Q358 542 403.50 510.50Q449 479 472.50 424Q496 369 496 298L496 259L116 259Q116 153 165.50 96.50Q215 40 307 40Q356 40 393 48.50Q430 57 474 76L474 24Q434 6 395-2Q356-10 305-10Q185-10 121 63Q57 136 57 262Q57 343 84.50 406Q112 469 164 505.50Q216 542 290 542M289 494Q216 494 170.50 445Q125 396 118 306L437 306Q437 390 400.50 442Q364 494 289 494M224 766Q236 744 256.50 716Q277 688 299.50 661Q322 634 341 615L341 606L301 606Q276 626 248 653.50Q220 681 195.50 709Q171 737 156 758L156 766L224 766Z"  horiz-adv-x="552" vert-adv-y="1000"  />

      
      <glyph glyph-name="unie9" unicode="&#xe9;" d="M290 542Q358 542 403.50 510.50Q449 479 472.50 424Q496 369 496 298L496 259L116 259Q116 153 165.50 96.50Q215 40 307 40Q356 40 393 48.50Q430 57 474 76L474 24Q434 6 395-2Q356-10 305-10Q185-10 121 63Q57 136 57 262Q57 343 84.50 406Q112 469 164 505.50Q216 542 290 542M289 494Q216 494 170.50 445Q125 396 118 306L437 306Q437 390 400.50 442Q364 494 289 494M425 758Q410 737 385.50 709Q361 681 333 653.50Q305 626 280 606L240 606L240 615Q259 634 281 661Q303 688 323.50 716Q344 744 357 766L425 766L425 758Z"  horiz-adv-x="552" vert-adv-y="1000"  />

      
      <glyph glyph-name="uniea" unicode="&#xea;" d="M290 542Q358 542 403.50 510.50Q449 479 472.50 424Q496 369 496 298L496 259L116 259Q116 153 165.50 96.50Q215 40 307 40Q356 40 393 48.50Q430 57 474 76L474 24Q434 6 395-2Q356-10 305-10Q185-10 121 63Q57 136 57 262Q57 343 84.50 406Q112 469 164 505.50Q216 542 290 542M289 494Q216 494 170.50 445Q125 396 118 306L437 306Q437 390 400.50 442Q364 494 289 494M312 765Q324 743 345 715.50Q366 688 389 661Q412 634 431 615L431 606L390 606Q363 628 335 657Q307 686 283 714Q259 686 231.50 657Q204 628 177 606L136 606L136 615Q155 635 178 661.50Q201 688 222 715.50Q243 743 256 765L312 765Z"  horiz-adv-x="552" vert-adv-y="1000"  />

      
      <glyph glyph-name="unieb" unicode="&#xeb;" d="M290 542Q358 542 403.50 510.50Q449 479 472.50 424Q496 369 496 298L496 259L116 259Q116 153 165.50 96.50Q215 40 307 40Q356 40 393 48.50Q430 57 474 76L474 24Q434 6 395-2Q356-10 305-10Q185-10 121 63Q57 136 57 262Q57 343 84.50 406Q112 469 164 505.50Q216 542 290 542M289 494Q216 494 170.50 445Q125 396 118 306L437 306Q437 390 400.50 442Q364 494 289 494M154 680Q154 720 189 720Q225 720 225 680Q225 639 189 639Q154 639 154 680M340 680Q340 720 375 720Q411 720 411 680Q411 639 375 639Q340 639 340 680Z"  horiz-adv-x="552" vert-adv-y="1000"  />

      
      <glyph glyph-name="uniec" unicode="&#xec;" d="M145 0L88 0L88 532L145 532L145 0M58 766Q70 744 90.50 716Q111 688 133.50 661Q156 634 175 615L175 606L135 606Q110 626 82 653.50Q54 681 29.50 709Q5 737-10 758L-10 766L58 766Z"  horiz-adv-x="233" vert-adv-y="1000"  />

      
      <glyph glyph-name="unied" unicode="&#xed;" d="M145 0L88 0L88 532L145 532L145 0M258 758Q243 737 218.50 709Q194 681 166 653.50Q138 626 113 606L73 606L73 615Q92 634 114 661Q136 688 156.50 716Q177 744 190 766L258 766L258 758Z"  horiz-adv-x="233" vert-adv-y="1000"  />

      
      <glyph glyph-name="uniee" unicode="&#xee;" d="M145 0L88 0L88 532L145 532L145 0M145 765Q157 743 178 715.50Q199 688 222 661Q245 634 264 615L264 606L223 606Q196 628 168 657Q140 686 116 714Q92 686 64.50 657Q37 628 10 606L-31 606L-31 615Q-12 635 11 661.50Q34 688 55 715.50Q76 743 89 765L145 765Z"  horiz-adv-x="233" vert-adv-y="1000"  />

      
      <glyph glyph-name="unief" unicode="&#xef;" d="M145 0L88 0L88 532L145 532L145 0M-12 680Q-12 720 23 720Q59 720 59 680Q59 639 23 639Q-12 639-12 680M174 680Q174 720 209 720Q245 720 245 680Q245 639 209 639Q174 639 174 680Z"  horiz-adv-x="233" vert-adv-y="1000"  />

      
      <glyph glyph-name="unif0" unicode="&#xf0;" d="M210 761Q281 728 332 689L444 756L469 719L368 659Q441 587 482 489.50Q523 392 523 274Q523 144 462.50 67Q402-10 288-10Q217-10 165 19.50Q113 49 84.50 102.50Q56 156 56 228Q56 303 85 357Q114 411 165.50 440Q217 469 285 469Q346 469 386 451.50Q426 434 451 403L454 404Q439 469 404.50 528Q370 587 322 632L192 556L167 593L284 662Q239 695 186 721L210 761M291 421Q208 421 161 370.50Q114 320 114 227Q114 140 159 89.50Q204 39 289 39Q375 39 420 97.50Q465 156 465 268Q465 303 448.50 338.50Q432 374 394.50 397.50Q357 421 291 421Z"  horiz-adv-x="580" vert-adv-y="1000"  />

      
      <glyph glyph-name="unif1" unicode="&#xf1;" d="M326 542Q417 542 465 495Q513 448 513 348L513 0L457 0L457 344Q457 420 422 456.50Q387 493 320 493Q145 493 145 290L145 0L88 0L88 532L134 532L142 440L146 440Q167 484 213 513Q259 542 326 542M121 612Q126 666 152 695.50Q178 725 221 725Q244 725 263.50 715Q283 705 300.50 692Q318 679 335 669Q352 659 370 659Q392 659 408 673.50Q424 688 430 726L467 726Q462 672 435.50 642Q409 612 367 612Q344 612 324.50 622Q305 632 288 645Q271 658 254 668Q237 678 218 678Q195 678 180 663.50Q165 649 159 612L121 612Z"  horiz-adv-x="596" vert-adv-y="1000"  />

      
      <glyph glyph-name="unif2" unicode="&#xf2;" d="M533 267Q533 183 505.50 121Q478 59 424.50 24.50Q371-10 294-10Q220-10 167 24Q114 58 85.50 120.50Q57 183 57 267Q57 396 121 469Q185 542 298 542Q374 542 426.50 507.50Q479 473 506 411Q533 349 533 267M116 267Q116 164 159.50 101.50Q203 39 295 39Q388 39 431 102Q474 165 474 267Q474 333 456 384Q438 435 399 464Q360 493 297 493Q207 493 161.50 433Q116 373 116 267M236 766Q248 744 268.50 716Q289 688 311.50 661Q334 634 353 615L353 606L313 606Q288 626 260 653.50Q232 681 207.50 709Q183 737 168 758L168 766L236 766Z"  horiz-adv-x="590" vert-adv-y="1000"  />

      
      <glyph glyph-name="unif3" unicode="&#xf3;" d="M533 267Q533 183 505.50 121Q478 59 424.50 24.50Q371-10 294-10Q220-10 167 24Q114 58 85.50 120.50Q57 183 57 267Q57 396 121 469Q185 542 298 542Q374 542 426.50 507.50Q479 473 506 411Q533 349 533 267M116 267Q116 164 159.50 101.50Q203 39 295 39Q388 39 431 102Q474 165 474 267Q474 333 456 384Q438 435 399 464Q360 493 297 493Q207 493 161.50 433Q116 373 116 267M437 758Q422 737 397.50 709Q373 681 345 653.50Q317 626 292 606L252 606L252 615Q271 634 293 661Q315 688 335.50 716Q356 744 369 766L437 766L437 758Z"  horiz-adv-x="590" vert-adv-y="1000"  />

      
      <glyph glyph-name="unif4" unicode="&#xf4;" d="M533 267Q533 183 505.50 121Q478 59 424.50 24.50Q371-10 294-10Q220-10 167 24Q114 58 85.50 120.50Q57 183 57 267Q57 396 121 469Q185 542 298 542Q374 542 426.50 507.50Q479 473 506 411Q533 349 533 267M116 267Q116 164 159.50 101.50Q203 39 295 39Q388 39 431 102Q474 165 474 267Q474 333 456 384Q438 435 399 464Q360 493 297 493Q207 493 161.50 433Q116 373 116 267M324 765Q336 743 357 715.50Q378 688 401 661Q424 634 443 615L443 606L402 606Q375 628 347 657Q319 686 295 714Q271 686 243.50 657Q216 628 189 606L148 606L148 615Q167 635 190 661.50Q213 688 234 715.50Q255 743 268 765L324 765Z"  horiz-adv-x="590" vert-adv-y="1000"  />

      
      <glyph glyph-name="unif5" unicode="&#xf5;" d="M533 267Q533 183 505.50 121Q478 59 424.50 24.50Q371-10 294-10Q220-10 167 24Q114 58 85.50 120.50Q57 183 57 267Q57 396 121 469Q185 542 298 542Q374 542 426.50 507.50Q479 473 506 411Q533 349 533 267M116 267Q116 164 159.50 101.50Q203 39 295 39Q388 39 431 102Q474 165 474 267Q474 333 456 384Q438 435 399 464Q360 493 297 493Q207 493 161.50 433Q116 373 116 267M110 612Q115 666 141 695.50Q167 725 210 725Q233 725 252.50 715Q272 705 289.50 692Q307 679 324 669Q341 659 359 659Q381 659 397 673.50Q413 688 419 726L456 726Q451 672 424.50 642Q398 612 356 612Q333 612 313.50 622Q294 632 277 645Q260 658 243 668Q226 678 207 678Q184 678 169 663.50Q154 649 148 612L110 612Z"  horiz-adv-x="590" vert-adv-y="1000"  />

      
      <glyph glyph-name="unif6" unicode="&#xf6;" d="M533 267Q533 183 505.50 121Q478 59 424.50 24.50Q371-10 294-10Q220-10 167 24Q114 58 85.50 120.50Q57 183 57 267Q57 396 121 469Q185 542 298 542Q374 542 426.50 507.50Q479 473 506 411Q533 349 533 267M116 267Q116 164 159.50 101.50Q203 39 295 39Q388 39 431 102Q474 165 474 267Q474 333 456 384Q438 435 399 464Q360 493 297 493Q207 493 161.50 433Q116 373 116 267M167 680Q167 720 202 720Q238 720 238 680Q238 639 202 639Q167 639 167 680M353 680Q353 720 388 720Q424 720 424 680Q424 639 388 639Q353 639 353 680Z"  horiz-adv-x="590" vert-adv-y="1000"  />

      
      <glyph glyph-name="unif7" unicode="&#xf7;" d="M285 481Q244 481 244 527Q244 573 285 573Q326 573 326 527Q326 481 285 481M53 329L53 377L518 377L518 329L53 329M285 133Q244 133 244 179Q244 224 285 224Q326 224 326 179Q326 133 285 133Z"  horiz-adv-x="571" vert-adv-y="1000"  />

      
      <glyph glyph-name="unif8" unicode="&#xf8;" d="M533 267Q533 183 505.50 121Q478 59 424.50 24.50Q371-10 294-10Q249-10 213.50 2.50Q178 15 150 39L97-30L59-2L116 71Q57 146 57 267Q57 396 121 469Q185 542 298 542Q341 542 376 530Q411 518 438 497L487 561L526 534L473 465Q533 390 533 267M116 267Q116 222 124 184.50Q132 147 149 118L407 455Q387 473 359.50 483Q332 493 297 493Q207 493 161.50 433Q116 373 116 267M474 267Q474 312 465.50 350.50Q457 389 439 418L181 80Q201 61 230 50Q259 39 295 39Q388 39 431 102Q474 165 474 267Z"  horiz-adv-x="590" vert-adv-y="1000"  />

      
      <glyph glyph-name="unif9" unicode="&#xf9;" d="M507 532L507 0L461 0L452 91L449 91Q427 47 381.50 18.50Q336-10 268-10Q81-10 81 184L81 532L138 532L138 189Q138 112 172.50 75.50Q207 39 275 39Q450 39 450 242L450 532L507 532M239 766Q251 744 271.50 716Q292 688 314.50 661Q337 634 356 615L356 606L316 606Q291 626 263 653.50Q235 681 210.50 709Q186 737 171 758L171 766L239 766Z"  horiz-adv-x="596" vert-adv-y="1000"  />

      
      <glyph glyph-name="unifa" unicode="&#xfa;" d="M507 532L507 0L461 0L452 91L449 91Q427 47 381.50 18.50Q336-10 268-10Q81-10 81 184L81 532L138 532L138 189Q138 112 172.50 75.50Q207 39 275 39Q450 39 450 242L450 532L507 532M440 758Q425 737 400.50 709Q376 681 348 653.50Q320 626 295 606L255 606L255 615Q274 634 296 661Q318 688 338.50 716Q359 744 372 766L440 766L440 758Z"  horiz-adv-x="596" vert-adv-y="1000"  />

      
      <glyph glyph-name="unifb" unicode="&#xfb;" d="M507 532L507 0L461 0L452 91L449 91Q427 47 381.50 18.50Q336-10 268-10Q81-10 81 184L81 532L138 532L138 189Q138 112 172.50 75.50Q207 39 275 39Q450 39 450 242L450 532L507 532M327 765Q339 743 360 715.50Q381 688 404 661Q427 634 446 615L446 606L405 606Q378 628 350 657Q322 686 298 714Q274 686 246.50 657Q219 628 192 606L151 606L151 615Q170 635 193 661.50Q216 688 237 715.50Q258 743 271 765L327 765Z"  horiz-adv-x="596" vert-adv-y="1000"  />

      
      <glyph glyph-name="unifc" unicode="&#xfc;" d="M507 532L507 0L461 0L452 91L449 91Q427 47 381.50 18.50Q336-10 268-10Q81-10 81 184L81 532L138 532L138 189Q138 112 172.50 75.50Q207 39 275 39Q450 39 450 242L450 532L507 532M170 680Q170 720 205 720Q241 720 241 680Q241 639 205 639Q170 639 170 680M356 680Q356 720 391 720Q427 720 427 680Q427 639 391 639Q356 639 356 680Z"  horiz-adv-x="596" vert-adv-y="1000"  />

      
      <glyph glyph-name="unifd" unicode="&#xfd;" d="M1 532L61 532L188 202Q204 157 216 122.50Q228 88 235 61L238 61Q253 111 285 200L409 532L470 532L230-94Q203-165 166-203Q129-241 66-241Q47-241 31.50-239Q16-237 3-232L3-184Q15-188 29-190.50Q43-193 59-193Q101-193 127.50-167Q154-141 175-87L209 2L1 532M376 758Q361 737 336.50 709Q312 681 284 653.50Q256 626 231 606L191 606L191 615Q210 634 232 661Q254 688 274.50 716Q295 744 308 766L376 766L376 758Z"  horiz-adv-x="469" vert-adv-y="1000"  />

      
      <glyph glyph-name="unife" unicode="&#xfe;" d="M543 269Q543 134 483.50 62Q424-10 322-10Q251-10 208 20Q165 50 145 92L141 92Q143 70 144 39Q145 8 145-15L145-236L88-236L88 760L145 760L145 531Q145 511 144 482.50Q143 454 143 435L146 435Q166 478 209.50 510Q253 542 327 542Q429 542 486 472.50Q543 403 543 269M484 270Q484 493 319 493Q230 493 188 437Q146 381 146 277L146 266Q146 152 187 95.50Q228 39 315 39Q397 39 440.50 98Q484 157 484 270Z"  horiz-adv-x="599" vert-adv-y="1000"  />

      
      <glyph glyph-name="uniff" unicode="&#xff;" d="M1 532L61 532L188 202Q204 157 216 122.50Q228 88 235 61L238 61Q253 111 285 200L409 532L470 532L230-94Q203-165 166-203Q129-241 66-241Q47-241 31.50-239Q16-237 3-232L3-184Q15-188 29-190.50Q43-193 59-193Q101-193 127.50-167Q154-141 175-87L209 2L1 532M106 680Q106 720 141 720Q177 720 177 680Q177 639 141 639Q106 639 106 680M292 680Q292 720 327 720Q363 720 363 680Q363 639 327 639Q292 639 292 680Z"  horiz-adv-x="469" vert-adv-y="1000"  />

      
      <glyph glyph-name="uni0100" unicode="&#x0100;" d="M547 0L452 246L156 246L60 0L0 0L281 717L334 717L608 0L547 0M339 556Q333 570 323 600Q313 630 306 653Q298 626 289 600Q280 574 274 555L175 299L434 299L339 556M444 840L444 792L168 792L168 840L444 840Z"  horiz-adv-x="608" vert-adv-y="1000"  />

      
      <glyph glyph-name="uni0101" unicode="&#x0101;" d="M276 541Q366 541 410 497Q454 453 454 358L454 0L411 0L401 90L398 90Q369 45 327.50 17.50Q286-10 212-10Q135-10 91 28.50Q47 67 47 139Q47 219 112 260.50Q177 302 301 307L398 312L398 349Q398 427 366.50 460Q335 493 274 493Q233 493 195 482Q157 471 119 453L101 499Q139 517 183.50 529Q228 541 276 541M308 265Q206 260 156.50 229.50Q107 199 107 139Q107 89 137.50 63.50Q168 38 222 38Q305 38 351 85.50Q397 133 398 217L398 269L308 265M403 658L403 610L127 610L127 658L403 658Z"  horiz-adv-x="536" vert-adv-y="1000"  />

      
      <glyph glyph-name="uni0102" unicode="&#x0102;" d="M547 0L452 246L156 246L60 0L0 0L281 717L334 717L608 0L547 0M339 556Q333 570 323 600Q313 630 306 653Q298 626 289 600Q280 574 274 555L175 299L434 299L339 556M446 911Q440 854 404.50 821Q369 788 306 788Q241 788 206.50 820.50Q172 853 168 911L208 911Q212 871 236.50 853.50Q261 836 307 836Q350 836 375.50 854Q401 872 406 911L446 911Z"  horiz-adv-x="608" vert-adv-y="1000"  />

      
      <glyph glyph-name="uni0103" unicode="&#x0103;" d="M276 541Q366 541 410 497Q454 453 454 358L454 0L411 0L401 90L398 90Q369 45 327.50 17.50Q286-10 212-10Q135-10 91 28.50Q47 67 47 139Q47 219 112 260.50Q177 302 301 307L398 312L398 349Q398 427 366.50 460Q335 493 274 493Q233 493 195 482Q157 471 119 453L101 499Q139 517 183.50 529Q228 541 276 541M308 265Q206 260 156.50 229.50Q107 199 107 139Q107 89 137.50 63.50Q168 38 222 38Q305 38 351 85.50Q397 133 398 217L398 269L308 265M406 729Q400 672 364.50 639Q329 606 266 606Q201 606 166.50 638.50Q132 671 128 729L168 729Q172 689 196.50 671.50Q221 654 267 654Q310 654 335.50 672Q361 690 366 729L406 729Z"  horiz-adv-x="536" vert-adv-y="1000"  />

      
      <glyph glyph-name="uni0104" unicode="&#x0104;" d="M547 0L452 246L156 246L60 0L0 0L281 717L334 717L608 0L547 0M339 556Q333 570 323 600Q313 630 306 653Q298 626 289 600Q280 574 274 555L175 299L434 299L339 556M508-123Q508-176 560-176Q575-176 587-174Q599-172 608-170L608-210Q596-213 582.50-215.50Q569-218 552-218Q508-218 483.50-195.50Q459-173 459-130Q459-91 486.50-54Q514-17 555 13L588 0Q554-30 531-59.50Q508-89 508-123Z"  horiz-adv-x="608" vert-adv-y="1000"  />

      
      <glyph glyph-name="uni0105" unicode="&#x0105;" d="M276 541Q366 541 410 497Q454 453 454 358L454 0L411 0L401 90L398 90Q369 45 327.50 17.50Q286-10 212-10Q135-10 91 28.50Q47 67 47 139Q47 219 112 260.50Q177 302 301 307L398 312L398 349Q398 427 366.50 460Q335 493 274 493Q233 493 195 482Q157 471 119 453L101 499Q139 517 183.50 529Q228 541 276 541M308 265Q206 260 156.50 229.50Q107 199 107 139Q107 89 137.50 63.50Q168 38 222 38Q305 38 351 85.50Q397 133 398 217L398 269L308 265M378-123Q378-176 430-176Q445-176 457-174Q469-172 478-170L478-210Q466-213 452.50-215.50Q439-218 422-218Q378-218 353.50-195.50Q329-173 329-130Q329-91 356.50-54Q384-17 425 13L458 0Q424-30 401-59.50Q378-89 378-123Z"  horiz-adv-x="536" vert-adv-y="1000"  />

      
      <glyph glyph-name="uni0106" unicode="&#x0106;" d="M404 672Q316 672 253 632.50Q190 593 156.50 522.50Q123 452 123 359Q123 263 153 191.50Q183 120 243.50 81Q304 42 394 42Q446 42 489.50 50Q533 58 572 71L572 20Q535 6 491-2Q447-10 388-10Q280-10 207.50 36Q135 82 98.50 165Q62 248 62 359Q62 465 102.50 547.50Q143 630 219.50 677Q296 724 405 724Q509 724 592 685L569 634Q492 672 404 672M519 940Q504 919 479.50 891Q455 863 427 835.50Q399 808 374 788L334 788L334 797Q353 816 375 843Q397 870 417.50 898Q438 926 451 948L519 948L519 940Z"  horiz-adv-x="623" vert-adv-y="1000"  />

      
      <glyph glyph-name="uni0107" unicode="&#x0107;" d="M301-10Q184-10 120.50 62Q57 134 57 263Q57 353 89 415Q121 477 178.50 509.50Q236 542 313 542Q351 542 385 535Q419 528 445 516L429 467Q402 478 371 484.50Q340 491 312 491Q217 491 166.50 430Q116 369 116 264Q116 164 161 102.50Q206 41 301 41Q340 41 375 49Q410 57 438 69L438 18Q412 5 378.50-2.50Q345-10 301-10M426 758Q411 737 386.50 709Q362 681 334 653.50Q306 626 281 606L241 606L241 615Q260 634 282 661Q304 688 324.50 716Q345 744 358 766L426 766L426 758Z"  horiz-adv-x="476" vert-adv-y="1000"  />

      
      <glyph glyph-name="uni0108" unicode="&#x0108;" d="M404 672Q316 672 253 632.50Q190 593 156.50 522.50Q123 452 123 359Q123 263 153 191.50Q183 120 243.50 81Q304 42 394 42Q446 42 489.50 50Q533 58 572 71L572 20Q535 6 491-2Q447-10 388-10Q280-10 207.50 36Q135 82 98.50 165Q62 248 62 359Q62 465 102.50 547.50Q143 630 219.50 677Q296 724 405 724Q509 724 592 685L569 634Q492 672 404 672M406 947Q418 925 439 897.50Q460 870 483 843Q506 816 525 797L525 788L484 788Q457 810 429 839Q401 868 377 896Q353 868 325.50 839Q298 810 271 788L230 788L230 797Q249 817 272 843.50Q295 870 316 897.50Q337 925 350 947L406 947Z"  horiz-adv-x="623" vert-adv-y="1000"  />

      
      <glyph glyph-name="uni0109" unicode="&#x0109;" d="M301-10Q184-10 120.50 62Q57 134 57 263Q57 353 89 415Q121 477 178.50 509.50Q236 542 313 542Q351 542 385 535Q419 528 445 516L429 467Q402 478 371 484.50Q340 491 312 491Q217 491 166.50 430Q116 369 116 264Q116 164 161 102.50Q206 41 301 41Q340 41 375 49Q410 57 438 69L438 18Q412 5 378.50-2.50Q345-10 301-10M313 765Q325 743 346 715.50Q367 688 390 661Q413 634 432 615L432 606L391 606Q364 628 336 657Q308 686 284 714Q260 686 232.50 657Q205 628 178 606L137 606L137 615Q156 635 179 661.50Q202 688 223 715.50Q244 743 257 765L313 765Z"  horiz-adv-x="476" vert-adv-y="1000"  />

      
      <glyph glyph-name="uni010A" unicode="&#x010A;" d="M404 672Q316 672 253 632.50Q190 593 156.50 522.50Q123 452 123 359Q123 263 153 191.50Q183 120 243.50 81Q304 42 394 42Q446 42 489.50 50Q533 58 572 71L572 20Q535 6 491-2Q447-10 388-10Q280-10 207.50 36Q135 82 98.50 165Q62 248 62 359Q62 465 102.50 547.50Q143 630 219.50 677Q296 724 405 724Q509 724 592 685L569 634Q492 672 404 672M374 911Q413 911 413 868Q413 824 374 824Q335 824 335 868Q335 911 374 911Z"  horiz-adv-x="623" vert-adv-y="1000"  />

      
      <glyph glyph-name="uni010B" unicode="&#x010B;" d="M301-10Q184-10 120.50 62Q57 134 57 263Q57 353 89 415Q121 477 178.50 509.50Q236 542 313 542Q351 542 385 535Q419 528 445 516L429 467Q402 478 371 484.50Q340 491 312 491Q217 491 166.50 430Q116 369 116 264Q116 164 161 102.50Q206 41 301 41Q340 41 375 49Q410 57 438 69L438 18Q412 5 378.50-2.50Q345-10 301-10M282 729Q321 729 321 686Q321 642 282 642Q243 642 243 686Q243 729 282 729Z"  horiz-adv-x="476" vert-adv-y="1000"  />

      
      <glyph glyph-name="uni010C" unicode="&#x010C;" d="M404 672Q316 672 253 632.50Q190 593 156.50 522.50Q123 452 123 359Q123 263 153 191.50Q183 120 243.50 81Q304 42 394 42Q446 42 489.50 50Q533 58 572 71L572 20Q535 6 491-2Q447-10 388-10Q280-10 207.50 36Q135 82 98.50 165Q62 248 62 359Q62 465 102.50 547.50Q143 630 219.50 677Q296 724 405 724Q509 724 592 685L569 634Q492 672 404 672M348 788Q335 810 314 837Q293 864 270 890.50Q247 917 229 937L229 947L270 947Q297 924 324.50 895Q352 866 375 838Q399 866 427.50 895Q456 924 483 947L524 947L524 937Q505 917 481.50 890.50Q458 864 437 837Q416 810 404 788L348 788Z"  horiz-adv-x="623" vert-adv-y="1000"  />

      
      <glyph glyph-name="uni010D" unicode="&#x010D;" d="M301-10Q184-10 120.50 62Q57 134 57 263Q57 353 89 415Q121 477 178.50 509.50Q236 542 313 542Q351 542 385 535Q419 528 445 516L429 467Q402 478 371 484.50Q340 491 312 491Q217 491 166.50 430Q116 369 116 264Q116 164 161 102.50Q206 41 301 41Q340 41 375 49Q410 57 438 69L438 18Q412 5 378.50-2.50Q345-10 301-10M255 606Q242 628 221 655Q200 682 177 708.50Q154 735 136 755L136 765L177 765Q204 742 231.50 713Q259 684 282 656Q306 684 334.50 713Q363 742 390 765L431 765L431 755Q412 735 388.50 708.50Q365 682 344 655Q323 628 311 606L255 606Z"  horiz-adv-x="476" vert-adv-y="1000"  />

      
      <glyph glyph-name="uni010E" unicode="&#x010E;" d="M649 364Q649 184 553.50 92Q458 0 277 0L100 0L100 714L299 714Q468 714 558.50 624.50Q649 535 649 364M588 362Q588 663 287 663L158 663L158 51L272 51Q588 51 588 362M326 788Q313 810 292 837Q271 864 248 890.50Q225 917 207 937L207 947L248 947Q275 924 302.50 895Q330 866 353 838Q377 866 405.50 895Q434 924 461 947L502 947L502 937Q483 917 459.50 890.50Q436 864 415 837Q394 810 382 788L326 788Z"  horiz-adv-x="711" vert-adv-y="1000"  />

      
      <glyph glyph-name="uni010F" unicode="&#x010F;" d="M650 753Q642 720 624 677Q606 634 584 600L552 600L552 609Q559 626 567 653.50Q575 681 582 710Q589 739 592 760L650 760L650 753M279-10Q172-10 114.50 58.50Q57 127 57 261Q57 398 117 470Q177 542 284 542Q351 542 392.50 512.50Q434 483 455 441L459 441Q458 464 456.50 492.50Q455 521 455 545L455 760L512 760L512 0L466 0L458 93L455 93Q434 50 392 20Q350-10 279-10M286 39Q378 39 417 95Q456 151 456 257L456 266Q456 376 417.50 434.50Q379 493 290 493Q204 493 160 432.50Q116 372 116 260Q116 152 158 95.50Q200 39 286 39Z"  horiz-adv-x="599" vert-adv-y="1000"  />

      
      <glyph glyph-name="uni0110" unicode="&#x0110;" d="M299 714Q467 714 558 624.50Q649 535 649 364Q649 184 553.50 92Q458 0 276 0L104 0L104 329L24 329L24 380L104 380L104 714L299 714M287 663L162 663L162 380L354 380L354 329L162 329L162 51L272 51Q588 51 588 362Q588 663 287 663Z"  horiz-adv-x="711" vert-adv-y="1000"  />

      
      <glyph glyph-name="uni0111" unicode="&#x0111;" d="M279-10Q172-10 114.50 58.50Q57 127 57 260Q57 398 117 469.50Q177 541 283 541Q351 541 392.50 511.50Q434 482 455 439L459 439Q457 462 456 491Q455 520 455 544L455 618L228 618L228 663L455 663L455 760L512 760L512 663L587 663L587 618L512 618L512 0L465 0L458 93L455 93Q434 50 392 20Q350-10 279-10M287 39Q378 39 416.50 95Q455 151 455 256L455 266Q455 376 417 434Q379 492 290 492Q204 492 160.50 432Q117 372 117 259Q117 151 158.50 95Q200 39 287 39Z"  horiz-adv-x="600" vert-adv-y="1000"  />

      
      <glyph glyph-name="uni0112" unicode="&#x0112;" d="M492 0L100 0L100 714L492 714L492 662L158 662L158 401L473 401L473 349L158 349L158 52L492 52L492 0M445 840L445 792L169 792L169 840L445 840Z"  horiz-adv-x="553" vert-adv-y="1000"  />

      
      <glyph glyph-name="uni0113" unicode="&#x0113;" d="M290 542Q358 542 403.50 510.50Q449 479 472.50 424Q496 369 496 298L496 259L116 259Q116 153 165.50 96.50Q215 40 307 40Q356 40 393 48.50Q430 57 474 76L474 24Q434 6 395-2Q356-10 305-10Q185-10 121 63Q57 136 57 262Q57 343 84.50 406Q112 469 164 505.50Q216 542 290 542M289 494Q216 494 170.50 445Q125 396 118 306L437 306Q437 390 400.50 442Q364 494 289 494M420 658L420 610L144 610L144 658L420 658Z"  horiz-adv-x="552" vert-adv-y="1000"  />

      
      <glyph glyph-name="uni0114" unicode="&#x0114;" d="M492 0L100 0L100 714L492 714L492 662L158 662L158 401L473 401L473 349L158 349L158 52L492 52L492 0M447 911Q441 854 405.50 821Q370 788 307 788Q242 788 207.50 820.50Q173 853 169 911L209 911Q213 871 237.50 853.50Q262 836 308 836Q351 836 376.50 854Q402 872 407 911L447 911Z"  horiz-adv-x="553" vert-adv-y="1000"  />

      
      <glyph glyph-name="uni0115" unicode="&#x0115;" d="M290 542Q358 542 403.50 510.50Q449 479 472.50 424Q496 369 496 298L496 259L116 259Q116 153 165.50 96.50Q215 40 307 40Q356 40 393 48.50Q430 57 474 76L474 24Q434 6 395-2Q356-10 305-10Q185-10 121 63Q57 136 57 262Q57 343 84.50 406Q112 469 164 505.50Q216 542 290 542M289 494Q216 494 170.50 445Q125 396 118 306L437 306Q437 390 400.50 442Q364 494 289 494M423 729Q417 672 381.50 639Q346 606 283 606Q218 606 183.50 638.50Q149 671 145 729L185 729Q189 689 213.50 671.50Q238 654 284 654Q327 654 352.50 672Q378 690 383 729L423 729Z"  horiz-adv-x="552" vert-adv-y="1000"  />

      
      <glyph glyph-name="uni0116" unicode="&#x0116;" d="M492 0L100 0L100 714L492 714L492 662L158 662L158 401L473 401L473 349L158 349L158 52L492 52L492 0M305 911Q344 911 344 868Q344 824 305 824Q266 824 266 868Q266 911 305 911Z"  horiz-adv-x="553" vert-adv-y="1000"  />

      
      <glyph glyph-name="uni0117" unicode="&#x0117;" d="M290 542Q358 542 403.50 510.50Q449 479 472.50 424Q496 369 496 298L496 259L116 259Q116 153 165.50 96.50Q215 40 307 40Q356 40 393 48.50Q430 57 474 76L474 24Q434 6 395-2Q356-10 305-10Q185-10 121 63Q57 136 57 262Q57 343 84.50 406Q112 469 164 505.50Q216 542 290 542M289 494Q216 494 170.50 445Q125 396 118 306L437 306Q437 390 400.50 442Q364 494 289 494M280 729Q319 729 319 686Q319 642 280 642Q241 642 241 686Q241 729 280 729Z"  horiz-adv-x="552" vert-adv-y="1000"  />

      
      <glyph glyph-name="uni0118" unicode="&#x0118;" d="M492 0L100 0L100 714L492 714L492 662L158 662L158 401L473 401L473 349L158 349L158 52L492 52L492 0M387-123Q387-176 439-176Q454-176 466-174Q478-172 487-170L487-210Q475-213 461.50-215.50Q448-218 431-218Q387-218 362.50-195.50Q338-173 338-130Q338-91 365.50-54Q393-17 434 13L467 0Q433-30 410-59.50Q387-89 387-123Z"  horiz-adv-x="553" vert-adv-y="1000"  />

      
      <glyph glyph-name="uni0119" unicode="&#x0119;" d="M370-123Q370-176 421-176Q436-176 448.50-174Q461-172 469-170L469-210Q458-213 444.50-215.50Q431-218 413-218Q369-218 345-195.50Q321-173 321-130Q321-97 340.50-64.50Q360-32 392-2Q353-10 305-10Q185-10 121 63Q57 136 57 262Q57 343 84.50 406Q112 469 164 505.50Q216 542 290 542Q358 542 403.50 510.50Q449 479 472.50 424Q496 369 496 298L496 259L116 259Q116 153 165.50 96.50Q215 40 307 40Q356 40 393 48.50Q430 57 474 76L474 24Q470 22 467 21Q416-22 393-55.50Q370-89 370-123M289 494Q216 494 170.50 445Q125 396 118 306L437 306Q437 390 400.50 442Q364 494 289 494Z"  horiz-adv-x="552" vert-adv-y="1000"  />

      
      <glyph glyph-name="uni011A" unicode="&#x011A;" d="M492 0L100 0L100 714L492 714L492 662L158 662L158 401L473 401L473 349L158 349L158 52L492 52L492 0M279 788Q266 810 245 837Q224 864 201 890.50Q178 917 160 937L160 947L201 947Q228 924 255.50 895Q283 866 306 838Q330 866 358.50 895Q387 924 414 947L455 947L455 937Q436 917 412.50 890.50Q389 864 368 837Q347 810 335 788L279 788Z"  horiz-adv-x="553" vert-adv-y="1000"  />

      
      <glyph glyph-name="uni011B" unicode="&#x011B;" d="M290 542Q358 542 403.50 510.50Q449 479 472.50 424Q496 369 496 298L496 259L116 259Q116 153 165.50 96.50Q215 40 307 40Q356 40 393 48.50Q430 57 474 76L474 24Q434 6 395-2Q356-10 305-10Q185-10 121 63Q57 136 57 262Q57 343 84.50 406Q112 469 164 505.50Q216 542 290 542M289 494Q216 494 170.50 445Q125 396 118 306L437 306Q437 390 400.50 442Q364 494 289 494M254 606Q241 628 220 655Q199 682 176 708.50Q153 735 135 755L135 765L176 765Q203 742 230.50 713Q258 684 281 656Q305 684 333.50 713Q362 742 389 765L430 765L430 755Q411 735 387.50 708.50Q364 682 343 655Q322 628 310 606L254 606Z"  horiz-adv-x="552" vert-adv-y="1000"  />

      
      <glyph glyph-name="uni011C" unicode="&#x011C;" d="M387 364L647 364L647 32Q542-10 410-10Q240-10 151 87Q62 184 62 356Q62 465 105.50 548Q149 631 231 678Q313 725 428 725Q544 725 638 682L615 631Q570 651 522 662Q474 673 425 673Q330 673 262.50 633Q195 593 159 522Q123 451 123 357Q123 202 199 122Q275 42 422 42Q474 42 515 49Q556 56 589 68L589 311L387 311L387 364M430 947Q442 925 463 897.50Q484 870 507 843Q530 816 549 797L549 788L508 788Q481 810 453 839Q425 868 401 896Q377 868 349.50 839Q322 810 295 788L254 788L254 797Q273 817 296 843.50Q319 870 340 897.50Q361 925 374 947L430 947Z"  horiz-adv-x="724" vert-adv-y="1000"  />

      
      <glyph glyph-name="uni011D" unicode="&#x011D;" d="M283 542Q345 542 386.50 517.50Q428 493 453 451L457 451L465 532L511 532L511-17Q511-122 457-181Q403-240 282-240Q222-240 175.50-230.50Q129-221 92-204L92-149Q129-168 178-179.50Q227-191 284-191Q371-191 413-145Q455-99 455-20L455 11Q455 32 455.50 53.50Q456 75 457 94L454 94Q408-10 276-10Q173-10 115 60Q57 130 57 262Q57 391 115 466.50Q173 542 283 542M289 493Q202 493 159 432Q116 371 116 261Q116 153 159 96Q202 39 283 39Q349 39 386.50 65.50Q424 92 439.50 139Q455 186 455 246L455 281Q455 382 417.50 437.50Q380 493 289 493M319 765Q331 743 352 715.50Q373 688 396 661Q419 634 438 615L438 606L397 606Q370 628 342 657Q314 686 290 714Q266 686 238.50 657Q211 628 184 606L143 606L143 615Q162 635 185 661.50Q208 688 229 715.50Q250 743 263 765L319 765Z"  horiz-adv-x="599" vert-adv-y="1000"  />

      
      <glyph glyph-name="uni011E" unicode="&#x011E;" d="M387 364L647 364L647 32Q542-10 410-10Q240-10 151 87Q62 184 62 356Q62 465 105.50 548Q149 631 231 678Q313 725 428 725Q544 725 638 682L615 631Q570 651 522 662Q474 673 425 673Q330 673 262.50 633Q195 593 159 522Q123 451 123 357Q123 202 199 122Q275 42 422 42Q474 42 515 49Q556 56 589 68L589 311L387 311L387 364M541 911Q535 854 499.50 821Q464 788 401 788Q336 788 301.50 820.50Q267 853 263 911L303 911Q307 871 331.50 853.50Q356 836 402 836Q445 836 470.50 854Q496 872 501 911L541 911Z"  horiz-adv-x="724" vert-adv-y="1000"  />

      
      <glyph glyph-name="uni011F" unicode="&#x011F;" d="M283 542Q345 542 386.50 517.50Q428 493 453 451L457 451L465 532L511 532L511-17Q511-122 457-181Q403-240 282-240Q222-240 175.50-230.50Q129-221 92-204L92-149Q129-168 178-179.50Q227-191 284-191Q371-191 413-145Q455-99 455-20L455 11Q455 32 455.50 53.50Q456 75 457 94L454 94Q408-10 276-10Q173-10 115 60Q57 130 57 262Q57 391 115 466.50Q173 542 283 542M289 493Q202 493 159 432Q116 371 116 261Q116 153 159 96Q202 39 283 39Q349 39 386.50 65.50Q424 92 439.50 139Q455 186 455 246L455 281Q455 382 417.50 437.50Q380 493 289 493M430 729Q424 672 388.50 639Q353 606 290 606Q225 606 190.50 638.50Q156 671 152 729L192 729Q196 689 220.50 671.50Q245 654 291 654Q334 654 359.50 672Q385 690 390 729L430 729Z"  horiz-adv-x="599" vert-adv-y="1000"  />

      
      <glyph glyph-name="uni0120" unicode="&#x0120;" d="M387 364L647 364L647 32Q542-10 410-10Q240-10 151 87Q62 184 62 356Q62 465 105.50 548Q149 631 231 678Q313 725 428 725Q544 725 638 682L615 631Q570 651 522 662Q474 673 425 673Q330 673 262.50 633Q195 593 159 522Q123 451 123 357Q123 202 199 122Q275 42 422 42Q474 42 515 49Q556 56 589 68L589 311L387 311L387 364M399 911Q438 911 438 868Q438 824 399 824Q360 824 360 868Q360 911 399 911Z"  horiz-adv-x="724" vert-adv-y="1000"  />

      
      <glyph glyph-name="uni0121" unicode="&#x0121;" d="M283 542Q345 542 386.50 517.50Q428 493 453 451L457 451L465 532L511 532L511-17Q511-122 457-181Q403-240 282-240Q222-240 175.50-230.50Q129-221 92-204L92-149Q129-168 178-179.50Q227-191 284-191Q371-191 413-145Q455-99 455-20L455 11Q455 32 455.50 53.50Q456 75 457 94L454 94Q408-10 276-10Q173-10 115 60Q57 130 57 262Q57 391 115 466.50Q173 542 283 542M289 493Q202 493 159 432Q116 371 116 261Q116 153 159 96Q202 39 283 39Q349 39 386.50 65.50Q424 92 439.50 139Q455 186 455 246L455 281Q455 382 417.50 437.50Q380 493 289 493M287 729Q326 729 326 686Q326 642 287 642Q248 642 248 686Q248 729 287 729Z"  horiz-adv-x="599" vert-adv-y="1000"  />

      
      <glyph glyph-name="uni0122" unicode="&#x0122;" d="M387 364L647 364L647 32Q542-10 410-10Q240-10 151 87Q62 184 62 356Q62 465 105.50 548Q149 631 231 678Q313 725 428 725Q544 725 638 682L615 631Q570 651 522 662Q474 673 425 673Q330 673 262.50 633Q195 593 159 522Q123 451 123 357Q123 202 199 122Q275 42 422 42Q474 42 515 49Q556 56 589 68L589 311L387 311L387 364M443-68Q435-101 416-144Q397-187 373-221L341-221L341-212Q348-196 357.50-168.50Q367-141 374.50-111.50Q382-82 385-61L443-61L443-68Z"  horiz-adv-x="724" vert-adv-y="1000"  />

      
      <glyph glyph-name="uni0123" unicode="&#x0123;" d="M352 756Q344 740 335 712.50Q326 685 318.50 655.50Q311 626 308 605L250 605L250 612Q258 645 276.50 687.50Q295 730 319 765L352 765L352 756M283 542Q345 542 386.50 517.50Q428 493 453 451L457 451L465 532L511 532L511-17Q511-122 457-181Q403-240 282-240Q222-240 175.50-230.50Q129-221 92-204L92-149Q129-168 178-179.50Q227-191 284-191Q371-191 413-145Q455-99 455-20L455 11Q455 32 455.50 53.50Q456 75 457 94L454 94Q408-10 276-10Q173-10 115 60Q57 130 57 262Q57 391 115 466.50Q173 542 283 542M289 493Q202 493 159 432Q116 371 116 261Q116 153 159 96Q202 39 283 39Q349 39 386.50 65.50Q424 92 439.50 139Q455 186 455 246L455 281Q455 382 417.50 437.50Q380 493 289 493Z"  horiz-adv-x="599" vert-adv-y="1000"  />

      
      <glyph glyph-name="uni0124" unicode="&#x0124;" d="M623 0L565 0L565 348L158 348L158 0L100 0L100 714L158 714L158 400L565 400L565 714L623 714L623 0M395 947Q407 925 428 897.50Q449 870 472 843Q495 816 514 797L514 788L473 788Q446 810 418 839Q390 868 366 896Q342 868 314.50 839Q287 810 260 788L219 788L219 797Q238 817 261 843.50Q284 870 305 897.50Q326 925 339 947L395 947Z"  horiz-adv-x="724" vert-adv-y="1000"  />

      
      <glyph glyph-name="uni0125" unicode="&#x0125;" d="M145 517Q145 496 144 477Q143 458 141 440L145 440Q166 484 211.50 513Q257 542 325 542Q417 542 465 495Q513 448 513 348L513 0L457 0L457 344Q457 420 422 456.50Q387 493 320 493Q145 493 145 290L145 0L88 0L88 760L145 760L145 517M145 993Q157 971 178 943.50Q199 916 222 889Q245 862 264 843L264 834L223 834Q196 856 168 885Q140 914 116 942Q92 914 64.50 885Q37 856 10 834L-31 834L-31 843Q-12 863 11 889.50Q34 916 55 943.50Q76 971 89 993L145 993Z"  horiz-adv-x="596" vert-adv-y="1000"  />

      
      <glyph glyph-name="uni0126" unicode="&#x0126;" d="M100 0L100 536L0 536L0 585L100 585L100 714L158 714L158 585L565 585L565 714L623 714L623 585L723 585L723 536L623 536L623 0L565 0L565 348L158 348L158 0L100 0M158 400L565 400L565 536L158 536L158 400Z"  horiz-adv-x="724" vert-adv-y="1000"  />

      
      <glyph glyph-name="uni0127" unicode="&#x0127;" d="M145 760L145 663L372 663L372 617L145 617L145 507Q145 486 144 467.50Q143 449 141 430L145 430Q166 474 211.50 503Q257 532 326 532Q417 532 465 485Q513 438 513 338L513 0L457 0L457 334Q457 410 422 446.50Q387 483 320 483Q145 483 145 280L145 0L88 0L88 617L13 617L13 663L88 663L88 760L145 760Z"  horiz-adv-x="596" vert-adv-y="1000"  />

      
      <glyph glyph-name="uni0128" unicode="&#x0128;" d="M261 0L51 0L51 36L127 47L127 666L51 678L51 714L261 714L261 678L185 666L185 47L261 36L261 0M-30 794Q-25 848 1 877.50Q27 907 70 907Q93 907 112.50 897Q132 887 149.50 874Q167 861 184 851Q201 841 219 841Q241 841 257 855.50Q273 870 279 908L316 908Q311 854 284.50 824Q258 794 216 794Q193 794 173.50 804Q154 814 137 827Q120 840 103 850Q86 860 67 860Q44 860 29 845.50Q14 831 8 794L-30 794Z"  horiz-adv-x="311" vert-adv-y="1000"  />

      
      <glyph glyph-name="uni0129" unicode="&#x0129;" d="M145 0L88 0L88 532L145 532L145 0M-69 612Q-64 666-38 695.50Q-12 725 31 725Q54 725 73.50 715Q93 705 110.50 692Q128 679 145 669Q162 659 180 659Q202 659 218 673.50Q234 688 240 726L277 726Q272 672 245.50 642Q219 612 177 612Q154 612 134.50 622Q115 632 98 645Q81 658 64 668Q47 678 28 678Q5 678-10 663.50Q-25 649-31 612L-69 612Z"  horiz-adv-x="233" vert-adv-y="1000"  />

      
      <glyph glyph-name="uni012A" unicode="&#x012A;" d="M261 0L51 0L51 36L127 47L127 666L51 678L51 714L261 714L261 678L185 666L185 47L261 36L261 0M293 840L293 792L17 792L17 840L293 840Z"  horiz-adv-x="311" vert-adv-y="1000"  />

      
      </font>
</defs>
</svg>
