<?xml version="1.0" encoding="utf-8"?>
<!-- Generator: Adobe Illustrator 22.0.1, SVG Export Plug-In . SVG Version: 6.00 Build 0)  -->
<svg version="1.1" id="Layer_1" xmlns="http://www.w3.org/2000/svg" xmlns:xlink="http://www.w3.org/1999/xlink" x="0px" y="0px"
	 viewBox="0 0 48 48" style="enable-background:new 0 0 48 48;" xml:space="preserve">
<title>ambulance</title>
<g>
	<path d="M46.5,32h-1.2v-8c0-0.9-0.4-1.8-1-2.5L36.8,14c-0.7-0.7-1.6-1-2.5-1H31v-2.7c0-2-1.6-3.6-3.6-3.6H4.6c-2,0-3.6,1.6-3.6,3.6
		v22.9c0,2,1.6,3.6,3.6,3.6h0.4c0,3.9,3.2,7.1,7.1,7.1c3.9,0,7.1-3.2,7.1-7.1h9.5c0,3.9,3.2,7.1,7.1,7.1c3.9,0,7.1-3.2,7.1-7.1h3.6
		c0.7,0,1.2-0.5,1.2-1.2v-2.4C47.7,32.5,47.1,32,46.5,32z M12.1,40.3c-2,0-3.6-1.6-3.6-3.6c0-2,1.6-3.6,3.6-3.6c2,0,3.6,1.6,3.6,3.6
		C15.6,38.7,14,40.3,12.1,40.3z M15.8,29c-5.2,0-9.4-4.2-9.4-9.4s4.2-9.4,9.4-9.4c5.2,0,9.4,4.2,9.4,9.4S21,29,15.8,29z M35.8,40.3
		c-2,0-3.6-1.6-3.6-3.6c0-2,1.6-3.6,3.6-3.6c2,0,3.6,1.6,3.6,3.6C39.4,38.7,37.8,40.3,35.8,40.3z M41.7,24.8H31v-8.3h3.3l7.4,7.4
		V24.8z"/>
	<polygon points="17.7,14.2 14,14.2 14,18 10.4,18 10.4,21.5 14,21.5 14,25.1 17.7,25.1 17.7,21.5 21.3,21.5 21.3,18 17.7,18 	"/>
</g>
</svg>
