<?xml version="1.0" encoding="utf-8"?>
<!-- Generator: Adobe Illustrator 22.0.1, SVG Export Plug-In . SVG Version: 6.00 Build 0)  -->
<svg version="1.1" id="Layer_1" xmlns="http://www.w3.org/2000/svg" xmlns:xlink="http://www.w3.org/1999/xlink" x="0px" y="0px"
	 viewBox="0 0 48 48" style="enable-background:new 0 0 48 48;" xml:space="preserve">
<title>doctor</title>
<g>
	<ellipse transform="matrix(0.3827 -0.9239 0.9239 0.3827 1.1903 31.743)" cx="24.3" cy="15" rx="13" ry="13"/>
</g>
<g>
	<path d="M14.3,39.5c0,1.2,1,2.1,2.1,2.1s2.1-0.9,2.1-2.1s-1-2.1-2.1-2.1S14.3,38.4,14.3,39.5z"/>
	<path d="M46.1,43.3c-2.1-6.1-6.6-11-12.4-13.6V32c3.3,0.6,5.7,3.5,5.7,6.8v3.6c0,0.7-0.5,1.2-1.2,1.4l-2.9,0.6
		c-0.4,0.1-0.8-0.2-0.8-0.5l-0.3-1.4c-0.1-0.4,0.2-0.7,0.6-0.8l1.7-0.3v-2.5c0-5.5-8.6-5.7-8.6,0.2v2.3l1.7,0.3
		c0.4,0.1,0.6,0.4,0.6,0.8l-0.3,1.4c-0.1,0.4-0.5,0.6-0.8,0.5L26.3,44c-0.7-0.1-1.2-0.7-1.2-1.4v-3.8c0-3.4,2.5-6.2,5.7-6.8v-3.4
		c-2,0.9-4.1,1.5-6.4,1.5c-2.3,0-4.5-0.5-6.4-1.5v6.2c2.1,0.6,3.6,2.5,3.6,4.7c0,2.7-2.2,4.9-5,4.9c-2.8,0-5-2.2-5-4.9
		c0-2.2,1.5-4.1,3.6-4.7v-5.4c-6,2.6-10.7,7.6-12.8,13.8C1.6,45.1,3,47,4.9,47h38.5C45.3,47,46.7,45.1,46.1,43.3z"/>
</g>
</svg>
