<?xml version="1.0" encoding="utf-8"?>
<!-- Generator: Adobe Illustrator 22.0.1, SVG Export Plug-In . SVG Version: 6.00 Build 0)  -->
<svg version="1.1" id="Layer_1" xmlns="http://www.w3.org/2000/svg" xmlns:xlink="http://www.w3.org/1999/xlink" x="0px" y="0px"
	 viewBox="0 0 48 48" style="enable-background:new 0 0 48 48;" xml:space="preserve">
<title>dollar</title>
<path d="M20.6,17.3c0-1.8,1.6-2.9,4.2-2.9c2,0,4.1,0.9,5.8,2.1c0.4,0.4,1.1,0.2,1.3-0.3l1.8-3.3c0.2-0.4,0.1-0.8-0.2-1.2
	C31.7,10.2,29,9.2,26.6,9V5.4c0-0.5-0.4-0.9-0.9-0.9h-3c-0.5,0-0.9,0.4-0.9,0.9v3.8c-4.5,1-7.4,4.3-7.4,8.3
	c0,9.4,14.1,8.5,14.1,12.9c0,1.5-1.2,3.1-4,3.1c-2.3,0-4.8-1.2-6.7-2.8c-0.4-0.4-1-0.3-1.3,0.2l-2.3,3.1c-0.3,0.4-0.3,0.9,0.1,1.2
	c1.9,1.8,4.5,3.1,7.5,3.7v3.7c0,0.5,0.4,0.9,0.9,0.9h3c0.5,0,0.9-0.4,0.9-0.9V39c5-0.8,8.1-4.5,8.1-8.9
	C34.7,20.9,20.6,22.1,20.6,17.3L20.6,17.3z"/>
</svg>
