<?xml version="1.0" encoding="utf-8"?>
<!-- Generator: Adobe Illustrator 22.0.1, SVG Export Plug-In . SVG Version: 6.00 Build 0)  -->
<svg version="1.1" id="Layer_1" xmlns="http://www.w3.org/2000/svg" xmlns:xlink="http://www.w3.org/1999/xlink" x="0px" y="0px"
	 viewBox="0 0 89.5 89.8" style="enable-background:new 0 0 89.5 89.8;" xml:space="preserve">
<style type="text/css">
	.st0{fill:#272C31;}
</style>
<title>globe</title>
<path class="st0" d="M44.5,0c-41,0-60.3,52.7-29.1,79.3c31.7,27,81.2-2.1,73.3-42.9C84.4,15.4,66,0.2,44.5,0z M50.8,6.9
	c-0.6,1.9-3.7,0.6-5,0.6c1.1-0.4,7.3-2.9,3.8-0.8L50.8,6.9C50.2,8.7,50.4,6.8,50.8,6.9z M35.1,7.7c0.2,0.2,6.7-1.7,7.4-1.9
	c-0.1,0.3-7.8,1.6-3.9,3c-1.3-0.2-3.3-0.7-4.2,0.5c0.2,0.1,2.4,3.3,0.4,2.6c-0.4-0.5-0.3-0.9,0.2-1.3c-0.6-0.7-1.6-0.8-2.3-0.2
	c0,0,0,0,0,0c3,0-1.8,0.9-1.8,0.9c-1.7,0.4-3.8,0.7-5-0.3c1.2-1.2,5.5,0.6,5.7-1.6c-1.3-0.3-1.2-0.7-2.1-1.1
	c1.8-0.7,3.7-1.3,5.6-1.8C34.8,6.8,34.8,7.3,35.1,7.7C35.1,7.7,35.1,7.7,35.1,7.7C35.8,8.4,34.7,7.4,35.1,7.7z M4.9,45
	c0-6,1.4-12,4.1-17.4c0.7-1.5,2.1-4.5,3.4-5.6c2.1-1.8,2-1.8,3.8,0.5c2.5,3,0.9,5.8,2,9.1c0.3,1,8.3,10.2,8.1,10.3s-2.2-4.3-2.6-4.8
	c3,0.7,4.2,5.6,6.3,7.4s4.7,1.7,7,2.6c2.3,1,4.4,2.4,6.3,4c0.7,0.5,1.6-0.6,2.2,0.8s-1.3,2.9-1.6,4.2c-1.5,5.5,5.2,7.5,5.9,12.3
	c0.6,4.5-1.2,11.8-2.9,15.8c0.6-0.1,0.8,0.1,0.7,0.6C25,87,4.9,67.3,4.9,45z M57.2,75.9c0.6,2.5,6.3-6.1,5.7-5.5
	c0.8-1.3,2.6-1.2,3.5-2.4c1.3-1.7,1.2-3,2-5c1.3-2.9,3.7-3.3-0.3-5.4c-1-0.5-5.3-1.9-5.7-0.7c-0.3-0.2-0.6-0.4-0.8-0.7
	c0.4,0.1,0.9-0.1,1.1-0.5c-0.7,0.1-1.3,0.2-2,0.2c1-4-6.7-7-10.7-6.7c-1.4,0.1-3,1.3-4.2,1.3c-4.7-0.1-2.2-1.3-3.9-3.5
	c-0.5-0.3-1.1-0.4-1.7-0.4c0.3,0.9-1.2-2.3-0.5-1.6c-0.8-0.8,1.4-0.7-0.3-1.9c-0.5-0.3-2,1.8-2.5,1.8c-4.9-0.1-3.5-5.3,0-6.6
	c3.9-1.5,4,0.5,6.7,2.2c-0.5-0.3,0.9-4.2,1.3-4.7c1.4,0,4.6-9.3,8.5-7.7c-0.5,0.3-1,0.7-1.5,1c0.6-0.8,7.2-2.2,8-2
	c-1.3-0.3-0.2-2.7-2.5-2.3c-0.7,0.1-1.4,2.6-2.1,2.6c-2.2,0.5-1.5-1.3-1.9-1.4c-1.3-0.2-1.8,0.4-3.3,0.8c0.5-3.7,7.8-0.1,7.9-3.6
	c0-0.6-2.5-2.8-3-3.2s-0.5-1.7-1.1-2c-0.4-0.2-1.5,0.2-1.4,0.3s-0.7,0.8-1.1,0.7c-0.8-0.3-1-1.3-1.6-1.6c-0.9-0.4-3.1-2.1-4.2-1.1
	s1,5.1-0.7,6.6s-1,0-3.2-1.5c-3.4-2.4-7.9-1.5-3.6-6.2c1-0.9,2-1.7,3.1-2.5c0.3-0.3,1.4-0.1,2-0.5c0.4-0.3,0.2-1.7,0.5-1.9
	c3-1.5,7,1.6,2.4,4c2.7,0,4.3,2,6.8,2c-0.4-0.3-0.8-0.7-1.2-1.1c0-0.2,1.5,0.5,1.9,0.2c1-0.6-1.9-1.6-1.5-2.6c0.7-0.1,2.4,2.5,2.9,0
	c-0.8-0.5-3.7-1-3.4-2.5c1.8,1.3,3.6,2.7,5.3,4.2c0.8,0.7,1.8-0.8,2.5,0.8c0.3,0.6-1.8-0.1-2.1,0.3c4.1,1.4,1,0.8,0.2,2.9
	c2.6-0.9,2,8.4,7.2,3.8c1.8-1.6,1.5-1.8,3.7-2.9c3.6-1.8,4-2.5,6.9,0.5c2.2,2.4,3.9,5.1,5.3,8c0.5,1,1.7,2.8,1.7,4
	c0,0.1-1,0.9-1,1.3c0.2,4.2,3.8,4,1.7,7.8c-1.7,3.2-5,4.8-3.9,9.2c0.7,2.7,3.8,3.8,4,5.9s-2.6,6.3-3.6,8
	C73.6,74.3,63.6,81.5,52,83.9"/>
</svg>
