<?xml version="1.0" encoding="utf-8"?>
<!-- Generator: Adobe Illustrator 22.0.1, SVG Export Plug-In . SVG Version: 6.00 Build 0)  -->
<svg version="1.1" id="Layer_1" xmlns="http://www.w3.org/2000/svg" xmlns:xlink="http://www.w3.org/1999/xlink" x="0px" y="0px"
	 viewBox="0 0 48 48" style="enable-background:new 0 0 48 48;" xml:space="preserve">
<title>hospital alternate</title>
<g>
	<path d="M42.7,44.6h-2.1V10.3c0-0.9-0.8-1.7-1.7-1.7h-6v-6c0-0.9-0.8-1.7-1.7-1.7H17.4c-0.9,0-1.7,0.8-1.7,1.7v6h-6
		c-0.9,0-1.7,0.8-1.7,1.7v34.3H5.8c-0.7,0-1.3,0.6-1.3,1.3s0.6,1.3,1.3,1.3h36.9c0.7,0,1.3-0.6,1.3-1.3S43.4,44.6,42.7,44.6z
		 M24.3,2.5c3.6,0,6.4,2.9,6.4,6.4s-2.9,6.4-6.4,6.4s-6.4-2.9-6.4-6.4S20.7,2.5,24.3,2.5z M15.7,18h6v6h-6V18z M15.7,25.7h6v6h-6
		V25.7z M27.7,44.6h-6.9v-9.4h6.9V44.6z M32.8,31.7h-6v-6h6V31.7z M32.8,24h-6v-6h6V24z"/>
	<polygon points="23,13 25.7,13 25.7,10.3 28.4,10.3 28.4,7.7 25.7,7.7 25.7,4.9 23,4.9 23,7.7 20.4,7.7 20.4,10.3 23,10.3 	"/>
</g>
</svg>
