<?xml version="1.0" encoding="utf-8"?>
<!-- Generator: Adobe Illustrator 21.0.0, SVG Export Plug-In . SVG Version: 6.00 Build 0)  -->
<svg version="1.1" id="Layer_1" xmlns="http://www.w3.org/2000/svg" xmlns:xlink="http://www.w3.org/1999/xlink" x="0px" y="0px"
	 viewBox="0 0 71.8 68.6" style="enable-background:new 0 0 71.8 68.6;" xml:space="preserve">
<title>hospital</title>
<g>
	<polygon points="53.1,33.8 49,33.8 49,38 45.1,38 45.1,41.9 49,41.9 49,45.9 53.1,45.9 53.1,41.9 57.1,41.9 57.1,38 53.1,38 	"/>
	<path d="M35,27.2V6.3H7.1v61.8h11.2h8.2V55.5h11.6v12.6h27.3V27.2H35z M19.7,47.5h-8V40h8V47.5z M19.7,37.6h-8v-7.5h8V37.6z
		 M19.7,28.1h-8v-7.5h8V28.1z M19.7,18.3h-8v-7.5h8V18.3z M30.7,47.5h-8V40h8C30.7,39.9,30.7,47.5,30.7,47.5z M30.7,37.6h-8v-7.5h8
		V37.6z M30.7,28.1h-8v-7.5h8V28.1z M30.7,18.3h-8v-7.5h8C30.7,10.7,30.7,18.3,30.7,18.3z M51.1,49c-5,0-9.1-4-9.1-9.1
		s4-9.1,9.1-9.1s9.1,4,9.1,9.1S56,49,51.1,49z"/>
</g>
</svg>
