<?xml version="1.0" encoding="utf-8"?>
<!-- Generator: Adobe Illustrator 22.0.1, SVG Export Plug-In . SVG Version: 6.00 Build 0)  -->
<svg version="1.1" id="Layer_1" xmlns="http://www.w3.org/2000/svg" xmlns:xlink="http://www.w3.org/1999/xlink" x="0px" y="0px"
	 viewBox="0 0 21 28" style="enable-background:new 0 0 21 28;" xml:space="preserve">
<title>medical clipboard alternate</title>
<path d="M15.5,20c0.3,0,0.5-0.2,0.5-0.5S15.8,19,15.5,19h-10C5.2,19,5,19.2,5,19.5S5.2,20,5.5,20H15.5z"/>
<path d="M15.5,23c0.3,0,0.5-0.2,0.5-0.5S15.8,22,15.5,22h-10C5.2,22,5,22.2,5,22.5S5.2,23,5.5,23H15.5z"/>
<path d="M20.5,2C20.8,2,21,2.2,21,2.5v25c0,0.3-0.2,0.5-0.5,0.5h-20C0.2,28,0,27.8,0,27.5v-25C0,2.2,0.2,2,0.5,2H8v3H3v20h15V5h-5V2
	H20.5z"/>
<circle cx="10.5" cy="3" r="1"/>
<path d="M7.5,4H6C5.7,4,5.5,4.2,5.5,4.5v2C5.5,6.8,5.7,7,6,7h9c0.3,0,0.5-0.2,0.5-0.5v-2C15.5,4.2,15.3,4,15,4h-1.5V3
	c0-1.7-1.3-3-3-3s-3,1.3-3,3V4z M8.5,4.5V3c0-1.1,0.9-2,2-2s2,0.9,2,2v1.5C12.5,4.8,12.7,5,13,5h1.5v1h-8V5H8C8.3,5,8.5,4.8,8.5,4.5
	z"/>
<image style="overflow:visible;" width="357" height="383" xlink:href="1BDA7AD4.jpg"  transform="matrix(0.6001 0 0 0.6001 -473.0519 -68.1667)">
</image>
<path d="M5.2,13.1H2.8c-0.3,0-0.6-0.3-0.6-0.6v0c0-0.3,0.3-0.6,0.6-0.6h2.4c0.3,0,0.6,0.3,0.6,0.6v0C5.8,12.9,5.5,13.1,5.2,13.1z"/>
<path d="M18.2,14.1h-2.4c-0.3,0-0.6-0.3-0.6-0.6v0c0-0.3,0.3-0.6,0.6-0.6h2.4c0.3,0,0.6,0.3,0.6,0.6v0
	C18.8,13.8,18.5,14.1,18.2,14.1z"/>
<path d="M6.5,14.6L4.8,13c-0.2-0.2-0.2-0.6,0-0.9h0c0.2-0.2,0.6-0.2,0.9,0l1.7,1.7c0.2,0.2,0.2,0.6,0,0.9l0,0
	C7.1,14.9,6.7,14.9,6.5,14.6z"/>
<path d="M15.3,13.9l-1.3-2c-0.2-0.3-0.1-0.7,0.2-0.8l0,0c0.3-0.2,0.7-0.1,0.8,0.2l1.3,2c0.2,0.3,0.1,0.7-0.2,0.8l0,0
	C15.9,14.2,15.5,14.1,15.3,13.9z"/>
<path d="M10.1,9.1l-2.6,5.4c-0.1,0.3-0.5,0.4-0.8,0.3l0,0c-0.3-0.1-0.4-0.5-0.3-0.8L9,8.5c0.1-0.3,0.5-0.4,0.8-0.3l0,0
	C10.1,8.4,10.2,8.8,10.1,9.1z"/>
<path d="M15.1,11.7L12.9,17c-0.1,0.3-0.5,0.5-0.8,0.4l0,0c-0.3-0.1-0.5-0.4-0.3-0.8l2.2-5.4c0.1-0.3,0.5-0.5,0.8-0.4h0
	C15.1,11,15.2,11.3,15.1,11.7z"/>
<path d="M10.1,8.6l2.8,8.1c0.1,0.3-0.1,0.7-0.4,0.8l0,0c-0.3,0.1-0.7-0.1-0.8-0.4L8.9,9C8.8,8.7,9,8.3,9.3,8.2l0,0
	C9.6,8.1,10,8.3,10.1,8.6z"/>
</svg>
