<?xml version="1.0" encoding="utf-8"?>
<!-- Generator: Adobe Illustrator 22.0.1, SVG Export Plug-In . SVG Version: 6.00 Build 0)  -->
<svg version="1.1" id="Layer_1" xmlns="http://www.w3.org/2000/svg" xmlns:xlink="http://www.w3.org/1999/xlink" x="0px" y="0px"
	 viewBox="0 0 48 48" style="enable-background:new 0 0 48 48;" xml:space="preserve">
<title>medical briefcase</title>
<g>
	<polygon points="25.9,21.6 21.2,21.6 21.2,26.4 16.7,26.4 16.7,30.9 21.2,30.9 21.2,35.5 25.9,35.5 25.9,30.9 30.5,30.9 30.5,26.4 
		25.9,26.4 	"/>
	<path d="M40.4,11.4h-5.8h-0.1v-0.7c0-0.4-0.3-0.6-0.6-0.6h-1.2V8.5c0-3-2.6-5.5-5.8-5.5h-6.4c-3.2,0-5.8,2.5-5.8,5.5v1.6h-1.3
		c-0.4,0-0.6,0.3-0.6,0.6v0.7h0H6.8c-3.2,0-5.7,2.6-5.7,5.7v22.1c0,3.2,2.6,5.7,5.7,5.7h2.5c0,0.5,0.4,0.8,0.8,0.8h3.3
		c0.5,0,0.8-0.4,0.8-0.8H33c0,0.5,0.4,0.8,0.8,0.8h3.3c0.5,0,0.8-0.4,0.8-0.8h2.5c3.2,0,5.7-2.6,5.7-5.7V17.1
		C46.1,13.9,43.5,11.4,40.4,11.4z M7,43H5V13h2V43z M17.2,8.5c0-1.7,1.4-3,3.2-3h6.4c1.8,0,3.2,1.4,3.2,3v1.6h-1.3
		c-0.4,0-0.6,0.3-0.6,0.6v0.7h-9v-0.7c0-0.4-0.3-0.6-0.6-0.6h-1.2V8.5z M23.6,40c-6.6,0-11.9-5.3-11.9-11.9S17,16.3,23.6,16.3
		c6.6,0,11.9,5.3,11.9,11.9S30.1,40,23.6,40z M42,43h-2V13h2V43z"/>
</g>
</svg>
