<?xml version="1.0" encoding="utf-8"?>
<!-- Generator: Adobe Illustrator 22.0.1, SVG Export Plug-In . SVG Version: 6.00 Build 0)  -->
<svg version="1.1" id="medicine" xmlns="http://www.w3.org/2000/svg" xmlns:xlink="http://www.w3.org/1999/xlink" x="0px" y="0px"
	 viewBox="0 0 430 430" style="enable-background:new 0 0 430 430;" xml:space="preserve">
<title>medicine symbol</title>
<circle cx="215.4" cy="69.7" r="37.7"/>
<path d="M215.4,405.5L215.4,405.5c-4.7,0-8.6-3.9-8.7-8.6l-3-289c0-3.9,3-7,7-7h9.5c3.9,0,7,3.2,7,7l-3,289
	C224.1,401.8,220.2,405.5,215.4,405.5z"/>
<path d="M177.9,125.4v73.1c0,0-61.7,20.1-67.5-20.8c0,0-32.4,23.3-46.2-13.2c0,0-26.4,7.6-26.9-19.7c0,0-27.5,8.8-33.7-22.5
	C3.6,122.1,154.4,88.1,177.9,125.4z"/>
<path d="M252.2,125.4v73.1c0,0,61.7,20.1,67.5-20.8c0,0,32.4,23.3,46.2-13.2c0,0,26.4,7.6,26.9-19.7c0,0,27.5,8.8,33.7-22.5
	C426.5,122.1,275.5,88.1,252.2,125.4z"/>
<path d="M224.2,242.3c14.1-2.3,25.2-3.7,33.8-5c3,1.9,6.9,3.1,11.1,3.1c9.8,0,17.7-6.2,17.7-13.8s-7.9-13.8-17.7-13.8
	c-6.6,0-12.4,2.9-15.4,7.1c-13.4,1.4-28.9,2.8-32.6,3.3c-40.3,6.6-66.2,10.6-72.2,20.6c-2.2,3.6-2.5,7.7-0.8,11.5
	c4.1,9.5,25.5,13.5,61.1,21.4c8,1.8,36.1,4.6,36,6.1c0.4,2.5-24.2,5.5-29.6,6.4c-9.4,2.3-23.1,4.4-28.3,5.6
	c-21,5.7-25.8,11.6-25.3,22.8c0.6,12.7,22.1,17.1,43.6,23.2c8.1,2.2,30.8,4.3,31.2,7.5c0.4,3.4-4.5,3.1-24,8.9
	c-6.9,3.2-17.9,7.6-23.2,11.3c-4.8,3.4-5.6,9.4-1.9,14.3c2.6,3.4,8.7,2.8,11.5,1.4c5.1-2.7,15.9-7.5,21.8-10.2
	c18.4-8.6,39.1-14.8,39.7-25.9c0.1-3-0.6-8.8-7.7-13.2c-8.7-5.2-29.4-9-42.1-12.6c-5.8-1.5-24.6-2.5-25-5.8c0-2.2,4.1-3.6,7.3-4.2
	c7.5-1.8,19.1-3.1,27.3-5.3c27-7.2,48.9-11.5,50.9-22.2c0.4-2.3,0.8-8.3-5.8-13c-7-5.1-29.1-8.6-52.2-13.7
	c-8.8-1.9-38.3-4.2-38.1-7.5C175.3,247.8,212,244.2,224.2,242.3z"/>
</svg>
