<?xml version="1.0" encoding="utf-8"?>
<!-- Generator: Adobe Illustrator 22.0.1, SVG Export Plug-In . SVG Version: 6.00 Build 0)  -->
<svg version="1.1" id="Layer_1" xmlns="http://www.w3.org/2000/svg" xmlns:xlink="http://www.w3.org/1999/xlink" x="0px" y="0px"
	 viewBox="0 0 21 28" style="enable-background:new 0 0 21 28;" xml:space="preserve">
<title>medical clipboard</title>
<path d="M15.5,20c0.3,0,0.5-0.2,0.5-0.5S15.8,19,15.5,19h-10C5.2,19,5,19.2,5,19.5S5.2,20,5.5,20H15.5z"/>
<path d="M15.5,23c0.3,0,0.5-0.2,0.5-0.5S15.8,22,15.5,22h-10C5.2,22,5,22.2,5,22.5S5.2,23,5.5,23H15.5z"/>
<path d="M20.5,2C20.8,2,21,2.2,21,2.5v25c0,0.3-0.2,0.5-0.5,0.5h-20C0.2,28,0,27.8,0,27.5v-25C0,2.2,0.2,2,0.5,2H8v3H3v20h15V5h-5V2
	H20.5z"/>
<circle cx="10.5" cy="3" r="1"/>
<path d="M7.5,4H6C5.7,4,5.5,4.2,5.5,4.5v2C5.5,6.8,5.7,7,6,7h9c0.3,0,0.5-0.2,0.5-0.5v-2C15.5,4.2,15.3,4,15,4h-1.5V3
	c0-1.7-1.3-3-3-3s-3,1.3-3,3V4z M8.5,4.5V3c0-1.1,0.9-2,2-2s2,0.9,2,2v1.5C12.5,4.8,12.7,5,13,5h1.5v1h-8V5H8C8.3,5,8.5,4.8,8.5,4.5
	z"/>
<polygon points="11.9,8.8 9.1,8.8 9.1,11.7 6.3,11.7 6.3,14.4 9.1,14.4 9.1,17.2 11.9,17.2 11.9,14.4 14.7,14.4 14.7,11.7 
	11.9,11.7 "/>
</svg>
