<?xml version="1.0" encoding="utf-8"?>
<!-- Generator: Adobe Illustrator 21.0.2, SVG Export Plug-In . SVG Version: 6.00 Build 0)  -->
<svg version="1.1" id="Layer_1" xmlns="http://www.w3.org/2000/svg" xmlns:xlink="http://www.w3.org/1999/xlink" x="0px" y="0px"
	 viewBox="0 0 71.8 68.6" style="enable-background:new 0 0 71.8 68.6;" xml:space="preserve">
<path d="M26.4,47.3H15.6L7.4,28.8H7.3c0.2,3.1,0.4,4.4,0.4,6v12.5H0V19.6h10.8l8.1,18.2H19c-0.2-2.8-0.3-4-0.3-5.7V19.6h7.7V47.3z"
	/>
<path d="M30.2,47.3V19.6h8.5v20.7h9.7v7H30.2z"/>
<path d="M71.8,28.4c0,3.1-0.9,5.5-2.7,7.2c-1.8,1.7-4.4,2.5-7.8,2.5h-2.1v9.2h-8.5V19.6h10.6c3.5,0,6.1,0.8,7.9,2.3
	C70.9,23.4,71.8,25.6,71.8,28.4z M59.1,32h1.4c1.1,0,3-0.3,3.7-0.9c0.7-0.6,1-1.5,1-2.6c0-1.9-2-2.8-4.1-2.8h-1.9V32z"/>
</svg>
