<?xml version="1.0" encoding="utf-8"?>
<!-- Generator: Adobe Illustrator 22.0.1, SVG Export Plug-In . SVG Version: 6.00 Build 0)  -->
<svg version="1.1" id="Layer_1" xmlns="http://www.w3.org/2000/svg" xmlns:xlink="http://www.w3.org/1999/xlink" x="0px" y="0px"
	 viewBox="0 0 48 48" style="enable-background:new 0 0 48 48;" xml:space="preserve">
<title>patient</title>
<g>
	<ellipse transform="matrix(0.3827 -0.9239 0.9239 0.3827 1.1903 31.743)" cx="24.3" cy="15" rx="13" ry="13"/>
	<path d="M46.1,43.3c-2.4-7-8.1-12.5-15.2-14.7c-2,0.9-4.2,1.5-6.5,1.5c-2.4,0-4.6-0.6-6.7-1.6c-7.2,2.1-13,7.6-15.4,14.7
		C1.6,45.1,3,47,4.9,47h38.5C45.3,47,46.7,45.1,46.1,43.3z M36.1,39.1L30,45.2l-0.1,0.2c0,0,0,0,0,0l-6.3-6.3
		c-1.7-1.7-1.7-4.5,0-6.1s4.5-1.7,6.1,0l0.1,0.1l0.1-0.1c1.7-1.7,4.5-1.7,6.1,0S37.8,37.4,36.1,39.1z"/>
</g>
</svg>
