<?xml version="1.0" encoding="utf-8"?>
<!-- Generator: Adobe Illustrator 22.0.1, SVG Export Plug-In . SVG Version: 6.00 Build 0)  -->
<svg version="1.1" id="Layer_1" xmlns="http://www.w3.org/2000/svg" xmlns:xlink="http://www.w3.org/1999/xlink" x="0px" y="0px"
	 viewBox="0 0 71.8 68.6" style="enable-background:new 0 0 71.8 68.6;" xml:space="preserve">
<path d="M33.2,28c0,3.2-1,5.6-2.8,7.3s-4.5,2.5-8,2.5h-2.1v9.4h-7.6V19h9.8c3.5,0,6.3,0.8,8,2.4C32.2,22.8,33.2,25.1,33.2,28z
	 M20.3,31.7h1.4c1.1,0,2.1-0.3,2.8-1s1-1.5,1-2.7c0-2-1.1-2.8-3.2-2.8h-2V31.7z"/>
<path d="M42.9,37v10.3h-7.6V19h9.3c7.7,0,11.5,2.8,11.5,8.4c0,3.2-1.5,5.8-4.8,7.6l8.3,12.4h-8.7l-6-10.3h-2
	C42.9,37.1,42.9,37,42.9,37z M42.9,31.2h1.4c2.7,0,4.1-1.1,4.1-3.5c0-2-1.3-3-3.9-3H43C42.9,24.8,42.9,31.2,42.9,31.2z"/>
</svg>
