<?xml version="1.0" encoding="utf-8"?>
<!-- Generator: Adobe Illustrator 22.0.1, SVG Export Plug-In . SVG Version: 6.00 Build 0)  -->
<svg version="1.1" id="Layer_1" xmlns="http://www.w3.org/2000/svg" xmlns:xlink="http://www.w3.org/1999/xlink" x="0px" y="0px"
	 viewBox="0 0 21 28" style="enable-background:new 0 0 21 28;" xml:space="preserve">
<title>prescription bottle</title>
<path d="M16.4,8v16.2H4.7V8H2.4v18.2c0,0.2,0.2,0.4,0.4,0.4h15.5c0.2,0,0.4-0.2,0.4-0.4V8H16.4z"/>
<path d="M20.3,8.6H0.8c-0.2,0-0.4-0.2-0.4-0.4V1.6c0-0.2,0.2-0.4,0.4-0.4h19.5c0.2,0,0.4,0.2,0.4,0.4v6.5
	C20.7,8.4,20.5,8.6,20.3,8.6z M2.6,6.6h15.9c0.2,0,0.4-0.2,0.4-0.4V3.6c0-0.2-0.2-0.4-0.4-0.4H2.6c-0.2,0-0.4,0.2-0.4,0.4v2.6
	C2.2,6.4,2.4,6.6,2.6,6.6z"/>
<polygon points="11.9,11.1 9.2,11.1 9.2,14 6.5,14 6.5,16.6 9.2,16.6 9.2,19.3 11.9,19.3 11.9,16.6 14.6,16.6 14.6,14 11.9,14 "/>
</svg>
