<?xml version="1.0" encoding="utf-8"?>
<!-- Generator: Adobe Illustrator 22.0.1, SVG Export Plug-In . SVG Version: 6.00 Build 0)  -->
<svg version="1.1" id="Layer_1" xmlns="http://www.w3.org/2000/svg" xmlns:xlink="http://www.w3.org/1999/xlink" x="0px" y="0px"
	 viewBox="0 0 48 48" style="enable-background:new 0 0 48 48;" xml:space="preserve">
<title>stethoscope</title>
<g>
	<path d="M11,30.4c0.1-0.3,0.2-0.6,0.4-0.9l-1.2-2.2c-0.8,1.1-1.2,2.2-1.4,3c-0.1,0-0.3,0-0.4,0.1C5.4,31,3.5,34,4.2,37
		c0.7,3,3.7,4.9,6.7,4.2c3-0.7,4.9-3.7,4.2-6.7C14.6,32.4,12.9,30.9,11,30.4z M10.2,38.3c-1.4,0.3-2.8-0.6-3.1-2
		c-0.3-1.4,0.6-2.8,2-3.1c1.4-0.3,2.8,0.6,3.1,2C12.5,36.6,11.6,38,10.2,38.3z"/>
	<path d="M9.3,34.3c-0.8,0.2-1.3,1-1.1,1.8c0.2,0.8,1,1.3,1.8,1.1c0.8-0.2,1.3-1,1.1-1.8C10.9,34.6,10.1,34.1,9.3,34.3z"/>
	<path d="M17.3,24.5c2-1.3,4.9-2.2,8.7-2.2c3,0,5.5,0.5,7.6,1.6l0.7-2.1c-2.3-1.1-5-1.7-8.2-1.7c-4,0-7.1,0.9-9.4,2.3L17.3,24.5z"/>
	<path d="M40.6,26.8l-1.3,2.2c1.7,3,1.5,6,1.5,6.1c0,0.4-0.1,8.7-8.3,8.7c-2.1,0-3.7-0.6-4.7-1.8c-1.6-1.9-1.6-4.9-1.4-6.5l0.4,0
		l0.2,0C39.4,33,40.2,21.9,40.6,15.3c0.1-1.6,0.2-3,0.4-4c0.4-1.7-0.2-2.9-0.9-3.6c-0.9-1-2.4-1.5-4-1.8c-0.6-1.7-2.2-2.9-4.2-2.9
		c-2.4,0-4.4,2-4.4,4.4s2,4.4,4.4,4.4c1.9,0,3.5-1.2,4.1-2.9c0.7,0.2,1.3,0.4,1.6,0.7c0.1,0.1,0.3,0.3,0.1,0.9
		c-0.3,1.2-0.4,2.7-0.5,4.5c-0.5,6.5-1.1,15.4-11,17.5h-2.1c-10-2.1-10.6-11-11-17.5c-0.1-1.8-0.2-3.3-0.5-4.5
		c-0.2-0.6,0-0.8,0.1-0.9c0.3-0.3,0.9-0.6,1.6-0.7c0.6,1.7,2.2,2.9,4.1,2.9c2.4,0,4.4-2,4.4-4.4s-2-4.4-4.4-4.4
		c-1.9,0-3.5,1.2-4.2,2.9c-1.6,0.3-3,0.8-4,1.8c-0.6,0.7-1.3,1.8-0.9,3.6c0.2,0.9,0.3,2.3,0.4,4c0.5,6.6,1.2,17.7,13.7,20.2l0.2,0
		c-0.2,2-0.1,5.5,2,7.9c1.5,1.7,3.7,2.6,6.6,2.6c8.5,0,10.7-7.1,10.7-10.8C43.2,35,43.4,30.7,40.6,26.8z"/>
</g>
</svg>
