<?xml version="1.0" encoding="utf-8"?>
<!-- Generator: Adobe Illustrator 22.0.1, SVG Export Plug-In . SVG Version: 6.00 Build 0)  -->
<svg version="1.1" id="Layer_1" xmlns="http://www.w3.org/2000/svg" xmlns:xlink="http://www.w3.org/1999/xlink" x="0px" y="0px"
	 viewBox="0 0 48 48" style="enable-background:new 0 0 48 48;" xml:space="preserve">
<title>syringe</title>
<path d="M45,12.3l-8.8-8.8c-0.4-0.4-1.1-0.4-1.6,0c-0.4,0.4-0.4,1.1,0,1.6l1.7,1.7l-4.4,4.4l-4.5-4.5c-0.4-0.4-1.1-0.4-1.6,0l0,0
	c-0.4,0.4-0.4,1.1,0,1.6l3.2,3.2L11,29.5c-1.9,1.9-2.2,5-0.7,7.2c-0.1,0.1-0.2,0.1-0.3,0.2l-6.1,6.2c-0.4,0.4-0.4,1.1,0,1.6
	s1.1,0.4,1.6,0l6.3-6.2c0.1-0.1,0.1-0.2,0.2-0.3c2.2,1.5,5.2,1.3,7.2-0.7l18.1-18.1l3.2,3.2c0.4,0.4,1.1,0.4,1.6,0l0,0
	c0.4-0.4,0.4-1.1,0-1.6l-4.5-4.5l4.4-4.4l1.7,1.7c0.4,0.4,1.1,0.4,1.6,0C45.4,13.5,45.4,12.8,45,12.3z M20,34.3l-1.9-1.9
	c-0.3-0.3-0.3-1,0-1.4l0.1-0.1c0.3-0.3,1-0.3,1.4,0l1.9,1.9L21,33.3L20,34.3z M24.4,30.5l-3.8-3.8c-0.4-0.4-0.4-1.1,0-1.6l0.2-0.2
	c0.4-0.4,1.1-0.4,1.6,0l3.8,3.8L25.9,29L24.4,30.5z M28.4,26.3l-2.4-2.4c-0.4-0.4-0.4-1.2,0-1.7l0.2-0.2c0.4-0.4,1.2-0.4,1.7,0
	l2.4,2.4l-0.5,0.5L28.4,26.3z M32.5,21.5l-5.4-5.4l3-3l5.4,5.4L32.5,21.5z M35.9,15.1l-2.6-2.6l4.4-4.4l2.6,2.6L35.9,15.1z"/>
</svg>
