<?xml version="1.0" encoding="utf-8"?>
<!-- Generator: Adobe Illustrator 22.0.1, SVG Export Plug-In . SVG Version: 6.00 Build 0)  -->
<svg version="1.1" id="Layer_1" xmlns="http://www.w3.org/2000/svg" xmlns:xlink="http://www.w3.org/1999/xlink" x="0px" y="0px"
	 viewBox="0 0 48 48" style="enable-background:new 0 0 48 48;" xml:space="preserve">
<title>vital sign</title>
<g>
	<path d="M3.4,21.4H11c0,0,0.1,0,0.1,0h0c0.5,0,0.9,0.3,1.2,0.7l2.9,2.9l5.3-10.7c0.3-0.6,1-0.9,1.6-0.7c0.4,0.1,0.8,0.4,1,0.9
		l4.8,13.8l3-8.4c0.2-0.7,1-1.1,1.7-0.8c0.2,0.1,0.3,0.2,0.5,0.3c0.1,0.1,0.3,0.3,0.4,0.4l2,4.3h8.3c2.6-4.6,1.9-10.6-2-14.6v0
		c-4.7-4.7-12.5-4.7-17.3,0l-0.3,0.3l-0.4-0.3C19,4.7,11.2,4.7,6.5,9.5v0C3.3,12.7,2.3,17.3,3.4,21.4C3.4,21.4,3.4,21.4,3.4,21.4z"
		/>
	<path d="M34.6,26.7c-0.6,0-1-0.4-1.2-0.8c-0.1-0.1-0.1-0.2-0.2-0.3l-0.9-1.9l-3.2,9c-0.2,0.7-1,1.1-1.7,0.8
		c-0.2-0.1-0.4-0.2-0.6-0.4c0,0,0,0-0.1-0.1c0,0,0,0,0,0c-0.1-0.1-0.2-0.2-0.2-0.4l-5-14.6l-4.8,9.6c-0.3,0.6-1,0.9-1.6,0.7
		c-0.2-0.1-0.4-0.2-0.6-0.3l-4-4H4.5c0.5,1,1.2,1.9,2,2.7l17.7,17.7c0,0,0.1-0.1,0.1-0.1l0.4-0.6l17-17c0,0,0,0,0,0H34.6z"/>
</g>
</svg>
