<svg xmlns="http://www.w3.org/2000/svg" xmlns:xlink="http://www.w3.org/1999/xlink" width="200" height="200" viewBox="0 0 200 200">
  <defs>
    <clipPath id="clip-ACO">
      <rect width="200" height="200"/>
    </clipPath>
  </defs>
  <g id="ACO" clip-path="url(#clip-ACO)">
    <circle id="Blue_300_Bg" data-name="Blue 300 Bg" cx="100" cy="100" r="100" transform="translate(0 -0.1)" fill="#005cb7"/>
    <g id="Group_218" data-name="Group 218" transform="translate(-64.799 -68.799)">
      <g id="Group_217" data-name="Group 217" transform="translate(114.293 120.585)">
        <path id="Path_273" data-name="Path 273" d="M218.737,227.8H134.359a8.083,8.083,0,0,1-8.059-8.059V142.859a8.083,8.083,0,0,1,8.059-8.059h84.378a8.083,8.083,0,0,1,8.059,8.059v76.883A8.031,8.031,0,0,1,218.737,227.8Z" transform="translate(-126.3 -134.8)" fill="#043d66" opacity="0.7"/>
        <path id="Path_274" data-name="Path 274" d="M214.595,223.538H144.159a8.083,8.083,0,0,1-8.059-8.059v-65.52a8.083,8.083,0,0,1,8.059-8.059h70.436a8.083,8.083,0,0,1,8.059,8.059v65.52A8.083,8.083,0,0,1,214.595,223.538Z" transform="translate(-128.202 -136.178)" fill="#fff"/>
        <g id="Group_216" data-name="Group 216" transform="translate(23.371 18.697)">
          <rect id="Rectangle_112" data-name="Rectangle 112" width="10.154" height="27.32" transform="translate(0 28.368)" fill="#5c97d1"/>
          <rect id="Rectangle_113" data-name="Rectangle 113" width="10.154" height="44.325" transform="translate(15.151 11.363)" fill="#5c97d1"/>
          <rect id="Rectangle_114" data-name="Rectangle 114" width="10.154" height="55.688" transform="translate(30.221)" fill="#5c97d1"/>
          <rect id="Rectangle_115" data-name="Rectangle 115" width="10.154" height="35.46" transform="translate(45.372 20.228)" fill="#5c97d1"/>
          <path id="Path_276" data-name="Path 276" d="M221.053,192.326a3.627,3.627,0,1,1-3.627-3.627A3.562,3.562,0,0,1,221.053,192.326Z" transform="translate(-166.655 -163.958)" fill="#1365b5"/>
          <path id="Path_277" data-name="Path 277" d="M201.653,185.227a3.627,3.627,0,1,1-3.627-3.627A3.611,3.611,0,0,1,201.653,185.227Z" transform="translate(-162.889 -162.581)" fill="#1365b5"/>
          <path id="Path_278" data-name="Path 278" d="M183.153,198.727a3.627,3.627,0,1,1-3.627-3.627A3.611,3.611,0,0,1,183.153,198.727Z" transform="translate(-159.298 -165.201)" fill="#1365b5"/>
          <path id="Path_279" data-name="Path 279" d="M164.653,201.727a3.627,3.627,0,1,1-3.627-3.627A3.611,3.611,0,0,1,164.653,201.727Z" transform="translate(-155.708 -165.783)" fill="#1365b5"/>
        </g>
      </g>
    </g>
    <g id="Group_494" data-name="Group 494" transform="translate(-836.219 -801.639)">
      <path id="Path_675" data-name="Path 675" d="M883.447,833.124a72.5,72.5,0,0,1,22.393-3.546V814.56a82.989,82.989,0,0,0-27.018,4.283c-.245.076-.483.171-.728.254.241-.08.474-.171.716-.248Z" transform="translate(30.779 0)" fill="#f7f8fc"/>
      <path id="Path_676" data-name="Path 676" d="M853.329,875.366a85.554,85.554,0,0,0,69.68,49.039A87.544,87.544,0,0,1,853.329,875.366Z" transform="translate(4.453 64.641)" fill="#f0ca67"/>
      <path id="Path_677" data-name="Path 677" d="M928.842,829.983q1.677,2.055,3.264,4.246l-12.154,8.826a72.137,72.137,0,0,1,13.854,42.584h15.013v.012c0,1.492-.047,2.969-.12,4.442.072-1.477.128-2.961.128-4.456A87.1,87.1,0,0,0,928.842,829.983Z" transform="translate(75.279 16.396)" fill="#b8d2eb"/>
      <path id="Path_678" data-name="Path 678" d="M936.623,972.292a72.464,72.464,0,0,1-22.4-141.379l-4.638-14.274c-.241.076-.474.167-.716.248-1.073.357-2.139.73-3.192,1.126-.307.113-.6.233-.9.353-32.9,12.713-54.22,42.516-55.569,77.892-.033.823-.037,1.657-.049,2.486,0,.367-.019.728-.019,1.094,0,.07,0,.14,0,.208,0,1.174.043,2.344.091,3.505.012.347.016.693.037,1.04.047.912.134,1.818.2,2.725.058.631.1,1.269.171,1.894.052.5.124,1.009.188,1.506.13,1.046.266,2.088.431,3.121.008.06.021.115.033.173a86.739,86.739,0,0,0,6.333,21.248c.367.831.726,1.657,1.116,2.474a.485.485,0,0,1,.033.066,87.544,87.544,0,0,0,69.68,49.039c.173.016.347.035.528.054,1.027.1,2.071.169,3.111.235.532.035,1.061.066,1.593.089.7.031,1.4.039,2.1.054.609.012,1.213.047,1.822.047A87.081,87.081,0,0,0,988.035,970.6l-8.828-12.151A72.131,72.131,0,0,1,936.623,972.292Z" transform="translate(0 2.21)" fill="#043d66"/>
      <path id="Path_679" data-name="Path 679" d="M891.546,829.577a72.336,72.336,0,0,1,58.608,29.873l12.154-8.826q-1.591-2.194-3.264-4.246c-15.882-19.521-37.608-30.478-62.792-31.691q-2.333-.124-4.7-.128h-.012v15.017Z" transform="translate(45.077 0)" fill="#5c97d1"/>
      <path id="Path_680" data-name="Path 680" d="M957.076,856.96H942.063v0h0a72.424,72.424,0,0,1-29.877,58.616l8.828,12.151.016-.016c1.37-1,2.719-2.02,4.029-3.095,18.51-14.98,29.362-35.213,31.567-58.649.01-.159.027-.322.035-.479.109-1.2.213-2.4.279-3.619,0-.066,0-.134,0-.2,0-.087,0-.177.012-.262.072-1.473.12-2.95.12-4.442Z" transform="translate(67.022 45.074)" fill="#5c97d1"/>
    </g>
  </g>
</svg>
