<svg xmlns="http://www.w3.org/2000/svg" xmlns:xlink="http://www.w3.org/1999/xlink" width="200" height="200" viewBox="0 0 200 200">
  <defs>
    <clipPath id="clip-path">
      <circle id="Ellipse_24" data-name="Ellipse 24" cx="100" cy="100" r="100" fill="#00aeff"/>
    </clipPath>
    <clipPath id="clip-Analytics_Accelerators">
      <rect width="200" height="200"/>
    </clipPath>
  </defs>
  <g id="Analytics_Accelerators" data-name="Analytics Accelerators" clip-path="url(#clip-Analytics_Accelerators)">
    <circle id="Blue_300_Bg" data-name="Blue 300 Bg" cx="100" cy="100" r="100" transform="translate(0 -0.1)" fill="#005cb7"/>
    <g id="Mask_Group_9" data-name="Mask Group 9" clip-path="url(#clip-path)">
      <g id="Group_423" data-name="Group 423" transform="translate(30 20)">
        <g id="Group_424" data-name="Group 424" transform="translate(-0.319 23.184)">
          <g id="Group_420" data-name="Group 420" transform="translate(0)">
            <g id="Group_406" data-name="Group 406">
              <path id="Path_577" data-name="Path 577" d="M234.964,291.089H181.4l9.273-6.454V271.8H225.69v12.835Z" transform="translate(-136.739 -168.605)" fill="#fff"/>
              <g id="Group_405" data-name="Group 405" transform="translate(53.935 92.735)">
                <rect id="Rectangle_141" data-name="Rectangle 141" width="34.868" height="10.831" fill="#cecccc"/>
              </g>
              <path id="Path_578" data-name="Path 578" d="M256.741,238.343h-128.2A7.314,7.314,0,0,1,121.2,231V140.045a7.314,7.314,0,0,1,7.345-7.345H256.667a7.314,7.314,0,0,1,7.345,7.345V231A7.251,7.251,0,0,1,256.741,238.343Z" transform="translate(-121.2 -132.7)" fill="#d3d5d6"/>
              <rect id="Rectangle_142" data-name="Rectangle 142" width="126.861" height="91.177" transform="translate(8.012 7.27)" fill="#999b9e"/>
              <rect id="Rectangle_143" data-name="Rectangle 143" width="125.229" height="90.435" transform="translate(8.828 7.641)" fill="#fff"/>
            </g>
            <g id="Group_413" data-name="Group 413" transform="translate(10.164 15.728)">
              <g id="Group_412" data-name="Group 412">
                <rect id="Rectangle_144" data-name="Rectangle 144" width="10.609" height="39.839" transform="translate(8.977 24.185)" fill="#b8d2eb"/>
                <rect id="Rectangle_145" data-name="Rectangle 145" width="10.609" height="23.295" transform="translate(24.779 40.655)" fill="#b8d2eb"/>
                <rect id="Rectangle_146" data-name="Rectangle 146" width="10.609" height="34.868" transform="translate(40.581 29.082)" fill="#b8d2eb"/>
                <rect id="Rectangle_147" data-name="Rectangle 147" width="10.609" height="39.839" transform="translate(56.383 24.185)" fill="#b8d2eb"/>
                <rect id="Rectangle_148" data-name="Rectangle 148" width="10.609" height="27.227" transform="translate(72.185 36.723)" fill="#b8d2eb"/>
                <rect id="Rectangle_149" data-name="Rectangle 149" width="10.609" height="44.735" transform="translate(87.987 19.215)" fill="#b8d2eb"/>
                <rect id="Rectangle_150" data-name="Rectangle 150" width="10.609" height="49.112" transform="translate(103.789 14.912)" fill="#b8d2eb"/>
                <rect id="Rectangle_151" data-name="Rectangle 151" width="9.719" height="2.226" transform="translate(46.59 0.519)" fill="#5c97d1"/>
                <rect id="Rectangle_152" data-name="Rectangle 152" width="30.936" height="2.226" transform="translate(9.422 0.519)" fill="#5c97d1"/>
                <g id="Group_407" data-name="Group 407" transform="translate(0 18.621)">
                  <path id="Path_579" data-name="Path 579" d="M138.016,225.961l-3.116-3.116,24.334-24.408,21.589,9.867,25.966-13.5,20.921,4.822L255.6,179l2.671,3.635-29.6,21.737-21.292-4.9L180.971,213.2,160.2,203.7Z" transform="translate(-134.9 -179)" fill="#1365b5"/>
                </g>
                <g id="Group_408" data-name="Group 408" transform="translate(9.422 8.161)">
                  <rect id="Rectangle_153" data-name="Rectangle 153" width="31.159" height="3.264" fill="#e6e7e8"/>
                </g>
                <g id="Group_409" data-name="Group 409" transform="translate(14.541 13.725)">
                  <rect id="Rectangle_154" data-name="Rectangle 154" width="31.604" height="3.264" fill="#e6e7e8"/>
                </g>
                <g id="Group_410" data-name="Group 410" transform="translate(50.077 13.725)">
                  <rect id="Rectangle_155" data-name="Rectangle 155" width="8.235" height="3.264" fill="#e6e7e8"/>
                </g>
                <g id="Group_411" data-name="Group 411" transform="translate(46.59 8.161)">
                  <rect id="Rectangle_156" data-name="Rectangle 156" width="18.399" height="3.264" fill="#e6e7e8"/>
                </g>
                <path id="Path_580" data-name="Path 580" d="M255.29,156.645a2.745,2.745,0,1,1-2.745-2.745A2.739,2.739,0,0,1,255.29,156.645Z" transform="translate(-164.558 -153.9)" fill="#5c97d1"/>
                <path id="Path_581" data-name="Path 581" d="M171.067,208.684a3.784,3.784,0,1,1-3.784-3.784A3.8,3.8,0,0,1,171.067,208.684Z" transform="translate(-142.282 -167.064)" fill="#5c97d1"/>
                <path id="Path_582" data-name="Path 582" d="M234.667,202.084a3.784,3.784,0,1,1-3.784-3.784A3.8,3.8,0,0,1,234.667,202.084Z" transform="translate(-158.699 -165.361)" fill="#5c97d1"/>
                <path id="Path_583" data-name="Path 583" d="M291.567,186.684a3.784,3.784,0,1,1-3.784-3.784A3.8,3.8,0,0,1,291.567,186.684Z" transform="translate(-173.386 -161.386)" fill="#5c97d1"/>
                <path id="Path_584" data-name="Path 584" d="M270.29,156.645a2.745,2.745,0,1,1-2.745-2.745A2.787,2.787,0,0,1,270.29,156.645Z" transform="translate(-168.43 -153.9)" fill="#b8d2eb"/>
                <path id="Path_585" data-name="Path 585" d="M284.49,156.645a2.745,2.745,0,1,1-2.745-2.745A2.787,2.787,0,0,1,284.49,156.645Z" transform="translate(-172.095 -153.9)" fill="#5c97d1"/>
              </g>
            </g>
            <g id="Group_414" data-name="Group 414" transform="translate(19.586 83.832)">
              <rect id="Rectangle_157" data-name="Rectangle 157" width="42.065" height="3.264" fill="#e6e7e8"/>
            </g>
            <g id="Group_415" data-name="Group 415" transform="translate(55.047 90.88)">
              <rect id="Rectangle_158" data-name="Rectangle 158" width="42.065" height="3.264" fill="#e6e7e8"/>
            </g>
            <g id="Group_416" data-name="Group 416" transform="translate(68.475 83.832)">
              <rect id="Rectangle_159" data-name="Rectangle 159" width="29.675" height="3.264" fill="#e6e7e8"/>
            </g>
            <g id="Group_417" data-name="Group 417" transform="translate(103.418 90.88)">
              <rect id="Rectangle_160" data-name="Rectangle 160" width="22.479" height="3.264" fill="#e6e7e8"/>
            </g>
            <g id="Group_418" data-name="Group 418" transform="translate(19.586 90.88)">
              <rect id="Rectangle_161" data-name="Rectangle 161" width="29.675" height="3.264" fill="#e6e7e8"/>
            </g>
            <g id="Group_419" data-name="Group 419" transform="translate(104.531 83.832)">
              <rect id="Rectangle_162" data-name="Rectangle 162" width="21.366" height="3.264" fill="#e6e7e8"/>
            </g>
          </g>
        </g>
        <rect id="Rectangle_141-2" data-name="Rectangle 141" width="34.942" height="7.122" transform="translate(53.615 128.827)" fill="#e6e7e8"/>
      </g>
    </g>
  </g>
</svg>
