<svg xmlns="http://www.w3.org/2000/svg" xmlns:xlink="http://www.w3.org/1999/xlink" width="200" height="200" viewBox="0 0 200 200">
  <defs>
    <clipPath id="clip-ARMUS">
      <rect width="200" height="200"/>
    </clipPath>
  </defs>
  <g id="ARMUS" clip-path="url(#clip-ARMUS)">
    <circle id="Blue_300_Bg" data-name="Blue 300 Bg" cx="100" cy="100" r="100" transform="translate(0 -0.1)" fill="#005cb7"/>
    <path id="ARMUS-2" data-name="ARMUS" d="M101.04,29.458V.352c-2.34-.144-4.7-.25-7.1-.3C92.624.02,91.3,0,89.965,0c-48.383,0-87.6,19.113-87.6,42.69,0,7.868,4.386,15.232,12,21.561C2.954,71.813-.225,77.237.012,79.335c.38,3.356,4.647,4.289,4.647,4.289S-.534,78.059,17.267,66.516C33,77.895,59.689,85.379,89.965,85.379c29.618,0,55.783-7.169,71.639-18.134L140.28,51.609c-12.891,8.473-33.55,14.86-52.818,14.86-21.327,0-39.3-3.562-51.021-10.238C47.575,51.078,62.436,45.177,82.25,38.509c4.086-1.375,7.973-2.629,11.693-3.785V62.417h7.1V32.583C159.9,15.376,169.3,26.757,169.3,26.757c2.176-5.558-15.793-11.639-68.264,2.7M81.034,35.4c-20.751,6.637-36.4,12.914-48.157,18.56C25.815,48.946,21.81,42.5,21.81,34.76,21.81,18.585,51.2,3.052,87.463,3.052q3.281,0,6.481.18V31.457c-4.113,1.2-8.4,2.5-12.909,3.945" transform="translate(17.356 52.642)" fill="#fff"/>
  </g>
</svg>
