<svg xmlns="http://www.w3.org/2000/svg" xmlns:xlink="http://www.w3.org/1999/xlink" width="200" height="200" viewBox="0 0 200 200">
  <defs>
    <clipPath id="clip-path">
      <rect id="Rectangle_551" data-name="Rectangle 551" width="84.136" height="35.501" fill="none"/>
    </clipPath>
    <clipPath id="clip-path-3">
      <rect id="Rectangle_553" data-name="Rectangle 553" width="76.979" height="36.273" fill="none"/>
    </clipPath>
    <clipPath id="clip-path-5">
      <rect id="Rectangle_555" data-name="Rectangle 555" width="9.963" height="7.32" fill="none"/>
    </clipPath>
    <clipPath id="clip-path-7">
      <rect id="Rectangle_558" data-name="Rectangle 558" width="9.963" height="9.963" fill="none"/>
    </clipPath>
    <clipPath id="clip-path-9">
      <rect id="Rectangle_560" data-name="Rectangle 560" width="4.88" height="2.521" fill="none"/>
    </clipPath>
    <clipPath id="clip-path-19">
      <rect id="Rectangle_574" data-name="Rectangle 574" width="9.068" height="9.963" fill="none"/>
    </clipPath>
    <clipPath id="clip-path-25">
      <rect id="Rectangle_582" data-name="Rectangle 582" width="9.19" height="5.083" fill="none"/>
    </clipPath>
    <clipPath id="clip-path-29">
      <rect id="Rectangle_586" data-name="Rectangle 586" width="9.963" height="9.068" fill="none"/>
    </clipPath>
    <clipPath id="clip-path-31">
      <rect id="Rectangle_588" data-name="Rectangle 588" width="9.109" height="8.458" fill="none"/>
    </clipPath>
    <clipPath id="clip-path-33">
      <rect id="Rectangle_590" data-name="Rectangle 590" width="8.824" height="9.231" fill="none"/>
    </clipPath>
    <clipPath id="clip-path-35">
      <rect id="Rectangle_592" data-name="Rectangle 592" width="9.678" height="9.963" fill="none"/>
    </clipPath>
    <clipPath id="clip-path-39">
      <rect id="Rectangle_596" data-name="Rectangle 596" width="9.963" height="7.157" fill="none"/>
    </clipPath>
    <clipPath id="clip-path-41">
      <rect id="Rectangle_598" data-name="Rectangle 598" width="3.253" height="1.708" fill="none"/>
    </clipPath>
    <clipPath id="clip-path-45">
      <rect id="Rectangle_602" data-name="Rectangle 602" width="6.466" height="4.636" fill="none"/>
    </clipPath>
    <clipPath id="clip-path-53">
      <rect id="Rectangle_610" data-name="Rectangle 610" width="8.418" height="9.963" fill="none"/>
    </clipPath>
    <clipPath id="clip-CareVive">
      <rect width="200" height="200"/>
    </clipPath>
  </defs>
  <g id="CareVive" clip-path="url(#clip-CareVive)">
    <g id="Product_Icon_Ignite" data-name="Product Icon Ignite" transform="translate(0)">
      <path id="Path_12746" data-name="Path 12746" d="M200,100a104.15,104.15,0,0,1-.733,12.167,98.551,98.551,0,0,1-3.133,15.467A100.058,100.058,0,0,1,100,199.967c-45.633,0-7.233-.2-10.8-.567A99.79,99.79,0,0,1,0,100C0,52.267,44.767,0,100,0A99.994,99.994,0,0,1,200,100Z" fill="#00aeff"/>
    </g>
    <g id="CareVive-Logo-White" transform="translate(-82.565 -42.396)">
      <g id="Group_1228" data-name="Group 1228" transform="translate(115.565 73.396)">
        <path id="Path_12798" data-name="Path 12798" d="M379.159,128.174c-6.3-7.279-12.444-14.721-18.259-22.407L371.717,88.2l14.843,8.824c3.741,2.6,7.564,7.4,0,19.113-2.277,3.538-4.8,7.6-7.442,12.037" transform="translate(-261.134 -82.18)" fill="#fff"/>
        <path id="Path_12799" data-name="Path 12799" d="M143.348,128.174c6.3-7.279,12.444-14.721,18.259-22.407L150.789,88.2l-14.843,8.824c-3.741,2.6-7.564,7.4,0,19.113,2.318,3.538,4.8,7.6,7.442,12.037" transform="translate(-125.075 -82.18)" fill="#fff"/>
        <path id="Path_12800" data-name="Path 12800" d="M245.1,151.3l-26.676,43.268L191.789,151.3A46.846,46.846,0,0,0,174.1,175.13a356.856,356.856,0,0,1,29.4,60.794c6.466,16.917,23.464,16.917,29.889,0a358.336,358.336,0,0,1,29.4-60.794A46.736,46.736,0,0,0,245.1,151.3" transform="translate(-150.297 -119.62)" fill="#fff"/>
        <g id="Group_1139" data-name="Group 1139" transform="translate(29.659 22.042)" opacity="0.5">
          <g id="Group_1138" data-name="Group 1138" clip-path="url(#clip-path)">
            <g id="Group_1137" data-name="Group 1137" clip-path="url(#clip-path)">
              <path id="Path_12801" data-name="Path 12801" d="M271.945,163.028h.691c-6.018-22.61-27.53-38.022-50.831-35.135a46.009,46.009,0,0,0-33.3,21.268,46.608,46.608,0,0,1,83.445,13.867" transform="translate(-188.5 -127.568)" fill="#fff"/>
            </g>
          </g>
        </g>
        <g id="Group_1142" data-name="Group 1142" transform="translate(37.182 81.413)" opacity="0.5">
          <g id="Group_1141" data-name="Group 1141" transform="translate(0 0)" clip-path="url(#clip-path-3)">
            <g id="Group_1140" data-name="Group 1140" clip-path="url(#clip-path-3)">
              <path id="Path_12802" data-name="Path 12802" d="M283.166,273.6A46.586,46.586,0,0,1,207,296.942a46.172,46.172,0,0,0,37.493,12.566c19.723-2.44,35.053-17.242,39.486-35.907Z" transform="translate(-207 -273.6)" fill="#046938"/>
            </g>
          </g>
        </g>
        <path id="Path_12803" data-name="Path 12803" d="M249.368,154.809H228.181a46.648,46.648,0,1,1,.813-23.789c6.71,0,20.048.041,20.048.041a1.331,1.331,0,0,0,1.423-1.423c-6.425-35.46-39.771-60.062-75.231-55.752-36.761,4.514-63.722,38.591-59.168,75.759a67.925,67.925,0,0,0,133.951,5.449,2.212,2.212,0,0,0-.691-.285" transform="translate(-115.565 -73.396)" fill="#ebebeb"/>
        <path id="Path_12804" data-name="Path 12804" d="M250.49,159.769v-.041c.041-.244.122-.529.163-.773a.908.908,0,0,0-.122-.569,57.638,57.638,0,1,1-2.806-35.5,68.04,68.04,0,1,0,2.765,36.965h0Z" transform="translate(-115.792 -76.322)" fill="#fff"/>
        <g id="Group_1145" data-name="Group 1145" transform="translate(49.097 0.896)" opacity="0.4">
          <g id="Group_1144" data-name="Group 1144" clip-path="url(#clip-path-5)">
            <g id="Group_1143" data-name="Group 1143" clip-path="url(#clip-path-5)">
              <path id="Path_12805" data-name="Path 12805" d="M240.751,82.92l5.612-4.392L244.086,75.6q-3.843.671-7.686,1.708l4.351,5.571Z" transform="translate(-236.359 -75.6)" fill="#fff"/>
            </g>
          </g>
        </g>
        <g id="Group_1148" data-name="Group 1148" transform="translate(41.981 3.784)" opacity="0.3">
          <g id="Group_1147" data-name="Group 1147" clip-path="url(#clip-path-7)">
            <g id="Group_1146" data-name="Group 1146" clip-path="url(#clip-path-7)">
              <rect id="Rectangle_556" data-name="Rectangle 556" width="7.116" height="7.076" transform="matrix(0.789, -0.614, 0.614, 0.789, 0.01, 4.49)" fill="#fff"/>
            </g>
          </g>
        </g>
        <g id="Group_1151" data-name="Group 1151" transform="translate(58.979 0.124)" opacity="0.4">
          <g id="Group_1150" data-name="Group 1150" clip-path="url(#clip-path-9)">
            <g id="Group_1149" data-name="Group 1149" clip-path="url(#clip-path-9)">
              <path id="Path_12806" data-name="Path 12806" d="M262.227,76.221,265.48,73.7c-1.749.122-3.375.244-4.88.447Z" transform="translate(-260.6 -73.7)" fill="#fff"/>
            </g>
          </g>
        </g>
        <g id="Group_1154" data-name="Group 1154" transform="translate(34.864 9.355)" opacity="0.3">
          <g id="Group_1153" data-name="Group 1153" clip-path="url(#clip-path-7)">
            <g id="Group_1152" data-name="Group 1152" clip-path="url(#clip-path-7)">
              <rect id="Rectangle_561" data-name="Rectangle 561" width="7.116" height="7.076" transform="matrix(0.789, -0.614, 0.614, 0.789, -0.012, 4.401)" fill="#fff"/>
            </g>
          </g>
        </g>
        <g id="Group_1157" data-name="Group 1157" transform="translate(27.748 14.926)" opacity="0.2">
          <g id="Group_1156" data-name="Group 1156" clip-path="url(#clip-path-7)">
            <g id="Group_1155" data-name="Group 1155" clip-path="url(#clip-path-7)">
              <rect id="Rectangle_564" data-name="Rectangle 564" width="7.116" height="7.076" transform="matrix(0.789, -0.614, 0.614, 0.789, -0.009, 4.426)" fill="#fff"/>
            </g>
          </g>
        </g>
        <g id="Group_1160" data-name="Group 1160" transform="translate(20.631 20.456)" opacity="0.2">
          <g id="Group_1159" data-name="Group 1159" clip-path="url(#clip-path-7)">
            <g id="Group_1158" data-name="Group 1158" clip-path="url(#clip-path-7)">
              <rect id="Rectangle_567" data-name="Rectangle 567" width="7.116" height="7.076" transform="translate(-0.009 4.341) rotate(-38)" fill="#fff"/>
            </g>
          </g>
        </g>
        <g id="Group_1163" data-name="Group 1163" transform="translate(13.515 26.027)" opacity="0.1">
          <g id="Group_1162" data-name="Group 1162" clip-path="url(#clip-path-7)">
            <g id="Group_1161" data-name="Group 1161" clip-path="url(#clip-path-7)">
              <rect id="Rectangle_570" data-name="Rectangle 570" width="7.116" height="7.076" transform="matrix(0.789, -0.614, 0.614, 0.789, -0.028, 4.443)" fill="#fff"/>
            </g>
          </g>
        </g>
        <g id="Group_1166" data-name="Group 1166" transform="translate(7.497 31.436)" opacity="0">
          <g id="Group_1165" data-name="Group 1165" clip-path="url(#clip-path-19)">
            <g id="Group_1164" data-name="Group 1164" clip-path="url(#clip-path-19)">
              <path id="Path_12807" data-name="Path 12807" d="M142.968,156.271l-4.351-5.571-2.887,2.237c-.61,1.1-1.22,2.2-1.83,3.335l3.416,4.392,5.612-4.392Z" transform="translate(-133.941 -150.7)" fill="#fff"/>
            </g>
          </g>
        </g>
        <g id="Group_1169" data-name="Group 1169" transform="translate(57.189 6.305)" opacity="0.4">
          <g id="Group_1168" data-name="Group 1168" clip-path="url(#clip-path-7)">
            <g id="Group_1167" data-name="Group 1167" clip-path="url(#clip-path-7)">
              <rect id="Rectangle_575" data-name="Rectangle 575" width="7.116" height="7.076" transform="matrix(0.789, -0.614, 0.614, 0.789, 0.034, 4.424)" fill="#fff"/>
            </g>
          </g>
        </g>
        <g id="Group_1172" data-name="Group 1172" transform="translate(50.032 11.835)" opacity="0.3">
          <g id="Group_1171" data-name="Group 1171" clip-path="url(#clip-path-7)">
            <g id="Group_1170" data-name="Group 1170" clip-path="url(#clip-path-7)">
              <rect id="Rectangle_578" data-name="Rectangle 578" width="7.116" height="7.076" transform="translate(-0.001 4.334) rotate(-38)" fill="#fff"/>
            </g>
          </g>
        </g>
        <g id="Group_1175" data-name="Group 1175" transform="translate(71.707 0.083)" opacity="0.6">
          <g id="Group_1174" data-name="Group 1174" clip-path="url(#clip-path-25)">
            <g id="Group_1173" data-name="Group 1173" clip-path="url(#clip-path-25)">
              <path id="Path_12808" data-name="Path 12808" d="M295.907,78.642c1.708-1.3,3.416-2.6,5.083-3.9-1.5-.285-3.131-.569-4.839-.773A41.854,41.854,0,0,0,291.8,73.6c1.342,1.708,2.725,3.375,4.107,5.083" transform="translate(-291.841 -73.6)" fill="#fff"/>
            </g>
          </g>
        </g>
        <g id="Group_1178" data-name="Group 1178" transform="translate(64.306 0.734)" opacity="0.4">
          <g id="Group_1177" data-name="Group 1177" clip-path="url(#clip-path-7)">
            <g id="Group_1176" data-name="Group 1176" clip-path="url(#clip-path-7)">
              <path id="Path_12809" data-name="Path 12809" d="M278.051,85.163l5.612-4.392L279.312,75.2,273.7,79.592Z" transform="translate(-273.7 -75.2)" fill="#fff"/>
            </g>
          </g>
        </g>
        <g id="Group_1181" data-name="Group 1181" transform="translate(42.916 17.406)" opacity="0.3">
          <g id="Group_1180" data-name="Group 1180" clip-path="url(#clip-path-29)">
            <g id="Group_1179" data-name="Group 1179" clip-path="url(#clip-path-29)">
              <path id="Path_12810" data-name="Path 12810" d="M229.111,123.376l1.952-1.5-4.351-5.571-5.612,4.392,3.66,4.717c1.423-.732,2.847-1.383,4.351-1.993" transform="translate(-221.1 -116.259)" fill="#fff"/>
            </g>
          </g>
        </g>
        <g id="Group_1184" data-name="Group 1184" transform="translate(35.8 22.978)" opacity="0.2">
          <g id="Group_1183" data-name="Group 1183" clip-path="url(#clip-path-31)">
            <g id="Group_1182" data-name="Group 1182" clip-path="url(#clip-path-31)">
              <path id="Path_12811" data-name="Path 12811" d="M212.668,134.333l-3.457-4.433-5.612,4.392,3.172,4.067a63.27,63.27,0,0,1,5.9-4.026" transform="translate(-203.6 -129.9)" fill="#fff"/>
            </g>
          </g>
        </g>
        <g id="Group_1187" data-name="Group 1187" transform="translate(28.683 28.508)" opacity="0.2">
          <g id="Group_1186" data-name="Group 1186" clip-path="url(#clip-path-33)">
            <g id="Group_1185" data-name="Group 1185" clip-path="url(#clip-path-33)">
              <path id="Path_12812" data-name="Path 12812" d="M194.924,147.648l-3.213-4.148-5.612,4.392,3.782,4.839a54.141,54.141,0,0,1,5.042-5.083" transform="translate(-186.1 -143.5)" fill="#fff"/>
            </g>
          </g>
        </g>
        <g id="Group_1190" data-name="Group 1190" transform="translate(21.567 34.038)" opacity="0.1">
          <g id="Group_1189" data-name="Group 1189" clip-path="url(#clip-path-35)">
            <g id="Group_1188" data-name="Group 1188" transform="translate(0 0.041)" clip-path="url(#clip-path-35)">
              <path id="Path_12813" data-name="Path 12813" d="M178.238,162.364l-4.026-5.164-5.612,4.351,4.351,5.612,4.148-3.253Z" transform="translate(-168.6 -157.2)" fill="#fff"/>
            </g>
          </g>
        </g>
        <g id="Group_1193" data-name="Group 1193" transform="translate(14.613 39.488)" opacity="0">
          <g id="Group_1192" data-name="Group 1192" clip-path="url(#clip-path-7)">
            <g id="Group_1191" data-name="Group 1191" clip-path="url(#clip-path-7)">
              <path id="Path_12814" data-name="Path 12814" d="M161.463,176.071l-4.351-5.571-5.612,4.392,4.351,5.571Z" transform="translate(-151.5 -170.5)" fill="#fff"/>
            </g>
          </g>
        </g>
        <g id="Group_1196" data-name="Group 1196" transform="translate(65.322 14.438)" opacity="0.4">
          <g id="Group_1195" data-name="Group 1195" clip-path="url(#clip-path-39)">
            <g id="Group_1194" data-name="Group 1194" clip-path="url(#clip-path-39)">
              <path id="Path_12815" data-name="Path 12815" d="M284.13,116.057l2.033-1.586-4.351-5.571-5.612,4.392,1.952,2.481a59.059,59.059,0,0,1,6.018.285" transform="translate(-276.2 -108.9)" fill="#fff"/>
            </g>
          </g>
        </g>
        <g id="Group_1199" data-name="Group 1199" transform="translate(61.581 20.05)" opacity="0.3">
          <g id="Group_1198" data-name="Group 1198" clip-path="url(#clip-path-41)">
            <g id="Group_1197" data-name="Group 1197" clip-path="url(#clip-path-41)">
              <path id="Path_12816" data-name="Path 12816" d="M270.294,123.983l-1.1-1.383-2.2,1.708c1.1-.163,2.2-.244,3.253-.325" transform="translate(-267 -122.641)" fill="#fff"/>
            </g>
          </g>
        </g>
        <g id="Group_1202" data-name="Group 1202" transform="translate(79.555 3.336)" opacity="0.6">
          <g id="Group_1201" data-name="Group 1201" clip-path="url(#clip-path-7)">
            <g id="Group_1200" data-name="Group 1200" clip-path="url(#clip-path-7)">
              <path id="Path_12817" data-name="Path 12817" d="M315.551,91.563l5.652-4.392L316.812,81.6,311.2,85.951Z" transform="translate(-311.2 -81.6)" fill="#fff"/>
            </g>
          </g>
        </g>
        <g id="Group_1205" data-name="Group 1205" transform="translate(87.648 3.011)" opacity="0.6">
          <g id="Group_1204" data-name="Group 1204" clip-path="url(#clip-path-45)">
            <g id="Group_1203" data-name="Group 1203" clip-path="url(#clip-path-45)">
              <path id="Path_12818" data-name="Path 12818" d="M334.779,85.5l2.887-2.237A55.447,55.447,0,0,0,331.2,80.9l3.619,4.636Z" transform="translate(-331.159 -80.859)" fill="#fff"/>
            </g>
          </g>
        </g>
        <g id="Group_1208" data-name="Group 1208" transform="translate(72.439 8.867)" opacity="0.4">
          <g id="Group_1207" data-name="Group 1207" clip-path="url(#clip-path-7)">
            <g id="Group_1206" data-name="Group 1206" clip-path="url(#clip-path-7)">
              <path id="Path_12819" data-name="Path 12819" d="M298.051,105.163l5.612-4.351L299.312,95.2,293.7,99.592Z" transform="translate(-293.7 -95.2)" fill="#fff"/>
            </g>
          </g>
        </g>
        <g id="Group_1211" data-name="Group 1211" transform="translate(36.816 36.682)" opacity="0.2">
          <g id="Group_1210" data-name="Group 1210" clip-path="url(#clip-path-7)">
            <g id="Group_1209" data-name="Group 1209" clip-path="url(#clip-path-7)">
              <path id="Path_12820" data-name="Path 12820" d="M216.063,169.171l-4.351-5.571-5.612,4.351,4.351,5.612Z" transform="translate(-206.1 -163.6)" fill="#fff"/>
            </g>
          </g>
        </g>
        <g id="Group_1214" data-name="Group 1214" transform="translate(29.7 42.212)" opacity="0.1">
          <g id="Group_1213" data-name="Group 1213" clip-path="url(#clip-path-7)">
            <g id="Group_1212" data-name="Group 1212" clip-path="url(#clip-path-7)">
              <path id="Path_12821" data-name="Path 12821" d="M198.563,182.771l-4.351-5.571-5.612,4.392,4.351,5.571Z" transform="translate(-188.6 -177.2)" fill="#fff"/>
            </g>
          </g>
        </g>
        <g id="Group_1217" data-name="Group 1217" transform="translate(24.332 47.621)" opacity="0">
          <g id="Group_1216" data-name="Group 1216" clip-path="url(#clip-path-53)">
            <g id="Group_1215" data-name="Group 1215" clip-path="url(#clip-path-53)">
              <path id="Path_12822" data-name="Path 12822" d="M183.818,196.171l-4.351-5.571-1.993,1.545a46.8,46.8,0,0,0-2.074,4.839l2.806,3.579Z" transform="translate(-175.4 -190.559)" fill="#fff"/>
            </g>
          </g>
        </g>
        <g id="Group_1220" data-name="Group 1220" transform="translate(43.363 46.035)" opacity="0.2">
          <g id="Group_1219" data-name="Group 1219" clip-path="url(#clip-path-7)">
            <g id="Group_1218" data-name="Group 1218" clip-path="url(#clip-path-7)">
              <path id="Path_12823" data-name="Path 12823" d="M232.163,192.212l-4.351-5.612-5.612,4.392,4.351,5.612Z" transform="translate(-222.2 -186.6)" fill="#fff"/>
            </g>
          </g>
        </g>
        <g id="Group_1223" data-name="Group 1223" transform="translate(36.247 51.606)" opacity="0.1">
          <g id="Group_1222" data-name="Group 1222" clip-path="url(#clip-path-7)">
            <g id="Group_1221" data-name="Group 1221" clip-path="url(#clip-path-7)">
              <path id="Path_12824" data-name="Path 12824" d="M214.663,205.871l-4.351-5.571-5.612,4.351,4.351,5.612Z" transform="translate(-204.7 -200.3)" fill="#fff"/>
            </g>
          </g>
        </g>
        <g id="Group_1226" data-name="Group 1226" transform="translate(29.293 57.014)" opacity="0">
          <g id="Group_1225" data-name="Group 1225" clip-path="url(#clip-path-7)">
            <g id="Group_1224" data-name="Group 1224" clip-path="url(#clip-path-7)">
              <path id="Path_12825" data-name="Path 12825" d="M197.6,219.171l-4.392-5.571-5.612,4.351,4.351,5.612Z" transform="translate(-187.6 -213.6)" fill="#fff"/>
            </g>
          </g>
        </g>
      </g>
    </g>
  </g>
</svg>
