<svg xmlns="http://www.w3.org/2000/svg" xmlns:xlink="http://www.w3.org/1999/xlink" width="200" height="200" viewBox="0 0 200 200">
  <defs>
    <clipPath id="clip-path">
      <circle id="Ellipse_64" data-name="Ellipse 64" cx="100" cy="100" r="100" fill="#00aeff"/>
    </clipPath>
    <linearGradient id="linear-gradient" x1="0.043" y1="-0.117" x2="0.703" y2="0.757" gradientUnits="objectBoundingBox">
      <stop offset="0" stop-color="#00455f"/>
      <stop offset="0.37" stop-color="#006d93" stop-opacity="0.631"/>
      <stop offset="0.801" stop-color="#0099d2" stop-opacity="0.2"/>
      <stop offset="1" stop-color="#00aeef" stop-opacity="0"/>
    </linearGradient>
    <clipPath id="clip-Care_Management">
      <rect width="200" height="200"/>
    </clipPath>
  </defs>
  <g id="Care_Management" data-name="Care Management" clip-path="url(#clip-Care_Management)">
    <circle id="Ellipse_24" data-name="Ellipse 24" cx="100" cy="100" r="100" fill="#00aeff"/>
    <g id="Mask_Group_7" data-name="Mask Group 7" clip-path="url(#clip-path)">
      <g id="Group_356" data-name="Group 356" transform="translate(47.481 -12.869)">
        <path id="Path_520" data-name="Path 520" d="M353.555,335.431a5435305.875,5435305.875,0,0,0-3.275-3.526,187465.918,187465.918,0,0,1-3.275-3.526,34851.527,34851.527,0,0,1-1.637-1.763,181216.02,181216.02,0,0,1-2.456-2.645,135918.489,135918.489,0,0,1-3.275-3.526,181216.021,181216.021,0,0,1-2.456-2.645,49422.765,49422.765,0,0,1-3.274-3.526,16475.145,16475.145,0,0,1-1.637-1.763,33559.2,33559.2,0,0,1-1.637-1.763,2718956.779,2718956.779,0,0,1-2.456-2.645,106605.321,106605.321,0,0,1-3.275-3.526,5.439,5.439,0,0,0-.819-.882l-.126-.126a40.955,40.955,0,0,0,2.078-4.723,1.265,1.265,0,0,0,.5.252.923.923,0,0,0,.693-.126.9.9,0,0,0,.378.126c1.259.189,2.645-2.33,3.149-5.6s.756-6.108-.567-6.3h0c-.126-.5-.378-.819-.819-.882h0a1.407,1.407,0,0,0-.441-.756,18.12,18.12,0,0,0,.63-3.149c0-2.834-.882-10.138-1.385-11.4a18.082,18.082,0,0,0-4.03-6.3c-.252-.315-.567-.567-.819-.882s-.567-.567-.819-.882-.567-.567-.819-.882-.567-.567-.819-.882-.567-.567-.819-.882-.567-.567-.819-.882-.567-.567-.819-.882-.567-.567-.819-.882-.567-.567-.819-.882-.567-.567-.819-.882-.567-.567-.819-.882-.567-.567-.819-.882-.567-.567-.819-.882-.567-.567-.819-.882-.567-.567-.819-.882-.567-.567-.819-.882-.567-.567-.819-.882-.567-.567-.819-.882-.567-.567-.819-.882-.567-.567-.819-.882-.567-.567-.819-.882-.567-.567-.819-.882-.567-.567-.819-.882-.567-.567-.819-.882-.567-.567-.819-.882-.567-.567-.819-.882-.567-.567-.819-.882-.567-.567-.819-.882-.567-.567-.819-.882-.567-.567-.819-.882-.567-.567-.819-.882-.567-.567-.819-.882-.567-.567-.819-.882-.567-.567-.819-.882-.567-.567-.819-.882-.567-.567-.819-.882-.567-.567-.819-.882-.567-.567-.819-.882-.567-.567-.819-.882-.567-.567-.819-.882-.567-.567-.819-.882-.567-.567-.819-.882-.567-.567-.819-.882-.567-.567-.819-.882-.567-.567-.819-.882-.567-.567-.819-.882-.567-.567-.819-.882-.567-.567-.819-.882-.567-.567-.819-.882-.567-.567-.819-.882-.567-.567-.819-.882-.567-.567-.819-.882-.567-.567-.819-.882-.567-.567-.819-.882-.567-.567-.819-.882-.567-.567-.819-.882-.567-.567-.819-.882-.567-.567-.819-.882-.567-.567-.819-.882-.567-.567-.819-.882-.567-.567-.819-.882-.567-.567-.819-.882-.567-.567-.819-.882-.567-.567-.819-.882-.567-.567-.819-.882-.567-.567-.819-.882-.567-.567-.819-.882-.567-.567-.819-.882-.567-.567-.819-.882-.567-.567-.819-.882-.567-.567-.819-.882-.567-.567-.819-.882-.567-.567-.819-.882-.567-.567-.819-.882-.567-.567-.819-.882-.567-.567-.819-.882-.567-.567-.819-.882-.567-.567-.819-.882-.567-.567-.819-.882-.567-.567-.819-.882-.567-.567-.819-.882-.567-.567-.819-.882-.567-.567-.819-.882-.567-.567-.819-.882-.567-.567-.819-.882-.567-.567-.819-.882-.567-.567-.819-.882-.567-.567-.819-.882-.567-.567-.819-.882-.567-.567-.819-.882-.567-.567-.819-.882-.567-.567-.819-.882-.567-.567-.819-.882-.567-.567-.819-.882-.567-.567-.819-.882-.567-.567-.819-.882-.567-.567-.819-.882-.567-.567-.819-.882-.567-.567-.819-.882-.567-.567-.819-.882-.567-.567-.819-.882-.567-.567-.819-.882-.567-.567-.819-.882-.567-.567-.819-.882-.567-.567-.819-.882-.567-.567-.819-.882-.567-.567-.819-.882-.567-.567-.819-.882-.567-.567-.819-.882-.567-.567-.819-.882-.567-.567-.819-.882-.567-.567-.819-.882-.567-.567-.819-.882-.567-.567-.819-.882-.567-.567-.819-.882-.567-.567-.819-.882-.567-.567-.819-.882-.567-.567-.819-.882-.567-.567-.819-.882-.567-.567-.819-.882-.567-.567-.819-.882-.567-.567-.819-.882-.567-.567-.819-.882-.567-.567-.819-.882-.567-.567-.819-.882-.567-.567-.819-.882-.567-.567-.819-.882-.567-.567-.819-.882-.567-.567-.819-.882-.567-.567-.819-.882-.567-.567-.819-.882-.567-.567-.819-.882-.567-.567-.819-.882-.567-.567-.819-.882-.567-.567-.819-.882-.567-.567-.819-.882-.567-.567-.819-.882-.567-.567-.819-.882-.567-.567-.819-.882-.567-.567-.819-.882-.567-.567-.819-.882-.567-.567-.819-.882-.567-.567-.819-.882-.567-.567-.819-.882-.567-.567-.819-.882-.567-.567-.819-.882-.567-.567-.819-.882-.567-.567-.819-.882-.567-.567-.819-.882-.567-.567-.819-.882c-3.841-4.534-9.572-6.171-15.869-6.171h-1.071c-7.934,0-14.861,2.645-18.451,10.264a28.123,28.123,0,0,0-11.272-2.2,28.665,28.665,0,0,0-17.128,5.668.477.477,0,0,0-.252.126c-.756.567-1.448,1.133-2.141,1.763h0a28.283,28.283,0,0,0-19.4-7.431c-15.617.063-28.274,12.405-28.212,27.645a27.162,27.162,0,0,0,3.212,12.657H88.254a2.108,2.108,0,0,0-1.952,2.2,2.334,2.334,0,0,0,1.071,2.015,2.224,2.224,0,0,0,.819.882,67118.907,67118.907,0,0,1,1.637,1.763,67121.311,67121.311,0,0,1,1.637,1.763A164739.4,164739.4,0,0,1,93.1,185.18a258887.819,258887.819,0,0,0,1.637,1.763,46466.928,46466.928,0,0,0,1.637,1.763,46469.519,46469.519,0,0,0,1.637,1.763,139400.783,139400.783,0,0,1,1.637,1.763A302030.262,302030.262,0,0,0,101.29,194a139404.669,139404.669,0,0,1,1.637,1.763,164739.4,164739.4,0,0,1,1.637,1.763,151012.047,151012.047,0,0,0,1.637,1.763,48980.044,48980.044,0,0,0,1.637,1.763,53302.014,53302.014,0,0,0,1.637,1.763,1812000.61,1812000.61,0,0,0,1.637,1.763,27048.1,27048.1,0,0,1,1.637,1.763,90611.349,90611.349,0,0,0,1.637,1.763,129444.746,129444.746,0,0,0,1.637,1.763,34193.384,34193.384,0,0,1,1.637,1.763,72487.617,72487.617,0,0,0,1.637,1.763,44201.461,44201.461,0,0,0,1.637,1.763,90612.078,90612.078,0,0,1,1.637,1.763,34193,34193,0,0,1,1.637,1.763,37755.034,37755.034,0,0,0,1.637,1.763,13137791830241.408,13137791830241.408,0,0,1,1.637,1.763,32949.695,32949.695,0,0,1,1.637,1.763,34193.212,34193.212,0,0,0,1.637,1.763A34193.973,34193.973,0,0,0,132.4,227.5a1.515,1.515,0,0,0,.378.5c-.126,2.96-.063,5.038-.063,5.353a1.077,1.077,0,0,0,.819,1.008,604210.84,604210.84,0,0,1,1.637,1.763,67120.744,67120.744,0,0,0,1.637,1.763,1812243.6,1812243.6,0,0,1,1.637,1.763,1812632.355,1812632.355,0,0,1,1.637,1.763,62491.688,62491.688,0,0,0,1.637,1.763,164742.714,164742.714,0,0,1,1.637,1.763,43148.807,43148.807,0,0,1,1.637,1.763,34192.8,34192.8,0,0,0,1.637,1.763,67120.744,67120.744,0,0,0,1.637,1.763,67119.475,67119.475,0,0,1,1.637,1.763,62491.688,62491.688,0,0,0,1.637,1.763,62491.688,62491.688,0,0,0,1.637,1.763,72487.962,72487.962,0,0,1,1.637,1.763,47688.632,47688.632,0,0,0,1.637,1.763,39414640778472.6,39414640778472.6,0,0,1,1.637,1.763,151020.4,151020.4,0,0,0,1.637,1.763,26650.653,26650.653,0,0,1,1.637,1.763A47688.651,47688.651,0,0,0,163,266.1a388331.092,388331.092,0,0,1,2.456,2.645,129448.406,129448.406,0,0,1,1.637,1.763,453046.42,453046.42,0,0,0,2.456,2.645,50340.519,50340.519,0,0,0,2.456,2.645,37236.98,37236.98,0,0,0,2.456,2.645,82374.9,82374.9,0,0,0,2.456,2.645,453069.429,453069.429,0,0,1,2.456,2.645,44563.193,44563.193,0,0,1,2.456,2.645,43148.351,43148.351,0,0,1,1.637,1.763,82374.9,82374.9,0,0,0,2.456,2.645,143071.33,143071.33,0,0,0,2.456,2.645,135917.136,135917.136,0,0,0,2.456,2.645,135917.068,135917.068,0,0,1,2.456,2.645,43148.351,43148.351,0,0,1,1.637,1.763,129444.442,129444.442,0,0,1,1.637,1.763,15102,15102,0,0,1,1.637,1.763,129441.7,129441.7,0,0,1,1.637,1.763,135918.941,135918.941,0,0,1,2.456,2.645,46074.219,46074.219,0,0,1,2.456,2.645,129441.7,129441.7,0,0,1,1.637,1.763,129444.44,129444.44,0,0,1,1.637,1.763,15101.345,15101.345,0,0,1,1.637,1.763,129444.442,129444.442,0,0,1,1.637,1.763,79951.569,79951.569,0,0,1,2.456,2.645,129441.7,129441.7,0,0,1,1.637,1.763,135915.264,135915.264,0,0,0,2.456,2.645,151024.513,151024.513,0,0,0,2.456,2.645,135915.264,135915.264,0,0,0,2.456,2.645,79951.569,79951.569,0,0,1,2.456,2.645,118188.931,118188.931,0,0,0,2.456,2.645,82373.128,82373.128,0,0,1,2.456,2.645,82374.051,82374.051,0,0,1,2.456,2.645,453052.983,453052.983,0,0,0,2.456,2.645,135915.264,135915.264,0,0,0,2.456,2.645,151024.513,151024.513,0,0,0,2.456,2.645,45305.388,45305.388,0,0,1,1.637,1.763,57836.778,57836.778,0,0,1,2.456,2.645,906145.025,906145.025,0,0,1,3.275,3.526,82373.128,82373.128,0,0,1,2.456,2.645,57836.778,57836.778,0,0,1,2.456,2.645,100679.357,100679.357,0,0,1,3.275,3.526,1,1,0,0,0,.819.882,1.018,1.018,0,0,0,1.008.882H359.79a1.092,1.092,0,0,0,1.071-1.008C360.985,365.469,361.552,343.24,353.555,335.431Z" transform="translate(-114.349 -70.574)" opacity="0.8" fill="url(#linear-gradient)"/>
        <rect id="Rectangle_138" data-name="Rectangle 138" width="22.355" height="12.531" transform="translate(87.065 145.155)" fill="#e79a45"/>
        <path id="Path_519" data-name="Path 519" d="M138.548,146.767c-.756.567-1.448,1.133-2.141,1.763a28.283,28.283,0,0,0-19.4-7.431c-15.617.063-28.274,12.406-28.212,27.645a27.3,27.3,0,0,0,10.39,21.285l38.413,27.33S143.334,143.177,138.548,146.767Z" transform="translate(-115.273 -77.053)" fill="#e58b22"/>
        <path id="Path_509" data-name="Path 509" d="M212.448,168.419c-.063-15.239-12.909-27.582-28.526-27.519a28.725,28.725,0,0,0-19.458,7.557H164.4l1.2,68.829L202.624,189.7C209.8,184.225,212.511,176.983,212.448,168.419Z" transform="translate(-143.266 -76.979)" fill="#ff9d27"/>
        <path id="Path_518" data-name="Path 518" d="M215.683,194.31a1.043,1.043,0,0,1,.756.315.931.931,0,0,1,.252.819l-.63,6.927a1.022,1.022,0,0,1-1.008.945h-6.045A.983.983,0,0,1,208,202.37l-.63-6.927a1.266,1.266,0,0,1,.252-.819,1.162,1.162,0,0,1,.756-.315Zm-21.851-26.574a1.422,1.422,0,0,0,.945-.882,49,49,0,0,0,6.549,11.965c4.6,6.423,17.758,5.542,21.6,0a48.3,48.3,0,0,0,6.486-12.406c.252.756.63,1.259,1.134,1.322,1.259.189,2.645-2.33,3.149-5.6s.756-6.108-.567-6.3a3,3,0,0,0-1.763.378c.063-.693,1.134-4.156,1.134-5.164,0-2.834-.882-10.139-1.385-11.4-3.4-8.69-10.642-11.65-19.018-11.65-8.249,0-15.491,2.834-18.892,11.335-.5,1.2-1.385,8.123-1.385,10.894,0,1.2.945,5.1,1.008,5.793a4.576,4.576,0,0,0-1.574-.252c-1.259.126-1.071,3.023-.567,6.3C191.187,165.468,192.635,167.924,193.832,167.735ZM263.92,234.8a1.049,1.049,0,0,1-1.071,1.008H161.464a1.092,1.092,0,0,1-1.071-1.008c0-.945-.63-23.615,7.683-31.171,5.353-4.912,16.562-8.879,23.3-11.272,1.385-.5,2.582-.945,3.463-1.259a.942.942,0,0,1,.819.063,1.379,1.379,0,0,1,.567.63l10.013,35.768,2.078-20.214a1.076,1.076,0,0,1,1.008-.945h5.667a.981.981,0,0,1,1.008.945l2.2,20.4,9.95-35.957a.821.821,0,0,1,.567-.63,1.228,1.228,0,0,1,.819-.063c.882.315,2.078.756,3.464,1.259,6.675,2.393,17.884,6.36,23.3,11.272C264.55,211.123,263.92,233.856,263.92,234.8Zm-14.735-11.524a1.559,1.559,0,0,0-1.574-1.574H231.93a1.559,1.559,0,0,0-1.574,1.574v3.275a1.559,1.559,0,0,0,1.574,1.574h15.617a1.559,1.559,0,0,0,1.574-1.574v-3.275Z" transform="translate(-141.779 -72.203)" fill="#fff"/>
        <g id="Group_357" data-name="Group 357" transform="translate(50.101 55.86)">
          <path id="Path_521" data-name="Path 521" d="M252.8,141.135c.5,1.259,1.385,8.564,1.385,11.4,0,1.008-1.071,4.471-1.133,5.164a3.576,3.576,0,0,1,1.763-.378c1.259.126,1.071,3.023.567,6.3s-1.952,5.793-3.149,5.6c-.5-.063-.882-.567-1.133-1.322a52.579,52.579,0,0,1-6.486,12.406,8.948,8.948,0,0,1-3.778,2.96c3.652-.441,6.99-1.952,8.627-4.345a48.3,48.3,0,0,0,6.486-12.406c.252.756.63,1.259,1.133,1.322,1.259.189,2.645-2.33,3.149-5.6s.756-6.108-.567-6.3a3,3,0,0,0-1.763.378c.063-.693,1.133-4.156,1.133-5.164,0-2.834-.882-10.139-1.385-11.4-3.4-8.69-10.642-11.65-19.018-11.65A25.212,25.212,0,0,0,229,129.8a29.473,29.473,0,0,1,4.786-.378C242.1,129.485,249.4,132.445,252.8,141.135Z" transform="translate(-217.287 -128.1)" fill="#e6e6e6"/>
          <path id="Path_522" data-name="Path 522" d="M210.9,230.191l10.013,35.768,1.385-13.665-6.549-23.426a.821.821,0,0,0-.567-.63,1.228,1.228,0,0,0-.819-.063c-.882.315-2.078.756-3.463,1.259a4.344,4.344,0,0,1-.5.189A.769.769,0,0,1,210.9,230.191Z" transform="translate(-210.4 -165.141)" fill="#e6e6e6"/>
          <path id="Path_523" data-name="Path 523" d="M265.5,280.474v3.275a1.559,1.559,0,0,0,1.574,1.574h15.617A1.568,1.568,0,0,0,284.266,284H271.923a1.559,1.559,0,0,1-1.574-1.574V278.9h-3.275A1.559,1.559,0,0,0,265.5,280.474Z" transform="translate(-230.802 -183.938)" fill="#e6e6e6"/>
          <path id="Path_524" data-name="Path 524" d="M240.9,254.767l2.2,20.4,3.589-12.909-.945-8.816a1.076,1.076,0,0,0-1.008-.945H239.07a.944.944,0,0,0-1.008.945l-.063.378h1.889A1.023,1.023,0,0,1,240.9,254.767Z" transform="translate(-220.62 -174.163)" fill="#e6e6e6"/>
          <path id="Path_525" data-name="Path 525" d="M297.452,240.591c-5.353-4.912-16.562-8.879-23.3-11.272-1.385-.5-2.582-.945-3.463-1.259a.942.942,0,0,0-.819.063,1.378,1.378,0,0,0-.567.63l-.5,1.763c.189.063.315.126.5.189,6.675,2.393,17.884,6.36,23.3,11.272,7.872,7.179,7.746,27.9,7.683,30.856h3.778a1.092,1.092,0,0,0,1.071-1.008C305.135,270.881,305.765,248.148,297.452,240.591Z" transform="translate(-232.024 -165.087)" fill="#e6e6e6"/>
          <path id="Path_526" data-name="Path 526" d="M240.91,235a.931.931,0,0,1,.252.819l-.567,6.486h3.778a.983.983,0,0,0,1.008-.945l.63-6.927a1.266,1.266,0,0,0-.252-.819A1.162,1.162,0,0,0,245,233.3h-7.3a1.043,1.043,0,0,0-.756.315.931.931,0,0,0-.252.819v.189h3.463A1.716,1.716,0,0,1,240.91,235Z" transform="translate(-220.129 -167.053)" fill="#e6e6e6"/>
        </g>
        <path id="Path_517" data-name="Path 517" d="M134.533,212.819a2.064,2.064,0,0,1-1.889-1.763l-5.038-26.826-2.708,6.8a1.93,1.93,0,0,1-1.763,1.322H88.752a2.108,2.108,0,0,1-1.952-2.2,2.068,2.068,0,0,1,1.952-2.2h33.123l4.6-11.587a1.857,1.857,0,0,1,1.952-1.259,2.146,2.146,0,0,1,1.7,1.763l4.219,22.544,6.234-38.98a2.075,2.075,0,0,1,1.952-1.826,2.028,2.028,0,0,1,1.889,1.889l4.03,29.408.252-.819a1.989,1.989,0,0,1,1.826-1.448H183.21a2.108,2.108,0,0,1,1.952,2.2,2.068,2.068,0,0,1-1.952,2.2H151.85l-2.393,7.179a2,2,0,0,1-2.015,1.448,2.083,2.083,0,0,1-1.7-1.889l-3.4-24.811-5.919,37.028a2.135,2.135,0,0,1-1.889,1.826Z" transform="translate(-114.533 -83.533)" fill="#fff"/>
      </g>
    </g>
  </g>
</svg>
