<svg xmlns="http://www.w3.org/2000/svg" xmlns:xlink="http://www.w3.org/1999/xlink" width="200" height="200" viewBox="0 0 200 200">
  <defs>
    <clipPath id="clip-CR_Star">
      <rect width="200" height="200"/>
    </clipPath>
  </defs>
  <g id="CR_Star" data-name="CR Star" clip-path="url(#clip-CR_Star)">
    <g id="Product_Icon_Ignite" data-name="Product Icon Ignite" transform="translate(0)">
      <path id="Path_12746" data-name="Path 12746" d="M200,100a104.15,104.15,0,0,1-.733,12.167,98.551,98.551,0,0,1-3.133,15.467A100.058,100.058,0,0,1,100,199.967c-45.633,0-7.233-.2-10.8-.567A99.79,99.79,0,0,1,0,100C0,52.267,44.767,0,100,0A99.994,99.994,0,0,1,200,100Z" fill="#005cb7"/>
    </g>
    <g id="Group_1229" data-name="Group 1229" transform="translate(-137.08 -208.57)">
      <path id="Path_12826" data-name="Path 12826" d="M267.183,319.677l18.3,56.309-47.9-34.8-47.9,34.8L201.992,338.1l46.868-31.711H189.684l-29.6-21.509h59.2l18.3-56.309,18.3,56.309H315.08Z" transform="translate(0 0)" fill="#fff" opacity="0.75"/>
      <path id="Path_12827" data-name="Path 12827" d="M315.08,477.59l-47.9,34.8-29.6,21.509-47.9,34.8,12.308-37.887L248.86,499.1H189.684l-29.6-21.509Z" transform="translate(0 -192.711)" fill="#fff"/>
    </g>
  </g>
</svg>
