<svg xmlns="http://www.w3.org/2000/svg" xmlns:xlink="http://www.w3.org/1999/xlink" width="200" height="200" viewBox="0 0 200 200">
  <defs>
    <clipPath id="clip-path">
      <circle id="Ellipse_27" data-name="Ellipse 27" cx="100" cy="100" r="100"/>
    </clipPath>
    <linearGradient id="linear-gradient" x1="0.183" y1="0.206" x2="0.512" y2="0.583" gradientUnits="objectBoundingBox">
      <stop offset="0" stop-color="#00455f"/>
      <stop offset="0.37" stop-color="#006d93" stop-opacity="0.631"/>
      <stop offset="0.801" stop-color="#0099d2" stop-opacity="0.2"/>
      <stop offset="1" stop-color="#00aeef" stop-opacity="0"/>
    </linearGradient>
    <clipPath id="clip-Documentation">
      <rect width="200" height="200"/>
    </clipPath>
  </defs>
  <g id="Documentation" clip-path="url(#clip-Documentation)">
    <circle id="Ellipse_24" data-name="Ellipse 24" cx="100" cy="100" r="100" fill="#00aeff"/>
    <g id="Group_47" data-name="Group 47" clip-path="url(#clip-path)">
      <path id="Path_56" data-name="Path 56" d="M293.069,191.333,188.211,92.5l-52.871,52.568L95,171.532l87.6,76.659C181.334,252.607,293.259,191.459,293.069,191.333Z" transform="translate(-38.303 -16.951)" opacity="0.8" fill="url(#linear-gradient)"/>
    </g>
    <g id="Group_961" data-name="Group 961" transform="translate(46 33)">
      <path id="Path_630" data-name="Path 630" d="M101.842,125H57.625A4.583,4.583,0,0,1,53,120.478V4.522A4.583,4.583,0,0,1,57.625,0h44.218Z" transform="translate(-44.12)" fill="#ececf1"/>
      <path id="Path_631" data-name="Path 631" d="M389.388,125H344.5V0h21.95a4.626,4.626,0,0,1,3.284,1.343L392.672,23.9a4.516,4.516,0,0,1,1.341,3.195v93.381A4.583,4.583,0,0,1,389.388,125Z" transform="translate(-289.346)" fill="#e2e2e7"/>
      <path id="Path_632" data-name="Path 632" d="M459.1,27.161V0h2.748a4.573,4.573,0,0,1,3.284,1.374L488.07,24.446a4.672,4.672,0,0,1,1.34,3.267v1.977h-27.8A2.524,2.524,0,0,1,459.1,27.161Z" transform="translate(-384.744)" fill="#d3d3d8"/>
      <path id="Path_633" data-name="Path 633" d="M57.722,289.687H8.713c-4.792,0-8.713-3.653-8.713-8.11V231.11C0,226.653,3.921,223,8.713,223h49.01Z" transform="translate(0 -187.373)" fill="#ff9d27"/>
      <path id="Path_634" data-name="Path 634" d="M393.51,289.687H344.5V223h49.01c4.792,0,8.713,3.653,8.713,8.11v50.467C402.223,286.034,398.3,289.687,393.51,289.687Z" transform="translate(-289.346 -187.373)" fill="#e58b22"/>
      <g id="Group_959" data-name="Group 959" transform="translate(19.08 51.386)">
        <path id="Path_635" data-name="Path 635" d="M122.3,334.613a7.389,7.389,0,0,1,2.094,1.86,6.4,6.4,0,0,1,1.056,2.614,22.455,22.455,0,0,1,.3,4.072c0,1.24.034,2.161.084,2.748a3.453,3.453,0,0,0,.335,1.34,1.307,1.307,0,0,0,.6.6,5.723,5.723,0,0,0,1.223.268,1.812,1.812,0,0,1,1.19.7,2.449,2.449,0,0,1,.469,1.575c0,1.525-.922,2.279-2.765,2.279a6.261,6.261,0,0,1-3.049-.72,4.95,4.95,0,0,1-2.078-2.027,6.266,6.266,0,0,1-.754-3c-.034-1.91-.067-3.435-.117-4.591a16.852,16.852,0,0,0-.168-2.245,4.239,4.239,0,0,0-.838-1.893,6.573,6.573,0,0,0-1.441-1.19A5.224,5.224,0,0,1,117.169,336a2.146,2.146,0,0,1-.369-1.408,2.349,2.349,0,0,1,1.089-2.094,10.667,10.667,0,0,0,1.927-1.441,3.259,3.259,0,0,0,.8-1.525,9.418,9.418,0,0,0,.268-2.027c.017-.737.067-2.5.117-5.295a5.5,5.5,0,0,1,5.881-5.714c1.843,0,2.765.754,2.765,2.245a2.436,2.436,0,0,1-.469,1.592,1.7,1.7,0,0,1-1.19.67,3.746,3.746,0,0,0-1.525.452,1.722,1.722,0,0,0-.57,1.173,29.143,29.143,0,0,0-.168,3.351,30.03,30.03,0,0,1-.285,3.988,6.427,6.427,0,0,1-1.005,2.647A6.7,6.7,0,0,1,122.3,334.613Z" transform="translate(-116.8 -316.5)" fill="#fff"/>
      </g>
      <g id="Group_960" data-name="Group 960" transform="translate(80.699 51.434)">
        <path id="Path_636" data-name="Path 636" d="M501.372,334.862a8.138,8.138,0,0,1-1.659-1.34,6.058,6.058,0,0,1-1.056-1.692,9.744,9.744,0,0,1-.586-2.363,25.462,25.462,0,0,1-.168-3.2c0-1.19-.034-2.111-.067-2.731a3.915,3.915,0,0,0-.3-1.391,1.2,1.2,0,0,0-.637-.586,5.822,5.822,0,0,0-1.24-.251,1.8,1.8,0,0,1-1.173-.67,2.44,2.44,0,0,1-.486-1.592c0-1.491.9-2.245,2.731-2.245a6.487,6.487,0,0,1,3.083.7,5.255,5.255,0,0,1,2.094,2.011,6.037,6.037,0,0,1,.788,2.982c.067,4.172.168,6.451.268,6.87a4.433,4.433,0,0,0,.888,1.893,6.036,6.036,0,0,0,1.408,1.156,5,5,0,0,1,1.24.989,2.3,2.3,0,0,1,.4,1.491,2.271,2.271,0,0,1-1.072,2.078,9.99,9.99,0,0,0-1.91,1.424,3.215,3.215,0,0,0-.821,1.525,13.686,13.686,0,0,0-.285,2.731q-.05,1.835-.1,4.574a5.759,5.759,0,0,1-1.659,4.172,5.889,5.889,0,0,1-4.273,1.575,3.142,3.142,0,0,1-2.027-.586,2.071,2.071,0,0,1-.7-1.692,2.821,2.821,0,0,1,.218-1.139,2.01,2.01,0,0,1,.586-.8,1.618,1.618,0,0,1,.838-.335,4.682,4.682,0,0,0,1.257-.285,1.24,1.24,0,0,0,.637-.637,4.161,4.161,0,0,0,.285-1.391c.05-.6.067-1.491.067-2.664a24.671,24.671,0,0,1,.3-4.071,5.929,5.929,0,0,1,1.005-2.513A6.469,6.469,0,0,1,501.372,334.862Z" transform="translate(-494 -316.8)" fill="#fff"/>
      </g>
      <circle id="Ellipse_83" data-name="Ellipse 83" cx="3.686" cy="3.686" r="3.686" transform="translate(37.785 65.767)" fill="#fff"/>
      <circle id="Ellipse_84" data-name="Ellipse 84" cx="3.686" cy="3.686" r="3.686" transform="translate(52.834 65.767)" fill="#fff"/>
      <circle id="Ellipse_85" data-name="Ellipse 85" cx="3.686" cy="3.686" r="3.686" transform="translate(67.883 65.767)" fill="#fff"/>
    </g>
  </g>
</svg>
