<svg xmlns="http://www.w3.org/2000/svg" xmlns:xlink="http://www.w3.org/1999/xlink" width="200" height="200" viewBox="0 0 200 200">
  <defs>
    <clipPath id="clip-path">
      <circle id="Ellipse_26" data-name="Ellipse 26" cx="100" cy="100" r="100"/>
    </clipPath>
    <linearGradient id="linear-gradient" x1="0.027" y1="0.083" x2="0.44" y2="0.518" gradientUnits="objectBoundingBox">
      <stop offset="0" stop-color="#00455f"/>
      <stop offset="0.37" stop-color="#006d93" stop-opacity="0.631"/>
      <stop offset="0.801" stop-color="#0099d2" stop-opacity="0.2"/>
      <stop offset="1" stop-color="#00aeef" stop-opacity="0"/>
    </linearGradient>
    <linearGradient id="linear-gradient-2" x1="0.183" y1="0.206" x2="0.512" y2="0.583" xlink:href="#linear-gradient"/>
    <clipPath id="clip-path-6">
      <circle id="Ellipse_32" data-name="Ellipse 32" cx="39.748" cy="39.748" r="39.748"/>
    </clipPath>
    <linearGradient id="linear-gradient-3" x1="0.043" y1="-0.009" x2="0.537" y2="0.541" xlink:href="#linear-gradient"/>
    <linearGradient id="linear-gradient-4" x1="-0.052" y1="0.061" x2="0.512" y2="0.541" xlink:href="#linear-gradient"/>
    <linearGradient id="linear-gradient-5" x1="-0.02" y1="-0.516" x2="0.486" y2="0.525" xlink:href="#linear-gradient"/>
    <clipPath id="clip-EDW_Console">
      <rect width="200" height="200"/>
    </clipPath>
  </defs>
  <g id="EDW_Console" data-name="EDW Console" clip-path="url(#clip-EDW_Console)">
    <g id="Group_55" data-name="Group 55">
      <g id="Group_57" data-name="Group 57">
        <circle id="Ellipse_24" data-name="Ellipse 24" cx="100" cy="100" r="100" fill="#00aeff"/>
      </g>
      <g id="Group_46" data-name="Group 46" clip-path="url(#clip-path)">
        <path id="Path_52" data-name="Path 52" d="M218.1,195.988,113.24,67.092a87.4,87.4,0,0,0-37.287-5.8C55.322,62.8,51.6,86.272,51.6,86.272l.631,52.429,83.6,103.659C134.565,246.777,218.288,196.051,218.1,195.988Z" transform="translate(-19.045 -22.55)" opacity="0.8" fill="url(#linear-gradient)"/>
        <g id="Group_45" data-name="Group 45" transform="translate(32.555 36.53)">
          <path id="Path_53" data-name="Path 53" d="M116.206,114.1c-.315,7.382-14.637,13.312-32.3,13.312S51.915,121.482,51.6,114.1v16.845c0,7.508,14.448,13.565,32.3,13.565s32.3-6.057,32.3-13.565V114.1ZM63.65,137.7a2.65,2.65,0,1,1,2.65-2.65A2.626,2.626,0,0,1,63.65,137.7Z" transform="translate(-51.6 -78.643)" fill="#fff"/>
          <path id="Path_54" data-name="Path 54" d="M116.206,153c-.315,7.382-14.637,13.312-32.3,13.312S51.915,160.382,51.6,153v16.845c0,7.508,14.448,13.565,32.3,13.565s32.3-6.057,32.3-13.565V153ZM63.65,176.659a2.65,2.65,0,1,1,2.65-2.65A2.588,2.588,0,0,1,63.65,176.659Z" transform="translate(-51.6 -93)" fill="#fff"/>
          <path id="Path_55" data-name="Path 55" d="M83.9,57.9c-17.855,0-32.3,6.057-32.3,13.565V85.092c0,7.508,14.448,13.565,32.3,13.565s32.3-6.057,32.3-13.565V71.528C116.206,64.02,101.758,57.9,83.9,57.9ZM63.65,91.528a2.65,2.65,0,1,1,2.65-2.65A2.626,2.626,0,0,1,63.65,91.528ZM83.9,80.3c-12.871,0-23.281-4.416-23.281-9.779s10.41-9.779,23.281-9.779,23.281,4.416,23.281,9.779S96.773,80.3,83.9,80.3Z" transform="translate(-51.6 -57.9)" fill="#fff"/>
        </g>
      </g>
      <g id="Group_47" data-name="Group 47" clip-path="url(#clip-path)">
        <path id="Path_56" data-name="Path 56" d="M313.069,253.333,208.211,124.5l-32.871,40.568L139,194.532l83.6,103.659C221.334,302.607,313.259,253.459,313.069,253.333Z" transform="translate(-51.303 -45.951)" opacity="0.8" fill="url(#linear-gradient-2)"/>
      </g>
      <g id="Group_48" data-name="Group 48" clip-path="url(#clip-path)">
        <circle id="Ellipse_28" data-name="Ellipse 28" cx="49.464" cy="49.464" r="49.464" transform="translate(73.817 64.795)" fill="#d3d5d6"/>
      </g>
      <g id="Group_49" data-name="Group 49" clip-path="url(#clip-path)">
        <circle id="Ellipse_30" data-name="Ellipse 30" cx="39.748" cy="39.748" r="39.748" transform="translate(83.533 74.511)" fill="#fff"/>
      </g>
      <g id="Group_51" data-name="Group 51" clip-path="url(#clip-path)">
        <g id="Group_50" data-name="Group 50" transform="translate(83.533 74.511)" clip-path="url(#clip-path-6)">
          <path id="Path_57" data-name="Path 57" d="M317.917,320.5,213.059,191.67l-19.117-3.091L189.4,188.2,273,291.859C271.671,296.276,318.107,320.566,317.917,320.5Z" transform="translate(-153.438 -143.973)" opacity="0.5" fill="url(#linear-gradient-3)"/>
          <path id="Path_58" data-name="Path 58" d="M306.163,262.833,201.368,134l-.568,30.726,16.719,7.192,83.6,103.659C299.791,279.931,306.352,262.9,306.163,262.833Z" transform="translate(-157.645 -123.968)" opacity="0.2" fill="url(#linear-gradient-4)"/>
        </g>
      </g>
      <g id="Group_52" data-name="Group 52" clip-path="url(#clip-path)">
        <path id="Path_59" data-name="Path 59" d="M136.906,174.125a46,46,0,0,1,65.8-41.514,39.717,39.717,0,0,0-70.41,25.237,39.327,39.327,0,0,0,4.669,18.612C136.969,175.7,136.906,174.882,136.906,174.125Z" transform="translate(-48.83 -43.589)" opacity="0.8" fill="url(#linear-gradient-5)"/>
      </g>
      <g id="Group_53" data-name="Group 53" clip-path="url(#clip-path)">
        <rect id="Rectangle_5" data-name="Rectangle 5" width="8.328" height="33.943" transform="translate(119.054 84.669)" fill="#ff9d27"/>
      </g>
      <g id="Group_56" data-name="Group 56" transform="matrix(-0.477, 0.879, -0.879, -0.477, 143.727, 122.413)">
        <rect id="Rectangle_6" data-name="Rectangle 6" width="8.328" height="23.533" fill="#ff9d27"/>
      </g>
    </g>
  </g>
</svg>
