<svg xmlns="http://www.w3.org/2000/svg" xmlns:xlink="http://www.w3.org/1999/xlink" width="200" height="200" viewBox="0 0 200 200">
  <defs>
    <clipPath id="clip-path">
      <circle id="Ellipse_5" data-name="Ellipse 5" cx="100" cy="100" r="100"/>
    </clipPath>
    <clipPath id="clip-path-2">
      <path id="Path_648" data-name="Path 648" d="M2003.053,1149.693a6.8,6.8,0,0,0-7.365-6.156l-1.544.14a7.288,7.288,0,0,1-7.046-4.421l-2.719-5.82a7.271,7.271,0,0,1,1.107-8.249l1.089-1.092a6.8,6.8,0,0,0-.019-9.6l-5.191-5.172a6.805,6.805,0,0,0-9.6.016l-1.082,1.084a7.275,7.275,0,0,1-8.246,1.128l-5.841-2.688a7.282,7.282,0,0,1-4.449-7.035l.132-1.533a6.811,6.811,0,0,0-6.188-7.344l-7.285-.623a6.807,6.807,0,0,0-7.345,6.183l-.13,1.532a7.3,7.3,0,0,1-5.589,6.176l-6.216,1.653a7.278,7.278,0,0,1-7.933-2.516l-.88-1.251a6.8,6.8,0,0,0-9.457-1.648l-6,4.212a6.813,6.813,0,0,0-1.65,9.462l.884,1.257a7.28,7.28,0,0,1-.315,8.316l-3.664,5.271a7.3,7.3,0,0,1-7.7,3.158l-1.5-.4a6.806,6.806,0,0,0-8.307,4.814l-1.882,7.087a6.809,6.809,0,0,0,4.816,8.309l1.5.4a7.305,7.305,0,0,1,5.116,6.574l.538,6.378a7.287,7.287,0,0,1-3.862,7.388l-1.385.651a6.813,6.813,0,0,0-3.27,9.031l3.105,6.628a6.676,6.676,0,0,0,2.063,2.5l19.758-17.857a40.832,40.832,0,1,1,21.92,21.366l-18.132,20.051a6.579,6.579,0,0,0,1.936,1.388l6.645,3.089a6.8,6.8,0,0,0,9.009-3.3l.645-1.4a6.978,6.978,0,0,1,7.333-3.689s.376.075,3.22.318,3.228.233,3.228.233a6.972,6.972,0,0,1,6.594,4.885l.4,1.492a6.8,6.8,0,0,0,8.32,4.78l7.072-1.91a6.806,6.806,0,0,0,4.78-8.323l-.4-1.481a7.3,7.3,0,0,1,3.144-7.716l5.254-3.692a7.284,7.284,0,0,1,8.312-.347l1.27.884a6.81,6.81,0,0,0,9.456-1.691l4.188-6a6.812,6.812,0,0,0-1.684-9.454l-1.26-.878a7.293,7.293,0,0,1-2.543-7.936l1.616-6.2a7.3,7.3,0,0,1,6.161-5.6l1.548-.138a6.813,6.813,0,0,0,6.165-7.366Z" transform="translate(-1835.365 -1064.816)" fill="#30363d"/>
    </clipPath>
    <clipPath id="clip-Engine_Extensibility">
      <rect width="200" height="200"/>
    </clipPath>
  </defs>
  <g id="Engine_Extensibility" data-name="Engine Extensibility" clip-path="url(#clip-Engine_Extensibility)">
    <circle id="Blue_300_Bg" data-name="Blue 300 Bg" cx="100" cy="100" r="100" transform="translate(0 -0.1)" fill="#005cb7"/>
    <g id="Group_473" data-name="Group 473" transform="translate(-1824.928 -1064.816)">
      <path id="Path_646" data-name="Path 646" d="M1923.837,1241.229a22.572,22.572,0,0,0,7.606,1.216,26.331,26.331,0,0,0,18.9-7.955,26.735,26.735,0,0,0,5.405-8.081,22.67,22.67,0,0,0,1.564-5.294c.3-2.307-1.248-3.552-3.444-2.782l-17.449,6.2-7.565-3.589-2.783-7.786,3.595-7.558,17.213-6.109c2.192-.783,2.563-2.682.812-4.221a23.845,23.845,0,0,0-5.652-3.5,26.441,26.441,0,0,0-37.052,24.218,22.744,22.744,0,0,0,1.2,7.582c1.063,2.707-1.334,5.02-3.486,6.965l-39.067,35.313a12.671,12.671,0,0,0,17.915,17.923l35.315-39.06C1918.815,1242.552,1921.117,1240.162,1923.837,1241.229Zm-47.494,37.329a5.293,5.293,0,1,1,0-7.487A5.3,5.3,0,0,1,1876.344,1278.558Z" transform="translate(0 -57.028)" fill="#b8d2eb"/>
      <path id="Path_647" data-name="Path 647" d="M2003.053,1149.693a6.8,6.8,0,0,0-7.365-6.156l-1.544.14a7.288,7.288,0,0,1-7.046-4.421l-2.719-5.82a7.271,7.271,0,0,1,1.107-8.249l1.089-1.092a6.8,6.8,0,0,0-.019-9.6l-5.191-5.172a6.805,6.805,0,0,0-9.6.016l-1.082,1.084a7.275,7.275,0,0,1-8.246,1.128l-5.841-2.688a7.282,7.282,0,0,1-4.449-7.035l.132-1.533a6.811,6.811,0,0,0-6.188-7.344l-7.285-.623a6.807,6.807,0,0,0-7.345,6.183l-.13,1.532a7.3,7.3,0,0,1-5.589,6.176l-6.216,1.653a7.278,7.278,0,0,1-7.933-2.516l-.88-1.251a6.8,6.8,0,0,0-9.457-1.648l-6,4.212a6.813,6.813,0,0,0-1.65,9.462l.884,1.257a7.28,7.28,0,0,1-.315,8.316l-3.664,5.271a7.3,7.3,0,0,1-7.7,3.158l-1.5-.4a6.806,6.806,0,0,0-8.307,4.814l-1.882,7.087a6.809,6.809,0,0,0,4.816,8.309l1.5.4a7.305,7.305,0,0,1,5.116,6.574l.538,6.378a7.287,7.287,0,0,1-3.862,7.388l-1.385.651a6.813,6.813,0,0,0-3.27,9.031l3.105,6.628a6.676,6.676,0,0,0,2.063,2.5l19.758-17.857a40.832,40.832,0,1,1,21.92,21.366l-18.132,20.051a6.579,6.579,0,0,0,1.936,1.388l6.645,3.089a6.8,6.8,0,0,0,9.009-3.3l.645-1.4a6.978,6.978,0,0,1,7.333-3.689s.376.075,3.22.318,3.228.233,3.228.233a6.972,6.972,0,0,1,6.594,4.885l.4,1.492a6.8,6.8,0,0,0,8.32,4.78l7.072-1.91a6.806,6.806,0,0,0,4.78-8.323l-.4-1.481a7.3,7.3,0,0,1,3.144-7.716l5.254-3.692a7.284,7.284,0,0,1,8.312-.347l1.27.884a6.81,6.81,0,0,0,9.456-1.691l4.188-6a6.812,6.812,0,0,0-1.684-9.454l-1.26-.878a7.293,7.293,0,0,1-2.543-7.936l1.616-6.2a7.3,7.3,0,0,1,6.161-5.6l1.548-.138a6.813,6.813,0,0,0,6.165-7.366Z" transform="translate(-6.437 0)" fill="#cdd5d7"/>
      <g id="Mask_Group_12" data-name="Mask Group 12" transform="translate(1828.928 1064.816)" clip-path="url(#clip-path-2)">
        <g id="Path_649" data-name="Path 649" transform="translate(53 46)" fill="none">
          <path d="M48.5,0A48.5,48.5,0,1,1,0,48.5,48.5,48.5,0,0,1,48.5,0Z" stroke="none"/>
          <path d="M 48.5 5 C 42.62533187866211 5 36.92905044555664 6.149436950683594 31.56936645507812 8.416397094726562 C 26.3900146484375 10.60706329345703 21.73743438720703 13.74427032470703 17.74085235595703 17.74085235595703 C 13.74427032470703 21.73743438720703 10.60706329345703 26.3900146484375 8.416397094726562 31.56936645507812 C 6.149436950683594 36.92905044555664 5 42.62533187866211 5 48.5 C 5 54.37466812133789 6.149436950683594 60.07094955444336 8.416397094726562 65.43063354492188 C 10.60706329345703 70.6099853515625 13.74427032470703 75.26256561279297 17.74085235595703 79.25914764404297 C 21.73743438720703 83.2557373046875 26.3900146484375 86.39292907714844 31.56936645507812 88.58360290527344 C 36.92905044555664 90.85057067871094 42.62533187866211 92 48.5 92 C 54.37466812133789 92 60.07094955444336 90.85057067871094 65.43063354492188 88.58360290527344 C 70.6099853515625 86.39292907714844 75.26256561279297 83.2557373046875 79.25914764404297 79.25914764404297 C 83.2557373046875 75.26256561279297 86.39292907714844 70.6099853515625 88.58360290527344 65.43063354492188 C 90.85057067871094 60.07094955444336 92 54.37466812133789 92 48.5 C 92 42.62533187866211 90.85057067871094 36.92905044555664 88.58360290527344 31.56936645507812 C 86.39292907714844 26.3900146484375 83.2557373046875 21.73743438720703 79.25914764404297 17.74085235595703 C 75.26256561279297 13.74427032470703 70.6099853515625 10.60706329345703 65.43063354492188 8.416397094726562 C 60.07094955444336 6.149436950683594 54.37466812133789 5 48.5 5 M 48.5 0 C 75.28581237792969 0 97 21.71417999267578 97 48.5 C 97 75.28581237792969 75.28581237792969 97 48.5 97 C 21.71417999267578 97 0 75.28581237792969 0 48.5 C 0 21.71417999267578 21.71417999267578 0 48.5 0 Z" stroke="none" fill="#f2f2f2"/>
        </g>
      </g>
    </g>
  </g>
</svg>
