<svg xmlns="http://www.w3.org/2000/svg" xmlns:xlink="http://www.w3.org/1999/xlink" width="200" height="200" viewBox="0 0 200 200">
  <defs>
    <clipPath id="clip-path">
      <rect id="Rectangle_169" data-name="Rectangle 169" width="70.793" height="148.364" fill="none"/>
    </clipPath>
    <clipPath id="clip-ETL">
      <rect width="200" height="200"/>
    </clipPath>
  </defs>
  <g id="ETL" clip-path="url(#clip-ETL)">
    <circle id="Ellipse_24" data-name="Ellipse 24" cx="100" cy="100" r="100" fill="#00aeff"/>
    <g id="Group_462" data-name="Group 462" transform="translate(-2099.639 -4263.688)">
      <g id="Group_451" data-name="Group 451" transform="translate(2178.601 4343.442)">
        <path id="Path_617" data-name="Path 617" d="M2286.581,4393.236a8.458,8.458,0,0,0,0-16.91,8.38,8.38,0,0,0-8.238,7.155h-68.177v4.335h68.611A8.434,8.434,0,0,0,2286.581,4393.236Z" transform="translate(-2210.166 -4376.326)" fill="#fff"/>
      </g>
      <g id="Group_452" data-name="Group 452" transform="translate(2197.782 4295.097)">
        <path id="Path_618" data-name="Path 618" d="M2272.685,4328.462v-11.273a8.2,8.2,0,0,0,6.071-8.021,8.241,8.241,0,1,0-16.476,0,8.2,8.2,0,0,0,6.07,8.021v9.1h-28.183v4.335h30.352A2.048,2.048,0,0,0,2272.685,4328.462Z" transform="translate(-2240.166 -4300.712)" fill="#fff"/>
      </g>
      <g id="Group_453" data-name="Group 453" transform="translate(2191.388 4399.158)">
        <path id="Path_619" data-name="Path 619" d="M2269.079,4476.911v-11.274a2.173,2.173,0,0,0-2.168-2.168h-36.745v4.336h34.577v9.105a8.653,8.653,0,0,0-6.07,8.237,8.422,8.422,0,0,0,8.238,8.456,8.53,8.53,0,0,0,2.168-16.693Z" transform="translate(-2230.166 -4463.469)" fill="#fff"/>
      </g>
      <g id="Group_454" data-name="Group 454" transform="translate(2184.995 4310.056)">
        <path id="Path_620" data-name="Path 620" d="M2273.06,4353.375l10.623-13.008a6.931,6.931,0,0,0,3.035.65,8.458,8.458,0,0,0,0-16.91,8.423,8.423,0,0,0-8.238,8.455,8.821,8.821,0,0,0,1.734,5.2l-9.972,12.14h-50.076v4.337h51.16A2.674,2.674,0,0,0,2273.06,4353.375Z" transform="translate(-2220.166 -4324.108)" fill="#fff"/>
      </g>
      <g id="Group_455" data-name="Group 455" transform="translate(2184.995 4384.2)">
        <path id="Path_621" data-name="Path 621" d="M2286.719,4453.3a6.925,6.925,0,0,0-3.035.65l-10.623-13.007a2.674,2.674,0,0,0-1.734-.868h-51.16v4.336h50.076l9.756,12.14a8.817,8.817,0,0,0-1.735,5.2,8.422,8.422,0,0,0,8.238,8.455,8.284,8.284,0,0,0,8.239-8.455A7.979,7.979,0,0,0,2286.719,4453.3Z" transform="translate(-2220.166 -4440.073)" fill="#fff"/>
      </g>
      <g id="Group_456" data-name="Group 456" transform="translate(2172.207 4363.821)">
        <path id="Path_622" data-name="Path 622" d="M2282.974,4408.2a8.044,8.044,0,0,0-7.587,5.2h-75.221v4.337h74.57a8.38,8.38,0,0,0,8.238,7.154,8.284,8.284,0,0,0,8.238-8.455A8.1,8.1,0,0,0,2282.974,4408.2Z" transform="translate(-2200.166 -4408.2)" fill="#fff"/>
      </g>
      <g id="Group_461" data-name="Group 461" transform="translate(2122.639 4290.688)">
        <g id="Group_460" data-name="Group 460" clip-path="url(#clip-path)">
          <g id="Group_459" data-name="Group 459" transform="translate(2.298 4.872)">
            <g id="Group_458" data-name="Group 458">
              <path id="Path_623" data-name="Path 623" d="M2235.747,4419.818l13.044-13.041-5.4-8.342a58.812,58.812,0,0,0,4.014-7.169l9.618.49,4.777-17.814-8.869-4.539a59.178,59.178,0,0,0-.112-8.191l8.6-4.4-4.772-17.821-9.939.5a58.514,58.514,0,0,0-4.2-7.037l5.246-8.108-13.041-13.042-8.347,5.4a58.3,58.3,0,0,0-7.166-4.011l.489-9.625-17.815-4.771-4.536,8.865a59.961,59.961,0,0,0-8.192.11l-4.4-8.6-17.817,4.773.506,9.936a58.166,58.166,0,0,0-7.042,4.2l-8.1-5.245-13.044,13.039,5.4,8.346a57.953,57.953,0,0,0-4.016,7.169l-9.618-.488-4.778,17.813,8.868,4.535a59.357,59.357,0,0,0,.107,8.2l-8.591,4.4,4.769,17.813,9.937-.5a58.225,58.225,0,0,0,4.2,7.046l-5.24,8.1,13.037,13.045,8.342-5.4a58.954,58.954,0,0,0,7.172,4.013l-.487,9.618,17.809,4.776L2190.7,4425a60.143,60.143,0,0,0,8.2-.11l4.4,8.587,17.817-4.769-.5-9.935a58.433,58.433,0,0,0,7.042-4.2Zm-9.372-21.374a45.758,45.758,0,1,1-.005-64.708A45.76,45.76,0,0,1,2226.376,4398.445Z" transform="translate(-2126.234 -4298.307)" fill="#24292f"/>
              <g id="Group_457" data-name="Group 457" transform="translate(15.164 15.137)">
                <path id="Path_624" data-name="Path 624" d="M2202.573,4427.268a52.638,52.638,0,1,1,37.223-15.416A52.3,52.3,0,0,1,2202.573,4427.268Zm0-100.874a48.235,48.235,0,1,0,34.1,14.127A47.919,47.919,0,0,0,2202.569,4326.395Z" transform="translate(-2149.951 -4321.982)" fill="#373e48"/>
              </g>
            </g>
          </g>
        </g>
      </g>
    </g>
  </g>
</svg>
