<svg xmlns="http://www.w3.org/2000/svg" xmlns:xlink="http://www.w3.org/1999/xlink" width="200" height="200" viewBox="0 0 200 200">
  <defs>
    <clipPath id="clip-path">
      <path id="Path_533" data-name="Path 533" d="M220.885,154.492a17.523,17.523,0,0,1-5.717,13.425q-5.685,5.2-15.416,6.359v9.892H189.41V174.084a48.783,48.783,0,0,1-23.51-9.443l7.772-11.37c5.717,4.3,11.113,7,16.251,8.094V145.5c-7.451-1.991-12.847-4.625-16.316-7.837-3.4-3.212-5.139-7.708-5.139-13.425a17.47,17.47,0,0,1,5.653-13.425c3.79-3.469,8.864-5.588,15.224-6.231V98.8h10.342v5.974a42.372,42.372,0,0,1,18.564,7.387l-6.68,11.691a43.056,43.056,0,0,0-12.333-5.91v15.031c7.58,2.056,13.1,4.753,16.508,8.094C219.215,144.407,220.885,148.9,220.885,154.492Zm-30.961-24.024V117.043c-4.561.642-6.873,2.762-6.873,6.3a5.97,5.97,0,0,0,1.477,4.111A14.356,14.356,0,0,0,189.924,130.468Zm16.444,24.795a6.2,6.2,0,0,0-1.542-4.3c-1.028-1.156-2.891-2.184-5.524-3.212v13.939C203.991,161.044,206.368,158.86,206.368,155.263Z" transform="translate(-165.9 -98.8)"/>
    </clipPath>
    <clipPath id="clip-path-5">
      <path id="Path_548" data-name="Path 548" d="M218.885,152.492a17.523,17.523,0,0,1-5.717,13.425q-5.685,5.2-15.416,6.359v9.892H187.41V172.084a48.784,48.784,0,0,1-23.51-9.443l7.772-11.37c5.717,4.3,11.113,7,16.252,8.094V143.5c-7.451-1.991-12.847-4.625-16.316-7.837-3.4-3.212-5.139-7.708-5.139-13.425a17.47,17.47,0,0,1,5.653-13.425c3.79-3.469,8.864-5.588,15.224-6.231V96.8h10.342v5.974a42.373,42.373,0,0,1,18.564,7.387l-6.68,11.691a43.056,43.056,0,0,0-12.333-5.91v15.031c7.58,2.056,13.1,4.753,16.508,8.094C217.215,142.407,218.885,146.9,218.885,152.492Zm-30.961-24.024V115.043c-4.561.642-6.873,2.762-6.873,6.3a5.97,5.97,0,0,0,1.477,4.111A14.357,14.357,0,0,0,187.924,128.468Zm16.444,24.795a6.2,6.2,0,0,0-1.542-4.3c-1.028-1.156-2.891-2.184-5.524-3.212v13.939C201.991,159.044,204.368,156.86,204.368,153.263Z" transform="translate(-163.9 -96.8)"/>
    </clipPath>
    <clipPath id="clip-Financial">
      <rect width="200" height="200"/>
    </clipPath>
  </defs>
  <g id="Financial" clip-path="url(#clip-Financial)">
    <circle id="Blue_300_Bg" data-name="Blue 300 Bg" cx="100" cy="100" r="100" transform="translate(0 -0.1)" fill="#005cb7"/>
    <g id="Group_359" data-name="Group 359" transform="translate(50.648 26.643)">
      <g id="Group_360" data-name="Group 360" transform="translate(19.72 89.415)">
        <path id="Path_528" data-name="Path 528" d="M242.083,289.774,210.8,238h0v40.6h0Z" transform="translate(-179.582 -238)" fill="#0a698c"/>
        <path id="Path_529" data-name="Path 529" d="M162.2,289.774,193.418,278.6V238Z" transform="translate(-162.2 -238)" fill="#0a698c"/>
      </g>
      <g id="Group_371" data-name="Group 371">
        <g id="Group_367" data-name="Group 367" transform="translate(22.097)">
          <g id="Group_361" data-name="Group 361">
            <path id="Path_530" data-name="Path 530" d="M220.885,154.492a17.523,17.523,0,0,1-5.717,13.425q-5.685,5.2-15.416,6.359v9.892H189.41V174.084a48.783,48.783,0,0,1-23.51-9.443l7.772-11.37c5.717,4.3,11.113,7,16.251,8.094V145.5c-7.451-1.991-12.847-4.625-16.316-7.837-3.4-3.212-5.139-7.708-5.139-13.425a17.47,17.47,0,0,1,5.653-13.425c3.79-3.469,8.864-5.588,15.224-6.231V98.8h10.342v5.974a42.372,42.372,0,0,1,18.564,7.387l-6.68,11.691a43.056,43.056,0,0,0-12.333-5.91v15.031c7.58,2.056,13.1,4.753,16.508,8.094C219.215,144.407,220.885,148.9,220.885,154.492Zm-30.961-24.024V117.043c-4.561.642-6.873,2.762-6.873,6.3a5.97,5.97,0,0,0,1.477,4.111A14.356,14.356,0,0,0,189.924,130.468Zm16.444,24.795a6.2,6.2,0,0,0-1.542-4.3c-1.028-1.156-2.891-2.184-5.524-3.212v13.939C203.991,161.044,206.368,158.86,206.368,155.263Z" transform="translate(-165.9 -98.8)" fill="#0a698c"/>
          </g>
          <g id="Group_366" data-name="Group 366">
            <path id="Path_531" data-name="Path 531" d="M220.885,154.492a17.523,17.523,0,0,1-5.717,13.425q-5.685,5.2-15.416,6.359v9.892H189.41V174.084a48.783,48.783,0,0,1-23.51-9.443l7.772-11.37c5.717,4.3,11.113,7,16.251,8.094V145.5c-7.451-1.991-12.847-4.625-16.316-7.837-3.4-3.212-5.139-7.708-5.139-13.425a17.47,17.47,0,0,1,5.653-13.425c3.79-3.469,8.864-5.588,15.224-6.231V98.8h10.342v5.974a42.372,42.372,0,0,1,18.564,7.387l-6.68,11.691a43.056,43.056,0,0,0-12.333-5.91v15.031c7.58,2.056,13.1,4.753,16.508,8.094C219.215,144.407,220.885,148.9,220.885,154.492Zm-30.961-24.024V117.043c-4.561.642-6.873,2.762-6.873,6.3a5.97,5.97,0,0,0,1.477,4.111A14.356,14.356,0,0,0,189.924,130.468Zm16.444,24.795a6.2,6.2,0,0,0-1.542-4.3c-1.028-1.156-2.891-2.184-5.524-3.212v13.939C203.991,161.044,206.368,158.86,206.368,155.263Z" transform="translate(-165.9 -98.8)" fill="#0a698c"/>
            <g id="Group_362" data-name="Group 362" clip-path="url(#clip-path)">
              <path id="Path_532" data-name="Path 532" d="M194.385,94.05v9.057c0,2.441-3.533,3.019-5.332,3.34-4.689.9-9.378,2.12-12.783,5.717a15.617,15.617,0,0,0-3.983,12.719c.964,7.194,7.13,12.012,12.526,16.059a39.816,39.816,0,0,0,4.432,2.826c-3.276.514-6.359-.835-9.314-2.12-3.726-1.67-10.406-3.6-11.755-8.029-1.927-6.3-7.066-20.876,1.606-25.823a59.414,59.414,0,0,1,17.472-6.424l.9-7.772Z" transform="translate(-165.544 -96.94)" fill="#0a698c"/>
            </g>
            <g id="Group_363" data-name="Group 363" clip-path="url(#clip-path)">
              <path id="Path_534" data-name="Path 534" d="M201.985,127.2a26.845,26.845,0,0,1,12.4,1.477v3.854a33.694,33.694,0,0,0-12.783-2.056V127.9Z" transform="translate(-178.668 -108.889)" fill="#0a698c"/>
            </g>
            <g id="Group_364" data-name="Group 364" clip-path="url(#clip-path)">
              <path id="Path_536" data-name="Path 536" d="M169.7,186.47a12.807,12.807,0,0,0,2.055,1.413c1.863,1.156,3.79,2.248,5.717,3.212,5.974,2.955,12.783,5.332,19.527,5.2a19.108,19.108,0,0,0,4.625-.642,8.4,8.4,0,0,0,4.818-3.533,10.992,10.992,0,0,0,1.285-7.13,5.5,5.5,0,0,0-.321-1.477c-.514-1.413-3.34,7.451-3.34,7.451s-12.2,5.332-29.163-7.58l-4.432.193Z" transform="translate(-167.258 -129.044)" fill="#0a698c"/>
            </g>
            <g id="Group_365" data-name="Group 365" clip-path="url(#clip-path)">
              <path id="Path_538" data-name="Path 538" d="M201.284,215.9a40.739,40.739,0,0,0,10.342.193l3.019,1.22v2.441s-6.359,3.083-15.16-.193l-.385-2.12Z" transform="translate(-177.774 -140.681)" fill="#0a698c"/>
            </g>
          </g>
        </g>
        <g id="Group_370" data-name="Group 370" transform="translate(0 36.164)">
          <g id="Group_368" data-name="Group 368">
            <path id="Path_540" data-name="Path 540" d="M151.156,231.154a39.776,39.776,0,0,1-3.533-3.019,50.318,50.318,0,0,1-.835-73.035l4.047,4.175a44.5,44.5,0,0,0,.707,64.621,40.209,40.209,0,0,0,3.148,2.634Z" transform="translate(-131.5 -155.1)" fill="#0a698c"/>
          </g>
          <g id="Group_369" data-name="Group 369" transform="translate(78.688 0.064)">
            <path id="Path_541" data-name="Path 541" d="M257.533,231.19,254,226.63c1.092-.835,2.12-1.734,3.148-2.634a44.5,44.5,0,0,0,.707-64.621L261.9,155.2a50.318,50.318,0,0,1-.835,73.035C259.974,229.263,258.753,230.227,257.533,231.19Z" transform="translate(-254 -155.2)" fill="#0a698c"/>
          </g>
          <path id="Path_542" data-name="Path 542" d="M149.614,228.135a50.572,50.572,0,0,1-16.123-36.871,49.885,49.885,0,0,1,14.324-35.137l-.964-1.028a50.246,50.246,0,0,0,.771,73.035c1.156,1.028,2.312,2.056,3.533,3.019l.771-.964C151.156,229.484,150.385,228.842,149.614,228.135Z" transform="translate(-131.5 -155.1)" fill="#0a698c"/>
          <path id="Path_543" data-name="Path 543" d="M260.677,228.135A50.572,50.572,0,0,0,276.8,191.264a49.885,49.885,0,0,0-14.324-35.137l.964-1.028a50.318,50.318,0,0,1-.835,73.035c-1.156,1.028-2.312,2.056-3.533,3.019l-.771-.964C259.135,229.484,259.906,228.842,260.677,228.135Z" transform="translate(-176.85 -155.1)" fill="#0a698c"/>
        </g>
      </g>
    </g>
    <g id="Group_360-2" data-name="Group 360" transform="translate(49.364 25.359)">
      <g id="Group_374" data-name="Group 374" transform="translate(19.72 89.415)">
        <g id="Group_373" data-name="Group 373">
          <path id="Path_544" data-name="Path 544" d="M240.083,287.774,208.8,236h0v40.6h0Z" transform="translate(-177.582 -236)" fill="#5c97d1"/>
          <path id="Path_545" data-name="Path 545" d="M160.2,287.774,191.418,276.6V236Z" transform="translate(-160.2 -236)" fill="#b8d2eb"/>
        </g>
      </g>
      <g id="Group_385" data-name="Group 385">
        <g id="Group_381" data-name="Group 381" transform="translate(22.097)">
          <g id="Group_375" data-name="Group 375">
            <path id="Path_546" data-name="Path 546" d="M218.885,152.492a17.523,17.523,0,0,1-5.717,13.425q-5.685,5.2-15.416,6.359v9.892H187.41V172.084a48.784,48.784,0,0,1-23.51-9.443l7.772-11.37c5.717,4.3,11.113,7,16.252,8.094V143.5c-7.451-1.991-12.847-4.625-16.316-7.837-3.4-3.212-5.139-7.708-5.139-13.425a17.47,17.47,0,0,1,5.653-13.425c3.79-3.469,8.864-5.588,15.224-6.231V96.8h10.342v5.974a42.373,42.373,0,0,1,18.564,7.387l-6.68,11.691a43.056,43.056,0,0,0-12.333-5.91v15.031c7.58,2.056,13.1,4.753,16.508,8.094C217.215,142.407,218.885,146.9,218.885,152.492Zm-30.961-24.024V115.043c-4.561.642-6.873,2.762-6.873,6.3a5.97,5.97,0,0,0,1.477,4.111A14.357,14.357,0,0,0,187.924,128.468Zm16.444,24.795a6.2,6.2,0,0,0-1.542-4.3c-1.028-1.156-2.891-2.184-5.524-3.212v13.939C201.991,159.044,204.368,156.86,204.368,153.263Z" transform="translate(-163.9 -96.8)" fill="#fff"/>
          </g>
          <g id="Group_380" data-name="Group 380">
            <g id="Group_376" data-name="Group 376" clip-path="url(#clip-path-5)">
              <path id="Path_547" data-name="Path 547" d="M192.385,92.05v9.057c0,2.441-3.533,3.019-5.332,3.34-4.689.9-9.378,2.12-12.783,5.717a15.618,15.618,0,0,0-3.983,12.719c.964,7.194,7.13,12.012,12.526,16.059a39.825,39.825,0,0,0,4.432,2.826c-3.276.514-6.359-.835-9.314-2.12-3.726-1.67-10.406-3.6-11.755-8.029-1.927-6.3-7.066-20.876,1.606-25.823a59.415,59.415,0,0,1,17.472-6.424l.9-7.772Z" transform="translate(-163.544 -94.94)" fill="#e6e7e8"/>
            </g>
            <g id="Group_377" data-name="Group 377" clip-path="url(#clip-path-5)">
              <path id="Path_549" data-name="Path 549" d="M199.985,125.2a26.845,26.845,0,0,1,12.4,1.477v3.854a33.7,33.7,0,0,0-12.783-2.056V125.9Z" transform="translate(-176.668 -106.889)" fill="#e6e7e8"/>
            </g>
            <g id="Group_378" data-name="Group 378" clip-path="url(#clip-path-5)">
              <path id="Path_551" data-name="Path 551" d="M167.7,184.47a12.809,12.809,0,0,0,2.056,1.413c1.863,1.156,3.79,2.248,5.717,3.212,5.974,2.955,12.783,5.332,19.528,5.2a19.109,19.109,0,0,0,4.625-.642,8.4,8.4,0,0,0,4.818-3.533,10.993,10.993,0,0,0,1.285-7.13,5.5,5.5,0,0,0-.321-1.477c-.514-1.413-3.34,7.451-3.34,7.451s-12.2,5.331-29.163-7.58l-4.432.193Z" transform="translate(-165.258 -127.044)" fill="#e6e7e8"/>
            </g>
            <g id="Group_379" data-name="Group 379" clip-path="url(#clip-path-5)">
              <path id="Path_553" data-name="Path 553" d="M199.284,213.9a40.741,40.741,0,0,0,10.342.193l3.019,1.22v2.441s-6.359,3.083-15.159-.193l-.385-2.12Z" transform="translate(-175.774 -138.681)" fill="#e6e7e8"/>
            </g>
          </g>
        </g>
        <g id="Group_384" data-name="Group 384" transform="translate(0 36.164)">
          <g id="Group_382" data-name="Group 382">
            <path id="Path_555" data-name="Path 555" d="M149.156,229.154a39.773,39.773,0,0,1-3.533-3.019,50.318,50.318,0,0,1-.835-73.035l4.047,4.175a44.5,44.5,0,0,0,.707,64.621,40.193,40.193,0,0,0,3.148,2.634Z" transform="translate(-129.5 -153.1)" fill="#fff"/>
          </g>
          <g id="Group_383" data-name="Group 383" transform="translate(78.688 0.064)">
            <path id="Path_556" data-name="Path 556" d="M255.533,229.19,252,224.63c1.092-.835,2.12-1.734,3.148-2.634a44.5,44.5,0,0,0,.707-64.621L259.9,153.2a50.318,50.318,0,0,1-.835,73.035C257.974,227.2,256.753,228.227,255.533,229.19Z" transform="translate(-252 -153.2)" fill="#fff"/>
          </g>
          <path id="Path_557" data-name="Path 557" d="M147.614,226.135a50.572,50.572,0,0,1-16.123-36.871,49.885,49.885,0,0,1,14.324-35.137l-.964-1.028a50.246,50.246,0,0,0,.771,73.035c1.156,1.028,2.312,2.056,3.533,3.019l.771-.964C149.156,227.484,148.385,226.842,147.614,226.135Z" transform="translate(-129.5 -153.1)" fill="#e6e7e8"/>
          <path id="Path_558" data-name="Path 558" d="M258.677,226.135A50.572,50.572,0,0,0,274.8,189.264a49.885,49.885,0,0,0-14.324-35.137l.964-1.028a50.318,50.318,0,0,1-.835,73.035c-1.156,1.028-2.312,2.056-3.533,3.019l-.771-.964C257.135,227.484,257.906,226.842,258.677,226.135Z" transform="translate(-174.85 -153.1)" fill="#e6e7e8"/>
        </g>
      </g>
    </g>
  </g>
</svg>
