<svg xmlns="http://www.w3.org/2000/svg" xmlns:xlink="http://www.w3.org/1999/xlink" width="200" height="200" viewBox="0 0 200 200">
  <defs>
    <clipPath id="clip-HC_Community">
      <rect width="200" height="200"/>
    </clipPath>
  </defs>
  <g id="HC_Community" data-name="HC Community" clip-path="url(#clip-HC_Community)">
    <circle id="Ellipse_24" data-name="Ellipse 24" cx="100" cy="100" r="100" fill="#005cb7"/>
    <g id="Group_962" data-name="Group 962" transform="translate(-3 -4.456)">
      <path id="Path_857" data-name="Path 857" d="M49.463,160.325A35.983,35.983,0,0,1,37.8,151a43.179,43.179,0,0,1-7.887-13.754,49.57,49.57,0,0,1-2.994-16.871c0-35.518,29.651-54.847,26.413-90.8a19.639,19.639,0,0,0-1-5.891A12.419,12.419,0,0,0,49.56,18.91a35.984,35.984,0,0,1,11.661,9.324,43.179,43.179,0,0,1,7.887,13.754A52.7,52.7,0,0,1,72.1,58.859c0,30.747-28.093,53.289-28.093,86.251a26.267,26.267,0,0,0,1.436,8.447,33.762,33.762,0,0,0,4.017,6.768" transform="translate(53.944 14.546)" fill="#fff"/>
      <path id="Path_872" data-name="Path 872" d="M56.095,132.165a24.916,24.916,0,0,1-7.887-6.208,29.508,29.508,0,0,1-5.331-9.324,34.781,34.781,0,0,1-2-11.32c0-23.857,21.861-37.417,18.428-68.164,4.212,3.773,7.766,10.541,9.762,15.532a34.781,34.781,0,0,1,2,11.32c0,20.546-18.769,35.64-18.769,57.842a15.868,15.868,0,0,0,1,5.672,13.849,13.849,0,0,0,2.8,4.65" transform="translate(73.968 40.709)" fill="#fff"/>
      <path id="Path_873" data-name="Path 873" d="M33.565,115.515a24.915,24.915,0,0,1-7.887-6.208,29.508,29.508,0,0,1-5.331-9.324,34.78,34.78,0,0,1-2-11.32c0-23.857,21.861-37.417,18.428-68.164,4.211,3.773,7.766,10.541,9.762,15.532a34.78,34.78,0,0,1,2,11.32c0,20.546-18.769,35.64-18.769,57.842a15.867,15.867,0,0,0,1,5.672,13.848,13.848,0,0,0,2.8,4.65" transform="translate(41.65 16.827)" fill="#fff"/>
    </g>
  </g>
</svg>
