<svg xmlns="http://www.w3.org/2000/svg" xmlns:xlink="http://www.w3.org/1999/xlink" width="200" height="200" viewBox="0 0 200 200">
  <defs>
    <clipPath id="clip-Ignite">
      <rect width="200" height="200"/>
    </clipPath>
  </defs>
  <g id="Ignite" clip-path="url(#clip-Ignite)">
    <circle id="Blue_300_Bg" data-name="Blue 300 Bg" cx="100" cy="100" r="100" transform="translate(0 -0.1)" fill="#005cb7"/>
    <g id="Product_Icon_Ignite" data-name="Product Icon Ignite" transform="translate(0)">
      <g id="Group_1124" data-name="Group 1124" transform="translate(30.167 25.633)">
        <path id="Path_12748" data-name="Path 12748" d="M202.559,87.764l46.033,32.991v-.9l3.221,3.21.646.463v59.25a2.67,2.67,0,0,1-2.425,2.625l-.412.023h-.192l-.269-.045c-4.631.03-7.138-2.292-9.351-4.34-2.009-1.86-3.6-3.33-6.984-3.33s-4.975,1.469-6.984,3.33c-2.213,2.049-4.72,4.37-9.649,4.37s-7.436-2.322-9.649-4.37c-2.009-1.86-3.6-3.329-6.984-3.329s-4.975,1.469-6.984,3.33c-2.213,2.049-4.72,4.37-9.649,4.37s-7.426-2.32-9.632-4.366c-2.008-1.863-3.594-3.334-7-3.334-4.766,0-5.835,1.341-7.189,3.038a11.729,11.729,0,0,1-3.019,2.9c-1.706,1.068-2.1,1.278-2.736,1.278h-1.332l-.49-1.252c-.491-1.287.433-2.111,1.044-2.657l.054-.048V123.55Zm46.033,37.748L202.559,92.521l-46.067,33.014v52.289c1.55-1.89,3.727-3.982,9.8-3.982,4.925,0,7.426,2.32,9.632,4.366,2.008,1.863,3.594,3.334,7,3.334s5.006-1.474,7.022-3.341c2.207-2.043,4.708-4.359,9.611-4.359s7.4,2.316,9.611,4.359c2.016,1.867,3.609,3.341,7.022,3.341s5.006-1.474,7.022-3.341c2.207-2.043,4.708-4.359,9.611-4.359s7.4,2.316,9.611,4.359c1.837,1.7,3.323,3.077,6.155,3.307Z" transform="translate(-131.093 -84.143)" fill="#fff"/>
        <path id="Path_12749" data-name="Path 12749" d="M208.867,357.567c-4.906,0-7.415-2.318-9.629-4.363-2.018-1.864-3.611-3.337-7-3.337s-4.987,1.472-7,3.337c-2.213,2.045-4.722,4.363-9.629,4.363s-7.415-2.318-9.629-4.363c-2.018-1.864-3.611-3.337-7-3.337s-4.987,1.472-7,3.337c-2.213,2.045-4.722,4.363-9.629,4.363s-7.4-2.316-9.611-4.359c-2.016-1.867-3.609-3.341-7.022-3.341s-5.006,1.474-7.022,3.341c-2.207,2.043-4.708,4.359-9.611,4.359s-7.4-2.316-9.611-4.359c-2.016-1.867-3.609-3.341-7.022-3.341a1.933,1.933,0,1,1,0-3.867c4.928,0,7.436,2.322,9.649,4.37,2.009,1.86,3.6,3.329,6.984,3.329s4.975-1.469,6.984-3.329c2.213-2.049,4.72-4.37,9.649-4.37s7.436,2.322,9.649,4.37c2.009,1.86,3.6,3.329,6.984,3.329s4.987-1.472,7-3.337c2.213-2.045,4.722-4.363,9.629-4.363s7.415,2.318,9.629,4.363c2.018,1.864,3.611,3.337,7,3.337s4.987-1.472,7-3.337c2.213-2.045,4.722-4.363,9.629-4.363s7.415,2.318,9.629,4.363c2.018,1.864,3.611,3.337,7,3.337s4.987-1.472,7-3.337c2.213-2.045,4.722-4.363,9.629-4.363a1.933,1.933,0,1,1,0,3.867c-3.394,0-4.987,1.472-7,3.337C216.282,355.249,213.773,357.567,208.867,357.567Z" transform="translate(-90.5 -256.3)" fill="#fff"/>
        <path id="Path_12750" data-name="Path 12750" d="M208.867,405.967c-4.906,0-7.415-2.318-9.629-4.363-2.018-1.864-3.611-3.337-7-3.337s-4.987,1.472-7,3.337c-2.213,2.045-4.722,4.363-9.629,4.363s-7.415-2.318-9.629-4.363c-2.018-1.864-3.611-3.337-7-3.337s-4.987,1.472-7,3.337c-2.213,2.045-4.722,4.363-9.629,4.363s-7.4-2.316-9.611-4.359c-2.016-1.867-3.609-3.341-7.022-3.341s-5.006,1.474-7.022,3.341c-2.207,2.043-4.708,4.359-9.611,4.359s-7.4-2.316-9.611-4.359c-2.016-1.867-3.609-3.341-7.022-3.341a1.933,1.933,0,1,1,0-3.867c4.928,0,7.436,2.322,9.649,4.37,2.009,1.86,3.6,3.33,6.984,3.33s4.975-1.469,6.984-3.33c2.213-2.049,4.72-4.37,9.649-4.37s7.436,2.322,9.649,4.37c2.009,1.86,3.6,3.33,6.984,3.33s4.987-1.472,7-3.337c2.213-2.045,4.722-4.363,9.629-4.363s7.415,2.318,9.629,4.363c2.018,1.864,3.611,3.337,7,3.337s4.987-1.472,7-3.337c2.213-2.045,4.722-4.363,9.629-4.363s7.415,2.318,9.629,4.363c2.018,1.864,3.611,3.337,7,3.337s4.987-1.472,7-3.337c2.213-2.045,4.722-4.363,9.629-4.363a1.933,1.933,0,0,1,0,3.867c-3.394,0-4.987,1.472-7,3.337C216.282,403.649,213.773,405.967,208.867,405.967Z" transform="translate(-90.5 -288.567)" fill="#fff"/>
        <path id="Path_12751" data-name="Path 12751" d="M208.867,454.367c-4.906,0-7.415-2.318-9.629-4.363-2.018-1.864-3.611-3.337-7-3.337s-4.987,1.472-7,3.337c-2.213,2.045-4.722,4.363-9.629,4.363s-7.415-2.318-9.629-4.363c-2.018-1.864-3.611-3.337-7-3.337s-4.987,1.472-7,3.337c-2.213,2.045-4.722,4.363-9.629,4.363s-7.4-2.316-9.611-4.359c-2.016-1.867-3.609-3.341-7.022-3.341s-5.006,1.474-7.022,3.341c-2.207,2.043-4.708,4.359-9.611,4.359s-7.4-2.316-9.611-4.359c-2.016-1.867-3.609-3.341-7.022-3.341a1.933,1.933,0,0,1,0-3.867c4.928,0,7.436,2.322,9.649,4.37,2.009,1.86,3.6,3.33,6.984,3.33s4.975-1.469,6.984-3.33c2.213-2.049,4.72-4.37,9.649-4.37s7.436,2.322,9.649,4.37c2.009,1.86,3.6,3.33,6.984,3.33s4.987-1.472,7-3.337c2.213-2.045,4.722-4.363,9.629-4.363s7.415,2.318,9.629,4.363c2.018,1.864,3.611,3.337,7,3.337s4.987-1.472,7-3.337c2.213-2.045,4.722-4.363,9.629-4.363s7.415,2.318,9.629,4.363c2.018,1.864,3.611,3.337,7,3.337s4.987-1.472,7-3.337c2.213-2.045,4.722-4.363,9.629-4.363a1.933,1.933,0,0,1,0,3.867c-3.394,0-4.987,1.472-7,3.337C216.282,452.049,213.773,454.367,208.867,454.367Z" transform="translate(-90.5 -320.833)" fill="#fff"/>
        <path id="Path_12752" data-name="Path 12752" d="M246.033,118.133,188.8,76.9l-58.1,41.233v12.4L188.8,89.3l57.233,41.233Z" transform="translate(-117.3 -76.9)" fill="#fff"/>
      </g>
    </g>
  </g>
</svg>
