<svg xmlns="http://www.w3.org/2000/svg" xmlns:xlink="http://www.w3.org/1999/xlink" width="200" height="200" viewBox="0 0 200 200">
  <defs>
    <clipPath id="clip-Installer">
      <rect width="200" height="200"/>
    </clipPath>
  </defs>
  <g id="Installer" clip-path="url(#clip-Installer)">
    <circle id="Blue_300_Bg" data-name="Blue 300 Bg" cx="100" cy="100" r="100" transform="translate(0 -0.1)" fill="#005cb7"/>
    <g id="Group_465" data-name="Group 465" transform="translate(553.5 -340.605)">
      <g id="Group_463" data-name="Group 463" transform="translate(-514.5 383.605)">
        <path id="Path_625" data-name="Path 625" d="M-332.5,503.506h52.007l1.08-79.9H-332.5Z" transform="translate(398.004 -409.209)" fill="#5c97d1"/>
        <path id="Path_626" data-name="Path 626" d="M-514,383.605v94.3h65.324V398h-6.3l-7.2-14.4Z" transform="translate(514.18 -383.605)" fill="#5c97d1"/>
        <path id="Path_627" data-name="Path 627" d="M-492.185,468.105H-449v63.7h-65.5Z" transform="translate(514.5 -437.693)" fill="#b8d2eb"/>
        <path id="Path_628" data-name="Path 628" d="M-332.5,468.105h69.823l-16.916,63.7H-332.5Z" transform="translate(398.004 -437.693)" fill="#b8d2eb"/>
      </g>
      <g id="Group_464" data-name="Group 464" transform="translate(-475.45 445.33)">
        <path id="Path_629" data-name="Path 629" d="M-379.547,627.088-406,595.775h13.317v-40.67h13.137" transform="translate(406 -555.105)" fill="#fff"/>
        <path id="Path_630" data-name="Path 630" d="M-332.5,627.088l26.453-31.312h-13.317v-40.67H-332.5" transform="translate(358.953 -555.105)" fill="#fff"/>
      </g>
    </g>
  </g>
</svg>
