<svg xmlns="http://www.w3.org/2000/svg" xmlns:xlink="http://www.w3.org/1999/xlink" width="200" height="200" viewBox="0 0 200 200">
  <defs>
    <clipPath id="clip-Intraprise">
      <rect width="200" height="200"/>
    </clipPath>
  </defs>
  <g id="Intraprise" clip-path="url(#clip-Intraprise)">
    <path id="Path_12746" data-name="Path 12746" d="M200,100a104.15,104.15,0,0,1-.733,12.167,98.551,98.551,0,0,1-3.133,15.467A100.058,100.058,0,0,1,100,199.967c-45.633,0-7.233-.2-10.8-.567A99.79,99.79,0,0,1,0,100C0,52.267,44.767,0,100,0A99.994,99.994,0,0,1,200,100Z" fill="#005cb7"/>
    <g id="Group_1236" data-name="Group 1236" transform="translate(-60.074 -73.5)">
      <path id="Path_12829" data-name="Path 12829" d="M232.43,166.863l-66.06-66.145a7.43,7.43,0,0,0-2.446-1.649,7.681,7.681,0,0,0-5.8,0,7.149,7.149,0,0,0-2.446,1.649L89.59,166.863a7.569,7.569,0,0,0-2.19,5.375,7.742,7.742,0,0,0,2.19,5.375L122.548,210.6l5.517-5.687-32.7-32.788,65.576-65.974,65.889,65.832-32.873,32.873,5.6,5.631,32.873-32.9a7.57,7.57,0,0,0,2.19-5.375,7.742,7.742,0,0,0-2.19-5.375" transform="translate(0)" fill="#fff"/>
      <path id="Path_12830" data-name="Path 12830" d="M295.327,323.193l10.266-9.555a21.513,21.513,0,0,0,5-7.109,21.692,21.692,0,0,0-4.749-24.228l-5.431,5.432a14.924,14.924,0,0,1,3.213,4.749,14.678,14.678,0,0,1-3.157,16.039l-25.821,25a21.625,21.625,0,0,0-6.853,15.612,22.182,22.182,0,0,0,1.678,8.56,21.911,21.911,0,0,0,4.92,7.195l15.7,15.584,5.375-5.375-15.811-15.328a15.343,15.343,0,0,1-3.3-4.863,14.9,14.9,0,0,1-.028-11.489,15.145,15.145,0,0,1,3.242-4.891l10.835-11.062c2.019,1.991,7.962,7.962,10.436,10.436a13.658,13.658,0,0,1,3.526,6.768H286.938V351H304.6a15.091,15.091,0,0,1-3.981,8.759l-6.74,5.83,5.6,5.6,6.285-6.4a22.226,22.226,0,0,0,6.626-15.783c0-6.142-1.792-10.806-7.223-16.238l-9.868-9.64Zm-20.93-9.27a22.729,22.729,0,0,1-6.512-15.811,21.968,21.968,0,0,1,1.706-8.531,22.311,22.311,0,0,1,4.863-7.223l5.432,5.431a14.661,14.661,0,0,0-4.237,8.446h17.688v6.342H275.9a9.48,9.48,0,0,0,.967,3.612,9.685,9.685,0,0,0,2.275,2.957c3.014,3.014,7.195,7.365,7.195,7.365l-4.891,4.436-6.939-6.967" transform="translate(-129.099 -131.533)" fill="#fff"/>
      <path id="Path_12831" data-name="Path 12831" d="M331.767,219.312a9.475,9.475,0,0,0-5.887-8.73,9.534,9.534,0,0,0-5.488-.54,9.663,9.663,0,0,0-4.863,2.588,9.431,9.431,0,0,0-2.047,10.294,9.27,9.27,0,0,0,3.5,4.237,9.381,9.381,0,0,0,5.261,1.592,7.859,7.859,0,0,0,3.64-.711,8.955,8.955,0,0,0,3.071-2.047A9.232,9.232,0,0,0,331,222.923a9.331,9.331,0,0,0,.711-3.64Z" transform="translate(-161.273 -79.692)" fill="#fff"/>
    </g>
  </g>
</svg>
