<svg xmlns="http://www.w3.org/2000/svg" xmlns:xlink="http://www.w3.org/1999/xlink" width="200" height="200" viewBox="0 0 200 200">
  <defs>
    <clipPath id="clip-path">
      <circle id="Ellipse_60" data-name="Ellipse 60" cx="100" cy="100" r="100" fill="#00aeff"/>
    </clipPath>
    <clipPath id="clip-Leading_Wisely">
      <rect width="200" height="200"/>
    </clipPath>
  </defs>
  <g id="Leading_Wisely" data-name="Leading Wisely" clip-path="url(#clip-Leading_Wisely)">
    <circle id="Blue_300_Bg" data-name="Blue 300 Bg" cx="100" cy="100" r="100" transform="translate(0 -0.1)" fill="#005cb7"/>
    <g id="Mask_Group_5" data-name="Mask Group 5" clip-path="url(#clip-path)">
      <g id="Group_287" data-name="Group 287" transform="translate(-34.121 -33.121)">
        <path id="Path_343" data-name="Path 343" d="M209.835,159.892H168.193A1.3,1.3,0,0,1,166.9,158.6V123.293A1.3,1.3,0,0,1,168.193,122h41.642a1.3,1.3,0,0,1,1.293,1.293V158.6A1.3,1.3,0,0,1,209.835,159.892Z" transform="translate(-58.98 -43.113)" fill="#ebebeb"/>
        <g id="Group_282" data-name="Group 282" transform="translate(108.308 87.81)">
          <rect id="Rectangle_132" data-name="Rectangle 132" width="6.208" height="23.149" transform="translate(5.302)" fill="#5c97d1"/>
          <rect id="Rectangle_133" data-name="Rectangle 133" width="6.208" height="13.579" transform="translate(14.484 9.57)" fill="#5c97d1"/>
          <rect id="Rectangle_134" data-name="Rectangle 134" width="6.208" height="20.304" transform="translate(23.666 2.845)" fill="#5c97d1"/>
          <rect id="Rectangle_135" data-name="Rectangle 135" width="6.143" height="23.149" transform="translate(32.848)" fill="#5c97d1"/>
        </g>
        <path id="Path_350" data-name="Path 350" d="M209.189,233.692H168.84a1.905,1.905,0,0,1-1.94-1.94V197.74a1.905,1.905,0,0,1,1.94-1.94h40.349a1.905,1.905,0,0,1,1.94,1.94v34.012A1.945,1.945,0,0,1,209.189,233.692Z" transform="translate(-58.98 -69.193)" fill="#ebebeb"/>
        <g id="Group_285" data-name="Group 285" transform="translate(117.53 133.009)">
          <path id="Path_351" data-name="Path 351" d="M187.994,219.87a6.075,6.075,0,0,1,2.263-4.785l-4.009-4.785a17.571,17.571,0,0,0-1.552,1.552,12.519,12.519,0,0,0,1.552,17.653l4.009-4.785A6.63,6.63,0,0,1,187.994,219.87Z" transform="translate(-181.762 -207.326)" fill="#fff"/>
          <path id="Path_352" data-name="Path 352" d="M196.718,231.838a6.244,6.244,0,0,1-4.009-1.487l-4.009,4.785a12.433,12.433,0,0,0,16.1,0,11.969,11.969,0,0,0,4.268-7.436l-6.143-1.1A6.309,6.309,0,0,1,196.718,231.838Z" transform="translate(-184.214 -213.086)" fill="#c4c4c4"/>
          <path id="Path_353" data-name="Path 353" d="M207.581,211.972A12.527,12.527,0,0,0,188.7,208.61l4.009,4.785a6.238,6.238,0,0,1,10.281,4.785c0,.388-.065.711-.065,1.1l6.143,1.1A12.282,12.282,0,0,0,207.581,211.972Z" transform="translate(-184.214 -205.7)" fill="#5c97d1"/>
        </g>
        <path id="Path_354" data-name="Path 354" d="M290.835,159.892H249.193A1.3,1.3,0,0,1,247.9,158.6V123.293A1.3,1.3,0,0,1,249.193,122h41.642a1.3,1.3,0,0,1,1.293,1.293V158.6A1.3,1.3,0,0,1,290.835,159.892Z" transform="translate(-87.604 -43.113)" fill="#ebebeb"/>
        <path id="Path_356" data-name="Path 356" d="M290.189,233.692H249.84a1.905,1.905,0,0,1-1.94-1.94V197.74a1.905,1.905,0,0,1,1.94-1.94h40.349a1.905,1.905,0,0,1,1.94,1.94v34.012A1.945,1.945,0,0,1,290.189,233.692Z" transform="translate(-87.604 -69.193)" fill="#ebebeb"/>
        <path id="Path_359" data-name="Path 359" d="M136.669,196.6a.988.988,0,0,1,.647.259.926.926,0,0,1,.259.647l-.517,5.884a.966.966,0,0,1-.905.841h-5.173a.907.907,0,0,1-.905-.776l-.517-5.884a.973.973,0,0,1,.259-.711.83.83,0,0,1,.647-.259Zm-18.558-16.812a1.187,1.187,0,0,0,.776-.711,38.674,38.674,0,0,0,5.561,10.152c3.88,5.432,15.131,4.72,18.364,0a41.909,41.909,0,0,0,5.561-10.54c.194.647.517,1.1.97,1.164,1.035.194,2.263-1.94,2.716-4.72s.647-5.238-.453-5.367a3.1,3.1,0,0,0-1.487.323c.065-.582.97-3.556.97-4.4a56.822,56.822,0,0,0-1.164-9.7c-2.91-7.371-9.053-9.893-16.23-9.893-7.048,0-13.191,2.457-16.1,9.635a51.843,51.843,0,0,0-1.229,9.311c0,1.035.841,4.332.841,4.914a4.923,4.923,0,0,0-1.358-.194c-1.1.129-.905,2.522-.453,5.367C115.848,177.849,117.077,179.983,118.111,179.789Zm59.618,51.277a.871.871,0,0,1-.905.841H90.5a.966.966,0,0,1-.905-.841c0-.841-.517-20.11,6.531-26.576,4.591-4.138,14.1-7.565,19.786-9.57,1.164-.453,2.2-.776,2.974-1.1a.89.89,0,0,1,.711.065,1.032,1.032,0,0,1,.453.582l8.535,30.456,1.746-17.2a.907.907,0,0,1,.905-.776h4.785a.907.907,0,0,1,.905.776l1.875,17.329,8.471-30.585a1.032,1.032,0,0,1,.453-.582.916.916,0,0,1,.711-.065c.711.259,1.746.647,2.91,1.1,5.69,2,15.26,5.432,19.786,9.57C178.311,210.891,177.794,230.225,177.729,231.065Z" transform="translate(-31.659 -51.63)" fill="#fff"/>
        <path id="Path_360" data-name="Path 360" d="M274.126,232.376l-5.108-10.41-6.466,9.117-1.552-1.1,8.277-11.7,5.108,10.346,9.829-14.226,1.617,1.1Z" transform="translate(-92.234 -75.766)" fill="#5c97d1"/>
        <path id="Path_361" data-name="Path 361" d="M298.641,207.9a28.861,28.861,0,0,0-.905,9.311l-2.78-3.944-4.656-1.229A27.193,27.193,0,0,0,298.641,207.9Z" transform="translate(-102.588 -73.469)" fill="#5c97d1"/>
        <path id="Path_362" data-name="Path 362" d="M275.609,145.5l9.57-6.983a11.854,11.854,0,1,1-16.553-2.651,11.288,11.288,0,0,1,6.983-2.263v11.9Z" transform="translate(-93.199 -47.212)" fill="#5c97d1"/>
        <path id="Path_363" data-name="Path 363" d="M282.1,145.533V133.7a11.453,11.453,0,0,1,9.57,4.85Z" transform="translate(-99.69 -47.248)" fill="#c4c4c4"/>
      </g>
    </g>
  </g>
</svg>
