<svg xmlns="http://www.w3.org/2000/svg" xmlns:xlink="http://www.w3.org/1999/xlink" width="200" height="200" viewBox="0 0 200 200">
  <defs>
    <clipPath id="clip-path">
      <circle id="Ellipse_80" data-name="Ellipse 80" cx="100" cy="100" r="100" transform="translate(2152.543 3697.927)" fill="#00aeff"/>
    </clipPath>
    <clipPath id="clip-Ops_Console">
      <rect width="200" height="200"/>
    </clipPath>
  </defs>
  <g id="Ops_Console" data-name="Ops Console" clip-path="url(#clip-Ops_Console)">
    <circle id="Blue_300_Bg" data-name="Blue 300 Bg" cx="100" cy="100" r="100" transform="translate(0 -0.1)" fill="#005cb7"/>
    <g id="Group_450" data-name="Group 450" transform="translate(-2152.543 -3697.927)">
      <g id="Group_449" data-name="Group 449" transform="translate(2181.543 3725.927)">
        <circle id="Ellipse_68" data-name="Ellipse 68" cx="2.32" cy="2.32" r="2.32" transform="translate(69.165 51.639) rotate(-8.861)" fill="#fff"/>
        <circle id="Ellipse_69" data-name="Ellipse 69" cx="2.32" cy="2.32" r="2.32" transform="translate(68.823 36.679) rotate(-69.238)" fill="#fff"/>
        <circle id="Ellipse_70" data-name="Ellipse 70" cx="2.32" cy="2.32" r="2.32" transform="translate(69.495 14.772)" fill="#fff"/>
        <circle id="Ellipse_71" data-name="Ellipse 71" cx="2.32" cy="2.32" r="2.32" transform="translate(68.825 127.887) rotate(-69.336)" fill="#fff"/>
        <circle id="Ellipse_72" data-name="Ellipse 72" cx="2.32" cy="2.32" r="2.32" transform="translate(68.823 109.642) rotate(-69.238)" fill="#fff"/>
        <circle id="Ellipse_73" data-name="Ellipse 73" cx="2.32" cy="2.32" r="2.32" transform="translate(69.495 87.735)" fill="#fff"/>
        <circle id="Ellipse_74" data-name="Ellipse 74" cx="2.32" cy="2.32" r="2.32" transform="translate(50.783 70.089) rotate(-13.283)" fill="#fff"/>
        <circle id="Ellipse_75" data-name="Ellipse 75" cx="2.32" cy="2.32" r="2.32" transform="translate(32.543 70.089) rotate(-13.283)" fill="#fff"/>
        <circle id="Ellipse_76" data-name="Ellipse 76" cx="2.32" cy="2.32" r="2.32" transform="translate(14.773 69.494)" fill="#fff"/>
        <circle id="Ellipse_77" data-name="Ellipse 77" cx="2.32" cy="2.32" r="2.32" transform="translate(123.746 70.089) rotate(-13.283)" fill="#fff"/>
        <circle id="Ellipse_78" data-name="Ellipse 78" cx="2.32" cy="2.32" r="2.32" transform="translate(105.976 69.494)" fill="#fff"/>
        <circle id="Ellipse_79" data-name="Ellipse 79" cx="2.32" cy="2.32" r="2.32" transform="translate(86.775 71.814) rotate(-45)" fill="#fff"/>
        <path id="Path_611" data-name="Path 611" d="M2285.064,3790.424a2.319,2.319,0,0,1,1.6.7,29.878,29.878,0,1,1-49.987,13.4,2.32,2.32,0,0,1,4.509,1.095c-.009.035-.018.07-.028.1a25.238,25.238,0,1,0,42.224-11.315,2.32,2.32,0,0,1,1.685-3.984Z" transform="translate(-2193.719 -3740.44)" fill="#b8d2eb"/>
        <path id="Path_612" data-name="Path 612" d="M2271.412,3806.161a9.635,9.635,0,1,1-9.635,9.635A9.67,9.67,0,0,1,2271.412,3806.161Zm0,4.639a5,5,0,1,0,5,5A4.961,4.961,0,0,0,2271.412,3810.8Z" transform="translate(-2199.598 -3743.982)" fill="#b8d2eb"/>
        <path id="Path_613" data-name="Path 613" d="M2304.158,3746.939a71.845,71.845,0,1,1-101.6,0A71.917,71.917,0,0,1,2304.158,3746.939Zm-6.56,6.56a62.563,62.563,0,1,0-.007,88.476,62.5,62.5,0,0,0,.007-88.476Z" transform="translate(-2181.542 -3725.927)" fill="#fff"/>
        <path id="Path_614" data-name="Path 614" d="M2316.163,3765.332h0a3.479,3.479,0,0,0-4.92,0l-31.983,31.983a3.479,3.479,0,0,0,0,4.92h0a3.48,3.48,0,0,0,4.92,0l31.983-31.983A3.479,3.479,0,0,0,2316.163,3765.332Z" transform="translate(-2203.302 -3734.565)" fill="#b8d2eb"/>
        <path id="Path_615" data-name="Path 615" d="M2292.65,3773.825a2.318,2.318,0,0,1,1.586.707,48.068,48.068,0,0,1,9.424,54.645,13.129,13.129,0,0,0-3.715-3.036,43.418,43.418,0,0,0-8.979-48.33,2.32,2.32,0,0,1,1.685-3.987Zm-76.391,20.522a2.318,2.318,0,0,1,2.047,2.927,43.444,43.444,0,0,0,65.437,47.8,11.3,11.3,0,0,0,2.238,2.41,10.608,10.608,0,0,0,1.124.888,48.055,48.055,0,0,1-73.283-52.29,2.321,2.321,0,0,1,2.437-1.731Z" transform="translate(-2188.436 -3736.705)" fill="#b8d2eb"/>
        <path id="Path_616" data-name="Path 616" d="M2305.943,3853.359a9.278,9.278,0,0,0,18.556.076v-.076a9.278,9.278,0,1,0-18.556-.076Z" transform="translate(-2209.536 -3752.506)" fill="#b8d2eb"/>
      </g>
    </g>
  </g>
</svg>
