<svg xmlns="http://www.w3.org/2000/svg" xmlns:xlink="http://www.w3.org/1999/xlink" width="200" height="200" viewBox="0 0 200 200">
  <defs>
    <clipPath id="clip-path">
      <circle id="Ellipse_27" data-name="Ellipse 27" cx="100" cy="100" r="100" transform="translate(2)"/>
    </clipPath>
    <clipPath id="clip-Partner_Products">
      <rect width="200" height="200"/>
    </clipPath>
  </defs>
  <g id="Partner_Products" data-name="Partner Products" clip-path="url(#clip-Partner_Products)">
    <circle id="Blue_300_Bg" data-name="Blue 300 Bg" cx="100" cy="100" r="100" transform="translate(0 -0.1)" fill="#005cb7"/>
    <g id="noun_partnership_2301093" data-name="noun partnership 2301093" transform="translate(-1089.484 456.598)">
      <path id="Path_12323" data-name="Path 12323" d="M1178.126-318.42c1.06-1.589,2.649-4.238,5.828-2.649,3.179,2.119.53,7.417-1.06,8.477a3.539,3.539,0,0,1-5-.167,3.467,3.467,0,0,1-.3-.363C1176.007-314.711,1176.536-316.83,1178.126-318.42Z" fill="#d3d5d6" fill-rule="evenodd"/>
      <path id="Path_12324" data-name="Path 12324" d="M1120.908-401.6l18.013,7.417v4.238l12.715,4.768c2.119,1.06,2.119,2.649,1.06,4.768L1139.984-346.5c-1.06,2.119-1.589,3.179-5.3,1.589l-12.717-4.239-17.483-9.007Z" fill="#b8d2eb" fill-rule="evenodd"/>
      <path id="Path_12325" data-name="Path 12325" d="M1230.046-382l23.838-11.123,18.543,48.212-19.6,7.947c-5.3,2.649-11.656,3.709-17.483,1.06,0-.53,1.06-1.589.53-4.238-1.59-10.068-6.89-29.14-12.19-34.438l6.887-2.649Z" fill="#b8d2eb" fill-rule="evenodd"/>
      <path id="Path_12326" data-name="Path 12326" d="M1156.4-380.406l-12.185,32.318a52.718,52.718,0,0,0,5.828,5.3c10.6-7.947,14.834,1.06,14.3,4.768,4.768-1.06,8.477,2.119,8.477,5.828,5.828-2.119,10.6,2.119,10.066,7.417,4.768.53,6.887,4.768,5.828,9.536,5.828,3.179,8.477,2.649,9.007-.53,7.417,2.119,11.126,0,10.066-4.238,6.358,2.649,12.715,0,9.536-5.3,5.828.53,9.536-1.06,10.066-5.3l-.53.53-15.894-14.3c-7.947-3.709-16.424-9.536-18.543-18.543h-4.764c-8.477,19.6-28.079,8.477-16.424-3.179,1.589-1.589-2.649-10.6,6.358-13.775h0C1171.238-380.406,1163.292-380.406,1156.4-380.406Z" fill="#fff" fill-rule="evenodd"/>
      <path id="Path_12327" data-name="Path 12327" d="M1173.358-363.452c1.589-1.06,1.589-3.179,1.589-9.536a8.173,8.173,0,0,1,3.709-3.709l14.3-4.768a12.887,12.887,0,0,1,6.358,0c5.828,2.649,11.126,5.3,17.483,6.887,2.649.53,4.238,1.589,5.828,4.768,4.238,8.477,7.947,18.013,9.536,27.02,1.06,5.828,0,4.768-5.3,8.477a107.842,107.842,0,0,1-13.775-13.245c-10.589-4.24-16.947-11.126-18-18.54h-9.541a20.158,20.158,0,0,1-7.417,10.066c-2.119,1.06-5.3,1.06-6.358-1.06a4.436,4.436,0,0,1,1.239-6.15c.114-.075.231-.146.351-.211Z" fill="#d3d5d6" fill-rule="evenodd"/>
      <path id="Path_12328" data-name="Path 12328" d="M1151.636-339.612c2.119-1.589,5.3-4.768,8.477-1.589s-1.06,6.887-2.649,8.477c-2.119,1.06-4.768,1.06-6.358-1.06A4.82,4.82,0,0,1,1151.636-339.612Z" fill="#d3d5d6" fill-rule="evenodd"/>
      <path id="Path_12329" data-name="Path 12329" d="M1159.583-331.665c2.119-1.589,6.358-5.3,9.007-2.119,2.649,2.649-1.06,7.947-3.179,9.536-1.589,1.589-4.768,1.06-6.358-1.06a4.824,4.824,0,0,1,.531-6.357Z" fill="#d3d5d6" fill-rule="evenodd"/>
      <path id="Path_12330" data-name="Path 12330" d="M1169.119-324.778c2.119-1.589,5.828-6.887,9.007-3.709,3.709,3.179-1.589,8.477-3.709,10.066-1.589,1.589-4.238,1.06-5.828-.53-1.059-2.118-1.059-4.237.53-5.826Z" fill="#d3d5d6" fill-rule="evenodd"/>
      <path id="Path_12331" data-name="Path 12331" d="M1143.881-356.892l-3.9,10.394c-1.06,2.119-1.589,3.179-5.3,1.589l-12.717-4.239-17.483-9.007,5.151-13.624Z" fill="#5c97d1" fill-rule="evenodd"/>
      <path id="Path_12332" data-name="Path 12332" d="M1267.048-358.895l5.379,13.986-19.6,7.947c-5.3,2.649-11.656,3.709-17.483,1.06,0-.53,1.06-1.589.53-4.238-.339-2.144-.846-4.7-1.551-7.721Z" fill="#5c97d1" fill-rule="evenodd"/>
      <path id="Path_12333" data-name="Path 12333" d="M1147.385-356.485l-3.166,8.4a52.718,52.718,0,0,0,5.828,5.3c10.6-7.947,14.834,1.06,14.3,4.768,4.768-1.06,8.477,2.119,8.477,5.828,5.828-2.119,10.6,2.119,10.066,7.417,4.768.53,6.887,4.768,5.828,9.536,5.828,3.179,8.477,2.649,9.007-.53,7.417,2.119,11.126,0,10.066-4.238,6.358,2.649,12.715,0,9.536-5.3,5.828.53,9.536-1.06,10.066-5.3l-.53.53-4.909-4.416s-11.139,6-31.37,1.061C1172.874-338.409,1147.385-356.485,1147.385-356.485Z" fill="#e6e6e6" fill-rule="evenodd"/>
    </g>
  </g>
</svg>
