<svg xmlns="http://www.w3.org/2000/svg" xmlns:xlink="http://www.w3.org/1999/xlink" width="200" height="200" viewBox="0 0 200 200">
  <defs>
    <clipPath id="clip-path">
      <path id="Path_496" data-name="Path 496" d="M78,71.9V211.418H240.051V71.9ZM184.161,199.352a39.35,39.35,0,0,1-39.33-39.33c0-21.705,17.625-37.556,39.33-37.556s39.33,18.985,39.33,37.556A39.388,39.388,0,0,1,184.161,199.352Z" transform="translate(-78 -71.9)"/>
    </clipPath>
    <clipPath id="clip-path-2">
      <path id="Path_436" data-name="Path 436" d="M119.939,112.441a2.721,2.721,0,1,0-2.721-2.721A2.677,2.677,0,0,0,119.939,112.441Zm7.57,11.3-2.129-7.452a4.09,4.09,0,0,0-3.489-3.016h-3.9a4.1,4.1,0,0,0-3.371,2.661h0l-2.247,7.807a1.141,1.141,0,0,0,2.188.651l2.129-7.452h.651l-3.194,11.592a.747.747,0,0,0,.769,1.005H117.1v9.522a1.242,1.242,0,1,0,2.484,0v-9.581h.71V139a1.242,1.242,0,0,0,2.484,0v-9.522h2.188a.773.773,0,0,0,.769-1.005l-3.194-11.592h.651l2.129,7.452a1.158,1.158,0,0,0,1.419.769A1.071,1.071,0,0,0,127.509,123.737Z" transform="translate(-112.322 -107)"/>
    </clipPath>
    <clipPath id="clip-path-3">
      <path id="Path_438" data-name="Path 438" d="M153.634,116.64a3.9,3.9,0,0,0-3.489-3.43h-5.855a3.956,3.956,0,0,0-3.489,3.43h0V117h0v7.984a1.124,1.124,0,0,0,2.247,0v-7.393h.591v21.35a1.484,1.484,0,0,0,2.957,0V126.4h.887v12.538a1.484,1.484,0,0,0,2.957,0v-21.35h.887v7.393a1.124,1.124,0,1,0,2.247,0l.059-8.339Zm-6.387-4.2a2.721,2.721,0,1,0-2.721-2.721A2.642,2.642,0,0,0,147.247,112.441Z" transform="translate(-140.8 -107)"/>
    </clipPath>
    <clipPath id="clip-path-4">
      <path id="Path_442" data-name="Path 442" d="M173.139,112.441a2.721,2.721,0,1,0-2.721-2.721A2.677,2.677,0,0,0,173.139,112.441Zm7.57,11.3-2.129-7.452a4.09,4.09,0,0,0-3.489-3.016h-3.9a4.1,4.1,0,0,0-3.371,2.661h0l-2.247,7.807a1.141,1.141,0,1,0,2.188.651l2.129-7.452h.651l-3.194,11.592a.747.747,0,0,0,.769,1.005H170.3v9.522a1.242,1.242,0,1,0,2.484,0v-9.581h.71V139a1.242,1.242,0,0,0,2.484,0v-9.522h2.188a.773.773,0,0,0,.769-1.005l-3.194-11.592h.651l2.129,7.452a1.158,1.158,0,0,0,1.419.769A1.071,1.071,0,0,0,180.709,123.737Z" transform="translate(-165.522 -107)"/>
    </clipPath>
    <clipPath id="clip-path-5">
      <path id="Path_444" data-name="Path 444" d="M206.834,116.64a3.9,3.9,0,0,0-3.489-3.43h-5.855A3.956,3.956,0,0,0,194,116.64h0V117h0v7.984a1.124,1.124,0,1,0,2.247,0v-7.393h.591v21.35a1.484,1.484,0,0,0,2.957,0V126.4h.887v12.538a1.484,1.484,0,0,0,2.957,0v-21.35h.887v7.393a1.124,1.124,0,1,0,2.247,0l.059-8.339Zm-6.387-4.2a2.721,2.721,0,1,0-2.721-2.721A2.642,2.642,0,0,0,200.447,112.441Z" transform="translate(-194 -107)"/>
    </clipPath>
    <clipPath id="clip-path-6">
      <path id="Path_448" data-name="Path 448" d="M146.179,172.241a2.721,2.721,0,1,0-2.721-2.721A2.713,2.713,0,0,0,146.179,172.241Zm7.629,11.3-2.129-7.452a4.09,4.09,0,0,0-3.489-3.016h-3.9a4.1,4.1,0,0,0-3.371,2.661h0l-2.247,7.807a1.141,1.141,0,0,0,2.188.651l2.129-7.452h.651l-3.194,11.592a.747.747,0,0,0,.769,1.005H143.4v9.522a1.242,1.242,0,1,0,2.484,0v-9.522h.71v9.522a1.242,1.242,0,1,0,2.484,0v-9.522h2.188a.773.773,0,0,0,.769-1.005l-3.194-11.592h.651l2.129,7.452a1.141,1.141,0,0,0,2.188-.651Z" transform="translate(-138.622 -166.8)"/>
    </clipPath>
    <clipPath id="clip-path-7">
      <path id="Path_450" data-name="Path 450" d="M126.434,176.44a3.9,3.9,0,0,0-3.489-3.43h-5.855a3.956,3.956,0,0,0-3.489,3.43h0v.355h0v7.984a1.124,1.124,0,0,0,2.247,0v-7.393h.591v21.35a1.484,1.484,0,0,0,2.957,0V186.2h.887v12.538a1.484,1.484,0,0,0,2.957,0v-21.35h.887v7.393a1.124,1.124,0,0,0,2.247,0l.059-8.339Zm-6.387-4.2a2.721,2.721,0,1,0-2.721-2.721A2.713,2.713,0,0,0,120.047,172.241Z" transform="translate(-113.6 -166.8)"/>
    </clipPath>
    <clipPath id="clip-path-8">
      <path id="Path_454" data-name="Path 454" d="M199.979,172.241a2.721,2.721,0,1,0-2.721-2.721A2.713,2.713,0,0,0,199.979,172.241Zm7.629,11.3-2.129-7.452a4.09,4.09,0,0,0-3.489-3.016h-3.9a4.1,4.1,0,0,0-3.371,2.661h0l-2.247,7.807a1.141,1.141,0,0,0,2.188.651l2.129-7.452h.651l-3.194,11.592a.747.747,0,0,0,.769,1.005H197.2v9.522a1.242,1.242,0,1,0,2.484,0v-9.522h.71v9.522a1.242,1.242,0,1,0,2.484,0v-9.522h2.188a.773.773,0,0,0,.769-1.005l-3.194-11.592h.651l2.129,7.452a1.141,1.141,0,1,0,2.188-.651Z" transform="translate(-192.423 -166.8)"/>
    </clipPath>
    <clipPath id="clip-path-9">
      <path id="Path_456" data-name="Path 456" d="M180.234,176.44a3.9,3.9,0,0,0-3.489-3.43h-5.855a3.956,3.956,0,0,0-3.489,3.43h0v.355h0v7.984a1.124,1.124,0,0,0,2.247,0v-7.393h.591v21.35a1.484,1.484,0,0,0,2.957,0V186.2h.887v12.538a1.484,1.484,0,0,0,2.957,0v-21.35h.887v7.393a1.124,1.124,0,0,0,2.247,0l.059-8.339Zm-6.387-4.2a2.721,2.721,0,1,0-2.721-2.721A2.713,2.713,0,0,0,173.847,172.241Z" transform="translate(-167.4 -166.8)"/>
    </clipPath>
    <clipPath id="clip-path-10">
      <path id="Path_460" data-name="Path 460" d="M228.979,112.441a2.721,2.721,0,1,0-2.721-2.721A2.713,2.713,0,0,0,228.979,112.441Zm7.629,11.3-2.129-7.452a4.09,4.09,0,0,0-3.489-3.016h-3.9a4.1,4.1,0,0,0-3.371,2.661h0l-2.247,7.807a1.141,1.141,0,1,0,2.188.651l2.129-7.452h.651l-3.194,11.592a.747.747,0,0,0,.769,1.005H226.2v9.522a1.242,1.242,0,1,0,2.484,0v-9.581h.71V139a1.242,1.242,0,0,0,2.484,0v-9.522h2.188a.773.773,0,0,0,.769-1.005l-3.194-11.592h.651l2.129,7.452a1.159,1.159,0,0,0,1.419.769A1.071,1.071,0,0,0,236.609,123.737Z" transform="translate(-221.423 -107)"/>
    </clipPath>
    <clipPath id="clip-path-11">
      <path id="Path_462" data-name="Path 462" d="M262.634,116.64a3.9,3.9,0,0,0-3.489-3.43h-5.855a3.956,3.956,0,0,0-3.489,3.43h0V117h0v7.984a1.124,1.124,0,0,0,2.247,0v-7.393h.591v21.35a1.484,1.484,0,0,0,2.957,0V126.4h.887v12.538a1.484,1.484,0,0,0,2.957,0v-21.35h.887v7.393a1.124,1.124,0,0,0,2.247,0l.059-8.339Zm-6.387-4.2a2.721,2.721,0,1,0-2.721-2.721A2.677,2.677,0,0,0,256.247,112.441Z" transform="translate(-249.8 -107)"/>
    </clipPath>
    <clipPath id="clip-path-12">
      <path id="Path_465" data-name="Path 465" d="M282.179,112.441a2.721,2.721,0,1,0-2.721-2.721A2.713,2.713,0,0,0,282.179,112.441Zm7.629,11.3-2.129-7.452a4.09,4.09,0,0,0-3.489-3.016h-3.9a4.1,4.1,0,0,0-3.371,2.661h0l-2.247,7.807a1.141,1.141,0,1,0,2.188.651l2.129-7.452h.651l-3.194,11.592a.747.747,0,0,0,.769,1.005H279.4v9.522a1.242,1.242,0,1,0,2.484,0v-9.581h.71V139a1.242,1.242,0,0,0,2.484,0v-9.522h2.188a.773.773,0,0,0,.769-1.005l-3.194-11.592h.651l2.129,7.452a1.159,1.159,0,0,0,1.419.769A1.071,1.071,0,0,0,289.809,123.737Z" transform="translate(-274.622 -107)"/>
    </clipPath>
    <clipPath id="clip-path-13">
      <path id="Path_469" data-name="Path 469" d="M255.239,172.241a2.721,2.721,0,1,0-2.721-2.721A2.677,2.677,0,0,0,255.239,172.241Zm7.57,11.3-2.129-7.452a4.09,4.09,0,0,0-3.489-3.016h-3.9a4.1,4.1,0,0,0-3.371,2.661h0l-2.247,7.807a1.141,1.141,0,0,0,2.188.651l2.129-7.452h.651l-3.194,11.592a.747.747,0,0,0,.769,1.005H252.4v9.522a1.242,1.242,0,1,0,2.484,0v-9.522h.71v9.522a1.242,1.242,0,1,0,2.484,0v-9.522h2.188a.773.773,0,0,0,.769-1.005l-3.194-11.592h.651l2.129,7.452a1.141,1.141,0,0,0,2.188-.651Z" transform="translate(-247.622 -166.8)"/>
    </clipPath>
    <clipPath id="clip-path-14">
      <path id="Path_471" data-name="Path 471" d="M235.534,176.44a3.9,3.9,0,0,0-3.489-3.43h-5.855a3.956,3.956,0,0,0-3.489,3.43h0v.355h0v7.984a1.124,1.124,0,1,0,2.247,0v-7.393h.591v21.35a1.484,1.484,0,0,0,2.957,0V186.2h.887v12.538a1.484,1.484,0,0,0,2.957,0v-21.35h.887v7.393a1.124,1.124,0,0,0,2.247,0l.059-8.339Zm-6.387-4.2a2.721,2.721,0,1,0-2.721-2.721A2.642,2.642,0,0,0,229.147,172.241Z" transform="translate(-222.7 -166.8)"/>
    </clipPath>
    <clipPath id="clip-path-15">
      <path id="Path_474" data-name="Path 474" d="M289.334,176.44a3.9,3.9,0,0,0-3.489-3.43H279.99a3.956,3.956,0,0,0-3.489,3.43h0v.355h0v7.984a1.124,1.124,0,0,0,2.247,0v-7.393h.591v21.35a1.484,1.484,0,0,0,2.957,0V186.2h.887v12.538a1.484,1.484,0,0,0,2.957,0v-21.35h.887v7.393a1.124,1.124,0,0,0,2.247,0l.059-8.339Zm-6.387-4.2a2.721,2.721,0,1,0-2.721-2.721A2.642,2.642,0,0,0,282.947,172.241Z" transform="translate(-276.5 -166.8)"/>
    </clipPath>
    <clipPath id="clip-path-16">
      <path id="Path_478" data-name="Path 478" d="M119.939,232.141a2.721,2.721,0,1,0-2.721-2.721A2.677,2.677,0,0,0,119.939,232.141Zm7.57,11.3-2.129-7.452a4.09,4.09,0,0,0-3.489-3.016h-3.9a4.1,4.1,0,0,0-3.371,2.661h0l-2.247,7.807a1.141,1.141,0,0,0,2.188.651l2.129-7.452h.651l-3.194,11.592a.747.747,0,0,0,.769,1.005H117.1v9.522a1.242,1.242,0,0,0,2.484,0v-9.522h.71v9.522a1.242,1.242,0,1,0,2.484,0v-9.522h2.188a.773.773,0,0,0,.769-1.005l-3.194-11.592h.651l2.129,7.452a1.141,1.141,0,0,0,2.188-.651Z" transform="translate(-112.322 -226.7)"/>
    </clipPath>
    <clipPath id="clip-path-17">
      <path id="Path_480" data-name="Path 480" d="M153.634,236.34a3.9,3.9,0,0,0-3.489-3.43h-5.855a3.956,3.956,0,0,0-3.489,3.43h0v.355h0v7.984a1.124,1.124,0,0,0,2.247,0v-7.393h.591v21.351a1.484,1.484,0,0,0,2.957,0V246.1h.887v12.538a1.484,1.484,0,0,0,2.957,0V237.287h.887v7.393a1.124,1.124,0,1,0,2.247,0l.059-8.339Zm-6.387-4.2a2.721,2.721,0,1,0-2.721-2.721A2.642,2.642,0,0,0,147.247,232.141Z" transform="translate(-140.8 -226.7)"/>
    </clipPath>
    <clipPath id="clip-path-18">
      <path id="Path_484" data-name="Path 484" d="M173.139,232.141a2.721,2.721,0,1,0-2.721-2.721A2.677,2.677,0,0,0,173.139,232.141Zm7.57,11.3-2.129-7.452a4.09,4.09,0,0,0-3.489-3.016h-3.9a4.1,4.1,0,0,0-3.371,2.661h0l-2.247,7.807a1.141,1.141,0,1,0,2.188.651l2.129-7.452h.651l-3.194,11.592a.747.747,0,0,0,.769,1.005H170.3v9.522a1.242,1.242,0,1,0,2.484,0v-9.522h.71v9.522a1.242,1.242,0,0,0,2.484,0v-9.522h2.188a.773.773,0,0,0,.769-1.005l-3.194-11.592h.651l2.129,7.452a1.141,1.141,0,0,0,2.188-.651Z" transform="translate(-165.522 -226.7)"/>
    </clipPath>
    <clipPath id="clip-path-19">
      <path id="Path_486" data-name="Path 486" d="M206.834,236.34a3.9,3.9,0,0,0-3.489-3.43h-5.855A3.956,3.956,0,0,0,194,236.34h0v.355h0v7.984a1.124,1.124,0,1,0,2.247,0v-7.393h.591v21.351a1.484,1.484,0,0,0,2.957,0V246.1h.887v12.538a1.484,1.484,0,0,0,2.957,0V237.287h.887v7.393a1.124,1.124,0,1,0,2.247,0l.059-8.339Zm-6.387-4.2a2.721,2.721,0,1,0-2.721-2.721A2.642,2.642,0,0,0,200.447,232.141Z" transform="translate(-194 -226.7)"/>
    </clipPath>
    <clipPath id="clip-path-20">
      <path id="Path_490" data-name="Path 490" d="M228.979,232.141a2.721,2.721,0,1,0-2.721-2.721A2.713,2.713,0,0,0,228.979,232.141Zm7.629,11.3-2.129-7.452a4.09,4.09,0,0,0-3.489-3.016h-3.9a4.1,4.1,0,0,0-3.371,2.661h0l-2.247,7.807a1.141,1.141,0,1,0,2.188.651l2.129-7.452h.651l-3.194,11.592a.747.747,0,0,0,.769,1.005H226.2v9.522a1.242,1.242,0,1,0,2.484,0v-9.522h.71v9.522a1.242,1.242,0,1,0,2.484,0v-9.522h2.188a.773.773,0,0,0,.769-1.005l-3.194-11.592h.651l2.129,7.452a1.141,1.141,0,0,0,2.188-.651Z" transform="translate(-221.423 -226.7)"/>
    </clipPath>
    <clipPath id="clip-Population_Builder">
      <rect width="200" height="200"/>
    </clipPath>
  </defs>
  <g id="Population_Builder" data-name="Population Builder" clip-path="url(#clip-Population_Builder)">
    <circle id="Blue_300_Bg" data-name="Blue 300 Bg" cx="100" cy="100" r="100" transform="translate(0 -0.1)" fill="#005cb7"/>
    <g id="Group_334" data-name="Group 334" transform="translate(21.459 19.461)">
      <g id="Group_333" data-name="Group 333" clip-path="url(#clip-path)">
        <g id="Group_317" data-name="Group 317" transform="translate(20.299 20.759)">
          <path id="Path_433" data-name="Path 433" d="M119.939,112.441a2.721,2.721,0,1,0-2.721-2.721A2.677,2.677,0,0,0,119.939,112.441Zm7.57,11.3-2.129-7.452a4.09,4.09,0,0,0-3.489-3.016h-3.9a4.1,4.1,0,0,0-3.371,2.661h0l-2.247,7.807a1.141,1.141,0,0,0,2.188.651l2.129-7.452h.651l-3.194,11.592a.747.747,0,0,0,.769,1.005H117.1v9.522a1.242,1.242,0,1,0,2.484,0v-9.581h.71V139a1.242,1.242,0,0,0,2.484,0v-9.522h2.188a.773.773,0,0,0,.769-1.005l-3.194-11.592h.651l2.129,7.452a1.158,1.158,0,0,0,1.419.769A1.071,1.071,0,0,0,127.509,123.737Z" transform="translate(-112.322 -107)" fill="#fff"/>
          <path id="Path_434" data-name="Path 434" d="M153.634,116.64a3.9,3.9,0,0,0-3.489-3.43h-5.855a3.956,3.956,0,0,0-3.489,3.43h0V117h0v7.984a1.124,1.124,0,0,0,2.247,0v-7.393h.591v21.35a1.484,1.484,0,0,0,2.957,0V126.4h.887v12.538a1.484,1.484,0,0,0,2.957,0v-21.35h.887v7.393a1.124,1.124,0,1,0,2.247,0l.059-8.339Zm-6.387-4.2a2.721,2.721,0,1,0-2.721-2.721A2.642,2.642,0,0,0,147.247,112.441Z" transform="translate(-123.958 -107)" fill="#fff"/>
          <g id="Group_289" data-name="Group 289">
            <g id="Group_288" data-name="Group 288" clip-path="url(#clip-path-2)">
              <path id="Path_435" data-name="Path 435" d="M119.342,106.3a7.731,7.731,0,0,0-1.6,2.366,3.112,3.112,0,0,0,1.6,3.785,2.954,2.954,0,0,0-1.479,3.075c.118,1.952.177,6.742.118,9.049s.118,14.431.059,16.028-3.253,1.36-3.785-3.135-2.011-8.871-2.721-9.64c-.651-.769-1.005-1.774-.237-5.8s.828-6.861,1.952-8.162,2.366-2.129,2.247-4.258C115.32,107.481,117.213,106.239,119.342,106.3Z" transform="translate(-111.726 -106.713)" fill="#e6e7e8"/>
            </g>
          </g>
          <g id="Group_291" data-name="Group 291" transform="translate(16.842)">
            <g id="Group_290" data-name="Group 290" clip-path="url(#clip-path-3)">
              <path id="Path_437" data-name="Path 437" d="M146.242,106.3a7.731,7.731,0,0,0-1.6,2.366,3.112,3.112,0,0,0,1.6,3.785,2.954,2.954,0,0,0-1.479,3.075c.118,1.952.177,6.742.118,9.049-.118,2.307.118,14.431.059,16.028s-3.253,1.36-3.785-3.135-2.011-8.871-2.721-9.64c-.651-.769-1.005-1.774-.237-5.8s.828-6.861,1.952-8.162,2.366-2.129,2.247-4.258C142.22,107.481,144.113,106.239,146.242,106.3Z" transform="translate(-139.559 -106.713)" fill="#e6e7e8"/>
            </g>
          </g>
          <g id="Group_296" data-name="Group 296" transform="translate(31.464)">
            <path id="Path_439" data-name="Path 439" d="M173.139,112.441a2.721,2.721,0,1,0-2.721-2.721A2.677,2.677,0,0,0,173.139,112.441Zm7.57,11.3-2.129-7.452a4.09,4.09,0,0,0-3.489-3.016h-3.9a4.1,4.1,0,0,0-3.371,2.661h0l-2.247,7.807a1.141,1.141,0,1,0,2.188.651l2.129-7.452h.651l-3.194,11.592a.747.747,0,0,0,.769,1.005H170.3v9.522a1.242,1.242,0,1,0,2.484,0v-9.581h.71V139a1.242,1.242,0,0,0,2.484,0v-9.522h2.188a.773.773,0,0,0,.769-1.005l-3.194-11.592h.651l2.129,7.452a1.158,1.158,0,0,0,1.419.769A1.071,1.071,0,0,0,180.709,123.737Z" transform="translate(-165.522 -107)" fill="#fff"/>
            <path id="Path_440" data-name="Path 440" d="M206.834,116.64a3.9,3.9,0,0,0-3.489-3.43h-5.855A3.956,3.956,0,0,0,194,116.64h0V117h0v7.984a1.124,1.124,0,1,0,2.247,0v-7.393h.591v21.35a1.484,1.484,0,0,0,2.957,0V126.4h.887v12.538a1.484,1.484,0,0,0,2.957,0v-21.35h.887v7.393a1.124,1.124,0,1,0,2.247,0l.059-8.339Zm-6.387-4.2a2.721,2.721,0,1,0-2.721-2.721A2.642,2.642,0,0,0,200.447,112.441Z" transform="translate(-177.158 -107)" fill="#fff"/>
            <g id="Group_293" data-name="Group 293">
              <g id="Group_292" data-name="Group 292" clip-path="url(#clip-path-4)">
                <path id="Path_441" data-name="Path 441" d="M172.542,106.3a7.731,7.731,0,0,0-1.6,2.366,3.112,3.112,0,0,0,1.6,3.785,2.954,2.954,0,0,0-1.479,3.075c.118,1.952.177,6.742.118,9.049-.118,2.307.118,14.431.059,16.028-.118,1.6-3.253,1.36-3.785-3.135s-2.011-8.871-2.721-9.64c-.651-.769-1.005-1.774-.237-5.8s.828-6.861,1.952-8.162,2.366-2.129,2.247-4.258C168.52,107.481,170.413,106.239,172.542,106.3Z" transform="translate(-164.926 -106.713)" fill="#e6e7e8"/>
              </g>
            </g>
            <g id="Group_295" data-name="Group 295" transform="translate(16.842)">
              <g id="Group_294" data-name="Group 294" clip-path="url(#clip-path-5)">
                <path id="Path_443" data-name="Path 443" d="M199.442,106.3a7.731,7.731,0,0,0-1.6,2.366,3.112,3.112,0,0,0,1.6,3.785,2.954,2.954,0,0,0-1.479,3.075c.118,1.952.177,6.742.118,9.049-.118,2.307.118,14.431.059,16.028-.118,1.6-3.253,1.36-3.785-3.135s-2.011-8.871-2.721-9.64c-.651-.769-1.005-1.774-.237-5.8s.828-6.861,1.952-8.162,2.366-2.129,2.247-4.258C195.42,107.481,197.313,106.239,199.442,106.3Z" transform="translate(-192.759 -106.713)" fill="#e6e7e8"/>
              </g>
            </g>
          </g>
          <path id="Path_445" data-name="Path 445" d="M146.179,172.241a2.721,2.721,0,1,0-2.721-2.721A2.713,2.713,0,0,0,146.179,172.241Zm7.629,11.3-2.129-7.452a4.09,4.09,0,0,0-3.489-3.016h-3.9a4.1,4.1,0,0,0-3.371,2.661h0l-2.247,7.807a1.141,1.141,0,0,0,2.188.651l2.129-7.452h.651l-3.194,11.592a.747.747,0,0,0,.769,1.005H143.4v9.522a1.242,1.242,0,1,0,2.484,0v-9.522h.71v9.522a1.242,1.242,0,1,0,2.484,0v-9.522h2.188a.773.773,0,0,0,.769-1.005l-3.194-11.592h.651l2.129,7.452a1.141,1.141,0,0,0,2.188-.651Z" transform="translate(-123.068 -131.433)" fill="#fff"/>
          <path id="Path_446" data-name="Path 446" d="M126.434,176.44a3.9,3.9,0,0,0-3.489-3.43h-5.855a3.956,3.956,0,0,0-3.489,3.43h0v.355h0v7.984a1.124,1.124,0,0,0,2.247,0v-7.393h.591v21.35a1.484,1.484,0,0,0,2.957,0V186.2h.887v12.538a1.484,1.484,0,0,0,2.957,0v-21.35h.887v7.393a1.124,1.124,0,0,0,2.247,0l.059-8.339Zm-6.387-4.2a2.721,2.721,0,1,0-2.721-2.721A2.713,2.713,0,0,0,120.047,172.241Z" transform="translate(-112.844 -131.433)" fill="#fff"/>
          <g id="Group_298" data-name="Group 298" transform="translate(15.555 35.367)">
            <g id="Group_297" data-name="Group 297" clip-path="url(#clip-path-6)">
              <path id="Path_447" data-name="Path 447" d="M145.542,166.1a7.731,7.731,0,0,0-1.6,2.366,3.051,3.051,0,0,0,1.6,3.785,2.954,2.954,0,0,0-1.479,3.075c.118,1.952.177,6.742.118,9.049-.118,2.307.118,14.431.059,16.028s-3.253,1.36-3.785-3.135-2.011-8.871-2.721-9.64c-.651-.769-1.005-1.774-.237-5.8s.828-6.861,1.952-8.162,2.366-2.129,2.247-4.258S143.413,166.039,145.542,166.1Z" transform="translate(-137.985 -166.513)" fill="#e6e7e8"/>
            </g>
          </g>
          <g id="Group_300" data-name="Group 300" transform="translate(0.756 35.367)">
            <g id="Group_299" data-name="Group 299" clip-path="url(#clip-path-7)">
              <path id="Path_449" data-name="Path 449" d="M119.142,166.1a7.731,7.731,0,0,0-1.6,2.366,3.051,3.051,0,0,0,1.6,3.785,2.954,2.954,0,0,0-1.479,3.075c.118,1.952.177,6.742.118,9.049-.118,2.307.118,14.431.059,16.028-.118,1.6-3.253,1.36-3.785-3.135s-2.011-8.871-2.721-9.64c-.651-.769-1.005-1.774-.237-5.8s.828-6.861,1.952-8.162,2.366-2.129,2.247-4.258C115.12,167.281,117.013,166.039,119.142,166.1Z" transform="translate(-112.4 -166.513)" fill="#e6e7e8"/>
            </g>
          </g>
          <path id="Path_451" data-name="Path 451" d="M199.979,172.241a2.721,2.721,0,1,0-2.721-2.721A2.713,2.713,0,0,0,199.979,172.241Zm7.629,11.3-2.129-7.452a4.09,4.09,0,0,0-3.489-3.016h-3.9a4.1,4.1,0,0,0-3.371,2.661h0l-2.247,7.807a1.141,1.141,0,0,0,2.188.651l2.129-7.452h.651l-3.194,11.592a.747.747,0,0,0,.769,1.005H197.2v9.522a1.242,1.242,0,1,0,2.484,0v-9.522h.71v9.522a1.242,1.242,0,1,0,2.484,0v-9.522h2.188a.773.773,0,0,0,.769-1.005l-3.194-11.592h.651l2.129,7.452a1.141,1.141,0,1,0,2.188-.651Z" transform="translate(-145.049 -131.433)" fill="#fff"/>
          <path id="Path_452" data-name="Path 452" d="M180.234,176.44a3.9,3.9,0,0,0-3.489-3.43h-5.855a3.956,3.956,0,0,0-3.489,3.43h0v.355h0v7.984a1.124,1.124,0,0,0,2.247,0v-7.393h.591v21.35a1.484,1.484,0,0,0,2.957,0V186.2h.887v12.538a1.484,1.484,0,0,0,2.957,0v-21.35h.887v7.393a1.124,1.124,0,0,0,2.247,0l.059-8.339Zm-6.387-4.2a2.721,2.721,0,1,0-2.721-2.721A2.713,2.713,0,0,0,173.847,172.241Z" transform="translate(-134.826 -131.433)" fill="#fff"/>
          <g id="Group_302" data-name="Group 302" transform="translate(47.373 35.367)">
            <g id="Group_301" data-name="Group 301" clip-path="url(#clip-path-8)">
              <path id="Path_453" data-name="Path 453" d="M199.342,166.1a7.731,7.731,0,0,0-1.6,2.366,3.051,3.051,0,0,0,1.6,3.785,2.954,2.954,0,0,0-1.479,3.075c.118,1.952.177,6.742.118,9.049-.118,2.307.118,14.431.059,16.028-.118,1.6-3.253,1.36-3.785-3.135s-2.011-8.871-2.721-9.64c-.651-.769-1.005-1.774-.237-5.8s.828-6.861,1.952-8.162,2.366-2.129,2.247-4.258C195.32,167.281,197.213,166.039,199.342,166.1Z" transform="translate(-191.785 -166.513)" fill="#e6e7e8"/>
            </g>
          </g>
          <g id="Group_304" data-name="Group 304" transform="translate(32.574 35.367)">
            <g id="Group_303" data-name="Group 303" clip-path="url(#clip-path-9)">
              <path id="Path_455" data-name="Path 455" d="M172.942,166.1a7.731,7.731,0,0,0-1.6,2.366,3.112,3.112,0,0,0,1.6,3.785,2.954,2.954,0,0,0-1.479,3.075c.118,1.952.177,6.742.118,9.049-.118,2.307.118,14.431.059,16.028-.118,1.6-3.253,1.36-3.785-3.135s-2.011-8.871-2.721-9.64c-.651-.769-1.005-1.774-.237-5.8s.828-6.861,1.952-8.162,2.366-2.129,2.247-4.258C168.92,167.281,170.813,166.039,172.942,166.1Z" transform="translate(-166.2 -166.513)" fill="#e6e7e8"/>
            </g>
          </g>
          <path id="Path_457" data-name="Path 457" d="M228.979,112.441a2.721,2.721,0,1,0-2.721-2.721A2.713,2.713,0,0,0,228.979,112.441Zm7.629,11.3-2.129-7.452a4.09,4.09,0,0,0-3.489-3.016h-3.9a4.1,4.1,0,0,0-3.371,2.661h0l-2.247,7.807a1.141,1.141,0,1,0,2.188.651l2.129-7.452h.651l-3.194,11.592a.747.747,0,0,0,.769,1.005H226.2v9.522a1.242,1.242,0,1,0,2.484,0v-9.581h.71V139a1.242,1.242,0,0,0,2.484,0v-9.522h2.188a.773.773,0,0,0,.769-1.005l-3.194-11.592h.651l2.129,7.452a1.159,1.159,0,0,0,1.419.769A1.071,1.071,0,0,0,236.609,123.737Z" transform="translate(-156.898 -107)" fill="#fff"/>
          <path id="Path_458" data-name="Path 458" d="M262.634,116.64a3.9,3.9,0,0,0-3.489-3.43h-5.855a3.956,3.956,0,0,0-3.489,3.43h0V117h0v7.984a1.124,1.124,0,0,0,2.247,0v-7.393h.591v21.35a1.484,1.484,0,0,0,2.957,0V126.4h.887v12.538a1.484,1.484,0,0,0,2.957,0v-21.35h.887v7.393a1.124,1.124,0,0,0,2.247,0l.059-8.339Zm-6.387-4.2a2.721,2.721,0,1,0-2.721-2.721A2.677,2.677,0,0,0,256.247,112.441Z" transform="translate(-168.492 -107)" fill="#fff"/>
          <g id="Group_306" data-name="Group 306" transform="translate(64.525)">
            <g id="Group_305" data-name="Group 305" clip-path="url(#clip-path-10)">
              <path id="Path_459" data-name="Path 459" d="M228.342,106.3a7.73,7.73,0,0,0-1.6,2.366,3.112,3.112,0,0,0,1.6,3.785,2.954,2.954,0,0,0-1.479,3.075c.118,1.952.177,6.742.118,9.049s.118,14.431.059,16.028c-.118,1.6-3.253,1.36-3.785-3.135s-2.011-8.871-2.721-9.64c-.651-.769-1.005-1.774-.237-5.8s.828-6.861,1.952-8.162,2.366-2.129,2.247-4.258C224.32,107.481,226.213,106.239,228.342,106.3Z" transform="translate(-220.785 -106.713)" fill="#e6e7e8"/>
            </g>
          </g>
          <g id="Group_308" data-name="Group 308" transform="translate(81.308)">
            <g id="Group_307" data-name="Group 307" clip-path="url(#clip-path-11)">
              <path id="Path_461" data-name="Path 461" d="M255.342,106.3a7.731,7.731,0,0,0-1.6,2.366,3.112,3.112,0,0,0,1.6,3.785,2.954,2.954,0,0,0-1.479,3.075c.118,1.952.177,6.742.118,9.049-.118,2.307.118,14.431.059,16.028-.118,1.6-3.253,1.36-3.785-3.135s-2.011-8.871-2.721-9.64c-.651-.769-1.005-1.774-.237-5.8s.828-6.861,1.952-8.162,2.366-2.129,2.247-4.258C251.32,107.481,253.213,106.239,255.342,106.3Z" transform="translate(-248.6 -106.713)" fill="#e6e7e8"/>
            </g>
          </g>
          <path id="Path_463" data-name="Path 463" d="M282.179,112.441a2.721,2.721,0,1,0-2.721-2.721A2.713,2.713,0,0,0,282.179,112.441Zm7.629,11.3-2.129-7.452a4.09,4.09,0,0,0-3.489-3.016h-3.9a4.1,4.1,0,0,0-3.371,2.661h0l-2.247,7.807a1.141,1.141,0,1,0,2.188.651l2.129-7.452h.651l-3.194,11.592a.747.747,0,0,0,.769,1.005H279.4v9.522a1.242,1.242,0,1,0,2.484,0v-9.581h.71V139a1.242,1.242,0,0,0,2.484,0v-9.522h2.188a.773.773,0,0,0,.769-1.005l-3.194-11.592h.651l2.129,7.452a1.159,1.159,0,0,0,1.419.769A1.071,1.071,0,0,0,289.809,123.737Z" transform="translate(-178.634 -107)" fill="#fff"/>
          <g id="Group_310" data-name="Group 310" transform="translate(95.989)">
            <g id="Group_309" data-name="Group 309" clip-path="url(#clip-path-12)">
              <path id="Path_464" data-name="Path 464" d="M281.542,106.3a7.73,7.73,0,0,0-1.6,2.366,3.112,3.112,0,0,0,1.6,3.785,2.954,2.954,0,0,0-1.479,3.075c.118,1.952.177,6.742.118,9.049s.118,14.431.059,16.028-3.253,1.36-3.785-3.135-2.011-8.871-2.72-9.64c-.651-.769-1.006-1.774-.237-5.8s.828-6.861,1.952-8.162,2.366-2.129,2.247-4.258C277.52,107.481,279.413,106.239,281.542,106.3Z" transform="translate(-273.985 -106.713)" fill="#e6e7e8"/>
            </g>
          </g>
          <path id="Path_466" data-name="Path 466" d="M255.239,172.241a2.721,2.721,0,1,0-2.721-2.721A2.677,2.677,0,0,0,255.239,172.241Zm7.57,11.3-2.129-7.452a4.09,4.09,0,0,0-3.489-3.016h-3.9a4.1,4.1,0,0,0-3.371,2.661h0l-2.247,7.807a1.141,1.141,0,0,0,2.188.651l2.129-7.452h.651l-3.194,11.592a.747.747,0,0,0,.769,1.005H252.4v9.522a1.242,1.242,0,1,0,2.484,0v-9.522h.71v9.522a1.242,1.242,0,1,0,2.484,0v-9.522h2.188a.773.773,0,0,0,.769-1.005l-3.194-11.592h.651l2.129,7.452a1.141,1.141,0,0,0,2.188-.651Z" transform="translate(-167.602 -131.433)" fill="#fff"/>
          <path id="Path_467" data-name="Path 467" d="M235.534,176.44a3.9,3.9,0,0,0-3.489-3.43h-5.855a3.956,3.956,0,0,0-3.489,3.43h0v.355h0v7.984a1.124,1.124,0,1,0,2.247,0v-7.393h.591v21.35a1.484,1.484,0,0,0,2.957,0V186.2h.887v12.538a1.484,1.484,0,0,0,2.957,0v-21.35h.887v7.393a1.124,1.124,0,0,0,2.247,0l.059-8.339Zm-6.387-4.2a2.721,2.721,0,1,0-2.721-2.721A2.642,2.642,0,0,0,229.147,172.241Z" transform="translate(-157.42 -131.433)" fill="#fff"/>
          <g id="Group_312" data-name="Group 312" transform="translate(80.02 35.367)">
            <g id="Group_311" data-name="Group 311" clip-path="url(#clip-path-13)">
              <path id="Path_468" data-name="Path 468" d="M254.642,166.1a7.731,7.731,0,0,0-1.6,2.366,3.112,3.112,0,0,0,1.6,3.785,2.954,2.954,0,0,0-1.479,3.075c.118,1.952.177,6.742.118,9.049-.118,2.307.118,14.431.059,16.028s-3.253,1.36-3.785-3.135-2.011-8.871-2.721-9.64c-.651-.769-1.005-1.774-.237-5.8s.828-6.861,1.952-8.162,2.366-2.129,2.247-4.258C250.62,167.281,252.513,166.039,254.642,166.1Z" transform="translate(-247.026 -166.513)" fill="#e6e7e8"/>
            </g>
          </g>
          <g id="Group_314" data-name="Group 314" transform="translate(65.28 35.367)">
            <g id="Group_313" data-name="Group 313" clip-path="url(#clip-path-14)">
              <path id="Path_470" data-name="Path 470" d="M228.142,166.1a7.731,7.731,0,0,0-1.6,2.366,3.051,3.051,0,0,0,1.6,3.785,2.954,2.954,0,0,0-1.479,3.075c.118,1.952.177,6.742.118,9.049-.118,2.307.118,14.431.059,16.028s-3.253,1.36-3.785-3.135-2.011-8.871-2.721-9.64c-.651-.769-1.005-1.774-.237-5.8s.828-6.861,1.952-8.162,2.366-2.129,2.247-4.258S226.013,166.039,228.142,166.1Z" transform="translate(-221.459 -166.513)" fill="#e6e7e8"/>
            </g>
          </g>
          <path id="Path_472" data-name="Path 472" d="M289.334,176.44a3.9,3.9,0,0,0-3.489-3.43H279.99a3.956,3.956,0,0,0-3.489,3.43h0v.355h0v7.984a1.124,1.124,0,0,0,2.247,0v-7.393h.591v21.35a1.484,1.484,0,0,0,2.957,0V186.2h.887v12.538a1.484,1.484,0,0,0,2.957,0v-21.35h.887v7.393a1.124,1.124,0,0,0,2.247,0l.059-8.339Zm-6.387-4.2a2.721,2.721,0,1,0-2.721-2.721A2.642,2.642,0,0,0,282.947,172.241Z" transform="translate(-179.401 -131.433)" fill="#fff"/>
          <g id="Group_316" data-name="Group 316" transform="translate(97.099 35.367)">
            <g id="Group_315" data-name="Group 315" clip-path="url(#clip-path-15)">
              <path id="Path_473" data-name="Path 473" d="M281.942,166.1a7.732,7.732,0,0,0-1.6,2.366,3.112,3.112,0,0,0,1.6,3.785,2.954,2.954,0,0,0-1.479,3.075c.118,1.952.177,6.742.118,9.049-.118,2.307.118,14.431.059,16.028-.118,1.6-3.253,1.36-3.785-3.135s-2.011-8.871-2.721-9.64c-.651-.769-1.005-1.774-.236-5.8s.828-6.861,1.952-8.162,2.366-2.129,2.247-4.258S279.813,166.039,281.942,166.1Z" transform="translate(-275.259 -166.513)" fill="#e6e7e8"/>
            </g>
          </g>
        </g>
        <path id="Path_475" data-name="Path 475" d="M119.939,232.141a2.721,2.721,0,1,0-2.721-2.721A2.677,2.677,0,0,0,119.939,232.141Zm7.57,11.3-2.129-7.452a4.09,4.09,0,0,0-3.489-3.016h-3.9a4.1,4.1,0,0,0-3.371,2.661h0l-2.247,7.807a1.141,1.141,0,0,0,2.188.651l2.129-7.452h.651l-3.194,11.592a.747.747,0,0,0,.769,1.005H117.1v9.522a1.242,1.242,0,0,0,2.484,0v-9.522h.71v9.522a1.242,1.242,0,1,0,2.484,0v-9.522h2.188a.773.773,0,0,0,.769-1.005l-3.194-11.592h.651l2.129,7.452a1.141,1.141,0,0,0,2.188-.651Z" transform="translate(-92.023 -135.147)" fill="#fff"/>
        <path id="Path_476" data-name="Path 476" d="M153.634,236.34a3.9,3.9,0,0,0-3.489-3.43h-5.855a3.956,3.956,0,0,0-3.489,3.43h0v.355h0v7.984a1.124,1.124,0,0,0,2.247,0v-7.393h.591v21.351a1.484,1.484,0,0,0,2.957,0V246.1h.887v12.538a1.484,1.484,0,0,0,2.957,0V237.287h.887v7.393a1.124,1.124,0,1,0,2.247,0l.059-8.339Zm-6.387-4.2a2.721,2.721,0,1,0-2.721-2.721A2.642,2.642,0,0,0,147.247,232.141Z" transform="translate(-103.658 -135.147)" fill="#fff"/>
        <g id="Group_319" data-name="Group 319" transform="translate(20.299 91.553)">
          <g id="Group_318" data-name="Group 318" clip-path="url(#clip-path-16)">
            <path id="Path_477" data-name="Path 477" d="M119.342,226a7.73,7.73,0,0,0-1.6,2.366,3.112,3.112,0,0,0,1.6,3.785,2.954,2.954,0,0,0-1.479,3.075c.118,1.952.177,6.742.118,9.049-.118,2.307.118,14.431.059,16.028-.118,1.6-3.253,1.36-3.785-3.134s-2.011-8.871-2.721-9.64c-.651-.769-1.005-1.774-.237-5.8s.828-6.861,1.952-8.162,2.366-2.129,2.247-4.258C115.32,227.181,117.213,225.939,119.342,226Z" transform="translate(-111.726 -226.413)" fill="#e6e7e8"/>
          </g>
        </g>
        <g id="Group_321" data-name="Group 321" transform="translate(37.142 91.553)">
          <g id="Group_320" data-name="Group 320" clip-path="url(#clip-path-17)">
            <path id="Path_479" data-name="Path 479" d="M146.23,226a7.731,7.731,0,0,0-1.6,2.366,3.112,3.112,0,0,0,1.6,3.785,2.954,2.954,0,0,0-1.479,3.075c.118,1.952.177,6.742.118,9.049-.118,2.307.118,14.431.059,16.028-.118,1.6-3.253,1.36-3.785-3.134s-2.011-8.871-2.721-9.64-1.005-1.774-.237-5.8.828-6.861,1.952-8.162,2.366-2.129,2.247-4.258C142.208,227.181,144.1,225.939,146.23,226Z" transform="translate(-139.547 -226.413)" fill="#e6e7e8"/>
          </g>
        </g>
        <g id="Group_326" data-name="Group 326" transform="translate(51.763 91.553)">
          <path id="Path_481" data-name="Path 481" d="M173.139,232.141a2.721,2.721,0,1,0-2.721-2.721A2.677,2.677,0,0,0,173.139,232.141Zm7.57,11.3-2.129-7.452a4.09,4.09,0,0,0-3.489-3.016h-3.9a4.1,4.1,0,0,0-3.371,2.661h0l-2.247,7.807a1.141,1.141,0,1,0,2.188.651l2.129-7.452h.651l-3.194,11.592a.747.747,0,0,0,.769,1.005H170.3v9.522a1.242,1.242,0,1,0,2.484,0v-9.522h.71v9.522a1.242,1.242,0,0,0,2.484,0v-9.522h2.188a.773.773,0,0,0,.769-1.005l-3.194-11.592h.651l2.129,7.452a1.141,1.141,0,0,0,2.188-.651Z" transform="translate(-165.522 -226.7)" fill="#fff"/>
          <path id="Path_482" data-name="Path 482" d="M206.834,236.34a3.9,3.9,0,0,0-3.489-3.43h-5.855A3.956,3.956,0,0,0,194,236.34h0v.355h0v7.984a1.124,1.124,0,1,0,2.247,0v-7.393h.591v21.351a1.484,1.484,0,0,0,2.957,0V246.1h.887v12.538a1.484,1.484,0,0,0,2.957,0V237.287h.887v7.393a1.124,1.124,0,1,0,2.247,0l.059-8.339Zm-6.387-4.2a2.721,2.721,0,1,0-2.721-2.721A2.642,2.642,0,0,0,200.447,232.141Z" transform="translate(-177.158 -226.7)" fill="#fff"/>
          <g id="Group_323" data-name="Group 323">
            <g id="Group_322" data-name="Group 322" clip-path="url(#clip-path-18)">
              <path id="Path_483" data-name="Path 483" d="M172.53,226a7.73,7.73,0,0,0-1.6,2.366,3.112,3.112,0,0,0,1.6,3.785,2.954,2.954,0,0,0-1.479,3.075c.118,1.952.177,6.742.118,9.049-.118,2.307.118,14.431.059,16.028-.118,1.6-3.253,1.36-3.785-3.134s-2.011-8.871-2.721-9.64-1.005-1.774-.237-5.8.828-6.861,1.952-8.162,2.366-2.129,2.247-4.258C168.508,227.181,170.4,225.939,172.53,226Z" transform="translate(-164.914 -226.413)" fill="#e6e7e8"/>
            </g>
          </g>
          <g id="Group_325" data-name="Group 325" transform="translate(16.842)">
            <g id="Group_324" data-name="Group 324" clip-path="url(#clip-path-19)">
              <path id="Path_485" data-name="Path 485" d="M199.43,226a7.73,7.73,0,0,0-1.6,2.366,3.112,3.112,0,0,0,1.6,3.785,2.954,2.954,0,0,0-1.479,3.075c.118,1.952.178,6.742.118,9.049-.118,2.307.118,14.431.059,16.028-.118,1.6-3.253,1.36-3.785-3.134s-2.011-8.871-2.721-9.64-1.005-1.774-.237-5.8.828-6.861,1.952-8.162,2.366-2.129,2.247-4.258C195.408,227.181,197.3,225.939,199.43,226Z" transform="translate(-192.747 -226.413)" fill="#e6e7e8"/>
            </g>
          </g>
        </g>
        <g id="Group_328" data-name="Group 328" transform="translate(84.824 91.553)">
          <g id="Group_327" data-name="Group 327" clip-path="url(#clip-path-20)">
            <path id="Path_489" data-name="Path 489" d="M228.33,226a7.73,7.73,0,0,0-1.6,2.366,3.112,3.112,0,0,0,1.6,3.785,2.954,2.954,0,0,0-1.479,3.075c.118,1.952.177,6.742.118,9.049-.118,2.307.118,14.431.059,16.028-.118,1.6-3.253,1.36-3.785-3.134s-2.011-8.871-2.721-9.64-1.005-1.774-.237-5.8.828-6.861,1.952-8.162,2.366-2.129,2.247-4.258C224.308,227.181,226.2,225.939,228.33,226Z" transform="translate(-220.773 -226.413)" fill="#e6e7e8"/>
          </g>
        </g>
      </g>
    </g>
    <g id="Group_339" data-name="Group 339" transform="translate(66.822 59.884)">
      <path id="Path_497" data-name="Path 497" d="M195.7,194.3a47.891,47.891,0,0,0,53.11-21.469c.414-.651.769-1.3,1.124-1.952A36.016,36.016,0,0,0,195.7,194.3Z" transform="translate(-171.451 -150.562)" fill="#fff" opacity="0.1"/>
      <g id="Group_338" data-name="Group 338" transform="translate(0 0)">
        <circle id="Ellipse_62" data-name="Ellipse 62" cx="36.018" cy="36.018" r="36.018" transform="translate(8.634 50.937) rotate(-45)" fill="#fff" opacity="0.1"/>
        <g id="Group_335" data-name="Group 335" transform="translate(0.532 10.377)">
          <path id="Path_498" data-name="Path 498" d="M244.61,169.981a41.724,41.724,0,0,0-48.793-7.452,40.318,40.318,0,0,0-10.054,7.452,41.554,41.554,0,0,0-1.419,57.309l-2.839,2.839-2.78-2.78-1.656,1.656.887.887L155.6,252.426l6.683,6.683,22.356-22.533.887.887,1.656-1.656-2.78-2.78,2.839-2.839a41.64,41.64,0,0,0,47.255,5.973,40.321,40.321,0,0,0,10.054-7.452A41.5,41.5,0,0,0,244.61,169.981Zm-54.884,3.963a36.007,36.007,0,1,1,0,50.922A35.981,35.981,0,0,1,189.725,173.944Z" transform="translate(-155.6 -157.794)" fill="#0a698c"/>
        </g>
        <g id="Group_337" data-name="Group 337" transform="translate(0 9.242)">
          <g id="Group_336" data-name="Group 336">
            <rect id="Rectangle_136" data-name="Rectangle 136" width="10.941" height="4.199" transform="translate(21.994 76.215) rotate(-45)" fill="#fff"/>
            <rect id="Rectangle_137" data-name="Rectangle 137" width="10.941" height="2.07" transform="translate(23.445 77.704) rotate(-45)" fill="#e6e7e8"/>
            <path id="Path_499" data-name="Path 499" d="M256.02,168.073a41.611,41.611,0,1,0,0,58.847A41.586,41.586,0,0,0,256.02,168.073Zm-54.884,54.884a36.007,36.007,0,1,1,50.922,0A35.981,35.981,0,0,1,201.136,222.958Z" transform="translate(-167.07 -155.875)" fill="#c2c1c0"/>
            <path id="Path_500" data-name="Path 500" d="M256.02,168.073a41.611,41.611,0,1,0,0,58.847A41.586,41.586,0,0,0,256.02,168.073Zm-.828,58.019a40.4,40.4,0,1,1,0-57.132A40.372,40.372,0,0,1,255.192,226.092Z" transform="translate(-167.07 -155.875)" fill="#e6e7e8"/>
            <path id="Path_501" data-name="Path 501" d="M161.383,306.545,154.7,299.8l23.125-23.3,6.742,6.683Z" transform="translate(-154.7 -205.159)" fill="#fff"/>
            <path id="Path_502" data-name="Path 502" d="M163.671,308.832l-3.371-3.371L183.484,282.1l3.371,3.371Z" transform="translate(-156.988 -207.447)" fill="#c2c1c0"/>
            <path id="Path_503" data-name="Path 503" d="M196.855,277.8l-4.258-4.2-1.6,1.656,8.457,8.457,1.656-1.656Z" transform="translate(-169.531 -203.974)" fill="#c2c1c0"/>
          </g>
        </g>
      </g>
    </g>
    <g id="Group_342" data-name="Group 342" transform="translate(114.787 82.034)">
      <path id="Path_504" data-name="Path 504" d="M257.919,194.437c-.059-2.839-3.194-5.914-6.033-5.914H241.833c-2.78,0-5.914,3.135-6.033,5.914h0v.651h0v13.721a1.952,1.952,0,1,0,3.9,0V196.093h1.005V232.88a2.614,2.614,0,0,0,5.2,0V211.234h1.538V232.88a2.614,2.614,0,0,0,5.2,0V196.034h1.479V208.75a1.952,1.952,0,0,0,3.9,0l-.118-14.313Zm-11.06-7.275a4.731,4.731,0,1,0-4.731-4.731A4.745,4.745,0,0,0,246.86,187.163Z" transform="translate(-235.8 -177.7)" fill="#b8d2eb"/>
      <path id="Path_506" data-name="Path 506" d="M257.919,194.437c-.059-2.839-3.194-5.914-6.033-5.914H241.833c-2.78,0-5.914,3.135-6.033,5.914h0v.651h0v13.721a1.952,1.952,0,1,0,3.9,0V196.093h1.005V232.88a2.614,2.614,0,0,0,5.2,0V211.234h1.538V232.88a2.614,2.614,0,0,0,5.2,0V196.034h1.479V208.75a1.952,1.952,0,0,0,3.9,0l-.118-14.313Zm-11.06-7.275a4.731,4.731,0,1,0-4.731-4.731A4.745,4.745,0,0,0,246.86,187.163Z" transform="translate(-235.8 -177.7)" fill="#b8d2eb"/>
    </g>
  </g>
</svg>
