<svg xmlns="http://www.w3.org/2000/svg" xmlns:xlink="http://www.w3.org/1999/xlink" width="200" height="200" viewBox="0 0 200 200">
  <defs>
    <clipPath id="clip-path">
      <path id="Path_12724" data-name="Path 12724" d="M161.946,157.771a3.664,3.664,0,0,0-3.051,2.419l-.008,0-2.013,7.022a1.027,1.027,0,1,0,1.974.566l1.92-6.694h.6l-2.9,10.449a.66.66,0,0,0,.669.881H161.1v8.557a1.141,1.141,0,0,0,2.283,0v-8.557h.645v8.557a1.141,1.141,0,0,0,2.283,0v-8.557h1.965a.66.66,0,0,0,.67-.881l-2.9-10.449h.59l1.919,6.694a1.027,1.027,0,0,0,1.975-.566l-1.928-6.724a3.66,3.66,0,0,0-3.135-2.714Zm-.706-3.151a2.462,2.462,0,1,0,2.463-2.462,2.462,2.462,0,0,0-2.463,2.462" transform="translate(-156.833 -152.158)" fill="none"/>
    </clipPath>
    <clipPath id="clip-path-2">
      <path id="Path_12726" data-name="Path 12726" d="M190.718,157.778a3.532,3.532,0,0,0-3.13,3.086h0v.333h0v7.162a1.006,1.006,0,1,0,2.013,0v-6.639h.521v19.192a1.348,1.348,0,0,0,2.685,0V169.636h.811v11.275a1.348,1.348,0,0,0,2.686,0V161.719h.779v6.639a1.007,1.007,0,1,0,2.013,0v-7.494h0a3.533,3.533,0,0,0-3.13-3.086Zm.16-3.158a2.461,2.461,0,1,0,2.462-2.462,2.462,2.462,0,0,0-2.462,2.462" transform="translate(-187.584 -152.158)" fill="none"/>
    </clipPath>
    <clipPath id="clip-path-3">
      <path id="Path_12730" data-name="Path 12730" d="M219.215,157.771a3.664,3.664,0,0,0-3.052,2.419l-.008,0-2.013,7.022a1.027,1.027,0,0,0,1.975.566l1.92-6.694h.6l-2.895,10.449a.66.66,0,0,0,.67.881h1.954v8.557a1.142,1.142,0,0,0,2.283,0v-8.557h.645v8.557a1.141,1.141,0,0,0,2.283,0v-8.557h1.965a.66.66,0,0,0,.67-.881l-2.9-10.449h.59l1.919,6.694a1.027,1.027,0,1,0,1.975-.566l-1.928-6.724a3.661,3.661,0,0,0-3.135-2.714Zm-.706-3.151a2.462,2.462,0,1,0,2.462-2.462,2.462,2.462,0,0,0-2.462,2.462" transform="translate(-214.102 -152.158)" fill="none"/>
    </clipPath>
    <clipPath id="clip-path-4">
      <path id="Path_12732" data-name="Path 12732" d="M247.987,157.778a3.533,3.533,0,0,0-3.13,3.086h0v.333h0v7.162a1.006,1.006,0,1,0,2.013,0v-6.639h.52v19.192a1.348,1.348,0,0,0,2.686,0V169.636h.811v11.275a1.348,1.348,0,0,0,2.686,0V161.719h.779v6.639a1.006,1.006,0,1,0,2.013,0v-7.494h0a3.532,3.532,0,0,0-3.13-3.086Zm.16-3.158a2.462,2.462,0,1,0,2.462-2.462,2.462,2.462,0,0,0-2.462,2.462" transform="translate(-244.853 -152.158)" fill="none"/>
    </clipPath>
    <clipPath id="clip-path-5">
      <path id="Path_12736" data-name="Path 12736" d="M190.208,222.161a3.663,3.663,0,0,0-3.052,2.419l-.008,0-2.013,7.022a1.027,1.027,0,1,0,1.975.566l1.92-6.694h.6l-2.895,10.449a.66.66,0,0,0,.67.881h1.954v8.556a1.141,1.141,0,1,0,2.283,0V236.8h.645v8.556a1.141,1.141,0,1,0,2.283,0V236.8h1.965a.66.66,0,0,0,.67-.881l-2.9-10.449h.59l1.919,6.694a1.027,1.027,0,1,0,1.975-.566l-1.928-6.725a3.661,3.661,0,0,0-3.135-2.713Zm-.706-3.152a2.462,2.462,0,1,0,2.462-2.462,2.462,2.462,0,0,0-2.462,2.462" transform="translate(-185.095 -216.548)" fill="none"/>
    </clipPath>
    <clipPath id="clip-path-6">
      <path id="Path_12738" data-name="Path 12738" d="M161.515,222.168a3.533,3.533,0,0,0-3.131,3.087h0v.332h0v7.162a1.006,1.006,0,1,0,2.012,0v-6.639h.521V245.3a1.348,1.348,0,0,0,2.686,0V234.026h.811V245.3a1.348,1.348,0,0,0,2.686,0V226.109h.778v6.639a1.007,1.007,0,1,0,2.013,0v-7.493h0a3.532,3.532,0,0,0-3.131-3.087Zm.16-3.158a2.461,2.461,0,1,0,2.462-2.462,2.462,2.462,0,0,0-2.462,2.462" transform="translate(-158.381 -216.548)" fill="none"/>
    </clipPath>
    <clipPath id="clip-path-7">
      <path id="Path_12742" data-name="Path 12742" d="M248.125,222.161a3.665,3.665,0,0,0-3.052,2.419l-.008,0-2.013,7.022a1.027,1.027,0,1,0,1.975.566l1.92-6.694h.6l-2.9,10.449a.66.66,0,0,0,.669.881h1.955v8.556a1.142,1.142,0,1,0,2.283,0V236.8h.645v8.556a1.141,1.141,0,1,0,2.283,0V236.8h1.965a.66.66,0,0,0,.669-.881l-2.9-10.449h.59l1.92,6.694a1.027,1.027,0,1,0,1.974-.566l-1.928-6.725a3.66,3.66,0,0,0-3.135-2.713Zm-.706-3.152a2.462,2.462,0,1,0,2.462-2.462,2.462,2.462,0,0,0-2.462,2.462" transform="translate(-243.012 -216.548)" fill="none"/>
    </clipPath>
    <clipPath id="clip-path-8">
      <path id="Path_12744" data-name="Path 12744" d="M219.431,222.168a3.532,3.532,0,0,0-3.13,3.087h0v.332h0v7.162a1.006,1.006,0,1,0,2.012,0v-6.639h.521V245.3a1.348,1.348,0,0,0,2.686,0V234.026h.811V245.3a1.348,1.348,0,0,0,2.685,0V226.109h.779v6.639a1.006,1.006,0,1,0,2.013,0v-7.493h0a3.532,3.532,0,0,0-3.13-3.087Zm.16-3.158a2.461,2.461,0,1,0,2.462-2.462,2.463,2.463,0,0,0-2.462,2.462" transform="translate(-216.298 -216.548)" fill="none"/>
    </clipPath>
    <clipPath id="clip-Tech-Enabled_Managed_Services">
      <rect width="200" height="200"/>
    </clipPath>
  </defs>
  <g id="Tech-Enabled_Managed_Services" data-name="Tech-Enabled Managed Services" clip-path="url(#clip-Tech-Enabled_Managed_Services)">
    <circle id="Blue_300_Bg" data-name="Blue 300 Bg" cx="100" cy="100" r="100" transform="translate(0 -0.1)" fill="#005cb7"/>
    <g id="Tech_Managed_Services" data-name="Tech Managed Services" transform="translate(-40.244 -40.936)">
      <path id="Globe_Bg" data-name="Globe Bg" d="M212.65,163.549a49.967,49.967,0,1,1-49.967-49.967,49.967,49.967,0,0,1,49.967,49.967" transform="translate(-22.654 -22.828)" fill="#5c97d1"/>
      <g id="Person" transform="translate(111.864 109.818)">
        <path id="Path_12721" data-name="Path 12721" d="M163.7,157.081a2.462,2.462,0,1,0-2.462-2.462,2.461,2.461,0,0,0,2.462,2.462m6.828,10.127-1.928-6.724a3.661,3.661,0,0,0-3.135-2.714h-3.521a3.664,3.664,0,0,0-3.052,2.419l-.008,0-2.013,7.022a1.027,1.027,0,1,0,1.974.566l1.92-6.694h.6l-2.9,10.449a.66.66,0,0,0,.669.881H161.1v8.556a1.141,1.141,0,1,0,2.283,0v-8.556h.645v8.556a1.141,1.141,0,1,0,2.283,0v-8.556h1.965a.66.66,0,0,0,.67-.881l-2.9-10.449h.59l1.919,6.694a1.027,1.027,0,0,0,1.975-.566" transform="translate(-156.833 -152.158)" fill="#fff"/>
        <g id="Group_1102" data-name="Group 1102" transform="translate(0 0)" clip-path="url(#clip-path)">
          <path id="Path_12723" data-name="Path 12723" d="M162.851,151.406a6.445,6.445,0,0,0-1.414,2.138,2.8,2.8,0,0,0,1.414,3.421,2.706,2.706,0,0,0-1.353,2.779c.091,1.772.183,6.079.091,8.156s.123,12.982.031,14.418-2.933,1.222-3.421-2.81-1.833-8-2.444-8.676-.886-1.588-.213-5.223.733-6.171,1.741-7.362,2.138-1.925,2.047-3.849,1.606-3.055,3.522-2.993" transform="translate(-155.982 -151.776)" fill="#e0e1e3"/>
        </g>
      </g>
      <g id="Person-2" data-name="Person" transform="translate(127.062 109.818)">
        <path id="Path_12722" data-name="Path 12722" d="M199.091,160.864a3.532,3.532,0,0,0-3.13-3.087h-5.243a3.532,3.532,0,0,0-3.129,3.087h0v.332h0v7.162a1.006,1.006,0,1,0,2.013,0v-6.639h.521v19.192a1.348,1.348,0,0,0,2.685,0V169.636h.812v11.275a1.348,1.348,0,0,0,2.685,0V161.719h.779v6.639a1.007,1.007,0,1,0,2.013,0v-7.493Zm-5.751-3.783a2.462,2.462,0,1,0-2.463-2.462,2.462,2.462,0,0,0,2.463,2.462" transform="translate(-187.585 -152.158)" fill="#fff"/>
        <g id="Group_1104" data-name="Group 1104" transform="translate(0 0)" clip-path="url(#clip-path-2)">
          <path id="Path_12725" data-name="Path 12725" d="M191.856,151.406a6.443,6.443,0,0,0-1.414,2.138,2.8,2.8,0,0,0,1.414,3.421,2.705,2.705,0,0,0-1.353,2.779c.092,1.772.183,6.079.092,8.156s.123,12.982.03,14.418-2.933,1.222-3.421-2.81-1.832-8-2.443-8.676-.886-1.588-.214-5.223.733-6.171,1.741-7.362,2.139-1.925,2.047-3.849,1.606-3.055,3.522-2.993" transform="translate(-185.85 -151.776)" fill="#e0e1e3"/>
        </g>
      </g>
      <g id="Person-3" data-name="Person" transform="translate(140.167 109.818)">
        <path id="Path_12727" data-name="Path 12727" d="M220.971,157.081a2.462,2.462,0,1,0-2.462-2.462,2.462,2.462,0,0,0,2.462,2.462m6.828,10.127-1.928-6.724a3.661,3.661,0,0,0-3.135-2.714h-3.521a3.664,3.664,0,0,0-3.052,2.419l-.008,0-2.013,7.022a1.027,1.027,0,1,0,1.974.566l1.92-6.694h.6l-2.9,10.449a.66.66,0,0,0,.669.881h1.955v8.556a1.141,1.141,0,1,0,2.283,0v-8.556h.645v8.556a1.141,1.141,0,1,0,2.283,0v-8.556h1.965a.66.66,0,0,0,.67-.881l-2.9-10.449h.59l1.92,6.694a1.027,1.027,0,0,0,1.975-.566" transform="translate(-214.102 -152.158)" fill="#fff"/>
        <g id="Group_1108" data-name="Group 1108" transform="translate(0 0)" clip-path="url(#clip-path-3)">
          <path id="Path_12729" data-name="Path 12729" d="M220.12,151.406a6.445,6.445,0,0,0-1.414,2.138,2.8,2.8,0,0,0,1.414,3.421,2.706,2.706,0,0,0-1.353,2.779c.091,1.772.183,6.079.091,8.156s.123,12.982.031,14.418-2.933,1.222-3.421-2.81-1.833-8-2.444-8.676-.886-1.588-.213-5.223.733-6.171,1.741-7.362,2.138-1.925,2.047-3.849,1.606-3.055,3.522-2.993" transform="translate(-213.251 -151.776)" fill="#e0e1e3"/>
        </g>
      </g>
      <g id="Person-4" data-name="Person" transform="translate(155.364 109.818)">
        <path id="Path_12728" data-name="Path 12728" d="M256.361,160.864a3.533,3.533,0,0,0-3.131-3.087h-5.243a3.532,3.532,0,0,0-3.13,3.087h0v.332h0v7.162a1.006,1.006,0,1,0,2.013,0v-6.639h.521v19.192a1.348,1.348,0,0,0,2.686,0V169.636h.811v11.275a1.348,1.348,0,0,0,2.685,0V161.719h.779v6.639a1.007,1.007,0,1,0,2.013,0v-7.493Zm-5.752-3.783a2.462,2.462,0,1,0-2.462-2.462,2.462,2.462,0,0,0,2.462,2.462" transform="translate(-244.854 -152.158)" fill="#fff"/>
        <g id="Group_1110" data-name="Group 1110" transform="translate(0 0)" clip-path="url(#clip-path-4)">
          <path id="Path_12731" data-name="Path 12731" d="M249.126,151.406a6.445,6.445,0,0,0-1.414,2.138,2.8,2.8,0,0,0,1.414,3.421,2.706,2.706,0,0,0-1.353,2.779c.091,1.772.183,6.079.091,8.156s.123,12.982.031,14.418-2.933,1.222-3.421-2.81-1.833-8-2.444-8.676-.886-1.588-.214-5.223.733-6.171,1.741-7.362,2.138-1.925,2.047-3.849,1.606-3.055,3.522-2.993" transform="translate(-243.119 -151.776)" fill="#e0e1e3"/>
        </g>
      </g>
      <g id="Person-5" data-name="Person" transform="translate(125.832 141.64)">
        <path id="Path_12733" data-name="Path 12733" d="M191.964,221.471a2.462,2.462,0,1,0-2.462-2.462,2.461,2.461,0,0,0,2.462,2.462m6.828,10.127-1.928-6.724a3.661,3.661,0,0,0-3.135-2.714h-3.521a3.664,3.664,0,0,0-3.052,2.419l-.008,0-2.013,7.022a1.027,1.027,0,1,0,1.974.566l1.921-6.694h.6l-2.9,10.449a.66.66,0,0,0,.669.881h1.955v8.556a1.141,1.141,0,1,0,2.283,0V236.8h.645v8.556a1.141,1.141,0,1,0,2.283,0V236.8h1.965a.66.66,0,0,0,.67-.881l-2.9-10.449h.59l1.919,6.694a1.027,1.027,0,0,0,1.975-.566" transform="translate(-185.095 -216.548)" fill="#fff"/>
        <g id="Group_1114" data-name="Group 1114" transform="translate(0 0)" clip-path="url(#clip-path-5)">
          <path id="Path_12735" data-name="Path 12735" d="M191.113,215.8a6.445,6.445,0,0,0-1.414,2.138,2.8,2.8,0,0,0,1.414,3.421,2.706,2.706,0,0,0-1.353,2.779c.091,1.772.183,6.08.091,8.157s.123,12.982.031,14.417-2.933,1.222-3.421-2.81-1.832-8-2.444-8.676-.886-1.588-.214-5.223.733-6.17,1.741-7.362,2.138-1.924,2.047-3.849,1.606-3.055,3.522-2.993" transform="translate(-184.244 -216.166)" fill="#e0e1e3"/>
        </g>
      </g>
      <g id="Person-6" data-name="Person" transform="translate(112.629 141.64)">
        <path id="Path_12734" data-name="Path 12734" d="M169.888,225.254a3.533,3.533,0,0,0-3.131-3.087h-5.243a3.532,3.532,0,0,0-3.13,3.087h0v.332h0v7.162a1.006,1.006,0,1,0,2.013,0v-6.639h.521V245.3a1.348,1.348,0,0,0,2.686,0V234.026h.811V245.3a1.348,1.348,0,0,0,2.685,0V226.109h.779v6.639a1.007,1.007,0,1,0,2.013,0v-7.493Zm-5.752-3.783a2.462,2.462,0,1,0-2.462-2.462,2.462,2.462,0,0,0,2.462,2.462" transform="translate(-158.381 -216.548)" fill="#fff"/>
        <g id="Group_1116" data-name="Group 1116" transform="translate(0 0)" clip-path="url(#clip-path-6)">
          <path id="Path_12737" data-name="Path 12737" d="M162.653,215.8a6.445,6.445,0,0,0-1.414,2.138,2.8,2.8,0,0,0,1.414,3.421,2.706,2.706,0,0,0-1.353,2.779c.091,1.772.183,6.08.091,8.157s.123,12.982.031,14.417-2.933,1.222-3.421-2.81-1.832-8-2.444-8.676-.886-1.588-.213-5.223.733-6.17,1.741-7.362,2.138-1.924,2.047-3.849,1.606-3.055,3.522-2.993" transform="translate(-156.647 -216.166)" fill="#e0e1e3"/>
        </g>
      </g>
      <g id="Person-7" data-name="Person" transform="translate(154.454 141.64)">
        <path id="Path_12739" data-name="Path 12739" d="M249.881,221.471a2.462,2.462,0,1,0-2.462-2.462,2.461,2.461,0,0,0,2.462,2.462M256.71,231.6l-1.928-6.724a3.661,3.661,0,0,0-3.135-2.714h-3.521a3.664,3.664,0,0,0-3.052,2.419l-.008,0-2.013,7.022a1.027,1.027,0,1,0,1.974.566l1.92-6.694h.6l-2.9,10.449a.66.66,0,0,0,.669.881h1.955v8.556a1.141,1.141,0,1,0,2.283,0V236.8h.645v8.556a1.141,1.141,0,1,0,2.283,0V236.8h1.965a.66.66,0,0,0,.67-.881l-2.9-10.449h.59l1.92,6.694a1.027,1.027,0,0,0,1.975-.566" transform="translate(-243.012 -216.548)" fill="#fff"/>
        <g id="Group_1121" data-name="Group 1121" transform="translate(0 0)">
          <g id="Group_1120" data-name="Group 1120" clip-path="url(#clip-path-7)">
            <path id="Path_12741" data-name="Path 12741" d="M249.03,215.8a6.445,6.445,0,0,0-1.414,2.138,2.8,2.8,0,0,0,1.414,3.421,2.706,2.706,0,0,0-1.353,2.779c.091,1.772.183,6.08.091,8.157s.123,12.982.031,14.417-2.933,1.222-3.421-2.81-1.833-8-2.444-8.676-.886-1.588-.213-5.223.733-6.17,1.741-7.362,2.138-1.924,2.047-3.849,1.606-3.055,3.522-2.993" transform="translate(-242.161 -216.166)" fill="#e0e1e3"/>
          </g>
        </g>
      </g>
      <g id="Person-8" data-name="Person" transform="translate(141.252 141.64)">
        <path id="Path_12740" data-name="Path 12740" d="M227.8,225.254a3.533,3.533,0,0,0-3.131-3.087h-5.243a3.532,3.532,0,0,0-3.13,3.087h0v.332h0v7.162a1.006,1.006,0,1,0,2.013,0v-6.639h.521V245.3a1.348,1.348,0,0,0,2.686,0V234.026h.811V245.3a1.348,1.348,0,0,0,2.685,0V226.109h.779v6.639a1.007,1.007,0,1,0,2.013,0v-7.493Zm-5.752-3.783a2.462,2.462,0,1,0-2.462-2.462,2.462,2.462,0,0,0,2.462,2.462" transform="translate(-216.298 -216.548)" fill="#fff"/>
        <g id="Group_1123" data-name="Group 1123" transform="translate(0 0)">
          <g id="Group_1122" data-name="Group 1122" clip-path="url(#clip-path-8)">
            <path id="Path_12743" data-name="Path 12743" d="M220.57,215.8a6.445,6.445,0,0,0-1.414,2.138,2.8,2.8,0,0,0,1.414,3.421,2.706,2.706,0,0,0-1.353,2.779c.091,1.772.183,6.08.091,8.157s.123,12.982.031,14.417-2.933,1.222-3.421-2.81-1.833-8-2.444-8.676-.886-1.588-.213-5.223.733-6.17,1.741-7.362,2.138-1.924,2.046-3.849,1.606-3.055,3.522-2.993" transform="translate(-214.564 -216.166)" fill="#e0e1e3"/>
          </g>
        </g>
      </g>
    </g>
    <path id="Path_12745" data-name="Path 12745" d="M126.234,180.836l10.076-6.717a78.224,78.224,0,0,1-2.37-74.09l13.83-.79a66.375,66.375,0,0,0-1.778,68.36l9.483-6.323,2.173,34.969ZM283.5,89.162,252.089,73.554l2.173,34.971,9.483-6.323a66.364,66.364,0,0,1-1.778,68.361l13.83-.79a78.783,78.783,0,0,0-2.37-74.09ZM178.394,85.606l-6.323-9.483a66.364,66.364,0,0,1,68.36,1.778l-.79-13.83a78.783,78.783,0,0,0-74.09,2.37l-6.717-10.076L143.227,87.779ZM169.108,192.1l.79,13.83a76.983,76.983,0,0,0,34.773,8.3,80.272,80.272,0,0,0,39.317-10.471l6.52,9.879,15.608-31.414-34.971,2.173,6.323,9.483a67.287,67.287,0,0,1-68.36-1.778Z" transform="translate(-104.834 -35.09)" fill="#fff"/>
  </g>
</svg>
