<svg xmlns="http://www.w3.org/2000/svg" xmlns:xlink="http://www.w3.org/1999/xlink" width="200" height="200" viewBox="0 0 200 200">
  <defs>
    <radialGradient id="radial-gradient" cx="0.457" cy="0.5" r="3.207" gradientTransform="translate(0.364 0.422) scale(0.203 0.156)" gradientUnits="objectBoundingBox">
      <stop offset="0" stop-color="#1a88b5"/>
      <stop offset="0.266" stop-color="#1a88b5"/>
      <stop offset="0.778" stop-color="#00aeff"/>
      <stop offset="1" stop-color="#00aeff"/>
    </radialGradient>
    <clipPath id="clip-path">
      <path id="Path_690" data-name="Path 690" d="M39.386,125.816l43.6-90.541,33.15,11.062L77.163,147.426Z" transform="translate(-67)" fill="none" stroke="#707070" stroke-width="1"/>
    </clipPath>
    <clipPath id="clip-path-2">
      <path id="Path_218" data-name="Path 218" d="M219.1,230.1c-5.823,0-10.105,4.453-10.105,10.619,0,5.984,4.111,10.619,10.105,10.619,6.166,0,10.105-4.635,10.105-10.619,0-6.145-3.939-10.6-10.105-10.6Z" transform="translate(-208.99 -230.104)" fill="none"/>
    </clipPath>
    <clipPath id="clip-Telemetry">
      <rect width="200" height="200"/>
    </clipPath>
  </defs>
  <g id="Telemetry" clip-path="url(#clip-Telemetry)">
    <circle id="Ellipse_24" data-name="Ellipse 24" cx="100" cy="100" r="100" fill="#00aeff"/>
    <ellipse id="Ellipse_86" data-name="Ellipse 86" cx="66.5" cy="13.5" rx="66.5" ry="13.5" transform="translate(38 155)" fill="url(#radial-gradient)"/>
    <g id="noun_Antenna_225551" transform="translate(33.808 11.2)">
      <g id="Group_497" data-name="Group 497" transform="translate(17.573 16.915)">
        <g id="Group_496" data-name="Group 496" transform="translate(0 0)">
          <g id="Group_495" data-name="Group 495">
            <path id="Path_682" data-name="Path 682" d="M9.332,36.937a3.308,3.308,0,0,0,4.664,0,22.926,22.926,0,0,0,6.745-16.3,22.905,22.905,0,0,0-6.752-16.3A3.293,3.293,0,0,0,9.332,8.987a16.385,16.385,0,0,1,4.822,11.646A16.385,16.385,0,0,1,9.332,32.279,3.284,3.284,0,0,0,9.332,36.937Z" transform="translate(51.692 15.262)" fill="#ff9d27"/>
            <path id="Path_683" data-name="Path 683" d="M11.582,36.937a3.3,3.3,0,1,0,4.664-4.657,16.468,16.468,0,0,1-.007-23.292A3.293,3.293,0,0,0,11.582,4.33a23.059,23.059,0,0,0,0,32.607Z" transform="translate(21.493 15.262)" fill="#ff9d27"/>
            <path id="Path_684" data-name="Path 684" d="M10.3,49.932a3.3,3.3,0,0,0,4.664,4.657,36.263,36.263,0,0,0,0-51.236A3.293,3.293,0,0,0,10.31,8.011,29.677,29.677,0,0,1,10.3,49.932Z" transform="translate(60.035 6.924)" fill="#ff9d27"/>
            <path id="Path_685" data-name="Path 685" d="M14.044,54.59a3.3,3.3,0,1,0,4.664-4.657,29.683,29.683,0,0,1,0-41.921A3.293,3.293,0,0,0,14.05,3.354,36.269,36.269,0,0,0,14.044,54.59Z" transform="translate(9.717 6.924)" fill="#ff9d27"/>
            <path id="Path_686" data-name="Path 686" d="M11.279,67.585a3.3,3.3,0,0,0,4.664,4.657,49.458,49.458,0,0,0,0-69.864,3.293,3.293,0,1,0-4.657,4.657A42.873,42.873,0,0,1,11.279,67.585Z" transform="translate(68.38 -1.415)" fill="#ff9d27"/>
            <path id="Path_687" data-name="Path 687" d="M18.844,73.205a3.29,3.29,0,0,0,2.332-5.619,42.867,42.867,0,0,1,0-60.55,3.293,3.293,0,1,0-4.657-4.657,49.458,49.458,0,0,0,0,69.864A3.282,3.282,0,0,0,18.844,73.205Z" transform="translate(-2.073 -1.409)" fill="#ff9d27"/>
            <path id="Path_688" data-name="Path 688" d="M45.926,23.3a9.881,9.881,0,1,0-6.6,0L3.333,114.918A3.3,3.3,0,0,0,8,119.008L42.626,99.767l34.629,19.241a3.382,3.382,0,0,0,1.6.408,3.3,3.3,0,0,0,3.07-4.5ZM31.85,60.342l5.5,4.4L26.8,73.174Zm2.958-6.08a3.225,3.225,0,0,0-.474-.244l8.293-21.112L50.92,54.019a4.022,4.022,0,0,0-.474.244l-7.819,6.264Zm18.6,6.073,5.046,12.845L47.9,64.743ZM12.819,108.791l8.247-21L35.841,96Zm12.647-26.1,17.16-13.728,17.16,13.728-17.16,9.532Zm23.945,13.3,14.775-8.208,8.254,21Z" transform="translate(6.752 21.875)" fill="#e5e8ec"/>
            <g id="Mask_Group_16" data-name="Mask Group 16" clip-path="url(#clip-path)">
              <path id="Path_689" data-name="Path 689" d="M45.926,23.3a9.881,9.881,0,1,0-6.6,0L3.333,114.918A3.3,3.3,0,0,0,8,119.008L42.626,99.767l34.629,19.241a3.382,3.382,0,0,0,1.6.408,3.3,3.3,0,0,0,3.07-4.5ZM31.85,60.342l5.5,4.4L26.8,73.174Zm2.958-6.08a3.225,3.225,0,0,0-.474-.244l8.293-21.112L50.92,54.019a4.022,4.022,0,0,0-.474.244l-7.819,6.264Zm18.6,6.073,5.046,12.845L47.9,64.743ZM12.819,108.791l8.247-21L35.841,96Zm12.647-26.1,17.16-13.728,17.16,13.728-17.16,9.532Zm23.945,13.3,14.775-8.208,8.254,21Z" transform="translate(6.752 21.875)" fill="#c4cbcc"/>
            </g>
          </g>
        </g>
        <g id="Group_498" data-name="Group 498" transform="translate(-3 -2)">
          <path id="Path_216" data-name="Path 216" d="M209,240.739c0-6.166,4.282-10.619,10.105-10.619,6.166,0,10.105,4.453,10.105,10.619,0,5.984-3.939,10.619-10.105,10.619C213.1,251.358,209,246.723,209,240.739Z" transform="translate(-166.506 -202.97)" fill="#e5e8ec"/>
          <g id="Group_166" data-name="Group 166" transform="translate(42.483 27.128)" clip-path="url(#clip-path-2)">
            <path id="Path_217" data-name="Path 217" d="M220.337,228.241l-3.49-2.8-4.721.846S203.53,239.856,204,240s7.836,11.775,7.836,11.775H220.4C205.211,239.16,220.337,228.241,220.337,228.241Z" transform="translate(-209.343 -229.547)" fill="#c4cbcc"/>
          </g>
        </g>
      </g>
    </g>
  </g>
</svg>
