<?xml version="1.0" encoding="utf-8"?>
<!-- Generator: Adobe Illustrator 25.4.1, SVG Export Plug-In . SVG Version: 6.00 Build 0)  -->
<svg version="1.1" id="Layer_1" xmlns="http://www.w3.org/2000/svg" xmlns:xlink="http://www.w3.org/1999/xlink" x="0px" y="0px"
	 viewBox="0 0 200 200" style="enable-background:new 0 0 200 200;" xml:space="preserve">
<style type="text/css">
	.st0{clip-path:url(#SVGID_00000008111160324305329610000007211712251057470364_);}
	.st1{fill:#00AEFF;}
	.st2{opacity:0.8;fill:url(#SVGID_00000043443495667121399800000014645793201651368838_);enable-background:new    ;}
	.st3{fill:#FF9D27;}
	.st4{fill:#E58B22;}
</style>
<g>
	<g>
		<defs>
			<rect id="SVGID_1_" x="-0.1" y="-0.1" width="200" height="200"/>
		</defs>
		<clipPath id="SVGID_00000124872825431249097580000003275475988232715913_">
			<use xlink:href="#SVGID_1_"  style="overflow:visible;"/>
		</clipPath>
		<g id="Population_Builder" style="clip-path:url(#SVGID_00000124872825431249097580000003275475988232715913_);">
			<circle id="Ellipse_24" class="st1" cx="99.9" cy="99.9" r="100"/>
		</g>
	</g>
</g>
<linearGradient id="SVGID_00000025424476551278552660000006772476578938107783_" gradientUnits="userSpaceOnUse" x1="68.5832" y1="252.9776" x2="173.798" y2="252.9776" gradientTransform="matrix(0.6603 0.751 -0.751 0.6603 228.138 -112.9112)">
	<stop  offset="0" style="stop-color:#00455F"/>
	<stop  offset="0.37" style="stop-color:#006D93;stop-opacity:0.631"/>
	<stop  offset="0.801" style="stop-color:#0099D2;stop-opacity:0.2"/>
	<stop  offset="1" style="stop-color:#00AEEF;stop-opacity:0"/>
</linearGradient>
<path style="opacity:0.8;fill:url(#SVGID_00000025424476551278552660000006772476578938107783_);enable-background:new    ;" d="
	M143.3,75.3c3.9,6.9,6,14.8,6.1,23.3c0.2,26.5-20.7,48-46.9,48.9l-67.8,1.1l42.2,47.8c7.7,1.7,15.7,2.6,24,2.5
	c42.6-0.8,78.5-28,92.2-65.8L143.3,75.3z"/>
<path class="st3" d="M150.4,99.8c0-26.9-21.7-48.6-48.6-48.6S53.2,72.9,53.2,99.8c0,12.7,4.9,24.1,12.8,32.7l-31.5,15.9h68.8h-0.1
	C129.4,147.7,150.4,126.3,150.4,99.8z"/>
<path class="st4" d="M150.5,99.8c0-22-14.6-40.7-34.7-46.5c14.9,8.4,24.9,24.2,24.9,42.5c0,26.5-21,47.8-47.4,48.5h0.1H42.9
	l-8.2,4.2h68.8h-0.1C129.5,147.7,150.5,126.3,150.5,99.8z"/>
</svg>
