<svg xmlns="http://www.w3.org/2000/svg" xmlns:xlink="http://www.w3.org/1999/xlink" width="200" height="200" viewBox="0 0 200 200">
  <defs>
    <clipPath id="clip-Upfront">
      <rect width="200" height="200"/>
    </clipPath>
  </defs>
  <g id="Upfront" clip-path="url(#clip-Upfront)">
    <path id="Path_12746" data-name="Path 12746" d="M200,100a104.15,104.15,0,0,1-.733,12.167,98.551,98.551,0,0,1-3.133,15.467A100.058,100.058,0,0,1,100,199.967c-45.633,0-7.233-.2-10.8-.567A99.79,99.79,0,0,1,0,100C0,52.267,44.767,0,100,0A99.994,99.994,0,0,1,200,100Z" fill="#005cb7"/>
    <g id="Group_1237" data-name="Group 1237" transform="translate(-91.9 184.1)">
      <path id="Path_12832" data-name="Path 12832" d="M399.379,299.2H371.553v62.132a19.356,19.356,0,0,1-1.453,7.388,19.765,19.765,0,0,1-4.178,6.268,19.306,19.306,0,0,1-6.237,4.178,19.856,19.856,0,0,1-7.388,1.484,19.272,19.272,0,0,1-19.227-19.318V299.2H324.5v62.132a28,28,0,0,0,2.12,10.658,27.594,27.594,0,0,0,6.025,9.023,27.853,27.853,0,0,0,30.339,6.025,27.594,27.594,0,0,0,9.023-6.025,27.845,27.845,0,0,0,8.145-19.681V307.769h19.257a19.111,19.111,0,0,1,13.625,5.632,19.25,19.25,0,0,1,5.632,13.656,19.356,19.356,0,0,1-1.453,7.388,19.766,19.766,0,0,1-4.178,6.268,19.306,19.306,0,0,1-6.237,4.178,19.855,19.855,0,0,1-7.388,1.484H384.421v8.569h14.988a27.841,27.841,0,0,0,0-55.682" transform="translate(-160.487 -398.258)" fill="#fff"/>
      <path id="Path_12833" data-name="Path 12833" d="M230.971,100.991a28,28,0,0,0-10.658,2.119,27.594,27.594,0,0,0-9.023,6.025,27.845,27.845,0,0,0-8.145,19.681V143.8h8.569V128.817a19.356,19.356,0,0,1,1.453-7.388,19.767,19.767,0,0,1,4.178-6.268,19.247,19.247,0,0,1,27.251,0,19.25,19.25,0,0,1,5.632,13.656V148.1h-53.5a28,28,0,0,0-10.658,2.119,27.6,27.6,0,0,0-9.023,6.025,27.853,27.853,0,0,0-6.025,30.339,27.594,27.594,0,0,0,6.025,9.023,27.845,27.845,0,0,0,19.681,8.145h14.988v-8.569H196.726a19.308,19.308,0,0,1-13.625-5.662,19.25,19.25,0,0,1-5.632-13.656,19.356,19.356,0,0,1,1.453-7.388,19.766,19.766,0,0,1,4.178-6.268,19.306,19.306,0,0,1,6.237-4.178,19.856,19.856,0,0,1,7.388-1.484H258.8V128.726a28,28,0,0,0-2.12-10.658,27.594,27.594,0,0,0-6.025-9.023,27.845,27.845,0,0,0-19.681-8.145" transform="translate(-52 -260)" fill="#fff"/>
      <path id="Path_12834" data-name="Path 12834" d="M366.8,420.969h29.976V412.4H366.8Z" transform="translate(-189.979 -477.182)" fill="#fff"/>
    </g>
  </g>
</svg>
