<svg xmlns="http://www.w3.org/2000/svg" xmlns:xlink="http://www.w3.org/1999/xlink" width="200" height="200" viewBox="0 0 200 200">
  <defs>
    <clipPath id="clip-path">
      <circle id="Ellipse_26" data-name="Ellipse 26" cx="100" cy="100" r="100" transform="translate(-72 -15)"/>
    </clipPath>
    <clipPath id="clip-Value_Sets">
      <rect width="200" height="200"/>
    </clipPath>
  </defs>
  <g id="Value_Sets" data-name="Value Sets" clip-path="url(#clip-Value_Sets)">
    <circle id="Blue_300_Bg" data-name="Blue 300 Bg" cx="100" cy="100" r="100" transform="translate(0 -0.1)" fill="#005cb7"/>
    <g id="Group_490" data-name="Group 490" transform="translate(23.3 26.12)">
      <path id="Path_12153" data-name="Path 12153" d="M112.809,6.54H38.623a1.521,1.521,0,0,0-1.517,1.517V34.828S11.517,48.1,11.442,48.146c-.774.561-4.687,3.762-5.733,12.241a38.643,38.643,0,0,0-.015,9.343c.152,1.031,0,3.837,22.312,29.926a5.6,5.6,0,0,0,4.035,2c1.244,0,5.066-2.366,5.066-2.366v37.571a1.521,1.521,0,0,0,1.517,1.517h74.187a1.512,1.512,0,0,0,1.517-1.517V8.057A1.512,1.512,0,0,0,112.809,6.54ZM37.106,40.8V57.247a1.517,1.517,0,0,0,3.034,0v-18s6.8-3.716,6.992-3.716c6.052,6.7,15.016,16.685,18.171,20.34,0,0-33.491,19.324-34.037,19.324,0,0-17.792-21.432-17.853-21.736C13.7,53.09,37.106,40.8,37.106,40.8Zm-5.627,42.5c.091-.546.2-1.062.3-1.532l31.656-18.02c-.152.516-.273,1.047-.379,1.562ZM62.785,66.772c-.076.516-.121,1.016-.152,1.517L31.16,86.2c.03-.516.061-1,.121-1.486ZM32.206,80.226c.258-.865.5-1.532.683-1.972a10.159,10.159,0,0,0,1.881-.789L64.469,60.4q-.3.865-.592,1.775ZM28.551,92.087C20.1,82.031,11.988,71.762,11,69.4a26.233,26.233,0,0,1-.015-8.373,23,23,0,0,1,1.062-4.55L28.854,77.026a3.619,3.619,0,0,0,.91.895A28.145,28.145,0,0,0,28.1,87.446,24.193,24.193,0,0,0,28.551,92.087Zm2.579-4.55L62.588,69.608a13.4,13.4,0,0,0,.106,1.38L31.19,88.932C31.145,88.477,31.13,88.007,31.13,87.537Zm.182,2.639L62.861,72.2c.091.516.182,1,.3,1.456l-31.595,18C31.463,91.192,31.387,90.692,31.312,90.176Zm.531,2.639L63.5,74.781c.152.485.319.925.485,1.335L32.252,94.2C32.115,93.771,31.979,93.3,31.842,92.815Zm.971,2.806a.015.015,0,0,1-.015.015c-.046-.106-.091-.243-.152-.364L64.454,77.162c.061.137.121.273.182.379Zm78.479,39.725H40.139V97.563l29.4-16.685a2.656,2.656,0,0,0,1.107-3.4c-.091-.334-2.761-4.05-2.761-8.373,0-3.125,2.108-8.433,3-10.693a5.347,5.347,0,0,0,.667-2.5c-.091-1.213-.106-1.365-20.553-24l-.228-.228a5.747,5.747,0,0,0-7.129-.228l-3.5,1.8V9.574h71.153Z" fill="#484f59"/>
      <path id="Path_12154" data-name="Path 12154" d="M55.359,53.479,23.537,71.559a.015.015,0,0,1-.015.015c-.046-.106-.091-.243-.152-.364L55.177,53.1C55.238,53.237,55.3,53.373,55.359,53.479Z" transform="translate(9.276 24.062)" fill="#fff"/>
      <path id="Path_12155" data-name="Path 12155" d="M54.981,52.865,23.25,70.945c-.137-.425-.273-.895-.41-1.38L54.5,51.53C54.647,52.015,54.814,52.455,54.981,52.865Z" transform="translate(9.002 23.251)" fill="#fff"/>
      <path id="Path_12156" data-name="Path 12156" d="M54.343,51.286l-31.595,18c-.106-.47-.182-.971-.258-1.486L54.039,49.83C54.13,50.346,54.221,50.831,54.343,51.286Z" transform="translate(8.822 22.372)" fill="#fff"/>
      <path id="Path_12157" data-name="Path 12157" d="M53.935,49.5l-31.5,17.944c-.046-.455-.061-.925-.061-1.4L53.828,48.12A13.4,13.4,0,0,0,53.935,49.5Z" transform="translate(8.76 21.488)" fill="#fff"/>
      <path id="Path_12158" data-name="Path 12158" d="M54.015,46.25c-.076.516-.121,1.016-.152,1.517L22.39,65.68c.03-.516.061-1,.121-1.486Z" transform="translate(8.77 20.522)" fill="#fff"/>
      <path id="Path_12159" data-name="Path 12159" d="M54.559,44.26c-.152.516-.273,1.047-.379,1.562L22.6,63.812c.091-.546.2-1.062.3-1.532Z" transform="translate(8.878 19.494)" fill="#fff"/>
      <path id="Path_12160" data-name="Path 12160" d="M55.342,42.05q-.3.865-.592,1.775L23.08,61.875c.258-.865.5-1.532.683-1.972a10.159,10.159,0,0,0,1.881-.789Z" transform="translate(9.127 18.351)" fill="#fff"/>
      <path id="Path_12161" data-name="Path 12161" d="M26.31,70.433a24.193,24.193,0,0,0,.455,4.641C18.316,65.018,10.2,54.749,9.215,52.383A26.233,26.233,0,0,1,9.2,44.01a23,23,0,0,1,1.062-4.55L27.068,60.013a3.619,3.619,0,0,0,.91.895A28.145,28.145,0,0,0,26.31,70.433Z" transform="translate(1.786 17.013)" fill="#5c97d1"/>
      <path id="Path_12162" data-name="Path 12162" d="M62.58,45.99S29.089,65.314,28.543,65.314c0,0-17.792-21.432-17.853-21.736.288-.364,23.692-12.65,23.692-12.65V47.371a1.517,1.517,0,0,0,3.034,0v-18s6.8-3.716,6.992-3.716C50.46,32.354,59.425,42.335,62.58,45.99Z" transform="translate(2.723 9.876)" fill="#b8d2eb"/>
    </g>
    <g id="Group_46" data-name="Group 46" transform="translate(72 15)" clip-path="url(#clip-path)">
      <g id="Group_45" data-name="Group 45" transform="translate(35.555 37.53)">
        <path id="Path_53" data-name="Path 53" d="M109.137,114.1c-.281,6.574-13.036,11.856-28.768,11.856S51.881,120.674,51.6,114.1v15c0,6.686,12.867,12.081,28.768,12.081s28.768-5.394,28.768-12.081v-15Zm-46.8,21.014a2.36,2.36,0,1,1,2.36-2.36A2.338,2.338,0,0,1,62.332,135.114Z" transform="translate(-51.6 -82.522)" fill="#fff"/>
        <path id="Path_54" data-name="Path 54" d="M109.137,153c-.281,6.574-13.036,11.856-28.768,11.856S51.881,159.574,51.6,153v15c0,6.686,12.867,12.081,28.768,12.081s28.768-5.394,28.768-12.081V153Zm-46.8,21.071a2.36,2.36,0,1,1,2.36-2.36A2.3,2.3,0,0,1,62.332,174.071Z" transform="translate(-51.6 -99.565)" fill="#fff"/>
        <path id="Path_55" data-name="Path 55" d="M80.368,57.9c-15.9,0-28.768,5.394-28.768,12.081V82.117C51.6,88.8,64.467,94.2,80.368,94.2s28.768-5.394,28.768-12.081V70.037C109.137,63.35,96.27,57.9,80.368,57.9ZM62.332,87.848a2.36,2.36,0,1,1,2.36-2.36A2.338,2.338,0,0,1,62.332,87.848Zm18.036-10c-11.462,0-20.734-3.933-20.734-8.709s9.271-8.709,20.734-8.709S101.1,64.362,101.1,69.138,91.831,77.847,80.368,77.847Z" transform="translate(-51.6 -57.9)" fill="#fff"/>
      </g>
    </g>
    <rect id="Rectangle_351" data-name="Rectangle 351" width="3" height="21" rx="1.5" transform="translate(134.6 45)" fill="#484f59"/>
  </g>
</svg>
