<?xml version="1.0" encoding="UTF-8"?><svg id="a" xmlns="http://www.w3.org/2000/svg" viewBox="0 0 360 187"><path d="M145.16,66h50.25v112.03h-56.01V71.76c0-3.18,2.58-5.76,5.76-5.76h0Z" style="fill:#b565a7;"/><path d="M89.15,122.01h50.25v56.01h-50.25c-3.18,0-5.76-2.58-5.76-5.76v-44.49c0-3.18,2.58-5.76,5.76-5.76h0Z" style="fill:#0085ca;"/><path d="M251.42,24.81v-.53l12.88-8.03-6.37-6.27-6.51,9.28v-3.67c0-3.07-2.52-5.6-5.6-5.6h-44.81c-3.07,0-5.6,2.52-5.6,5.6V178.03h50.41c3.07,0,5.6-2.51,5.6-5.6V28.11l18.6,6.06,6.59-7.35-25.19-2h0Zm-7,11.51h-.08s.05,.01,.08,.05v16.28h-42.01v-16.28s.06-.05,.08-.05h-.08v-4.5l8.59,3.26v8.29h8.29v-8.29l-15.38-4.19c5.82-3.08,12.46-4.82,19.5-4.82s13.51,1.7,19.31,4.71l-15.59,4.24v8.3h8.3v-8.3l8.89-3.36h.02s.05,.01,.08,.06v4.61h0Zm-31.52,5.88v-4.48h4.46v4.48h-4.46Zm20.62-4.55v4.48h-4.47v-4.48h4.47Z" style="fill:#68478d;"/></svg>