<?xml version="1.0" encoding="utf-8"?>
<!-- Generator: Adobe Illustrator 23.0.4, SVG Export Plug-In . SVG Version: 6.00 Build 0)  -->
<svg version="1.1" xmlns="http://www.w3.org/2000/svg" xmlns:xlink="http://www.w3.org/1999/xlink" x="0px" y="0px"
	 viewBox="0 0 360 93.6" style="enable-background:new 0 0 360 93.6;" xml:space="preserve">
<style type="text/css">
	.st0{fill:#006D9A;}
	.st1{fill:#FFFFFF;}
</style>
<g id="Layer_2">
	<rect x="-0.61" y="-0.36" class="st0" width="361.23" height="94.32"/>
</g>
<g id="Layer_1">
	<g>
		<path class="st1" d="M37.07,77.87c-1.9-0.98-3.71-2.34-5.12-4.1c-1.46-1.76-2.68-3.76-3.46-6.05c-0.83-2.29-1.32-4.83-1.32-7.41
			c0-15.61,13.02-24.1,11.61-39.9c0-0.93-0.2-1.8-0.44-2.59c-0.29-0.83-0.68-1.56-1.22-2.1c1.9,0.98,3.71,2.34,5.12,4.1
			c1.46,1.76,2.68,3.76,3.46,6.05c0.78,2.29,1.32,4.83,1.32,7.41c0,13.51-12.34,23.41-12.34,37.9c0,1.32,0.24,2.59,0.63,3.71
			C35.8,75.92,36.34,76.99,37.07,77.87"/>
		<polygon class="st1" points="83.02,61.47 83.02,48.13 70.61,48.13 70.61,61.47 65.3,61.47 65.3,31.26 70.61,31.26 70.61,43.88 
			83.02,43.88 83.02,31.26 88.27,31.26 88.27,61.47 		"/>
		<path class="st1" d="M96.3,52.31c0.27,4.45,2.59,5.51,6.17,5.51c3.12,0,5.91-0.33,8.23-0.6l0.4,3.72
			c-2.52,0.4-5.58,0.86-9.96,0.86c-7.77,0-9.76-5.05-9.76-11.88c0-8.37,2.59-11.88,10.29-11.88c8.37,0,10.09,4.38,10.09,11.29
			c0,0.6,0,1.13-0.07,1.66c-2.59,0.53-8.17,1-11.42,1.2L96.3,52.31z M100.82,48.79c1.66-0.07,4.38-0.33,5.98-0.53
			c0-0.33,0.07-0.73,0.07-1.13c0-3.52-1.26-5.51-5.11-5.51c-4.91,0-5.58,3.05-5.58,7.24L100.82,48.79z"/>
		<path class="st1" d="M114.36,54.63c0-4.05,1.79-6.57,6.24-7.24c2.52-0.4,5.31-0.53,8.17-0.6c0-3.19-1.46-4.78-4.91-4.78
			c-2.79,0-5.64,0.27-8.03,0.6l-0.4-3.65c2.52-0.4,5.51-0.86,8.96-0.86c5.05,0,9.29,1.33,9.29,7.24v10.22c0,1.53-0.07,2.85-0.2,4.25
			c-2.59,1.46-5.98,1.99-10.36,1.99C116.75,61.8,114.36,59.35,114.36,54.63 M128.63,49.99c-1.99,0.07-4.38,0.07-6.31,0.6
			c-2.39,0.6-3.32,1.26-3.32,3.98c0,2.85,1.59,3.65,4.58,3.65c1.53,0,3.39-0.07,4.78-0.73c0.07-0.93,0.2-1.99,0.2-3.12v-4.32h0.07
			V49.99z"/>
		<path class="st1" d="M137.53,29.41h4.98V55.3c0,2.12,0.53,3.65,1.66,5.24l-4.32,1.99c-1.53-1.66-2.39-3.78-2.39-6.97L137.53,29.41
			L137.53,29.41z"/>
		<path class="st1" d="M160.04,61.47c-1.13,0.2-2.46,0.33-3.45,0.33c-4.71,0-6.64-1.99-6.64-6.31V42.02h-3.85v-3.65h3.85v-5.71
			l4.98-0.86v6.51h4.78v3.65h-4.78v13.08c0,2.19,0.93,2.92,3.12,2.92c0.6,0,1.2,0,1.79-0.07L160.04,61.47z"/>
		<path class="st1" d="M183.34,61.47h-4.98V47.2c0-3.72-0.66-5.24-5.51-5.24c-1.53,0-3.12,0.33-4.38,0.93v18.59h-4.98V29.41h4.98
			v9.49c1.66-0.53,3.65-0.86,5.71-0.86c8.17,0,9.03,3.78,9.03,8.63v14.81H183.34z"/>
		<path class="st1" d="M208.1,35.71c-1.86-0.33-3.85-0.53-5.98-0.53c-8.1,0-8.17,4.71-8.17,11.02c0,6.44,0.07,11.02,8.17,11.02
			c1.99,0,4.05-0.2,5.98-0.53l0.53,4.05c-1.93,0.53-4.65,0.86-7.57,0.86c-9.96,0-12.42-4.71-12.42-15.4s2.46-15.4,12.42-15.4
			c3.05,0,5.64,0.33,7.57,0.86L208.1,35.71z"/>
		<path class="st1" d="M211.75,54.63c0-4.05,1.79-6.57,6.24-7.24c2.52-0.4,5.31-0.53,8.17-0.6c0-3.19-1.46-4.78-4.91-4.78
			c-2.79,0-5.64,0.27-8.03,0.6l-0.4-3.65c2.52-0.4,5.51-0.86,8.96-0.86c5.05,0,9.29,1.33,9.29,7.24v10.22c0,1.53-0.07,2.85-0.2,4.25
			c-2.59,1.46-5.98,1.99-10.36,1.99C214.21,61.8,211.75,59.35,211.75,54.63 M226.16,49.99c-1.99,0.07-4.38,0.07-6.31,0.6
			c-2.39,0.6-3.32,1.26-3.32,3.98c0,2.85,1.59,3.65,4.58,3.65c1.53,0,3.39-0.07,4.78-0.73c0.07-0.93,0.2-1.99,0.2-3.12v-4.32h0.07
			V49.99z"/>
		<path class="st1" d="M247.41,61.47c-1.13,0.2-2.46,0.33-3.45,0.33c-4.71,0-6.64-1.99-6.64-6.31V42.02h-3.85v-3.65h3.85v-5.71
			l4.98-0.86v6.51h4.78v3.65h-4.91v13.08c0,2.19,0.93,2.92,3.12,2.92c0.6,0,1.2,0,1.79-0.07L247.41,61.47z"/>
		<path class="st1" d="M250.99,54.63c0-4.05,1.79-6.57,6.24-7.24c2.52-0.4,5.31-0.53,8.17-0.6c0-3.19-1.46-4.78-4.91-4.78
			c-2.79,0-5.64,0.27-8.03,0.6l-0.4-3.65c2.52-0.4,5.51-0.86,8.96-0.86c5.05,0,9.29,1.33,9.29,7.24v10.22c0,1.53-0.07,2.85-0.2,4.25
			c-2.59,1.46-5.98,1.99-10.36,1.99C253.38,61.8,250.99,59.35,250.99,54.63 M265.4,49.99c-1.99,0.07-4.38,0.07-6.31,0.6
			c-2.39,0.6-3.32,1.26-3.32,3.98c0,2.85,1.59,3.65,4.58,3.65c1.53,0,3.39-0.07,4.78-0.73c0.07-0.93,0.2-1.99,0.2-3.12v-4.32h0.07
			V49.99z"/>
		<path class="st1" d="M273.3,29.41h4.98V55.3c0,2.12,0.53,3.65,1.66,5.24l-4.32,1.99c-1.53-1.66-2.39-3.78-2.39-6.97V29.41H273.3z"
			/>
		<polygon class="st1" points="293.28,53.77 298.2,38.3 303.24,38.3 292.49,69.97 287.51,69.97 291.03,59.95 281.73,38.3 
			286.91,38.3 		"/>
		<path class="st1" d="M315.66,55.1c0-2.59-2.39-2.85-4.58-3.52c-3.72-1.13-7.24-2.12-7.24-7.1c0-5.05,3.52-6.51,8.17-6.51
			c3.19,0,5.51,0.27,8.17,0.93l-0.53,3.65c-1.79-0.33-3.72-0.6-5.71-0.6c-1.86,0-5.24,0-5.24,2.39c0,2.46,2.79,2.85,4.71,3.52
			c3.98,1.33,7.17,2.12,7.17,7.17c0,5.31-3.98,6.84-9.03,6.84c-2.46,0-5.58-0.33-8.03-0.93l0.53-3.72c1.79,0.33,4.32,0.66,6.17,0.66
			C312.14,57.82,315.66,57.89,315.66,55.1"/>
		<path class="st1" d="M337.5,61.47c-1.13,0.2-2.46,0.33-3.45,0.33c-4.71,0-6.64-1.99-6.64-6.31V42.02h-3.85v-3.65h3.85v-5.71
			l4.98-0.86v6.51h4.78v3.65h-4.78v13.08c0,2.19,0.93,2.92,3.12,2.92c0.6,0,1.2,0,1.79-0.07L337.5,61.47z"/>
		<path class="st1" d="M48.78,76.99c-1.32-0.63-2.49-1.61-3.46-2.73c-0.98-1.17-1.8-2.54-2.34-4.1c-0.54-1.56-0.88-3.22-0.88-4.98
			c0-10.49,9.61-16.44,8.1-29.95c1.85,1.66,3.41,4.63,4.29,6.83c0.54,1.56,0.88,3.22,0.88,4.98c0,9.02-8.24,15.66-8.24,25.41
			c0,0.88,0.15,1.76,0.44,2.49C47.85,75.77,48.29,76.46,48.78,76.99"/>
		<path class="st1" d="M24.68,59.19c-1.32-0.63-2.49-1.61-3.46-2.73c-0.98-1.17-1.8-2.54-2.34-4.1C18.34,50.8,18,49.14,18,47.39
			c0-10.49,9.61-16.44,8.1-29.95c1.85,1.66,3.41,4.63,4.29,6.83c0.54,1.56,0.88,3.22,0.88,4.98c0,9.02-8.24,15.66-8.24,25.41
			c0,0.88,0.15,1.76,0.44,2.49C23.76,57.97,24.19,58.65,24.68,59.19"/>
	</g>
	<g>
		<path class="st1" d="M342,31.78c0,1.28-1,2.28-2.3,2.28c-1.29,0-2.32-1-2.32-2.28c0-1.25,1.03-2.25,2.32-2.25
			C341,29.53,342,30.53,342,31.78z M337.96,31.78c0,1,0.74,1.8,1.75,1.8c0.99,0,1.71-0.8,1.71-1.78c0-1-0.73-1.81-1.73-1.81
			C338.7,29.99,337.96,30.79,337.96,31.78z M339.34,32.96h-0.52v-2.25c0.21-0.04,0.49-0.07,0.86-0.07c0.42,0,0.62,0.07,0.78,0.16
			c0.12,0.1,0.22,0.27,0.22,0.49c0,0.25-0.19,0.44-0.47,0.52v0.03c0.22,0.08,0.34,0.25,0.41,0.55c0.07,0.34,0.11,0.48,0.16,0.56
			h-0.56c-0.07-0.08-0.11-0.29-0.18-0.55c-0.04-0.25-0.18-0.36-0.47-0.36h-0.25V32.96z M339.35,31.69h0.25
			c0.29,0,0.52-0.1,0.52-0.33c0-0.21-0.15-0.34-0.48-0.34c-0.14,0-0.23,0.01-0.29,0.03V31.69z"/>
	</g>
</g>
</svg>
