<?xml version="1.0" encoding="utf-8"?>
<!-- Generator: Adobe Illustrator 23.0.4, SVG Export Plug-In . SVG Version: 6.00 Build 0)  -->
<svg version="1.1" id="Layer_1" xmlns="http://www.w3.org/2000/svg" xmlns:xlink="http://www.w3.org/1999/xlink" x="0px" y="0px"
	 viewBox="0 0 360 158.4" style="enable-background:new 0 0 360 158.4;" xml:space="preserve">
<style type="text/css">
	.st0{fill:#006E9A;}
	.st1{fill:#00ADEE;}
</style>
<g>
	<path class="st0" d="M54.78,149.15c-4.37-2.17-8.3-5.32-11.6-9.2c-3.3-3.89-5.98-8.52-7.83-13.65c-1.85-5.14-2.86-10.79-2.86-16.72
		c0-35.12,29.19-54.17,26.04-89.7c0-2.08-0.36-4.06-1-5.85c-0.65-1.8-1.58-3.42-2.74-4.78c4.37,2.18,8.3,5.32,11.61,9.21
		c3.3,3.89,5.97,8.51,7.82,13.65c1.85,5.14,2.87,10.79,2.87,16.72c0,30.38-27.65,52.65-27.65,85.14c0,2.97,0.51,5.79,1.43,8.36
		C51.79,144.9,53.13,147.21,54.78,149.15"/>
	<path class="st1" d="M81.03,147.25c-2.93-1.46-5.56-3.56-7.77-6.16c-2.21-2.6-4.01-5.7-5.24-9.15c-1.23-3.44-1.92-7.23-1.92-11.19
		c0-23.53,21.57-36.82,18.28-67.19c4.22,3.78,7.66,10.47,9.67,15.31c1.24,3.44,1.92,7.23,1.92,11.2c0,20.34-18.52,35.26-18.52,57.02
		c0,1.99,0.35,3.88,0.96,5.6C79.03,144.4,79.93,145.95,81.03,147.25"/>
	<path class="st1" d="M26.88,107.32c-2.93-1.46-5.56-3.57-7.77-6.17c-2.21-2.6-4-5.7-5.24-9.14c-1.24-3.44-1.92-7.23-1.92-11.19
		c0-23.53,21.58-36.82,18.28-67.2c4.22,3.78,7.66,10.47,9.67,15.31c1.24,3.44,1.92,7.23,1.92,11.2c0,20.34-18.52,35.26-18.52,57.02
		c0,1.99,0.34,3.88,0.96,5.6C24.88,104.46,25.77,106.01,26.88,107.32"/>
	<polygon class="st1" points="143.9,70.98 143.9,50.92 125.27,50.92 125.27,70.98 117.33,70.98 117.33,25.48 125.27,25.48 
		125.27,44.52 143.9,44.52 143.9,25.48 151.89,25.48 151.89,70.98 	"/>
	<path class="st1" d="M163.91,57.29c0.39,6.7,3.89,8.26,9.28,8.26c4.64,0,8.9-0.45,12.47-0.9l0.63,5.53
		c-3.77,0.6-8.32,1.27-15.01,1.27c-11.66,0-14.72-7.56-14.72-17.87c0-12.61,3.91-17.85,15.48-17.85c12.52,0,15.19,6.6,15.19,16.97
		c0,0.84-0.02,1.7-0.1,2.58c-3.98,0.7-12.28,1.52-17.09,1.74L163.91,57.29z M170.7,51.9c2.56-0.12,6.58-0.45,8.98-0.78
		c0.06-0.45,0.08-1.17,0.08-1.62c0-5.29-1.95-8.18-7.73-8.18c-7.32,0-8.32,4.63-8.32,10.91L170.7,51.9z"/>
	<path class="st1" d="M190.96,60.61c0-6.07,2.64-9.88,9.35-10.9c3.83-0.59,8.03-0.74,12.32-0.92c0-4.83-2.11-7.24-7.4-7.24
		c-4.16,0-8.54,0.43-12.09,0.88L192.54,37c3.75-0.62,8.3-1.27,13.39-1.27c7.65,0,13.96,2.09,13.96,10.95v15.33
		c0,2.28-0.1,4.28-0.29,6.39c-3.89,2.18-9.06,3.05-15.54,3.05C194.65,71.45,190.96,67.76,190.96,60.61 M212.63,53.64
		c-3.06,0.12-6.62,0.18-9.45,0.84c-3.61,0.84-4.9,1.96-4.9,6.02c0,4.35,2.42,5.41,6.87,5.41c2.27,0,5.08-0.18,7.26-1.19
		c0.16-1.4,0.21-3.11,0.21-4.67V53.64z"/>
	<path class="st1" d="M225.93,22.77h7.44v38.87c0,3.2,0.72,5.41,2.54,7.81l-6.46,3.06c-2.28-2.6-3.52-5.72-3.52-10.54V22.77z"/>
	<path class="st1" d="M259.76,70.94c-1.62,0.27-3.65,0.51-5.25,0.51c-7.05,0-10.04-3.07-10.04-9.49V41.71h-5.88V36.2h5.88v-8.61
		l7.44-1.21v9.82h7.23v5.51h-7.23v19.62c0,3.36,1.43,4.39,4.65,4.39c0.9,0,1.76-0.04,2.64-0.1L259.76,70.94z"/>
	<path class="st1" d="M294.72,70.98h-7.42V49.56c0-5.55-1.02-7.89-8.18-7.89c-2.23,0-4.65,0.51-6.56,1.37v27.94h-7.42V22.77h7.42
		v14.27c2.54-0.8,5.41-1.31,8.59-1.31c12.28,0,13.57,5.72,13.57,12.95V70.98z"/>
	<path class="st0" d="M146.29,90.29c-2.83-0.45-5.86-0.74-8.94-0.74c-12.23,0-12.32,7.07-12.32,16.68c0,9.65,0.09,16.68,12.32,16.68
		c3.08,0,6.11-0.29,8.94-0.74l0.7,6.03c-2.93,0.73-6.91,1.25-11.42,1.25c-14.98,0-18.67-7.07-18.67-23.22
		c0-16.17,3.71-23.22,18.67-23.22c4.51,0,8.49,0.53,11.42,1.25L146.29,90.29z"/>
	<path class="st0" d="M151.69,118.6c0-6.07,2.64-9.88,9.35-10.9c3.83-0.59,8.02-0.74,12.32-0.92c0-4.83-2.11-7.25-7.4-7.25
		c-4.16,0-8.53,0.43-12.09,0.88l-0.6-5.43c3.75-0.63,8.3-1.27,13.39-1.27c7.65,0,13.96,2.09,13.96,10.96V120
		c0,2.28-0.1,4.28-0.29,6.39c-3.89,2.18-9.06,3.04-15.54,3.04C155.38,129.43,151.69,125.74,151.69,118.6 M173.36,111.63
		c-3.07,0.12-6.62,0.18-9.45,0.84c-3.61,0.84-4.9,1.96-4.9,6.02c0,4.35,2.42,5.41,6.87,5.41c2.27,0,5.08-0.18,7.26-1.19
		c0.16-1.4,0.22-3.11,0.22-4.67V111.63z"/>
	<path class="st0" d="M205.42,128.93c-1.62,0.27-3.65,0.51-5.25,0.51c-7.05,0-10.03-3.07-10.03-9.49V99.7h-5.88v-5.51h5.88v-8.61
		l7.44-1.21v9.82h7.22v5.51h-7.22v19.62c0,3.36,1.43,4.39,4.65,4.39c0.9,0,1.76-0.04,2.64-0.1L205.42,128.93z"/>
	<path class="st0" d="M210.7,118.6c0-6.07,2.64-9.88,9.35-10.9c3.83-0.59,8.02-0.74,12.32-0.92c0-4.83-2.11-7.25-7.4-7.25
		c-4.16,0-8.54,0.43-12.09,0.88l-0.61-5.43c3.75-0.63,8.3-1.27,13.4-1.27c7.65,0,13.96,2.09,13.96,10.96V120
		c0,2.28-0.1,4.28-0.29,6.39c-3.88,2.18-9.06,3.04-15.54,3.04C214.39,129.43,210.7,125.74,210.7,118.6 M232.37,111.63
		c-3.06,0.12-6.62,0.18-9.45,0.84c-3.61,0.84-4.9,1.96-4.9,6.02c0,4.35,2.42,5.41,6.87,5.41c2.27,0,5.08-0.18,7.26-1.19
		c0.16-1.4,0.21-3.11,0.21-4.67V111.63z"/>
	<path class="st0" d="M244.37,80.76h7.44v38.87c0,3.2,0.73,5.41,2.54,7.81l-6.46,3.06c-2.28-2.6-3.52-5.72-3.52-10.54V80.76z"/>
	<polygon class="st0" points="274.34,117.43 281.78,94.19 289.3,94.19 273.11,141.78 265.59,141.78 270.98,126.62 256.94,94.19 
		264.79,94.19 	"/>
	<path class="st0" d="M308.01,119.46c0-3.98-3.57-4.31-6.81-5.31c-5.59-1.7-10.9-3.12-10.9-10.6c0-7.63,5.37-9.82,12.26-9.82
		c4.8,0,8.2,0.41,12.36,1.35l-0.7,5.45c-2.71-0.51-5.62-0.94-8.69-0.94c-2.81,0-7.83,0-7.83,3.55c0,3.65,4.22,4.3,7.11,5.27
		c5.94,2.01,10.74,3.13,10.74,10.78c0,8.02-5.94,10.25-13.55,10.25c-3.73,0-8.4-0.47-12.01-1.37l0.7-5.57
		c2.67,0.49,6.52,0.96,9.25,0.96C302.7,123.46,308.01,123.56,308.01,119.46"/>
	<path class="st0" d="M340.83,128.93c-1.62,0.27-3.65,0.51-5.25,0.51c-7.05,0-10.03-3.07-10.03-9.49V99.7h-5.88v-5.51h5.88v-8.61
		l7.44-1.21v9.82h7.22v5.51h-7.22v19.62c0,3.36,1.43,4.39,4.65,4.39c0.9,0,1.76-0.04,2.64-0.1L340.83,128.93z"/>
</g>
<g>
	<path class="st0" d="M348.06,84.66c0,1.92-1.51,3.43-3.47,3.43c-1.94,0-3.49-1.51-3.49-3.43c0-1.88,1.55-3.39,3.49-3.39
		C346.55,81.28,348.06,82.79,348.06,84.66z M341.96,84.66c0,1.51,1.12,2.71,2.64,2.71c1.49,0,2.58-1.2,2.58-2.68
		c0-1.51-1.1-2.73-2.6-2.73C343.08,81.96,341.96,83.18,341.96,84.66z M344.05,86.44h-0.78v-3.39c0.31-0.06,0.74-0.1,1.3-0.1
		c0.64,0,0.93,0.1,1.18,0.25c0.19,0.14,0.33,0.41,0.33,0.74c0,0.37-0.29,0.66-0.7,0.78v0.04c0.33,0.12,0.52,0.37,0.62,0.83
		c0.1,0.52,0.17,0.72,0.25,0.85h-0.85c-0.1-0.12-0.17-0.43-0.27-0.83c-0.06-0.37-0.27-0.54-0.7-0.54h-0.37V86.44z M344.07,84.52
		h0.37c0.43,0,0.78-0.14,0.78-0.5c0-0.31-0.23-0.52-0.72-0.52c-0.21,0-0.35,0.02-0.43,0.04V84.52z"/>
</g>
</svg>
