<?xml version="1.0" encoding="UTF-8"?>
<svg id="Layer_1" xmlns="http://www.w3.org/2000/svg" version="1.1" viewBox="0 0 360 158.4">
  <!-- Generator: Adobe Illustrator 29.5.1, SVG Export Plug-In . SVG Version: 2.1.0 Build 141)  -->
  <defs>
    <style>
      .st0 {
        fill: #fff;
      }

      .st1 {
        fill: #052533;
      }
    </style>
  </defs>
  <g id="Layer_2">
    <rect class="st1" y=".2" width="360" height="158"/>
  </g>
  <g id="Layer_11" data-name="Layer_1">
    <g>
      <path class="st0" d="M54.8,149.1c-4.4-2.2-8.3-5.3-11.6-9.2-3.3-3.9-6-8.5-7.8-13.7-1.8-5.1-2.9-10.8-2.9-16.7,0-35.1,29.2-54.2,26-89.7,0-2.1-.4-4.1-1-5.9-.7-1.8-1.6-3.4-2.7-4.8,4.4,2.2,8.3,5.3,11.6,9.2,3.3,3.9,6,8.5,7.8,13.6,1.8,5.1,2.9,10.8,2.9,16.7,0,30.4-27.7,52.7-27.7,85.1s.5,5.8,1.4,8.4c.9,2.6,2.3,4.9,3.9,6.8"/>
      <path class="st0" d="M81,147.2c-2.9-1.5-5.6-3.6-7.8-6.2s-4-5.7-5.2-9.1c-1.2-3.4-1.9-7.2-1.9-11.2,0-23.5,21.6-36.8,18.3-67.2,4.2,3.8,7.7,10.5,9.7,15.3,1.2,3.4,1.9,7.2,1.9,11.2,0,20.3-18.5,35.3-18.5,57s.3,3.9,1,5.6c.6,1.7,1.5,3.3,2.6,4.6"/>
      <path class="st0" d="M26.9,107.3c-2.9-1.5-5.6-3.6-7.8-6.2s-4-5.7-5.2-9.1-1.9-7.2-1.9-11.2c0-23.5,21.6-36.8,18.3-67.2,4.2,3.8,7.7,10.5,9.7,15.3,1.2,3.4,1.9,7.2,1.9,11.2,0,20.3-18.5,35.3-18.5,57s.3,3.9,1,5.6c.6,1.7,1.5,3.3,2.6,4.6"/>
      <polygon class="st0" points="143.9 71 143.9 50.9 125.3 50.9 125.3 71 117.3 71 117.3 25.5 125.3 25.5 125.3 44.5 143.9 44.5 143.9 25.5 151.9 25.5 151.9 71 143.9 71"/>
      <path class="st0" d="M163.9,57.3c.4,6.7,3.9,8.3,9.3,8.3s8.9-.4,12.5-.9l.6,5.5c-3.8.6-8.3,1.3-15,1.3-11.7,0-14.7-7.6-14.7-17.9s3.9-17.8,15.5-17.8,15.2,6.6,15.2,17,0,1.7-.1,2.6c-4,.7-12.3,1.5-17.1,1.7l-6.1.3ZM170.7,51.9c2.6-.1,6.6-.5,9-.8,0-.5,0-1.2,0-1.6,0-5.3-1.9-8.2-7.7-8.2s-8.3,4.6-8.3,10.9l7-.3Z"/>
      <path class="st0" d="M191,60.6c0-6.1,2.6-9.9,9.4-10.9,3.8-.6,8-.7,12.3-.9,0-4.8-2.1-7.2-7.4-7.2s-8.5.4-12.1.9l-.6-5.4c3.8-.6,8.3-1.3,13.4-1.3,7.6,0,14,2.1,14,11v15.3c0,2.3-.1,4.3-.3,6.4-3.9,2.2-9.1,3.1-15.5,3.1-9.4,0-13.1-3.7-13.1-10.8M212.6,53.6c-3.1.1-6.6.2-9.4.8-3.6.8-4.9,2-4.9,6s2.4,5.4,6.9,5.4,5.1-.2,7.3-1.2c.2-1.4.2-3.1.2-4.7v-6.4h0Z"/>
      <path class="st0" d="M225.9,22.8h7.4v38.9c0,3.2.7,5.4,2.5,7.8l-6.5,3.1c-2.3-2.6-3.5-5.7-3.5-10.5V22.8h0Z"/>
      <path class="st0" d="M259.8,70.9c-1.6.3-3.6.5-5.2.5-7.1,0-10-3.1-10-9.5v-20.3h-5.9v-5.5h5.9v-8.6l7.4-1.2v9.8h7.2v5.5h-7.2v19.6c0,3.4,1.4,4.4,4.7,4.4s1.8,0,2.6,0l.6,5.3Z"/>
      <path class="st0" d="M294.7,71h-7.4v-21.4c0-5.5-1-7.9-8.2-7.9s-4.6.5-6.6,1.4v27.9h-7.4V22.8h7.4v14.3c2.5-.8,5.4-1.3,8.6-1.3,12.3,0,13.6,5.7,13.6,13v22.3Z"/>
      <path class="st0" d="M146.3,90.3c-2.8-.4-5.9-.7-8.9-.7-12.2,0-12.3,7.1-12.3,16.7s0,16.7,12.3,16.7,6.1-.3,8.9-.7l.7,6c-2.9.7-6.9,1.2-11.4,1.2-15,0-18.7-7.1-18.7-23.2s3.7-23.2,18.7-23.2,8.5.5,11.4,1.2l-.7,6Z"/>
      <path class="st0" d="M151.7,118.6c0-6.1,2.6-9.9,9.4-10.9,3.8-.6,8-.7,12.3-.9,0-4.8-2.1-7.2-7.4-7.2s-8.5.4-12.1.9l-.6-5.4c3.8-.6,8.3-1.3,13.4-1.3,7.6,0,14,2.1,14,11v15.3c0,2.3-.1,4.3-.3,6.4-3.9,2.2-9.1,3-15.5,3-9.4,0-13.1-3.7-13.1-10.8M173.4,111.6c-3.1.1-6.6.2-9.4.8-3.6.8-4.9,2-4.9,6s2.4,5.4,6.9,5.4,5.1-.2,7.3-1.2c.2-1.4.2-3.1.2-4.7v-6.4Z"/>
      <path class="st0" d="M205.4,128.9c-1.6.3-3.6.5-5.2.5-7.1,0-10-3.1-10-9.5v-20.2h-5.9v-5.5h5.9v-8.6l7.4-1.2v9.8h7.2v5.5h-7.2v19.6c0,3.4,1.4,4.4,4.6,4.4s1.8,0,2.6,0l.6,5.3Z"/>
      <path class="st0" d="M210.7,118.6c0-6.1,2.6-9.9,9.4-10.9,3.8-.6,8-.7,12.3-.9,0-4.8-2.1-7.2-7.4-7.2s-8.5.4-12.1.9l-.6-5.4c3.8-.6,8.3-1.3,13.4-1.3,7.6,0,14,2.1,14,11v15.3c0,2.3-.1,4.3-.3,6.4-3.9,2.2-9.1,3-15.5,3-9.4,0-13.1-3.7-13.1-10.8M232.4,111.6c-3.1.1-6.6.2-9.4.8-3.6.8-4.9,2-4.9,6s2.4,5.4,6.9,5.4,5.1-.2,7.3-1.2c.2-1.4.2-3.1.2-4.7v-6.4h0Z"/>
      <path class="st0" d="M244.4,80.8h7.4v38.9c0,3.2.7,5.4,2.5,7.8l-6.5,3.1c-2.3-2.6-3.5-5.7-3.5-10.5v-39.2h0Z"/>
      <polygon class="st0" points="274.3 117.4 281.8 94.2 289.3 94.2 273.1 141.8 265.6 141.8 271 126.6 256.9 94.2 264.8 94.2 274.3 117.4"/>
      <path class="st0" d="M308,119.5c0-4-3.6-4.3-6.8-5.3-5.6-1.7-10.9-3.1-10.9-10.6s5.4-9.8,12.3-9.8,8.2.4,12.4,1.3l-.7,5.4c-2.7-.5-5.6-.9-8.7-.9s-7.8,0-7.8,3.6,4.2,4.3,7.1,5.3c5.9,2,10.7,3.1,10.7,10.8s-5.9,10.3-13.5,10.3-8.4-.5-12-1.4l.7-5.6c2.7.5,6.5,1,9.2,1,2.8,0,8.1,0,8.1-4"/>
      <path class="st0" d="M340.8,128.9c-1.6.3-3.6.5-5.2.5-7,0-10-3.1-10-9.5v-20.2h-5.9v-5.5h5.9v-8.6l7.4-1.2v9.8h7.2v5.5h-7.2v19.6c0,3.4,1.4,4.4,4.6,4.4s1.8,0,2.6,0l.5,5.3Z"/>
    </g>
    <path class="st0" d="M348.1,84.7c0,1.9-1.5,3.4-3.5,3.4s-3.5-1.5-3.5-3.4,1.5-3.4,3.5-3.4c2,0,3.5,1.5,3.5,3.4ZM342,84.7c0,1.5,1.1,2.7,2.6,2.7s2.6-1.2,2.6-2.7-1.1-2.7-2.6-2.7-2.6,1.2-2.6,2.7ZM344,86.4h-.8v-3.4c.3,0,.7,0,1.3,0s.9,0,1.2.2c.2.1.3.4.3.7s-.3.7-.7.8h0c.3.2.5.4.6.9.1.5.2.7.2.8h-.9c-.1-.1-.2-.4-.3-.8,0-.4-.3-.5-.7-.5h-.4v1.4h0ZM344.1,84.5h.4c.4,0,.8-.1.8-.5s-.2-.5-.7-.5-.4,0-.4,0v1Z"/>
  </g>
</svg>