<svg xmlns="http://www.w3.org/2000/svg" viewBox="0 0 76.6 127.4"><defs><style>.cls-1{fill:#006e9a;}.cls-2{fill:#00aeef;}</style></defs><title>Health-Catalyst-Flame-Color</title><g id="Layer_2" data-name="Layer 2"><g id="Layer_1-2" data-name="Layer 1"><path class="cls-1" d="M39.1,127.4A32.51,32.51,0,0,1,28.6,119a39,39,0,0,1-7.1-12.4,45,45,0,0,1-2.7-15.2c0-32,26.7-49.4,23.8-81.8a17.82,17.82,0,0,0-.9-5.3A11.36,11.36,0,0,0,39.2,0,32.51,32.51,0,0,1,49.7,8.4a39,39,0,0,1,7.1,12.4A47.58,47.58,0,0,1,59.5,36c0,27.7-25.3,48-25.3,77.7a23.3,23.3,0,0,0,1.3,7.6,28.79,28.79,0,0,0,3.6,6.1"/><path class="cls-2" d="M63.1,125.6A22.59,22.59,0,0,1,56,120a26.69,26.69,0,0,1-4.8-8.4,31.23,31.23,0,0,1-1.8-10.2C49.4,79.9,69.1,67.7,66,40c3.8,3.4,7,9.5,8.8,14a31.23,31.23,0,0,1,1.8,10.2c0,18.5-16.9,32.1-16.9,52.1a14,14,0,0,0,.9,5.1,12.33,12.33,0,0,0,2.5,4.2"/><path class="cls-2" d="M13.7,89.1a22.59,22.59,0,0,1-7.1-5.6,26.69,26.69,0,0,1-4.8-8.4A31.23,31.23,0,0,1,0,64.9C0,43.4,19.7,31.2,16.6,3.5c3.8,3.4,7,9.5,8.8,14a31.23,31.23,0,0,1,1.8,10.2c0,18.5-16.9,32.1-16.9,52.1a14,14,0,0,0,.9,5.1,12.33,12.33,0,0,0,2.5,4.2"/><path class="cls-1" d="M66.48,7.28A3.48,3.48,0,1,1,63,3.89,3.4,3.4,0,0,1,66.48,7.28Zm-6.09,0A2.62,2.62,0,0,0,63,10,2.59,2.59,0,0,0,65.61,7.3a2.61,2.61,0,1,0-5.23,0Zm2.09,1.78h-.78V5.67a6.84,6.84,0,0,1,1.3-.1,2.11,2.11,0,0,1,1.18.25.94.94,0,0,1,.33.74.87.87,0,0,1-.7.78v0a1,1,0,0,1,.62.83,2.6,2.6,0,0,0,.25.85h-.85a2.9,2.9,0,0,1-.27-.83c-.06-.37-.27-.54-.7-.54h-.37Zm0-1.92h.37c.43,0,.78-.14.78-.5s-.23-.52-.72-.52a1.88,1.88,0,0,0-.43,0Z"/></g></g></svg>