<svg id="Layer_1" data-name="Layer 1" xmlns="http://www.w3.org/2000/svg" viewBox="0 0 443 146"><defs><style>.cls-1{fill:#00aeef;}.cls-2{fill:#515353;}.cls-3{fill:#006e9a;}</style></defs><path class="cls-1" d="M45.37,80.9a77.49,77.49,0,0,1-15.93,1.59c-22.59,0-28-10.86-28-35.67s5.44-35.67,28-35.67a81.13,81.13,0,0,1,15.93,1.53l-.72,6.15a86.18,86.18,0,0,0-12.21-1.11C11,17.72,9.25,28,9.25,46.82s2.07,29.1,23.19,29.1a83.7,83.7,0,0,0,12.24-1.08Z"/><path class="cls-1" d="M55.15,29.48A120.06,120.06,0,0,1,75,27.62c11.37,0,20.37,2.91,20.37,16.23V69.08c0,3.12-.12,6.18-.3,9.12-6.3,3.12-13.8,4.29-22.32,4.29-14.31,0-20.82-4.38-20.82-16,0-9.27,3.9-15.12,13.44-16.56,6.51-1,14.67-1.29,22.83-1.56V46c0-8.73-3-12.33-14.55-12.33A127.08,127.08,0,0,0,55.8,35.2ZM73.54,76.55A40.45,40.45,0,0,0,88,74.15c.15-2.55.21-5.88.21-8.4V53.87c-6.12.12-14.67.3-20.28,1.44-6.09,1.23-8.76,3.66-8.76,11C59.17,74.57,63.49,76.55,73.54,76.55Z"/><path class="cls-1" d="M113,41.24c0,7.14,5.49,7.92,13.17,10.29,10.74,3.33,16.8,6.06,16.8,15.93,0,11.79-8.76,15-20.4,15a79.67,79.67,0,0,1-17-1.77l.72-5.73A87.51,87.51,0,0,0,120,76.25c6.27,0,15.51,0,15.51-8.37,0-6.78-4.74-8-13.08-10.47s-16.74-4.5-16.74-15.48c0-11.16,7.71-14.31,18.48-14.31a80.73,80.73,0,0,1,17.4,1.77L140.88,35a78,78,0,0,0-13.38-1.29C121.38,33.74,113,33.89,113,41.24Z"/><path class="cls-1" d="M189.21,81.77V48.23c0-10.11-2-14.43-15.54-14.43a41.3,41.3,0,0,0-13.35,2.34V81.77h-7.26V7.7h7.26V29.84a57.49,57.49,0,0,1,15.54-2.22c18.24-.09,20.61,7.8,20.61,19.11v35Z"/><path class="cls-1" d="M216.35,81.77h-7.26V41.21c0-3.12.09-6.18.3-9.12a61,61,0,0,1,22-4.47c6.78,0,11.1,1.62,13.83,4.32a45.71,45.71,0,0,1,19.62-4.32c16,0,18.39,8.88,18.39,19.44V81.77H276V48.35c0-10.14-2.52-14.58-13.41-14.58a32.36,32.36,0,0,0-14,3.54,30.36,30.36,0,0,1,1.29,9.75V81.77h-7.29V48.35c0-10.14-2.49-14.58-13.41-14.58a37.75,37.75,0,0,0-12.51,2.58c-.15,2.52-.21,5.85-.21,8.37Z"/><path class="cls-1" d="M294.92,55c0-19.38,5.82-27.42,23.37-27.42,18.09,0,23,9.45,23,24.06,0,1.5-.06,3.48-.15,5.07-6.12,1-18.78,2.22-26.25,2.52l-12.66.51c.9,11,4.2,16.56,17.67,16.56a138.59,138.59,0,0,0,18.87-1.5l.66,5.88A133.78,133.78,0,0,1,317,82.49C299.54,82.49,294.92,70.88,294.92,55Zm21.24-1.44c4.68-.21,12.72-.84,17.64-1.47.09-1.08.12-2.64.12-3.75,0-9.06-4-14.82-15.63-14.82-13.44,0-16.26,6.9-16.26,20.7Z"/><path class="cls-1" d="M352.13,81.77V41c0-3.12.09-6.18.3-9.12,5.88-3.09,13.32-4.29,20-4.29a41.75,41.75,0,0,1,5,.24l-.6,6.18a40,40,0,0,0-4.38-.21,33.76,33.76,0,0,0-12.87,2.43c-.15,2.52-.21,5.88-.21,8.4V81.77Z"/><path class="cls-1" d="M382.72,55c0-19.38,5.82-27.42,23.37-27.42,18.09,0,23,9.45,23,24.06,0,1.5-.06,3.48-.15,5.07-6.12,1-18.78,2.22-26.25,2.52L390,59.78c.9,11,4.2,16.56,17.67,16.56a138.59,138.59,0,0,0,18.87-1.5l.66,5.88a133.15,133.15,0,0,1-22.38,1.77C387.34,82.49,382.72,70.88,382.72,55ZM404,53.6c4.68-.21,12.72-.84,17.64-1.47.09-1.08.12-2.64.12-3.75,0-9.06-4-14.82-15.63-14.82-13.44,0-16.26,6.9-16.26,20.7Z"/><path class="cls-2" d="M6.52,110.08H8.44v5.81a15.68,15.68,0,0,1,3.91-.53c4.23,0,5.94,1.85,5.94,7.26s-1.88,7.28-6.38,7.28a11.78,11.78,0,0,1-5.32-1.14c0-.78-.07-1.59-.07-2.42Zm1.92,15.36c0,.67,0,1.55.06,2.22a8.83,8.83,0,0,0,3.41.64c3.52,0,4.44-1.88,4.44-5.68,0-4-.68-5.66-4.62-5.66a11.12,11.12,0,0,0-3.29.55Z"/><path class="cls-2" d="M30.29,115.55h2L25.7,134.92h-2l2.14-6.21-5.72-13.16h2.06l4.55,10.64Z"/><path class="cls-3" d="M59.6,141a11,11,0,0,1-3.6-2.87,12.79,12.79,0,0,1-2.42-4.22,15.06,15.06,0,0,1-.92-5.19c0-10.91,9.11-16.85,8.11-27.9a6.18,6.18,0,0,0-.3-1.81,4,4,0,0,0-.86-1.47,11.12,11.12,0,0,1,3.59,2.87,13.3,13.3,0,0,1,2.42,4.23,16,16,0,0,1,.92,5.18c0,9.45-8.63,16.38-8.63,26.5a8,8,0,0,0,.44,2.6A10,10,0,0,0,59.6,141"/><polygon class="cls-1" points="92.43 129.88 92.43 119.77 83.03 119.77 83.03 129.88 79 129.88 79 106.99 83.03 106.99 83.03 116.55 92.43 116.55 92.43 106.99 96.4 106.99 96.4 129.88 92.43 129.88"/><path class="cls-1" d="M102.49,122.94c.2,3.37,2,4.18,4.68,4.18a54.23,54.23,0,0,0,6.24-.46l.3,2.82a44.41,44.41,0,0,1-7.55.65c-5.89,0-7.39-3.82-7.39-9,0-6.33,2-9,7.79-9,6.34,0,7.65,3.32,7.65,8.55a8.65,8.65,0,0,1-.06,1.25,80.76,80.76,0,0,1-8.65.91Zm3.42-2.66a44.84,44.84,0,0,0,4.53-.41V119c0-2.66-1-4.17-3.88-4.17-3.72,0-4.22,2.31-4.22,5.48Z"/><path class="cls-1" d="M116.17,124.7c0-3.07,1.37-5,4.73-5.48a47.49,47.49,0,0,1,6.19-.46c0-2.42-1.11-3.62-3.73-3.62a44.33,44.33,0,0,0-6.09.45l-.3-2.76a42,42,0,0,1,6.8-.65c3.82,0,7,1,7,5.48v7.74c0,1.16-.06,2.16-.15,3.22-2,1.11-4.53,1.51-7.85,1.51-4.83,0-6.64-1.86-6.64-5.43M127,121.18a22.52,22.52,0,0,0-4.78.46c-1.81.46-2.51,1-2.51,3s1.2,2.77,3.47,2.77a9,9,0,0,0,3.62-.55c0-.7.15-1.51.15-2.37v-3.26h0Z"/><path class="cls-1" d="M133.73,105.59h3.77V125.2a6.38,6.38,0,0,0,1.26,4l-3.27,1.51a7.25,7.25,0,0,1-1.81-5.28V105.62Z"/><path class="cls-1" d="M150.78,129.88a16.38,16.38,0,0,1-2.62.26c-3.57,0-5-1.51-5-4.78V115.15h-2.92v-2.77h2.92v-4.33l3.77-.65v4.93h3.62v2.77h-3.62V125c0,1.66.7,2.22,2.36,2.22.45,0,.91,0,1.36,0Z"/><path class="cls-1" d="M168.44,129.88h-3.77V119.07c0-2.82-.51-4-4.18-4a8.09,8.09,0,0,0-3.32.71v14.08H153.4V105.59h3.77v7.19a14.73,14.73,0,0,1,4.32-.65c6.19,0,6.84,2.87,6.84,6.54v11.21Z"/><path class="cls-3" d="M187.2,110.37a25.44,25.44,0,0,0-4.53-.41c-6.13,0-6.18,3.57-6.18,8.35s0,8.35,6.18,8.35a27.53,27.53,0,0,0,4.53-.4l.4,3.06a22.68,22.68,0,0,1-5.74.65c-7.54,0-9.4-3.57-9.4-11.67s1.86-11.67,9.4-11.67a22.68,22.68,0,0,1,5.74.65Z"/><path class="cls-3" d="M190,124.7c0-3.07,1.36-5,4.72-5.48a47.49,47.49,0,0,1,6.19-.46c0-2.42-1.11-3.62-3.72-3.62a44.33,44.33,0,0,0-6.09.45l-.3-2.76a41.75,41.75,0,0,1,6.79-.65c3.82,0,7,1,7,5.48v7.74a22.44,22.44,0,0,1-.15,3.22c-2,1.11-4.53,1.51-7.85,1.51-4.77,0-6.63-1.86-6.63-5.43m10.91-3.52a22.52,22.52,0,0,0-4.78.46c-1.81.46-2.51,1-2.51,3s1.2,2.77,3.47,2.77a9,9,0,0,0,3.62-.55c0-.7.15-1.51.15-2.37v-3.26h0Z"/><path class="cls-3" d="M217,129.88a16.38,16.38,0,0,1-2.62.26c-3.57,0-5-1.51-5-4.78V115.15h-2.91v-2.77h2.91v-4.33l3.77-.65v4.93h3.63v2.77H213V125c0,1.66.7,2.22,2.36,2.22.46,0,.91,0,1.37,0Z"/><path class="cls-3" d="M219.7,124.7c0-3.07,1.36-5,4.72-5.48a47.49,47.49,0,0,1,6.19-.46c0-2.42-1.11-3.62-3.73-3.62a46,46,0,0,0-6.09.45l-.29-2.76a41.75,41.75,0,0,1,6.79-.65c3.82,0,7,1,7,5.48v7.74c0,1.16,0,2.16-.15,3.22-2,1.11-4.53,1.51-7.85,1.51-4.82,0-6.63-1.86-6.63-5.43m10.91-3.52a22.52,22.52,0,0,0-4.78.46c-1.81.46-2.51,1-2.51,3s1.2,2.77,3.47,2.77a9,9,0,0,0,3.62-.55c0-.7.15-1.51.15-2.37v-3.26h0Z"/><path class="cls-3" d="M236.59,105.59h3.78V125.2a6.31,6.31,0,0,0,1.25,4l-3.27,1.51a7.25,7.25,0,0,1-1.81-5.28V105.59Z"/><polygon class="cls-3" points="251.74 124.05 255.46 112.33 259.28 112.33 251.14 136.32 247.36 136.32 250.03 128.72 242.98 112.33 246.91 112.33 251.74 124.05"/><path class="cls-3" d="M268.69,125.05c0-2-1.81-2.16-3.47-2.66-2.82-.86-5.49-1.61-5.49-5.38s2.67-4.93,6.19-4.93a23.86,23.86,0,0,1,6.19.7l-.41,2.77a24.09,24.09,0,0,0-4.32-.46c-1.41,0-4,0-4,1.81s2.11,2.17,3.56,2.67c3,1,5.44,1.61,5.44,5.43,0,4-3,5.18-6.84,5.18a28.37,28.37,0,0,1-6.09-.7l.4-2.82a29.38,29.38,0,0,0,4.68.5c1.46,0,4.13,0,4.13-2.11"/><path class="cls-3" d="M285.24,129.88a16.5,16.5,0,0,1-2.62.26c-3.57,0-5-1.51-5-4.78V115.15H274.7v-2.77h2.92v-4.33l3.77-.65v4.93H285v2.77h-3.62V125c0,1.66.7,2.22,2.36,2.22.46,0,.91,0,1.37,0Z"/><path class="cls-1" d="M67.79,140.39a7.76,7.76,0,0,1-2.42-1.91,9.11,9.11,0,0,1-1.64-2.87,10.83,10.83,0,0,1-.61-3.47c0-7.34,6.72-11.5,5.66-20.95a13.68,13.68,0,0,1,3,4.77,10.59,10.59,0,0,1,.62,3.48c0,6.31-5.77,10.95-5.77,17.77a5,5,0,0,0,.3,1.75,4.44,4.44,0,0,0,.86,1.43"/><path class="cls-1" d="M50.94,127.93A7.57,7.57,0,0,1,48.52,126a9,9,0,0,1-1.64-2.86,10.59,10.59,0,0,1-.62-3.48c0-7.33,6.72-11.5,5.67-21a13.81,13.81,0,0,1,3,4.78,10.83,10.83,0,0,1,.61,3.47c0,6.32-5.77,11-5.77,17.78a5,5,0,0,0,.31,1.74,4.27,4.27,0,0,0,.86,1.43"/><path class="cls-3" d="M288.65,107.39a1.75,1.75,0,1,1-1.79-1.71h0a1.72,1.72,0,0,1,1.75,1.69Zm-3.06,0a1.32,1.32,0,0,0,1.28,1.36h.05a1.36,1.36,0,1,0-1.33-1.39Zm1,.89h-.39v-1.71a3.53,3.53,0,0,1,.65,0,1,1,0,0,1,.59.13.47.47,0,0,1,.16.37.44.44,0,0,1-.35.4h0a.5.5,0,0,1,.32.42,1.62,1.62,0,0,0,.12.43h-.42a1.88,1.88,0,0,1-.14-.42c0-.19-.13-.27-.35-.27h-.19v.65Zm0-1h.19c.22,0,.4-.07.4-.24s-.12-.27-.37-.27a.41.41,0,0,0-.22,0Z"/></svg>