<?xml version="1.0" encoding="UTF-8"?>
<svg id="Layer_1" data-name="Layer 1" xmlns="http://www.w3.org/2000/svg" viewBox="0 0 301.74 28.99">
  <defs>
    <style>
      .cls-1 {
        fill: #006d9a;
      }

      .cls-2 {
        isolation: isolate;
      }
    </style>
  </defs>
  <g id="Group_8" data-name="Group 8">
    <g id="Group_6" data-name="Group 6">
      <g id="catalyst-flame">
        <path id="Path_185" data-name="Path 185" class="cls-1" d="m115.97,27.04c-.87-.43-1.63-1.04-2.25-1.78-.65-.78-1.15-1.67-1.49-2.64-.36-1.04-.55-2.13-.55-3.23,0-6.76,5.61-10.41,5.02-17.3,0-.39-.08-.78-.21-1.15-.12-.34-.29-.65-.51-.93.87.43,1.63,1.04,2.25,1.79.65.78,1.15,1.67,1.49,2.63.36,1.04.55,2.13.55,3.23,0,5.87-5.31,10.16-5.31,16.41,0,.55.09,1.1.3,1.61.16.49.41.95.72,1.36"/>
        <path id="Path_186" data-name="Path 186" class="cls-1" d="m121.07,26.65c-.57-.3-1.07-.7-1.49-1.19-.43-.52-.77-1.11-1.02-1.74-.24-.7-.37-1.43-.38-2.17,0-4.55,4.17-7.1,3.53-12.97.82.84,1.45,1.84,1.87,2.93.26.69.39,1.43.38,2.17,0,3.91-3.57,6.8-3.57,10.97,0,.36.07.72.17,1.06.09.35.27.67.51.94"/>
        <path id="Path_187" data-name="Path 187" class="cls-1" d="m110.61,18.96c-.57-.3-1.08-.7-1.49-1.19-.43-.52-.77-1.11-1.02-1.74-.26-.69-.39-1.43-.38-2.17,0-4.55,4.17-7.1,3.53-12.97.82.84,1.45,1.84,1.87,2.93.26.69.39,1.43.38,2.17,0,3.91-3.57,6.8-3.57,10.97,0,.36.07.72.17,1.06.11.34.28.66.51.93"/>
      </g>
      <g id="powered_by" data-name="powered by" class="cls-2">
        <g class="cls-2">
          <path class="cls-1" d="m6.03,19.84c-.63,0-1.2-.12-1.72-.35s-.95-.59-1.31-1.07h-.11c.07.56.11,1.1.11,1.6v3.96h-1.46v-13.96h1.19l.2,1.32h.07c.38-.53.81-.91,1.31-1.14s1.07-.35,1.71-.35c1.28,0,2.26.44,2.96,1.31s1.04,2.1,1.04,3.67-.35,2.81-1.06,3.69c-.71.88-1.69,1.31-2.94,1.31Zm-.21-8.75c-.98,0-1.7.27-2.14.82s-.67,1.41-.68,2.6v.32c0,1.35.23,2.32.68,2.91.45.58,1.17.87,2.17.87.83,0,1.48-.34,1.96-1.01s.71-1.6.71-2.79-.24-2.12-.71-2.76c-.47-.64-1.14-.96-1.99-.96Z"/>
          <path class="cls-1" d="m20.89,14.84c0,1.57-.4,2.8-1.19,3.68-.79.88-1.88,1.32-3.28,1.32-.86,0-1.63-.2-2.29-.61s-1.18-.98-1.55-1.74-.54-1.64-.54-2.65c0-1.57.39-2.79,1.18-3.67s1.88-1.31,3.27-1.31,2.42.45,3.21,1.34,1.19,2.11,1.19,3.64Zm-7.34,0c0,1.23.25,2.17.74,2.81s1.22.97,2.17.97,1.68-.32,2.18-.96c.5-.64.74-1.58.74-2.82s-.25-2.15-.74-2.79-1.23-.95-2.19-.95-1.68.31-2.16.94-.73,1.56-.73,2.8Z"/>
          <path class="cls-1" d="m31.32,19.66l-1.77-5.65c-.11-.35-.32-1.13-.62-2.35h-.07c-.23,1.03-.44,1.82-.62,2.37l-1.82,5.63h-1.69l-2.63-9.63h1.53c.62,2.42,1.09,4.26,1.42,5.53s.51,2.12.56,2.56h.07c.06-.33.17-.77.31-1.3.14-.53.27-.95.37-1.26l1.77-5.53h1.58l1.72,5.53c.33,1.01.55,1.86.67,2.54h.07c.02-.21.09-.54.19-.98s.71-2.8,1.83-7.09h1.51l-2.66,9.63h-1.73Z"/>
          <path class="cls-1" d="m41.52,19.84c-1.42,0-2.55-.43-3.37-1.3s-1.23-2.07-1.23-3.61.38-2.79,1.15-3.7,1.79-1.37,3.08-1.37c1.21,0,2.16.4,2.87,1.19s1.05,1.84,1.05,3.14v.92h-6.64c.03,1.13.31,1.99.86,2.57s1.31.88,2.29.88c1.04,0,2.06-.22,3.08-.65v1.3c-.52.22-1,.38-1.46.48-.46.1-1.02.14-1.67.14Zm-.4-8.76c-.77,0-1.39.25-1.85.76s-.73,1.2-.81,2.09h5.04c0-.92-.21-1.62-.62-2.11-.41-.49-1-.73-1.76-.73Z"/>
          <path class="cls-1" d="m51.94,9.85c.43,0,.81.04,1.15.11l-.2,1.35c-.4-.09-.75-.13-1.05-.13-.78,0-1.45.32-2,.95s-.83,1.42-.83,2.36v5.17h-1.46v-9.63h1.2l.17,1.78h.07c.36-.63.79-1.11,1.29-1.45s1.06-.51,1.66-.51Z"/>
          <path class="cls-1" d="m58.97,19.84c-1.42,0-2.55-.43-3.37-1.3s-1.23-2.07-1.23-3.61.38-2.79,1.15-3.7,1.79-1.37,3.08-1.37c1.21,0,2.16.4,2.87,1.19s1.05,1.84,1.05,3.14v.92h-6.64c.03,1.13.31,1.99.86,2.57s1.31.88,2.29.88c1.04,0,2.06-.22,3.08-.65v1.3c-.52.22-1,.38-1.46.48-.46.1-1.02.14-1.67.14Zm-.4-8.76c-.77,0-1.39.25-1.85.76s-.73,1.2-.81,2.09h5.04c0-.92-.21-1.62-.62-2.11-.41-.49-1-.73-1.76-.73Z"/>
          <path class="cls-1" d="m71.55,18.37h-.08c-.67.98-1.68,1.47-3.02,1.47-1.26,0-2.24-.43-2.94-1.29s-1.05-2.09-1.05-3.67.35-2.82,1.05-3.7,1.68-1.32,2.94-1.32,2.31.47,3.01,1.42h.11l-.06-.69-.04-.68v-3.92h1.46v13.68h-1.19l-.19-1.29Zm-2.92.25c1,0,1.72-.27,2.17-.81.45-.54.67-1.42.67-2.62v-.31c0-1.37-.23-2.34-.68-2.92-.45-.58-1.18-.87-2.18-.87-.86,0-1.51.33-1.96,1-.45.67-.68,1.6-.68,2.82s.23,2.16.68,2.79,1.11.94,1.99.94Z"/>
          <path class="cls-1" d="m85.18,9.87c1.27,0,2.25.43,2.95,1.3s1.05,2.09,1.05,3.67-.35,2.81-1.06,3.69c-.71.88-1.69,1.31-2.94,1.31-.63,0-1.2-.12-1.72-.35s-.95-.59-1.31-1.07h-.11l-.31,1.24h-1.05V5.99h1.46v3.32c0,.74-.02,1.41-.07,2h.07c.68-.96,1.69-1.44,3.02-1.44Zm-.21,1.22c-1,0-1.71.29-2.15.86-.44.57-.66,1.53-.66,2.89s.23,2.32.68,2.91c.45.58,1.17.87,2.17.87.9,0,1.56-.33,2-.98.44-.65.66-1.59.66-2.82s-.22-2.19-.66-2.8-1.12-.92-2.04-.92Z"/>
          <path class="cls-1" d="m90.2,10.03h1.56l2.11,5.49c.46,1.25.75,2.16.86,2.72h.07c.08-.3.24-.81.48-1.53.24-.72,1.04-2.95,2.39-6.68h1.56l-4.14,10.97c-.41,1.08-.89,1.85-1.44,2.31-.55.45-1.22.68-2.02.68-.45,0-.88-.05-1.32-.15v-1.17c.32.07.68.11,1.08.11,1,0,1.72-.56,2.14-1.69l.54-1.37-3.88-9.69Z"/>
        </g>
      </g>
      <g id="Healthcare.AI" class="cls-2">
        <g class="cls-2">
          <path class="cls-1" d="m143.6,21.93h-2.93v-8.04h-8.23v8.04h-2.92V4.09h2.92v7.3h8.23v-7.3h2.93v17.85Z"/>
          <path class="cls-1" d="m153.89,22.18c-2.1,0-3.74-.61-4.92-1.84-1.18-1.22-1.78-2.91-1.78-5.06s.55-3.94,1.65-5.2c1.1-1.26,2.61-1.89,4.53-1.89,1.78,0,3.19.54,4.22,1.62,1.03,1.08,1.55,2.57,1.55,4.47v1.55h-9c.04,1.31.39,2.32,1.06,3.02.67.7,1.61,1.06,2.82,1.06.8,0,1.54-.08,2.23-.23s1.43-.4,2.22-.75v2.33c-.7.33-1.41.57-2.12.71-.72.14-1.53.21-2.45.21Zm-.52-11.82c-.91,0-1.64.29-2.19.87-.55.58-.88,1.42-.98,2.53h6.13c-.02-1.12-.29-1.96-.81-2.53-.52-.57-1.24-.86-2.15-.86Z"/>
          <path class="cls-1" d="m170.84,21.93l-.57-1.88h-.1c-.65.82-1.31,1.38-1.96,1.68s-1.51.45-2.54.45c-1.33,0-2.36-.36-3.11-1.07-.75-.72-1.12-1.73-1.12-3.04,0-1.39.52-2.44,1.55-3.15,1.03-.71,2.61-1.09,4.72-1.16l2.33-.07v-.72c0-.86-.2-1.51-.6-1.93-.4-.43-1.03-.64-1.87-.64-.69,0-1.36.1-1.99.31-.63.2-1.25.44-1.83.72l-.93-2.05c.73-.38,1.53-.67,2.41-.87.87-.2,1.69-.3,2.47-.3,1.72,0,3.01.37,3.89,1.12s1.31,1.92,1.31,3.53v9.09h-2.05Zm-4.27-1.95c1.04,0,1.88-.29,2.51-.87.63-.58.95-1.4.95-2.45v-1.17l-1.73.07c-1.35.05-2.33.27-2.95.68-.62.4-.92,1.02-.92,1.85,0,.6.18,1.07.54,1.4.36.33.89.49,1.61.49Z"/>
          <path class="cls-1" d="m179.76,21.93h-2.87V2.94h2.87v18.99Z"/>
          <path class="cls-1" d="m188.9,19.86c.7,0,1.4-.11,2.1-.33v2.16c-.32.14-.73.25-1.23.35-.5.09-1.02.14-1.56.14-2.72,0-4.08-1.43-4.08-4.3v-7.28h-1.84v-1.27l1.98-1.05.98-2.86h1.77v3h3.85v2.17h-3.85v7.23c0,.69.17,1.2.52,1.53.35.33.8.49,1.36.49Z"/>
          <path class="cls-1" d="m205.57,21.93h-2.88v-8.3c0-1.04-.21-1.82-.63-2.33-.42-.51-1.08-.77-2-.77-1.21,0-2.09.36-2.66,1.08-.57.72-.85,1.93-.85,3.62v6.7h-2.87V2.94h2.87v4.82c0,.77-.05,1.6-.15,2.48h.18c.39-.65.93-1.16,1.63-1.51.7-.36,1.51-.54,2.43-.54,3.27,0,4.91,1.65,4.91,4.94v8.8Z"/>
          <path class="cls-1" d="m215.01,22.18c-2.04,0-3.59-.6-4.66-1.79-1.06-1.19-1.59-2.9-1.59-5.13s.56-4.02,1.67-5.24c1.11-1.22,2.72-1.83,4.82-1.83,1.42,0,2.71.26,3.85.79l-.87,2.31c-1.21-.47-2.21-.71-3-.71-2.34,0-3.5,1.55-3.5,4.65,0,1.51.29,2.65.87,3.41.58.76,1.43,1.14,2.56,1.14,1.28,0,2.49-.32,3.63-.95v2.5c-.51.3-1.06.52-1.64.65-.58.13-1.29.2-2.12.2Z"/>
          <path class="cls-1" d="m230.39,21.93l-.57-1.88h-.1c-.65.82-1.31,1.38-1.96,1.68s-1.51.45-2.54.45c-1.33,0-2.36-.36-3.11-1.07-.75-.72-1.12-1.73-1.12-3.04,0-1.39.52-2.44,1.55-3.15,1.03-.71,2.61-1.09,4.72-1.16l2.33-.07v-.72c0-.86-.2-1.51-.6-1.93-.4-.43-1.03-.64-1.87-.64-.69,0-1.36.1-1.99.31-.63.2-1.25.44-1.83.72l-.93-2.05c.73-.38,1.53-.67,2.41-.87.87-.2,1.69-.3,2.47-.3,1.72,0,3.01.37,3.89,1.12s1.31,1.92,1.31,3.53v9.09h-2.05Zm-4.27-1.95c1.04,0,1.88-.29,2.51-.87.63-.58.95-1.4.95-2.45v-1.17l-1.73.07c-1.35.05-2.33.27-2.95.68-.62.4-.92,1.02-.92,1.85,0,.6.18,1.07.54,1.4.36.33.89.49,1.61.49Z"/>
          <path class="cls-1" d="m243.29,8.19c.58,0,1.05.04,1.43.12l-.28,2.67c-.41-.1-.83-.15-1.27-.15-1.15,0-2.08.37-2.79,1.12-.71.75-1.07,1.72-1.07,2.92v7.06h-2.87v-13.5h2.25l.38,2.38h.15c.45-.8,1.03-1.44,1.75-1.92.72-.47,1.5-.71,2.33-.71Z"/>
          <path class="cls-1" d="m253.12,22.18c-2.1,0-3.74-.61-4.93-1.84-1.18-1.22-1.78-2.91-1.78-5.06s.55-3.94,1.65-5.2c1.1-1.26,2.61-1.89,4.53-1.89,1.78,0,3.19.54,4.22,1.62,1.03,1.08,1.55,2.57,1.55,4.47v1.55h-9c.04,1.31.39,2.32,1.06,3.02.67.7,1.61,1.06,2.82,1.06.8,0,1.54-.08,2.23-.23.69-.15,1.43-.4,2.22-.75v2.33c-.7.33-1.41.57-2.12.71-.72.14-1.53.21-2.45.21Zm-.53-11.82c-.91,0-1.64.29-2.19.87-.55.58-.88,1.42-.98,2.53h6.13c-.02-1.12-.29-1.96-.81-2.53-.52-.57-1.24-.86-2.15-.86Z"/>
          <path class="cls-1" d="m261.2,20.41c0-.59.15-1.05.46-1.37.31-.32.76-.48,1.34-.48s1.04.17,1.35.49c.31.33.46.78.46,1.35s-.16,1.04-.47,1.37c-.31.34-.76.51-1.35.51s-1.03-.17-1.34-.5c-.31-.33-.46-.79-.46-1.38Z"/>
          <path class="cls-1" d="m279.88,21.93l-1.78-4.96h-6.82l-1.75,4.96h-3.08l6.68-17.92h3.17l6.68,17.92h-3.1Zm-2.55-7.47l-1.67-4.86c-.12-.33-.29-.84-.51-1.54s-.36-1.21-.45-1.54c-.22,1-.54,2.1-.96,3.28l-1.61,4.65h5.2Z"/>
          <path class="cls-1" d="m285.33,21.93V4.09h2.92v17.85h-2.92Z"/>
        </g>
      </g>
      <path id="Path_199" data-name="Path 199" class="cls-1" d="m295.09,8.51h-.74v-3.88h-1.33v-.63h3.39v.63h-1.33v3.88Zm3.97,0l-1.31-3.77h-.03c.03.56.05,1.08.05,1.57v2.19h-.67v-4.51h1.04l1.25,3.59h.02l1.29-3.59h1.04v4.51h-.71v-2.23c0-.22,0-.52.02-.88.01-.36.02-.58.03-.65h-.03l-1.35,3.76h-.65Z"/>
    </g>
  </g>
</svg>