<svg id="Layer_1" data-name="Layer 1" xmlns="http://www.w3.org/2000/svg" viewBox="0 0 352.44 352.44"><defs><style>.cls-1{fill:#00aeb7;}.cls-2{fill:#00838f;}.cls-3{fill:#a5573f;}.cls-4{fill:#914426;}.cls-5{fill:#5b2a1b;}.cls-6{fill:#231f20;}</style></defs><circle class="cls-1" cx="176.22" cy="176.22" r="176.22" transform="translate(-72.99 176.22) rotate(-45)"/><path class="cls-2" d="M176.36,0V352.43A176.22,176.22,0,0,0,176.36,0Z"/><ellipse class="cls-3" cx="177.47" cy="177.35" rx="85" ry="100.68"/><path class="cls-4" d="M177.47,76.67h-.65V278h.65c46.94,0,85-45.08,85-100.68S224.41,76.67,177.47,76.67Z"/><path class="cls-5" d="M177.66,237.64a28.7,28.7,0,0,0,28.57-28.33H149.09A28.69,28.69,0,0,0,177.66,237.64Z"/><path class="cls-6" d="M161.37,165.39a7.49,7.49,0,1,0,7.49,7.49A7.49,7.49,0,0,0,161.37,165.39Z"/><path class="cls-6" d="M194,165.39a7.49,7.49,0,1,0,7.49,7.49A7.49,7.49,0,0,0,194,165.39Z"/><rect class="cls-6" x="142.8" y="145.56" width="26.06" height="4.55"/><rect class="cls-6" x="186.46" y="145.56" width="26.06" height="4.55"/><path class="cls-6" d="M177.52,244.05c-17.32,0-31.81-14.84-35.42-34.67a62.06,62.06,0,0,0-7.92,30.79c0,29.71,19.7,53.8,44,53.8s44-24.09,44-53.8a61.67,61.67,0,0,0-9-32.56C210.18,228.33,195.35,244.05,177.52,244.05Z"/><path class="cls-3" d="M92.1,158.33a13,13,0,1,0,12.65,13A12.84,12.84,0,0,0,92.1,158.33Z"/><ellipse class="cls-4" cx="261.34" cy="171.36" rx="12.65" ry="13.03"/><path class="cls-6" d="M205,193.28H149.32a5.4,5.4,0,0,0,0,10.8H205a5.4,5.4,0,1,0,0-10.8Z"/><path class="cls-6" d="M241.4,71.18H112.55a6.09,6.09,0,0,0-6.07,6.07V113a6.08,6.08,0,0,0,3.29,5.39c15.21-10.4,40.47-17.2,69.06-17.2,27.37,0,51.68,6.24,67,15.88a6,6,0,0,0,1.59-4.07V77.25A6.09,6.09,0,0,0,241.4,71.18Z"/></svg>