<svg id="Layer_1" data-name="Layer 1" xmlns="http://www.w3.org/2000/svg" viewBox="0 0 352.44 352.44"><defs><style>.cls-1{fill:#0277bd;}.cls-2{fill:#01579b;}.cls-3{fill:#ffe7d7;}.cls-4{fill:#f2d4c0;}.cls-5{fill:#231f20;}.cls-6{fill:#682319;}.cls-7{fill:#e64a19;}.cls-8{fill:#ff9100;}.cls-9{fill:#fff;}</style></defs><circle class="cls-1" cx="176.22" cy="176.22" r="176.22" transform="translate(-72.99 176.22) rotate(-45)"/><path class="cls-2" d="M176.36,0V352.43A176.22,176.22,0,0,0,176.36,0Z"/><ellipse class="cls-3" cx="176.47" cy="185.12" rx="85" ry="100.68"/><path class="cls-4" d="M176.47,84.44h-.64V285.8h.64c46.94,0,85-45.08,85-100.69S223.41,84.44,176.47,84.44Z"/><circle class="cls-5" cx="193.23" cy="190.69" r="7.49" transform="translate(-28.05 33.41) rotate(-9.22)"/><path class="cls-6" d="M198.51,163.26a21,21,0,0,0-12.77,4.08v6.37c3.07-4.19,25.83-5.25,29.12-2.41C212,166.56,205.78,163.26,198.51,163.26Z"/><path class="cls-5" d="M157.47,183.64a7.49,7.49,0,1,0,7.49,7.49A7.49,7.49,0,0,0,157.47,183.64Z"/><path class="cls-6" d="M135.84,170.85c3.29-2.83,26-1.78,29.12,2.42V166.9a21,21,0,0,0-12.78-4.08C144.92,162.82,138.67,166.11,135.84,170.85Z"/><path class="cls-7" d="M189.67,235.63c-2.5-1-4.85-2.58-7.42-3.22s-5.57-.12-7.24,2.38h-.44c-1.66-2.5-4.66-3-7.23-2.38s-4.93,2.22-7.42,3.22a17.57,17.57,0,0,1-10.92.76c6.22,9.13,16.19,14.11,25.79,12.93,9.61,1.18,19.58-3.8,25.79-12.93A17.53,17.53,0,0,1,189.67,235.63Z"/><path class="cls-8" d="M176.21,75.27c-53.23,0-90.56,44.79-100.58,104.38-2.43,14.44-3.8,28.58-2,50.08l39.47,26.82.25-94.36c.25-39.46,125.47-31.12,126-2l-.51,100.17,38.71-26.56a299.83,299.83,0,0,0-2.28-49.58C265.92,116.33,229.44,75.27,176.21,75.27Z"/><path class="cls-9" d="M256.72,99.61H243.07a65.24,65.24,0,0,0-130.21,0H99.2a6.09,6.09,0,0,0-6.07,6.07V108a6.09,6.09,0,0,0,6.07,6.07H256.72a6.09,6.09,0,0,0,6.07-6.07v-2.36A6.09,6.09,0,0,0,256.72,99.61Z"/></svg>