<svg id="Layer_1" data-name="Layer 1" xmlns="http://www.w3.org/2000/svg" viewBox="0 0 352.44 352.44"><defs><style>.cls-1{fill:#607d8b;}.cls-2{fill:#546e7a;}.cls-3{fill:#ffccbc;}.cls-4{fill:#efac9a;}.cls-5{fill:#b76b5c;}.cls-6{fill:#231f20;}</style></defs><circle class="cls-1" cx="176.22" cy="176.22" r="176.22"/><path class="cls-2" d="M176.36,0V352.43A176.22,176.22,0,0,0,176.36,0Z"/><ellipse class="cls-3" cx="177.81" cy="169.23" rx="85" ry="100.68"/><path class="cls-4" d="M177.81,68.55h-.64V269.91h.64c46.94,0,85-45.07,85-100.68S224.75,68.55,177.81,68.55Z"/><path class="cls-5" d="M178,229.52a28.69,28.69,0,0,0,28.57-28.33H149.43A28.7,28.7,0,0,0,178,229.52Z"/><path class="cls-6" d="M161.71,157.28a7.49,7.49,0,1,0,7.49,7.48A7.48,7.48,0,0,0,161.71,157.28Z"/><path class="cls-6" d="M194.29,157.28a7.49,7.49,0,1,0,7.49,7.48A7.49,7.49,0,0,0,194.29,157.28Z"/><rect class="cls-6" x="143.14" y="137.44" width="26.06" height="4.55"/><rect class="cls-6" x="186.8" y="137.44" width="26.06" height="4.55"/><path class="cls-6" d="M222.89,144.86H191.57a9.67,9.67,0,0,0-9.66,9.66v9.36h-5.65v-9.36a9.67,9.67,0,0,0-9.66-9.66H135.28a9.68,9.68,0,0,0-9.66,9.66v21.37a9.67,9.67,0,0,0,9.66,9.66H166.6a9.67,9.67,0,0,0,9.66-9.66v-7.84h5.65v7.84a9.67,9.67,0,0,0,9.66,9.66h31.32a9.67,9.67,0,0,0,9.66-9.66V154.52A9.68,9.68,0,0,0,222.89,144.86Zm-51,31a5.28,5.28,0,0,1-5.27,5.27H135.28a5.28,5.28,0,0,1-5.27-5.27V154.52a5.28,5.28,0,0,1,5.27-5.27H166.6a5.28,5.28,0,0,1,5.27,5.27Zm56.29,0a5.29,5.29,0,0,1-5.27,5.27H191.57a5.28,5.28,0,0,1-5.27-5.27V154.52a5.28,5.28,0,0,1,5.27-5.27h31.32a5.29,5.29,0,0,1,5.27,5.27Z"/><path class="cls-6" d="M198.9,190.82H159.44A19.19,19.19,0,0,0,140.3,210v62.57a19.19,19.19,0,0,0,19.14,19.14H198.9A19.19,19.19,0,0,0,218,272.53V210A19.19,19.19,0,0,0,198.9,190.82Zm13.83,45.79a19.2,19.2,0,0,1-19.14,19.14H164.75a19.2,19.2,0,0,1-19.14-19.14V214.68a19.2,19.2,0,0,1,19.14-19.14h28.84a19.2,19.2,0,0,1,19.14,19.14Z"/><path class="cls-6" d="M82,242.3q-1.62,2.49-3,5A10.75,10.75,0,0,0,82,242.3Z"/><path class="cls-6" d="M284.5,226.85c-5.83-4.87-10.84-5.95-13.67-13,6.37,5.29,16.61,3.89,20.61-1.77-14.34-8.34-24.32-50-24.94-62.9-.48-10-4.73-43.77-31.73-66.44-12.4-10.41-32.67-19.66-58.67-19.33-16,.2-38.51,7.44-51.33,17.33-39.33,30.34-37.85,60-38.33,70-.62,12.87-.93,53.78-15.27,62.11,2.64-1.26,8.64,6.29,15,1-2.82,7.05-7.84,8.13-13.66,13S60.17,236.18,47.79,233c5.05,12.17,15.64,9.64,24.69,10.06l-5.33,7.18a11.93,11.93,0,0,0,11.9-3q1.33-2.5,3-5a10.75,10.75,0,0,1-3,5c-8.64,16.09-7.8,32.35,18.79,48.06C97.75,294.1,96,281,95.91,279.72c3.67,5.09,7.41,10.24,12.27,14.2s11.06,6.69,17.31,6.09a18.71,18.71,0,0,1-1.68-8.53A19.13,19.13,0,0,0,131,293a84.07,84.07,0,0,1-9-29.77l3.48,2c-5.4-24-14.51-101.23-11-120,2.65-14.28,3.33-41.25,16.93-46.1,18.66-6.67,27.68,3.8,45.66,3,22.34-1,27.67-8.67,41.34-5,13.94,3.74,21.41,33.82,24.06,48.1,3.49,18.82-5.63,96-11,120.05l3.49-2A84.07,84.07,0,0,1,226,293a19.13,19.13,0,0,0,7.2-1.5,18.71,18.71,0,0,1-1.68,8.53c6.24.6,12.45-2.12,17.31-6.09s8.59-9.11,12.27-14.2c-.09,1.25.16,12.38.07,13.63,25-17.51,20.11-35.61,14.86-48.55a10,10,0,0,1-1-2.5c.35.81.69,1.64,1,2.5,2.65,4.61,8.73,7.23,13.82,5.45q-2.66-3.6-5.32-7.18c9.05-.42,19.64,2.11,24.68-10.06C296.83,236.18,290.33,231.72,284.5,226.85Z"/><path class="cls-6" d="M276,244.8c-.35-.86-.69-1.69-1-2.5A10,10,0,0,0,276,244.8Z"/></svg>