<svg id="Layer_1" data-name="Layer 1" xmlns="http://www.w3.org/2000/svg" viewBox="0 0 352.44 352.44"><defs><style>.cls-1{fill:#ff3d00;}.cls-2{fill:#dd2c00;}.cls-3{fill:#ffccbc;}.cls-4{fill:#efac9a;}.cls-5{fill:#b76b5c;}.cls-6{fill:#231f20;}.cls-7{fill:#682319;}</style></defs><circle class="cls-1" cx="176.22" cy="176.22" r="176.22"/><path class="cls-2" d="M176.36,0V352.43A176.22,176.22,0,0,0,176.36,0Z"/><ellipse class="cls-3" cx="176.89" cy="189.18" rx="85" ry="100.68"/><path class="cls-4" d="M176.89,88.49h-.64V289.85h.64c47,0,85-45.08,85-100.68S223.84,88.49,176.89,88.49Z"/><path class="cls-5" d="M177.09,249.47a28.7,28.7,0,0,0,28.57-28.34H148.51A28.71,28.71,0,0,0,177.09,249.47Z"/><path class="cls-6" d="M160.8,177.22a7.49,7.49,0,1,0,7.48,7.49A7.49,7.49,0,0,0,160.8,177.22Z"/><path class="cls-6" d="M193.38,177.22a7.49,7.49,0,1,0,7.49,7.49A7.49,7.49,0,0,0,193.38,177.22Z"/><rect class="cls-7" x="142.23" y="157.39" width="26.06" height="4.55"/><rect class="cls-7" x="185.89" y="157.39" width="26.06" height="4.55"/><path class="cls-7" d="M195.92,201.91H156.46a19.19,19.19,0,0,0-19.14,19.14v62.57a19.19,19.19,0,0,0,19.14,19.14h39.46a19.19,19.19,0,0,0,19.14-19.14V221.05A19.19,19.19,0,0,0,195.92,201.91Zm13.83,45.79a19.2,19.2,0,0,1-19.14,19.14H161.77a19.2,19.2,0,0,1-19.14-19.14V225.77a19.19,19.19,0,0,1,19.14-19.14h28.84a19.19,19.19,0,0,1,19.14,19.14Z"/><path class="cls-7" d="M204.34,40.26c-2.24-6-8.87-9.32-15.23-10.28a20.84,20.84,0,0,0-10.52.76c-4.24,1.61-7.53,5.13-9.78,9.07-4.1,7.2-5,15.77-5,24.06s1,16.59.28,24.84a44.59,44.59,0,0,0-.37,7.82A24.88,24.88,0,0,0,168,107.4c2,3.14,4.62,6.26,8.26,7.06,4.81,1,9.63-2.53,11.8-6.95,2.43-4.93,2.39-10.74,1.34-16.13s-3-10.56-4.33-15.9a66,66,0,0,1-1.88-18.15c.13-3.82.72-7.91,3.3-10.73s7.77-3.47,10-.37a8,8,0,0,1,1.23,3.36c.62,3.66.13,7.41.43,11.11s1.6,7.64,4.74,9.61C198.8,60.94,207.88,49.85,204.34,40.26Z"/></svg>