<svg id="Layer_1" data-name="Layer 1" xmlns="http://www.w3.org/2000/svg" viewBox="0 0 352.44 352.44"><defs><style>.cls-1{fill:#b7c1ed;}.cls-2{fill:#9fa8da;}.cls-3{fill:#ffe7d7;}.cls-4{fill:#f2d4c0;}.cls-5{fill:#231f20;}.cls-6{fill:#d81b60;}.cls-7{fill:#7f5e5b;}.cls-8{fill:#66403e;}</style></defs><circle class="cls-1" cx="176.22" cy="176.22" r="176.22" transform="translate(-72.99 176.22) rotate(-45)"/><path class="cls-2" d="M176.36,0V352.43A176.22,176.22,0,0,0,176.36,0Z"/><ellipse class="cls-3" cx="176.93" cy="181.19" rx="85" ry="100.68"/><path class="cls-4" d="M176.93,80.51h-.64V281.87h.64c46.94,0,85-45.08,85-100.69S223.87,80.51,176.93,80.51Z"/><path class="cls-3" d="M92,162.69a13,13,0,1,0,12.64,13A12.84,12.84,0,0,0,92,162.69Z"/><path class="cls-5" d="M193.69,178.76a7.49,7.49,0,1,0,7.49,7.49A7.49,7.49,0,0,0,193.69,178.76Z"/><path class="cls-5" d="M199,158.83a21,21,0,0,0-12.78,4.08v6.37c3.07-4.2,25.83-5.25,29.12-2.42C212.49,162.12,206.24,158.83,199,158.83Z"/><circle class="cls-5" cx="157.93" cy="186.69" r="7.49" transform="translate(-21.63 20.7) rotate(-7.02)"/><path class="cls-5" d="M136.3,166.42c3.29-2.84,26-1.78,29.12,2.42v-6.38a21,21,0,0,0-12.78-4.08C145.38,158.38,139.13,161.68,136.3,166.42Z"/><path class="cls-6" d="M190.13,231.19c-2.5-1-4.85-2.57-7.42-3.21s-5.57-.13-7.23,2.38H175c-1.66-2.51-4.66-3-7.23-2.38s-4.93,2.21-7.42,3.21a17.64,17.64,0,0,1-10.92.77c6.22,9.12,16.19,14.1,25.79,12.92,9.61,1.18,19.58-3.8,25.79-12.92A17.61,17.61,0,0,1,190.13,231.19Z"/><path class="cls-7" d="M142.68,90.42a7.5,7.5,0,0,0-3.41-1.52,7.12,7.12,0,0,0-4.16,1.45A89.82,89.82,0,0,0,93.64,158c-.08,1-.53,4.52-.53,4.52s3.66.33,6.8,9.78c3.65,11,2.86,18.72,3.53,26.38.17-6.38.83-9.61,1-16,.22-8,.06-11.21,3.06-18.64s9.37-14,17.33-14.95c-2.88-10,1.77-21.14,9.53-28.1s18.11-10.37,28.4-12.08C158.21,100.94,150.31,95.54,142.68,90.42Z"/><path class="cls-8" d="M252.81,298.69a19.2,19.2,0,0,0,.64-2.28A18.4,18.4,0,0,0,252.81,298.69Z"/><path class="cls-8" d="M255.09,85.16a17.17,17.17,0,0,1,10.35,3.71c-13.86-30.17-48.68-49.19-81.55-44.56A9.51,9.51,0,0,1,194,39.54a53.92,53.92,0,0,0-49.37,12.9c-7,6.63-12.31,16.08-10.81,25.6.8,5.09,3.46,9.7,6.44,13.91,5.65,8,12.61,14.89,19.93,21.33,5.46,4.82,11.27,9.45,18.06,12.07,5.17,2,10.76,2.76,15.85,4.93,11.19,4.76,18.47,15.5,25.11,25.69a83,83,0,0,0-15-38.36c18,15.91,26.56,41.72,21.69,65.23a12.82,12.82,0,0,0,5-9.54,215.18,215.18,0,0,1-18.57,91.18,20.65,20.65,0,0,0,9.88-15.17c-1.12,16.36-8.76,31.85-19.51,44.25s-24.48,21.89-38.92,29.67a108.06,108.06,0,0,0,34.36-1.78c9.05-1.94,18.91-6,22.14-14.71a21.74,21.74,0,0,1-6.57,10.66c8.09-.44,16.35-.93,23.87-3.95,6.78-2.73,12.94-7.94,15.31-14.76a18.4,18.4,0,0,1,.64-2.28,19.2,19.2,0,0,1-.64,2.28,18,18,0,0,0-.15,6.86c12-13,10.14-33.17,7.54-50.68a49.64,49.64,0,0,0,7.2,7.92c-4.26-22.05,9-43.13,15.92-64.5a116.86,116.86,0,0,0-4-81.61C273.94,104.37,266.17,92.74,255.09,85.16Z"/></svg>