<svg id="Layer_1" data-name="Layer 1" xmlns="http://www.w3.org/2000/svg" viewBox="0 0 352.44 352.44"><defs><style>.cls-1{fill:#f8bbd0;}.cls-2{fill:#f58fb1;}.cls-3{fill:#2f4751;}.cls-4{fill:#d89b79;}.cls-5{fill:#c18161;}.cls-6{fill:#231f20;}.cls-7{fill:#880e4f;}</style></defs><circle class="cls-1" cx="176.22" cy="176.22" r="176.22" transform="translate(-72.99 176.22) rotate(-45)"/><path class="cls-2" d="M176.36,0V352.43A176.22,176.22,0,0,0,176.36,0Z"/><path class="cls-3" d="M324.93,191.21a34.69,34.69,0,0,1-27.48,10.5c11.06-2.32,19.21-12.57,21.8-23.56s.52-22.58-2.81-33.37a26.29,26.29,0,0,1-25.84,12,33.22,33.22,0,0,0,10-8.86c-19.54,5.4-42-1.81-54.71-17.58L183.25,231.45,120.58,130.38c-12.74,15.77-35.17,23-54.71,17.58a33.14,33.14,0,0,0,10,8.86,26.31,26.31,0,0,1-25.85-12c-3.33,10.79-5.41,22.37-2.81,33.37S58,199.39,69,201.71a34.67,34.67,0,0,1-27.47-10.5,43.75,43.75,0,0,0,21.87,38.07,77.22,77.22,0,0,1-17.54-1.85c-2.1,14.08,5.73,28.31,17,37s25.47,12.67,39.53,14.92c10.81,1.72,21.85,2.53,32.7,1.06,16.31-2.23,32.09-9.57,48.12-12.15,16,2.58,31.8,9.92,48.12,12.15,10.84,1.47,21.89.66,32.69-1.06,14.06-2.25,28.27-6.22,39.54-14.92s19.09-22.93,17-37a77.22,77.22,0,0,1-17.54,1.85A43.74,43.74,0,0,0,324.93,191.21Z"/><ellipse class="cls-4" cx="95.41" cy="178.61" rx="12.65" ry="13.03"/><ellipse class="cls-5" cx="264.64" cy="178.61" rx="12.65" ry="13.03"/><ellipse class="cls-4" cx="177.21" cy="180.22" rx="85" ry="100.68"/><path class="cls-5" d="M177.21,79.54h-.64V280.89h.64c46.94,0,85-45.08,85-100.68S224.15,79.54,177.21,79.54Z"/><circle class="cls-6" cx="194.34" cy="177.05" r="7.49"/><path class="cls-3" d="M199.63,149.62a21,21,0,0,0-12.78,4.08v6.37c3.07-4.2,25.83-5.25,29.12-2.42C213.14,152.92,206.89,149.62,199.63,149.62Z"/><path class="cls-6" d="M158.58,170a7.49,7.49,0,1,0,7.49,7.49A7.49,7.49,0,0,0,158.58,170Z"/><path class="cls-3" d="M137,157.21c3.29-2.83,26.05-1.78,29.12,2.42v-6.37a21,21,0,0,0-12.78-4.08C146,149.18,139.78,152.47,137,157.21Z"/><path class="cls-7" d="M190.78,222c-2.5-1-4.85-2.58-7.42-3.22s-5.57-.13-7.23,2.38h-.45c-1.66-2.51-4.66-3-7.23-2.38S163.52,221,161,222a17.64,17.64,0,0,1-10.92.76c6.22,9.13,16.19,14.11,25.79,12.93,9.61,1.18,19.58-3.8,25.79-12.93A17.6,17.6,0,0,1,190.78,222Z"/><path class="cls-3" d="M280,93.79a42.57,42.57,0,0,0-.84-29.14c-.6,10.73-9.48,20.65-20.88,23.32a26.41,26.41,0,0,0,4.38-11.63,39.07,39.07,0,0,1-13.92,5c12.48-14.14,13.25-35.91,1.8-50.76a33.67,33.67,0,0,1-16.89,18.36l-5-7.7c-3.75,7.69-12,13.42-21.06,14.71,13.91-3.41,8.65-18.59.75-24.47-1,6.13-3.71,13.5-9.27,16.51s-11.08,3.79-16.42,1.8a8.52,8.52,0,0,0,5.43-6c-9.44,2.23-17.91-5.51-27.25-8.08-11.28-3.11-23.88,1.93-31.47,10.17S118.47,65,117,75.65c-.73,5.15-.16,11.77,5.17,13.59-4-1.35-8.4,1-10.93,4.05s-3.79,6.87-5.89,10.21-5.58,6.44-9.79,6.46c-5.26,0-9.34-5.62-7.6-10.15s8.31-6.7,13-4.57c-9.29-6.22-26.47-1.86-32,7.37s-.7,21.25,5.62,30.05c-4.39-1-7.73-5-7.57-9.1-4,5.76-2.8,13.62,1.4,19.23s10.92,9.27,17.88,11.68c5.43,1.88,11.35,3.12,17,2.05s11-4.92,12.11-10.13c9.31,1.21,17.51-6.54,20.18-14.78s1.54-17.06,2.25-25.62c6.27-1.63,13.07.46,18.48,3.77s9.84,7.78,14.79,11.65a77.44,77.44,0,0,0,19.2,11c5.56,2.19,11.58,3.8,17.61,3.27s12.05-3.55,14.61-8.57c2.43,7,9.35,12.43,17.23,13.63,4.39,9.05,10.64,18.49,21,21.51,9.58,2.8,20.43-1,27.32-7.7s10.33-15.78,12-24.83a81.48,81.48,0,0,0-7-50.69A24.78,24.78,0,0,1,280,93.79Z"/></svg>