<svg id="Layer_1" data-name="Layer 1" xmlns="http://www.w3.org/2000/svg" viewBox="0 0 352.44 352.44"><defs><style>.cls-1{fill:#ff5177;}.cls-2{fill:#d81b60;}.cls-3{fill:#a5573f;}.cls-4{fill:#914426;}.cls-5{fill:#231f20;}.cls-6{fill:#880e4f;}.cls-7{fill:#ffd54f;}</style></defs><circle class="cls-1" cx="176.22" cy="176.22" r="176.22"/><path class="cls-2" d="M176.36,0V352.43A176.22,176.22,0,0,0,176.36,0Z"/><ellipse class="cls-3" cx="176.92" cy="194.84" rx="85" ry="100.68"/><path class="cls-4" d="M176.92,94.16h-.64V295.51h.64c47,0,85-45.07,85-100.68S223.87,94.16,176.92,94.16Z"/><path class="cls-5" d="M194.05,192.27a7.49,7.49,0,1,0,7.49,7.49A7.49,7.49,0,0,0,194.05,192.27Z"/><path class="cls-5" d="M199.34,172.34a20.93,20.93,0,0,0-12.77,4.08v6.37c3.07-4.2,25.82-5.25,29.12-2.42C212.85,175.63,206.6,172.34,199.34,172.34Z"/><path class="cls-5" d="M158.3,192.72a7.49,7.49,0,1,0,7.48,7.49A7.49,7.49,0,0,0,158.3,192.72Z"/><path class="cls-5" d="M136.67,179.93c3.29-2.83,26-1.78,29.11,2.42V176A21,21,0,0,0,153,171.9C145.75,171.9,139.5,175.19,136.67,179.93Z"/><path class="cls-6" d="M190.49,244.71c-2.49-1-4.84-2.58-7.41-3.22s-5.58-.13-7.24,2.38h-.44c-1.66-2.51-4.66-3-7.24-2.38s-4.92,2.21-7.42,3.22a17.6,17.6,0,0,1-10.91.76c6.21,9.13,16.19,14.1,25.79,12.93,9.6,1.17,19.58-3.8,25.79-12.93A17.64,17.64,0,0,1,190.49,244.71Z"/><path class="cls-3" d="M89.45,190.59a13,13,0,1,0,12.65,13A12.84,12.84,0,0,0,89.45,190.59Z"/><path class="cls-4" d="M263.45,190.59a13,13,0,1,0,12.65,13A12.84,12.84,0,0,0,263.45,190.59Z"/><path class="cls-5" d="M244.64,170.2a1.47,1.47,0,0,0,0,.21,11,11,0,0,0,3.58-1.44C247.49,167.41,244.76,168.48,244.64,170.2Z"/><path class="cls-5" d="M207.77,154a10.61,10.61,0,0,0,.22,1.87A2.22,2.22,0,0,0,207.77,154Z"/><path class="cls-5" d="M278.17,129.33c.62-3.23,1.22-6.62.24-9.76s-4.12-5.86-7.34-5.18a5.12,5.12,0,1,0-6.46-7.72c1.95-6.75-4.38-14.46-11.38-13.85,2.53-3-.25-8.54-4.17-8.32.74-3,1.37-6.19.38-9.11s-4.17-5.32-7.1-4.35a8.27,8.27,0,0,0-14.94-4.1,9,9,0,0,0-16.27-2.27,4.53,4.53,0,0,0-8.9-.62c-1.59-2.22-4.91-2.68-7.41-1.57a11.78,11.78,0,0,0-5.45,5.89,9.57,9.57,0,0,0-9.46-7.82c-1.37-3.08-2.91-6.35-5.81-8.07s-7.52-.84-8.37,2.42c.39-3.56-4.09-6.08-7.54-5.12s-5.83,4.06-7.72,7.1c-2.45-2.16-6.49-1.43-8.95.73s-3.73,5.33-4.91,8.38A4.36,4.36,0,0,0,128,67.11a7.07,7.07,0,0,0-13,3.11,8.14,8.14,0,0,0-11.3,10.34A10,10,0,0,0,89.46,92.35a7.15,7.15,0,0,0-10.76,8.83c-6.11,1.45-8.94,10.18-4.85,14.95-.55,4.26,3.4,7.61,6.93,10.06-5.15.09-8.58,7.17-5.44,11.26a5.6,5.6,0,1,0-.71,11.06c-3.28,0-5.44,4-4.58,7.19s3.76,5.37,6.77,6.67c-2.07,1.22-1.81,4.54-.12,6.23s4.22,2.19,6.59,2.61c-1.23.46-1.55,2.06-1.38,3.35a8.86,8.86,0,0,0,10.45,7.16c2.46,3.82,9.16,3.5,11.25-.52,1.51,2.27,4.82,2.53,7.44,1.76s5-2.3,7.68-2.82,6.12-.16,7.9-2.35c1.35-1.67,1.15-4.22,2.51-5.88,2-2.45,5.85-1.57,9-1.94,4.67-.56,8.76-5.46,7.34-9.94a14.2,14.2,0,0,0,18.25-4.49,25.73,25.73,0,0,0,17.18,11.13,5.06,5.06,0,0,0,3.4-.34c1-.61,1.46-2.16.61-3,3.12.37,6.38.72,9.31-.41s5.34-4.25,4.55-7.29c1.72,1.38,3.65,2.82,5.85,2.76a3.83,3.83,0,0,0,3.36-2.57,10.61,10.61,0,0,1-.22-1.87,2.22,2.22,0,0,1,.22,1.87c1.1,5.35,6.24,9.77,11.77,9.68-.11,2.61.45,5.56,2.61,7s6-.07,5.58-2.65a5.14,5.14,0,0,0,6.42-2,12,12,0,0,0,10.27,2.53,1.47,1.47,0,0,1,0-.21c.12-1.72,2.85-2.79,3.58-1.23a11,11,0,0,1-3.58,1.44c0,1.62,1.36,3,2.73,3.87,2.16,1.44,4.83,2.43,7.35,1.79s4.55-3.43,3.64-5.86c-.37-1-1.2-1.9-1.18-3a3.88,3.88,0,0,1,1.67-2.6,37.33,37.33,0,0,1,7-4.73c1.67-.87,3.49-1.69,4.54-3.25s.82-4.15-.94-4.82c4.48.43,8.63-4.34,7.58-8.72,2.47-2,5.09-4.19,5.84-7.27S281.31,128.84,278.17,129.33Z"/><rect class="cls-7" x="83.04" y="210.61" width="10.33" height="56"/><rect class="cls-7" x="260.37" y="210.61" width="10.33" height="56"/></svg>