<svg id="Layer_1" data-name="Layer 1" xmlns="http://www.w3.org/2000/svg" viewBox="0 0 352.44 352.44"><defs><style>.cls-1{fill:#ba68c8;}.cls-2{fill:#8e24aa;}.cls-3{fill:#ffccbc;}.cls-4{fill:#efac9a;}.cls-5{fill:#231f20;}.cls-6{fill:#dd2c00;}.cls-7{fill:#ff3d00;}</style></defs><circle class="cls-1" cx="176.22" cy="176.22" r="176.22" transform="translate(-72.99 176.22) rotate(-45)"/><path class="cls-2" d="M176.36,0V352.43A176.22,176.22,0,0,0,176.36,0Z"/><path class="cls-3" d="M94.9,173.77a13,13,0,1,0,12.65,13A12.84,12.84,0,0,0,94.9,173.77Z"/><path class="cls-4" d="M264.14,173.77a13,13,0,1,0,12.65,13A12.84,12.84,0,0,0,264.14,173.77Z"/><ellipse class="cls-3" cx="176.7" cy="188.4" rx="85" ry="100.68"/><path class="cls-4" d="M176.7,87.72h-.64V289.08h.64c47,0,85-45.08,85-100.69S223.65,87.72,176.7,87.72Z"/><circle class="cls-5" cx="193.83" cy="193.25" r="7.49" transform="translate(-28.45 33.54) rotate(-9.22)"/><path class="cls-5" d="M199.12,165.83a21,21,0,0,0-12.78,4.08v6.37c3.08-4.2,25.83-5.25,29.12-2.42C212.63,169.12,206.38,165.83,199.12,165.83Z"/><path class="cls-5" d="M158.08,186.21a7.49,7.49,0,1,0,7.48,7.49A7.49,7.49,0,0,0,158.08,186.21Z"/><path class="cls-5" d="M136.44,173.42c3.29-2.83,26.05-1.78,29.12,2.42v-6.37a20.93,20.93,0,0,0-12.77-4.08C145.53,165.39,139.27,168.68,136.44,173.42Z"/><path class="cls-6" d="M190.27,238.2c-2.49-1-4.84-2.58-7.41-3.22s-5.58-.13-7.24,2.38h-.44c-1.67-2.51-4.67-3-7.24-2.38s-4.92,2.21-7.42,3.22a17.6,17.6,0,0,1-10.91.76c6.21,9.13,16.19,14.11,25.79,12.93,9.6,1.18,19.57-3.8,25.79-12.93A17.64,17.64,0,0,1,190.27,238.2Z"/><path class="cls-5" d="M87.94,194.62a4.05,4.05,0,1,0,4,4A4.05,4.05,0,0,0,87.94,194.62Z"/><path class="cls-5" d="M264.26,193.11a4,4,0,1,0,4.05,4A4,4,0,0,0,264.26,193.11Z"/><path class="cls-7" d="M252.22,171.85c0-.24-.09-.47-.13-.71A.55.55,0,0,0,252.22,171.85Z"/><path class="cls-7" d="M160.68,132.43a2.3,2.3,0,0,0-.33-.37Z"/><path class="cls-7" d="M264.12,132.75a70.81,70.81,0,0,0-28.67-29.15l6,.51A98.72,98.72,0,0,0,205.54,79.7l5-1.57a49.19,49.19,0,0,0-34.31,1.06C175.79,75.84,175,72,172,70.41c-4.26-2.27-9,1.77-12.2,5.44-3.94-3.33-10.15-2.53-14.37.44s-6.92,7.58-9.49,12.06L132.78,86l-2.21,5.34a7.08,7.08,0,0,1-4.49-4.25,7.6,7.6,0,0,0-2.16,6.67,25.57,25.57,0,0,1-7.22-11.39,46.41,46.41,0,0,1-3.9,20.49,10.59,10.59,0,0,0-3.21-4.54l-3,9.83c-.93-2.29-1.87-4.59-2.81-6.88q-2.69,6.68-5.38,13.34a34.62,34.62,0,0,1-3.62-18.2c-5.23,6.09-5,15.07-3.85,23s3.06,16.27.28,23.8a5.84,5.84,0,0,0-2.61-1.54,64.47,64.47,0,0,1-.34,10.58,5.56,5.56,0,0,1-2.8-2.28c1.34,7.8,1.54,23.49,2.34,25.24.71,1.52,5.32-4,10.5,36,1.69-11.82,1.17-29.14,2.5-41s5.5-18,15.75-17.24q0-7.26,0-14.51,2.35,5.81,4.7,11.62l4.47-30.9a32.34,32.34,0,0,0,10.2,10.16c.25-1.57.5-3.14.74-4.71A65.47,65.47,0,0,0,152,135.92c2,1.05,4.28,2,6.44,1.37,2-.6,3.32-3.26,2.21-4.86l-.33-.37a2.3,2.3,0,0,1,.33.37,36,36,0,0,0,20.36,12q-2.14-5.47-4.3-11a112.52,112.52,0,0,0,31,17.94,6.89,6.89,0,0,0,4.39.59c1.43-.45,2.46-2.33,1.54-3.51l5.77,4.19q-1.64-5.37-3.28-10.76c8,12.64,23.33,21.16,25.92,35.88q-.11-6.9-.23-13.8c8.61,18.38,6.36,31.77,12.39,52.76.48-14.53,3-23.29,7.42-37.15,2.22-7,5.43-13.78,5.93-21.08.69-9.92-3.67-19.4-7.92-28.38Z"/></svg>