<svg id="Layer_1" data-name="Layer 1" xmlns="http://www.w3.org/2000/svg" viewBox="0 0 352.44 352.44"><defs><style>.cls-1{fill:#00aeb7;}.cls-2{fill:#00838f;}.cls-3{fill:#ffccbc;}.cls-4{fill:#efac9a;}.cls-5{fill:#b76b5c;}.cls-6{fill:#231f20;}.cls-7{fill:#795548;}</style></defs><circle class="cls-1" cx="176.22" cy="176.22" r="176.22" transform="translate(-72.99 176.22) rotate(-45)"/><path class="cls-2" d="M176.36,0V352.43A176.22,176.22,0,0,0,176.36,0Z"/><ellipse class="cls-3" cx="176.97" cy="179.85" rx="85" ry="100.68"/><path class="cls-4" d="M177,79.16h-.65V280.52H177c46.94,0,85-45.08,85-100.68S223.91,79.16,177,79.16Z"/><path class="cls-5" d="M177.16,240.14a28.7,28.7,0,0,0,28.57-28.33H148.59A28.69,28.69,0,0,0,177.16,240.14Z"/><circle class="cls-6" cx="160.87" cy="175.38" r="7.49"/><path class="cls-6" d="M193.45,167.89a7.49,7.49,0,1,0,7.49,7.49A7.49,7.49,0,0,0,193.45,167.89Z"/><rect class="cls-7" x="142.3" y="148.06" width="26.06" height="4.55"/><rect class="cls-7" x="185.96" y="148.06" width="26.06" height="4.55"/><path class="cls-7" d="M177,246.55c-17.32,0-31.81-14.84-35.42-34.67a62.06,62.06,0,0,0-7.92,30.79c0,29.71,19.7,53.8,44,53.8s44-24.09,44-53.8a61.67,61.67,0,0,0-9-32.56C209.68,230.83,194.85,246.55,177,246.55Z"/><path class="cls-3" d="M91.6,160.83a13,13,0,1,0,12.65,13A12.84,12.84,0,0,0,91.6,160.83Z"/><ellipse class="cls-4" cx="260.84" cy="173.86" rx="12.65" ry="13.03"/><path class="cls-7" d="M204.47,195.78H148.82a5.4,5.4,0,0,0,0,10.8h55.65a5.4,5.4,0,1,0,0-10.8Z"/><path class="cls-7" d="M240.9,73.68H112.05A6.09,6.09,0,0,0,106,79.76v35.75a6.08,6.08,0,0,0,3.29,5.39c15.21-10.4,40.47-17.2,69.06-17.2,27.37,0,51.68,6.24,67,15.88a6,6,0,0,0,1.59-4.07V79.76A6.09,6.09,0,0,0,240.9,73.68Z"/></svg>