<svg id="Layer_1" data-name="Layer 1" xmlns="http://www.w3.org/2000/svg" viewBox="0 0 352.44 352.44"><defs><style>.cls-1{fill:#d81b60;}.cls-2{fill:#ad1457;}.cls-3{fill:#d89b79;}.cls-4{fill:#c18161;}.cls-5{fill:#231f20;}.cls-6{fill:#ffe5c2;}.cls-7{fill:#03a9f4;}</style></defs><circle class="cls-1" cx="176.22" cy="176.22" r="176.22"/><path class="cls-2" d="M176.36,0V352.43A176.22,176.22,0,0,0,176.36,0Z"/><ellipse class="cls-3" cx="176.52" cy="177.98" rx="85" ry="100.68"/><path class="cls-4" d="M176.52,77.3h-.64V278.65h.64c46.94,0,85-45.07,85-100.68S223.46,77.3,176.52,77.3Z"/><path class="cls-3" d="M91.59,158.8a13,13,0,1,0,12.65,13A12.84,12.84,0,0,0,91.59,158.8Z"/><path class="cls-4" d="M261.59,164.8a13,13,0,1,0,12.65,13A12.84,12.84,0,0,0,261.59,164.8Z"/><path class="cls-5" d="M193.28,172a7.49,7.49,0,1,0,7.48,7.49A7.49,7.49,0,0,0,193.28,172Z"/><path class="cls-5" d="M198.56,152.07a20.93,20.93,0,0,0-12.77,4.08v6.37c3.07-4.19,25.83-5.25,29.12-2.41C212.08,155.37,205.83,152.07,198.56,152.07Z"/><path class="cls-5" d="M157.52,172.45a7.49,7.49,0,1,0,7.49,7.49A7.49,7.49,0,0,0,157.52,172.45Z"/><path class="cls-5" d="M135.89,159.66c3.29-2.83,26.05-1.78,29.12,2.42v-6.37a21,21,0,0,0-12.78-4.08C145,151.63,138.72,154.92,135.89,159.66Z"/><path class="cls-2" d="M189.72,224.44c-2.5-1-4.85-2.58-7.42-3.22s-5.57-.12-7.24,2.38h-.44c-1.66-2.5-4.66-3-7.23-2.38s-4.93,2.22-7.42,3.22a17.57,17.57,0,0,1-10.92.76c6.22,9.13,16.19,14.11,25.79,12.93,9.61,1.18,19.58-3.8,25.79-12.93A17.53,17.53,0,0,1,189.72,224.44Z"/><path class="cls-6" d="M246.89,87.17c-9.78-9.44-21.59-15.51-32.38-17.2,7.57-2.7,14.23-15.55,12.59-23.42s-7.91-14.21-15.18-17.64a67.16,67.16,0,0,0-25.07-5.82c-14.42-.36-31.16-.36-44.52,5.06-8.92,3.61-17.63,10.31-21.25,19.22s-.18,23.47,9.1,26C115.63,81.63,105.91,92,97,106.2s-12.31,32.54-5.88,48c2.31,5.55,5.87,10.95,5.63,17-.23,5.72-3.93,10.89-4,16.61-.08,4.28,1.85,8.33,2.33,12.59.87,7.58-2.89,14.83-4.59,22.27A42.7,42.7,0,0,0,98,257.56c3.06,4,7,7.85,7.52,12.86,3.93-6.2,1.4-14.38-1.9-20.93s-7.43-13.4-6.39-20.67c1.18-8.26,8.86-14.79,8.94-23.13.07-6.64-4.75-13.46-1.93-19.47-.17,6,6.19,10.12,7.91,15.87,1.94,6.47-2.29,12.94-4.49,19.32a33.27,33.27,0,0,0,2.56,27c2.38,4.14,5.7,7.86,7,12.46,3.74,13.64-11.93,26.71-9,40.54.75,3.54,2.67,6.7,4.27,9.95a59.65,59.65,0,0,1,6,22.74,37.27,37.27,0,0,0,1.21-23.51c-1.1-3.93-2.87-7.77-2.87-11.85,0-12.81,16.9-21.69,15-34.36-1.21-8.08-9.66-13.09-12.63-20.7-6-15.33,12.42-31.19,9.13-47.3-1.85-9.08-10.13-15.47-13.5-24.1-3.53-9-1.24-19.26,2.17-28.33,4-10.69,10.09-21.37,20.15-26.8,6.53-3.53,14.12-4.49,21.54-4.79a137.3,137.3,0,0,1,49.73,7.22c10.17,3.47,20.18,8.33,27.48,16.22,13.89,15,20.73,56.35,23.8,69.43,5.74-12.82-.72-33.41,2.37-44.55C275.9,110.78,253.08,93.15,246.89,87.17Z"/><path class="cls-7" d="M215.64,67.65a42.06,42.06,0,0,0-3.94-3.4c-.8-.6-1.67-1.21-2.6-1.86s-2-1.23-3-1.86a60.06,60.06,0,0,0-7.18-3.48,63.36,63.36,0,0,0-8.48-2.79A71.08,71.08,0,0,0,181,52.52a76.71,76.71,0,0,0-9.86-.49,71.94,71.94,0,0,0-9.86.85A62.67,62.67,0,0,0,151.94,55a57.26,57.26,0,0,0-8.41,3.29,52.45,52.45,0,0,0-7,4.08,44.38,44.38,0,0,0-5.29,4.32,35.09,35.09,0,0,0-3.53,3.9,21.94,21.94,0,0,0-1.89,2.76c-.4.67-.6,1-.6,1l1.13-.35c.73-.24,1.81-.64,3.12-1s2.88-.86,4.66-1.34,3.77-1,5.94-1.41c.55-.1,1.09-.23,1.65-.36l1.71-.31c1.15-.22,2.35-.42,3.58-.61,2.46-.36,5-.74,7.69-1s5.42-.5,8.22-.67,5.65-.26,8.5-.32,5.72,0,8.54,0,5.61.19,8.31.35,5.34.35,7.85.59c1.27.08,2.48.25,3.67.36s2.34.29,3.46.39c2.23.27,4.29.56,6.15.82l4.86.76,3.23.53,1.18.17s-.25-.33-.75-.92A28.05,28.05,0,0,0,215.64,67.65Z"/></svg>