<svg id="Layer_1" data-name="Layer 1" xmlns="http://www.w3.org/2000/svg" viewBox="0 0 352.44 352.44"><defs><style>.cls-1{fill:#d81b60;}.cls-2{fill:#ad1457;}.cls-3{fill:#ffccbc;}.cls-4{fill:#efac9a;}.cls-5{fill:#231f20;}.cls-6{fill:#5b5557;}.cls-7{fill:#ff8f00;}</style></defs><circle class="cls-1" cx="176.22" cy="176.22" r="176.22"/><path class="cls-2" d="M176.36,0V352.43A176.22,176.22,0,0,0,176.36,0Z"/><ellipse class="cls-3" cx="176.52" cy="177.98" rx="85" ry="100.68"/><path class="cls-4" d="M176.52,77.3h-.64V278.66h.64c46.94,0,85-45.07,85-100.68S223.46,77.3,176.52,77.3Z"/><path class="cls-3" d="M91.59,158.8a13,13,0,1,0,12.65,13A12.84,12.84,0,0,0,91.59,158.8Z"/><path class="cls-5" d="M235.09,84.8c-16-12.92-36.47-10.2-58.43-10.2-1.11,0-2.22,0-3.32.09H121.42a6.09,6.09,0,0,0-6.07,6.07v19.9a6.09,6.09,0,0,0,6.07,6.07h30.79c58.52,5.14,104.13,46.73,104.13,97.28a83.32,83.32,0,0,1-2.49,20.22,96.41,96.41,0,0,0,16-53.39C269.83,140.51,256.7,102.29,235.09,84.8Z"/><circle class="cls-5" cx="193.28" cy="179.5" r="7.49" transform="translate(-46.52 289.37) rotate(-67.5)"/><path class="cls-5" d="M198.56,152.07a20.93,20.93,0,0,0-12.77,4.08v6.37c3.07-4.19,25.83-5.25,29.12-2.41C212.08,155.37,205.83,152.07,198.56,152.07Z"/><circle class="cls-5" cx="157.52" cy="179.94" r="7.49"/><path class="cls-5" d="M135.89,159.66c3.29-2.83,26.05-1.78,29.12,2.42v-6.37a21,21,0,0,0-12.78-4.08C145,151.63,138.72,154.92,135.89,159.66Z"/><path class="cls-1" d="M189.72,224.44c-2.5-1-4.85-2.58-7.42-3.22s-5.57-.12-7.24,2.38h-.44c-1.66-2.5-4.66-3-7.23-2.38s-4.93,2.22-7.42,3.22a17.57,17.57,0,0,1-10.92.76c6.22,9.13,16.19,14.11,25.79,12.93,9.61,1.18,19.58-3.8,25.79-12.93A17.53,17.53,0,0,1,189.72,224.44Z"/><path class="cls-6" d="M105.53,117.72c-7.76,12.82-12.48,26-12.54,41.45a39.56,39.56,0,0,1,17.39-2.68c5-9.68,10.75-19.1,18.37-26.89s18.61-14.92,46.16-19.2c-6.69-4.43-58.25-6.17-58.25-6.17A74,74,0,0,0,105.53,117.72Z"/><path class="cls-7" d="M90.35,178.77a3.37,3.37,0,1,0-4.16,3.28l-8.32,66.88,23.28.34L87.4,182.12A3.38,3.38,0,0,0,90.35,178.77Z"/></svg>