<svg id="Layer_1" data-name="Layer 1" xmlns="http://www.w3.org/2000/svg" viewBox="0 0 352.44 352.44"><defs><style>.cls-1{fill:#966f63;}.cls-2{fill:#795548;}.cls-3{fill:#ffccbc;}.cls-4{fill:#efac9a;}.cls-5{fill:#231f20;}.cls-6{fill:#880e4f;}.cls-7{fill:#fff;}</style></defs><circle class="cls-1" cx="176.22" cy="176.22" r="176.22"/><path class="cls-2" d="M176.36,0V352.43A176.22,176.22,0,0,0,176.36,0Z"/><ellipse class="cls-3" cx="94.73" cy="204.38" rx="12.65" ry="13.03"/><ellipse class="cls-4" cx="263.97" cy="204.38" rx="12.65" ry="13.03"/><ellipse class="cls-3" cx="176.53" cy="205.99" rx="85" ry="100.68"/><path class="cls-4" d="M176.53,105.3h-.64V306.66h.64c46.94,0,85-45.08,85-100.68S223.47,105.3,176.53,105.3Z"/><circle class="cls-5" cx="193.66" cy="204.33" r="7.49"/><path class="cls-5" d="M199,176.91A21,21,0,0,0,186.17,181v6.37c3.07-4.2,25.83-5.25,29.12-2.42C212.46,180.2,206.21,176.91,199,176.91Z"/><circle class="cls-5" cx="157.9" cy="204.77" r="7.49" transform="translate(-77.59 311.58) rotate(-76.76)"/><path class="cls-5" d="M136.27,184.5c3.29-2.83,26-1.78,29.12,2.42v-6.38a21,21,0,0,0-12.77-4.08C145.35,176.46,139.1,179.76,136.27,184.5Z"/><path class="cls-6" d="M190.1,249.27c-2.49-1-4.84-2.57-7.42-3.21s-5.57-.13-7.23,2.38H175c-1.67-2.51-4.67-3-7.24-2.38s-4.92,2.21-7.42,3.21a17.54,17.54,0,0,1-10.91.77c6.21,9.12,16.18,14.1,25.79,12.92,9.6,1.18,19.57-3.8,25.79-12.92A17.57,17.57,0,0,1,190.1,249.27Z"/><path class="cls-7" d="M236.17,99.48a122.8,122.8,0,0,1-4.37-30.13,25.68,25.68,0,0,0-10,11.64q-2-4.81-4-9.64a24.3,24.3,0,0,1-4.47,8.28A34,34,0,0,0,202,58a28.31,28.31,0,0,1-7.17,22,41,41,0,0,0-4.6-12l-4.61,5.3a52.11,52.11,0,0,1-1.86-21.71,43.33,43.33,0,0,0-23,27.31L153.82,70l-3.63,8.38A38.58,38.58,0,0,0,130,57.54a35,35,0,0,1-3.67,31.85,66.38,66.38,0,0,0-6.44-8.57,26,26,0,0,0-4.12,9.42,25.49,25.49,0,0,1-5.46-18.45c-4.8,5.74-6.1,13.64-6.23,21.12s.74,15-.52,22.42q-2.88-5.22-5.78-10.44c-.67,7.39-10,29.48-7.76,40,1.71,8,5.31,23.27,7.09,23.78,1.35.38,16.69-26.1,79.43-25.55,58.44.5,74.17,21,79.18,27.06,12.14-48.31-11.44-59.5-12.29-81.31Q239.81,94.2,236.17,99.48Z"/><path class="cls-5" d="M87.77,212.21a4,4,0,1,0,4,4A4,4,0,0,0,87.77,212.21Z"/><path class="cls-5" d="M264.09,210.69a4,4,0,1,0,4,4.05A4,4,0,0,0,264.09,210.69Z"/></svg>