<svg id="Layer_1" data-name="Layer 1" xmlns="http://www.w3.org/2000/svg" viewBox="0 0 352.44 352.44"><defs><style>.cls-1{fill:#e64a19;}.cls-2{fill:#d84315;}.cls-3{fill:#ffe7d7;}.cls-4{fill:#f2d4c0;}.cls-5{fill:#231f20;}.cls-6{fill:#d81b60;}</style></defs><circle class="cls-1" cx="176.22" cy="176.22" r="176.22" transform="translate(-72.99 176.22) rotate(-45)"/><path class="cls-2" d="M176.36,0V352.43A176.22,176.22,0,0,0,176.36,0Z"/><ellipse class="cls-3" cx="177.68" cy="186.54" rx="85" ry="100.68"/><path class="cls-4" d="M177.68,85.86H177V287.22h.64c46.94,0,85-45.08,85-100.69S224.62,85.86,177.68,85.86Z"/><path class="cls-3" d="M92.76,167.36a13,13,0,1,0,12.65,13A12.84,12.84,0,0,0,92.76,167.36Z"/><path class="cls-4" d="M263.76,170.36a13,13,0,1,0,12.65,13A12.84,12.84,0,0,0,263.76,170.36Z"/><path class="cls-5" d="M194.44,182.09a7.49,7.49,0,1,0,7.49,7.49A7.49,7.49,0,0,0,194.44,182.09Z"/><path class="cls-5" d="M199.73,162.15A21,21,0,0,0,187,166.23v6.37c3.07-4.19,25.83-5.25,29.12-2.41C213.24,165.45,207,162.15,199.73,162.15Z"/><path class="cls-5" d="M158.68,182.53a7.49,7.49,0,1,0,7.49,7.49A7.49,7.49,0,0,0,158.68,182.53Z"/><path class="cls-5" d="M137.05,169.74c3.29-2.83,26-1.78,29.12,2.42v-6.37a21,21,0,0,0-12.77-4.08C146.13,161.71,139.88,165,137.05,169.74Z"/><path class="cls-6" d="M190.88,234.52c-2.49-1-4.85-2.58-7.42-3.22s-5.57-.13-7.23,2.38h-.45c-1.66-2.51-4.66-3-7.23-2.38s-4.92,2.22-7.42,3.22a17.53,17.53,0,0,1-10.91.76c6.21,9.13,16.18,14.11,25.79,12.93,9.6,1.18,19.57-3.8,25.79-12.93A17.56,17.56,0,0,1,190.88,234.52Z"/><path class="cls-5" d="M267.89,125.43a71.28,71.28,0,0,0-29.15-29.14l6.06.5a100.64,100.64,0,0,0-36.46-24.41l5.11-1.57a50.84,50.84,0,0,0-34.88,1.06c-.47-3.35-1.27-7.19-4.31-8.78-4.34-2.27-9.21,1.77-12.4,5.44-4-3.33-10.32-2.52-14.61.44s-7,7.58-9.65,12.06l-3.22-2.31c-.75,1.78-1.49,3.57-2.24,5.35a7.17,7.17,0,0,1-4.57-4.26,7.54,7.54,0,0,0-2.19,6.67A25.47,25.47,0,0,1,118,75.09a45.75,45.75,0,0,1-4,20.49A10.68,10.68,0,0,0,110.81,91q-1.53,4.92-3.08,9.83L104.88,94q-2.75,6.67-5.47,13.34a34.19,34.19,0,0,1-3.69-18.2c-5.31,6.09-5.12,15.07-3.91,23s3.11,16.26.29,23.8a5.93,5.93,0,0,0-2.66-1.55A63.38,63.38,0,0,1,89.1,145a5.68,5.68,0,0,1-2.85-2.28c1.36,7.8,1.56,23.5,2.38,25.24.72,1.52,5.41-4,10.68,36,1.72-11.82,1.18-29.13,2.54-41s5.59-18,16-17.24l0-14.51,4.77,11.62q2.26-15.45,4.55-30.9a32.53,32.53,0,0,0,10.36,10.16c.26-1.57.51-3.14.76-4.71A66.17,66.17,0,0,0,154,128.6c2,1.05,4.35,2,6.54,1.37,2-.59,3.38-3.26,2.25-4.85-.11-.13-.23-.25-.33-.38a2,2,0,0,1,.33.38,36.73,36.73,0,0,0,20.7,12l-4.38-11a114.92,114.92,0,0,0,31.55,17.94c1.43.53,3,1,4.45.59s2.51-2.33,1.57-3.51l5.87,4.19q-1.67-5.37-3.34-10.76c8.1,12.65,23.71,21.16,26.35,35.88q-.1-6.9-.23-13.8c8.75,18.38,6.47,31.78,12.59,52.76.49-14.53,3.07-23.29,7.55-37.15,2.25-7,5.51-13.78,6-21.08.7-9.92-3.73-19.4-8.05-28.38Z"/><path class="cls-5" d="M162.74,125.12a2,2,0,0,0-.33-.38C162.51,124.87,162.63,125,162.74,125.12Z"/></svg>