<svg id="Layer_1" data-name="Layer 1" xmlns="http://www.w3.org/2000/svg" viewBox="0 0 352.44 352.44"><defs><style>.cls-1{fill:#ffccbc;}.cls-2{fill:#ffab91;}.cls-3{fill:#d89b79;}.cls-4{fill:#c18161;}.cls-5{fill:#231f20;}.cls-6{fill:#682319;}.cls-7{fill:#880e4f;}</style></defs><circle class="cls-1" cx="176.22" cy="176.22" r="176.22"/><path class="cls-2" d="M176.36,0V352.43A176.22,176.22,0,0,0,176.36,0Z"/><path class="cls-3" d="M96,183.8a13,13,0,1,0,12.65,13A12.84,12.84,0,0,0,96,183.8Z"/><path class="cls-4" d="M265.28,183.8a13,13,0,1,0,12.65,13A12.85,12.85,0,0,0,265.28,183.8Z"/><ellipse class="cls-3" cx="177.85" cy="198.43" rx="85" ry="100.68"/><path class="cls-4" d="M177.85,97.75h-.64V299.11h.64c46.94,0,85-45.08,85-100.69S224.79,97.75,177.85,97.75Z"/><circle class="cls-5" cx="194.98" cy="196.78" r="7.49"/><path class="cls-6" d="M200.26,169.35a21,21,0,0,0-12.77,4.08v6.38c3.07-4.2,25.83-5.25,29.12-2.42C213.78,172.65,207.53,169.35,200.26,169.35Z"/><path class="cls-5" d="M159.22,189.73a7.49,7.49,0,1,0,7.49,7.49A7.49,7.49,0,0,0,159.22,189.73Z"/><path class="cls-6" d="M137.59,177c3.29-2.84,26-1.78,29.12,2.41V173a21,21,0,0,0-12.78-4.08C146.67,168.91,140.42,172.21,137.59,177Z"/><path class="cls-7" d="M191.42,241.72c-2.5-1-4.85-2.57-7.42-3.22s-5.57-.12-7.24,2.39h-.44c-1.66-2.51-4.66-3-7.23-2.39s-4.93,2.22-7.42,3.22a17.57,17.57,0,0,1-10.92.76c6.22,9.13,16.19,14.11,25.79,12.93,9.61,1.18,19.58-3.8,25.79-12.93A17.53,17.53,0,0,1,191.42,241.72Z"/><path class="cls-6" d="M273.35,109.73a46.44,46.44,0,0,0-.77-29.15,26.14,26.14,0,0,1-19.07,23.33,28.07,28.07,0,0,0,4-11.63,33.81,33.81,0,0,1-12.72,5c11.4-14.15,12.1-35.91,1.65-50.76A32.73,32.73,0,0,1,231,64.86l-4.53-7.7a25.77,25.77,0,0,1-19.23,14.71c12.7-3.41,7.9-18.59.68-24.47-.88,6.13-3.39,13.5-8.47,16.5s-10.12,3.8-15,1.81a8.27,8.27,0,0,0,5-6c-8.62,2.23-16.36-5.51-24.89-8.08-10.31-3.11-21.82,1.93-28.74,10.17s-10,19.09-11.34,29.76c-.66,5.15-.14,11.77,4.72,13.58-3.61-1.34-7.67,1-10,4.06s-3.47,6.87-5.39,10.21-5.09,6.44-8.94,6.46c-4.8,0-8.53-5.62-6.94-10.15s7.59-6.7,11.89-4.57c-8.49-6.22-24.18-1.86-29.25,7.37s-.65,21.25,5.13,30.05a9.31,9.31,0,0,1-6.92-9.1c-3.62,5.76-2.56,13.62,1.28,19.23S90,168,96.39,170.41c5,1.88,10.37,3.12,15.57,2.05S122,167.54,123,162.33c8.51,1.21,16-6.55,18.43-14.78s1.42-17.06,2.07-25.62c5.72-1.63,11.93.46,16.87,3.77s9,7.78,13.51,11.65a69.61,69.61,0,0,0,17.55,11c5.07,2.19,10.58,3.8,16.08,3.27s11-3.55,13.35-8.57a20.42,20.42,0,0,0,15.74,13.63c4,9.05,9.71,18.49,19.14,21.51,8.75,2.8,18.67-1,25-7.7s9.44-15.78,11-24.84a88.28,88.28,0,0,0-6.41-50.68A24.18,24.18,0,0,1,273.35,109.73Z"/><path class="cls-5" d="M89.69,202.76a4.05,4.05,0,1,0,4,4.05A4.05,4.05,0,0,0,89.69,202.76Z"/><path class="cls-5" d="M266.43,202.76a4.05,4.05,0,1,0,4.05,4.05A4.05,4.05,0,0,0,266.43,202.76Z"/></svg>