<svg id="Layer_1" data-name="Layer 1" xmlns="http://www.w3.org/2000/svg" viewBox="0 0 352.44 352.44"><defs><style>.cls-1{fill:#ffab91;}.cls-2{fill:#ff7043;}.cls-3{fill:#d89b79;}.cls-4{fill:#c18161;}.cls-5{fill:#231f20;}.cls-6{fill:#880e4f;}</style></defs><circle class="cls-1" cx="176.22" cy="176.22" r="176.22"/><path class="cls-2" d="M176.36,0V352.43A176.22,176.22,0,0,0,176.36,0Z"/><ellipse class="cls-3" cx="177.26" cy="181.27" rx="85" ry="100.68"/><path class="cls-4" d="M177.26,80.59h-.64V281.94h.64c46.94,0,85-45.07,85-100.68S224.2,80.59,177.26,80.59Z"/><circle class="cls-5" cx="194.39" cy="186.19" r="7.49" transform="translate(-21.29 25.15) rotate(-7.02)"/><path class="cls-5" d="M199.67,158.77a21,21,0,0,0-12.77,4.08v6.37C190,165,212.73,164,216,166.8,213.19,162.06,206.94,158.77,199.67,158.77Z"/><path class="cls-5" d="M158.63,179.15a7.49,7.49,0,1,0,7.49,7.49A7.49,7.49,0,0,0,158.63,179.15Z"/><path class="cls-5" d="M137,166.36c3.29-2.83,26.05-1.78,29.12,2.42v-6.37a21,21,0,0,0-12.78-4.08C146.08,158.33,139.83,161.62,137,166.36Z"/><path class="cls-6" d="M190.83,231.14c-2.5-1-4.85-2.58-7.42-3.22s-5.57-.13-7.24,2.38h-.44c-1.66-2.51-4.66-3-7.23-2.38s-4.93,2.21-7.42,3.22a17.64,17.64,0,0,1-10.92.76C156.38,241,166.35,246,176,244.83c9.61,1.18,19.58-3.8,25.79-12.93A17.6,17.6,0,0,1,190.83,231.14Z"/><path class="cls-5" d="M210.18,76C123.32,50.33,94.05,119.79,90.09,132.74c-8.61,28.2-9.53,66.1-11.59,97.93l53.13,21.25c-9.06-50.5-9.88-104.71-9.88-104.71l104.66-1.05s-3.09,59.65-10.28,104.25l57.19-19.74c-1.85-21.51-3.71-48.54-7.93-79.35C259.89,111.29,241.75,85.29,210.18,76Z"/></svg>