<svg id="Layer_1" data-name="Layer 1" xmlns="http://www.w3.org/2000/svg" viewBox="0 0 352.44 352.44"><defs><style>.cls-1{fill:#00d2e2;}.cls-2{fill:#00acc1;}.cls-3{fill:#d89b79;}.cls-4{fill:#c18161;}.cls-5{fill:#231f20;}.cls-6{fill:#dd2c00;}.cls-7{fill:#fff;}</style></defs><circle class="cls-1" cx="176.22" cy="176.22" r="176.22" transform="translate(-72.99 176.22) rotate(-45)"/><path class="cls-2" d="M176.36,0V352.43A176.22,176.22,0,0,0,176.36,0Z"/><ellipse class="cls-3" cx="177.21" cy="195.9" rx="85" ry="100.68"/><path class="cls-4" d="M177.21,95.22h-.64V296.57h.64c46.94,0,85-45.07,85-100.68S224.15,95.22,177.21,95.22Z"/><path class="cls-5" d="M194.34,187.77a7.49,7.49,0,1,0,7.49,7.49A7.49,7.49,0,0,0,194.34,187.77Z"/><path class="cls-5" d="M199.63,167.83a21,21,0,0,0-12.78,4.08v6.38c3.07-4.2,25.83-5.25,29.12-2.42C213.14,171.13,206.89,167.83,199.63,167.83Z"/><path class="cls-5" d="M158.58,188.21a7.49,7.49,0,1,0,7.49,7.49A7.5,7.5,0,0,0,158.58,188.21Z"/><path class="cls-5" d="M137,175.43c3.29-2.84,26.05-1.78,29.12,2.41v-6.37a21,21,0,0,0-12.78-4.08C146,167.39,139.78,170.69,137,175.43Z"/><path class="cls-6" d="M190.78,240.2c-2.5-1-4.85-2.57-7.42-3.22s-5.57-.12-7.23,2.39h-.45c-1.66-2.51-4.66-3-7.23-2.39s-4.93,2.22-7.42,3.22a17.56,17.56,0,0,1-10.92.76c6.22,9.13,16.19,14.11,25.79,12.93,9.61,1.18,19.58-3.8,25.79-12.93A17.53,17.53,0,0,1,190.78,240.2Z"/><path class="cls-3" d="M94.19,186.46a13,13,0,1,0,12.64,13A12.84,12.84,0,0,0,94.19,186.46Z"/><path class="cls-4" d="M263.42,186.46a13,13,0,1,0,12.65,13A12.85,12.85,0,0,0,263.42,186.46Z"/><circle class="cls-6" cx="87.94" cy="211.45" r="8.1" transform="translate(-32.81 16.87) rotate(-9.24)"/><path class="cls-6" d="M266,201a8.1,8.1,0,1,0,8.09,8.1A8.1,8.1,0,0,0,266,201Z"/><path class="cls-5" d="M248.29,95.82c-9.78-9.44-21.58-15.51-32.38-17.2,7.58-2.7,14.24-15.54,12.6-23.42S220.6,41,213.32,37.56a67.12,67.12,0,0,0-25.07-5.82c-14.41-.36-31.15-.36-44.52,5.06C134.82,40.41,126.1,47.11,122.48,56s-.18,23.47,9.11,26c-14.56,8.29-24.27,18.67-33.16,32.86s-12.31,32.54-5.89,48c2.31,5.56-.77,11.7-1,17.71-.23,5.71,2.72,10.14,2.61,15.86-.08,4.28,1.85,8.34,2.34,12.59.86,7.58-2.89,14.83-4.6,22.27a42.73,42.73,0,0,0,7.54,34.92c3.06,4,7,7.85,7.53,12.86,3.92-6.2,1.4-14.37-1.9-20.93s-7.44-13.4-6.4-20.67c1.18-8.26,8.87-14.79,9-23.13.06-6.64-4.76-13.46-1.93-19.47-.18,6,6.18,10.13,7.91,15.88,1.94,6.46-2.3,12.93-4.5,19.31a33.24,33.24,0,0,0,2.57,27c2.37,4.15,5.7,7.86,7,12.46,3.73,13.64-11.94,26.71-9,40.54.74,3.54,2.66,6.7,4.27,9.95a59.64,59.64,0,0,1,6,22.74,37.13,37.13,0,0,0,1.21-23.51c-1.1-3.93-2.86-7.77-2.86-11.85,0-12.8,16.9-21.69,15-34.36-1.2-8.08-9.66-13.09-12.62-20.7-6-15.33,12.42-31.19,9.13-47.3-1.86-9.08-10.14-15.47-13.51-24.1-3.52-9-1.24-19.25,2.17-28.32,4-10.7,10.1-21.38,20.15-26.81,6.53-3.53,14.13-4.49,21.55-4.79a137.21,137.21,0,0,1,49.72,7.22c10.17,3.47,20.19,8.33,27.48,16.22,13.89,15,17.9,40.77,21,53.85,5.74-12.82,2.11-17.82,5.2-29C277.3,119.43,254.49,101.8,248.29,95.82Z"/><path class="cls-6" d="M249.38,124.09c-20.5-8.57-43.19-10-65.39-10.77,12.23,0,31.45.65,39.21-21.95-12.28-5.57-36.3,2-43.43,13.44-6.22-9.38-28.89-20.1-39.88-22.55-8.1,27.66,8.09,32.39,20.06,34.56-49.74,3.22-74.48,25.33-75.43,27-.7,1.23.21,32.52,7.92,39.44a211.84,211.84,0,0,1,73.05-44.77c3.79-1.36,7.75-2.63,11.76-2.28s7.79,2.34,11.39,4.29l36.27,19.65c13.29,7.2,26.79,14.55,37.44,25.28,10.17-.11,9.42-45.61,8.42-51.11C263.27,130.57,263.48,130,249.38,124.09Z"/><path class="cls-7" d="M213.42,114.31a5.74,5.74,0,1,0,5.73,5.73A5.74,5.74,0,0,0,213.42,114.31Z"/><path class="cls-7" d="M100.09,148a5.74,5.74,0,1,0,5.73,5.73A5.73,5.73,0,0,0,100.09,148Z"/><path class="cls-7" d="M116.55,125.65c-2.92,1-5.71,2.1-8.37,3.18a6,6,0,0,0-.27,1.76,5.74,5.74,0,1,0,8.64-4.94Z"/><path class="cls-7" d="M124.71,146.69a5.73,5.73,0,0,0-.19,11.46c1.77-1.12,3.56-2.2,5.36-3.26a5.67,5.67,0,0,0,.56-2.47A5.73,5.73,0,0,0,124.71,146.69Z"/><path class="cls-7" d="M95.36,177.38a5.57,5.57,0,0,0,.53,2.38q4.1-3.69,8.39-7.15a5.74,5.74,0,0,0-8.92,4.77Z"/><path class="cls-7" d="M136.18,128.81a5.74,5.74,0,1,0,5.73,5.74A5.74,5.74,0,0,0,136.18,128.81Z"/><path class="cls-7" d="M159.45,134.88a5.73,5.73,0,0,0-5.73,5.74,5.66,5.66,0,0,0,.37,2q5.28-2.25,10.66-4.21A5.74,5.74,0,0,0,159.45,134.88Z"/><path class="cls-7" d="M149.68,113.67a35.36,35.36,0,0,0,4.65,1.58,5.7,5.7,0,0,0-4-1.62C150.12,113.63,149.9,113.65,149.68,113.67Z"/><path class="cls-7" d="M144.73,118.22a5.4,5.4,0,0,0-.12,1.15,5.74,5.74,0,1,0,10.88-2.53C151.82,117.18,148.23,117.65,144.73,118.22Z"/><path class="cls-7" d="M146,88a5.73,5.73,0,0,0,11.44.47c-3.44-1.66-6.87-3.1-10-4.25A5.69,5.69,0,0,0,146,88Z"/><circle class="cls-7" cx="163.5" cy="103.85" r="5.73"/><path class="cls-7" d="M175.3,118a5.74,5.74,0,1,0,5.74,5.73A5.74,5.74,0,0,0,175.3,118Z"/><path class="cls-7" d="M193.37,93.74a45.44,45.44,0,0,0-5.08,2.74,5.73,5.73,0,1,0,5.08-2.74Z"/><path class="cls-7" d="M211.06,99.47a5.73,5.73,0,0,0-3.67,10.14,26.83,26.83,0,0,0,9-6.53A5.72,5.72,0,0,0,211.06,99.47Z"/><path class="cls-7" d="M195.2,129.49a5.73,5.73,0,1,0,5.74,5.73A5.73,5.73,0,0,0,195.2,129.49Z"/><path class="cls-7" d="M220.5,133.2a5.73,5.73,0,1,0,5.73,5.73A5.72,5.72,0,0,0,220.5,133.2Z"/><path class="cls-7" d="M234.28,118.73a5.73,5.73,0,1,0,9.83,4,6,6,0,0,0-.1-1C240.81,120.55,237.56,119.58,234.28,118.73Z"/><path class="cls-7" d="M243.77,137.24a5.74,5.74,0,1,0,5.74,5.74A5.74,5.74,0,0,0,243.77,137.24Z"/><path class="cls-7" d="M230,154.78a5.73,5.73,0,0,0-5.64,4.71l.6.32c3,1.62,6,3.24,8.93,4.9a5.68,5.68,0,0,0,1.84-4.19A5.74,5.74,0,0,0,230,154.78Z"/><path class="cls-7" d="M261.66,129.68a5.73,5.73,0,1,0,8.76,4.87c0-.05,0-.1,0-.14C267.5,132.83,264.59,131.23,261.66,129.68Z"/><path class="cls-7" d="M259.29,153.77a5.74,5.74,0,1,0,5.73,5.74A5.73,5.73,0,0,0,259.29,153.77Z"/></svg>