<svg id="Layer_1" data-name="Layer 1" xmlns="http://www.w3.org/2000/svg" viewBox="0 0 352.44 352.44"><defs><style>.cls-1{fill:#6c53d3;}.cls-2{fill:#512da8;}.cls-3{fill:#ffccbc;}.cls-4{fill:#efac9a;}.cls-5{fill:#b76b5c;}.cls-6{fill:#231f20;}.cls-7{fill:#e64a19;}.cls-8{fill:#548936;}</style></defs><circle class="cls-1" cx="176.22" cy="176.22" r="176.22"/><path class="cls-2" d="M176.36,0V352.43A176.22,176.22,0,0,0,176.36,0Z"/><ellipse class="cls-3" cx="176.97" cy="180.04" rx="85" ry="100.68"/><path class="cls-4" d="M177,79.36h-.65V280.72H177c46.94,0,85-45.08,85-100.69S223.91,79.36,177,79.36Z"/><path class="cls-5" d="M177.16,240.34A28.7,28.7,0,0,0,205.73,212H148.59A28.7,28.7,0,0,0,177.16,240.34Z"/><path class="cls-6" d="M160.87,168.09a7.49,7.49,0,1,0,7.49,7.49A7.49,7.49,0,0,0,160.87,168.09Z"/><path class="cls-6" d="M193.45,168.09a7.49,7.49,0,1,0,7.49,7.49A7.49,7.49,0,0,0,193.45,168.09Z"/><rect class="cls-7" x="142.3" y="148.25" width="26.06" height="4.55"/><rect class="cls-7" x="185.96" y="148.25" width="26.06" height="4.55"/><path class="cls-3" d="M91.6,161a13,13,0,1,0,12.65,13A12.84,12.84,0,0,0,91.6,161Z"/><path class="cls-4" d="M260.84,161a13,13,0,1,0,12.64,13A12.84,12.84,0,0,0,260.84,161Z"/><path class="cls-8" d="M200.21,154.37A18.72,18.72,0,0,0,181.53,172H173a18.74,18.74,0,1,0-.11,3.38h8.72a18.72,18.72,0,1,0,18.57-21Zm-45.87,33.9a15.18,15.18,0,1,1,15.18-15.18A15.2,15.2,0,0,1,154.34,188.27Zm45.87,0a15.18,15.18,0,1,1,15.18-15.18A15.19,15.19,0,0,1,200.21,188.27Z"/><path class="cls-7" d="M176.72,72.62c-41.05,0-75.56,30.93-85.49,72.86h171C252.29,103.55,217.77,72.62,176.72,72.62Z"/></svg>