<svg id="Layer_1" data-name="Layer 1" xmlns="http://www.w3.org/2000/svg" viewBox="0 0 352.44 352.44"><defs><style>.cls-1{fill:#607d8b;}.cls-2{fill:#546e7a;}.cls-3{fill:#ffe7d7;}.cls-4{fill:#f2d4c0;}.cls-5{fill:#ff3d00;}.cls-6{fill:#231f20;}.cls-7{fill:#bc2800;}</style></defs><circle class="cls-1" cx="176.22" cy="176.22" r="176.22" transform="translate(-72.99 176.22) rotate(-45)"/><path class="cls-2" d="M176.36,0V352.43A176.22,176.22,0,0,0,176.36,0Z"/><ellipse class="cls-3" cx="95.09" cy="195.06" rx="12.65" ry="13.03"/><ellipse class="cls-4" cx="264.33" cy="195.06" rx="12.65" ry="13.03"/><ellipse class="cls-3" cx="176.9" cy="197.18" rx="85" ry="100.68"/><path class="cls-4" d="M176.9,96.49h-.64V297.85h.64c46.94,0,85-45.08,85-100.68S223.84,96.49,176.9,96.49Z"/><path class="cls-5" d="M246.82,90.48C237,81,225.23,75,214.44,73.28,222,70.58,228.67,57.74,227,49.86s-7.91-14.21-15.18-17.64a67.12,67.12,0,0,0-25.07-5.82c-14.42-.36-31.15-.36-44.52,5.06-8.91,3.61-17.63,10.31-21.25,19.22s-.18,23.47,9.11,26c-14.56,8.29-26.63,13.76-35.52,28s-9.95,37.43-3.53,52.9c2.31,5.56,5.87,10.95,5.63,17-.23,5.72-3.93,10.89-4,16.61-.08,4.28,1.85,8.34,2.34,12.59.86,7.58-2.89,14.83-4.6,22.27a42.73,42.73,0,0,0,7.54,34.92c3.06,4,7,7.85,7.53,12.86,3.92-6.2,1.4-14.37-1.91-20.93s-7.43-13.4-6.39-20.67c1.18-8.26,8.87-14.78,9-23.13.06-6.64-4.76-13.46-1.93-19.47-.18,6,6.18,10.13,7.9,15.88,1.94,6.46-2.29,12.93-4.49,19.31a33.27,33.27,0,0,0,2.56,27c2.38,4.15,5.7,7.86,7,12.47,3.73,13.63-11.94,26.7-9,40.53.75,3.54,2.67,6.7,4.27,9.95a59.65,59.65,0,0,1,6,22.74,37.2,37.2,0,0,0,1.21-23.51c-1.1-3.93-2.87-7.77-2.87-11.84,0-12.81,16.9-21.7,15-34.37-1.2-8.08-9.66-13.09-12.62-20.7-6-15.33,12.42-31.19,9.13-47.3-1.86-9.08-10.14-15.47-13.51-24.1-3.52-9-1.24-19.25,2.17-28.32,4-10.7,29.5-41.5,91.42-24.38a58.84,58.84,0,0,1,27.48,16.22c13.89,15,20.73,56.35,23.8,69.43,5.74-12.82-.72-33.4,2.37-44.55C275.83,114.09,253,96.46,246.82,90.48Z"/><path class="cls-6" d="M194.65,181.35a7.49,7.49,0,1,0,7.49,7.49A7.49,7.49,0,0,0,194.65,181.35Z"/><path class="cls-6" d="M199.94,161.42a20.93,20.93,0,0,0-12.77,4.08v6.37c3.07-4.2,25.83-5.25,29.12-2.42C213.46,164.71,207.2,161.42,199.94,161.42Z"/><path class="cls-6" d="M158.9,181.8a7.49,7.49,0,1,0,7.49,7.49A7.49,7.49,0,0,0,158.9,181.8Z"/><path class="cls-6" d="M137.27,169c3.29-2.83,26-1.78,29.12,2.42v-6.38A21,21,0,0,0,153.61,161C146.35,161,140.1,164.27,137.27,169Z"/><path class="cls-7" d="M191.1,233.79c-2.5-1-4.85-2.58-7.42-3.22s-5.58-.13-7.24,2.38H176c-1.66-2.51-4.66-3-7.24-2.38s-4.92,2.21-7.41,3.22a17.64,17.64,0,0,1-10.92.76c6.21,9.13,16.19,14.1,25.79,12.93,9.6,1.17,19.58-3.8,25.79-12.93A17.6,17.6,0,0,1,191.1,233.79Z"/></svg>