<svg id="Layer_1" data-name="Layer 1" xmlns="http://www.w3.org/2000/svg" viewBox="0 0 352.44 352.44"><defs><style>.cls-1{fill:#b7c1ed;}.cls-2{fill:#9fa8da;}.cls-3{fill:#ffe7d7;}.cls-4{fill:#f2d4c0;}.cls-5{fill:#231f20;}.cls-6{fill:#d81b60;}.cls-7{fill:#546e7a;}</style></defs><circle class="cls-1" cx="176.22" cy="176.22" r="176.22" transform="translate(-72.99 176.22) rotate(-45)"/><path class="cls-2" d="M176.36,0V352.43A176.22,176.22,0,0,0,176.36,0Z"/><ellipse class="cls-3" cx="176.43" cy="193.69" rx="85" ry="100.68"/><path class="cls-4" d="M176.43,93h-.64V294.37h.64c46.94,0,85-45.08,85-100.69S223.37,93,176.43,93Z"/><ellipse class="cls-3" cx="91.51" cy="188.21" rx="12.65" ry="13.03"/><path class="cls-4" d="M263.53,175.18a13,13,0,1,0,12.64,13A12.85,12.85,0,0,0,263.53,175.18Z"/><path class="cls-5" d="M193.19,191.26a7.49,7.49,0,1,0,7.49,7.49A7.49,7.49,0,0,0,193.19,191.26Z"/><path class="cls-5" d="M198.48,171.33a21,21,0,0,0-12.78,4.07v6.38c3.07-4.2,25.83-5.25,29.12-2.42C212,174.62,205.74,171.33,198.48,171.33Z"/><circle class="cls-5" cx="157.43" cy="199.19" r="7.49" transform="translate(-41.55 41.5) rotate(-13.28)"/><path class="cls-5" d="M135.8,178.92c3.29-2.84,26-1.78,29.12,2.42V175a21,21,0,0,0-12.78-4.08C144.88,170.88,138.63,174.18,135.8,178.92Z"/><path class="cls-6" d="M189.63,243.69c-2.5-1-4.85-2.57-7.42-3.21s-5.57-.13-7.23,2.38h-.45c-1.66-2.51-4.66-3-7.23-2.38s-4.93,2.21-7.42,3.21a17.64,17.64,0,0,1-10.92.77c6.22,9.12,16.19,14.1,25.79,12.92,9.61,1.18,19.58-3.8,25.79-12.92A17.61,17.61,0,0,1,189.63,243.69Z"/><path class="cls-7" d="M268.11,195.75a4.39,4.39,0,1,0,4.38,4.38A4.39,4.39,0,0,0,268.11,195.75Z"/><path class="cls-7" d="M272.49,208.9a4.39,4.39,0,1,0-6.07,4,4.39,4.39,0,1,0,3.37,0A4.37,4.37,0,0,0,272.49,208.9Z"/><path class="cls-7" d="M269.47,238a4.39,4.39,0,0,0,.32-8.22,4.39,4.39,0,1,0-3.37,0,4.39,4.39,0,0,0,.32,8.22,8.78,8.78,0,1,0,2.73,0Z"/><path class="cls-7" d="M87.47,195.75a4.39,4.39,0,1,0,4.38,4.38A4.39,4.39,0,0,0,87.47,195.75Z"/><path class="cls-7" d="M91.85,208.9a4.39,4.39,0,1,0-6.07,4,4.38,4.38,0,1,0,3.38,0A4.38,4.38,0,0,0,91.85,208.9Z"/><path class="cls-7" d="M88.84,238a4.39,4.39,0,0,0,.32-8.22,4.39,4.39,0,1,0-3.38,0A4.39,4.39,0,0,0,86.1,238a8.77,8.77,0,1,0,2.74,0Z"/><path class="cls-5" d="M237.2,116.53c.53-9.77-7.18-17-14.3-21.37a93.29,93.29,0,0,0-23.3-10.71c-18.95-5.45-39.25-2.64-57.17,6.7s-33.46,25-45.24,44.06c-2.84,4.59-5.87,9.72-10.44,11.06.8,2.91,1.59,5.81,2.38,8.72l-15.81-.06a21.37,21.37,0,0,1,7.31,11.66A31.43,31.43,0,0,1,51,162.31c6.19,6,12.55,12.06,20,15.14,7.88,3.25,16.41,2.9,24.71,2.31,28.29-2,57.22-6.64,82.22-23,6.56-4.3,12.79-9.37,19.59-13,7.29-3.94,15.15-6.23,22.21-10.74,5.06-3.22,10-7.68,15.7-7.66.17,6.64-1.58,13.8,1,19.62,4,8.89,21,29.26,25.57,37.68,1.83-9.39-3.84-40.16-7.09-49S245,117.75,237.2,116.53Z"/><path class="cls-7" d="M256.72,112.07H243.07a65.24,65.24,0,0,0-130.21,0H99.2a6.09,6.09,0,0,0-6.07,6.07v2.36a6.09,6.09,0,0,0,6.07,6.07H256.72a6.09,6.09,0,0,0,6.07-6.07v-2.36A6.09,6.09,0,0,0,256.72,112.07Z"/></svg>