<svg id="Layer_1" data-name="Layer 1" xmlns="http://www.w3.org/2000/svg" viewBox="0 0 352.44 352.44"><defs><style>.cls-1{fill:#966f63;}.cls-2{fill:#795548;}.cls-3{fill:#ffccbc;}.cls-4{fill:#efac9a;}.cls-5{fill:#231f20;}.cls-6{fill:#880e4f;}.cls-7{fill:#ff8f00;}.cls-8{fill:#dd2c00;}.cls-9{fill:#fff;}</style></defs><circle class="cls-1" cx="176.22" cy="176.22" r="176.22"/><path class="cls-2" d="M176.36,0V352.43A176.22,176.22,0,0,0,176.36,0Z"/><ellipse class="cls-3" cx="94.73" cy="204.38" rx="12.65" ry="13.03"/><ellipse class="cls-4" cx="263.97" cy="204.38" rx="12.65" ry="13.03"/><ellipse class="cls-3" cx="176.53" cy="205.99" rx="85" ry="100.68"/><path class="cls-4" d="M176.53,105.3h-.64V306.66h.64c46.94,0,85-45.08,85-100.68S223.47,105.3,176.53,105.3Z"/><circle class="cls-5" cx="193.66" cy="204.33" r="7.49"/><path class="cls-5" d="M199,176.91A21,21,0,0,0,186.17,181v6.38c3.07-4.2,25.83-5.25,29.12-2.42C212.46,180.2,206.21,176.91,199,176.91Z"/><path class="cls-5" d="M157.9,197.29a7.49,7.49,0,1,0,7.49,7.48A7.48,7.48,0,0,0,157.9,197.29Z"/><path class="cls-5" d="M136.27,184.5c3.29-2.84,26-1.78,29.12,2.42v-6.38a21,21,0,0,0-12.77-4.08C145.35,176.46,139.1,179.76,136.27,184.5Z"/><path class="cls-6" d="M190.1,249.27c-2.49-1-4.84-2.57-7.42-3.21s-5.57-.13-7.23,2.38H175c-1.67-2.51-4.67-3-7.24-2.38s-4.92,2.21-7.42,3.21a17.61,17.61,0,0,1-10.91.77c6.21,9.12,16.18,14.1,25.79,12.92,9.6,1.18,19.57-3.8,25.79-12.92A17.64,17.64,0,0,1,190.1,249.27Z"/><path class="cls-7" d="M236.17,99.48a122.8,122.8,0,0,1-4.37-30.13,25.68,25.68,0,0,0-10,11.64q-2-4.83-4-9.64a24.3,24.3,0,0,1-4.47,8.28A34,34,0,0,0,202,58a28.31,28.31,0,0,1-7.17,22,41,41,0,0,0-4.6-12l-4.61,5.3a52.11,52.11,0,0,1-1.86-21.71,43.33,43.33,0,0,0-23,27.31q-3.48-4.47-6.94-9l-3.63,8.39A38.58,38.58,0,0,0,130,57.54a35,35,0,0,1-3.67,31.85,66.38,66.38,0,0,0-6.44-8.57,26,26,0,0,0-4.12,9.42,25.49,25.49,0,0,1-5.46-18.45c-4.8,5.74-6.1,13.64-6.23,21.12s.74,15-.52,22.42q-2.88-5.22-5.78-10.44c-.67,7.39-10,29.48-7.76,40,1.71,8,5.31,23.27,7.09,23.78,1.35.38,16.69-26.1,79.43-25.55,58.44.5,74.17,21,79.18,27.06,12.14-48.31-11.44-59.5-12.29-81.31Q239.81,94.2,236.17,99.48Z"/><path class="cls-5" d="M87.77,212.21a4,4,0,1,0,4,4A4,4,0,0,0,87.77,212.21Z"/><circle class="cls-5" cx="264.09" cy="214.74" r="4.05"/><path class="cls-8" d="M247.77,166.46c-20.5-8.57-43.19-10-65.39-10.77,12.23,0,31.45.65,39.21-21.95-12.28-5.57-36.3,2-43.43,13.45-6.22-9.39-28.89-20.1-39.88-22.55-8.1,27.66,8.09,32.38,20.06,34.56-49.74,3.21-74.48,25.32-75.42,27-.7,1.23.2,32.52,7.91,39.44a211.67,211.67,0,0,1,73.05-44.76c3.79-1.37,7.75-2.64,11.76-2.29s7.8,2.34,11.39,4.29l36.28,19.65c13.29,7.2,26.78,14.55,37.43,25.28,10.17-.11,9.42-45.61,8.42-51.11C261.66,172.94,261.87,172.35,247.77,166.46Z"/><path class="cls-9" d="M211.81,156.68a5.74,5.74,0,1,0,5.73,5.73A5.73,5.73,0,0,0,211.81,156.68Z"/><path class="cls-9" d="M98.48,190.41a5.74,5.74,0,1,0,5.73,5.73A5.74,5.74,0,0,0,98.48,190.41Z"/><path class="cls-9" d="M114.94,168c-2.91,1-5.71,2.1-8.37,3.19a5.93,5.93,0,0,0-.27,1.75,5.74,5.74,0,1,0,8.64-4.94Z"/><path class="cls-9" d="M123.1,189.06a5.73,5.73,0,0,0-.19,11.46q2.66-1.67,5.36-3.26a5.67,5.67,0,0,0,.57-2.47A5.74,5.74,0,0,0,123.1,189.06Z"/><path class="cls-9" d="M93.76,219.75a5.71,5.71,0,0,0,.52,2.38q4.09-3.67,8.39-7.15a5.73,5.73,0,0,0-8.91,4.77Z"/><path class="cls-9" d="M134.57,171.18a5.74,5.74,0,1,0,5.73,5.74A5.73,5.73,0,0,0,134.57,171.18Z"/><path class="cls-9" d="M157.84,177.26a5.73,5.73,0,0,0-5.73,5.73,5.94,5.94,0,0,0,.37,2q5.28-2.25,10.66-4.22A5.73,5.73,0,0,0,157.84,177.26Z"/><path class="cls-9" d="M148.07,156.05a37.59,37.59,0,0,0,4.66,1.58,5.69,5.69,0,0,0-4-1.62A4.92,4.92,0,0,0,148.07,156.05Z"/><path class="cls-9" d="M143.12,160.59a5.47,5.47,0,0,0-.12,1.15,5.74,5.74,0,0,0,11.47,0,5.81,5.81,0,0,0-.59-2.53Q148.38,159.74,143.12,160.59Z"/><path class="cls-9" d="M144.35,130.37a5.73,5.73,0,0,0,11.44.47c-3.43-1.65-6.87-3.1-10-4.25A5.69,5.69,0,0,0,144.35,130.37Z"/><path class="cls-9" d="M161.89,140.49a5.74,5.74,0,1,0,5.73,5.73A5.73,5.73,0,0,0,161.89,140.49Z"/><path class="cls-9" d="M173.7,160.39a5.74,5.74,0,1,0,5.73,5.73A5.74,5.74,0,0,0,173.7,160.39Z"/><path class="cls-9" d="M191.76,136.11a45.49,45.49,0,0,0-5.08,2.75,5.73,5.73,0,1,0,10.63,3A5.75,5.75,0,0,0,191.76,136.11Z"/><path class="cls-9" d="M209.45,141.84A5.73,5.73,0,0,0,205.78,152a26.69,26.69,0,0,0,9-6.53A5.74,5.74,0,0,0,209.45,141.84Z"/><path class="cls-9" d="M193.6,171.86a5.74,5.74,0,1,0,5.73,5.73A5.74,5.74,0,0,0,193.6,171.86Z"/><path class="cls-9" d="M218.89,175.57a5.74,5.74,0,1,0,5.74,5.73A5.74,5.74,0,0,0,218.89,175.57Z"/><path class="cls-9" d="M232.67,161.1a5.73,5.73,0,1,0,9.83,4,5.19,5.19,0,0,0-.1-1.05Q237.6,162.37,232.67,161.1Z"/><path class="cls-9" d="M242.17,179.62a5.73,5.73,0,1,0,5.73,5.73A5.73,5.73,0,0,0,242.17,179.62Z"/><path class="cls-9" d="M228.34,197.16a5.73,5.73,0,0,0-5.64,4.7l.61.33c3,1.61,6,3.23,8.92,4.9a5.72,5.72,0,0,0-3.89-9.93Z"/><path class="cls-9" d="M260.06,172.05a5.73,5.73,0,1,0,8.75,4.87v-.14C265.89,175.2,263,173.6,260.06,172.05Z"/><path class="cls-9" d="M257.68,196.14a5.74,5.74,0,1,0,5.74,5.74A5.73,5.73,0,0,0,257.68,196.14Z"/></svg>