<svg id="Layer_1" data-name="Layer 1" xmlns="http://www.w3.org/2000/svg" viewBox="0 0 352.44 352.44"><defs><style>.cls-1{fill:#15edc9;}.cls-2{fill:#00bfa5;}.cls-3{fill:#ffccbc;}.cls-4{fill:#efac9a;}.cls-5{fill:#231f20;}.cls-6{fill:#682319;}.cls-7{fill:#b76b5c;}</style></defs><circle class="cls-1" cx="176.22" cy="176.22" r="176.22" transform="translate(-72.99 176.22) rotate(-45)"/><path class="cls-2" d="M176.36,0V352.43A176.22,176.22,0,0,0,176.36,0Z"/><ellipse class="cls-3" cx="177.44" cy="179.16" rx="85" ry="100.68"/><path class="cls-4" d="M177.44,78.48h-.64V279.84h.64c46.95,0,85-45.08,85-100.69S224.39,78.48,177.44,78.48Z"/><path class="cls-5" d="M161.34,167.21a7.49,7.49,0,1,0,7.49,7.48A7.48,7.48,0,0,0,161.34,167.21Z"/><path class="cls-5" d="M193.93,167.21a7.49,7.49,0,1,0,7.49,7.48A7.48,7.48,0,0,0,193.93,167.21Z"/><rect class="cls-6" x="142.78" y="147.37" width="26.06" height="4.55"/><rect class="cls-6" x="186.44" y="147.37" width="26.06" height="4.55"/><path class="cls-7" d="M177.64,239.45a28.7,28.7,0,0,0,28.57-28.33H149.06A28.71,28.71,0,0,0,177.64,239.45Z"/><path class="cls-3" d="M93,163.25a13,13,0,1,0,12.65,13A12.85,12.85,0,0,0,93,163.25Z"/><ellipse class="cls-4" cx="262.28" cy="176.28" rx="12.65" ry="13.03"/><path class="cls-6" d="M128.08,124.49c-3.6-1.41-13.41-5.84-17.44-9.33-1.09,1.43-2.19,2.92-3.3,4.49-7.84,11-8.84,22.61-13,35.5-1,3.27-1.6,8.09.76,9.66,7.74,5.15,7.32,13.38,6.23,20.43C99.39,197.87,88.68,196.8,89.83,205c0,14,22.77,45.1,27.5,45.25-2.64-16.85-5.86-70.79-7.75-87.75-.79-7.12-.25-15,4-21.75C117.4,134.68,134.75,127.11,128.08,124.49Z"/><path class="cls-6" d="M253.51,185.24c-1.09-7.05-1.51-15.28,6.23-20.43,2.36-1.57,1.81-6.39.76-9.66-4.16-12.89-5.16-24.45-13-35.5-1.11-1.57-2.21-3.06-3.3-4.49-4,3.49-13.84,7.92-17.44,9.33-6.68,2.62,10.68,10.19,14.5,16.25,4.25,6.75,4.79,14.63,4,21.75-1.89,17-5.11,70.9-7.75,87.75C242.24,250.09,265,219,265,205,266.15,196.8,255.45,197.87,253.51,185.24Z"/><path class="cls-6" d="M221.65,203.89c-3.8-1.42-6.5-4.76-9.74-7.2-9.38-7-22.3-6-34-4.59-11.66-1.41-24.58-2.44-34,4.59-3.25,2.44-5.94,5.78-9.75,7.2-4.77,1.79-14.07.46-15.57-4.79-7,15.5,8.11,20.56,11.75,20.75,2.47.13,9.5,0,12.25-3.25,1.87-2.21,2.27-6.64,4.9-7.86,2.29-1.06,4.91-1.12,7.44-1.17l22.94-.39,22.94.39c2.53.05,5.14.11,7.44,1.17,2.63,1.22,3,5.65,4.9,7.86,2.75,3.25,9.78,3.38,12.25,3.25,3.63-.19,18.75-5.25,11.75-20.75C235.73,204.35,226.43,205.68,221.65,203.89Z"/></svg>