<svg id="Layer_1" data-name="Layer 1" xmlns="http://www.w3.org/2000/svg" viewBox="0 0 352.44 352.44"><defs><style>.cls-1{fill:#ff5177;}.cls-2{fill:#d81b60;}.cls-3{fill:#ffe7d7;}.cls-4{fill:#f2d4c0;}.cls-5{fill:#231f20;}.cls-6{fill:#682319;}.cls-7{fill:#ffd54f;}</style></defs><circle class="cls-1" cx="186.12" cy="173.28" r="176.22" transform="translate(-68.01 182.36) rotate(-45)"/><path class="cls-2" d="M186.27-2.94V349.49a176.22,176.22,0,0,0,0-352.43Z"/><ellipse class="cls-3" cx="186.03" cy="184.57" rx="85" ry="100.68"/><path class="cls-4" d="M186,83.89h-.64V285.25H186c46.94,0,85-45.08,85-100.69S233,83.89,186,83.89Z"/><ellipse class="cls-3" cx="101.1" cy="179.09" rx="12.65" ry="13.03"/><ellipse class="cls-4" cx="273.12" cy="179.09" rx="12.65" ry="13.03"/><circle class="cls-5" cx="202.79" cy="188.62" r="7.49" transform="translate(-38.01 51.82) rotate(-13.33)"/><path class="cls-6" d="M208.07,161.19a20.93,20.93,0,0,0-12.77,4.08v6.38c3.07-4.2,25.83-5.25,29.12-2.42C221.59,164.49,215.34,161.19,208.07,161.19Z"/><circle class="cls-5" cx="167.03" cy="189.06" r="7.49" transform="translate(-84.76 173.48) rotate(-45)"/><path class="cls-6" d="M145.4,168.79c3.29-2.84,26-1.78,29.12,2.41v-6.37a21,21,0,0,0-12.78-4.08C154.48,160.75,148.23,164.05,145.4,168.79Z"/><path class="cls-2" d="M199.23,233.56c-2.5-1-4.85-2.57-7.42-3.22s-5.57-.12-7.24,2.39h-.44c-1.66-2.51-4.66-3-7.23-2.39s-4.93,2.22-7.42,3.22a17.57,17.57,0,0,1-10.92.76c6.22,9.13,16.19,14.11,25.79,12.93,9.61,1.18,19.58-3.8,25.79-12.93A17.53,17.53,0,0,1,199.23,233.56Z"/><circle class="cls-7" cx="277.71" cy="191.01" r="4.38"/><path class="cls-7" d="M282.09,199.78a4.39,4.39,0,1,0-6.07,4.05,4.39,4.39,0,1,0,3.37,0A4.37,4.37,0,0,0,282.09,199.78Z"/><path class="cls-7" d="M279.07,228.91a4.39,4.39,0,0,0,.32-8.22,4.39,4.39,0,1,0-3.37,0,4.39,4.39,0,0,0,.32,8.22,8.78,8.78,0,1,0,2.73,0Z"/><circle class="cls-7" cx="97.07" cy="191.01" r="4.38"/><path class="cls-7" d="M101.45,199.78a4.39,4.39,0,1,0-6.07,4.05,4.39,4.39,0,1,0,3.37,0A4.37,4.37,0,0,0,101.45,199.78Z"/><path class="cls-7" d="M98.43,228.91a4.39,4.39,0,0,0,.32-8.22,4.39,4.39,0,1,0-3.37,0,4.39,4.39,0,0,0,.32,8.22,8.78,8.78,0,1,0,2.73,0Z"/><path class="cls-6" d="M246.8,107.41c.53-9.77-7.18-17-14.3-21.37a93.29,93.29,0,0,0-23.3-10.71C190.24,69.88,170,72.69,152,82s-33.46,25-45.24,44.06c-2.84,4.59-5.87,9.72-10.44,11.06q1.2,4.35,2.38,8.72l-15.81-.06a21.37,21.37,0,0,1,7.31,11.66,31.42,31.42,0,0,1-29.63-4.28c6.19,6,12.55,12.06,20,15.14,7.88,3.25,16.41,2.9,24.71,2.31,28.29-2,57.22-6.64,82.22-23,6.55-4.3,12.78-9.37,19.59-13,7.28-3.94,15.14-6.23,22.21-10.74,5.06-3.22,10-7.68,15.7-7.66.17,6.64-1.59,13.8,1,19.62,4,8.89,20.95,29.26,25.56,37.68,1.84-9.39-3.83-40.16-7.09-48.95S254.59,108.63,246.8,107.41Z"/></svg>