<svg id="Layer_1" data-name="Layer 1" xmlns="http://www.w3.org/2000/svg" viewBox="0 0 352.44 352.44"><defs><style>.cls-1{fill:#6c53d3;}.cls-2{fill:#512da8;}.cls-3{fill:#d81b60;}.cls-4{fill:#ffe7d7;}.cls-5{fill:#f2d4c0;}.cls-6{fill:#231f20;}</style></defs><circle class="cls-1" cx="176.22" cy="176.22" r="176.22" transform="translate(-72.99 176.22) rotate(-45)"/><path class="cls-2" d="M176.36,0V352.43A176.22,176.22,0,0,0,176.36,0Z"/><path class="cls-3" d="M207.88,56.63c-9.48-2.78-39.51-7.39-74.2,3.37-39.13,12.15-62.2,58.81-69.82,91.07-11.72,49.6-4.72,96.47,15.51,130.54.89-7.16,3.09-18.8,5.74-25.3-1.69,32.38,3.71,34.4,8.43,46.55,3.11-7.11,4-19.88,7.08-27-1.11,22.45,4.39,28.67,16.53,38.45-7.7-40.94-3.6-52.59,1.67-94.08l6.33,19.62a144.88,144.88,0,0,1,9.95-75.34A63.26,63.26,0,0,0,141.29,197l4.45-13.36a69.92,69.92,0,0,1-.49,33.35,110.75,110.75,0,0,0,7.23-30.66,17.51,17.51,0,0,1,4.69,9.81,95.94,95.94,0,0,1,12.48-41.51,89.68,89.68,0,0,0-3.15,27.11l7-12a143.29,143.29,0,0,1-.06,34.63,104.79,104.79,0,0,0,9.25-27.63l3.34,18c6.28-8.62,9.42-20.4,8.46-31.77l4.9,22.18a11.55,11.55,0,0,0,3.42-6.85,126.63,126.63,0,0,1,4,15.53l2.31-5.19a135.69,135.69,0,0,1,6,30.29,92.49,92.49,0,0,0,1.37-29.42l2.94,6.9a78.72,78.72,0,0,0,3.21-22.72c7.78,21.69-.17,47.24-1.22,70.79l7.75-14.16c-4,24.48,5.4,57,10.46,78.25,8.09-9.11,5-21.07,7.08-27-.67,18.55,3,19.31,4.72,25,20.24-22.94,19.87-42.72,19.9-53.63,2,4.61,4.77,29.11,6.75,33.73,35.08-66.45,8.06-160.58-8.44-185C248.7,70.8,234.15,64.34,207.88,56.63Z"/><ellipse class="cls-4" cx="95.06" cy="182.62" rx="12.65" ry="13.03"/><ellipse class="cls-5" cx="264.3" cy="182.62" rx="12.65" ry="13.03"/><ellipse class="cls-4" cx="176.86" cy="184.23" rx="85" ry="100.68"/><path class="cls-5" d="M176.86,83.55h-.64V284.9h.64c46.95,0,85-45.08,85-100.68S223.81,83.55,176.86,83.55Z"/><path class="cls-6" d="M194,186.72a7.49,7.49,0,1,0,7.49,7.49A7.5,7.5,0,0,0,194,186.72Z"/><path class="cls-6" d="M199.28,166.79a21,21,0,0,0-12.78,4.08v6.37c3.08-4.2,25.83-5.25,29.12-2.42C212.79,170.08,206.54,166.79,199.28,166.79Z"/><circle class="cls-6" cx="158.24" cy="194.65" r="7.49" transform="translate(-29.2 27.93) rotate(-9.24)"/><path class="cls-6" d="M136.6,174.38c3.29-2.83,26.05-1.78,29.12,2.42v-6.38A21,21,0,0,0,153,166.34C145.69,166.34,139.43,169.64,136.6,174.38Z"/><path class="cls-3" d="M190.43,239.16c-2.49-1-4.84-2.58-7.41-3.22s-5.58-.13-7.24,2.38h-.44c-1.67-2.51-4.67-3-7.24-2.38s-4.92,2.21-7.42,3.22a17.6,17.6,0,0,1-10.91.76C156,249,166,254,175.56,252.84c9.6,1.18,19.57-3.8,25.79-12.92A17.64,17.64,0,0,1,190.43,239.16Z"/><circle class="cls-6" cx="88.31" cy="196.74" r="10.62" transform="translate(-117.72 260.42) rotate(-83)"/><circle class="cls-6" cx="270.45" cy="193.23" r="10.62" transform="translate(28.94 421.61) rotate(-78.94)"/><path class="cls-3" d="M177,79.63c-47.37,0-85.9,36.94-87,82.91H264C262.92,116.57,224.39,79.63,177,79.63Z"/><path class="cls-6" d="M238.91,102a93.86,93.86,0,0,0-125.12,0c-15.74,14.41-25.13,33.37-26.74,53.79h5.08c3.48-40.44,40.3-72.62,84.22-72.62s80.73,32.18,84.22,72.62h5.08C264,135.38,254.64,116.42,238.91,102Z"/><path class="cls-6" d="M122.55,95.08c-3,1-31.37,6.41-31.37,6.41l14.5,23.27s18.89-24.28,19.9-23.94,30.36-6.08,30.36-6.08L144.13,71.81Z"/></svg>