<svg id="Layer_1" data-name="Layer 1" xmlns="http://www.w3.org/2000/svg" viewBox="0 0 352.44 352.44"><defs><style>.cls-1{fill:#7da3b2;}.cls-2{fill:#607d8b;}.cls-3{fill:#ffe7d7;}.cls-4{fill:#f2d4c0;}.cls-5{fill:#231f20;}.cls-6{fill:#ff5177;}.cls-7{fill:#5b5557;}</style></defs><circle class="cls-1" cx="176.22" cy="176.22" r="176.22"/><path class="cls-2" d="M176.36,0V352.43A176.22,176.22,0,0,0,176.36,0Z"/><ellipse class="cls-3" cx="176.52" cy="206.32" rx="85" ry="100.68"/><path class="cls-4" d="M176.52,105.63h-.64V307h.64c46.94,0,85-45.08,85-100.68S223.46,105.63,176.52,105.63Z"/><path class="cls-3" d="M91.59,187.81a13,13,0,1,0,12.65,13A12.84,12.84,0,0,0,91.59,187.81Z"/><ellipse class="cls-4" cx="263.61" cy="200.83" rx="12.65" ry="13.03"/><circle class="cls-5" cx="193.28" cy="206.31" r="7.49" transform="translate(-35.1 372.93) rotate(-82.98)"/><path class="cls-5" d="M198.56,178.89A20.93,20.93,0,0,0,185.79,183v6.37c3.07-4.2,25.83-5.25,29.12-2.42C212.08,182.18,205.83,178.89,198.56,178.89Z"/><path class="cls-5" d="M157.52,199.27a7.49,7.49,0,1,0,7.49,7.48A7.48,7.48,0,0,0,157.52,199.27Z"/><path class="cls-5" d="M135.89,186.48c3.29-2.83,26.05-1.78,29.12,2.42v-6.38a21,21,0,0,0-12.78-4.08C145,178.44,138.72,181.74,135.89,186.48Z"/><path class="cls-6" d="M189.72,251.26c-2.5-1-4.85-2.58-7.42-3.22s-5.57-.13-7.24,2.38h-.44c-1.66-2.51-4.66-3-7.23-2.38s-4.93,2.21-7.42,3.22a17.64,17.64,0,0,1-10.92.76c6.22,9.12,16.19,14.1,25.79,12.93,9.61,1.17,19.58-3.81,25.79-12.93A17.6,17.6,0,0,1,189.72,251.26Z"/><path class="cls-7" d="M105.53,146.05C97.77,158.87,93.05,172,93,187.5a39.56,39.56,0,0,1,17.39-2.68c5-9.67,10.75-19.1,18.37-26.89s18.61-14.91,46.16-19.2c-6.69-4.43-58.25-6.17-58.25-6.17A74,74,0,0,0,105.53,146.05Z"/><path class="cls-6" d="M269.26,124.41a46.43,46.43,0,0,0-.77-29.15,26.14,26.14,0,0,1-19.08,23.32,27.94,27.94,0,0,0,4-11.63,33.81,33.81,0,0,1-12.72,5c11.4-14.14,12.1-35.9,1.65-50.76a32.74,32.74,0,0,1-15.43,18.36l-4.53-7.7a25.79,25.79,0,0,1-19.24,14.71c12.71-3.41,7.9-18.59.69-24.47-.88,6.14-3.39,13.5-8.47,16.51s-10.12,3.79-15,1.8a8.3,8.3,0,0,0,5-6c-8.63,2.23-16.36-5.51-24.89-8.08-10.31-3.1-23.05,2.36-31.5,9-10.52,8.29-18.22,14.17-20.92,38.79-1.76,16.12,1.16,22.42,2.7,25.3.82.27,12.48-13.83,45.58.93,5.44,2.43,9,7.78,13.51,11.65a69.55,69.55,0,0,0,17.54,11c5.08,2.2,10.58,3.8,16.09,3.27s11-3.55,13.34-8.57a20.41,20.41,0,0,0,15.74,13.63c4,9.05,9.72,18.49,19.15,21.51,8.75,2.8,18.66-1,25-7.7s9.45-15.78,11-24.83a88.48,88.48,0,0,0-6.41-50.69A24.23,24.23,0,0,1,269.26,124.41Z"/><polygon class="cls-5" points="89.81 205.88 86.1 205.88 86.1 264.12 76.32 264.12 76.32 267.55 86.1 267.55 86.1 289.19 89.81 289.19 89.81 267.55 99.25 267.55 99.25 264.12 89.81 264.12 89.81 205.88"/><polygon class="cls-5" points="267.9 207.23 264.19 207.23 264.19 265.47 254.41 265.47 254.41 268.9 264.19 268.9 264.19 290.54 267.9 290.54 267.9 268.9 277.35 268.9 277.35 265.47 267.9 265.47 267.9 207.23"/></svg>