<svg id="Layer_1" data-name="Layer 1" xmlns="http://www.w3.org/2000/svg" viewBox="0 0 352.44 352.44"><defs><style>.cls-1{fill:#03a9f4;}.cls-2{fill:#0288d1;}.cls-3{fill:#ffccbc;}.cls-4{fill:#efac9a;}.cls-5{fill:#231f20;}.cls-6{fill:#d81b60;}.cls-7{fill:#ffab00;}</style></defs><circle class="cls-1" cx="176.22" cy="176.22" r="176.22"/><path class="cls-2" d="M176.36,0V352.43A176.22,176.22,0,0,0,176.36,0Z"/><path class="cls-3" d="M95,185.24a13,13,0,1,0,12.65,13A12.84,12.84,0,0,0,95,185.24Z"/><path class="cls-4" d="M264.19,185.24a13,13,0,1,0,12.65,13A12.85,12.85,0,0,0,264.19,185.24Z"/><ellipse class="cls-3" cx="176.76" cy="199.87" rx="85" ry="100.68"/><path class="cls-4" d="M176.76,99.19h-.64V300.55h.64c46.94,0,85-45.08,85-100.69S223.7,99.19,176.76,99.19Z"/><circle class="cls-5" cx="193.89" cy="196.19" r="7.49"/><path class="cls-5" d="M158.13,189.15a7.49,7.49,0,1,0,7.49,7.49A7.49,7.49,0,0,0,158.13,189.15Z"/><path class="cls-6" d="M190.33,241.14c-2.5-1-4.85-2.58-7.42-3.22s-5.57-.13-7.24,2.38h-.44c-1.66-2.51-4.66-3-7.23-2.38s-4.93,2.21-7.42,3.22a17.64,17.64,0,0,1-10.92.76c6.22,9.13,16.19,14.11,25.79,12.93C185.06,256,195,251,201.24,241.9A17.6,17.6,0,0,1,190.33,241.14Z"/><path class="cls-5" d="M216.08,103a10.51,10.51,0,0,0,.09-1.37,13.23,13.23,0,0,0-2.53-7.59,13.23,13.23,0,0,0,2.53-7.59,12.91,12.91,0,0,0-1.88-6.58,12.85,12.85,0,0,0,1.88-6.57,13.49,13.49,0,0,0-2.91-8.1,13.46,13.46,0,0,0,2.91-8.09c0-12.21-18.72-22.1-41.82-22.1s-41.83,9.89-41.83,22.1a13.46,13.46,0,0,0,2.91,8.09,13.49,13.49,0,0,0-2.91,8.1,12.77,12.77,0,0,0,1.89,6.57,12.83,12.83,0,0,0-1.89,6.58,13.3,13.3,0,0,0,2.53,7.59,13.3,13.3,0,0,0-2.53,7.59,11.84,11.84,0,0,0,.33,2.72,91.06,91.06,0,0,0-45.69,79.41c0,.56,0,1.13,0,1.69h177c0-.56,0-1.13,0-1.69A91,91,0,0,0,216.08,103Z"/><path class="cls-7" d="M265.13,204.37a4.39,4.39,0,1,0,4.39,4.38A4.38,4.38,0,0,0,265.13,204.37Z"/><path class="cls-7" d="M269.52,217.52a4.39,4.39,0,1,0-6.07,4,4.39,4.39,0,1,0,3.37,0A4.38,4.38,0,0,0,269.52,217.52Z"/><path class="cls-7" d="M266.5,246.64a4.38,4.38,0,0,0,.32-8.21,4.39,4.39,0,1,0-3.37,0,4.38,4.38,0,0,0,.32,8.21,8.77,8.77,0,1,0,2.73,0Z"/><path class="cls-7" d="M88.05,204.37a4.39,4.39,0,1,0,4.39,4.38A4.38,4.38,0,0,0,88.05,204.37Z"/><path class="cls-7" d="M92.44,217.52a4.39,4.39,0,1,0-6.07,4,4.39,4.39,0,1,0,3.37,0A4.38,4.38,0,0,0,92.44,217.52Z"/><path class="cls-7" d="M89.42,246.64a4.38,4.38,0,0,0,.32-8.21,4.39,4.39,0,1,0-3.37,0,4.38,4.38,0,0,0,.32,8.21,8.77,8.77,0,1,0,2.73,0Z"/></svg>