<?xml version="1.0" encoding="utf-8"?>
<!-- Generator: Adobe Illustrator 25.2.3, SVG Export Plug-In . SVG Version: 6.00 Build 0)  -->
<svg version="1.1" id="Layer_1" xmlns="http://www.w3.org/2000/svg" xmlns:xlink="http://www.w3.org/1999/xlink" x="0px" y="0px"
	 viewBox="0 0 576 512" style="enable-background:new 0 0 576 512;" xml:space="preserve">
<path d="M48.9,349.3c0-6.8,5.5-12.3,12.3-12.3h54.4c6.8,0,12.3,5.5,12.3,12.3v111.8c0,6.8-5.5,12.3-12.3,12.3H61.2
	c-6.8,0-12.3-5.5-12.3-12.3"/>
<path d="M251,475.5h-54.4c-6.8,0-12.3-5.5-12.3-12.3V215c0-6.8,5.5-12.3,12.3-12.3H251c6.8,0,12.3,5.5,12.3,12.3v248.2
	C263.3,470,257.8,475.5,251,475.5z"/>
<path d="M320.7,323.7c0-6.8,5.5-12.3,12.3-12.3h54.4c6.8,0,12.3,5.5,12.3,12.3v136.9c0,6.8-5.5,12.3-12.3,12.3H333
	c-6.8,0-12.3-5.5-12.3-12.3"/>
<path d="M456.1,214.5c0-6.8,5.5-12.3,12.3-12.3h54.4c6.8,0,12.3,5.5,12.3,12.3v248.2c0,6.8-5.5,12.3-12.3,12.3h-54.4
	c-6.8,0-12.3-5.5-12.3-12.3 M480.8,450.4h29.7"/>
<path d="M496.7,37c-23.2,0-42.1,18.9-42.1,42.1l0,0l-72.1,72.1c-6.5-4.1-14.1-6.4-22.3-6.4c-13.2,0-24.9,6.1-32.7,15.6l-65-65
	c2.1-5,3.3-10.5,3.3-16.2c0-23.2-18.9-42.1-42.1-42.1S181.6,56,181.6,79.2c0,5.8,1.2,11.2,3.3,16.2L102,178.3
	c-5-2.1-10.5-3.3-16.2-3.3c-23.2,0-42.1,18.9-42.1,42.1s18.9,42.1,42.1,42.1s42.1-18.9,42.1-42.1c0-8.5-2.5-16.3-6.8-22.9l79.8-79.8
	c6.6,4.3,14.5,6.8,22.9,6.8s16.3-2.5,22.9-6.8l71.5,71.5c0,0.3,0,0.7,0,1c0,23.2,18.9,42.1,42.1,42.1s42.1-18.9,42.1-42.1
	c0-6-1.3-11.8-3.6-17l64.8-64.8c7.7,9.8,19.7,16.2,33.1,16.2c23.2,0,42.1-18.9,42.1-42.1S519.8,37,496.7,37z M85.8,234.5
	c-9.6,0-17.4-7.8-17.4-17.4c0-9.6,7.8-17.4,17.4-17.4s17.4,7.8,17.4,17.4C103.3,226.6,95.5,234.5,85.8,234.5z M206.4,79.1
	c0-9.6,7.8-17.4,17.4-17.4c9.6,0,17.4,7.8,17.4,17.4s-7.8,17.4-17.4,17.4S206.4,88.7,206.4,79.1z M360.2,204.2
	c-9.6,0-17.4-7.8-17.4-17.4c0-3,0.8-5.8,2.1-8.2l0.5-0.5l-0.1-0.1c3-5.1,8.6-8.6,15-8.6c9.6,0,17.4,7.8,17.4,17.4
	C377.7,196.4,369.8,204.2,360.2,204.2z M496.7,96.5c-9.6,0-17.4-7.8-17.4-17.4s7.8-17.4,17.4-17.4s17.4,7.8,17.4,17.4
	S506.3,96.5,496.7,96.5z"/>
</svg>
