<?xml version="1.0" encoding="UTF-8"?>
<svg id="Layer_1" data-name="Layer 1" xmlns="http://www.w3.org/2000/svg" viewBox="0 0 512 512">
  <path d="M449.43,47.69H62.57c-24.65,0-44.64,19.98-44.64,44.64v327.34c0,24.65,19.98,44.64,44.64,44.64h386.86c24.65,0,44.64-19.99,44.64-44.64V92.33c0-24.65-19.99-44.64-44.64-44.64ZM443.85,419.67H68.15c-1.48,0-2.9-.59-3.95-1.63-1.05-1.05-1.63-2.47-1.63-3.95V97.91c0-1.48.59-2.9,1.63-3.95,1.05-1.05,2.47-1.63,3.95-1.63h375.7c1.48,0,2.9.59,3.95,1.63,1.04,1.05,1.63,2.47,1.63,3.95v316.18c0,1.48-.59,2.9-1.63,3.95-1.05,1.04-2.47,1.63-3.95,1.63Z"/>
  <circle cx="256" cy="196.48" r="59.52"/>
  <rect x="107.21" y="315.52" width="297.58" height="59.52"/>
</svg>