<?xml version="1.0" encoding="utf-8"?>
<!-- Generator: Adobe Illustrator 23.1.0, SVG Export Plug-In . SVG Version: 6.00 Build 0)  -->
<svg version="1.1" id="Layer_1" xmlns="http://www.w3.org/2000/svg" xmlns:xlink="http://www.w3.org/1999/xlink" x="0px" y="0px"
	 viewBox="0 0 512 512" style="enable-background:new 0 0 512 512;" xml:space="preserve">
<path d="M103.8,103.6V74.2c0-7.7,6.3-14,14-14h313.7c7.7,0,14,6.3,14,14v29.4c0,7.7-6.3,14-14,14H117.8
	C110.1,117.6,103.8,111.3,103.8,103.6z"/>
<g>
	<path d="M143.8,202.3L244.4,185c18.3,28.6,31.1,60.2,38.6,94.6c18.8-27.9,33.1-47.4,42.7-58.5c12.9-15,23.5-24.8,31.9-29.3
		c8.4-4.5,17.3-6.8,26.7-6.8c10.6,0,18.7,2.9,24.4,8.7c5.7,5.8,8.5,13.6,8.5,23.4c0,9.2-2.8,16.8-8.5,22.6
		c-5.7,5.9-12.7,8.8-21.2,8.8c-6.2,0-13.2-1.1-21.2-3.3c-8-2.2-13.5-3.3-16.6-3.3c-8.1,0-15.8,2.9-23.1,8.7
		c-10,7.9-22.3,24.7-36.9,50.5c16.3,57.7,29.4,92.9,39.2,105.5c5.8,7.5,11.6,11.2,17.6,11.2c5,0,9.3-1.2,13-3.7
		c5.6-4,14.1-14.1,25.7-30.3l10.4,6.1c-16.9,27.3-33.5,46.5-49.6,57.7c-12.3,8.7-24.4,13-36.3,13c-12.3,0-22.5-2.7-30.7-8.2
		c-8.2-5.5-15.4-14.4-21.8-26.8c-6.3-12.4-13.8-32.2-22.5-59.6c-22.5,28.6-40.1,49.6-52.9,62.7c-12.8,13.2-23.4,21.8-31.9,25.8
		c-8.5,4-17.5,6.1-27.1,6.1c-10,0-17.9-2.9-23.8-8.7c-5.9-5.8-8.8-13.3-8.8-22.5c0-9.8,3.2-17.9,9.5-24.2s14.4-9.5,24.2-9.5
		c5.2,0,11.1,1.5,17.6,4.6c9.6,4.6,16.5,6.9,20.8,6.9c5.6,0,10.6-1.2,15-3.5c5.8-2.9,13.1-9.1,21.9-18.7c5.4-6,15.3-18.6,29.7-38.1
		c-18.5-68.4-32.9-109.4-43.3-122.9c-6.5-8.7-14.8-13-24.8-13c-5.2,0-11.5,0.8-19,2.3L143.8,202.3z"/>
</g>
</svg>
