<?xml version="1.0" encoding="utf-8"?>
<!-- Generator: Adobe Illustrator 22.0.1, SVG Export Plug-In . SVG Version: 6.00 Build 0)  -->
<svg version="1.1" id="Layer_1" xmlns="http://www.w3.org/2000/svg" xmlns:xlink="http://www.w3.org/1999/xlink" x="0px" y="0px"
	 viewBox="0 0 48 48" style="enable-background:new 0 0 48 48;" xml:space="preserve">
<title>baseball</title>
<title>help</title>
<title>help</title>
<path d="M24,1.8c-12.4,0-22.4,10-22.4,22.4c0,12.4,10,22.4,22.4,22.4s22.4-10,22.4-22.4C46.4,11.7,36.4,1.8,24,1.8z M6,24.1
	c0-4.7,1.8-8.9,4.8-12.1c0.2,0,0.4,0,0.5-0.1l1-0.4c0.6,1.2,1,2.5,1.2,3.9l-0.8,0.3c-0.8,0.1-1.4,0.8-1.3,1.5
	c0.1,0.8,0.8,1.4,1.5,1.3l1.1-0.1c0.2,1.5,0.2,3,0,4.6l-0.9-0.1c-0.7-0.1-1.6,0.6-1.6,1.3s0.6,1.6,1.3,1.6l0.9,0.1
	c-0.2,1.6-0.7,3.1-1.3,4.7l-0.7-0.1c-0.7-0.3-1.5,0.2-1.8,0.9c-0.3,0.7,0.2,1.5,0.9,1.8l0.4,0c-0.3,0.7-0.8,1.4-1.3,2.1
	C7.5,32.2,6,28.3,6,24.1z M12.2,37.6c0.8-1.1,1.6-2.6,2.3-3.8l1.3,0.3c0.7,0.3,1.5-0.2,1.8-0.9c0.3-0.7-0.2-1.5-0.9-1.8l-1.1-0.3
	c0.7-1.6,1.1-3.4,1.5-5.2L18,26c0.7,0.1,1.6-0.6,1.6-1.3c0.1-0.7-0.6-1.6-1.3-1.6L17.5,23c0-1.7,0-3.5-0.1-5.2l0.8-0.1
	c0.8-0.1,1.4-0.8,1.3-1.5c-0.1-0.8-0.8-1.4-1.5-1.3l-1.1,0.1c-0.4-1.5-0.9-3.3-1.5-4.8L16,9.8c0.8-0.3,1.1-1.2,0.8-1.9
	c0-0.1-0.1-0.1-0.1-0.2c2.2-1,4.7-1.6,7.3-1.6c2.7,0,5.3,0.6,7.7,1.8c-0.1,0.1-0.2,0.2-0.2,0.4c-0.3,0.7,0,1.6,0.8,1.9l0.7,0.3
	c-0.5,1.5-1.1,3.2-1.4,4.6L30.4,15c-0.7-0.1-1.4,0.5-1.5,1.2s0.5,1.4,1.2,1.5l0.7,0.1c-0.2,1.6-0.1,3.4-0.1,5l-0.9,0.1
	c-0.7,0.1-1.3,0.9-1.2,1.6c0.1,0.7,0.9,1.3,1.6,1.2l0.9-0.1c0.4,1.7,0.8,3.5,1.5,5l-1,0.3c-0.7,0.3-1.1,1-0.9,1.7
	c0.3,0.7,1,1.1,1.7,0.9l1.2-0.3c0.6,1.2,1.7,3,2.5,4.2c-3.2,2.9-7.5,4.8-12.1,4.8C19.5,42.1,15.4,40.4,12.2,37.6z M38.2,35
	c-0.5-0.8-1.1-1.6-1.5-2.4l0.4,0c0.7-0.3,1.1-1,0.9-1.7c-0.3-0.7-1-1.1-1.7-0.9l-0.7,0.1c-0.5-1.5-1.1-2.9-1.2-4.5l0.9-0.1
	c0.7-0.1,1.3-0.9,1.2-1.6c-0.1-0.7-0.9-1.3-1.6-1.2L34,22.8c-0.2-1.6-0.2-3,0-4.5l1.1,0.1c0.7,0.1,1.4-0.5,1.5-1.2
	c0.1-0.7-0.5-1.4-1.2-1.5l-0.7-0.3c0.2-1.3,0.6-2.6,1.2-3.7l0.9,0.4c0.2,0.1,0.5,0.1,0.7,0.1c2.8,3.2,4.6,7.4,4.6,11.9
	C42,28.2,40.6,32,38.2,35z"/>
</svg>
