<?xml version="1.0" encoding="utf-8"?>
<!-- Generator: Adobe Illustrator 22.0.1, SVG Export Plug-In . SVG Version: 6.00 Build 0)  -->
<svg version="1.1" id="Layer_1" xmlns="http://www.w3.org/2000/svg" xmlns:xlink="http://www.w3.org/1999/xlink" x="0px" y="0px"
	 viewBox="0 0 48 48" style="enable-background:new 0 0 48 48;" xml:space="preserve">
<title>baseball field</title>
<g>
	<g>
		<path d="M46.8,21.4C43.2,11.8,34.4,5,24,5S4.8,11.8,1.2,21.4l19.4,19.4c0,0.2-0.1,0.5-0.1,0.7c0,1.9,1.6,3.5,3.5,3.5
			s3.5-1.6,3.5-3.5c0-0.2,0-0.5-0.1-0.7L46.8,21.4z M22,20l1,1c0.5,0.5,1.5,0.5,2,0l1-1l7,7L31.9,28c-0.6,0.5-0.6,1.5,0,2l1,1
			l-7.4,7.4c-0.5-0.2-1-0.4-1.6-0.4s-1.1,0.2-1.6,0.4L15,31l1.6-1.6c0.6-0.5,0.6-1.5,0-2l-1-1L22,20z M24,8.4
			c8.1,0,15.4,5,18.8,12.8L37,27c0,0-0.1-0.1-0.1-0.1L26.1,16.1c-0.6-0.6-1.4-0.9-2.1-0.9s-1.5,0.3-2.1,0.9L11.1,26.9
			c0,0-0.1,0.1-0.1,0.1l-5.8-5.8C8.6,13.4,15.9,8.4,24,8.4z"/>
	</g>
	<g>
		<path d="M23,31c0.5,0.5,1.5,0.5,2,0l1.1-1.1c0.5-0.5,0.5-1.5,0-2L25,26.8c-0.5-0.6-1.5-0.6-2,0l-1.1,1.1c-0.5,0.5-0.5,1.5,0,2
			L23,31z"/>
	</g>
</g>
</svg>
