<?xml version="1.0" encoding="utf-8"?>
<!-- Generator: Adobe Illustrator 25.2.3, SVG Export Plug-In . SVG Version: 6.00 Build 0)  -->
<svg version="1.1" id="Layer_1" xmlns="http://www.w3.org/2000/svg" xmlns:xlink="http://www.w3.org/1999/xlink" x="0px" y="0px"
	 viewBox="0 0 640 512" style="enable-background:new 0 0 640 512;" xml:space="preserve">
<path d="M495.1,197.8c-14.9-0.1-29.1,2.7-42.2,7.7L382.2,91.7c-4-6.4-11-10.3-18.5-10.3h-58.2c-8,0-14.6,6.5-14.6,14.5v14.5
	c0,8,6.5,14.5,14.6,14.5h46.1l13.5,21.8H261.8v-14.6c0-8-6.5-14.5-14.6-14.5h-79.5c-12.2,0-22.5,10-22.3,22.2
	c0.2,11.9,9.9,21.4,21.8,21.4h44.3l-26.8,43.2c-12.2-4.4-25.4-6.8-39.1-6.8C81.8,197.6,29.4,249.6,29,313.5
	c-0.4,64.6,51.9,117.1,116.4,117.1c54.2,0,99.8-37.1,112.7-87.3h47.3c7.6,0,14.6-3.9,18.6-10.3l78.2-126.3l13.6,21.9
	c-23.1,21.3-37.6,51.9-37.6,85.9c0.1,62.6,52.7,115.5,115.2,116.1C557.7,431.2,610,379.8,611,316C612,251.5,559.6,198.1,495.1,197.8
	L495.1,197.8z M198.8,264.9c8.8,9.6,15.2,21.5,17.9,34.8h-39.4L198.8,264.9z M145.4,386.9c-40.1,0-72.7-32.6-72.7-72.7
	s32.6-72.7,72.7-72.7c5.3,0,10.5,0.6,15.5,1.7L119.6,310c-9,14.5,1.5,33.3,18.6,33.3h73.9C200.8,369,175.2,386.9,145.4,386.9z
	 M293.3,299.6h-32.4c-3.6-28.9-17.8-54.5-38.5-72.8l22.5-36.4h116L293.3,299.6L293.3,299.6z M490.7,386.8
	c-37.3-2-67.3-32.5-68.8-69.8c-0.7-19.2,6-36.8,17.6-50.3l40.4,65.1c4.2,6.8,13.2,8.9,20,4.7l12.4-7.7c6.8-4.2,8.9-13.2,4.7-20
	l-40.4-65.2c5.9-1.5,12-2.3,18.1-2.3c40.1,0,72.7,32.6,72.7,72.7C567.4,355.6,532.6,389.1,490.7,386.8z"/>
</svg>
