<!-- Generated by IcoMoon.io -->
<svg version="1.1" xmlns="http://www.w3.org/2000/svg" width="250" height="250" viewBox="0 0 250 250">
<title>calculate</title>
<path d="M52.128 105.638h21.122c4.861 0 8.801 3.941 8.801 8.801v21.122c0 4.861-3.941 8.801-8.801 8.801h-21.122c-4.861 0-8.801-3.941-8.801-8.801v-21.122c0-4.861 3.941-8.801 8.801-8.801z"></path>
<path d="M52.128 167.948h21.122c4.861 0 8.801 3.941 8.801 8.801v21.122c0 4.861-3.941 8.801-8.801 8.801h-21.122c-4.861 0-8.801-3.941-8.801-8.801v-21.122c0-4.861 3.941-8.801 8.801-8.801z"></path>
<path d="M114.791 105.638h21.122c4.861 0 8.801 3.941 8.801 8.801v21.122c0 4.861-3.941 8.801-8.801 8.801h-21.122c-4.861 0-8.801-3.941-8.801-8.801v-21.122c0-4.861 3.941-8.801 8.801-8.801z"></path>
<path d="M177.63 105.638h21.122c4.861 0 8.801 3.941 8.801 8.801v83.432c0 4.861-3.941 8.801-8.801 8.801h-21.122c-4.861 0-8.801-3.941-8.801-8.801v-83.432c0-4.861 3.941-8.801 8.801-8.801z"></path>
<path d="M114.791 167.948h21.122c4.861 0 8.801 3.941 8.801 8.801v21.122c0 4.861-3.941 8.801-8.801 8.801h-21.122c-4.861 0-8.801-3.941-8.801-8.801v-21.122c0-4.861 3.941-8.801 8.801-8.801z"></path>
<path d="M221.282 1.787h-192.564c-14.833 0.099-26.832 12.098-26.931 26.921v192.573c0.099 14.833 12.098 26.832 26.921 26.931h192.573c14.833-0.099 26.832-12.098 26.931-26.921v-192.573c-0.099-14.833-12.098-26.832-26.921-26.931h-0.010zM19.389 28.718c-0.004-0.107-0.007-0.233-0.007-0.36 0-4.957 4.019-8.977 8.977-8.977 0.126 0 0.252 0.003 0.377 0.008l-0.018-0h192.564c4.957 0 8.977 4.019 8.977 8.977v0 35.204h-210.87zM230.611 221.282c0 4.957-4.019 8.977-8.977 8.977v0h-192.916c-0.105 0.004-0.229 0.007-0.352 0.007-4.957 0-8.977-4.019-8.977-8.977 0-0.003 0-0.004 0-0.007v0-139.054h211.222z"></path>
</svg>
