<?xml version="1.0" encoding="UTF-8"?>
<svg id="Layer_1" data-name="Layer 1" xmlns="http://www.w3.org/2000/svg" viewBox="0 0 24.89 25.07">
  <defs>
    <style>
      .cls-1 {
        fill: #000;
        stroke-width: 0px;
      }
    </style>
  </defs>
  <path class="cls-1" d="M8.7,22.54H2.5c-.39-.03-.6-.23-.63-.63v-9.75h16.31v-3.84c0-.22-.04-.43-.12-.63-.08-.2-.2-.38-.36-.54-.15-.15-.34-.28-.54-.36-.2-.08-.42-.13-.64-.13h-2.53v-1.41c0-.11-.01-.23-.05-.34-.04-.11-.1-.21-.18-.29-.08-.08-.18-.15-.28-.19-.11-.05-.22-.07-.34-.07s-.23.02-.34.07c-.11.05-.2.11-.28.19-.08.08-.14.18-.18.29-.04.11-.06.22-.05.34v1.4h-6.76v-1.41c0-.11-.01-.23-.05-.34-.04-.11-.1-.21-.18-.29-.08-.08-.18-.15-.28-.19-.11-.05-.22-.07-.34-.07s-.23.02-.34.07c-.11.05-.2.11-.28.19-.08.08-.14.18-.18.29s-.06.22-.05.34v1.41H1.65c-.22,0-.43.05-.64.13-.2.08-.38.21-.54.36-.15.15-.27.34-.36.54C.04,7.9,0,8.11,0,8.33v13.59c.03.7.27,1.29.74,1.76.47.47,1.06.72,1.76.74h7.84c-.73-.52-1.18-1.15-1.65-1.88ZM11.58,8.27c.14-.34.4-.63.72-.81v1.45c0,.22.09.44.25.59.16.16.38.25.6.25s.44-.09.6-.25c.16-.16.25-.37.25-.59v-1.46c.33.18.58.47.72.81.14.34.17.72.07,1.08s-.31.67-.61.9c-.3.23-.66.35-1.03.35h0c-.37,0-.74-.12-1.04-.35s-.51-.54-.61-.9c-.1-.36-.07-.74.07-1.08ZM3.12,8.27c.14-.34.4-.63.72-.81v1.45c.01.22.11.42.26.57.16.15.37.23.59.23s.43-.08.59-.23.25-.35.26-.57v-1.45c.32.19.58.47.72.81s.17.72.07,1.08c-.1.36-.31.67-.6.9-.3.23-.66.35-1.03.35-.37,0-.74-.12-1.04-.35s-.51-.54-.61-.9c-.1-.36-.07-.74.07-1.08Z"/>
  <path class="cls-1" d="M15.15,13.38c-3.23,0-5.85,2.62-5.85,5.85s2.62,5.85,5.85,5.85,5.85-2.62,5.85-5.85-2.62-5.85-5.85-5.85ZM15.15,23.47c-2.34,0-4.25-1.9-4.25-4.25s1.9-4.25,4.25-4.25,4.25,1.9,4.25,4.25-1.9,4.25-4.25,4.25Z"/>
  <path class="cls-1" d="M15.56,19.22v-2.71c0-.29-.24-.53-.53-.53s-.53.24-.53.53v2.97c0,.2.09.36.24.44l2.11,1.41c.24.18.57.11.71-.13.18-.24.11-.57-.13-.73l-1.88-1.25Z"/>
  <path id="add" class="cls-1" d="M24.88,3.57h-3.56V0h-1.64v3.57h-3.55v1.64h3.55v3.54h1.64v-3.55h3.57v-1.64Z"/>
</svg>