<?xml version="1.0" encoding="UTF-8"?>
<svg id="Layer_1" data-name="Layer 1" xmlns="http://www.w3.org/2000/svg" viewBox="0 0 23.72 21.41">
  <defs>
    <style>
      .cls-1 {
        fill: #000;
        stroke-width: 0px;
      }
    </style>
  </defs>
  <path class="cls-1" d="M1.88,17.54V7.79h16.31v-3.84c0-.22-.04-.43-.12-.63-.08-.2-.2-.38-.36-.54-.15-.15-.34-.28-.54-.36-.2-.08-.42-.13-.64-.13h-2.53V.89c0-.11-.01-.23-.05-.34-.04-.11-.1-.21-.18-.29-.08-.08-.18-.15-.28-.19-.11-.05-.22-.07-.34-.07s-.23.02-.34.07c-.11.05-.2.11-.28.19-.08.08-.14.18-.18.29-.04.11-.06.22-.05.34v1.4h-6.76V.89c0-.11-.01-.23-.05-.34-.04-.11-.1-.21-.18-.29-.08-.08-.18-.15-.28-.19-.11-.05-.22-.07-.34-.07s-.23.02-.34.07c-.11.05-.2.11-.28.19-.08.08-.14.18-.18.29s-.06.22-.05.34v1.41H1.65c-.22,0-.43.05-.64.13-.2.08-.38.21-.54.36-.15.15-.27.34-.36.54C.04,3.52,0,3.74,0,3.95v13.59c.03.7.27,1.29.74,1.76.47.47,1.06.72,1.76.74h7.07c.31-1.18.21-.9.47-1.88H2.5c-.39-.03-.6-.23-.63-.63ZM11.58,3.9c.14-.34.4-.63.72-.81v1.45c0,.22.09.44.25.59.16.16.38.25.6.25s.44-.09.6-.25c.16-.16.25-.37.25-.59v-1.46c.33.18.58.47.72.81.14.34.17.72.07,1.08s-.31.67-.61.9c-.3.23-.66.35-1.03.35h0c-.37,0-.74-.12-1.04-.35s-.51-.54-.61-.9c-.1-.36-.07-.74.07-1.08ZM3.12,3.9c.14-.34.4-.63.72-.81v1.45c.01.22.11.42.26.57.16.15.37.23.59.23s.43-.08.59-.23.25-.35.26-.57v-1.45c.32.19.58.47.72.81s.17.72.07,1.08c-.1.36-.31.67-.6.9-.3.23-.66.35-1.03.35-.37,0-.74-.12-1.04-.35s-.51-.54-.61-.9c-.1-.36-.07-.74.07-1.08Z"/>
  <path class="cls-1" d="M23.24,9.68l-1.02-1.02s0,0,0,0c-.65-.65-1.69-.65-2.34,0l-.38.38-.58.58-.29.29.88.88,1.61,1.61.88.88.29-.29.58-.58.38-.38c.65-.65.65-1.69,0-2.34Z"/>
  <path class="cls-1" d="M18.92,11.38l-.88-.88-.29.29-.58.58-5.3,5.3c-.17.17-.3.38-.37.61l-.98,3.32c-.03.11-.03.23,0,.35.1.33.44.52.77.42l3.32-.98c.23-.07.44-.2.61-.37l5.29-5.3.58-.58.29-.29h0s-.88-.87-.88-.87l-1.61-1.61ZM14.34,19.17s-.06.04-.09.05l-2.22.66.65-2.22s.03-.06.05-.09l.25-.25v1.19c0,.23.18.42.41.42h1.2l-.25.25Z"/>
</svg>