<?xml version="1.0" encoding="UTF-8"?>
<svg id="Layer_1" data-name="Layer 1" xmlns="http://www.w3.org/2000/svg" viewBox="0 0 21 21">
  <path d="M8.7,18.33H2.5c-.39-.03-.6-.23-.63-.63V7.95h16.31v-3.84c0-.22-.04-.43-.12-.63-.08-.2-.2-.38-.36-.54-.15-.15-.34-.28-.54-.36s-.42-.13-.64-.13h-2.53v-1.41c0-.11-.01-.23-.05-.34s-.1-.21-.18-.29-.18-.15-.28-.19c-.11-.05-.22-.07-.34-.07s-.23.02-.34.07c-.11.05-.2.11-.28.19s-.14.18-.18.29-.06.22-.05.34v1.4h-6.76v-1.41c0-.11-.01-.23-.05-.34s-.1-.21-.18-.29-.18-.15-.28-.19c-.11-.05-.22-.07-.34-.07s-.23.02-.34.07-.2.11-.28.19c-.08.08-.14.18-.18.29s-.06.22-.05.34v1.41H1.65c-.22,0-.43.05-.64.13-.2.08-.38.21-.54.36-.15.15-.27.34-.36.54C.04,3.68,0,3.89,0,4.11v13.59c.03.7.27,1.29.74,1.76.47.47,1.06.72,1.76.74h7.84c-.73-.52-1.18-1.15-1.65-1.88h0ZM11.58,4.05c.14-.34.4-.63.72-.81v1.45c0,.22.09.44.25.59.16.16.38.25.6.25s.44-.09.6-.25c.16-.16.25-.37.25-.59v-1.46c.33.18.58.47.72.81.14.34.17.72.07,1.08s-.31.67-.61.9c-.3.23-.66.35-1.03.35h0c-.37,0-.74-.12-1.04-.35s-.51-.54-.61-.9c-.1-.36-.07-.74.07-1.08h0ZM3.12,4.05c.14-.34.4-.63.72-.81v1.45c0,.22.11.42.26.57.16.15.37.23.59.23s.43-.08.59-.23.25-.35.26-.57v-1.45c.32.19.58.47.72.81.14.34.17.72.07,1.08s-.31.67-.6.9c-.3.23-.66.35-1.03.35s-.74-.12-1.04-.35-.51-.54-.61-.9c-.1-.36-.07-.74.07-1.08Z"/>
  <path d="M15.15,9.16c-3.23,0-5.85,2.62-5.85,5.85s2.62,5.85,5.85,5.85,5.85-2.62,5.85-5.85-2.62-5.85-5.85-5.85ZM15.15,19.25c-2.34,0-4.25-1.9-4.25-4.25s1.9-4.25,4.25-4.25,4.25,1.9,4.25,4.25-1.9,4.25-4.25,4.25Z"/>
  <path d="M15.56,15v-2.71c0-.29-.24-.53-.53-.53s-.53.24-.53.53v2.97c0,.2.09.36.24.44l2.11,1.41c.24.18.57.11.71-.13.18-.24.11-.57-.13-.73l-1.88-1.25h.01Z"/>
</svg>