<svg id="Layer_1" data-name="Layer 1" xmlns="http://www.w3.org/2000/svg" viewBox="0 0 78.03 85.44"><title>calendar</title><path d="M11.34,44.49v40.9a7.11,7.11,0,0,0,7.07,7.16H82.07a7.12,7.12,0,0,0,7.07-7.16V44.49H11.34Zm25.22,42.7H17.11V70.94H36.56Zm0-20.85H17.11V50.09H36.56ZM59.85,87.19H40.41V70.94H59.85V87.19Zm0-20.85H40.41V50.09H59.85V66.34Zm23.3,20.85H63.7V70.94H83.15V87.19Zm0-20.85H63.7V50.09H83.15V66.34Z" transform="translate(-11.12 -7.1)"/><path d="M88.91,39.73V24a7.11,7.11,0,0,0-7.07-7.15H71l0-6.09a3.64,3.64,0,1,0-7.27,0l0,6.07H34.82l0-6.09a3.64,3.64,0,1,0-7.27,0l0,6.08-9.37,0A7.11,7.11,0,0,0,11.12,24V40.61H88.91v-.88ZM31.22,33.8a7.27,7.27,0,0,1-3.66-13.56v6.29a3.64,3.64,0,0,0,7.27,0l0-6.29A7.27,7.27,0,0,1,31.22,33.8Zm36.19,0a7.27,7.27,0,0,1-3.66-13.56v6.29a3.63,3.63,0,1,0,7.27,0V20.22A7.27,7.27,0,0,1,67.42,33.8Z" transform="translate(-11.12 -7.1)"/></svg>