<!-- Generated by IcoMoon.io -->
<svg version="1.1" xmlns="http://www.w3.org/2000/svg" width="250" height="250" viewBox="0 0 250 250">
<title>change-orientation-bottom</title>
<path d="M69.636 31.595v24.86c0 1.015 2.156 2.156 4.693 2.664h6.342c2.79 0 4.693-1.015 4.693-2.664v-24.86c0-1.522-1.903-2.664-4.693-2.664h-6.342c-2.79 0-4.693 1.142-4.693 2.664z"></path>
<path d="M110.477 64.952v118.971c0 7.103 5.834 12.937 12.937 12.937h0.127s18.518 0 18.518 0h0.127c7.103 0 12.937-5.834 12.937-12.937 0-0.254 0-0.634 0-0.888v-118.083s0-0.507 0-0.888c0-7.103-5.834-12.937-12.937-12.937h-0.127s-17.884 0-17.884 0c-0.254 0-0.507 0-0.888 0-7.103 0-12.937 5.834-12.937 12.937 0 0.254 0 0.634 0 0.888z"></path>
<path d="M69.89 111.501v24.986c0 1.395 2.156 2.537 4.693 2.029h6.342c2.79 0 4.693-1.015 4.693-2.664v-24.479c0-1.522-1.903-2.664-4.693-2.664h-6.342c-2.79 0-4.693 1.142-4.693 2.664z"></path>
<path d="M69.636 176.948v-24.225c0-1.649 1.903-2.79 4.693-2.79h6.342c2.79 0 4.693 1.142 4.693 2.79v24.352c0 1.649-1.903 2.79-4.693 2.79h-6.342c-2.537 0.381-4.693-1.522-4.693-2.917z"></path>
<path d="M69.636 193.943v24.86c0 1.268 2.156 2.664 4.693 2.156h6.342c2.79 0 4.693-1.142 4.693-2.664v-24.479c0-1.649-1.903-2.664-4.693-2.664h-6.342c-2.79 0-4.693 1.015-4.693 2.664z"></path>
<path d="M69.636 96.027v-24.352c0-1.649 1.903-2.664 4.693-2.664h6.342c2.79 0 4.693 1.015 4.693 2.664v24.352c0 1.649-1.903 2.79-4.693 2.79h-6.342c-2.537 0-4.693-1.015-4.693-2.79z"></path>
<path d="M0.004 183.67v-118.717s0-0.507 0-0.888c0-7.103 5.834-12.937 12.937-12.937 0.254 0 0.634 0 0.888 0h18.010c7.103 0 12.937 5.834 12.937 12.937 0 0.254 0 0.507 0 0.888v118.21c0 7.356-5.708 13.318-13.064 13.698v0s-18.518 0-18.518 0c-0.127 0-0.381 0-0.507 0-6.849 0-12.557-5.581-12.557-12.557 0-0.254 0-0.507 0-0.761z"></path>
<path d="M246.063 181.006l-26.889 1.268c8.878-7.483 15.981-16.869 20.928-27.523 4.947-10.527 7.356-22.069 7.356-33.738 0-39.319-28.157-71.915-65.447-79.018-0.507 0-1.142 0-1.649 0-0.507 0.127-1.015 0.381-1.522 0.761-0.381 0.381-0.761 0.761-1.015 1.395-0.254 0.507-0.381 1.142-0.381 1.649v15.854c0 0.888 0.254 1.776 0.888 2.41 0.507 0.634 1.268 1.142 2.156 1.395 10.781 2.537 20.547 8.244 28.157 16.362s12.683 18.137 14.586 29.045c1.903 10.908 0.761 22.069-3.678 32.343-4.312 10.147-11.542 18.898-20.674 25.113l1.522-32.85s0-1.015-0.254-1.522-0.507-0.888-0.888-1.268c-0.381-0.381-0.761-0.634-1.268-0.888s-1.015-0.254-1.522-0.254h-15.347c-1.015 0-2.029 0.381-2.79 1.142s-1.142 1.776-1.142 2.79v64.939c0 1.015 0.381 2.029 1.142 2.79s1.776 1.142 2.79 1.142h64.939c1.015 0 2.029-0.381 2.79-1.142s1.142-1.776 1.142-2.79v-15.347s0-1.015-0.254-1.522c-0.254-0.507-0.507-0.888-0.888-1.268s-0.888-0.634-1.268-0.888c-0.507-0.127-1.015-0.254-1.522-0.254z"></path>
</svg>
