<!-- Generated by IcoMoon.io -->
<svg version="1.1" xmlns="http://www.w3.org/2000/svg" width="250" height="250" viewBox="0 0 250 250">
<title>change-orientation-side</title>
<path d="M245.932 67.236l-25.8-1.271c8.515 7.499 15.378 16.904 20.081 27.452s7.117 21.987 7.117 33.68c0 39.145-27.071 71.808-62.784 78.798-0.508 0-1.144 0-1.652 0-0.508-0.127-1.017-0.381-1.398-0.762s-0.762-0.762-1.017-1.398c-0.254-0.508-0.381-1.017-0.381-1.652v-15.887c0-0.89 0.254-1.779 0.762-2.415s1.271-1.144 2.033-1.398c10.295-2.542 19.7-8.261 27.071-16.268 7.244-8.007 12.201-18.047 14.107-28.978s0.635-22.115-3.432-32.282c-4.194-10.167-11.057-18.81-19.827-25.038l1.525 32.79s0 1.017-0.254 1.525c-0.127 0.508-0.508 0.89-0.762 1.271-0.381 0.381-0.762 0.635-1.271 0.89s-1.017 0.254-1.525 0.254h-14.743c-1.017 0-1.906-0.381-2.669-1.144s-1.144-1.652-1.144-2.796v-64.564c0-1.017 0.381-2.033 1.144-2.796s1.652-1.144 2.669-1.144h62.403c1.017 0 1.906 0.381 2.669 1.144s1.144 1.652 1.144 2.796v15.378s0 1.017-0.254 1.525c-0.254 0.508-0.508 0.89-0.89 1.271s-0.762 0.635-1.271 0.89c-0.508 0.127-1.017 0.254-1.525 0.254z"></path>
<path d="M34.447 94.307h114.258c6.863 0 12.455-5.719 12.455-12.836v0-18.683s0 0 0-0.127c0-7.117-5.592-12.836-12.455-12.836-0.254 0-0.508 0-0.762 0h-113.495s-0.508 0-0.762 0c-6.863 0-12.455 5.719-12.455 12.836v0 18.047s0 0.508 0 0.89c0 7.117 5.592 12.836 12.455 12.836 0.254 0 0.635 0 0.762 0z"></path>
<path d="M79.184 134.723h24.021c1.271 0 2.415-2.161 2.033-4.702v-6.355c0-2.796-0.89-4.702-2.542-4.702h-23.512c-1.398 0-2.542 1.906-2.542 4.702v6.355c0 2.796 1.017 4.702 2.542 4.702z"></path>
<path d="M141.969 134.977h-23.258c-1.525 0-2.669-1.906-2.669-4.702v-6.355c0-2.796 1.017-4.702 2.669-4.702h23.385c1.525 0 2.669 1.906 2.669 4.702v6.355c0.381 2.415-1.398 4.702-2.796 4.702z"></path>
<path d="M158.364 134.977h23.894c1.144 0 2.542-2.161 2.161-4.702v-6.355c0-2.796-1.017-4.702-2.542-4.702h-23.512c-1.525 0-2.542 1.906-2.542 4.702v6.355c0 2.796 0.89 4.702 2.542 4.702z"></path>
<path d="M64.314 134.977h-23.385c-1.525 0-2.542-1.906-2.542-4.702v-6.355c0-2.796 0.89-4.702 2.542-4.702h23.385c1.525 0 2.669 1.906 2.669 4.702v6.355c0 2.415-0.89 4.702-2.669 4.702z"></path>
<path d="M2.546 134.977h23.894c0.89 0 2.161-2.161 2.542-4.702v-6.355c0-2.796-0.89-4.702-2.542-4.702h-23.894c-1.398 0-2.542 1.906-2.542 4.702v6.355c0 2.796 1.017 4.702 2.542 4.702z"></path>
<path d="M148.45 204.37h-114.003s-0.508 0-0.762 0c-6.863 0-12.455-5.719-12.455-12.836 0-0.254 0-0.635 0-0.89v-17.793c0-7.244 5.592-13.091 12.455-13.091 0.254 0 0.508 0 0.762 0h113.495c7.117 0 12.836 5.719 13.218 12.964v0 18.556s0 0.381 0 0.508c0 6.863-5.338 12.455-11.947 12.455-0.254 0-0.508 0-0.635 0z"></path>
</svg>
