<?xml version="1.0" encoding="UTF-8"?>
<svg id="Layer_1" xmlns="http://www.w3.org/2000/svg" version="1.1" viewBox="0 0 260 256">
  <!-- Generator: Adobe Illustrator 29.4.0, SVG Export Plug-In . SVG Version: 2.1.0 Build 152)  -->
  <path d="M110.8,256h38.4c6.4,0,12.8-6.4,12.8-12.8V12.8c0-6.4-6.4-12.8-12.8-12.8h-38.4c-6.4,0-12.8,6.4-12.8,12.8v230.4c0,6.4,6.4,12.8,12.8,12.8ZM208.8,256h38.4c6.4,0,12.8-7.4,12.8-14.8V85.6c0-7.4-6.4-14.8-12.8-14.8h-38.4c-6.4,0-12.8,7.4-12.8,14.8v155.6c0,7.4,6.4,14.8,12.8,14.8ZM12.8,256h38.4c6.4,0,12.8-7.9,12.8-15.8v-87c0-7.9-6.4-15.8-12.8-15.8H12.8c-6.4,0-12.8,7.9-12.8,15.8v87c0,7.9,6.4,15.8,12.8,15.8Z"/>
</svg>