<?xml version="1.0" encoding="UTF-8"?>
<svg id="Layer_1" xmlns="http://www.w3.org/2000/svg" version="1.1" viewBox="0 0 512 512">
  <!-- Generator: Adobe Illustrator 29.4.0, SVG Export Plug-In . SVG Version: 2.1.0 Build 152)  -->
  <path d="M454,96h-118.1c-21.4,0-32.1,25.8-17,41l32.4,32.4-73.4,73.4-73.4-73.4c-12.5-12.5-32.8-12.5-45.2,0l-68.7,68.7c-6.2,6.2-6.2,16.4,0,22.6l22.6,22.6c6.2,6.2,16.4,6.2,22.6,0l46.1-46.1,73.4,73.4c12.5,12.5,32.8,12.5,45.2,0l96-96,32.4,32.4c15.1,15.1,41,4.4,41-17v-118c0-8.8-7.1-16-16-16Z"/>
  <path d="M496.6,394.8H54.1V80.3c0-8.8-7.1-15.9-15.9-15.9h-21.7c-8.8,0-15.9,7.1-15.9,15.9v352.1c0,8.8,7.1,15.9,15.9,15.9h480.1c8.8,0,15.9-7.1,15.9-15.9v-21.7c0-8.8-7.1-15.9-15.9-15.9Z"/>
</svg>