<?xml version="1.0" encoding="UTF-8"?>
<svg id="Layer_1" xmlns="http://www.w3.org/2000/svg" version="1.1" viewBox="0 0 512 512">
  <!-- Generator: Adobe Illustrator 29.4.0, SVG Export Plug-In . SVG Version: 2.1.0 Build 152)  -->
  <path d="M459.1,198.8c-4.7-9.1-12-16.7-21.4-21.4-10.7-5.2-20.6-5.2-36-5.2h-28.7v-51.6c0-15.4,0-25.5-5.5-36-4.7-9.1-12-16.7-21.4-21.4-10.7-5.2-20.6-5.2-36-5.2H53.6V15.9c0-8.8-7.1-15.9-15.9-15.9H15.9C7.1,0,0,7.1,0,15.9v480.1c0,8.8,7.1,15.9,15.9,15.9h21.7c8.8,0,15.9-7.1,15.9-15.9v-43.3h165.5c15.4,0,25.5,0,36-5.5,9.4-4.7,16.7-12.3,21.4-21.4,5.5-10.4,5.5-20.6,5.5-36v-51.3h119.9c15.4,0,25.5,0,36-5.5,9.4-4.7,16.7-12.3,21.4-21.4,5.5-10.4,5.5-20.6,5.5-36v-40.9c0-15.4,0-25.5-5.5-36ZM310.3,110h10.4v62H53.6v-62h256.7ZM229.5,389.6v10.4H53.6v-61.8h175.9v51.3ZM412,234.8v51.3H53.6v-61.8h358.4v10.4Z"/>
</svg>