<?xml version="1.0" encoding="UTF-8"?>
<svg id="Layer_1" xmlns="http://www.w3.org/2000/svg" version="1.1" viewBox="0 0 512 512">
  <!-- Generator: Adobe Illustrator 29.4.0, SVG Export Plug-In . SVG Version: 2.1.0 Build 152)  -->
  <path d="M470,304v-118c0-21.4-25.9-32.1-41-17l-32.4,32.4-96-96c-12.5-12.5-32.8-12.5-45.2,0l-73.4,73.3-46.1-46.1c-6.2-6.2-16.4-6.2-22.6,0l-22.6,22.6c-6.2,6.2-6.2,16.4,0,22.6l68.7,68.7c12.5,12.5,32.8,12.5,45.2,0l73.4-73.4,73.4,73.4-32.4,32.5c-15.1,15.1-4.4,41,17,41h118c8.8,0,16-7.2,16-16Z"/>
  <rect y="64" width="53.6" height="384" rx="15.9" ry="15.9"/>
  <rect x="229.2" y="165.2" width="53.6" height="512" rx="15.9" ry="15.9" transform="translate(-165.2 677.2) rotate(-90)"/>
</svg>