<?xml version="1.0" encoding="UTF-8"?>
<svg id="Layer_1" xmlns="http://www.w3.org/2000/svg" version="1.1" viewBox="0 0 512 512">
  <!-- Generator: Adobe Illustrator 29.4.0, SVG Export Plug-In . SVG Version: 2.1.0 Build 152)  -->
  <path d="M210.8,352h38.4c6.4,0,12.8-6.4,12.8-12.8v-134.4c0-6.4-6.4-12.8-12.8-12.8h-38.4c-6.4,0-12.8,6.4-12.8,12.8v134.4c0,6.4,6.4,12.8,12.8,12.8ZM306.8,352h38.4c6.4,0,12.8-6.4,12.8-12.8V108.8c0-6.4-6.4-12.8-12.8-12.8h-38.4c-6.4,0-12.8,6.4-12.8,12.8v230.4c0,6.4,6.4,12.8,12.8,12.8ZM118.8,352h38.4c6.4,0,12.8-6.4,12.8-12.8v-70.4c0-6.4-6.4-12.8-12.8-12.8h-38.4c-6.4,0-12.8,6.4-12.8,12.8v70.4c0,6.4,6.4,12.8,12.8,12.8ZM404.8,352h38.4c6.4,0,12.8-6.4,12.8-12.8v-198.4c0-6.4-6.4-12.8-12.8-12.8h-38.4c-6.4,0-12.8,6.4-12.8,12.8v198.4c0,6.4,6.4,12.8,12.8,12.8ZM496.6,394.8H54.1V80.3c0-8.8-7.1-15.9-15.9-15.9h-21.7c-8.8,0-15.9,7.1-15.9,15.9v352.1c0,8.8,7.1,15.9,15.9,15.9h480.1c8.8,0,15.9-7.1,15.9-15.9v-21.7c0-8.8-7.1-15.9-15.9-15.9Z"/>
</svg>