<?xml version="1.0" encoding="UTF-8"?>
<svg id="Layer_1" xmlns="http://www.w3.org/2000/svg" version="1.1" viewBox="0 0 512 512">
  <!-- Generator: Adobe Illustrator 29.4.0, SVG Export Plug-In . SVG Version: 2.1.0 Build 152)  -->
  <path d="M372.7,159.5l-84.7,56.5-85.3-113.7c-5.1-6.8-15.5-6.3-19.9,1l-86.8,144.7v104h384l-89.9-187.8c-3.2-6.5-11.4-8.7-17.4-4.7Z"/>
  <path d="M496.6,394.8H54.1V80.3c0-8.8-7.1-15.9-15.9-15.9h-21.7c-8.8,0-15.9,7.1-15.9,15.9v352.1c0,8.8,7.1,15.9,15.9,15.9h480.1c8.8,0,15.9-7.1,15.9-15.9v-21.7c0-8.8-7.1-15.9-15.9-15.9Z"/>
</svg>