<?xml version="1.0" encoding="UTF-8"?>
<svg id="Layer_1" xmlns="http://www.w3.org/2000/svg" version="1.1" viewBox="0 0 94 94">
  <!-- Generator: Adobe Illustrator 29.5.1, SVG Export Plug-In . SVG Version: 2.1.0 Build 141)  -->
  <path d="M45.1,69.2l-9-9-13.2-13.2,6-6,11.6-11.6h0l4.6-4.6c.8-.8.8-2.1,0-2.8l-5.7-5.7c-.8-.8-2.1-.8-2.8,0l-4.6,4.6h0L5.9,47h0l1.4,1.5,29.3,29.2c.8.8,2.1.8,2.8,0l5.7-5.7c.8-.8.8-2,0-2.8Z"/>
  <path d="M87.5,69.2l-9-9-13.2-13.2,6-6,11.6-11.6h0l4.6-4.6c.8-.8.8-2.1,0-2.8l-5.7-5.7c-.8-.8-2.1-.8-2.8,0l-4.6,4.6h0l-26.1,26.1h0l1.4,1.5,29.3,29.2c.8.8,2.1.8,2.8,0l5.7-5.7c.8-.8.8-2,0-2.8Z"/>
</svg>