<?xml version="1.0" encoding="UTF-8"?>
<svg id="Layer_1" data-name="Layer 1" xmlns="http://www.w3.org/2000/svg" viewBox="0 0 512 512">
  <path d="M256.38,48c114.9,0,208,93.1,208,208s-93.1,208-208,208S48.38,370.9,48.38,256,141.48,48,256.38,48ZM256.38,512c141.4,0,256-114.6,256-256S397.78,0,256.38,0,.38,114.6.38,256s114.6,256,256,256Z"/>
  <path d="M282.97,394.74c0,4.09-2.56,6.65-6.65,6.65h-40.92c-4.09,0-6.65-2.56-6.65-6.65v-111.5h-110.47c-4.09,0-6.65-2.56-6.65-6.65v-40.92c0-4.09,2.56-6.65,6.65-6.65h110.47v-110.47c0-4.09,2.56-6.65,6.65-6.65h40.92c4.09,0,6.65,2.56,6.65,6.65v110.47s111.5,0,111.5,0c4.09,0,6.65,2.56,6.65,6.65v40.92c0,4.09-2.56,6.65-6.65,6.65h-111.5v111.5Z"/>
</svg>