<?xml version="1.0" encoding="UTF-8"?>
<svg id="Layer_1" xmlns="http://www.w3.org/2000/svg" version="1.1" viewBox="0 0 512 512">
  <!-- Generator: Adobe Illustrator 29.4.0, SVG Export Plug-In . SVG Version: 2.1.0 Build 152)  -->
  <path d="M256,48c114.9,0,208,93.1,208,208s-93.1,208-208,208S48,370.9,48,256,141.1,48,256,48ZM256,512c141.4,0,256-114.6,256-256S397.4,0,256,0,0,114.6,0,256s114.6,256,256,256Z"/>
  <path d="M120.5,286.4c-6.6,0-12-5.4-12-12v-36c0-6.6,5.4-12,12-12h264c6.6,0,12,5.4,12,12v36c0,6.6-5.4,12-12,12H120.5Z"/>
</svg>