<?xml version="1.0" encoding="UTF-8"?>
<svg id="a" xmlns="http://www.w3.org/2000/svg" viewBox="0 0 505.53 505.53">
  <path d="M431.51,74.03c-98.71-98.71-258.76-98.71-357.47,0s-98.71,258.76,0,357.47c98.71,98.71,258.76,98.71,357.47,0s98.7-258.77,0-357.47ZM279.7,392.07c0,4.09-2.56,6.65-6.65,6.65h-40.92c-4.09,0-6.65-2.56-6.65-6.65v-111.5h-110.47c-4.09,0-6.65-2.56-6.65-6.65v-40.92c0-4.09,2.56-6.65,6.65-6.65h110.47v-110.47c0-4.09,2.56-6.65,6.65-6.65h40.92c4.09,0,6.65,2.56,6.65,6.65v110.47s111.5,0,111.5,0c4.09,0,6.65,2.56,6.65,6.65v40.92c0,4.09-2.56,6.65-6.65,6.65h-111.5v111.5Z"/>
</svg>