<?xml version="1.0" encoding="UTF-8"?><svg id="a" xmlns="http://www.w3.org/2000/svg" viewBox="0 0 500.94 500.94"><path d="M250.47,0C112.14,0,0,112.14,0,250.47s112.14,250.47,250.47,250.47,250.47-112.14,250.47-250.47S388.8,0,250.47,0ZM71.6,250.47c-.02-13.84,1.57-27.64,4.75-41.11l49.48,28.63c-.4,3.97-.58,8.16-.58,12.52,.28,55.3,36.55,103.97,89.45,120.05v55.21l.02,.04c-83.18-17.2-142.91-90.38-143.12-175.33ZM250.4,125.23c-37.58-.04-73.17,16.85-96.9,45.98l.1,.1-46.95-27.05c33.82-45.54,87.11-72.48,143.84-72.71,52.85-.04,102.99,23.33,136.94,63.84l-47.59,27.48c-23.46-24.18-55.75-37.77-89.45-37.64Zm35.89,300.56v-55.17c52.94-16.06,89.21-64.76,89.45-120.08,.02-8.17-.77-16.32-2.36-24.33l48.34-27.88c5.07,16.91,7.67,34.48,7.69,52.13-.19,84.95-59.93,158.13-143.12,175.33Z"/></svg>