<?xml version="1.0" encoding="UTF-8"?><svg id="a" xmlns="http://www.w3.org/2000/svg" viewBox="0 0 504 504"><rect x="233.17" y="157.18" width="37.8" height="105.66"/><path d="M251.6,276.01c-12.7,0-23,10.3-23,23s10.3,23,23,23h.07c12.68-.02,22.95-10.32,22.93-23,0-12.7-10.3-23-23-23Z"/><path d="M252,0C112.82,0,0,112.82,0,252s112.82,252,252,252,252-112.82,252-252S391.18,0,252,0Zm143.1,360.83H108.61c-3.49-.19-6.88-1.24-9.86-3.06-9.44-5.72-12.71-17.85-7.42-27.54L234.36,81.97c1.7-3.14,4.27-5.72,7.42-7.42,9.67-5.42,21.9-2.12,27.54,7.42l143.06,248.26c1.83,3.19,2.81,6.8,2.84,10.48-.02,11.11-9.02,20.1-20.12,20.12Z"/></svg>