<?xml version="1.0" encoding="UTF-8"?>
<svg id="a" xmlns="http://www.w3.org/2000/svg" viewBox="0 0 505.53 505.53">
  <path d="M252.77,0C113.17,0,0,113.17,0,252.77s113.17,252.77,252.77,252.77,252.77-113.17,252.77-252.77S392.36,0,252.77,0ZM370.31,332.23c2.89,2.89,2.89,6.51,0,9.4l-28.93,28.93c-2.89,2.89-6.51,2.89-9.4,0l-78.84-78.84-78.12,78.12c-2.89,2.89-6.51,2.89-9.4,0l-28.93-28.93c-2.89-2.89-2.89-6.51,0-9.4l78.12-78.12-78.12-78.12c-2.89-2.89-2.89-6.51,0-9.4l28.93-28.93c2.89-2.89,6.51-2.89,9.4,0l78.12,78.12,78.84-78.84c2.89-2.89,6.51-2.89,9.4,0l28.93,28.93c2.89,2.89,2.89,6.51,0,9.4l-78.84,78.84,78.84,78.84Z"/>
</svg>