<?xml version="1.0" encoding="UTF-8"?>
<svg id="Layer_1" data-name="Layer 1" xmlns="http://www.w3.org/2000/svg" viewBox="0 0 512 512">
  <path d="M256.06,54.4c-37.21,0-71.32,9.3-99.22,27.91-31.01,18.6-55.81,43.41-74.42,74.42-18.6,31.01-27.91,65.11-27.91,99.22s9.3,68.22,27.91,99.22,43.41,55.81,74.42,74.42c31.01,18.6,65.11,27.91,99.22,27.91s71.32-9.3,99.22-27.91c31.01-18.6,55.81-43.41,74.42-74.42,18.6-31.01,27.91-65.11,27.91-99.22s-9.3-68.22-27.91-99.22c-18.6-31.01-43.41-55.81-74.42-74.42-31.01-18.6-65.11-27.91-99.22-27.91ZM256.06,504c-46.51,0-86.82-12.4-124.03-34.11-37.21-21.7-68.22-52.71-89.92-89.92-21.7-40.31-34.11-80.62-34.11-124.03s12.4-83.72,34.11-124.03c24.81-37.21,52.71-68.22,89.92-89.92C169.24,20.29,209.54,7.89,256.06,7.89s86.82,12.4,124.03,34.11c37.21,21.7,68.22,52.71,89.92,89.92,21.7,40.31,34.11,80.62,34.11,124.03s-12.4,83.72-34.11,124.03c-24.81,37.21-52.71,68.22-89.92,89.92-37.21,21.7-77.52,31.01-124.03,34.11Z"/>
  <path d="M283.96,308.66h-49.61l-9.3-176.74h65.11l-9.3,176.74h3.1ZM225.05,370.67c0-12.4,3.1-18.6,9.3-24.81,6.2-6.2,15.5-6.2,24.81-6.2s15.5,0,21.7,6.2c6.2,3.1,9.3,12.4,9.3,24.81s-3.1,18.6-9.3,24.81-12.4,6.2-21.7,6.2-15.5,0-24.81-6.2c-6.2-6.2-9.3-12.4-9.3-24.81Z"/>
</svg>