<?xml version="1.0" encoding="UTF-8"?>
<svg id="Layer_1" data-name="Layer 1" xmlns="http://www.w3.org/2000/svg" viewBox="0 0 16 16">
  <path d="M14.9,4c-.7-1.2-1.7-2.2-2.9-2.9-1.2-.7-2.5-1.1-4-1.1s-2.8.4-4,1.1c-1.2.7-2.1,1.7-2.9,2.9-.8,1.3-1.1,2.6-1.1,4s.4,2.7,1.1,4c.7,1.2,1.7,2.2,2.9,2.9,1.2.7,2.5,1.1,4,1.1,1.5-.1,2.8-.4,4-1.1,1.2-.7,2.1-1.7,2.9-2.9.7-1.3,1.1-2.6,1.1-4s-.4-2.7-1.1-4ZM13.6,11.2c-.6,1-1.4,1.8-2.4,2.4-.9.6-2.1.9-3.2.9s-2.2-.3-3.2-.9c-1-.6-1.8-1.4-2.4-2.4-.6-1-.9-2.1-.9-3.2s.3-2.2.9-3.2c.6-1.1,1.4-1.8,2.4-2.4.9-.6,2-.9,3.2-.9,1.1,0,2.2.3,3.2.9,1,.6,1.8,1.4,2.4,2.4.6,1,.9,2.1.9,3.2s-.3,2.2-.9,3.2Z"/>
  <path d="M11.36,5.11l-4.61,4.77-2.06-1.95c-.37-.36-.96-.36-1.33,0-.36.38-.35.98.02,1.34l2.71,2.61c.37.36.96.36,1.33,0l5.26-5.45c.36-.37.36-.96,0-1.33-.37-.36-.96-.36-1.33,0Z"/>
</svg>