<?xml version="1.0" encoding="UTF-8"?>
<svg id="Layer_1" xmlns="http://www.w3.org/2000/svg" version="1.1" viewBox="0 0 19.3 17.4">
  <!-- Generator: Adobe Illustrator 29.5.0, SVG Export Plug-In . SVG Version: 2.1.0 Build 137)  -->
  <path d="M10,3.9c0-.4,0-.7,0-1-.8-.3-1.7-.5-2.6-.5C3.4,2.4,0,5.7,0,9.9s3.4,7.5,7.5,7.5,7.5-3.4,7.5-7.5,0-.4,0-.5c-2.8-.3-5-2.6-5-5.5ZM8.2,14.3c-.2.2-.4.2-.7.2s-.5,0-.7-.2c-.2-.2-.3-.4-.3-.8s0-.6.3-.8c.2-.2.4-.2.7-.2s.5,0,.7.2c.2.1.3.4.3.8s-.1.6-.3.8ZM8.2,11.5h-1.4l-.3-5.7h2l-.3,5.7Z"/>
  <path d="M16.3.4l-.3,2.8,2.7-.8.2,1.7-2.5.2,1.7,2.3-1.5.8-1.2-2.4-1,2.4-1.5-.8,1.6-2.3-2.5-.2.2-1.7,2.7.8-.3-2.8h1.7Z"/>
</svg>