<?xml version="1.0" encoding="UTF-8"?><svg id="a" xmlns="http://www.w3.org/2000/svg" viewBox="0 0 505.53 505.53"><path d="M252.77,0C113.17,0,0,113.17,0,252.77s113.17,252.77,252.77,252.77,252.77-113.17,252.77-252.77S392.36,0,252.77,0Zm196.92,320.92l-75.33,47.08c-7.44,4.65-17.24,2.39-21.89-5.05l-47.12-75.39c-4.66-7.43-2.42-17.24,5.02-21.9,3.59-2.25,7.93-2.98,12.06-2.01l38.12,8.8c11.81-60.34-27.54-118.82-87.88-130.63-60.34-11.81-118.82,27.54-130.63,87.88-5.42,27.71-.11,56.45,14.86,80.39,14.45,23.12-28.42,51.49-50.86,15.57-44.05-71.24-22.01-164.7,49.24-208.75,2.87-1.77,5.79-3.45,8.77-5.03,77.09-47.99,178.48-24.5,226.61,52.5,22.34,35.78,30.01,78.81,21.42,120.11l32.76,7.46c8.56,1.95,13.91,10.46,11.96,19.02-.94,4.13-3.5,7.72-7.09,9.96Z"/></svg>