<?xml version="1.0" encoding="UTF-8"?>
<svg id="Layer_1" xmlns="http://www.w3.org/2000/svg" version="1.1" viewBox="0 0 18 17">
  <!-- Generator: Adobe Illustrator 29.5.0, SVG Export Plug-In . SVG Version: 2.1.0 Build 137)  -->
  <defs>
    <style>
      .st0 {
        fill-rule: evenodd;
      }
    </style>
  </defs>
  <path class="st0" d="M14.7,8.9c0,.2,0,.4,0,.6,0,4-3.3,7.3-7.3,7.3S.2,13.5.2,9.5,3.5,2.2,7.5,2.2s.8,0,1.1,0c0,.4-.1.8-.1,1.2,0,1.5.6,2.8,1.5,3.8l-3.7,3.7-2.1-2.1c-.2-.2-.5-.2-.7,0l-.7.7c-.2.2-.2.5,0,.7l3,3c.2.2.5.2.7,0l4.9-4.9c.7.4,1.6.6,2.4.6s.5,0,.7,0Z"/>
  <path d="M14.8,0l-.3,2.8,2.7-.8.2,1.7-2.5.2,1.7,2.3-1.5.8-1.2-2.4-1,2.4-1.5-.8,1.6-2.3-2.5-.2.2-1.7,2.7.8L13.1,0h1.7Z"/>
</svg>