<?xml version="1.0" encoding="UTF-8"?>
<svg id="Layer_1" xmlns="http://www.w3.org/2000/svg" version="1.1" viewBox="0 0 512 512">
  <!-- Generator: Adobe Illustrator 29.5.1, SVG Export Plug-In . SVG Version: 2.1.0 Build 141)  -->
  <path d="M256,8C119,8,8,119,8,256s111,248,248,248,248-111,248-248S393,8,256,8ZM407.2,205l-169.8,175.7c-11.9,11.7-31,11.7-42.9,0l-87.5-84.4c-12.1-11.7-12.4-31.1-.7-43.2,11.9-11.7,31-11.7,42.9,0l66.4,62.9,148.7-154c11.9-11.7,31-11.7,42.9,0,11.7,11.9,11.7,31,0,42.9Z"/>
</svg>