<?xml version="1.0" encoding="UTF-8"?><svg id="a" xmlns="http://www.w3.org/2000/svg" viewBox="0 0 498.17 498.17"><path d="M249.09,0C111.52,0,0,111.52,0,249.09s111.52,249.09,249.09,249.09,249.09-111.52,249.09-249.09S386.65,0,249.09,0Zm0,427c-98.26,0-177.92-79.66-177.92-177.92S150.82,71.17,249.09,71.17s177.92,79.66,177.92,177.92-79.66,177.92-177.92,177.92Z"/><path d="M249.09,105.61c-79.24,0-143.47,64.24-143.47,143.47s64.24,143.47,143.47,143.47h.07c79.22-.02,143.42-64.25,143.4-143.47h0c0-79.24-64.24-143.47-143.47-143.47Zm69.84,191.62s-.01,.02-.02,.03l-13.49,18.57c-2.84,3.82-8.21,4.64-12.06,1.85l.07,.14-60.92-44.27c-2.27-1.66-3.59-4.31-3.56-7.12v-117.78c.02-4.75,3.86-8.59,8.61-8.61h22.95c4.75,.02,8.59,3.86,8.61,8.61v101.66l47.93,34.87c3.84,2.81,4.68,8.19,1.87,12.03Z"/></svg>