<?xml version="1.0" encoding="UTF-8"?>
<svg id="Layer_1" data-name="Layer 1" xmlns="http://www.w3.org/2000/svg" viewBox="0 0 448.66 512">
  <path d="M217.76,385.84c5.73,2.02,12.37,1.06,16.93-2.44l93.74-72.27c3.12-2.39,4.88-5.74,4.88-9.25s-1.76-6.85-4.88-9.25l-93.74-72.27c-4.56-3.51-11.2-4.46-16.93-2.44-5.73,2.02-9.44,6.64-9.44,11.69v38.26H18.83c-11.52,0-18.83,5.6-18.83,15v38.01c0,9.41,7.31,15,18.83,15h189.49v38.26c0,5.1,3.71,9.67,9.44,11.69Z"/>
  <path d="M384.66,64h-49.6C327.66,27.5,295.36,0,256.66,0s-71,27.5-78.4,64h-49.6c-35.3,0-64,28.7-64,64v109.04h48v-109.04c0-8.8,7.2-16,16-16h16v24c0,13.3,10.7,24,24,24h176c13.3,0,24-10.7,24-24v-24h16c8.8,0,16,7.2,16,16v320c0,8.8-7.2,16-16,16H128.66c-8.8,0-16-7.2-16-16v-82.73h-48v82.73c0,35.3,28.7,64,64,64h256c35.3,0,64-28.7,64-64V128c0-35.3-28.7-64-64-64ZM256.66,104c-13.25,0-24-10.75-24-24s10.75-24,24-24,24,10.75,24,24-10.75,24-24,24Z"/>
</svg>