<?xml version="1.0" encoding="UTF-8"?>
<svg id="Layer_1" data-name="Layer 1" xmlns="http://www.w3.org/2000/svg" viewBox="0 0 384 512">
  <path d="M320,64h-49.6C263,27.5,230.7,0,192,0s-71,27.5-78.4,64h-49.6C28.7,64,0,92.7,0,128v320c0,35.3,28.7,64,64,64h256c35.3,0,64-28.7,64-64V128c0-35.3-28.7-64-64-64ZM80,112v24c0,13.3,10.7,24,24,24h176c13.3,0,24-10.7,24-24v-24h16c8.8,0,16,7.2,16,16v320c0,8.8-7.2,16-16,16H64c-8.8,0-16-7.2-16-16V128c0-8.8,7.2-16,16-16h16ZM168,80c0-13.25,10.75-24,24-24s24,10.75,24,24-10.75,24-24,24-24-10.75-24-24Z"/>
  <path d="M162.1,199.38h57.2l-8.12,145.77h-40.61l-8.47-145.77ZM189.99,420.89c-7.06,0-13.24-1.89-18.54-5.7-5.3-3.8-7.94-10.05-7.94-18.77s2.59-15.02,7.77-18.94c5.17-3.91,11.41-5.86,18.71-5.86s13.65,1.96,19.07,5.86c5.41,3.91,8.12,10.22,8.12,18.94s-2.71,14.69-8.12,18.6c-5.42,3.91-11.77,5.86-19.07,5.86Z"/>
</svg>