<?xml version="1.0" encoding="utf-8"?>
<!-- Generator: Adobe Illustrator 27.7.0, SVG Export Plug-In . SVG Version: 6.00 Build 0)  -->
<svg version="1.1" id="Layer_1" xmlns="http://www.w3.org/2000/svg" xmlns:xlink="http://www.w3.org/1999/xlink" x="0px" y="0px"
	 viewBox="0 0 384 512" style="enable-background:new 0 0 384 512;" xml:space="preserve">
<path d="M320,64h-40h-9.6C263,27.5,230.7,0,192,0s-71,27.5-78.4,64H104H64C28.7,64,0,92.7,0,128v320c0,35.3,28.7,64,64,64h256
	c35.3,0,64-28.7,64-64V128C384,92.7,355.3,64,320,64z M80,112v24c0,13.3,10.7,24,24,24h88h88c13.3,0,24-10.7,24-24v-24h16
	c8.8,0,16,7.2,16,16v320c0,8.8-7.2,16-16,16H64c-8.8,0-16-7.2-16-16V128c0-8.8,7.2-16,16-16H80z M168,80c0-13.3,10.7-24,24-24
	s24,10.7,24,24s-10.7,24-24,24S168,93.3,168,80z M105,220c-8.8,0-16,7.2-16,16s7.2,16,16,16h173c8.8,0,16-7.2,16-16s-7.2-16-16-16
	H105z M106,316c-8.8,0-16,7.2-16,16s7.2,16,16,16h96c8.8,0,16-7.2,16-16s-7.2-16-16-16H106z"/>
</svg>
