<?xml version="1.0" encoding="UTF-8"?>
<svg id="Layer_1" data-name="Layer 1" xmlns="http://www.w3.org/2000/svg" viewBox="0 0 384 512">
  <path d="M320,64h-49.6C263,27.5,230.7,0,192,0s-71,27.5-78.4,64h-49.6C28.7,64,0,92.7,0,128v320c0,35.3,28.7,64,64,64h256c35.3,0,64-28.7,64-64V128c0-35.3-28.7-64-64-64ZM192,56c13.3,0,24,10.7,24,24s-10.7,24-24,24-24-10.7-24-24,10.7-24,24-24ZM336,274.95v173.05c0,8.8-7.2,16-16,16H64c-8.8,0-16-7.2-16-16V128c0-8.8,7.2-16,16-16h16v24c0,13.3,10.7,24,24,24h176c13.3,0,24-10.7,24-24v-24h16c8.8,0,16,7.2,16,16v146.95Z"/>
  <path d="M281.42,398.34H102.42c-8.8,0-13,4.87-13,10.82s4.2,10.82,13,10.82h179c8.8,0,13-4.87,13-10.82s-4.2-10.82-13-10.82Z"/>
  <path d="M102,375.65h179c8.8,0,13-4.87,13-10.82s-4.2-10.82-13-10.82H102c-8.8,0-13,4.87-13,10.82s4.2,10.82,13,10.82Z"/>
  <polygon points="210.07 196.61 173.93 196.61 173.93 234.04 137.79 234.04 137.79 268.89 173.93 268.89 173.93 305.03 210.07 305.03 210.07 268.89 246.21 268.89 246.21 234.04 210.07 234.04 210.07 196.61"/>
</svg>