<?xml version="1.0" encoding="UTF-8"?>
<svg id="Layer_1" data-name="Layer 1" xmlns="http://www.w3.org/2000/svg" viewBox="0 0 20 21">
  <path d="M19.02,19.55l-4.04-4.04c1.47-2.2.88-5.18-1.32-6.65-2.2-1.47-5.18-.88-6.65,1.32-.53.79-.81,1.72-.81,2.67,0,2.65,2.15,4.79,4.8,4.79.96,0,1.89-.29,2.69-.82l4.03,4.03c.17.13.42.1.56-.07l.67-.68c.17-.14.2-.38.07-.56ZM10.99,16.35c-1.93,0-3.49-1.56-3.49-3.49s1.56-3.49,3.49-3.49c1.93,0,3.49,1.56,3.49,3.49,0,1.93-1.56,3.5-3.49,3.5Z"/>
  <path d="M3.15,18.94c-.36,0-.65-.29-.65-.65V5.22c0-.36.29-.65.65-.65h.65v.98c0,.54.44.98.98.98h7.18c.54,0,.98-.44.98-.98v-.98h.65c.36,0,.65.29.65.65v1.98c.43.13.85.31,1.24.57.26.18.5.38.72.59v-3.15c0-1.44-1.17-2.61-2.61-2.61h-2.02c-.3-1.49-1.62-2.61-3.2-2.61s-2.9,1.12-3.2,2.61h-2.02c-1.44,0-2.61,1.17-2.61,2.61v13.06c0,1.44,1.17,2.61,2.61,2.61h10.45c.37,0,.7-.1,1.02-.24l-1.72-1.72H3.15ZM8.38,2.29c.54,0,.98.44.98.98s-.44.98-.98.98-.98-.44-.98-.98.44-.98.98-.98Z"/>
</svg>