<?xml version="1.0" encoding="UTF-8"?>
<svg id="Layer_1" xmlns="http://www.w3.org/2000/svg" version="1.1" viewBox="0 0 384 512">
  <!-- Generator: Adobe Illustrator 29.5.0, SVG Export Plug-In . SVG Version: 2.1.0 Build 137)  -->
  <path d="M281.4,398.3H102.4c-8.8,0-13,4.9-13,10.8s4.2,10.8,13,10.8h179c8.8,0,13-4.9,13-10.8s-4.2-10.8-13-10.8Z"/>
  <path d="M102,375.6h179c8.8,0,13-4.9,13-10.8s-4.2-10.8-13-10.8H102c-8.8,0-13,4.9-13,10.8s4.2,10.8,13,10.8Z"/>
  <path d="M320,64h-49.6C263,27.5,230.7,0,192,0s-71,27.5-78.4,64h-49.6C28.7,64,0,92.7,0,128v320c0,35.3,28.7,64,64,64h256c35.3,0,64-28.7,64-64V128c0-35.3-28.7-64-64-64ZM192,56c13.3,0,24,10.7,24,24s-10.7,24-24,24-24-10.7-24-24,10.7-24,24-24ZM64,112.1h16v24c0,13.3,10.7,24,24,24h176c13.3,0,24-10.7,24-24v-24h16c8.8,0,16,7.2,16,16v130.7h-44.1l-16.4-20.1c-2.8-5-3.7-5.8-6.3-9.5-5.4-1.4-12.4.8-14.2,5.2l-1.3,2.6-28.1,54.7-41.3-94.8c-.2-.4-.4-.7-.6-1.1-1-1.8-2.6-3.5-4.8-4.7-2.2-.6-4.6-.7-6.9-.3-.7,0-1.5.2-2.2.3-4,1.1-4.9,3.7-7.6,8l-37.3,62.7-12.8-15.7c-2.4-3.1-4.9-4.7-8.7-4.7q-2.1,0-3.2,0h-52.2v-113.2c0-8.8,7.2-16,16-16ZM320,464H64c-8.8,0-16-7.2-16-16v-189.5h49.1l20.4,24.9c5.7,5.6,10.9,4.3,14.5,2.9,2.6-.7,3.6-2.6,5.1-4.4,0,0,0-.1,0-.2l34.8-57.4,41.3,94.9c1.8,4.3,9.1,7.2,14.5,5.8,4-1.1,5.4-4,7.6-7.9l30.8-59,12.3,15c4.6,3.6,10,3,14.5,2.9h43v172c0,8.8-7.2,16-16,16Z"/>
</svg>