<?xml version="1.0" encoding="UTF-8"?>
<svg id="Layer_1" data-name="Layer 1" xmlns="http://www.w3.org/2000/svg" viewBox="0 0 384 512">
  <path d="M320,64h-49.6C263,27.5,230.7,0,192,0s-71,27.5-78.4,64h-49.6C28.7,64,0,92.7,0,128v320c0,35.3,28.7,64,64,64h256c35.3,0,64-28.7,64-64V128c0-35.3-28.7-64-64-64ZM80,112v24c0,13.3,10.7,24,24,24h176c13.3,0,24-10.7,24-24v-24h16c8.8,0,16,7.2,16,16v320c0,8.8-7.2,16-16,16H64c-8.8,0-16-7.2-16-16V128c0-8.8,7.2-16,16-16h16ZM168,80c0-13.25,10.75-24,24-24s24,10.75,24,24-10.75,24-24,24-24-10.75-24-24Z"/>
  <g>
    <circle cx="283.19" cy="298.39" r="23.5"/>
    <circle cx="192.5" cy="298.39" r="23.5"/>
    <circle cx="101.81" cy="298.39" r="23.5"/>
  </g>
</svg>