<?xml version="1.0" encoding="UTF-8"?>
<svg id="Layer_1" data-name="Layer 1" xmlns="http://www.w3.org/2000/svg" viewBox="0 0 384 512">
  <path d="M320,64h-49.6C263,27.5,230.7,0,192,0s-71,27.5-78.4,64h-49.6C28.7,64,0,92.7,0,128v320c0,35.3,28.7,64,64,64h256c35.3,0,64-28.7,64-64V128c0-35.3-28.7-64-64-64ZM80,112v24c0,13.3,10.7,24,24,24h176c13.3,0,24-10.7,24-24v-24h16c8.8,0,16,7.2,16,16v320c0,8.8-7.2,16-16,16H64c-8.8,0-16-7.2-16-16V128c0-8.8,7.2-16,16-16h16ZM168,80c0-13.25,10.75-24,24-24s24,10.75,24,24-10.75,24-24,24-24-10.75-24-24Z"/>
  <path d="M102.45,328.38l77.64,72.49c3.22,3.01,7.48,4.68,11.9,4.68s8.68-1.68,11.9-4.68l77.64-72.49c13.06-12.16,20.45-29.22,20.45-47.05v-2.49c0-30.04-21.7-55.64-51.3-60.59-19.59-3.27-39.53,3.14-53.54,17.14l-5.16,5.16-5.16-5.16c-14.01-14.01-33.95-20.41-53.54-17.14-29.61,4.94-51.3,30.55-51.3,60.59v2.49c0,17.83,7.39,34.89,20.45,47.05Z"/>
</svg>