<?xml version="1.0" encoding="UTF-8"?>
<svg id="Layer_1" xmlns="http://www.w3.org/2000/svg" viewBox="0 0 673.28 512.62">
  <path d="M659.55,431.59l-93.51-53.99c19.43-36.11,30.46-77.41,30.46-121.3C596.5,114.74,481.76,0,340.18,0c-92.05,0-172.76,48.52-217.96,121.37l-81.03-46.78c-13.13-7.58-29.93-3.08-37.51,10.05-7.58,13.13-3.08,29.93,10.05,37.51l618.35,357c13.13,7.58,29.93,3.08,37.51-10.05,7.58-13.13,3.08-29.93-10.05-37.51ZM340.18,48.06c115.04,0,208.25,93.21,208.25,208.25,0,35.13-8.7,68.22-24.05,97.25l-64.56-37.28c-.97-6.26-4.52-12.09-10.21-15.92l-85.41-56.87v-123.35c0-13.32-10.71-24.03-24.03-24.03s-24.03,10.71-24.03,24.03v113.19l-152.28-87.92c36.86-58.5,102.04-97.36,176.31-97.36Z"/>
  <path d="M467.97,420.78c-35.27,27.44-79.61,43.79-127.78,43.79-115.04,0-208.25-93.21-208.25-208.25,0-9.64.67-19.13,1.94-28.43l-44.29-25.57c-3.73,17.41-5.7,35.47-5.7,54,0,141.57,114.74,256.31,256.31,256.31,66.21,0,126.54-25.1,172.02-66.3l-44.24-25.54Z"/>
</svg>