<?xml version="1.0" encoding="utf-8"?>
<!-- Generator: Adobe Illustrator 27.8.1, SVG Export Plug-In . SVG Version: 6.00 Build 0)  -->
<svg version="1.1" id="Layer_1" xmlns="http://www.w3.org/2000/svg" xmlns:xlink="http://www.w3.org/1999/xlink" x="0px" y="0px"
	 viewBox="0 0 768.4 721.6" style="enable-background:new 0 0 768.4 721.6;" xml:space="preserve">
<g>
	<path d="M307.7,532.1c-11.4,1.9-23.1,3-35.1,3c-114.9,0-208-93.1-208-208s93.1-208,208-208c114.7,0,207.7,92.8,208,207.5l44.1-44.1
		C503.7,162.3,398.8,71.1,272.7,71.1c-141.4,0-256,114.6-256,256s114.6,256,256,256c11,0,21.9-0.7,32.5-2
		C303.3,564.8,304.2,548.2,307.7,532.1z"/>
	<path d="M272.7,167.1c-13.3,0-24,10.7-24,24v135.1c0,8.9,4,16.4,10.7,20l96,64c11,8.2,25.9,5.2,32.4-5.8c8.2-11,5.2-25.9-5.8-33.3
		l-85.3-56.8V191.1C296.7,177.8,286,167.1,272.7,167.1z"/>
</g>
<path id="pencil-solid_00000040560967457668917980000002628614752706689928_" d="M676.8,419.6l-8.9,8.9l-17.7,17.7l-160.7,161
	c-5.2,5.2-11.6,9.1-18.6,11.2L370.2,648c-10,2.9-20.5-2.9-23.4-12.9c-1-3.4-1-7.1,0-10.5l29.6-100.7c2.1-7.1,5.9-13.5,11.2-18.6
	l160.8-161l17.7-17.7l8.9-8.9l26.6,26.6l48.8,48.8l26.6,26.6L676.8,419.6z M421.3,524.5l-7.5,7.5c-0.7,0.8-1.3,1.7-1.6,2.7
	L392.5,602l67.5-19.9c1-0.2,1.9-0.7,2.7-1.4l7.5-7.5h-36.4c-6.9,0-12.5-5.6-12.6-12.6L421.3,524.5z M701.8,261.8l30.9,30.9
	c19.6,19.6,19.6,51.4,0,71l0,0l-11.4,11.4l-17.7,17.7l-8.9,8.9l-26.6-26.6l-48.8-48.8l-26.7-26.6l8.9-8.9l17.7-17.7l11.4-11.4
	c19.6-19.6,51.4-19.6,71,0C701.7,261.8,701.7,261.8,701.8,261.8L701.8,261.8z"/>
</svg>
