<?xml version="1.0" encoding="utf-8"?>
<!-- Generator: Adobe Illustrator 27.8.1, SVG Export Plug-In . SVG Version: 6.00 Build 0)  -->
<svg version="1.1" id="Layer_1" xmlns="http://www.w3.org/2000/svg" xmlns:xlink="http://www.w3.org/1999/xlink" x="0px" y="0px"
	 viewBox="0 0 768.4 721.6" style="enable-background:new 0 0 768.4 721.6;" xml:space="preserve">
<path d="M222.1,306.5c0-12.7,10.2-23,23-23s23,10.2,23,23v118l81.7,54.4c10.5,7.1,13.4,21.4,5.6,31.9c-6.2,10.5-20.5,13.4-31,5.6
	L232.4,455c-6.4-3.4-10.2-10.6-10.2-19.2V306.5z M245.1,191.6c135.4,0,245.1,109.7,245.1,245.1S380.5,681.8,245.1,681.8
	S0,572.1,0,436.7S109.7,191.6,245.1,191.6z M46,436.7c0,110,89.1,199.2,199.2,199.2s199.2-89.1,199.2-199.2s-89.1-199.2-199.2-199.2
	S46,326.7,46,436.7z"/>
<path id="add_00000124866293045902607900000011813283566302135729_" d="M768.8,162.1H639V32.2h-59.8v129.9H450v59.8h129.2V351h59.8
	V221.8H769L768.8,162.1z"/>
</svg>
