<?xml version="1.0" encoding="utf-8"?>
<!-- Generator: Adobe Illustrator 21.0.0, SVG Export Plug-In . SVG Version: 6.00 Build 0)  -->
<svg version="1.1" id="Layer_1" xmlns="http://www.w3.org/2000/svg" xmlns:xlink="http://www.w3.org/1999/xlink" x="0px" y="0px"
	 viewBox="0 0 71.8 68.6" style="enable-background:new 0 0 71.8 68.6;" xml:space="preserve">
<title>risk</title>
<g>
	<path d="M53.4,14.3H6.8c-1.9,0-3.3,1.4-3.3,3.3v46.6c0,1.9,1.4,3.3,3.3,3.3h46.5c1.9,0,3.3-1.4,3.3-3.3V17.6
		C56.7,15.7,55.3,14.3,53.4,14.3z M50,60.9H10.1V20.9H50V60.9L50,60.9z"/>
	<path d="M66.7,1H23.4c-1.9,0-3.3,1.4-3.3,3.3s1.4,3.3,3.3,3.3h39.9v39.9c0,1.9,1.4,3.3,3.3,3.3c1.9,0,3.3-1.4,3.3-3.3V4.3
		C70,2.4,68.6,1,66.7,1z"/>
	<path d="M20.1,44.2h6.6v6.6c0,1.9,1.4,3.3,3.3,3.3c1.9,0,3.3-1.4,3.3-3.3v-6.6h6.6c1.9,0,3.3-1.4,3.3-3.3c0-1.9-1.4-3.3-3.3-3.3
		h-6.6v-6.6c0-1.9-1.4-3.3-3.3-3.3s-3.3,1.4-3.3,3.3v6.6h-6.7c-1.9,0-3.3,1.4-3.3,3.3C16.8,42.8,18.2,44.2,20.1,44.2z"/>
</g>
</svg>
