<?xml version="1.0" encoding="utf-8"?>
<!-- Generator: Adobe Illustrator 25.2.3, SVG Export Plug-In . SVG Version: 6.00 Build 0)  -->
<svg version="1.1" id="Layer_1" xmlns="http://www.w3.org/2000/svg" xmlns:xlink="http://www.w3.org/1999/xlink" x="0px" y="0px"
	 viewBox="0 0 640 512" style="enable-background:new 0 0 640 512;" xml:space="preserve">
<path d="M283.4,483.6l-54.3-15.8c-5.7-1.6-8.9-7.6-7.3-13.3L343.3,35.8c1.6-5.7,7.6-8.9,13.3-7.3l54.3,15.8
	c5.7,1.6,8.9,7.6,7.3,13.3L296.7,476.3C295,482,289.1,485.2,283.4,483.6z M181.9,383.6l38.7-41.3c4.1-4.4,3.8-11.3-0.7-15.3
	l-80.7-71l80.7-71c4.5-4,4.9-11,0.7-15.3l-38.7-41.3c-4-4.3-10.8-4.5-15.1-0.4L38.4,248.2c-4.5,4.2-4.5,11.4,0,15.6l128.3,120.3
	C171.1,388.2,177.9,388,181.9,383.6L181.9,383.6z M473.3,384.2l128.3-120.3c4.5-4.2,4.5-11.4,0-15.6L473.3,127.8
	c-4.3-4-11-3.8-15.1,0.4l-38.7,41.3c-4.1,4.4-3.8,11.3,0.7,15.3l80.7,71.1l-80.7,71c-4.5,4-4.9,11-0.7,15.3l38.7,41.3
	C462.1,388,468.9,388.2,473.3,384.2L473.3,384.2z"/>
</svg>
