<?xml version="1.0" encoding="UTF-8"?>
<svg id="Layer_1" xmlns="http://www.w3.org/2000/svg" version="1.1" viewBox="0 0 512 512">
  <!-- Generator: Adobe Illustrator 29.4.0, SVG Export Plug-In . SVG Version: 2.1.0 Build 152)  -->
  <path d="M448,0H64C28.7,0,0,28.7,0,64v288c0,35.3,28.7,64,64,64h83v84c0,7.1,5.8,12,12,12s4.9-.7,7.1-2.4l124.9-93.6h157c35.3,0,64-28.7,64-64V64C512,28.7,483.3,0,448,0ZM464,352c0,8.8-7.2,16-16,16h-173l-12.8,9.6-67.2,50.4v-60H64c-8.8,0-16-7.2-16-16V64c0-8.8,7.2-16,16-16h384c8.8,0,16,7.2,16,16v288Z"/>
  <rect x="116" y="136" width="280" height="44"/>
  <rect x="115.5" y="233.5" width="210.5" height="44"/>
</svg>