<?xml version="1.0" encoding="UTF-8"?>
<svg id="Layer_1" xmlns="http://www.w3.org/2000/svg" version="1.1" viewBox="0 0 547.4 442.5">
  <!-- Generator: Adobe Illustrator 29.4.0, SVG Export Plug-In . SVG Version: 2.1.0 Build 152)  -->
  <path d="M303.2,0H44.8C20.1,0,0,20.1,0,44.8v185.4c0,24.7,20.1,44.8,44.8,44.8h38v58.7c0,5,4.1,8.4,8.4,8.4s3.4-.5,5-1.7l87.3-65.4h119.8c24.7,0,44.8-20.1,44.8-44.8V44.8C348,20.1,327.9,0,303.2,0ZM314.4,230.2c0,6.2-5,11.2-11.2,11.2h-131l-8.9,6.7-47,35.2v-42H44.8c-6.2,0-11.2-5-11.2-11.2V44.8c0-6.2,5-11.2,11.2-11.2h258.5c6.2,0,11.2,5,11.2,11.2v185.4Z"/>
  <path d="M502.7,100.4h-127.7v33.6h127.7c6.2,0,11.2,5,11.2,11.2v185.4c0,6.2-5,11.2-11.2,11.2h-71.6v42l-47-35.2-9-6.7h-131c-6.2,0-11.2-5-11.2-11.2v-23.7h-33.6v23.7c0,24.7,20.1,44.8,44.8,44.8h119.8l87.3,65.4c1.5,1.2,3.3,1.7,5,1.7,4.3,0,8.4-3.4,8.4-8.4v-58.7h38c24.7,0,44.8-20.1,44.8-44.8v-185.4c0-24.7-20.1-44.8-44.8-44.8Z"/>
</svg>