<?xml version="1.0" encoding="UTF-8"?>
<svg id="Layer_1" data-name="Layer 1" xmlns="http://www.w3.org/2000/svg" xmlns:xlink="http://www.w3.org/1999/xlink" viewBox="0 0 512 512">
  <defs>
    <style>
      .cls-1 {
        fill: none;
      }

      .cls-2 {
        clip-path: url(#clippath);
      }
    </style>
    <clipPath id="clippath">
      <rect class="cls-1" x="9.29" y="9.29" width="493.42" height="493.42"/>
    </clipPath>
  </defs>
  <g class="cls-2">
    <path d="M317.68,479.58c0,9.16-5.4,17.44-13.69,21.1-8.29,3.66-18.12,2.22-24.86-3.95l-77.1-69.39c-4.91-4.43-7.61-10.6-7.61-17.15s2.79-12.82,7.61-17.15l77.1-69.39c6.75-6.07,16.58-7.61,24.86-3.95,8.29,3.66,13.69,11.95,13.69,21.1v38.55h15.42c34.02,0,61.68-27.66,61.68-61.68v-160.65c-27.27-11.85-46.26-39.03-46.26-70.64,0-42.6,34.5-77.1,77.1-77.1s77.1,34.5,77.1,77.1c0,31.61-18.99,58.79-46.26,70.64v160.65c0,68.13-55.22,123.35-123.35,123.35h-15.42v38.55ZM448.74,86.39c0-6.13-2.44-12.02-6.78-16.35-4.34-4.34-10.22-6.77-16.35-6.77s-12.02,2.44-16.35,6.77c-4.34,4.34-6.78,10.22-6.78,16.35s2.44,12.02,6.78,16.35c4.34,4.34,10.22,6.77,16.35,6.77s12.02-2.44,16.35-6.77c4.34-4.34,6.78-10.22,6.78-16.35ZM194.32,32.42c0-9.16,5.4-17.44,13.68-21.11,8.29-3.66,18.12-2.22,24.86,3.95l77.1,69.39c4.92,4.43,7.61,10.6,7.61,17.15s-2.79,12.82-7.61,17.15l-77.1,69.39c-6.75,6.07-16.58,7.61-24.86,3.95-8.29-3.66-13.68-11.95-13.68-21.11v-38.55h-15.42c-34.02,0-61.68,27.66-61.68,61.68v160.65c27.27,11.85,46.26,39.03,46.26,70.64,0,42.6-34.5,77.1-77.1,77.1S9.29,468.21,9.29,425.61c0-31.61,18.98-58.79,46.26-70.64v-160.65c0-68.13,55.22-123.35,123.35-123.35h15.42v-38.55ZM63.26,425.61c0,6.13,2.44,12.02,6.77,16.35,4.34,4.34,10.22,6.78,16.35,6.78s12.02-2.44,16.35-6.78c4.34-4.34,6.77-10.22,6.77-16.35s-2.44-12.02-6.77-16.35c-4.34-4.34-10.22-6.78-16.35-6.78s-12.02,2.44-16.35,6.78c-4.34,4.34-6.77,10.22-6.77,16.35Z"/>
  </g>
</svg>