<?xml version="1.0" encoding="utf-8"?>
<!-- Generator: Adobe Illustrator 25.1.0, SVG Export Plug-In . SVG Version: 6.00 Build 0)  -->
<svg version="1.1" id="Layer_1" xmlns="http://www.w3.org/2000/svg" xmlns:xlink="http://www.w3.org/1999/xlink" x="0px" y="0px"
	 viewBox="0 0 512 512" style="enable-background:new 0 0 512 512;" xml:space="preserve">
<path d="M467.3,330.1c24.5,0,44.4-19.9,44.4-44.4V172.7c0-24.5-19.9-44.4-44.4-44.4h-35.7v-34h-62.9v34H143.7V94.5H80.8v33.7H45.3
	c-24.5,0-44.4,19.9-44.4,44.4v113.1c0,24.5,19.9,44.4,44.4,44.4h34.6v144.6h-72v23.4h497.4v-23.4h-74.5V330.1H467.3z M480.2,156.3
	c8.9,6.2,14.7,16,14.7,27.2v62.6L455,310.5h-70.2L480.2,156.3z M413,149.7l-99.6,160.8h-70.2l99.6-160.8H413z M271.5,149.7
	L172,310.5H97.7l99.6-160.8H271.5z M31.1,302.9c-8.2-6.2-13.4-15.6-13.4-26.2v-65.6l38-61.4h70.2L31.1,302.9z M367.8,474.8H142.7
	V330.1h225.1V474.8z"/>
</svg>
