<?xml version="1.0" encoding="utf-8"?>
<!-- Generator: Adobe Illustrator 23.1.0, SVG Export Plug-In . SVG Version: 6.00 Build 0)  -->
<svg version="1.1" id="Layer_1" xmlns="http://www.w3.org/2000/svg" xmlns:xlink="http://www.w3.org/1999/xlink" x="0px" y="0px"
	 viewBox="0 0 71.8 68.6" style="enable-background:new 0 0 71.8 68.6;" xml:space="preserve">
<path d="M18,61.1H9.6V44.9c0-2,0-3.8,0.1-5.4c-0.5,0.6-1.2,1.3-1.9,2l-3.5,2.9L0,39.1l10.5-8.6H18V61.1z"/>
<path d="M46.8,49.8H24.6v-5.4l7.5-7.6c2.1-2.2,3.5-3.8,4.2-4.6c0.7-0.8,1.1-1.5,1.4-2.1c0.3-0.6,0.4-1.2,0.4-1.8
	c0-0.8-0.3-1.4-0.8-1.9c-0.5-0.5-1.2-0.7-2.2-0.7c-1,0-1.9,0.3-2.9,0.8c-1,0.6-2.1,1.4-3.3,2.4l-4.5-5.3c1.6-1.4,2.9-2.4,4-3
	c1.1-0.6,2.2-1.1,3.5-1.4c1.3-0.3,2.7-0.5,4.3-0.5c2,0,3.7,0.3,5.3,1c1.6,0.7,2.8,1.7,3.6,3c0.9,1.3,1.3,2.7,1.3,4.3
	c0,1.2-0.2,2.3-0.4,3.3c-0.3,1-0.8,2-1.4,3c-0.6,1-1.5,2-2.5,3.1c-1,1.1-3.3,3.2-6.6,6.2V43h11.6V49.8z"/>
<path d="M70.9,14.6c0,1.9-0.6,3.5-1.7,4.9c-1.2,1.4-2.8,2.3-5,3v0.1c5.1,0.6,7.7,3.1,7.7,7.2c0,2.8-1.1,5.1-3.4,6.7
	C66.2,38.1,63,39,59,39c-1.6,0-3.2-0.1-4.6-0.4c-1.4-0.2-2.9-0.7-4.6-1.3v-6.9c1.3,0.7,2.7,1.2,4.1,1.5c1.4,0.3,2.7,0.5,3.8,0.5
	c1.8,0,3.1-0.3,4-0.8c0.8-0.5,1.2-1.3,1.2-2.4c0-0.8-0.2-1.5-0.6-1.9c-0.4-0.5-1.1-0.8-2.1-1c-1-0.2-2.2-0.3-3.8-0.3h-1.9v-6.2h1.9
	c4.2,0,6.3-1.1,6.3-3.2c0-0.8-0.3-1.4-0.9-1.8c-0.6-0.4-1.5-0.6-2.5-0.6c-2,0-4,0.7-6.1,2L50,10.6c1.6-1.1,3.3-1.9,5-2.4
	c1.7-0.5,3.6-0.7,5.8-0.7c3.2,0,5.6,0.6,7.4,1.9C70,10.7,70.9,12.4,70.9,14.6z"/>
</svg>
