<!-- Generated by IcoMoon.io -->
<svg version="1.1" xmlns="http://www.w3.org/2000/svg" width="250" height="250" viewBox="0 0 250 250">
<title>crown</title>
<path d="M206.779 200.488h-163.557c-3.474 0-6.291 2.816-6.291 6.291v0 12.581c0 3.474 2.816 6.291 6.291 6.291v0h163.557c3.474 0 6.291-2.816 6.291-6.291v0-12.581c0-3.474-2.816-6.291-6.291-6.291v0zM231.941 74.675c-9.926 0-17.973 8.047-17.973 17.973v0c-0.003 0.118-0.005 0.257-0.005 0.396 0 2.681 0.667 5.206 1.844 7.418l-0.042-0.085-28.578 17.973c-1.956 1.349-4.377 2.155-6.987 2.155-4.746 0-8.869-2.666-10.954-6.582l-0.033-0.067-32.352-56.077c4.282-3.318 7.012-8.463 7.012-14.244 0-0.111-0.001-0.221-0.003-0.331l0 0.017c0-10.423-8.449-18.872-18.872-18.872s-18.872 8.449-18.872 18.872v0c-0.002 0.093-0.003 0.204-0.003 0.314 0 5.782 2.73 10.926 6.971 14.214l0.041 0.031-32.172 56.077c-2.117 3.983-6.24 6.649-10.987 6.649-2.61 0-5.031-0.806-7.029-2.182l0.042 0.027-27.859-17.075c1.023-2.189 1.62-4.753 1.62-7.457 0-0.096-0.001-0.191-0.002-0.286l0 0.014c-0.492-9.532-8.34-17.075-17.951-17.075-9.926 0-17.973 8.047-17.973 17.973 0 9.918 8.034 17.96 17.949 17.973h3.057l27.679 75.488h150.976l28.398-75.847h3.055c10.423 0 18.872-8.449 18.872-18.872s-8.449-18.872-18.872-18.872v0z"></path>
</svg>
