<?xml version="1.0" encoding="UTF-8"?>
<svg id="Layer_1" xmlns="http://www.w3.org/2000/svg" version="1.1" viewBox="0 0 19.5 24.1">
  <!-- Generator: Adobe Illustrator 29.5.0, SVG Export Plug-In . SVG Version: 2.1.0 Build 137)  -->
  <defs>
    <style>
      .st0 {
        fill-rule: evenodd;
      }
    </style>
  </defs>
  <path class="st0" d="M9,.4C5.1.4,1,1.6,1,4.1h0v13c0,2.2,3.2,3.3,6.6,3.6v-1.8c-3.2-.3-5-1.3-5-1.7V6.3c2,1,4.2,1.4,6.5,1.3,2.2,0,4.4-.4,6.5-1.3v6.2l1.6,1V4c-.1-2.4-4.3-3.6-8.2-3.6ZM9,5.8c-4.2,0-6.5-1.3-6.5-1.8s2.2-1.8,6.4-1.8h0c4.2,0,6.4,1.3,6.4,1.8s-2.2,1.8-6.4,1.8h.1Z"/>
  <path d="M9.6,23v-11.5c0-.2,0-.4.2-.5.1-.1.3-.2.5-.2.2,0,.3,0,.5.2l8.5,7.5c.1,0,.2.2.2.3,0,.1,0,.3,0,.4,0,.1-.1.2-.3.3-.1,0-.2.1-.4.1h-3.9l1.4,2.7c0,.2,0,.4,0,.6,0,.2-.2.3-.4.4-.2,0-.4,0-.6,0-.2,0-.3-.2-.4-.4l-1.4-2.8-2.7,3.1c0,.1-.2.2-.3.2-.1,0-.3,0-.4,0-.1,0-.2-.1-.3-.2,0-.1-.1-.2-.1-.4Z"/>
</svg>