<!-- Generated by IcoMoon.io -->
<svg version="1.1" xmlns="http://www.w3.org/2000/svg" width="250" height="250" viewBox="0 0 250 250">
<title>data-mart</title>
<path d="M124.707 85.462c-34.421 0-71.448 8.962-71.448 28.646v42.802c0 19.684 37.027 28.646 71.448 28.646s71.448-8.962 71.448-28.646v-42.802c0.002-19.684-37.025-28.646-71.448-28.646zM67.73 132.212c12.976 6.648 33.911 10.53 56.977 10.53s44-3.89 56.977-10.53v24.698c0 3.646-19.596 14.173-56.977 14.173s-56.977-10.53-56.977-14.173zM67.73 114.112c0-3.646 19.596-14.173 56.977-14.173s56.977 10.53 56.977 14.173-19.596 14.173-56.977 14.173-56.975-10.551-56.975-14.177z"></path>
<path d="M124.287 0.004c-15.741 0.002-28.5 12.763-28.5 28.505 0 13.213 8.991 24.327 21.188 27.557l0.199 0.045v15.177c0 3.928 3.185 7.113 7.113 7.113s7.113-3.185 7.113-7.113v0-15.177c12.382-3.287 21.358-14.394 21.358-27.597 0-15.732-12.742-28.487-28.469-28.509h-0.002zM138.584 28.504c-0.010 7.889-6.407 14.28-14.297 14.28-7.896 0-14.297-6.401-14.297-14.297s6.401-14.297 14.297-14.297v0c7.897 0.004 14.297 6.406 14.297 14.304 0 0.004 0 0.008 0 0.011v-0z"></path>
<path d="M86.078 196.544c-0.945-1.62-2.46-2.819-4.264-3.333l-0.051-0.012c-0.559-0.159-1.201-0.251-1.865-0.251-1.303 0-2.524 0.354-3.572 0.97l0.033-0.018-13.223 7.662c-5.112-5.137-12.187-8.316-20.005-8.316-15.586 0-28.221 12.635-28.221 28.221s12.635 28.221 28.221 28.221c15.586 0 28.221-12.635 28.221-28.221 0-2.714-0.383-5.339-1.099-7.824l0.049 0.199 13.152-7.57c2.146-1.256 3.565-3.551 3.565-6.176 0-1.303-0.35-2.525-0.96-3.577l0.018 0.034zM56.641 225.173v0.017c-1.704 6.123-7.214 10.547-13.764 10.581h-0.004c-0.010 0-0.021 0-0.033 0-7.894 0-14.293-6.399-14.293-14.293 0-1.316 0.178-2.591 0.511-3.802l-0.023 0.1c1.018-3.736 3.419-6.79 6.606-8.642l0.068-0.036c2.033-1.213 4.484-1.93 7.102-1.93 0.010 0 0.020 0 0.030 0h-0.001c5.1 0.019 9.573 2.688 12.114 6.703l0.035 0.059 0.229 0.429c1.206 2.037 1.919 4.489 1.919 7.108 0 1.319-0.181 2.595-0.519 3.806l0.024-0.099z"></path>
<path d="M220.825 196.773c-4.071-2.38-8.963-3.786-14.184-3.786-7.978 0-15.188 3.282-20.356 8.569l-0.005 0.005-13.223-7.658c-1.018-0.596-2.242-0.947-3.548-0.947-3.931 0-7.118 3.187-7.118 7.118 0 2.625 1.421 4.918 3.536 6.153l0.034 0.018 13.152 7.589c-0.66 2.293-1.040 4.927-1.040 7.649 0 2.627 0.354 5.172 1.016 7.589l-0.047-0.201c3.373 12.255 14.41 21.11 27.518 21.127h0.002c0.002 0 0.004 0 0.007 0 15.752 0 28.522-12.77 28.522-28.522 0-10.504-5.678-19.682-14.133-24.632l-0.135-0.073zM218.959 228.624c-2.518 4.302-7.116 7.146-12.379 7.146-6.573 0-12.109-4.436-13.78-10.477l-0.024-0.1c-0.317-1.113-0.5-2.392-0.5-3.713 0-2.278 0.543-4.43 1.506-6.333l-0.037 0.080 0.703-0.017v-1.267c2.549-4.084 7.018-6.761 12.113-6.761 2.64 0 5.113 0.719 7.232 1.972l-0.066-0.036c4.302 2.513 7.146 7.108 7.146 12.368 0 2.632-0.712 5.097-1.954 7.214l0.036-0.067z"></path>
</svg>
