<?xml version="1.0" encoding="UTF-8"?>
<svg id="Layer_1" xmlns="http://www.w3.org/2000/svg" version="1.1" viewBox="0 0 19.5 24.1">
  <!-- Generator: Adobe Illustrator 29.5.0, SVG Export Plug-In . SVG Version: 2.1.0 Build 137)  -->
  <defs>
    <style>
      .st0 {
        fill-rule: evenodd;
      }
    </style>
  </defs>
  <path d="M17.6,16.4h-.7v-3c0-1.5-1-2.7-2.3-2.7h-2.2c-1.3,0-2.3,1.2-2.3,2.7v3h-.7c-.4,0-.8.4-.8.8v5.8c0,.4.3.8.8.8h8.1c.4,0,.8-.4.8-.8v-5.8c0-.4-.3-.8-.8-.8ZM12.7,12.3h1.7c.7,0,1.2.6,1.2,1.4v2.7h-4v-2.7c0-.8.5-1.4,1.2-1.4Z"/>
  <path class="st0" d="M9,.4C5.1.4,1,1.6,1,4.1h0v13c0,2.2,3.2,3.3,6.6,3.6v-1.8c-3.2-.3-5-1.3-5-1.7V6.3c2,1,4.2,1.4,6.5,1.3,2.2,0,4.4-.4,6.5-1.3v3.2l1.6,1v-6.5C17.1,1.6,12.9.4,9,.4ZM9,5.8c-4.2,0-6.5-1.3-6.5-1.8s2.2-1.8,6.4-1.8h0c4.2,0,6.4,1.3,6.4,1.8s-2.2,1.8-6.4,1.8Z"/>
</svg>