<?xml version="1.0" encoding="UTF-8"?>
<svg id="Layer_1" xmlns="http://www.w3.org/2000/svg" version="1.1" viewBox="0 0 572 577.6">
  <!-- Generator: Adobe Illustrator 29.4.0, SVG Export Plug-In . SVG Version: 2.1.0 Build 152)  -->
  <circle cx="402.7" cy="337.1" r="95.1"/>
  <path d="M570.9,549.3c-18.1-53.4-60.5-95.1-114.8-112.4-32.2,22.8-76.2,22.8-109.2,0-52.7,17.3-95.1,58.9-113.2,111.6-5.5,14.9,4.7,29.1,19.6,29.1h295.5c16.5,0,26.7-14.1,22-28.3Z"/>
  <path d="M81.8,443.4c-17.3-6.2-27.8-13.3-33.2-16.9l-1.5-1.4v-69.5c14.2,5.3,28.8,9.8,44.2,13.6,38.2,9.4,83.9,14.8,131.8,14.8s28.8-.5,42.6-1.4c-4.8-14.3-7.3-29.6-7.3-45.5s0-1.5,0-2.2c-11.2.7-22.7,1.1-34.4,1.1-45.5,0-87.3-5.9-121.2-13.4-23.2-5.7-41.5-13.5-54.8-19.9v-75.1c13.3,5.3,27.9,9.8,43.3,13.6,38.2,9.4,83.9,14.8,132.7,14.8s40.9-1,60.2-2.8c7.4-10.4,16.4-19.7,26.6-27.3,24.9-20.6,56.9-33,91.8-33s31.1,2.6,45.3,7.3v-120.1C448,35.8,347.7,0,224,0S0,35.8,0,80v352c0,41.2,87,75,198.9,79.5,0,0,0-.2,0-.2,5.9-17.1,14.3-33,24.8-47.3-.2,0-.4,0-.6,0-56.9,0-107.2-8.5-141.4-20.6ZM48,86l.6-.5c5.3-4.5,15.9-10.7,33.2-16.9,34.2-12.2,84.5-20.6,142.2-20.6s108.1,8.5,142.2,20.6c17.3,6.2,27.9,12.4,33.2,16.9l.6.5v88.7c-13.3,6.4-31.6,14.2-54.8,19.9-33.9,7.5-75.7,13.4-121.2,13.4s-87.3-5.9-121.2-13.4c-23.2-5.7-41.5-13.5-54.8-19.9v-88.7ZM45.9,423.9s0-.8.2.2l-.2-.2ZM45.9,88.1s0,0,.2-.2l-.2.2Z"/>
</svg>