<?xml version="1.0" encoding="UTF-8"?>
<svg id="Layer_1" xmlns="http://www.w3.org/2000/svg" version="1.1" viewBox="0 0 568.2 597.8">
  <!-- Generator: Adobe Illustrator 29.4.0, SVG Export Plug-In . SVG Version: 2.1.0 Build 152)  -->
  <path d="M543,593.1l20.7-20.5c5.2-4.2,6.1-11.8,2-17l-92-93.8c16.3-24.2,25.1-52.7,25.1-81.8,0-80.7-65.4-146.1-146.1-146.1-28.9,0-57.2,8.6-81.3,24.7-67.1,44.9-85,135.6-40.2,202.6,44.9,67.1,135.6,85,202.6,40.2l92.2,94c5.3,4,12.9,3.1,17-2.2ZM352.7,486.3c-58.7,0-106.3-47.7-106.3-106.5,0-58.8,47.7-106.5,106.5-106.5,58.8,0,106.5,47.7,106.5,106.5,0,58.8-47.8,106.5-106.6,106.5Z"/>
  <path d="M201.9,463.5c-48.1-1.8-90.3-9.6-120.2-20.2-17.3-6.2-27.8-13.3-33.2-16.9l-1.5-1.4v-69.5c14.2,5.3,28.8,9.8,44.2,13.6,25.5,6.3,54.4,10.8,85,13.1-.2-3.1-.3-6.3-.3-9.5,0-13.2,1.5-26.1,4.3-38.5-28.6-2.3-54.8-6.6-77.6-11.6-23.2-5.7-41.5-13.5-54.8-19.9v-75.1c13.3,5.3,27.9,9.8,43.3,13.6,37.6,9.2,82.4,14.6,130.3,14.8,31.5-34.1,76.5-55.5,126.6-55.5s71.6,11.8,99.7,31.8V79.8C448,35.7,347.7-.2,224-.2S0,35.7,0,79.8v352c0,44.2,100.3,80,224,80s15-.1,22.4-.4c-17.7-13-32.8-29.3-44.4-48ZM48,85.9l.6-.5c5.3-4.5,15.9-10.7,33.2-16.9,34.2-12.2,84.5-20.6,142.2-20.6s108.1,8.5,142.2,20.6c17.3,6.2,27.9,12.4,33.2,16.9l.6.5v88.7c-13.3,6.4-31.6,14.2-54.8,19.9-33.9,7.5-75.7,13.4-121.2,13.4s-87.3-5.9-121.2-13.4c-23.2-5.7-41.5-13.5-54.8-19.9v-88.7ZM45.9,423.7s0-.8.2.2l-.2-.2ZM45.9,88s0,0,.2-.2l-.2.2Z"/>
</svg>