<?xml version="1.0" encoding="utf-8"?>
<!-- Generator: Adobe Illustrator 27.8.1, SVG Export Plug-In . SVG Version: 6.00 Build 0)  -->
<svg version="1.1" id="Layer_1" xmlns="http://www.w3.org/2000/svg" xmlns:xlink="http://www.w3.org/1999/xlink" x="0px" y="0px"
	 viewBox="0 0 768.4 721.6" style="enable-background:new 0 0 768.4 721.6;" xml:space="preserve">
<path d="M267.2,243c-82.6,0-171.4,21.5-171.4,68.7v102.7c0,47.2,88.8,68.7,171.4,68.7s171.4-21.5,171.4-68.7V311.7
	C438.6,264.5,349.8,243,267.2,243z M130.5,355.2c31.1,15.9,81.3,25.3,136.7,25.3s105.5-9.3,136.7-25.3v59.2c0,8.7-47,34-136.7,34
	s-136.7-25.3-136.7-34L130.5,355.2z M130.5,311.8c0-8.7,47-34,136.7-34s136.7,25.3,136.7,34c0,8.7-47,34-136.7,34
	S130.6,320.4,130.5,311.8L130.5,311.8z"/>
<path d="M266.2,38.1c-37.8,0-68.4,30.6-68.4,68.4c0,31.7,21.6,58.3,50.8,66.1l0.5,0.1V209c0,9.4,7.6,17.1,17.1,17.1
	c9.4,0,17.1-7.6,17.1-17.1l0,0v-36.4c29.7-7.9,51.2-34.5,51.2-66.2C334.5,68.7,303.9,38.1,266.2,38.1L266.2,38.1L266.2,38.1z
	 M300.5,106.4c0,18.9-15.4,34.3-34.3,34.3c-18.9,0-34.3-15.4-34.3-34.3s15.4-34.3,34.3-34.3l0,0C285.1,72.1,300.5,87.5,300.5,106.4
	C300.5,106.4,300.5,106.4,300.5,106.4L300.5,106.4L300.5,106.4z"/>
<path d="M174.6,509.5c-2.3-3.9-5.9-6.8-10.2-8l-0.1,0c-1.3-0.4-2.9-0.6-4.5-0.6c-3.1,0-6.1,0.8-8.6,2.3l0.1,0l-31.7,18.4
	c-12.3-12.3-29.2-19.9-48-19.9c-37.4,0-67.7,30.3-67.7,67.7c0,37.4,30.3,67.7,67.7,67.7s67.7-30.3,67.7-67.7
	c0-6.5-0.9-12.8-2.6-18.8l0.1,0.5l31.5-18.2c5.1-3,8.6-8.5,8.6-14.8C176.8,514.9,176,511.9,174.6,509.5L174.6,509.5L174.6,509.5z
	 M104,578.1L104,578.1c-4.1,14.7-17.3,25.3-33,25.4h0c0,0-0.1,0-0.1,0c-18.9,0-34.3-15.3-34.3-34.3c0-3.2,0.4-6.2,1.2-9.1l-0.1,0.2
	c2.4-9,8.2-16.3,15.8-20.7l0.2-0.1c4.9-2.9,10.8-4.6,17-4.6c0,0,0,0,0.1,0h0c12.2,0,23,6.4,29.1,16.1l0.1,0.1l0.5,1
	c2.9,4.9,4.6,10.8,4.6,17c0,3.2-0.4,6.2-1.2,9.1L104,578.1L104,578.1z"/>
<path id="pencil-solid_00000147193965864374209110000013986726564391573392_" d="M689.6,452.6l-8.9,8.9L663,479.2l-160.7,161
	c-5.2,5.2-11.6,9.1-18.6,11.2L383,681c-10,2.9-20.5-2.9-23.4-12.9c-1-3.4-1-7.1,0-10.5l29.6-100.7c2.1-7.1,5.9-13.5,11.2-18.6
	l160.8-161l17.7-17.7l8.9-8.9l26.6,26.6l48.8,48.8l26.6,26.6L689.6,452.6z M434.1,557.5l-7.5,7.5c-0.7,0.8-1.3,1.7-1.6,2.7
	L405.3,635l67.5-19.9c1-0.2,1.9-0.7,2.7-1.4l7.5-7.5h-36.4c-6.9,0-12.5-5.6-12.6-12.6L434.1,557.5z M714.6,294.8l30.9,30.9
	c19.6,19.6,19.6,51.4,0,71l0,0l-11.4,11.4l-17.7,17.7l-8.9,8.9l-26.6-26.6l-48.8-48.8l-26.7-26.6l8.9-8.9l17.7-17.7l11.4-11.4
	c19.6-19.6,51.4-19.6,71,0C714.5,294.8,714.5,294.8,714.6,294.8L714.6,294.8z"/>
</svg>
