<?xml version="1.0" encoding="utf-8"?>
<!-- Generator: Adobe Illustrator 27.8.1, SVG Export Plug-In . SVG Version: 6.00 Build 0)  -->
<svg version="1.1" id="Layer_1" xmlns="http://www.w3.org/2000/svg" xmlns:xlink="http://www.w3.org/1999/xlink" x="0px" y="0px"
	 viewBox="0 0 768.4 721.6" style="enable-background:new 0 0 768.4 721.6;" xml:space="preserve">
<path id="add_00000100384615395358597790000011650932308313171618_" d="M764.9,151.7H634.3V21h-60.2v130.7H444.3v60.1h129.9v129.9
	h60.2V211.8h130.7L764.9,151.7z"/>
<path d="M255.5,320.9c-79.5,0-165.1,20.7-165.1,66.2v98.9c0,45.5,85.5,66.2,165.1,66.2s165.1-20.7,165.1-66.2v-98.9
	C420.6,341.6,335.1,320.9,255.5,320.9z M123.9,428.9c30,15.4,78.3,24.3,131.6,24.3s101.7-9,131.6-24.3v57.1
	c0,8.4-45.3,32.7-131.6,32.7s-131.6-24.3-131.6-32.7L123.9,428.9z M123.9,387.1c0-8.4,45.3-32.7,131.6-32.7s131.6,24.3,131.6,32.7
	s-45.3,32.7-131.6,32.7S123.9,395.4,123.9,387.1L123.9,387.1z"/>
<path d="M254.6,123.4c-36.4,0-65.8,29.5-65.8,65.9c0,30.5,20.8,56.2,49,63.7l0.5,0.1v35.1c0,9.1,7.4,16.4,16.4,16.4
	c9.1,0,16.4-7.4,16.4-16.4l0,0v-35.1c28.6-7.6,49.3-33.3,49.3-63.8C320.3,153,290.9,123.5,254.6,123.4L254.6,123.4L254.6,123.4z
	 M287.6,189.3c0,18.2-14.8,33-33,33c-18.2,0-33-14.8-33-33s14.8-33,33-33l0,0C272.8,156.2,287.6,171,287.6,189.3
	C287.6,189.3,287.6,189.3,287.6,189.3L287.6,189.3L287.6,189.3z"/>
<path d="M166.3,577.5c-2.2-3.7-5.7-6.5-9.9-7.7l-0.1,0c-1.3-0.4-2.8-0.6-4.3-0.6c-3,0-5.8,0.8-8.3,2.2l0.1,0l-30.5,17.7
	c-11.8-11.9-28.2-19.2-46.2-19.2c-36,0-65.2,29.2-65.2,65.2c0,36,29.2,65.2,65.2,65.2s65.2-29.2,65.2-65.2c0-6.3-0.9-12.3-2.5-18.1
	l0.1,0.5l30.4-17.5c5-2.9,8.2-8.2,8.2-14.3C168.5,582.7,167.7,579.9,166.3,577.5L166.3,577.5L166.3,577.5z M98.3,643.6L98.3,643.6
	c-3.9,14.2-16.7,24.4-31.8,24.5h0c0,0,0,0-0.1,0c-18.2,0-33-14.8-33-33c0-3,0.4-6,1.2-8.8l-0.1,0.2c2.4-8.6,7.9-15.7,15.3-20
	l0.2-0.1c4.7-2.8,10.4-4.5,16.4-4.5c0,0,0,0,0.1,0h0c11.8,0,22.1,6.2,28,15.5l0.1,0.1l0.5,1c2.8,4.7,4.4,10.4,4.4,16.4
	c0,3-0.4,6-1.2,8.8L98.3,643.6L98.3,643.6z"/>
<path d="M477.6,578c-9.4-5.5-20.7-8.7-32.8-8.7c-18.4,0-35.1,7.6-47,19.8l0,0l-30.5-17.7c-2.4-1.4-5.2-2.2-8.2-2.2
	c-9.1,0-16.4,7.4-16.4,16.4c0,6.1,3.3,11.4,8.2,14.2l0.1,0l30.4,17.5c-1.5,5.3-2.4,11.4-2.4,17.7c0,6.1,0.8,11.9,2.3,17.5l-0.1-0.5
	c7.8,28.3,33.3,48.8,63.6,48.8h0c0,0,0,0,0,0c36.4,0,65.9-29.5,65.9-65.9c0-24.3-13.1-45.5-32.7-56.9L477.6,578L477.6,578z
	 M473.3,651.6c-5.8,9.9-16.4,16.5-28.6,16.5c-15.2,0-28-10.2-31.8-24.2l-0.1-0.2c-0.7-2.6-1.2-5.5-1.2-8.6c0-5.3,1.3-10.2,3.5-14.6
	l-0.1,0.2l1.6,0v-2.9c5.9-9.4,16.2-15.6,28-15.6c6.1,0,11.8,1.7,16.7,4.6l-0.2-0.1c9.9,5.8,16.5,16.4,16.5,28.6
	c0,6.1-1.6,11.8-4.5,16.7L473.3,651.6L473.3,651.6z"/>
</svg>
