<?xml version="1.0" encoding="UTF-8"?>
<svg id="Layer_1" data-name="Layer 1" xmlns="http://www.w3.org/2000/svg" viewBox="0 0 391.35 498.08">
  <path d="M195.67,0C101.41,0,0,24.79,0,79.23v339.63c0,54.44,101.41,79.23,195.67,79.23s195.67-24.79,195.67-79.23V79.23c0-54.44-101.4-79.23-195.67-79.23ZM39.63,129.3c35.54,18.39,92.87,29.12,156.04,29.12s120.5-10.76,156.04-29.12v289.56c0,10.09-53.67,39.2-156.04,39.2s-156.04-29.12-156.04-39.2V129.3ZM39.63,79.24c0-10.08,53.67-39.2,156.04-39.2s156.04,29.12,156.04,39.2-53.67,39.2-156.04,39.2S39.63,89.27,39.63,79.24Z"/>
</svg>