<?xml version="1.0" encoding="UTF-8"?>
<svg id="Layer_1" data-name="Layer 1" xmlns="http://www.w3.org/2000/svg" viewBox="0 0 552.53 597.59">
  <path d="M102.8,322.6c-23.16-5.7-41.52-13.5-54.8-19.9v-75.1c13.32,5.3,27.93,9.8,43.31,13.6,38.19,9.4,83.89,14.8,132.69,14.8,31.71,0,62.1-2.29,89.98-6.47,8.91-26.68,31.12-45.67,57.04-45.67h57.95c6.64,0,13.03,1.26,19.02,3.56v-127.43C448,35.82,347.7,0,224,0S0,35.82,0,80v352c0,44.2,100.3,80,224,80,10.65,0,21.13-.27,31.38-.79v-48.1c-10.43.58-21.2.88-32.28.88-56.9,0-107.2-8.5-141.35-20.6-17.27-6.2-27.84-13.3-33.18-16.9l-1.47-1.4v-69.5c14.22,5.3,28.83,9.8,44.21,13.6,38.19,9.4,83.89,14.8,131.79,14.8,25.19,0,49.33-1.4,72-3.99v-48.67c-22.11,2.86-46.04,4.66-71.1,4.66-45.5,0-87.3-5.9-121.2-13.4ZM48,86.03l.57-.49c5.34-4.51,15.92-10.74,33.18-16.9,34.15-12.19,84.45-20.64,142.25-20.64s108.1,8.45,142.2,20.64c17.3,6.16,27.9,12.39,33.2,16.9l.6.49v88.67c-13.3,6.4-31.6,14.2-54.8,19.9-33.9,7.5-75.7,13.4-121.2,13.4s-87.3-5.9-121.2-13.4c-23.16-5.7-41.52-13.5-54.8-19.9v-88.67ZM45.94,423.9s.06-.8.16.2l-.16-.2ZM45.94,88.11s.04-.07.16-.21l-.16.21Z"/>
  <path d="M531.6,401.1h-17.51v-79.88c0-39.44-27.48-71.62-61.23-71.62h-57.95c-33.75,0-61.23,32.18-61.23,71.62v79.88h-17.66c-11.53,0-20.93,9.4-20.93,20.93v154.63c.14,11.53,9.4,20.79,20.93,20.93h215.57c11.53-.14,20.79-9.4,20.93-20.93v-154.63c0-11.53-9.4-20.93-20.93-20.93ZM401.75,293.03h43.71c17.66,0,31.61,16.8,31.61,36.88v71.19h-106.93v-71.19c0-20.65,14.38-36.88,31.61-36.88Z"/>
</svg>