<?xml version="1.0" encoding="UTF-8"?>
<svg id="Layer_1" xmlns="http://www.w3.org/2000/svg" version="1.1" viewBox="0 0 512 600">
  <!-- Generator: Adobe Illustrator 29.5.0, SVG Export Plug-In . SVG Version: 2.1.0 Build 137)  -->
  <path d="M40,92c-13.3,0-24,10.7-24,24v48c0,13.3,10.7,24,24,24h48c13.3,0,24-10.7,24-24v-48c0-13.3-10.7-24-24-24h-48ZM16,276v48c0,13.3,10.7,24,24,24h48c13.3,0,24-10.7,24-24v-48c0-13.3-10.7-24-24-24h-48c-13.3,0-24,10.7-24,24ZM40,412c-13.3,0-24,10.7-24,24v48c0,13.3,10.7,24,24,24h48c13.3,0,24-10.7,24-24v-48c0-13.3-10.7-24-24-24h-48ZM211.1,357.4h202v-116h-202M211.1,520h302v-116H211.1M211.1,195h102v-116h-102"/>
  <rect x="160" width="64" height="600"/>
</svg>