<?xml version="1.0" encoding="UTF-8"?>
<svg id="Layer_1" xmlns="http://www.w3.org/2000/svg" version="1.1" viewBox="0 0 673.3 703.7">
  <!-- Generator: Adobe Illustrator 29.4.0, SVG Export Plug-In . SVG Version: 2.1.0 Build 152)  -->
  <path d="M224,703.7c-123.7,0-224-35.8-224-80v-352c0-44.2,100.3-80,224-80s224,35.8,224,80v352c0,44.2-100.3,80-224,80ZM400,277.7l-.6-.5c-5.3-4.5-15.9-10.7-33.2-16.9-34.1-12.2-84.4-20.6-142.2-20.6s-108.1,8.5-142.2,20.6c-17.3,6.2-27.8,12.4-33.2,16.9l-.6.5v88.7c13.3,6.4,31.6,14.2,54.8,19.9,33.9,7.5,75.7,13.4,121.2,13.4s87.3-5.9,121.2-13.4c23.2-5.7,41.5-13.5,54.8-19.9v-88.7ZM400,419.3c-13.3,5.3-27.9,9.8-43.3,13.6-38.2,9.4-83.9,14.8-132.7,14.8s-94.5-5.4-132.7-14.8c-15.4-3.8-30-8.3-43.3-13.6v75.1c13.3,6.4,31.6,14.2,54.8,19.9,33.9,7.5,75.7,13.4,121.2,13.4s87.3-5.9,121.2-13.4c23.2-5.7,41.5-13.5,54.8-19.9v-75.1ZM48.6,618.2c5.3,3.6,15.9,10.7,33.2,16.9,34.2,12.1,84.4,20.6,141.4,20.6s109-8.5,143.1-20.6c17.3-6.2,27.9-13.3,33.2-16.9l.6-1.4v-69.5c-13.3,5.3-27.9,9.8-43.3,13.6-38.2,9.4-83.9,14.8-133.6,14.8s-93.6-5.4-131.8-14.8c-15.4-3.8-30-8.3-44.2-13.6v69.5l1.5,1.4ZM402,615.6v.2c0-1,.1-.2.1-.2h-.1ZM46.1,615.8c0-1-.1-.2-.2-.2l.2.2ZM46.1,279.6c-.1.1-.2.2-.2.2l.2-.2ZM402.1,279.8s-.1,0-.2-.2l.2.2Z"/>
  <path id="add" d="M673.1,100.1h-96V4h-44.2v96.1h-95.4v44.2h95.5v95.5h44.2v-95.5h96.1v-44.2Z"/>
</svg>