<?xml version="1.0" encoding="UTF-8"?>
<svg id="Layer_1" data-name="Layer 1" xmlns="http://www.w3.org/2000/svg" viewBox="0 0 576 512">
  <path d="M496.33,12.89H82.04c-21.13,0-38.41,17.29-38.41,38.41v304.55c0,20.46,16.58,37.04,37.04,37.04h122.09l-8.23,68.59h-21.23c-4.95,0-8.95,4.01-8.95,8.95v20.5c0,4.95,4.01,8.95,8.95,8.95h233.14c4.95,0,8.95-4.01,8.95-8.95v-20.5c0-4.95-4.01-8.95-8.95-8.95h-19.85l-9.6-68.59h119.35c20.46,0,37.04-16.58,37.04-37.04V49.93c0-20.46-16.58-37.04-37.04-37.04ZM501.82,299.6H73.81l-1.37-96.94V51.3c0-4.12,4.12-8.23,8.23-8.23h412.92c4.12,0,8.23,4.12,8.23,8.23v248.3Z"/>
</svg>