<!-- Generated by IcoMoon.io -->
<svg version="1.1" xmlns="http://www.w3.org/2000/svg" width="250" height="250" viewBox="0 0 250 250">
<title>er-diagram</title>
<path d="M241.198 92.761h-80.511c-4.876 0.097-8.792 4.073-8.792 8.963 0 0.001 0 0.001 0 0.002v0 14.309h-20.343v-83.786c0.001-0.051 0.002-0.112 0.002-0.172 0-4.856-3.937-8.792-8.792-8.792-0.001 0-0.001 0-0.002 0h-24.653v-14.309c0.001-0.051 0.002-0.112 0.002-0.172 0-4.856-3.937-8.792-8.792-8.792-0.001 0-0.001 0-0.002 0h-80.511c-0 0-0.001 0-0.002 0-4.856 0-8.792 3.937-8.792 8.792 0 0.061 0.001 0.121 0.002 0.181v-0.009 47.065c-0.001 0.051-0.002 0.112-0.002 0.172 0 4.856 3.937 8.792 8.792 8.792 0.001 0 0.001 0 0.002 0h80.511c0 0 0.001 0 0.002 0 4.856 0 8.792-3.937 8.792-8.792 0-0.061-0.001-0.121-0.002-0.181v0.009-14.999h15.861v74.994h-15.861v-14.309c0-0 0-0.001 0-0.002 0-4.89-3.916-8.866-8.783-8.963h-80.52c-4.876 0.097-8.792 4.073-8.792 8.963 0 0.001 0 0.001 0 0.002v0 46.548c0 0 0 0.001 0 0.002 0 4.89 3.916 8.866 8.783 8.963h80.52c4.876-0.097 8.792-4.073 8.792-8.963 0-0.001 0-0.001 0-0.002v0-14.309h15.861v74.994h-15.861v-14.999c0.001-0.051 0.002-0.112 0.002-0.172 0-4.856-3.937-8.792-8.792-8.792-0.001 0-0.001 0-0.002 0h-80.511c-0 0-0.001 0-0.002 0-4.856 0-8.792 3.937-8.792 8.792 0 0.061 0.001 0.121 0.002 0.181v-0.009 46.375c-0.001 0.051-0.002 0.112-0.002 0.172 0 4.856 3.937 8.792 8.792 8.792 0.001 0 0.001 0 0.002 0h80.511c0 0 0.001 0 0.002 0 4.856 0 8.792-3.937 8.792-8.792 0-0.061-0.001-0.121-0.002-0.181v0.009-13.62h24.653c0 0 0.001 0 0.002 0 4.856 0 8.792-3.937 8.792-8.792 0-0.061-0.001-0.121-0.002-0.181v0.009-83.786h20.343v14.309c0 0 0 0.001 0 0.002 0 4.89 3.916 8.866 8.783 8.963h80.52c4.876-0.097 8.792-4.073 8.792-8.963 0-0.001 0-0.001 0-0.002v0-46.548c0-0 0-0.001 0-0.002 0-4.89-3.916-8.866-8.783-8.963h-0.009zM232.405 110.001v28.618h-62.926v-27.929zM80.521 17.94v28.446h-62.926v-28.446zM80.521 110.691v28.618h-62.926v-28.618zM80.521 203.614v28.446h-62.926v-28.446z"></path>
</svg>
