<!-- Generated by IcoMoon.io -->
<svg version="1.1" xmlns="http://www.w3.org/2000/svg" width="250" height="250" viewBox="0 0 250 250">
<title>disconnected</title>
<path d="M236.592 13.082c-1.344-1.448-3.259-2.35-5.384-2.35s-4.039 0.903-5.379 2.346l-0.004 0.004-22.514 22.514c-6.948-4.827-15.561-7.712-24.848-7.712-12.077 0-23.014 4.878-30.949 12.771l-30.996 30.833 61.995 61.995 30.834-30.997c7.885-7.907 12.76-18.82 12.76-30.871 0-9.465-3.008-18.228-8.119-25.384l0.090 0.133 22.514-22.514c1.365-1.384 2.208-3.285 2.208-5.384s-0.843-4-2.209-5.385l0.001 0.001zM198.579 92.371l-20.067 19.578-40.46-40.46 19.578-20.067c5.24-5.24 12.479-8.481 20.475-8.481 15.992 0 28.956 12.964 28.956 28.956 0 7.996-3.241 15.234-8.481 20.475v0z"></path>
<path d="M138.378 150.94c1.024-1.291 1.642-2.944 1.642-4.742 0-4.235-3.433-7.668-7.668-7.668-1.797 0-3.45 0.618-4.758 1.654l0.016-0.012-15.499 15.336v0.979l-18.598-18.109h0.979l15.336-15.336c1.024-1.291 1.642-2.944 1.642-4.742 0-4.235-3.433-7.668-7.668-7.668-1.797 0-3.45 0.618-4.758 1.654l0.016-0.012-15.336 15.336v0.979l-11.583-11.42-30.834 30.997c-7.885 7.907-12.76 18.82-12.76 30.871 0 9.465 3.008 18.228 8.119 25.384l-0.090-0.133-23.167 21.862c-1.789 1.417-2.926 3.589-2.926 6.026 0 4.235 3.433 7.668 7.668 7.668 2.437 0 4.609-1.137 6.014-2.91l0.012-0.016 22.514-22.514c6.942 4.886 15.573 7.809 24.887 7.809 12.082 0 23.016-4.919 30.906-12.864l0.003-0.003 30.997-30.834-11.42-11.583s0 0 0 0zM92.371 198.579c-5.24 5.24-12.479 8.481-20.475 8.481-15.992 0-28.956-12.964-28.956-28.956 0-7.996 3.241-15.234 8.481-20.475v0l20.067-19.578 40.46 40.46z"></path>
</svg>
