<?xml version="1.0" encoding="utf-8"?>
<!-- Generator: Adobe Illustrator 22.0.1, SVG Export Plug-In . SVG Version: 6.00 Build 0)  -->
<svg version="1.1" id="Layer_1" xmlns="http://www.w3.org/2000/svg" xmlns:xlink="http://www.w3.org/1999/xlink" x="0px" y="0px"
	 viewBox="0 0 48 48" style="enable-background:new 0 0 48 48;" xml:space="preserve">
<title>doctor</title>
<ellipse transform="matrix(0.7071 -0.7071 0.7071 0.7071 -2.8885 21.0866)" cx="24" cy="14" rx="13.5" ry="13.5"/>
<g>
	<path d="M13.8,39.7c0,1.3,1.1,2.3,2.3,2.3s2.3-1,2.3-2.3c0-1.3-1.1-2.3-2.3-2.3C14.8,37.4,13.8,38.5,13.8,39.7z"/>
	<path d="M47.8,44c-2.2-6.5-7-11.7-13.1-14.7v2.3c3.6,0.6,6.1,3.8,6.1,7.3v3.9c0,0.8-0.5,1.3-1.3,1.5L36.4,45
		c-0.4,0.1-0.9-0.2-0.9-0.5l-0.3-1.5c-0.1-0.4,0.2-0.8,0.6-0.9l1.8-0.3V39c0-5.9-9.3-6.1-9.3,0.2v2.5l1.8,0.3
		c0.4,0.1,0.6,0.4,0.6,0.9l-0.3,1.5c-0.1,0.4-0.5,0.6-0.9,0.5l-3-0.4c-0.8-0.1-1.3-0.8-1.3-1.5v-4.1c0-3.7,2.7-6.7,6.1-7.3V28
		c-0.1,0-0.2-0.1-0.3-0.1c-2.2,1-4.5,1.6-7.1,1.6c-2.3,0-4.5-0.5-6.4-1.4v6.4c2.3,0.6,3.9,2.7,3.9,5.1c0,2.9-2.4,5.3-5.4,5.3
		c-3,0-5.4-2.4-5.4-5.3c0-2.4,1.6-4.4,3.9-5.1v-6C7.9,31.3,2.6,36.9,0.2,43.9C-0.6,46,0.9,48,3,48h41.8C47,48,48.5,46,47.8,44z"/>
</g>
</svg>
