<?xml version="1.0" encoding="UTF-8"?>
<svg id="Layer_1" data-name="Layer 1" xmlns="http://www.w3.org/2000/svg" viewBox="0 0 89.1 63">
  <circle cx="44.7" cy="18.9" r="16.3"/>
  <circle cx="73.8" cy="29.5" r="9.5"/>
  <circle cx="15.6" cy="29.5" r="9.5"/>
  <path d="M87.9,50.8c-1.5-5.4-5.1-9.5-9.6-11.3-2.7,2.3-6.4,2.3-9.2,0-1.2.5-2.4,1.1-3.4,2,2.9,3.3,5.1,7.4,6.4,12v.1h14c1.4,0,2.2-1.4,1.8-2.8Z"/>
  <path d="M1.2,50.8c1.5-5.4,5.1-9.5,9.6-11.3,2.7,2.3,6.4,2.3,9.2,0,1.2.5,2.4,1.1,3.4,2-2.9,3.3-5.1,7.4-6.4,12v.1H3c-1.3,0-2.2-1.4-1.8-2.8Z"/>
  <g>
    <path d="M33.28,49.76c0,1.3,1.1,2.3,2.3,2.3s2.3-1,2.3-2.3-1.1-2.3-2.3-2.3c-1.3,0-2.3,1.1-2.3,2.3Z"/>
    <path d="M68.7,55.2c-2.3-8.05-7.34-14.6-13.8-18.02v4.36c3.6.6,6.1,3.8,6.1,7.3v3.9c0,.8-.5,1.3-1.3,1.5l-3.1.7c-.4.1-.9-.2-.9-.5l-.3-1.5c-.1-.4.2-.8.6-.9l1.8-.3v-2.8c0-5.9-9.3-6.1-9.3.2v2.5l1.8.3c.4.1.6.4.6.9l-.3,1.5c-.1.4-.5.6-.9.5l-3-.4c-.8-.1-1.3-.8-1.3-1.5v-4.1c0-3.7,2.7-6.7,6.1-7.3v-4.92c-4.39,3.17-10.05,3.05-14.52-.34v8.28c2.3.6,3.9,2.7,3.9,5.1,0,2.9-2.4,5.3-5.4,5.3s-5.4-2.4-5.4-5.3c0-2.4,1.6-4.4,3.9-5.1v-7.34c-6.28,3.41-11.29,9.86-13.58,17.78-.8,2.6.7,5,2.8,5h42.4c2.4,0,3.8-2.4,3.1-4.8Z"/>
  </g>
</svg>