<?xml version="1.0" encoding="UTF-8"?><svg id="a" xmlns="http://www.w3.org/2000/svg" viewBox="0 0 449.5 478.65"><path d="M385.5,269.15v144H65.5l-1.5,.38v-142.88c0-8.84-7.16-16-16-16H16c-8.84,0-16,7.16-16,16v160c0,26.51,21.49,48,48,48H400c13.1,.01,25.63-5.35,34.67-14.83,9.48-9.04,14.84-21.57,14.83-34.67v-160c0-8.84-7.16-16-16-16h-32c-8.84,0-16,7.16-16,16Z"/><path d="M242.53,330.14l90.51-90.51c15.11-15.11,4.34-41-17-41h-50.53l.06-174.63c0-13.24-10.71-23.97-23.95-24h-32.09c-13.25,0-24,10.75-24,24v.08l.05,174.57h-50.49c-21.21,0-32.17,25.81-17,41l90.51,90.51c9.38,9.36,24.56,9.35,33.93-.02Z"/></svg>