<?xml version="1.0" encoding="UTF-8"?>
<svg id="Layer_1" xmlns="http://www.w3.org/2000/svg" version="1.1" viewBox="0 0 89.5 89.8">
  <!-- Generator: Adobe Illustrator 29.5.0, SVG Export Plug-In . SVG Version: 2.1.0 Build 137)  -->
  <path d="M44.5,0C3.6,0-15.8,52.7,15.4,79.3c31.7,27,81.2-2.1,73.3-42.9C84.4,15.4,66,.2,44.5,0ZM50.8,6.9c-.6,1.9-3.7.6-5,.6,1.1-.4,7.3-2.9,3.8-.8l1.2.2c-.6,1.8-.4,0,0,0ZM35.1,7.7c.2.2,6.7-1.7,7.4-1.9,0,.3-7.8,1.6-3.9,3-1.3-.2-3.3-.7-4.2.5.2.1,2.4,3.3.4,2.6-.4-.5-.3-.9.2-1.3-.6-.7-1.6-.8-2.3-.2,0,0,0,0,0,0,3,0-1.8.9-1.8.9-1.7.4-3.8.7-5-.3,1.2-1.2,5.5.6,5.7-1.6-1.3-.3-1.2-.7-2.1-1.1,1.8-.7,3.7-1.3,5.6-1.8-.3.3-.4.8,0,1.1,0,0,0,0,0,0,.7.7-.4-.3,0,0ZM4.9,45c0-6,1.4-12,4.1-17.4.7-1.5,2.1-4.5,3.4-5.6,2.1-1.8,2-1.8,3.8.5,2.5,3,.9,5.8,2,9.1.3,1,8.3,10.2,8.1,10.3s-2.2-4.3-2.6-4.8c3,.7,4.2,5.6,6.3,7.4s4.7,1.7,7,2.6c2.3,1,4.4,2.4,6.3,4,.7.5,1.6-.6,2.2.8s-1.3,2.9-1.6,4.2c-1.5,5.5,5.2,7.5,5.9,12.3.6,4.5-1.2,11.8-2.9,15.8.6,0,.8.1.7.6-22.6,2.1-42.6-17.6-42.6-39.9ZM52,83.9c-2.4-2.4,5.9-5.8,5.2-8,.6,2.5,6.3-6.1,5.7-5.5.8-1.3,2.6-1.2,3.5-2.4,1.3-1.7,1.2-3,2-5,1.3-2.9,3.7-3.3-.3-5.4-1-.5-5.3-1.9-5.7-.7-.3-.2-.6-.4-.8-.7.4,0,.9-.1,1.1-.5-.7.1-1.3.2-2,.2,1-4-6.7-7-10.7-6.7-1.4,0-3,1.3-4.2,1.3-4.7,0-2.2-1.3-3.9-3.5-.5-.3-1.1-.4-1.7-.4.3.9-1.2-2.3-.5-1.6-.8-.8,1.4-.7-.3-1.9-.5-.3-2,1.8-2.5,1.8-4.9,0-3.5-5.3,0-6.6,3.9-1.5,4,.5,6.7,2.2-.5-.3.9-4.2,1.3-4.7,1.4,0,4.6-9.3,8.5-7.7-.5.3-1,.7-1.5,1,.6-.8,7.2-2.2,8-2-1.3-.3-.2-2.7-2.5-2.3-.7.1-1.4,2.6-2.1,2.6-2.2.5-1.5-1.3-1.9-1.4-1.2-.2-1.8.4-3.3.8.5-3.7,7.8-.1,7.9-3.6,0-.6-2.5-2.8-3-3.2s-.5-1.7-1.1-2c-.4-.2-1.5.2-1.4.3s-.7.8-1.1.7c-.8-.3-1-1.3-1.6-1.6-.9-.4-3.1-2.1-4.2-1.1s1,5.1-.7,6.6-1,0-3.2-1.5c-3.4-2.4-7.9-1.5-3.6-6.2,1-.9,2-1.7,3.1-2.5.3-.2,1.4,0,2-.5.4-.3.2-1.7.5-1.9,3-1.5,7,1.6,2.4,4,2.7,0,4.3,2,6.8,2-.4-.3-.8-.7-1.2-1.1,0-.2,1.5.5,1.9.2,1-.6-1.9-1.6-1.5-2.6.7,0,2.4,2.5,2.9,0-.8-.5-3.7-1-3.4-2.5,1.8,1.3,3.6,2.7,5.3,4.2.8.7,1.8-.8,2.5.8.2.6-1.8,0-2.1.3,4.1,1.4,1,.8.2,2.9,2.6-.9,2,8.4,7.2,3.8,1.8-1.6,1.5-1.8,3.7-2.9,3.6-1.8,4-2.5,6.9.5,2.2,2.4,3.9,5.1,5.2,8,.5,1,1.7,2.8,1.7,4,0,.1-1,.9-1,1.2.2,4.2,3.8,4,1.7,7.8-1.7,3.2-5,4.8-3.9,9.2.7,2.7,3.8,3.8,4,5.9s-2.6,6.3-3.6,8c-5.9,10.2-15.9,17.4-27.4,19.8-.2-.2,15-2.9,0,0Z"/>
</svg>