<?xml version="1.0" encoding="utf-8"?>
<!-- Generator: Adobe Illustrator 25.2.3, SVG Export Plug-In . SVG Version: 6.00 Build 0)  -->
<svg version="1.1" id="Layer_1" xmlns="http://www.w3.org/2000/svg" xmlns:xlink="http://www.w3.org/1999/xlink" x="0px" y="0px"
	 viewBox="0 0 250 250" style="enable-background:new 0 0 250 250;" xml:space="preserve">
<path d="M125,212.5c-9.9,0-18-8.1-18-18s8.1-18,18-18c9.9,0,18,8.1,18,18C143,204.4,134.9,212.5,125,212.5L125,212.5z"/>
<path d="M125,143c-9.9,0-18-8.1-18-18s8.1-18,18-18c9.9,0,18,8.1,18,18S134.9,143,125,143z"/>
<path d="M125,73.5c-9.9,0-18-8.1-18-18s8.1-18,18-18c9.9,0,18,8.1,18,18S134.9,73.5,125,73.5z"/>
</svg>
