<!-- Generated by IcoMoon.io -->
<svg version="1.1" xmlns="http://www.w3.org/2000/svg" width="250" height="250" viewBox="0 0 250 250">
<title>ellipses</title>
<path d="M212.494 125c0 9.94-8.058 17.999-17.999 17.999s-17.999-8.058-17.999-17.999c0-9.94 8.058-17.999 17.999-17.999s17.999 8.058 17.999 17.999z"></path>
<path d="M142.999 125c0 9.94-8.058 17.999-17.999 17.999s-17.999-8.058-17.999-17.999c0-9.94 8.058-17.999 17.999-17.999s17.999 8.058 17.999 17.999z"></path>
<path d="M73.504 125c0 9.94-8.058 17.999-17.999 17.999s-17.999-8.058-17.999-17.999c0-9.94 8.058-17.999 17.999-17.999s17.999 8.058 17.999 17.999z"></path>
</svg>
