<svg id="Layer_1" data-name="Layer 1" xmlns="http://www.w3.org/2000/svg" viewBox="0 0 96.99 84.15"><title>empty</title><path d="M87.14,11.65a5.54,5.54,0,0,0-5-3.57H18a5.54,5.54,0,0,0-5,3.57L1.56,52.3V88.67a3.57,3.57,0,0,0,3.57,3.57H95a3.57,3.57,0,0,0,3.57-3.57V52.3ZM85.72,53.72H68.6s-2.14.18-2.14,3.57l0-.08a16.38,16.38,0,0,1-32.74,0l0,.08c0-3.39-2.14-3.56-2.14-3.56H14.4c-5.71,0-3.57-5-3.57-5l8.56-31.38A3.81,3.81,0,0,1,23,14.5H77.87a3.77,3.77,0,0,1,3.57,2.79l7.85,31.32S91.42,53.72,85.72,53.72Z" transform="translate(-1.56 -8.08)"/></svg>