<?xml version="1.0" encoding="UTF-8"?>
<svg id="Layer_1" data-name="Layer 1" xmlns="http://www.w3.org/2000/svg" viewBox="0 0 512 512">
  <path d="M487.1,136.7l-111.5-111.5c-10.8-10.8-25.5-16.9-40.8-16.9h-157.6c-15.3,0-30,6.1-40.8,16.9L24.9,136.7c-10.8,10.8-16.9,25.5-16.9,40.8v157.7c0,15.3,6.1,30,16.9,40.8l111.5,111.5c10.8,10.8,25.5,16.9,40.8,16.9h157.7c15.3,0,30-6.1,40.8-16.9l111.5-111.5c10.8-10.8,16.9-25.5,16.9-40.8v-157.7c-.1-15.3-6.2-30-17-40.8ZM373.31,335.23c2.89,2.89,2.89,6.51,0,9.4l-28.93,28.93c-2.89,2.89-6.51,2.89-9.4,0l-78.84-78.84-78.12,78.12c-2.89,2.89-6.51,2.89-9.4,0l-28.93-28.93c-2.89-2.89-2.89-6.51,0-9.4l78.12-78.12-78.12-78.12c-2.89-2.89-2.89-6.51,0-9.4l28.93-28.93c2.89-2.89,6.51-2.89,9.4,0l78.12,78.12,78.84-78.84c2.89-2.89,6.51-2.89,9.4,0l28.93,28.93c2.89,2.89,2.89,6.51,0,9.4l-78.84,78.84,78.84,78.84Z"/>
</svg>