<?xml version="1.0" encoding="UTF-8"?>
<svg id="Layer_1" data-name="Layer 1" xmlns="http://www.w3.org/2000/svg" viewBox="0 0 576 512">
  <path d="M568.08,389.83l-56.94-36.87c22.88-21.21,42.67-45.64,58.56-72.6,8.86-15.04,8.86-33.7,0-48.74h0c-56.39-95.69-161.55-159.64-281.35-159.64-55.25,0-107.36,13.61-153.01,37.64L45.89,51.7c-8.39-5.43-19.6-3.04-25.03,5.35l-10.92,16.86c-5.43,8.39-3.04,19.6,5.35,25.03l522.2,338.13c8.39,5.43,19.6,3.04,25.03-5.35l10.92-16.86c5.43-8.39,3.04-19.6-5.35-25.03h-.01ZM528.35,255.98c-15.58,26.45-35.58,50.07-58.99,69.92l-60.37-39.09c9.81-18.79,15.36-40.16,15.36-62.83,0-31.03-10.4-59.63-27.89-82.52,55.6,23.15,101.9,63.62,131.89,114.52h0ZM264.51,120.97c9.8,10.09,15.84,23.84,15.84,39.01,0,13.42-4.73,25.73-12.6,35.38l-84.88-54.96c25.52-10.33,52.96-17.02,81.64-19.42h0Z"/>
  <path d="M288.35,391.98c-102.56,0-192.09-54.7-240-136,11-18.67,24.21-35.94,39.25-51.47l-40.95-26.51c-15.01,16.42-28.33,34.37-39.66,53.61-8.86,15.04-8.86,33.7,0,48.74,56.39,95.68,161.54,159.63,281.35,159.63,44.25,0,86.48-8.73,125-24.54l-51.27-33.2c-23.48,6.35-48.2,9.74-73.74,9.74h.02Z"/>
  <path d="M321.43,355.92l-167.01-108.14c11.25,63.76,66.93,112.2,133.92,112.2,11.41,0,22.49-1.41,33.09-4.06Z"/>
</svg>