<?xml version="1.0" encoding="UTF-8"?>
<svg id="Layer_1" data-name="Layer 1" xmlns="http://www.w3.org/2000/svg" viewBox="0 0 576 512">
  <path d="M569.35,231.63c-56.38-95.68-161.54-159.63-281.35-159.63S63,135.99,6.65,231.63c-8.86,15.04-8.86,33.7,0,48.74,56.38,95.68,161.54,159.63,281.35,159.63s225-63.99,281.35-159.63c8.86-15.04,8.86-33.7,0-48.74h0ZM288,392c-102.56,0-192.09-54.7-240-136,44.16-74.93,123.68-127.27,216.16-135.01,9.8,10.09,15.84,23.84,15.84,39.01,0,30.93-25.07,56-56,56s-56-25.07-56-56v-.04c-10.21,19.09-16,40.89-16,64.04,0,75.11,60.89,136,136,136s136-60.89,136-136c0-31.03-10.4-59.63-27.89-82.51,55.6,23.15,101.9,63.62,131.89,114.51-47.91,81.3-137.44,136-240,136Z"/>
</svg>