<?xml version="1.0" encoding="utf-8"?>
<!-- Generator: Adobe Illustrator 22.0.1, SVG Export Plug-In . SVG Version: 6.00 Build 0)  -->
<svg version="1.1" id="Layer_1" xmlns="http://www.w3.org/2000/svg" xmlns:xlink="http://www.w3.org/1999/xlink" x="0px" y="0px"
	 viewBox="0 0 48 48" style="enable-background:new 0 0 48 48;" xml:space="preserve">
<title>fan</title>
<path d="M19.3,39.4v3c0,1.2,1.1,2.2,2.4,2.2H28c1.3,0,2.4-1,2.4-2.2v-3H19.3z"/>
<g>
	<path d="M36.6,24.5V6c0-1.7-0.8-2.4-1.7-2.4h-3.4c-1,0-1.7,0.7-1.7,2.4L29,23.5l4.1-0.1C34.4,23.4,35.5,23.8,36.6,24.5z"/>
	<path d="M35.4,34.8c0.4-0.3,0.7-0.5,0.9-0.7c0,0,0,0,0,0c0.1-0.1,0.1-0.2,0.2-0.3c0,0,0,0,0,0c0.2-0.3,0.3-0.7,0.3-1.3l0-2
		c0-2.5-2.1-5-4.7-5h-8.3c-0.6,0-1.2,0.5-1.2,1.1v0c0,1.8,1.6,3.9,3.5,3.9h2.6c0.7,0,1,0.2,1,0.6v1.1c0,0.1-0.1,0.3-0.2,0.4h0
		c-0.1,0.1-0.1,0.1-0.2,0.1c0,0,0,0,0,0c-0.1,0-0.1,0.1-0.2,0.1l-3.8-0.1c-0.2,0-0.3-0.1-0.5-0.2c-3-0.5-5.3-4-5.3-7.1v-0.1
		c0-1.1,0.9-2,2-2h5.3l0.5-6.8c0-0.6-0.9-1.1-2-1.1h-3.2c-1.1,0-2,0.5-2,1.1v1.2c-0.2-0.1-0.5-0.1-0.8-0.1h-4c-1.1,0-2,0.6-2,1.4
		v1.6c-0.2-0.1-0.3-0.1-0.5-0.1h-2.4c-0.7,0-1.2,0.6-1.2,1.4v7.8v0.3v2.1c0,2.4,1,2.3,2.8,3.9l0,0h0l2,1.8l2.4,0h0h14.9l0.8,0
		l2.6-2.5c0.1-0.1,0.3-0.2,0.4-0.3c0,0,0,0,0.1-0.1C35.2,34.9,35.3,34.8,35.4,34.8z"/>
</g>
</svg>
