<?xml version="1.0" encoding="utf-8"?>
<!-- Generator: Adobe Illustrator 26.5.2, SVG Export Plug-In . SVG Version: 6.00 Build 0)  -->
<svg version="1.1" id="Layer_1" xmlns="http://www.w3.org/2000/svg" xmlns:xlink="http://www.w3.org/1999/xlink" x="0px" y="0px"
	 viewBox="0 0 250 250" style="enable-background:new 0 0 250 250;" xml:space="preserve">
<path d="M195,10.7H53.8c-5.8,0-10.5,4.7-10.5,10.5V230c0,5.1,4.2,9.3,9.3,9.3h144.1c5.5,0,9.9-4.4,9.9-9.9V22.3
	C206.6,15.9,201.4,10.7,195,10.7L195,10.7z M190.1,223H59.9c-0.1,0-0.2-0.1-0.2-0.2v-28.7c0-0.1,0.1-0.2,0.2-0.2h130.2
	c0.1,0,0.2,0.1,0.2,0.2v28.7C190.3,222.9,190.2,223,190.1,223z M190.1,177.6H59.9c-0.1,0-0.2-0.1-0.2-0.2v-34.6
	c0-0.1,0.1-0.2,0.2-0.2h130.2c0.1,0,0.2,0.1,0.2,0.2v34.6C190.3,177.5,190.2,177.6,190.1,177.6z M190.1,126.3H59.9
	c-0.1,0-0.2-0.1-0.2-0.2V92.5c0-0.1,0.1-0.2,0.2-0.2h130.2c0.1,0,0.2,0.1,0.2,0.2v33.6C190.3,126.2,190.2,126.3,190.1,126.3z
	 M190.1,76H59.9c-0.1,0-0.2-0.1-0.2-0.2V43.6c0-0.1,0.1-0.2,0.2-0.2h130.2c0.1,0,0.2,0.1,0.2,0.2v32.3C190.3,75.9,190.2,76,190.1,76
	z"/>
</svg>
