<!-- Generated by IcoMoon.io -->
<svg version="1.1" xmlns="http://www.w3.org/2000/svg" width="250" height="250" viewBox="0 0 250 250">
<title>filters</title>
<path d="M207.972 48.719h28.371c0.539 0.114 1.158 0.178 1.793 0.178 5.026 0 9.1-4.074 9.1-9.1s-4.074-9.1-9.1-9.1c-0.635 0-1.254 0.065-1.852 0.188l0.059-0.010h-29.442zM145.877 30.876h-132.219c-0.539-0.114-1.158-0.178-1.793-0.178-5.026 0-9.1 4.074-9.1 9.1s4.074 9.1 9.1 9.1c0.635 0 1.254-0.065 1.852-0.188l-0.059 0.010h132.576z"></path>
<path d="M177.103 81.016c22.37-0 40.504-18.135 40.504-40.504s-18.134-40.504-40.504-40.504c-22.37 0-40.504 18.134-40.504 40.504 0 0.063 0 0.125 0 0.188v-0.010c0.101 22.293 18.197 40.326 40.504 40.326 0 0 0 0 0 0v0zM177.103 18.207c12.318 0 22.304 9.986 22.304 22.304s-9.986 22.304-22.304 22.304c-12.318 0-22.304-9.986-22.304-22.304v0c-0-0.053-0.001-0.116-0.001-0.178 0-12.318 9.986-22.304 22.304-22.304 0 0 0 0 0.001 0v0z"></path>
<path d="M207.972 217.696h28.371c0.539 0.114 1.158 0.178 1.793 0.178 5.026 0 9.1-4.074 9.1-9.1s-4.074-9.1-9.1-9.1c-0.635 0-1.254 0.065-1.852 0.188l0.059-0.010h-29.442zM145.877 199.853h-132.219c-0.539-0.114-1.158-0.178-1.793-0.178-5.026 0-9.1 4.074-9.1 9.1s4.074 9.1 9.1 9.1c0.635 0 1.254-0.065 1.852-0.188l-0.059 0.010h132.576z"></path>
<path d="M177.103 249.993c0.053 0 0.115 0 0.178 0 22.37 0 40.504-18.134 40.504-40.504s-18.134-40.504-40.504-40.504c-22.307 0-40.402 18.033-40.504 40.316v0.010c-0 0.053-0 0.116-0 0.179 0 22.307 18.033 40.403 40.317 40.504h0.010zM177.103 187.006c12.318 0 22.304 9.986 22.304 22.304s-9.986 22.304-22.304 22.304c-12.318 0-22.304-9.986-22.304-22.304v0c0.197-12.238 10.066-22.107 22.285-22.304l0.019-0z"></path>
<path d="M42.028 117.060h-28.371c-4.927 0-8.922 3.995-8.922 8.922s3.995 8.922 8.922 8.922v0h29.442zM104.123 134.903h132.219c4.927 0 8.922-3.995 8.922-8.922s-3.995-8.922-8.922-8.922v0h-132.576z"></path>
<path d="M72.897 84.585c-0.053-0-0.116-0-0.178-0-22.37 0-40.504 18.134-40.504 40.504s18.134 40.504 40.504 40.504c22.37 0 40.504-18.134 40.504-40.504v0c-0.1-22.267-18.073-40.303-40.307-40.504h-0.019zM72.897 147.572c-12.318-0-22.303-9.986-22.303-22.304s9.986-22.304 22.304-22.304c12.255 0 22.202 9.885 22.303 22.116v0.010c0 0.053 0.001 0.116 0.001 0.178 0 12.318-9.986 22.304-22.304 22.304-0 0-0 0-0.001 0v0z"></path>
</svg>
