<?xml version="1.0" encoding="UTF-8"?>
<svg id="Layer_1" xmlns="http://www.w3.org/2000/svg" version="1.1" viewBox="0 0 2448 1792">
  <!-- Generator: Adobe Illustrator 29.4.0, SVG Export Plug-In . SVG Version: 2.1.0 Build 152)  -->
  <circle cx="1035.2" cy="829.7" r="170.3"/>
  <circle cx="1446.6" cy="784.9" r="130.4"/>
  <path d="M1336.4,1209.7c-32.4-95.7-108.4-170.3-205.5-201.3-57.7,40.8-136.5,40.8-195.7,0-94.3,31-170.3,105.6-202.7,199.9-9.9,26.7,8.4,52.1,35.2,52.1h529.3c29.6,0,47.9-25.3,39.4-50.7Z"/>
  <path d="M1679.3,1072c-24.8-73.3-83-116.3-157.3-140-44.2,31.2-104.5,31.2-149.8,0-44.8,15.8-83.2,35-110.1,66.3,52.3,26,96.1,65.4,127.1,114l259.9-1.5c22.6,0,36.6-19.4,30.2-38.8h0Z"/>
  <path d="M384,309.7c0-114.7,93.3-207.9,207.9-207.9h429.2c62.1,0,121.5,24.7,165.4,68.6l139.4,139.4h513.7c114.7,0,207.9,93.3,207.9,207.9v831.8c0,114.7-93.3,207.9-207.9,207.9H591.9c-114.7,0-207.9-93.3-207.9-207.9V309.7ZM591.9,257.7c-28.6,0-52,23.4-52,52v1039.7c0,28.6,23.4,52,52,52h1247.7c28.6,0,52-23.4,52-52v-831.8c0-28.6-23.4-52-52-52h-524.4c-34.4,0-67.6-13.6-92-38l-146.9-147.2c-14.6-14.6-34.4-22.7-55.2-22.7h-429.2,0Z"/>
</svg>