<?xml version="1.0" encoding="UTF-8"?>
<svg id="Layer_1" xmlns="http://www.w3.org/2000/svg" version="1.1" viewBox="0 0 2448 1792">
  <!-- Generator: Adobe Illustrator 29.5.1, SVG Export Plug-In . SVG Version: 2.1.0 Build 141)  -->
  <path d="M591.9,101.7h429.2"/>
  <path d="M1839.6,309.8h-513.7l-139.4-139.4c-43.9-43.9-103.3-68.6-165.4-68.6h-429.2c-114.6,0-207.9,93.2-207.9,207.9h0v644.9c-141.1,44.9-240.3,137.6-240.3,297.5,5.1,96.5,53.3,185.7,131.2,242.8,12.3,9.4,29.9,7.1,39.3-5.1,5.3-6.9,7.1-15.8,4.9-24.2-42.2-134.8-14.8-224.5,64.9-276h0v159.9c0,114.6,93.2,207.9,207.9,207.9h1247.7c114.6,0,207.9-93.2,207.9-207.9v-831.8c0-114.6-93.2-207.9-207.9-207.9ZM1891.6,1349.4c0,28.6-23.4,52-52,52H591.9c-28.6,0-52-23.4-52-52v-209.4c25.1-3,51.8-4.7,80.1-5.1v138.4c0,20.9,16.8,37.9,37.7,37.9s17.9-3.2,24.8-9.1l277.2-239.4c15.8-13.6,17.6-37.5,4-53.3-1.2-1.4-2.6-2.8-4.1-4l-277.1-239.5c-15.8-13.6-39.7-11.8-53.3,4-5.9,6.9-9.2,15.7-9.1,24.8v126.1c-27.1.3-54,1.6-80.2,4V309.7c0-28.6,23.4-52,52-52h0,429.2c20.8,0,40.6,8.1,55.2,22.7l146.9,147.2c24.4,24.4,57.6,38,92,38h524.4c28.6,0,52,23.4,52,52v831.8Z"/>
</svg>