<?xml version="1.0" encoding="UTF-8"?>
<svg id="Layer_1" xmlns="http://www.w3.org/2000/svg" version="1.1" viewBox="0 0 2448 1792">
  <!-- Generator: Adobe Illustrator 29.4.0, SVG Export Plug-In . SVG Version: 2.1.0 Build 152)  -->
  <path d="M2278,879c-14.7-30.7-37-54.2-67-70.5s-63-24.5-99-24.5h-64.4v-266.4c0-114.7-93.3-207.9-207.9-207.9h-513.8l-139.4-139.4c-43.9-43.9-103.3-68.6-165.4-68.6h-429.2c-114.7,0-207.9,93.3-207.9,207.9v1011.7h0v6.7c0,61.3,22,114,66,158s96.7,66,158,66h1088c44.7,0,91.3-11.5,140-34.5s87.3-52.2,116-87.5l295-363c30.7-38.7,46-78.7,46-120s-5-46.7-15-68ZM591.9,257.7h429.2c20.8,0,40.6,8.1,55.2,22.7l146.9,147.2c24.4,24.4,57.5,38,92,38h524.4c28.6,0,52,23.4,52,52v266.4h-867.6c-45.3,0-92,11.5-140,34.5s-86.7,52.2-116,87.5l-228.1,280.7V309.7c0-28.6,23.4-52,52-52ZM2147,986l-294,363c-16.7,20.7-40.3,38.3-71,53s-59.3,22-86,22H608c-35.3,0-53-11.7-53-35s6-24,18-40l294-363c17.3-20.7,41.2-38.2,71.5-52.5s58.8-21.5,85.5-21.5h1088c35.3,0,53,11.7,53,35s-6,24.3-18,39Z"/>
</svg>