<?xml version="1.0" encoding="UTF-8"?>
<svg id="Layer_1" xmlns="http://www.w3.org/2000/svg" version="1.1" viewBox="0 0 2448 1792">
  <!-- Generator: Adobe Illustrator 29.4.0, SVG Export Plug-In . SVG Version: 2.1.0 Build 152)  -->
  <polygon points="2321.3 321.9 2036.1 321.9 2036.1 39.5 1905.8 39.5 1905.8 321.9 1626.1 321.9 1626.1 452.2 1905.8 452.2 1905.8 734.6 2036.1 734.6 2036.1 452.2 2321.3 452.2 2321.3 321.9"/>
  <path d="M1891.6,896v453.4c0,28.6-23.4,52-52,52H591.9c-28.6,0-52-23.4-52-52V309.7c0-28.6,23.4-52,52-52h429.2c20.8,0,40.6,8.1,55.2,22.7l146.9,147.2c24.4,24.4,57.5,38,92,38h167.3v-156h-156.6l-139.4-139.4c-43.9-43.9-103.3-68.6-165.4-68.6h-429.2c-114.7,0-207.9,93.3-207.9,207.9v1039.7c0,114.7,93.3,207.9,207.9,207.9h1247.7c114.7,0,207.9-93.3,207.9-207.9v-453.4h-156v.2Z"/>
</svg>