<?xml version="1.0" encoding="UTF-8"?>
<svg id="Layer_1" xmlns="http://www.w3.org/2000/svg" version="1.1" viewBox="0 0 2448 1792">
  <!-- Generator: Adobe Illustrator 29.4.0, SVG Export Plug-In . SVG Version: 2.1.0 Build 152)  -->
  <path d="M1471.7,1032.2v187.5c0,17.4-14,31.4-31.4,31.4h-151.8c-8.6,0-15.7-7.1-15.7-15.7v-146.6c0-8.6-7.1-15.7-15.7-15.7h-94.2c-8.6,0-15.7,7.1-15.7,15.7v146.6c0,8.6-7.1,15.7-15.7,15.7h-151.9c-17.4,0-31.4-14-31.4-31.4v-187.5c0-4.7,2.1-9.2,5.8-12.2l246-202.6c5.8-4.7,14.1-4.7,20,0l246,202.6c3.6,3,5.7,7.5,5.7,12.2h0ZM1581.1,952.5l-109.4-90.2v-181.2c0-8.6-7.1-15.7-15.7-15.7h-73.3c-8.6,0-15.7,7.1-15.7,15.7v95l-117.1-96.4c-23.2-19.1-56.7-19.1-79.8,0l-331.3,272.8c-6.7,5.5-7.6,15.4-2.1,22.1l33.4,40.6c5.5,6.7,15.4,7.6,22.1,2.1l307.8-253.5c5.8-4.7,14.1-4.7,20,0l307.8,253.5c6.7,5.5,16.6,4.6,22.1-2.1l33.4-40.6c5.5-6.8,4.5-16.6-2.2-22.1h0Z"/>
  <path d="M384,309.7c0-114.7,93.3-207.9,207.9-207.9h429.2c62.1,0,121.5,24.7,165.4,68.6l139.4,139.4h513.7c114.7,0,207.9,93.3,207.9,207.9v831.8c0,114.7-93.3,207.9-207.9,207.9H591.9c-114.7,0-207.9-93.3-207.9-207.9V309.7h0ZM591.9,257.7c-28.6,0-52,23.4-52,52v1039.7c0,28.6,23.4,52,52,52h1247.7c28.6,0,52-23.4,52-52v-831.8c0-28.6-23.4-52-52-52h-524.4c-34.4,0-67.6-13.6-92-38l-146.9-147.2c-14.6-14.6-34.4-22.7-55.2-22.7h-429.2,0Z"/>
</svg>