<?xml version="1.0" encoding="UTF-8"?>
<svg id="Layer_1" xmlns="http://www.w3.org/2000/svg" version="1.1" viewBox="0 0 2448 1792">
  <!-- Generator: Adobe Illustrator 29.4.0, SVG Export Plug-In . SVG Version: 2.1.0 Build 152)  -->
  <path d="M1839.6,309.8h-513.7l-139.4-139.4c-43.9-43.9-103.3-68.6-165.4-68.6h-429.2c-114.6,0-207.9,93.2-207.9,207.9h0v1039.8c0,114.6,93.2,207.9,207.9,207.9h1247.7c114.6,0,207.9-93.2,207.9-207.9v-831.8c0-114.6-93.2-207.9-207.9-207.9ZM1891.6,1349.4c0,28.6-23.4,52-52,52H591.9c-28.6,0-52-23.4-52-52V309.7c0-28.6,23.4-52,52-52h0,429.2c20.8,0,40.6,8.1,55.2,22.7l146.9,147.2c2.2,2.2,4.6,4.4,6.9,6.5v548.9c0,19.8,11,37.6,28.6,46.4,17.5,8.8,38.6,6.8,54.5-4.9l176.5-132.4,176.5,132.4c15.6,11.7,36.7,13.6,54.5,4.9,17.8-8.8,28.6-26.9,28.6-46.4V465.6h90.3c28.6,0,52,23.4,52,52v831.8Z"/>
</svg>