<?xml version="1.0" encoding="UTF-8"?>
<svg id="Layer_1" xmlns="http://www.w3.org/2000/svg" version="1.1" viewBox="0 0 2448 1792">
  <!-- Generator: Adobe Illustrator 29.5.1, SVG Export Plug-In . SVG Version: 2.1.0 Build 141)  -->
  <path d="M2437.8,928l-248.5-252.9c-22.5-23-61.6-7-61.6,25.1v130.7l-80.2.4v-313.6c0-114.6-93.2-207.9-207.9-207.9h-513.7l-139.4-139.4c-43.9-43.9-103.3-68.6-165.4-68.6h-429.2c-114.6,0-207.9,93.2-207.9,207.9h0v1039.8c0,114.6,93.2,207.9,207.9,207.9h1247.7c114.6,0,207.9-93.2,207.9-207.9v-276.3h80.2v132.8c0,32.1,39,48.1,61.6,25.1l248.5-252.9c13.6-13.9,13.6-36.3,0-50.2ZM1839.6,1401.4H591.9c-28.6,0-52-23.4-52-52V309.7c0-28.6,23.4-52,52-52h0,429.2c20.8,0,40.6,8.1,55.2,22.7l146.9,147.2c24.4,24.4,57.6,38,92,38h524.4c28.6,0,52,23.4,52,52v314.4h-22.8c0,0-126.7.5-126.7.5-19.7,0-35.7,16.2-35.7,35.9v168.8c0,19.8,16.1,35.9,35.9,35.9h149.3v276.3c0,28.6-23.4,52-52,52Z"/>
</svg>