<?xml version="1.0" encoding="UTF-8"?>
<svg id="Layer_1" xmlns="http://www.w3.org/2000/svg" version="1.1" viewBox="0 0 2448 1792">
  <!-- Generator: Adobe Illustrator 29.4.0, SVG Export Plug-In . SVG Version: 2.1.0 Build 152)  -->
  <g>
    <circle cx="1217.5" cy="821.2" r="178.8"/>
    <path d="M1533.7,1220.2c-34-100.5-113.8-178.8-215.8-211.3-60.6,42.9-143.4,42.9-205.4,0-99,32.5-178.8,110.9-212.8,209.8-10.3,28,8.8,54.7,37,54.7h555.7c31,0,50.2-26.6,41.3-53.2Z"/>
  </g>
  <path d="M384,309.7c0-114.7,93.3-207.9,207.9-207.9h429.2c62.1,0,121.5,24.7,165.4,68.6l139.4,139.4h513.7c114.7,0,207.9,93.3,207.9,207.9v831.8c0,114.7-93.3,207.9-207.9,207.9H591.9c-114.7,0-207.9-93.3-207.9-207.9V309.7ZM591.9,257.7c-28.6,0-52,23.4-52,52v1039.7c0,28.6,23.4,52,52,52h1247.7c28.6,0,52-23.4,52-52v-831.8c0-28.6-23.4-52-52-52h-524.4c-34.4,0-67.6-13.6-92-38l-146.9-147.2c-14.6-14.6-34.4-22.7-55.2-22.7h-429.2,0Z"/>
</svg>