<?xml version="1.0" encoding="UTF-8"?>
<svg id="Layer_1" data-name="Layer 1" xmlns="http://www.w3.org/2000/svg" viewBox="0 0 135.44 107.14">
  <defs>
    <style>
      .cls-1 {
        stroke-width: 0px;
      }

      .cls-2 {
        isolation: isolate;
      }
    </style>
  </defs>
  <g id="_ƒ" data-name="ƒ" class="cls-2">
    <g class="cls-2">
      <path class="cls-1" d="m8.08,107.14c-3.25,0-5.95-.42-8.08-1.25v-10.31c2.31.72,4.38,1.08,6.18,1.08,2.24,0,4.2-.91,5.89-2.71s2.9-4.61,3.66-8.41l10.47-49.64h-9.66l1.08-5.91,10.69-3.85,1.19-6.35c1.34-6.87,3.68-11.89,7.03-15.05S44.63,0,50.78,0c4.16,0,8.01.78,11.55,2.33l-3.36,9.55c-2.68-1.01-5.12-1.52-7.32-1.52-2.57,0-4.6.77-6.1,2.31s-2.61,4.1-3.34,7.68l-1.25,5.91h12.37l-2.01,9.66h-12.31l-10.9,51.32c-1.55,6.94-3.97,12-7.24,15.16s-7.53,4.75-12.78,4.75Z"/>
    </g>
  </g>
  <g class="cls-2">
    <g class="cls-2">
      <path class="cls-1" d="m53.72,69.97c0-8.69,1.58-16.69,4.73-24.02,3.15-7.32,7.96-14.33,14.41-21.02h7.94c-12.61,13.87-18.91,28.94-18.91,45.19,0,8.33,1.46,15.87,4.37,22.63h-6.95c-3.72-6.61-5.58-14.2-5.58-22.78Z"/>
      <path class="cls-1" d="m93.59,65.75l-11.58,14.7h-10.25l18.04-21.61-8.77-20.39h9.3l5.47,14.16,10.9-14.16h10.4l-17.51,20.85,9.42,21.15h-9.34l-6.08-14.7Z"/>
      <path class="cls-1" d="m135.44,47.79c0,8.66-1.56,16.63-4.67,23.9-3.11,7.28-7.94,14.3-14.47,21.06h-7.94c12.61-13.87,18.91-28.94,18.91-45.19,0-8.28-1.46-15.82-4.37-22.63h6.95c3.72,6.71,5.58,14.33,5.58,22.86Z"/>
    </g>
  </g>
</svg>