<svg id="Layer_1" data-name="Layer 1" xmlns="http://www.w3.org/2000/svg" viewBox="0 0 95.46 95.46"><title>vitals</title><path d="M50.28,98A47.73,47.73,0,1,1,98,50.28,47.78,47.78,0,0,1,50.28,98Zm0-86.56A38.83,38.83,0,1,0,89.11,50.28,38.87,38.87,0,0,0,50.28,11.45Z" transform="translate(-2.55 -2.55)"/><path d="M46.65,50.12a4.35,4.35,0,0,1,3.93-5.53L72,41.94c2.92-.36,3.13.36.46,1.61L52.86,52.72A4.29,4.29,0,0,1,46.65,50.12Z" transform="translate(-2.55 -2.55)"/><circle cx="46.98" cy="46.61" r="6.08"/><polygon points="48.26 16.45 47.37 23.12 46.48 16.45 48.26 16.45"/><polygon points="24.98 26.79 26.9 29.59 24.09 27.68 24.98 26.79"/><polygon points="24.1 67.85 26.9 65.94 24.99 68.74 24.1 67.85"/><polygon points="71.83 27.68 69.03 29.59 70.94 26.79 71.83 27.68"/><polygon points="16.22 46.1 23.07 46.94 16.05 47.73 16.22 46.1"/><path d="M50.28,82l-1.68,0c-.55,0-1.22,0-2-.07l-2.73-.33c-1-.24-2.12-.46-3.32-.78l-1.84-.62c-.32-.11-.65-.21-1-.33l-1-.44a29.79,29.79,0,0,1-8.17-5.16A31.87,31.87,0,0,1,17.76,52.88l-.1-1.69,0-.85c0-.38,0-.58,0-.88l.07-1.67,0-.84.12-.87a26.87,26.87,0,0,1,.62-3.49l.43-1.71c.14-.58.39-1.12.57-1.68A32.1,32.1,0,0,1,39.19,19.5a32.29,32.29,0,0,1,13.67-1.74A31.86,31.86,0,0,1,74.2,28.6a29.76,29.76,0,0,1,5.16,8.17l.43,1c.12.33.22.65.33,1l.62,1.84c.32,1.2.54,2.32.78,3.32l.33,2.72c.1.79,0,1.47.07,2,0,1.09,0,1.68,0,1.68l-.14-1.67c-.07-.54-.06-1.22-.22-2L81.1,44c-.29-1-.57-2.06-.94-3.22L79.46,39c-.12-.3-.24-.62-.37-.93l-.47-.92a30.87,30.87,0,0,0-5.36-7.66,31.75,31.75,0,0,0-8.79-6.56,30.88,30.88,0,0,0-42.94,17c-.18.52-.42,1-.55,1.56l-.42,1.6a24.8,24.8,0,0,0-.62,3.18L19.8,47l-.05.83-.1,1.67,0,.78,0,.8.07,1.6a31.06,31.06,0,0,0,3.2,11.73,31.74,31.74,0,0,0,6.56,8.79,30.87,30.87,0,0,0,7.66,5.36l.92.47c.31.14.62.25.93.38l1.77.7c1.16.38,2.24.65,3.22.94l2.66.49c.78.16,1.46.15,2,.22Z" transform="translate(-2.55 -2.55)"/></svg>