<?xml version="1.0" encoding="utf-8"?>
<!-- Generator: Adobe Illustrator 22.0.1, SVG Export Plug-In . SVG Version: 6.00 Build 0)  -->
<svg version="1.1" id="Layer_1" xmlns="http://www.w3.org/2000/svg" xmlns:xlink="http://www.w3.org/1999/xlink" x="0px" y="0px"
	 viewBox="0 0 48 48" style="enable-background:new 0 0 48 48;" xml:space="preserve">
<title>pill</title>
<path d="M44.1,32.6l3.1-1.5c-0.1-0.1-5.6-11.6-21.4-9.9c1.9-16.7-11-20-11.1-20L14,4.5c0.1,0,1.1,0.3,2.3,1L5.4,16.5
	c-0.8-1.3-1.1-2.3-1.2-2.4l-1.7,0.5L0.9,15c0,0.1,3.8,13.1,20.9,10.4C20.3,41.6,32.2,46.9,32.4,47l1.4-3.2c0,0-1.3-0.6-2.9-1.9
	l11.7-11.7C43.6,31.5,44.1,32.4,44.1,32.6z M32.8,24.8l-7.4,7.4c-0.4-2.1-0.5-4.6-0.1-7.4C28.2,24.3,30.7,24.4,32.8,24.8z M6.4,17.9
	L17.8,6.5c1.5,1.2,3.1,3,4,5.8l-9.3,9.3C9.6,20.8,7.7,19.3,6.4,17.9z M14.5,22.1l7.8-7.8c0.4,2,0.5,4.5,0,7.5
	C19.2,22.4,16.7,22.4,14.5,22.1z M25.9,34.1l8.9-8.9c2.9,0.9,5.1,2.3,6.5,3.7L29.6,40.7C28.2,39.2,26.8,37,25.9,34.1z"/>
</svg>
