<?xml version="1.0" encoding="UTF-8"?>
<svg id="Layer_1" xmlns="http://www.w3.org/2000/svg" version="1.1" viewBox="0 0 110 89.8">
  <!-- Generator: Adobe Illustrator 29.5.0, SVG Export Plug-In . SVG Version: 2.1.0 Build 137)  -->
  <path d="M59.6,72.3h-5.3c-.2.5-.4,1.1-.6,1.6-2.3,5.2-5.1,8.7-7.7,9.6h-2.5c-2.6-.8-5.5-4.4-7.8-9.7-1.7-4.1-3-8.4-3.8-12.8h0c0,0,9.5,0,9.5,0l4-4.9h-14.2c-.4-3.7-.7-7.4-.7-11.1s.1-5.8.4-8.6h27.5c0,1.2.2,2.4.3,3.6l7-8.5h-2.8c-1.4-10.1-4.5-18.6-8.4-24,1.8.5,3.6,1.1,5.3,1.8,6,2.6,11,6.6,14.8,11.4,1.3-1.4,3.5-1.6,5.1-.5.3.2.6.5.8.8h.7C73.4,9.2,60.1,1.3,44.9,1.3h-.2C20.5,1.2.9,20.8.9,45s19.6,43.8,43.8,43.8,12.7-1.4,18.2-4v-6c-2.6,1.4-5.3,2.5-8.1,3.3,1.8-2.6,3.5-5.9,4.8-9.8ZM44.7,6.2h0c3,0,6.3,3.8,9,9.8,1.7,4.1,3,8.4,3.8,12.8.2.9.3,1.7.4,2.6h-26.4c.1-.9.3-1.7.4-2.6.8-4.4,2-8.7,3.8-12.8,2.6-6,6.1-9.8,9-9.8ZM34.9,7.4c-3.9,5.4-6.9,13.9-8.4,24H8.3c4.4-11.7,14.3-20.8,26.6-24ZM5.9,45.1c0-3,.3-5.9,1-8.7h19.1c-.2,2.8-.4,5.7-.4,8.6s.2,7.6.6,11.1H7.5c-1.1-3.5-1.6-7.2-1.6-11ZM29.6,80.8c-9.2-3.9-16.3-11-20.2-19.8h17.6c1.5,9,4.3,16.5,7.9,21.5-1.9-.4-3.6-1-5.3-1.7Z"/>
  <path d="M107,61.3l-27.1-33.2c-1.4-1.3-3.6-1.3-4.9,0l-27.3,33.2c-.6.6-1,1.6-1,2.5,0,2,1.6,3.6,3.6,3.6h15.6v17.1c0,2.4,1.9,4.3,4.3,4.3h14.3c2.4,0,4.3-1.9,4.3-4.3v-17.2h15.7c.9,0,1.8-.3,2.5-1,1.4-1.4,1.4-3.6,0-5Z"/>
</svg>