<?xml version="1.0" encoding="UTF-8"?>
<svg id="Layer_1" xmlns="http://www.w3.org/2000/svg" version="1.1" viewBox="0 0 110 89.8">
  <!-- Generator: Adobe Illustrator 29.5.0, SVG Export Plug-In . SVG Version: 2.1.0 Build 137)  -->
  <path d="M43.7,83.5c-2.6-.8-5.5-4.4-7.8-9.7,0-.2,0-.4-.2-.5l-7.7-7.5c1.6,6.9,4,12.6,6.9,16.7-1.8-.4-3.5-1-5.3-1.7-9.2-3.9-16.3-11-20.2-19.8h15.6c-.4-1.6-.3-3.3.2-4.9H7.6c-1-3.6-1.6-7.3-1.6-11.1s.3-5.9,1-8.7h19.1c-.2,2.8-.4,5.7-.4,8.6s.2,6.3.4,9.2c.3-.6.8-1.1,1.2-1.6l1.4-1.4c.6-.6,1.2-1.1,1.9-1.5-.1-1.6-.1-3.2-.1-4.8,0-2.9.1-5.8.4-8.6h27.5c.3,2.9.4,5.7.4,8.6s-.2,7.4-.7,11.1h-11.9l4.9,4.9h6.4c-.2,1.2-.4,2.3-.7,3.4l8.3-8.3h-1.9c.4-3.5.6-7.3.6-11.1s0-5.8-.4-8.6h18.7c.2.8.3,1.5.4,2.3l4.5-4.5C82.4,15.2,65.3,1.3,45,1.2h-.2C20.7,1.2,1.1,20.8,1.1,44.9s19.6,43.8,43.8,43.8,3.9,0,5.8-.4l-4.9-4.8c-.7,0-1.4,0-2.1,0ZM59.9,9.2c10.1,4.4,17.4,12.6,20.9,22.2h-17.8c-1.4-10.1-4.5-18.6-8.4-24,1.8.4,3.6,1,5.3,1.8ZM44.8,6.1h0c2.9,0,6.3,3.8,8.9,9.9,1.7,4.1,3,8.4,3.8,12.8.2.9.3,1.7.4,2.6h-26.3c.1-.9.3-1.7.4-2.6.8-4.4,2-8.7,3.8-12.8,2.6-6.1,6-9.9,8.9-9.9ZM35,7.4c-3.9,5.4-6.9,13.9-8.4,24H8.5c4.3-11.8,14.2-20.8,26.5-24Z"/>
  <path d="M103.1,31.9c-2.9-2.8-7.5-2.8-10.4,0l-35.9,37.2-16-15.2c-2.9-2.8-7.5-2.8-10.4,0-2.8,3-2.7,7.7.2,10.5l21.1,20.3c2.9,2.8,7.5,2.8,10.4,0l41-42.4c2.8-2.9,2.8-7.5,0-10.4Z"/>
</svg>