<?xml version="1.0" encoding="UTF-8"?>
<svg id="Layer_1" xmlns="http://www.w3.org/2000/svg" version="1.1" viewBox="0 0 89.5 89.8">
  <!-- Generator: Adobe Illustrator 29.5.1, SVG Export Plug-In . SVG Version: 2.1.0 Build 141)  -->
  <path d="M44.9,1.3h-.2C20.5,1.2.9,20.8.9,45h0c0,24.2,19.6,43.8,43.8,43.8s43.8-19.6,43.8-43.8c0-24.1-19.6-43.6-43.6-43.7ZM80.6,31.4h-17.8c-1.4-10.1-4.5-18.6-8.4-24,1.8.5,3.6,1.1,5.3,1.8,10.2,4.5,17.4,12.6,20.9,22.2ZM81.3,56.1h-18.1c.4-3.5.6-7.3.6-11.1s0-5.8-.4-8.6h18.7c1.4,6.3,1.2,13.1-.8,19.7ZM46,83.6h-2.5c-2.6-.8-5.5-4.4-7.8-9.7-1.7-4.1-3-8.4-3.8-12.8h0c0-.1,25.5-.1,25.5-.1h0c-.8,4.5-2,8.8-3.8,12.9-2.2,5.3-5.1,8.8-7.6,9.7ZM31.2,56.1c-.4-3.7-.7-7.4-.7-11.1s.1-5.8.4-8.6h27.5c.3,2.9.4,5.7.4,8.6s-.2,7.4-.7,11.1h-26.9ZM5.9,45.1c0-3,.3-5.9,1-8.7h19.1c-.2,2.8-.4,5.7-.4,8.6s.2,7.6.6,11.1H7.5c-1.1-3.5-1.6-7.2-1.6-11ZM44.7,6.2h0c3,0,6.3,3.8,9,9.8,1.7,4.1,3,8.4,3.8,12.8.2.9.3,1.7.4,2.6h-26.4c.1-.9.3-1.7.4-2.6.8-4.4,2-8.7,3.8-12.8,2.6-6,6.1-9.8,9-9.8ZM34.9,7.4c-3.9,5.4-6.9,13.9-8.4,24H8.3c4.4-11.7,14.3-20.8,26.6-24ZM9.3,61h17.6c1.5,9,4.3,16.5,7.9,21.5-1.8-.4-3.5-1-5.3-1.7-9.1-3.9-16.2-11-20.2-19.8ZM54.8,82.2c3.5-4.9,6.2-12.3,7.7-21.1h17c-4.9,10.6-14.2,18.1-24.7,21.1Z"/>
</svg>