<!-- Generated by IcoMoon.io -->
<svg version="1.1" xmlns="http://www.w3.org/2000/svg" width="250" height="250" viewBox="0 0 250 250">
<title>goal</title>
<path d="M212.318 80.537c6.694 12.911 10.62 28.186 10.62 44.378 0 54.142-43.89 98.032-98.032 98.032s-98.032-43.89-98.032-98.032c0-54.142 43.89-98.032 98.032-98.032 16.192 0 31.468 3.926 44.926 10.877l-0.548-0.257 19.821-19.642c-18.293-11.090-40.401-17.652-64.042-17.652-69.033 0-124.995 55.962-124.995 124.995s55.962 124.995 124.995 124.995c69.033 0 124.995-55.962 124.995-124.995 0-23.823-6.665-46.090-18.231-65.037l0.312 0.55z"></path>
<path d="M243.388 39.646l-29.106-3.928-3.75-29.642-31.963 31.963v21.428l-14.821 15-16.606 16.25-14.285 14.464c-2.361-0.983-5.103-1.555-7.979-1.555-11.736 0-21.249 9.513-21.249 21.249s9.513 21.249 21.249 21.249c8.926 0 16.566-5.503 19.713-13.302l0.051-0.143c0.936-2.329 1.479-5.030 1.479-7.857s-0.543-5.528-1.53-8.003l0.051 0.146 14.464-14.285 24.642-24.642 6.428-6.607h21.606z"></path>
<path d="M140.714 87.323l25.356-25.178c-11.62-7.724-25.895-12.325-41.245-12.325-41.518 0-75.176 33.657-75.176 75.176s33.657 75.176 75.176 75.176c41.518 0 75.176-33.657 75.176-75.176 0-15.35-4.601-29.625-12.498-41.523l0.173 0.278-25.356 25.178c1.986 4.608 3.141 9.974 3.141 15.609 0 22.288-18.068 40.356-40.356 40.356s-40.356-18.068-40.356-40.356c0-22.288 18.068-40.356 40.356-40.356 5.635 0 11 1.155 15.872 3.241l-0.263-0.1z"></path>
</svg>
