<?xml version="1.0" encoding="UTF-8"?>
<svg id="Layer_1" data-name="Layer 1" xmlns="http://www.w3.org/2000/svg" viewBox="0 0 437.72 382.9">
  <path d="M191.88,30.84v102.79c0,17.03-13.81,30.84-30.84,30.84H30.84c-17.03,0-30.84-13.81-30.84-30.84V30.84C0,13.81,13.81,0,30.84,0h130.2c17.03,0,30.84,13.81,30.84,30.84h0ZM437.72,352.06v-102.79c0-17.03-13.81-30.84-30.84-30.84h-130.2c-17.03,0-30.84,13.81-30.84,30.84v102.79c0,17.03,13.81,30.84,30.84,30.84h130.2c17.03,0,30.84-13.81,30.84-30.84ZM437.72,133.63V30.84c0-17.03-13.81-30.84-30.84-30.84h-130.2c-17.03,0-30.84,13.81-30.84,30.84v102.79c0,17.03,13.81,30.84,30.84,30.84h130.2c17.03,0,30.84-13.81,30.84-30.84ZM161.04,218.43H30.84c-17.03,0-30.84,13.81-30.84,30.84v102.79c0,17.03,13.81,30.84,30.84,30.84h130.2c17.03,0,30.84-13.81,30.84-30.84v-102.79c0-17.03-13.81-30.84-30.84-30.84h0Z"/>
</svg>