<!-- Generated by IcoMoon.io -->
<svg version="1.1" xmlns="http://www.w3.org/2000/svg" width="250" height="250" viewBox="0 0 250 250">
<title>resize-grip</title>
<path d="M146.071 125c0 11.637-9.434 21.071-21.071 21.071s-21.071-9.434-21.071-21.071c0-11.637 9.434-21.071 21.071-21.071s21.071 9.434 21.071 21.071z"></path>
<path d="M146.071 209.285c0 11.637-9.434 21.071-21.071 21.071s-21.071-9.434-21.071-21.071c0-11.637 9.434-21.071 21.071-21.071s21.071 9.434 21.071 21.071z"></path>
<path d="M61.786 209.285c0 11.637-9.434 21.071-21.071 21.071s-21.071-9.434-21.071-21.071c0-11.637 9.434-21.071 21.071-21.071s21.071 9.434 21.071 21.071z"></path>
<path d="M230.356 125c0 11.637-9.434 21.071-21.071 21.071s-21.071-9.434-21.071-21.071c0-11.637 9.434-21.071 21.071-21.071s21.071 9.434 21.071 21.071z"></path>
<path d="M230.356 40.715c0 11.637-9.434 21.071-21.071 21.071s-21.071-9.434-21.071-21.071c0-11.637 9.434-21.071 21.071-21.071s21.071 9.434 21.071 21.071z"></path>
<path d="M230.356 209.285c0 11.637-9.434 21.071-21.071 21.071s-21.071-9.434-21.071-21.071c0-11.637 9.434-21.071 21.071-21.071s21.071 9.434 21.071 21.071z"></path>
</svg>
