<?xml version="1.0" encoding="UTF-8"?>
<svg id="Layer_1" data-name="Layer 1" xmlns="http://www.w3.org/2000/svg" viewBox="0 0 28 21">
  <defs>
    <style>
      .cls-1 {
        fill-rule: evenodd;
      }
    </style>
  </defs>
  <path d="M11.97,14.77l-1.3,1.21-7.14-6.63c-.85-.79-1.34-1.9-1.34-3.07v-.13c0-1.93,1.37-3.59,3.27-3.95,1.39-.27,2.81.22,3.75,1.27h0s.73.82.73.82c.01.02.02.03.04.04h0c.18.19.43.29.69.29s.51-.1.69-.29c.01-.02.03-.03.04-.04l.73-.82h0c.94-1.06,2.36-1.55,3.75-1.28,1.52.29,2.69,1.42,3.1,2.85.37-.05.74-.09,1.13-.09.3,0,.59.02.88.05-.46-2.36-2.3-4.28-4.75-4.74-1.61-.31-3.25.07-4.56.99-.16.11-.32.24-.47.37-.2.17-.38.35-.55.54-.31-.35-.65-.65-1.02-.91C8.34.34,6.69-.03,5.09.28,2.26.82.23,3.28.23,6.15v.13c0,1.71.71,3.34,1.96,4.5l7.14,6.63.1.09c.33.31.77.49,1.23.49s.9-.18,1.23-.49l.1-.09.64-.59c-.31-.64-.54-1.33-.67-2.05Z"/>
  <path class="cls-1" d="M19.2,5.7c-3.7.5-6.6,3.4-6.6,7.6s3.49,7.69,7.68,7.7c.12,0,.23-.01.35-.02,3.91-.19,7.14-3.64,7.35-7.3,0-.13.02-.26.02-.4,0-.24-.01-.47-.03-.7,0,0,0,0,0,0-.34-3.57-3.2-6.41-6.77-6.88,0,0-.45-.05-.99-.06-.62,0-1.01.06-1.01.06ZM21.2,18.1c-.2.3-.4.3-.8.3s-.7-.1-.9-.3c-.3-.2-.4-.5-.4-.9s.2-.7.4-.9c.3-.3.6-.3.9-.3s.6.1.8.3c.3.2.4.5.4.9s-.2.7-.4.9ZM21.3,14.9h-1.7c.1,0-.3-6.7-.3-6.7h2.4l-.4,6.7Z"/>
</svg>