<?xml version="1.0" encoding="UTF-8"?>
<svg id="Layer_1" data-name="Layer 1" xmlns="http://www.w3.org/2000/svg" viewBox="0 0 512 512">
  <path d="M392.6,44.1c-45.6-7.6-92,7.3-124.6,39.9l-12,12-12-12c-32.6-32.6-79-47.5-124.6-39.9C50.5,55.6,0,115.2,0,185.1v5.8c0,41.5,17.2,81.2,47.6,109.5l180.7,168.7c7.5,7,17.4,10.9,27.7,10.9s20.2-3.9,27.7-10.9l180.7-168.7c30.4-28.3,47.6-68,47.6-109.5v-5.8c0-69.9-50.5-129.5-119.4-141ZM357,262.53c0,2.52-2.02,4.54-4.54,4.54h-77.77v77.27c0,2.52-2.02,4.54-4.54,4.54h-28.79c-2.52,0-4.54-2.02-4.54-4.54v-77.27h-77.27c-2.52,0-4.54-2.02-4.54-4.55v-28.78c0-2.52,2.02-4.54,4.54-4.54h77.27v-77.77c0-2.52,2.02-4.54,4.54-4.54h28.79c2.52,0,4.54,2.02,4.54,4.54v77.77h77.77c2.52,0,4.54,2.02,4.54,4.54v28.79Z"/>
</svg>