<?xml version="1.0" encoding="utf-8"?>
<!-- Generator: Adobe Illustrator 22.0.1, SVG Export Plug-In . SVG Version: 6.00 Build 0)  -->
<svg version="1.1" id="Layer_1" xmlns="http://www.w3.org/2000/svg" xmlns:xlink="http://www.w3.org/1999/xlink" x="0px" y="0px"
	 viewBox="0 0 36 36" style="enable-background:new 0 0 36 36;" xml:space="preserve">
<title>help</title>
<path d="M18,35.9c-9.9,0-17.9-8-17.9-17.9S8.1,0.1,18,0.1s17.9,8,17.9,17.9S27.9,35.9,18,35.9z M18,3.6C10.1,3.6,3.6,10.1,3.6,18
	S10.1,32.4,18,32.4S32.4,25.9,32.4,18S25.9,3.6,18,3.6z"/>
<g>
	<circle cx="17.4" cy="26" r="2.5"/>
	<path d="M15.3,21.5v-1c0-0.9,0.2-1.7,0.6-2.3c0.4-0.7,1.1-1.4,2.1-2.1c1-0.7,1.6-1.3,1.9-1.7c0.3-0.4,0.5-0.9,0.5-1.5
		c0-0.6-0.2-1.1-0.7-1.4S18.7,11,17.9,11c-1.4,0-3,0.5-4.8,1.4l-1.5-3.1c2.1-1.2,4.3-1.7,6.6-1.7c1.9,0,3.4,0.5,4.6,1.4
		c1.1,0.9,1.7,2.1,1.7,3.7c0,1-0.2,1.9-0.7,2.7c-0.5,0.7-1.3,1.6-2.7,2.5c-0.9,0.7-1.5,1.2-1.7,1.5c-0.2,0.3-0.4,0.8-0.4,1.4v0.8
		H15.3z"/>
</g>
</svg>
