<?xml version="1.0" encoding="UTF-8"?>
<svg id="Layer_1" xmlns="http://www.w3.org/2000/svg" version="1.1" viewBox="0 0 48 48">
  <!-- Generator: Adobe Illustrator 29.4.0, SVG Export Plug-In . SVG Version: 2.1.0 Build 152)  -->
  <rect x="16.2" y="26.7" width="5.7" height="5.7" rx="1.3" ry="1.3"/>
  <rect x="16.2" y="18.5" width="5.7" height="5.7" rx="1.3" ry="1.3"/>
  <rect x="26.1" y="26.7" width="5.7" height="5.7" rx="1.3" ry="1.3"/>
  <rect x="26.1" y="18.5" width="5.7" height="5.7" rx="1.3" ry="1.3"/>
  <path d="M42,43.7c0,0,0-.1-.2-.1h-1.6c0,0-.2,0-.2,0V12.2c0-3.2-2.6-5.8-5.8-5.8h-2.9v-2.1c0-1.8-1.5-3.3-3.3-3.3h-8c-1.8,0-3.3,1.5-3.3,3.3v2.1h-2.9c-3.2,0-5.8,2.6-5.8,5.8v31.3c0,0,0,.1-.1.1h-1.7c0,0-.1,0-.1.1v3.6c0,0,0,.1.1.1h35.9c0,0,.1-.1.1-.2v-3.6ZM19,7.3c0-.5.4-.9.9-.9h2c0,0,.1,0,.1-.1v-2c0-.5.4-.9.9-.9h1.8c.5,0,.9.4.9.9v2c0,0,0,.1.1.1h2c.5,0,.9.4.9.9v1.8c0,.5-.4.9-.9.9h-2c0,0-.1,0-.1.1v2c0,.5-.4.9-.9.9h-1.8c-.5,0-.9-.4-.9-.9v-2c0,0,0-.1-.1-.1h-2c-.5,0-.9-.4-.9-.9v-1.8ZM36.1,43.4c0,0,0,.1-.1.1h-8.1c0,0,.1,0,.1-.1v-4.7c0-1.9-1.3-3.7-3.2-4-2.4-.4-4.5,1.4-4.5,3.8v4.9c0,0,0,.1.1.1h-8.3c0,0-.1,0-.1-.1V12.2c0-1,.8-1.8,1.8-1.8h2.9v1.9c0,1.8,1.5,3.3,3.3,3.3h8c1.8,0,3.3-1.5,3.3-3.3v-1.9h2.9c1,0,1.8.8,1.8,1.8v31.3Z"/>
</svg>