<?xml version="1.0" encoding="utf-8"?>
<!-- Generator: Adobe Illustrator 25.2.3, SVG Export Plug-In . SVG Version: 6.00 Build 0)  -->
<svg version="1.1" id="Layer_1" xmlns="http://www.w3.org/2000/svg" xmlns:xlink="http://www.w3.org/1999/xlink" x="0px" y="0px"
	 viewBox="0 0 36 36" style="enable-background:new 0 0 36 36;" xml:space="preserve">
<path d="M18,35.9c-9.9,0-17.9-8-17.9-17.9S8.1,0.1,18,0.1s17.9,8,17.9,17.9S27.9,35.9,18,35.9z M18,3.6C10.1,3.6,3.6,10.1,3.6,18
	S10.1,32.4,18,32.4S32.4,25.9,32.4,18S25.9,3.6,18,3.6z"/>
<circle cx="18" cy="10.4" r="2.5"/>
<path d="M21.6,25.9c-0.1,0.2-0.2,0.5-0.3,0.6c-0.8,1-2,1.6-3.2,1.6c-0.6,0-1.2,0-1.8-0.1c-1-0.1-2.2-1.5-2-2.9l0.4-2.9
	c0.3-1.7,0.5-3.4,0.8-5.1c0-0.1,0-0.2,0-0.3c0-0.7-0.2-1-0.8-1c-0.3,0-0.5-0.1-0.8-0.1c-0.3-0.1-0.4-0.4-0.4-0.7
	c0-0.3,0.2-0.5,0.5-0.6c0.2,0,0.4,0,0.6,0h4.6c0.6,0,0.9,0.3,0.9,0.9c0,0.5-0.1,1.1-0.2,1.6c-0.3,1.9-0.6,3.9-0.9,5.8
	c-0.1,0.6-0.2,1.3-0.3,1.9c0,0.3,0,0.6,0.1,0.9c0.1,0.4,0.4,0.6,0.7,0.6c0.3,0,0.6-0.1,0.9-0.3c0.2-0.1,0.4-0.3,0.7-0.4
	C21.4,25.2,21.7,25.4,21.6,25.9z"/>
</svg>
