<svg id="Isolation_Mode" data-name="Isolation Mode" xmlns="http://www.w3.org/2000/svg" viewBox="0 0 43.26 62.41"><title>lab</title><path d="M45.12,15.42l-2,3.18a5.85,5.85,0,0,0-3.16-.93,5.77,5.77,0,0,0-1.76.28,5.93,5.93,0,0,0-4.11,6.64,5.68,5.68,0,0,0,2.67,4Q35.36,30.67,34,32.78A.9.9,0,0,1,32.6,33q-3.4-2.18-6.79-4.36c-.63-.41-.68-.85-.23-1.55l8.72-13.6c.77-1.2,1.52-2.4,2.3-3.59.49-.75.9-.82,1.65-.34l6.48,4.15C45.53,14.26,45.63,14.62,45.12,15.42Z" transform="translate(-10.37 -0.8)"/><path d="M39.32,8l3-4.61c.43-.66.84-1.33,1.28-2s.83-.81,1.52-.38C46.65,2,48.16,3,49.67,4A.93.93,0,0,1,50,5.4c-1.44,2.27-2.89,4.53-4.31,6.76Z" transform="translate(-10.37 -0.8)"/><path d="M25.05,30.38l6.38,4.08c-.72,1.08-1.44,2.21-2.19,3.31A.86.86,0,0,1,28,38q-2.38-1.49-4.74-3A.88.88,0,0,1,23,33.68C23.65,32.56,24.36,31.46,25.05,30.38Z" transform="translate(-10.37 -0.8)"/><path d="M50,59.84a22.35,22.35,0,0,0-3-2.24c-.61-.38-1.25-.72-1.9-1l-.61-.3a35.11,35.11,0,0,0,3.66-3.31c5.54-6.38,6.95-13.58,3.93-21.56a19.44,19.44,0,0,0-6.88-9,2.69,2.69,0,0,1-.78-1,5,5,0,1,0-4.35,7.11,2.18,2.18,0,0,1,1.36.27c3.83,3.43,5.6,7.69,4.51,12.81A13.06,13.06,0,0,1,30.56,52,10.44,10.44,0,0,1,24.9,49.2c.68,0,1.34,0,2,0,1.37,0,2.18-.8,2.18-2a2,2,0,0,0-2.25-2h-6c-2.75,0-5.49,0-8.24,0a2.13,2.13,0,0,0-2.22,2,2,2,0,0,0,2.14,2c.68,0,1.36,0,2,0a1.3,1.3,0,0,1,.85.5,19.63,19.63,0,0,0,5.73,6.08l.45.34-.72.34A25.7,25.7,0,0,0,18,58.17c-.44.31-.89.63-1.31,1-.23.19-.48.41-.72.62s-.42.28-.45.52,0,.64,0,1c0,.65,0,1.31,0,2H50.58V60.41s0,0,0-.06A2.31,2.31,0,0,0,50,59.84ZM40,26.08a2.48,2.48,0,0,1-2.6-2.43,2.43,2.43,0,0,1,2.43-2.57,2.36,2.36,0,0,1,2.53,2.44A2.46,2.46,0,0,1,40,26.08Z" transform="translate(-10.37 -0.8)"/></svg>