<?xml version="1.0" encoding="utf-8"?>
<!-- Generator: Adobe Illustrator 21.1.0, SVG Export Plug-In . SVG Version: 6.00 Build 0)  -->
<svg version="1.1" id="Layer_1" xmlns="http://www.w3.org/2000/svg" xmlns:xlink="http://www.w3.org/1999/xlink" x="0px" y="0px"
	 viewBox="0 0 78 78" style="enable-background:new 0 0 78 78;" xml:space="preserve">
<title>calendar</title>
<path d="M31.8,70.3L49.1,53c6.6-6.6,6.6-17.4,0-24l-0.5-0.5l-6.4,6.4l0.5,0.5l0,0c3.1,3.1,3.1,8.2,0,11.3L25.6,63.7
	c-3,3-7.9,3.4-11.1,0.6c-3.5-3.1-3.6-8.4-0.4-11.7l4.7-4.7c-1.5-4-2.7-7.4-1.4-11.4L8,45.9c-6.7,6.7-6.9,18-0.1,24.6
	C14.6,76.9,25.2,76.8,31.8,70.3z"/>
<path d="M46.2,7.7L28.9,25c-6.6,6.6-6.6,17.4,0,24l0.5,0.5l6.4-6.4l-0.5-0.5l0,0c-3.1-3.1-3.1-8.2,0-11.3l17.3-17.3
	c3.1-3.1,8.2-3.1,11.3,0c3.1,3.1,3.1,8.2,0,11.3l-4.7,4.7c1.5,4,2.7,7.4,1.4,11.4l9.7-9.7c6.6-6.6,6.6-17.4,0-24S52.9,1.1,46.2,7.7z
	"/>
</svg>
