<?xml version="1.0" encoding="UTF-8"?>
<svg id="Layer_1" data-name="Layer 1" xmlns="http://www.w3.org/2000/svg" viewBox="0 0 512 483.33">
  <defs>
    <style>
      .cls-1 {
        fill-rule: evenodd;
      }
    </style>
  </defs>
  <path class="cls-1" d="M366.91,302.34h-177.78v-65.95h87.54l16.19-39.57h-103.73v-72.55h55.16l38.07-39.57H83.91c-14.69.6-27.28,5.7-37.17,15.59-9.89,9.89-14.99,22.18-15.59,37.17v263.52c.6,14.69,5.7,27.28,15.59,37.17,9.89,9.89,22.18,14.99,37.17,15.59h316.28c14.69-.6,27.28-5.7,37.17-15.59,9.89-9.89,14.99-22.18,15.59-37.17v-160.99l-39.57,38.07v23.98h-22.18M149.86,124.56h-65.95c-8.09.6-12.59,4.8-13.19,13.19v59.36h79.15v-72.55ZM70.71,236.38v65.95h79.15v-65.95s-79.15,0-79.15,0ZM70.71,341.91v59.36c.6,8.09,4.8,12.59,13.19,13.19h65.95v-72.55s-79.15,0-79.15,0ZM189.43,414.46h210.76c8.09-.6,12.59-4.8,13.19-13.19v-59.36h-223.95v72.55Z"/>
  <path d="M449.65,50.51c2.7-6.3.6-13.79-5.1-17.99s-13.49-3.9-18.59.9l-119.92,104.93c-4.8,4.2-6.3,10.79-4.2,16.49s7.79,9.89,14.09,9.89h52.16l-35.98,83.94c-2.7,6.3-.6,13.79,5.1,17.99,5.7,4.2,13.49,3.9,18.59-.9l119.92-104.93c4.8-4.2,6.3-10.79,4.2-16.49s-7.79-9.59-14.09-9.59h-52.16s35.98-84.24,35.98-84.24Z"/>
</svg>