<?xml version="1.0" encoding="UTF-8"?>
<svg id="Layer_1" data-name="Layer 1" xmlns="http://www.w3.org/2000/svg" viewBox="0 0 512 455.11">
  <defs>
    <style>
      .cls-1 {
        fill-rule: evenodd;
      }
    </style>
  </defs>
  <path class="cls-1" d="M433.14,200.32c14.53-19.91,23.15-44.45,23.15-71.02,0-66.51-53.89-120.4-120.39-120.4s-120.4,53.89-120.4,120.4,53.89,120.4,120.4,120.4c26.57,0,51.11-8.57,71.02-23.15l73.28,73.34c7.24,7.24,18.99,7.24,26.22,0,7.24-7.23,7.24-18.98,0-26.22l-73.28-73.34ZM367.8,206.3c-10.11,4.19-20.95,6.34-31.9,6.34s-21.78-2.16-31.9-6.34c-10.11-4.19-19.3-10.33-27.04-18.07-7.74-7.74-13.88-16.93-18.07-27.04-4.19-10.11-6.34-20.95-6.34-31.9s2.16-21.78,6.34-31.9c4.19-10.11,10.33-19.3,18.07-27.04,7.74-7.74,16.93-13.88,27.04-18.07,10.11-4.19,20.95-6.34,31.9-6.34s21.78,2.16,31.9,6.34c10.11,4.19,19.3,10.33,27.04,18.07,7.74,7.74,13.88,16.93,18.07,27.04,4.19,10.11,6.34,20.95,6.34,31.9s-2.16,21.78-6.34,31.9c-4.19,10.11-10.33,19.3-18.07,27.04-7.74,7.74-16.93,13.88-27.04,18.07ZM404.1,392.82v-110.94c-11.86,5.93-24.56,10.42-37.89,13.23v2.99h-21.21c-3.84.28-7.72.42-11.63.42s-7.79-.14-11.63-.42h-170.23v-63.14h55.03c-8.61-11.52-15.7-24.25-20.95-37.89h-34.08v-69.46h24.07c1.04-13.15,3.68-25.84,7.74-37.89H50.49c-14.21.53-26.05,5.53-35.52,15C5.5,114.19.5,126.03-.03,140.24v252.58c.53,14.21,5.53,26.05,15,35.52,9.47,9.47,21.31,14.47,35.52,15h303.09c14.21-.53,26.05-5.53,35.52-15,9.47-9.47,14.47-21.31,15-35.52ZM113.63,127.61h-63.14c-7.89.53-12.1,4.74-12.63,12.63v56.83h75.77v-69.46ZM37.86,234.96v63.14h75.77v-63.14H37.86ZM37.86,335.99v56.83c.53,7.89,4.74,12.1,12.63,12.63h63.14v-69.46H37.86ZM151.52,405.45h202.06c7.89-.53,12.1-4.74,12.63-12.63v-56.83h-214.69v69.46Z"/>
</svg>