<?xml version="1.0" encoding="UTF-8"?>
<svg id="Layer_1" data-name="Layer 1" xmlns="http://www.w3.org/2000/svg" viewBox="0 0 512 483.33">
  <defs>
    <style>
      .cls-1 {
        fill-rule: evenodd;
      }
    </style>
  </defs>
  <path class="cls-1" d="M468.5,109.91c-.6-14.8-5.74-27.49-15.71-37.46-9.97-9.97-22.35-15.1-37.46-15.71H96.65c-14.8.6-27.49,5.74-37.46,15.71s-15.1,22.35-15.71,37.46v265.52c.6,14.8,5.74,27.49,15.71,37.46,9.97,9.97,22.35,15.1,37.46,15.71h318.69c14.8-.6,27.49-5.74,37.46-15.71,9.97-9.97,15.1-22.35,15.71-37.46v-120.23h0s0-145.3,0-145.3ZM202.68,96.62h212.36c8.46.6,12.69,5.14,13.29,13.29v59.81h-225.65v-73.1ZM163.11,389.02h-66.46c-8.46-.6-12.69-5.14-13.29-13.29v-59.81h79.75v73.1ZM163.11,276.05h-79.75v-66.46h79.75v66.46ZM163.11,170.02h-79.75v-59.81c.6-8.46,5.14-12.69,13.29-13.29h66.46v73.1ZM428.63,375.43c-.6,8.46-5.14,12.69-13.29,13.29h-212.36v-73.1h225.65v59.81ZM428.63,275.75h-46.82l-179.13.3v-66.46h225.95v66.46-.3Z"/>
</svg>