<?xml version="1.0" encoding="utf-8"?>
<!-- Generator: Adobe Illustrator 25.2.3, SVG Export Plug-In . SVG Version: 6.00 Build 0)  -->
<svg version="1.1" id="Layer_1" xmlns="http://www.w3.org/2000/svg" xmlns:xlink="http://www.w3.org/1999/xlink" x="0px" y="0px"
	 viewBox="0 0 250 250" style="enable-background:new 0 0 250 250;" xml:space="preserve">
<path d="M64.6,110.4H48.9c-8.1,0-14.7,6.6-14.7,14.7l0,0v108.6c0.1,8.1,6.6,14.6,14.7,14.7h151.4c8.1-0.1,14.6-6.6,14.7-14.7V125.1
	c0-8.1-6.6-14.7-14.7-14.7l0,0h0h-15.4H64.6z M137.1,181.7v25.7c-0.3,4.1-1.6,7.8-3.7,11.1l0.1-0.1c-2.1,1.7-4.8,2.7-7.7,2.7h0
	c-0.1,0-0.2,0-0.4,0c-3.4,0-6.5-1.3-8.9-3.4l0,0c-1.9-2.9-3.1-6.3-3.4-10l0-0.1c0-0.4-0.1-0.8-0.1-1.3s0-0.9,0.1-1.3l0,0.1v-23.3
	c-6.8-4.3-11.3-11.6-11.8-20l0-0.1c0-0.2,0-0.3,0-0.5c0-13.2,10.7-23.8,23.8-23.8s23.8,10.7,23.8,23.8c0,8.7-4.7,16.4-11.7,20.5
	L137.1,181.7L137.1,181.7z"/>
<path d="M86.9,112V60.4c0-14.5,10.1-25.9,22.2-25.9h30.7c12.4,0,22.2,11.8,22.2,25.9V112h26V54.3c0-27.7-19.3-50.3-43-50.3h-40.7
	c-23.7,0-43,22.6-43,50.3V112H86.9z"/>
</svg>
