<?xml version="1.0" encoding="utf-8"?>
<!-- Generator: Adobe Illustrator 24.0.1, SVG Export Plug-In . SVG Version: 6.00 Build 0)  -->
<svg version="1.1" id="Layer_1" xmlns="http://www.w3.org/2000/svg" xmlns:xlink="http://www.w3.org/1999/xlink" x="0px" y="0px"
	 viewBox="0 0 80 68.6" style="enable-background:new 0 0 80 68.6;" xml:space="preserve">
<g>
	<path d="M40.1,34.2c0,4.5-1.1,7.9-3.3,10.3c-2.2,2.3-5.4,3.5-9.7,3.5c-4.2,0-7.4-1.2-9.7-3.5S14,38.7,14,34.2
		c0-4.5,1.1-7.9,3.3-10.2s5.5-3.5,9.7-3.5c4.3,0,7.5,1.2,9.7,3.5S40.1,29.7,40.1,34.2z M21.7,34.2c0,5.2,1.8,7.8,5.4,7.8
		c1.8,0,3.2-0.6,4.1-1.9c0.9-1.3,1.3-3.2,1.3-5.9c0-2.7-0.4-4.7-1.3-5.9s-2.2-1.9-4-1.9C23.5,26.3,21.7,29,21.7,34.2z"/>
	<path d="M50.2,37.9v9.7H43V20.8h8.8c7.3,0,10.9,2.6,10.9,7.9c0,3.1-1.5,5.5-4.5,7.2l7.8,11.7h-8.2L52,37.9H50.2z M50.2,32.4h1.4
		c2.5,0,3.8-1.1,3.8-3.4c0-1.8-1.2-2.8-3.7-2.8h-1.4V32.4z"/>
</g>
</svg>
