<?xml version="1.0" encoding="utf-8"?>
<!-- Generator: Adobe Illustrator 24.0.1, SVG Export Plug-In . SVG Version: 6.00 Build 0)  -->
<svg version="1.1" id="Layer_1" xmlns="http://www.w3.org/2000/svg" xmlns:xlink="http://www.w3.org/1999/xlink" x="0px" y="0px"
	 viewBox="0 0 80 68.6" style="enable-background:new 0 0 80 68.6;" xml:space="preserve">
<path d="M54.1,47.7h-9.5l-9.8-19h-0.2c0.2,3,0.3,5.3,0.3,6.8v12.1h-6.4V20.8H38l9.8,18.7h0.1c-0.2-2.7-0.3-4.9-0.3-6.5V20.8h6.5
	V47.7z"/>
<path d="M78.8,33.7c0,4.5-1.2,8-3.7,10.4c-2.5,2.4-6,3.6-10.4,3.6H56V20.8h9.3c4.3,0,7.7,1.1,10,3.3C77.6,26.3,78.8,29.5,78.8,33.7z
	 M71.3,33.9c0-2.5-0.5-4.3-1.5-5.5s-2.5-1.8-4.4-1.8h-2.1v15.1h1.6c2.2,0,3.8-0.6,4.9-1.9C70.7,38.5,71.3,36.6,71.3,33.9z"/>
<path d="M9.2,20.6l-7.8,27h7l1.4-5h8.7l1.3,5h8l-8.9-27H9.2z M11,36.8l2.3-9.8h1.5l2.3,9.8H11z"/>
</svg>
