<?xml version="1.0" encoding="UTF-8"?>
<svg id="Layer_1" data-name="Layer 1" xmlns="http://www.w3.org/2000/svg" viewBox="0 0 384 512">
  <path d="M172.27,501.67C26.97,291.03,0,269.41,0,192,0,85.96,85.96,0,192,0s192,85.96,192,192c0,77.41-26.97,99.03-172.27,309.67-9.54,13.77-29.93,13.77-39.46,0h0ZM159.63,111.07v48.56h-48.56c-8.9,0-16.19,7.28-16.19,16.19v32.37c0,8.9,7.28,16.19,16.19,16.19h48.56v48.56c0,8.9,7.28,16.19,16.19,16.19h32.37c8.9,0,16.19-7.28,16.19-16.19v-48.56h48.56c8.9,0,16.19-7.28,16.19-16.19v-32.37c0-8.9-7.28-16.19-16.19-16.19h-48.56v-48.56c0-8.9-7.28-16.19-16.19-16.19h-32.37c-8.9,0-16.19,7.28-16.19,16.19Z"/>
</svg>