<?xml version="1.0" encoding="utf-8"?>
<!-- Generator: Adobe Illustrator 22.0.1, SVG Export Plug-In . SVG Version: 6.00 Build 0)  -->
<svg version="1.1" id="Layer_1" xmlns="http://www.w3.org/2000/svg" xmlns:xlink="http://www.w3.org/1999/xlink" x="0px" y="0px"
	 viewBox="0 0 71.8 68.6" style="enable-background:new 0 0 71.8 68.6;" xml:space="preserve">
<title>risk</title>
<g>
	<g>
		<path d="M56.7,58.6c-0.2-0.2-0.4-0.4-0.5-0.6l-5.8-4.5L26.6,15.1c-0.5-0.9-2.5-1.7-3.9-0.6s-1.4,2.8-0.9,3.7l23.8,38.3l1.2,6.8
			c0.1,0.2,0.2,0.6,0.2,0.9"/>
		<path d="M35.1,3.4c-0.6,0-1.2,0.3-1.6,0.9L29,11.4c-0.4,0.6-0.4,1.4,0,1.9l7.6,13c0.4,0.5,1,1,1.8,1l8.4-0.5
			c0.2-0.1,0.6-0.2,0.9-0.2c0.3-0.2,0.5-0.4,0.7-0.7c0.2-0.6,0.3-1.2-0.1-1.8L36.8,4.3C36.4,3.7,35.8,3.4,35.1,3.4z"/>
		<path d="M21.1,22.3c-0.3-0.6-0.9-0.9-1.5-0.9c-0.6,0-1.2,0.3-1.6,0.9l-4.6,7.1c-0.4,0.6-0.4,1.4,0,1.9c0.4,0.5,1,1,1.8,1l8.4-0.5
			c0.2-0.1,0.6-0.2,0.9-0.2c0.3-0.2,0.5-0.4,0.7-0.7c0.2-0.6,0.3-1.2-0.1-1.8L21.1,22.3z"/>
	</g>
</g>
</svg>
