<?xml version="1.0" encoding="UTF-8"?>
<svg id="Layer_1" xmlns="http://www.w3.org/2000/svg" version="1.1" viewBox="0 0 250 250">
  <!-- Generator: Adobe Illustrator 29.4.0, SVG Export Plug-In . SVG Version: 2.1.0 Build 152)  -->
  <path d="M43.2,56.1h70.4v14.8H43.2v-14.8Z"/>
  <path d="M43.2,86.2h50.3v14.8h-50.3s0-14.8,0-14.8Z"/>
  <path d="M51.8,169.5v-14.1h-30.5V26h111.2v72.6h14.8V26c0-8.2-6.6-14.8-14.8-14.8H21.2c-8.2,0-14.8,6.6-14.8,14.8h0v129.9c0,8.2,6.6,14.8,14.8,14.8h30.5v-1.2Z"/>
  <path d="M205.7,242.4h24.2c4,0,8.1-4,8.1-8.1V89c0-4-4-8.1-8.1-8.1h-24.2c-4,0-8.1,4-8.1,8.1v145.4c0,4,4,8.1,8.1,8.1ZM141,242.4h24.2c4,0,8.1-4.7,8.1-9.4v-98.2c0-4.7-4-9.4-8.1-9.4h-24.2c-4,0-8.1,4.7-8.1,9.4v98.2c0,4.7,4,9.4,8.1,9.4ZM77.6,242.4h24.2c4,0,8.1-5,8.1-10v-54.9c0-5-4-10-8.1-10h-24.2c-4,0-8.1,5-8.1,10v54.9c0,5,4,10,8.1,10Z"/>
</svg>