<?xml version="1.0" encoding="utf-8"?>
<!-- Generator: Adobe Illustrator 23.1.0, SVG Export Plug-In . SVG Version: 6.00 Build 0)  -->
<svg version="1.1" id="Layer_1" xmlns="http://www.w3.org/2000/svg" xmlns:xlink="http://www.w3.org/1999/xlink" x="0px" y="0px"
	 viewBox="0 0 512 512" style="enable-background:new 0 0 512 512;" xml:space="preserve">
<g>
	<path d="M278.3,227.7h-37.6c-4.5,0-8.3,2.9-9.2,7l-7.4,40.1c-1.2,5.4,3.3,10.5,9.2,10.5h37.6c4.5,0,8.3-2.9,9.2-7l7.4-40.1
		C288.6,232.7,284.2,227.7,278.3,227.7z"/>
	<path d="M256,8C119,8,8,119,8,256s111,248,248,248s248-111,248-248S393,8,256,8z M410,219.9c0,4.8-4.2,8.7-9.4,8.7h-52.5
		c-4.5,0-8.3,2.9-9.2,7l-7.4,38.1c-1.2,5.4,3.3,10.5,9.2,10.5h43.7c5.2,0,9.4,3.9,9.4,8.7v28.3c0,4.8-4.2,8.7-9.4,8.7h-56.7
		c-4.5,0-8.4,3-9.2,7.1L303,403.1c-0.8,4.1-4.7,7.1-9.2,7.1h-33.4c-5.9,0-10.3-5-9.2-10.4l14.3-59.5c1.1-5.4-3.3-10.4-9.2-10.4
		h-35.2c-4.5,0-8.4,3-9.2,7.1l-15.3,66c-0.8,4.1-4.7,7.1-9.2,7.1h-32.3c-5.8,0-10.3-4.9-9.2-10.3l13.6-59.7c1-5.4-3.4-10.3-9.2-10.3
		h-40.2c-5.2,0-9.4-3.9-9.4-8.7V293c0-4.8,4.2-8.7,9.4-8.7h53c4.5,0,8.3-2.9,9.2-7l7.4-38.1c1.2-5.4-3.3-10.5-9.2-10.5h-43.3
		c-5.2,0-9.4-3.9-9.4-8.7v-29c0-4.8,4.2-8.7,9.4-8.7H183c4.5,0,8.4-3,9.2-7.1l15.5-65.3c0.8-4.1,4.7-7.1,9.2-7.1h33.2
		c5.9,0,10.3,5,9.2,10.4L245.1,172c-1.1,5.4,3.3,10.4,9.2,10.4h36.2c4.5,0,8.4-3,9.2-7.1l15.7-65.3c0.8-4.1,4.7-7.1,9.2-7.1h32.2
		c5.9,0,10.3,5,9.2,10.4L351.7,172c-1.1,5.4,3.3,10.4,9.2,10.4h39.5c5.2,0,9.4,3.9,9.4,8.7v28.8H410z"/>
</g>
</svg>
