<?xml version="1.0" encoding="UTF-8"?>
<svg id="Layer_1" data-name="Layer 1" xmlns="http://www.w3.org/2000/svg" viewBox="0 0 89.1 63">
  <path d="M87.9,50.8c-1.5-5.4-5.1-9.5-9.6-11.3-2.7,2.3-6.4,2.3-9.2,0-1.2.5-2.4,1.1-3.4,2,2.9,3.3,5.1,7.4,6.4,12v.1h14c1.4,0,2.2-1.4,1.8-2.8Z"/>
  <path d="M1.2,50.8c1.5-5.4,5.1-9.5,9.6-11.3,2.7,2.3,6.4,2.3,9.2,0,1.2.5,2.4,1.1,3.4,2-2.9,3.3-5.1,7.4-6.4,12v.1H3c-1.3,0-2.2-1.4-1.8-2.8Z"/>
  <path d="M68.7,55.2c-2.6-9.1-8.7-16.3-16.4-19.2-4.6,3.9-10.9,3.9-15.7,0-7.5,2.9-13.6,10-16.2,19-.8,2.6.7,5,2.8,5h42.4c2.4,0,3.8-2.4,3.1-4.8Z"/>
  <path d="M30.77,16.15v-6.22c0-1.43.89-2.72,2.24-3.23l10.34-3.88c.78-.29,1.64-.29,2.42,0l10.34,3.88c1.35.51,2.24,1.79,2.24,3.23v6.22h-.03c.02.28.03.57.03.86v4.31c0,7.61-6.17,13.78-13.78,13.78s-13.78-6.17-13.78-13.78v-4.31c0-.29.01-.58.03-.86h-.04ZM35.94,21.32c0,4.76,3.85,8.61,8.61,8.61s8.61-3.85,8.61-8.61v-1.72h-17.23v1.72ZM42.83,7.53v1.72h-1.72c-.47,0-.86.39-.86.86v1.72c0,.47.39.86.86.86h1.72v1.72c0,.47.39.86.86.86h1.72c.47,0,.86-.39.86-.86v-1.72h1.72c.47,0,.86-.39.86-.86v-1.72c0-.47-.39-.86-.86-.86h-1.72v-1.72c0-.47-.39-.86-.86-.86h-1.72c-.47,0-.86.39-.86.86Z"/>
  <path d="M64.3,25.95v-4.29c0-.99.62-1.88,1.54-2.23l7.12-2.67c.53-.2,1.13-.2,1.67,0l7.12,2.67c.93.35,1.54,1.23,1.54,2.23v4.29h-.02c.01.19.02.39.02.59v2.97c0,5.25-4.25,9.5-9.5,9.5s-9.5-4.25-9.5-9.5v-2.97c0-.2,0-.4.02-.59h-.03ZM67.86,29.51c0,3.28,2.66,5.94,5.94,5.94s5.94-2.66,5.94-5.94v-1.19h-11.87v1.19ZM72.61,20.01v1.19h-1.19c-.33,0-.59.27-.59.59v1.19c0,.33.27.59.59.59h1.19v1.19c0,.33.27.59.59.59h1.19c.33,0,.59-.27.59-.59v-1.19h1.19c.33,0,.59-.27.59-.59v-1.19c0-.33-.27-.59-.59-.59h-1.19v-1.19c0-.33-.27-.59-.59-.59h-1.19c-.33,0-.59.27-.59.59Z"/>
  <path d="M6.1,25.95v-4.29c0-.99.62-1.88,1.54-2.23l7.12-2.67c.53-.2,1.13-.2,1.67,0l7.12,2.67c.93.35,1.54,1.23,1.54,2.23v4.29h-.02c.01.19.02.39.02.59v2.97c0,5.25-4.25,9.5-9.5,9.5s-9.5-4.25-9.5-9.5v-2.97c0-.2,0-.4.02-.59h-.03ZM9.66,29.51c0,3.28,2.66,5.94,5.94,5.94s5.94-2.66,5.94-5.94v-1.19h-11.87v1.19ZM14.41,20.01v1.19h-1.19c-.33,0-.59.27-.59.59v1.19c0,.33.27.59.59.59h1.19v1.19c0,.33.27.59.59.59h1.19c.33,0,.59-.27.59-.59v-1.19h1.19c.33,0,.59-.27.59-.59v-1.19c0-.33-.27-.59-.59-.59h-1.19v-1.19c0-.33-.27-.59-.59-.59h-1.19c-.33,0-.59.27-.59.59Z"/>
</svg>