<?xml version="1.0" encoding="utf-8"?>
<!-- Generator: Adobe Illustrator 22.0.1, SVG Export Plug-In . SVG Version: 6.00 Build 0)  -->
<svg version="1.1" id="Layer_1" xmlns="http://www.w3.org/2000/svg" xmlns:xlink="http://www.w3.org/1999/xlink" x="0px" y="0px"
	 viewBox="0 0 48 48" style="enable-background:new 0 0 48 48;" xml:space="preserve">
<title>patient</title>
<ellipse cx="24" cy="15" rx="12.2" ry="12.2"/>
<path d="M45.5,42.1c-2.4-6.9-7.8-12.1-14.6-14.4c-4.2,2.9-9.8,2.9-13.9,0C10.2,29.9,4.7,35.2,2.5,42c-0.7,1.9,0.6,3.7,2.5,3.7h37.8
	C44.8,45.7,46.1,43.9,45.5,42.1z M35.7,38l-4.8,4.8c-0.1,0.1-0.1,0.1-0.2,0.2l-0.5,0.5L30,43.7l-0.1-0.1l-0.7-0.7c0,0,0,0-0.1,0
	l-4.8-4.8c-1.3-1.3-1.3-3.3,0-4.5l0.1-0.1c1.3-1.3,3.3-1.3,4.5,0l1.1,1.1l1.1-1.1c1.3-1.3,3.3-1.3,4.5,0l0.1,0.1
	C36.9,34.8,36.9,36.8,35.7,38z"/>
</svg>
