<?xml version="1.0" encoding="UTF-8"?>
<svg id="Layer_1" data-name="Layer 1" xmlns="http://www.w3.org/2000/svg" viewBox="0 0 89.1 63">
  <circle cx="44.7" cy="18.9" r="16.3"/>
  <circle cx="73.8" cy="29.5" r="9.5"/>
  <circle cx="15.6" cy="29.5" r="9.5"/>
  <path d="M87.9,50.8c-1.5-5.4-5.1-9.5-9.6-11.3-2.7,2.3-6.4,2.3-9.2,0-1.2.5-2.4,1.1-3.4,2,2.9,3.3,5.1,7.4,6.4,12v.1h14c1.4,0,2.2-1.4,1.8-2.8Z"/>
  <path d="M1.2,50.8c1.5-5.4,5.1-9.5,9.6-11.3,2.7,2.3,6.4,2.3,9.2,0,1.2.5,2.4,1.1,3.4,2-2.9,3.3-5.1,7.4-6.4,12v.1H3c-1.3,0-2.2-1.4-1.8-2.8Z"/>
  <path d="M68.7,55.2c-2.6-9.1-8.7-16.3-16.4-19.2-4.6,3.9-10.9,3.9-15.7,0-7.5,2.9-13.6,10-16.2,19-.8,2.6.7,5,2.8,5h42.4c2.4,0,3.8-2.4,3.1-4.8ZM57.66,49.72l-6.58,6.58q-.14.14-.27.27l-.69.69-.27.27-.14-.14-.96-.96h-.14l-6.58-6.58c-1.78-1.78-1.78-4.52,0-6.17l.14-.14c1.78-1.78,4.52-1.78,6.17,0l1.51,1.51,1.51-1.51c1.78-1.78,4.52-1.78,6.17,0l.14.14c1.64,1.64,1.64,4.39,0,6.03Z"/>
</svg>