<?xml version="1.0" encoding="UTF-8"?>
<svg id="Layer_1" data-name="Layer 1" xmlns="http://www.w3.org/2000/svg" viewBox="0 0 512 512">
  <path d="M162.5,229.29c51.68,0,93.5-41.82,93.5-93.5s-41.82-93.5-93.5-93.5-93.5,41.82-93.5,93.5,41.82,93.5,93.5,93.5ZM162.5,95.71c22.12,0,40.07,17.95,40.07,40.07s-17.95,40.07-40.07,40.07-40.07-17.95-40.07-40.07,17.95-40.07,40.07-40.07ZM349.5,282.71c-51.68,0-93.5,41.82-93.5,93.5s41.82,93.5,93.5,93.5,93.5-41.82,93.5-93.5-41.82-93.5-93.5-93.5ZM349.5,416.29c-22.12,0-40.07-17.95-40.07-40.07s17.95-40.07,40.07-40.07,40.07,17.95,40.07,40.07-17.95,40.07-40.07,40.07ZM396.5,42.45l26.38-.08c16.2-.08,25.8,18.2,16.45,31.56L133.62,461.03c-3.74,5.34-9.85,8.51-16.36,8.52l-27.88.08c-16.28,0-25.8-18.28-16.45-31.56L380.14,50.97c3.76-5.34,9.85-8.52,16.36-8.52Z"/>
</svg>