<?xml version="1.0" encoding="utf-8"?>
<!-- Generator: Adobe Illustrator 22.0.1, SVG Export Plug-In . SVG Version: 6.00 Build 0)  -->
<svg version="1.1" id="Layer_1" xmlns="http://www.w3.org/2000/svg" xmlns:xlink="http://www.w3.org/1999/xlink" x="0px" y="0px"
	 viewBox="0 0 48 48" style="enable-background:new 0 0 48 48;" xml:space="preserve">
<title>plant</title>
<path d="M7.1,3C7.1,3-4,26.9,18.5,30.8c0,0-3.2-13.2-8.4-19.2c0,0,11.3,8.8,10.9,31.3l3.6,1.8c0,0-0.4-7.5,1.8-8.6
	c2.5,0.4,14.3,0.7,13.9-9.6c0,0-0.7-5.3,3.9-8.6c0,0-19.6-4.6-20.3,16.4c0,0,5.8-11.5,11.8-12.2c0,0-12.2,9.4-12.9,19.3
	c0,0-1.1-10.3-0.4-11.4c0.7-1.1,5.7-14.3-6.1-19.6C11,8,8.1,6.9,7.1,3z"/>
</svg>
