<?xml version="1.0" encoding="UTF-8"?>
<svg id="Layer_1" xmlns="http://www.w3.org/2000/svg" version="1.1" viewBox="0 0 21 28">
  <!-- Generator: Adobe Illustrator 29.4.0, SVG Export Plug-In . SVG Version: 2.1.0 Build 152)  -->
  <polygon points="11.8 12 9.1 12 9.1 14.9 6.4 14.9 6.4 17.5 9.1 17.5 9.1 20.2 11.8 20.2 11.8 17.5 14.6 17.5 14.6 14.9 11.8 14.9 11.8 12"/>
  <path d="M18.2,8.4H2.8c-1,0-1.9-.8-1.9-1.9v-3.6c0-1,.8-1.9,1.9-1.9h15.4c1,0,1.9.8,1.9,1.9v3.6c0,1-.8,1.9-1.9,1.9ZM2.9,6.4h15.1v-3.4H2.9v3.4Z"/>
  <path d="M16.1,9.9v13.9c0,.5-.4.9-.9.9H5.8c-.5,0-.9-.4-.9-.9v-13.9h-2.2v13.9c0,1.7,1.4,3.1,3.1,3.1h9.5c1.7,0,3.1-1.4,3.1-3.1v-13.9h-2.2Z"/>
</svg>