<?xml version="1.0" encoding="UTF-8"?>
<svg id="Layer_1" xmlns="http://www.w3.org/2000/svg" version="1.1" viewBox="0 0 576 435.1">
  <!-- Generator: Adobe Illustrator 29.5.1, SVG Export Plug-In . SVG Version: 2.1.0 Build 141)  -->
  <defs>
    <style>
      .st0 {
        fill-rule: evenodd;
      }
    </style>
  </defs>
  <path class="st0" d="M465.5,39.5H108.9c-32.8,0-59.4,26.6-59.4,59.4s26.6,59.4,59.4,59.4h356.6c32.8,0,59.4-26.6,59.4-59.4s-26.6-59.4-59.4-59.4ZM465.5,113.8H108.9c-8.2,0-14.9-6.6-14.9-14.9s6.6-14.9,14.9-14.9h356.6c8.2,0,14.9,6.6,14.9,14.9s-6.6,14.9-14.9,14.9Z"/>
  <polygon class="st0" points="79.2 277.2 495.3 277.2 495.3 277.2 495.3 232.6 79.2 232.6 79.2 277.2"/>
  <polygon class="st0" points="79.2 396.1 495.3 396.1 495.3 396.1 495.3 351.5 79.2 351.5 79.2 396.1"/>
</svg>