<?xml version="1.0" encoding="UTF-8"?>
<svg id="Layer_1" data-name="Layer 1" xmlns="http://www.w3.org/2000/svg" viewBox="0 0 496 496">
  <path d="M0,248c0,136.96,111.03,248,248,248,63.93,0,122.2-24.19,166.18-63.91,5.11-4.62,5.35-12.56.48-17.43l-39.66-39.66c-4.46-4.46-11.62-4.71-16.37-.55-30.63,26.88-69.5,41.56-110.63,41.56-93.82,0-167.24-75.99-167.99-166.55-.8-95.46,77.09-170.24,169.48-169.44,42.43.37,82.37,16.37,113.23,45.27l-41.75,41.75c-15.12,15.12-4.41,40.97,16.97,40.97h134.06c13.26,0,24-10.74,24-24V49.94c0-21.38-25.85-32.09-40.97-16.97l-35.71,35.71C374.89,26.23,314.72.12,248.46,0,111.65-.24,0,111.19,0,248Z"/>
</svg>