<!-- Generated by IcoMoon.io -->
<svg version="1.1" xmlns="http://www.w3.org/2000/svg" width="250" height="250" viewBox="0 0 250 250">
<title>report</title>
<path d="M196.676 11.138h-143.189c-0 0-0 0-0.001 0-29.426 0-53.302 23.766-53.479 53.149v121.25c0.089 29.469 23.999 53.323 53.48 53.323 0 0 0 0 0 0h143.189c29.414-0.089 53.235-23.909 53.323-53.315v-121.241c-0.177-29.346-23.965-53.079-53.315-53.167h-0.009zM234.316 133.469l-23.839 17.879-26.819-35.601-21.957 47.050-29.799-63.518-35.288 49.246-17.095-8.626v-67.595h154.795zM53.486 26.822h143.189c17.963 0.057 32.96 12.688 36.653 29.549l0.046 0.249h-216.744c3.748-17.149 18.803-29.799 36.814-29.799 0.015 0 0.029 0 0.044 0h-0.002zM63.837 223.334h-10.351c0 0-0 0-0 0-20.82 0-37.708-16.833-37.797-37.631v-113.4h48.148zM196.676 223.334h-117.155v-65.87l21.957 10.979 27.446-37.797 32.935 69.948 25.093-54.422 20.388 27.917 26.976-20.232v32.621c-0.524 20.416-17.158 36.775-37.632 36.856h-0.008z"></path>
<path d="M31.843 97.24h15.683v15.683h-15.683v-15.683z"></path>
<path d="M31.373 135.821h15.683v15.683h-15.683v-15.683z"></path>
<path d="M31.529 175.814h15.683v15.683h-15.683v-15.683z"></path>
</svg>
