<!-- Generated by IcoMoon.io -->
<svg version="1.1" xmlns="http://www.w3.org/2000/svg" width="250" height="250" viewBox="0 0 250 250">
<title>right-panel-show</title>
<path d="M173.86 22.756v204.489h26.11c14.994 0 27.274-12.15 27.274-27.274v-149.941c0-14.994-12.15-27.274-27.274-27.274h-26.11zM50.029 249.994c-27.662 0-50.023-22.362-50.023-50.023v-149.941c0-27.532 22.491-50.023 50.023-50.023h149.941c27.662 0 50.023 22.362 50.023 50.023v149.941c0 27.662-22.362 50.023-50.023 50.023h-149.941zM151.11 22.756h-101.081c-14.994 0-27.274 12.15-27.274 27.274v149.941c0 14.994 12.15 27.274 27.274 27.274h101.081v-204.489z"></path>
</svg>
