<!-- Generated by IcoMoon.io -->
<svg version="1.1" xmlns="http://www.w3.org/2000/svg" width="250" height="250" viewBox="0 0 250 250">
<title>right-panel-show-alt</title>
<path d="M190.317 176.152c-3.148 0-5.64 2.492-5.64 5.64s2.492 5.64 5.64 5.64h17.051c3.148 0 5.64-2.492 5.64-5.64s-2.492-5.64-5.64-5.64h-17.051z"></path>
<path d="M184.677 125c0-3.148 2.492-5.64 5.64-5.64h17.051c3.148 0 5.64 2.492 5.64 5.64s-2.492 5.64-5.64 5.64h-17.051c-3.148 0-5.64-2.492-5.64-5.64z"></path>
<path d="M190.317 62.438c-3.148 0-5.64 2.492-5.64 5.64s2.492 5.64 5.64 5.64h17.051c3.148 0 5.64-2.492 5.64-5.64s-2.492-5.64-5.64-5.64h-17.051z"></path>
<path d="M49.978 0.006c-27.674 0-49.971 22.297-49.971 49.971v150.045c0 27.674 22.428 49.971 49.971 49.971h150.045c27.674 0 49.971-22.428 49.971-49.971v-150.045c0-27.674-22.428-49.971-49.971-49.971h-150.045zM22.697 49.978c0-15.083 12.198-27.281 27.281-27.281h101.123v204.607h-101.123c-15.083 0-27.281-12.198-27.281-27.281v-150.045zM227.303 200.022c0 15.083-12.198 27.281-27.281 27.281h-26.101v-204.607h26.101c15.083 0 27.281 12.198 27.281 27.281v150.045z"></path>
</svg>
