<!-- Generated by IcoMoon.io -->
<svg version="1.1" xmlns="http://www.w3.org/2000/svg" width="250" height="250" viewBox="0 0 250 250">
<title>right-panel-hide-alt</title>
<path d="M50.002 0.003h149.997c27.599 0 49.999 22.4 49.999 49.999v149.997c0 27.599-22.4 49.999-49.999 49.999h-149.997c-27.599 0-49.999-22.4-49.999-49.999v-149.997c0-27.599 22.4-49.999 49.999-49.999zM151.067 22.669h-101.065c-15.066 0-27.199 12.266-27.199 27.199v149.997c0 15.066 12.266 27.199 27.199 27.199h101.065v-204.396zM187.466 176c-3.2 0-5.733 2.533-5.733 5.733s2.533 5.733 5.733 5.733h17.066c3.2 0 5.733-2.533 5.733-5.733s-2.533-5.733-5.733-5.733h-17.066zM181.733 124.934c0 3.2 2.533 5.733 5.733 5.733h17.066c3.2 0 5.733-2.533 5.733-5.733s-2.533-5.733-5.733-5.733h-17.066c-3.2 0-5.733 2.533-5.733 5.733zM187.466 62.402c-3.2 0-5.733 2.533-5.733 5.733s2.533 5.733 5.733 5.733h17.066c3.2 0 5.733-2.533 5.733-5.733s-2.533-5.733-5.733-5.733h-17.066z"></path>
</svg>
