<?xml version="1.0" encoding="UTF-8"?>
<svg id="Layer_1" data-name="Layer 1" xmlns="http://www.w3.org/2000/svg" viewBox="0 0 35.8 35.8">
  <path d="M17.9,35.8C8,35.8,0,27.8,0,17.9S8,0,17.9,0s17.9,8,17.9,17.9-8,17.9-17.9,17.9ZM17.9,3.5c-7.9,0-14.4,6.5-14.4,14.4s6.5,14.4,14.4,14.4,14.4-6.5,14.4-14.4S25.8,3.5,17.9,3.5Z"/>
  <path d="M14.47,11h0ZM12.62,9.57c-.58,0-.88.44-.94,1.44v13.63c0,1.11.33,1.6.97,1.6.56-.06,1.07-.26,1.5-.56h-.01s11.83-6.1,11.83-6.1c1.33-.99,1.27-1.96,0-2.76l-11.64-6.47c-.47-.39-1.05-.67-1.69-.77h-.02s0,0,0,0Z"/>
</svg>