<?xml version="1.0" encoding="UTF-8"?><svg id="a" xmlns="http://www.w3.org/2000/svg" viewBox="0 0 478.65 449.5"><path d="M209.5,385.5H65.5V65.5l-.38-1.5H208c8.84,0,16-7.16,16-16V16c0-8.84-7.16-16-16-16H48C21.49,0,0,21.49,0,48V400c-.01,13.1,5.35,25.63,14.83,34.67,9.04,9.48,21.57,14.84,34.67,14.83H209.5c8.84,0,16-7.16,16-16v-32c0-8.84-7.16-16-16-16Z"/><path d="M471.62,208.6l-90.51-90.51c-15.11-15.11-41-4.34-41,17v50.53l-174.63-.06c-13.24,0-23.97,10.71-24,23.95v32.09c0,13.25,10.75,24,24,24h.08l174.57-.05v50.49c0,21.21,25.81,32.17,41,17l90.51-90.51c9.36-9.38,9.35-24.56-.02-33.93Z"/></svg>