<!-- Generated by IcoMoon.io -->
<svg version="1.1" xmlns="http://www.w3.org/2000/svg" width="250" height="250" viewBox="0 0 250 250">
<title>sort-ascend</title>
<path d="M0 49.107c0-1.116 0.46-2.232 1.395-3.348l44.503-44.503c0.865-0.809 2.023-1.27 3.209-1.256 1.116 0 2.19 0.418 3.209 1.256l44.643 44.643c1.395 1.493 1.716 3.111 0.977 4.883-0.74 1.855-2.135 2.79-4.185 2.79h-26.786v191.964c0 1.297-0.418 2.372-1.256 3.209s-1.911 1.256-3.209 1.256h-26.786c-1.297 0-2.372-0.418-3.209-1.256s-1.256-1.911-1.256-3.209v-191.964h-26.786c-1.297 0-2.372-0.418-3.209-1.256s-1.256-1.911-1.256-3.209zM245.647 218.75v26.786c0 1.297-0.418 2.372-1.256 3.209s-1.911 1.256-3.209 1.256h-116.072c-1.297 0-2.372-0.418-3.209-1.256s-1.256-1.911-1.256-3.209v-26.786c0-1.297 0.418-2.372 1.256-3.209s1.911-1.256 3.209-1.256h116.072c1.297 0 2.372 0.418 3.209 1.256s1.256 1.911 1.256 3.209zM218.862 147.322v26.786c0 1.297-0.418 2.372-1.256 3.209s-1.911 1.256-3.209 1.256h-89.286c-1.297 0-2.372-0.418-3.209-1.256s-1.256-1.911-1.256-3.209v-26.786c0-1.297 0.418-2.372 1.256-3.209s1.911-1.256 3.209-1.256h89.286c1.297 0 2.372 0.418 3.209 1.256s1.256 1.911 1.256 3.209zM192.076 75.893v26.786c0 1.297-0.418 2.372-1.256 3.209s-1.911 1.256-3.209 1.256h-62.5c-1.297 0-2.372-0.418-3.209-1.256s-1.256-1.911-1.256-3.209v-26.786c0-1.297 0.418-2.372 1.256-3.209s1.911-1.256 3.209-1.256h62.5c1.297 0 2.372 0.418 3.209 1.256s1.256 1.911 1.256 3.209zM165.29 4.464v26.786c0 1.297-0.418 2.372-1.256 3.209s-1.911 1.256-3.209 1.256h-35.714c-1.297 0-2.372-0.418-3.209-1.256s-1.256-1.911-1.256-3.209v-26.786c0-1.297 0.418-2.372 1.256-3.209s1.911-1.256 3.209-1.256h35.714c1.297 0 2.372 0.418 3.209 1.256s1.256 1.911 1.256 3.209z"></path>
</svg>
