<!-- Generated by IcoMoon.io -->
<svg version="1.1" xmlns="http://www.w3.org/2000/svg" width="250" height="250" viewBox="0 0 250 250">
<title>southpanel-show-alt</title>
<path d="M22.812 193.169c0 18.814 15.206 34.020 34.020 34.020h136.466c18.814 0 34.020-15.206 34.020-34.020v-19.33h-204.506v19.33zM22.812 151.159h204.506v-94.328c0-18.814-15.206-34.020-34.020-34.020h-136.466c-18.814 0-34.020 15.206-34.020 34.020v94.328zM0.003 56.831c0-31.314 25.515-56.829 56.829-56.829h136.337c31.314 0 56.829 25.386 56.829 56.829v136.337c0 31.314-25.386 56.829-56.829 56.829h-136.337c-31.314 0-56.829-25.386-56.829-56.829v-136.337zM56.831 192.782c-3.35 0-6.057 2.706-6.057 6.057s2.706 6.057 6.057 6.057h22.68c3.35 0 6.057-2.706 6.057-6.057s-2.706-6.057-6.057-6.057h-22.68zM107.604 198.839c0-3.35 2.706-6.057 6.057-6.057h22.68c3.35 0 6.057 2.706 6.057 6.057s-2.706 6.057-6.057 6.057h-22.68c-3.35 0-6.057-2.706-6.057-6.057zM170.489 192.782c-3.35 0-6.057 2.706-6.057 6.057s2.706 6.057 6.057 6.057h22.68c3.35 0 6.057-2.706 6.057-6.057s-2.706-6.057-6.057-6.057h-22.68z"></path>
</svg>
