<!-- Generated by IcoMoon.io -->
<svg version="1.1" xmlns="http://www.w3.org/2000/svg" width="250" height="250" viewBox="0 0 250 250">
<title>southpanel-show-alt-copy</title>
<path d="M22.813 151.068v-94.236c0-18.769 15.25-34.019 34.019-34.019h136.467c18.769 0 34.019 15.25 34.019 34.019v94.236h-204.504zM249.997 56.832c0-31.412-25.417-56.829-56.829-56.829h-136.336c-31.282 0-56.829 25.547-56.829 56.829v136.336c0 31.412 25.417 56.829 56.829 56.829h136.336c31.412 0 56.829-25.417 56.829-56.829v-136.336zM22.813 173.878h204.635v19.291c0 1.694-0.13 3.389-0.391 4.953-2.477 16.423-16.684 29.066-33.758 29.066h-136.336c-17.205 0-31.282-12.643-33.758-29.066-0.391-1.564-0.391-3.259-0.391-4.953v-19.291z"></path>
</svg>
