<!-- Generated by IcoMoon.io -->
<svg version="1.1" xmlns="http://www.w3.org/2000/svg" width="250" height="250" viewBox="0 0 250 250">
<title>southpanel-hide</title>
<path d="M21.805 148.519v6.119h206.52v-99.053c0-18.74-15.17-33.783-33.783-33.783h-138.955c-18.74 0-33.783 15.17-33.783 33.783v93.062zM6.125 55.458c0-27.281 22.182-49.463 49.463-49.463h138.827c27.281 0 49.463 22.182 49.463 49.463v138.827c0 27.281-22.182 49.463-49.463 49.463h-138.827c-27.281 0-49.463-22.182-49.463-49.463v-138.827z"></path>
<path d="M194.542 249.867h-138.955c-30.596 0-55.582-24.859-55.582-55.582v-138.827c0.127-30.596 24.986-55.455 55.582-55.455h138.827c30.596 0 55.582 24.859 55.582 55.582v138.827c0 30.596-24.859 55.582-55.582 55.582zM55.587 12.114c-23.967 0-43.344 19.505-43.344 43.344v138.827c0 23.967 19.505 43.344 43.344 43.344h138.827c23.967 0 43.344-19.505 43.344-43.344v-138.827c0-23.967-19.505-43.344-43.344-43.344h-138.827zM234.317 160.63h-218.631v-105.172c0-22.054 17.847-39.902 39.902-39.902h138.827c22.054 0 39.902 17.847 39.902 39.902v105.172zM27.797 148.519h194.409v-93.062c0-15.298-12.493-27.791-27.791-27.791h-138.827c-15.298 0-27.791 12.493-27.791 27.791v93.062z"></path>
</svg>
