<!-- Generated by IcoMoon.io -->
<svg version="1.1" xmlns="http://www.w3.org/2000/svg" width="250" height="250" viewBox="0 0 250 250">
<title>southpanel-hide-alt</title>
<path d="M227.307 157.179h6.025v-100.382c0-22.179-17.948-40.127-40.127-40.127h-136.407c-22.179 0-40.127 17.948-40.127 40.127v100.382h210.636zM6.030 56.796c0-28.076 22.692-50.768 50.768-50.768h136.407c28.076 0 50.768 22.692 50.768 50.768v136.407c0 28.076-22.692 50.768-50.768 50.768h-136.407c-28.076 0-50.768-22.692-50.768-50.768v-136.407zM56.798 187.050c-6.538 0-11.795 5.256-11.795 11.795s5.256 11.795 11.795 11.795h22.692c6.538 0 11.795-5.256 11.795-11.795s-5.256-11.795-11.795-11.795h-22.692zM113.592 187.050c-6.538 0-11.795 5.256-11.795 11.795s5.256 11.795 11.795 11.795h22.692c6.538 0 11.795-5.256 11.795-11.795s-5.256-11.795-11.795-11.795h-22.692zM170.385 187.050c-6.538 0-11.795 5.256-11.795 11.795s5.256 11.795 11.795 11.795h22.692c6.538 0 11.795-5.256 11.795-11.795s-5.256-11.795-11.795-11.795h-22.692z"></path>
<path d="M193.205 249.997h-136.407c-31.281 0-56.794-25.512-56.794-56.794v-136.407c0-31.281 25.512-56.794 56.794-56.794h136.407c31.281 0 56.794 25.512 56.794 56.794v136.407c0 31.281-25.512 56.794-56.794 56.794zM12.184 163.333v29.871c0 24.615 20 44.615 44.615 44.615h136.407c24.615 0 44.615-20 44.615-44.615v-29.871h-225.636zM22.696 151.153h204.611v-94.357c0-18.846-15.256-34.102-34.102-34.102h-136.407c-18.846 0-34.102 15.256-34.102 34.102v94.357zM193.205 216.665h-22.692c-7.948 0-14.743-5.256-17.051-12.564-2.308 7.308-9.102 12.564-17.051 12.564h-22.692c-7.948 0-14.743-5.256-17.051-12.564-2.308 7.308-9.102 12.564-17.051 12.564h-22.692c-9.872 0-17.82-7.948-17.82-17.82s7.948-17.82 17.82-17.82h22.692c7.948 0 14.743 5.256 17.051 12.564 2.308-7.308 9.102-12.564 17.051-12.564h22.692c7.948 0 14.743 5.256 17.051 12.564 2.308-7.308 9.102-12.564 17.051-12.564h22.692c9.872 0 17.82 7.948 17.82 17.82s-7.948 17.82-17.82 17.82zM170.514 193.204c-3.077 0-5.641 2.564-5.641 5.641s2.564 5.641 5.641 5.641h22.692c3.077 0 5.641-2.564 5.641-5.641s-2.564-5.641-5.641-5.641h-22.692zM113.72 193.204c-3.077 0-5.641 2.564-5.641 5.641s2.564 5.641 5.641 5.641h22.692c3.077 0 5.641-2.564 5.641-5.641s-2.564-5.641-5.641-5.641h-22.692zM56.926 193.204c-3.077 0-5.641 2.564-5.641 5.641s2.564 5.641 5.641 5.641h22.692c3.077 0 5.641-2.564 5.641-5.641s-2.564-5.641-5.641-5.641h-22.692z"></path>
</svg>
