<?xml version="1.0" encoding="utf-8"?>
<!-- Generator: Adobe Illustrator 25.3.1, SVG Export Plug-In . SVG Version: 6.00 Build 0)  -->
<svg version="1.1" id="Layer_1" xmlns="http://www.w3.org/2000/svg" xmlns:xlink="http://www.w3.org/1999/xlink" x="0px" y="0px"
	 viewBox="0 0 576 512" style="enable-background:new 0 0 576 512;" xml:space="preserve">
<path d="M495.3,183.1l-126.1-18.4L312.8,50.4c-10.1-20.4-39.4-20.6-49.6,0l-56.4,114.3L80.7,183.1c-22.6,3.3-31.7,31.2-15.3,47.1
	l91.2,88.9l-21.6,125.6c-3.9,22.7,20,39.7,40.1,29.1L288,414.5l112.8,59.3c20,10.5,43.9-6.4,40.1-29.1l-21.6-125.6l91.2-88.9
	C526.9,214.2,517.9,186.3,495.3,183.1L495.3,183.1z M374.8,304.6l20.5,119.5L288,367.7l-107.3,56.4l20.5-119.5L114.3,220l120-17.4
	L288,93.8l53.7,108.8l120,17.4L374.8,304.6L374.8,304.6z"/>
</svg>
