<?xml version="1.0" encoding="utf-8"?>
<!-- Generator: Adobe Illustrator 27.8.1, SVG Export Plug-In . SVG Version: 6.00 Build 0)  -->
<svg version="1.1" id="Layer_1" xmlns="http://www.w3.org/2000/svg" xmlns:xlink="http://www.w3.org/1999/xlink" x="0px" y="0px"
	 viewBox="0 0 761.5 671.5" style="enable-background:new 0 0 761.5 671.5;" xml:space="preserve">
<path d="M319.5,504.4h-22.3v-96h107.5l116.5-116.5V168.4c0-26.5-21.5-48-48-48h-416c-26.5,0-48,21.5-48,48v352c0,26.5,21.5,48,48,48
	h247.9C304.9,546.5,309.7,524.5,319.5,504.4z M297.2,248.4h160v96h-160V248.4z M233.2,504.4h-160v-96h160V504.4z M233.2,344.4h-160
	v-96h160V344.4z"/>
<path id="pencil-solid_00000048467558023650586840000004880091177246325149_" d="M682.3,421.7l-8.9,8.9l-17.7,17.7L495,609.3
	c-5.2,5.2-11.6,9.1-18.6,11.2l-100.7,29.6c-10,2.9-20.5-2.9-23.4-12.9c-1-3.4-1-7.1,0-10.5L381.9,526c2.1-7.1,5.9-13.5,11.2-18.6
	l160.8-161l17.7-17.7l8.9-8.9l26.6,26.6l48.8,48.8l26.6,26.6L682.3,421.7z M426.8,526.6l-7.5,7.5c-0.7,0.8-1.3,1.7-1.6,2.7
	L398,604.1l67.5-19.9c1-0.2,1.9-0.7,2.7-1.4l7.5-7.5h-36.4c-6.9,0-12.5-5.6-12.6-12.6L426.8,526.6z M707.3,263.9l30.9,30.9
	c19.6,19.6,19.6,51.4,0,71l0,0l-11.4,11.4l-17.7,17.7l-8.9,8.9l-26.6-26.6l-48.8-48.8l-26.7-26.6l8.9-8.9l17.7-17.7l11.4-11.4
	c19.6-19.6,51.4-19.6,71,0C707.2,263.9,707.2,263.9,707.3,263.9L707.3,263.9z"/>
<g>
	<path d="M565.1,142.2h0.4v92.4h-0.4v24.9l61.9-62V65.2c0-25.5-20.7-46.2-46.2-46.2H180.3c-25.5,0-46.2,20.7-46.2,46.2v26.9
		c5.8-2.1,11.9-3.2,18.1-3.2h359.6C541.2,88.9,565.1,112.8,565.1,142.2z"/>
</g>
</svg>
