<?xml version="1.0" encoding="UTF-8"?>
<svg id="Layer_1" xmlns="http://www.w3.org/2000/svg" viewBox="0 0 617.8 554.8">
  <path d="M464,106.8H48c-26.5,0-48,21.5-48,48v352c0,26.5,21.5,48,48,48h416c26.5,0,48-21.5,48-48V154.8c0-26.5-21.5-48-48-48ZM224,490.8H64v-96h160v96ZM224,330.8H64v-96h160v96ZM448,490.8h-160v-96h160v96ZM448,330.8h-160v-96h160v96Z"/>
  <path id="Subtraction_5" d="M571.7,431.3h-16.2c.3-2.3.4-4.5.4-6.8v-54.9h.4v-92.4h-.4v-61.6h.4v-92.4h-.4c0-29.4-23.9-53.3-53.3-53.3H143c-6.2,0-12.3,1.1-18.1,3.2v-26.9c0-25.5,20.7-46.2,46.2-46.2h400.5c25.5,0,46.2,20.7,46.2,46.2h0v338.9c.1,25.5-20.6,46.2-46.1,46.2Z"/>
</svg>