<?xml version="1.0" encoding="utf-8"?>
<!-- Generator: Adobe Illustrator 27.8.1, SVG Export Plug-In . SVG Version: 6.00 Build 0)  -->
<svg version="1.1" id="Layer_1" xmlns="http://www.w3.org/2000/svg" xmlns:xlink="http://www.w3.org/1999/xlink" x="0px" y="0px"
	 viewBox="0 0 768.4 721.6" style="enable-background:new 0 0 768.4 721.6;" xml:space="preserve">
<path d="M320.5,478.7h-22.3v-96h107.5l116.5-116.5V142.7c0-26.5-21.5-48-48-48h-416c-26.5,0-48,21.5-48,48v352c0,26.5,21.5,48,48,48
	h247.9C305.9,520.8,310.7,498.8,320.5,478.7z M298.2,222.7h160v96h-160V222.7z M234.2,478.7h-160v-96h160V478.7z M234.2,318.7h-160
	v-96h160V318.7z"/>
<path id="pencil-solid_00000166647527151506605270000012067207255649141176_" d="M683.3,396l-8.9,8.9l-17.7,17.7L496,583.6
	c-5.2,5.2-11.6,9.1-18.6,11.2l-100.7,29.6c-10,2.9-20.5-2.9-23.4-12.9c-1-3.4-1-7.1,0-10.5l29.6-100.7c2.1-7.1,5.9-13.5,11.2-18.6
	l160.8-161l17.7-17.7l8.9-8.9l26.6,26.6l48.8,48.8l26.6,26.6L683.3,396z M427.8,500.9l-7.5,7.5c-0.7,0.8-1.3,1.7-1.6,2.7L399,578.4
	l67.5-19.9c1-0.2,1.9-0.7,2.7-1.4l7.5-7.5h-36.4c-6.9,0-12.5-5.6-12.6-12.6L427.8,500.9z M708.3,238.2l30.9,30.9
	c19.6,19.6,19.6,51.4,0,71l0,0l-11.4,11.4l-17.7,17.7l-8.9,8.9l-26.6-26.6l-48.8-48.8l-26.7-26.6l8.9-8.9l17.7-17.7l11.4-11.4
	c19.6-19.6,51.4-19.6,71,0C708.2,238.2,708.2,238.2,708.3,238.2L708.3,238.2z"/>
</svg>
