<?xml version="1.0" encoding="utf-8"?>
<!-- Generator: Adobe Illustrator 27.3.1, SVG Export Plug-In . SVG Version: 6.00 Build 0)  -->
<svg version="1.1" id="Layer_1" xmlns="http://www.w3.org/2000/svg" xmlns:xlink="http://www.w3.org/1999/xlink" x="0px" y="0px"
	 viewBox="0 0 768.4 721.6" style="enable-background:new 0 0 768.4 721.6;" xml:space="preserve">
<path d="M464,241.6H48c-26.5,0-48,21.5-48,48v352c0,26.5,21.5,48,48,48h416c26.5,0,48-21.5,48-48v-352
	C512,263.1,490.5,241.6,464,241.6z M224,625.6H64v-96h160V625.6z M224,465.6H64v-96h160V465.6z M448,625.6H288v-96h160V625.6z
	 M448,465.6H288v-96h160V465.6z"/>
<path id="add" d="M768.3,135.7H632.7V0h-62.5v135.7H435.4v62.4h134.9V333h62.5V198.1h135.7L768.3,135.7z"/>
</svg>
