<?xml version="1.0" encoding="utf-8"?>
<!-- Generator: Adobe Illustrator 23.1.0, SVG Export Plug-In . SVG Version: 6.00 Build 0)  -->
<svg version="1.1" id="Layer_1" xmlns="http://www.w3.org/2000/svg" xmlns:xlink="http://www.w3.org/1999/xlink" x="0px" y="0px"
	 viewBox="0 0 512 512" style="enable-background:new 0 0 512 512;" xml:space="preserve">
<path d="M343.5,348.3c-38.5,0-73.7-14.8-101.1-37.7H223v-19.4c-23.1-27.4-38.1-62.8-38.1-101.5c0-13.6-0.3-26.8,3-39.5H51.3
	c-19,0-34.4,15.4-34.4,34.4v251.9c0,19,15.4,34.4,34.4,34.4H349c19,0,34.4-15.4,34.4-34.4v-90.3
	C370.6,349.6,357.3,348.3,343.5,348.3z M177.2,425.2H62.7v-68.7h114.5V425.2z M177.2,310.6H62.7v-68.7h114.5V310.6z M337.5,425.2
	H223v-68.7h114.5V425.2z"/>
<path d="M385.4,36.3c1.2,9.7,2.8,19,4,28.3c-0.1,0.8,0.1,1.7,0.3,2.5c0.9,3.1,16.5,8.4,19.3,6.2c6.9-5,13.7-10,20.2-15.3
	c1.7-1.8,4.6-1.9,6.4-0.2c0.1,0.1,0.1,0.1,0.2,0.2c14.8,10.2,27.6,23.1,37.7,38c1.6,1.7,1.6,4.3,0,5.9c-5.3,6.5-10.3,13.7-15.3,20.2
	c-1.7,1.8-2,4.5-0.6,6.5c1,1.4,1.7,3,2.2,4.7c1.2,7.2,5.6,9.3,12.1,9.7c6.5,0.3,13.1,1.9,19.3,2.5c2.2-0.1,4.1,1.5,4.4,3.7
	c2.5,13,3.1,26.3,1.9,39.6c-0.4,5.1-1.1,10.2-2.2,15.3c-0.5,1.5-1.7,2.6-3.1,3.1c-8.4,1.6-17.1,2.8-25.5,3.7c-2.8,0.3-4.4,1.2-5,4
	c-0.3,1.8-1,3.4-1.9,5c-4.4,5.9-2.5,10.9,2.2,15.9c4.2,5,8.2,10.2,11.8,15.6c0.9,1.6,1,3.6,0.3,5.3c-10.2,15.2-23.2,28.3-38.3,38.6
	c-1.8,1.5-4.3,1.3-5.9-0.3c-6.5-5.3-13.7-10.3-20.2-15.3c-1.5-1.7-4.1-2-5.9-0.6c-1.6,1-3.4,1.8-5.3,2.2c-7.2,1.2-9,5.9-9.3,12.5
	c-0.5,6.7-1.4,13.4-2.8,19.9c-0.5,1.6-1.8,2.9-3.4,3.4c-18.1,3.7-36.7,3.8-54.8,0.3c-2.5-0.3-3.4-1.6-3.7-4
	c-0.9-8.4-2.5-16.8-3.4-25.2c-0.3-2.8-1.2-4.4-4-5c-1.4-0.4-2.8-0.9-4-1.6c-6.2-4.4-11.5-3.1-17.1,2.2c-4.4,4.4-10,7.5-14.9,11.5
	c-1.4,1.7-4,1.9-5.7,0.5c-0.1-0.1-0.1-0.1-0.2-0.2c-15.1-10.4-28.2-23.5-38.6-38.6c-1.5-1.8-1.3-4.3,0.3-5.9
	c5.3-6.5,10.3-13.7,15.3-20.2c1.7-1.5,2-4.1,0.6-5.9c-1.1-1.2-1.7-2.7-1.9-4.4c-1.2-8.4-6.9-10-14.3-10.6
	c-6.2-0.5-12.3-1.4-18.4-2.8c-1.6-0.6-2.8-1.9-3.4-3.4c-3.7-18.1-3.7-36.7,0-54.8c0.5-1.5,1.8-2.7,3.4-3.1c8.7-1.6,17.4-2.5,26.2-4
	c1.6-0.3,2.8-1.9,4-3.1c0.3-0.3,0.3-1.2,0.6-1.9c6.2-8.7,3.7-16.2-3.1-23.4c-3.4-3.8-6.5-7.9-9.3-12.1c-0.9-1.5-1-3.4-0.3-5
	c10.3-15.3,23.4-28.6,38.6-38.9c1.4-1.4,3.7-1.4,5.1,0.1c0.1,0.1,0.2,0.2,0.2,0.3c6.5,5.3,13.7,10.3,20.2,15.3
	c2.2,1.6,4,2.2,6.2,0.6c1.6-1,3.4-1.8,5.3-2.2c7.2-1.2,8.7-5.9,9-12.1s1.9-13.1,2.5-19.6c0.3-3.1,1.6-4,4.4-4.4
	C346.7,32.1,366.3,32.4,385.4,36.3z M301.9,175.2c-0.3,29,23,52.7,52,52.9c29,0.3,52.7-23,52.9-52c0.3-29-23-52.7-52-52.9
	c-0.1,0-0.2,0-0.3,0C325.7,123.1,302.2,146.3,301.9,175.2z"/>
</svg>
