<?xml version="1.0" encoding="utf-8"?>
<!-- Generator: Adobe Illustrator 27.8.1, SVG Export Plug-In . SVG Version: 6.00 Build 0)  -->
<svg version="1.1" id="Layer_1" xmlns="http://www.w3.org/2000/svg" xmlns:xlink="http://www.w3.org/1999/xlink" x="0px" y="0px"
	 viewBox="0 0 576 512" style="enable-background:new 0 0 576 512;" xml:space="preserve">
<g>
	<path d="M384,64H192C86,64,0,150,0,256s86,192,192,192h192c106,0,192-86,192-192S490,64,384,64z M192,400c-79.5,0-144-64.5-144-144
		s64.5-144,144-144s144,64.5,144,144S271.5,400,192,400z M384,400h-65c39.9-35.2,65-86.7,65-144s-25.1-108.8-65-144h65
		c79.5,0,144,64.5,144,144S463.5,400,384,400z"/>
	<path d="M213.5,255.4l47.5-47.5c5.7-5.7,5.7-15,0-20.7l-0.8-0.8c-5.7-5.7-15-5.7-20.7,0L192,233.9l-48.4-48.4
		c-5.7-5.7-15-5.7-20.7,0l-0.8,0.8c-5.7,5.7-5.7,15,0,20.7l48.4,48.4L120.8,305c-5.7,5.7-5.7,15,0,20.7l0.8,0.8
		c5.7,5.7,15,5.7,20.7,0l49.6-49.6l48.7,48.7c5.7,5.7,15,5.7,20.7,0l0.8-0.8c5.8-5.7,5.8-15,0.1-20.7L213.5,255.4z"/>
</g>
</svg>
