<?xml version="1.0" encoding="utf-8"?>
<!-- Generator: Adobe Illustrator 27.8.1, SVG Export Plug-In . SVG Version: 6.00 Build 0)  -->
<svg version="1.1" id="Layer_1" xmlns="http://www.w3.org/2000/svg" xmlns:xlink="http://www.w3.org/1999/xlink" x="0px" y="0px"
	 viewBox="0 0 576 512" style="enable-background:new 0 0 576 512;" xml:space="preserve">
<g>
	<path d="M384,64H192C86,64,0,150,0,256s86,192,192,192h192c106,0,192-86,192-192S490,64,384,64z M384,400c-79.5,0-144-64.5-144-144
		s64.5-144,144-144s144,64.5,144,144S463.5,400,384,400z"/>
	<path d="M450.2,198.8L367.9,284l-36.8-34.8c-6.6-6.5-17.1-6.5-23.7,0c-6.5,6.8-6.4,17.5,0.4,23.9l48.4,46.7
		c6.6,6.5,17.1,6.5,23.7,0l94-97.3c6.5-6.6,6.5-17.1,0-23.7C467.3,192.3,456.8,192.3,450.2,198.8z"/>
</g>
</svg>
