<?xml version="1.0" encoding="utf-8"?>
<!-- Generator: Adobe Illustrator 28.0.0, SVG Export Plug-In . SVG Version: 6.00 Build 0)  -->
<svg version="1.1" id="Layer_1" xmlns="http://www.w3.org/2000/svg" xmlns:xlink="http://www.w3.org/1999/xlink" x="0px" y="0px"
	 viewBox="0 0 512 512" style="enable-background:new 0 0 512 512;" xml:space="preserve">
<path d="M0,227.8V290v118c0,35.3,28.7,64,64,64h384c35.3,0,64-28.7,64-64V290v-62.1l0.5-35.9c0-35.3-28.7-64-64-64h-36.4H384V88
	c0-30.9-25.1-56-56-56H184c-30.9,0-56,25.1-56,56v40H99.9H64.5C31.9,128,5,152.5,1,184c0,0,0,0,0,0l0,0.2c-0.3,2.6-0.5,5.2-0.5,7.8
	 M176,88c0-4.4,3.6-8,8-8h144c4.4,0,8,3.6,8,8v40H176V88z M464,408c0,8.8-7.2,16-16,16H64c-8.8,0-16-7.2-16-16V298h109.8v0.3
	c0,15.8,6.8,23.6,22.6,23.6h152.2c15.8,0,22.6-7.8,22.6-23.6V298H464V408z M48.5,192c0-8.8,7.2-16,16-16h384c8,0,14.6,5.9,15.8,13.6
	l-0.3,38.3V258H355.2v-0.5c0-15.8-6.8-23.6-22.6-23.6H180.4c-15.8,0-22.6,7.8-22.6,23.6v0.5H48v-26.1L48.5,192z"/>
</svg>
