<?xml version="1.0" encoding="utf-8"?>
<!-- Generator: Adobe Illustrator 28.0.0, SVG Export Plug-In . SVG Version: 6.00 Build 0)  -->
<svg version="1.1" id="Layer_1" xmlns="http://www.w3.org/2000/svg" xmlns:xlink="http://www.w3.org/1999/xlink" x="0px" y="0px"
	 viewBox="0 0 512 512" style="enable-background:new 0 0 512 512;" xml:space="preserve">
<path d="M345.6,293.1v10.2c0,6.7-5.4,12.1-12.1,12.1H173.3c-6.7,0-12.1-5.4-12.1-12.1v-10.2H-1.7v112c0,35.3,28.7,64,64,64h384
	c35.3,0,64-28.7,64-64v-112H345.6z"/>
<path d="M447,124.2h-64.7V85.1c0-30.9-25.1-56-56-56h-144c-30.9,0-56,25.1-56,56v39.1H63c-35.3,0-64,28.7-64,64v29
	c-0.4,2.6-0.7,5.2-0.7,7.8v36.1h162.9v-7.7c0-6.7,5.4-12.1,12.1-12.1h160.2c6.7,0,12.1,5.4,12.1,12.1v7.7h164.7v-32.9h0.7v-40
	C511,152.9,482.3,124.2,447,124.2z M334.3,124.2h-160V85.1c0-4.4,3.6-8,8-8h144c4.4,0,8,3.6,8,8V124.2z"/>
</svg>
