<?xml version="1.0" encoding="UTF-8"?>
<svg id="Layer_1" data-name="Layer 1" xmlns="http://www.w3.org/2000/svg" viewBox="0 0 767.45 673.7">
  <path id="add" d="M767.25,135.7h-135.6V0h-62.5v135.7h-134.8v62.4h134.9v134.9h62.5v-134.9h135.7l-.2-62.4Z"/>
  <path d="M0,429.5v180.2c0,35.3,28.7,64,64,64h384c35.3,0,64-28.7,64-64v-180.1l.5-35.9c0-35.3-28.7-64-64-64h-64.5v-40c0-30.9-25.1-56-56-56h-144c-30.9,0-56,25.1-56,56v40h-63.5c-32.6,0-59.5,24.5-63.5,56h0v.2c-.3,2.6-.5,5.2-.5,7.8M176,289.7c0-4.4,3.6-8,8-8h144c4.4,0,8,3.6,8,8v40h-160v-40ZM464,609.7c0,8.8-7.2,16-16,16H64c-8.8,0-16-7.2-16-16v-110h109.8v.3c0,15.8,6.8,23.6,22.6,23.6h152.2c15.8,0,22.6-7.8,22.6-23.6v-.3h108.8v110ZM48.5,393.7c0-8.8,7.2-16,16-16h384c8,0,14.6,5.9,15.8,13.6l-.3,38.3v30.1h-108.8v-.5c0-15.8-6.8-23.6-22.6-23.6h-152.2c-15.8,0-22.6,7.8-22.6,23.6v.5H48v-26.1l.5-39.9Z"/>
</svg>