<!-- Generated by IcoMoon.io -->
<svg version="1.1" xmlns="http://www.w3.org/2000/svg" width="250" height="250" viewBox="0 0 250 250">
<title>catalyst-logo</title>
<path d="M126.602 249.595c-8.121-4.181-14.979-9.675-20.567-16.278l-0.080-0.097c-5.834-6.937-10.595-15.019-13.877-23.822l-0.184-0.563c-3.17-8.507-5.004-18.336-5.004-28.593 0-0.648 0.007-1.295 0.022-1.94l-0.002 0.096c0-62.654 51.974-96.472 46.278-160.194 0-0.041 0-0.090 0-0.139 0-3.592-0.653-7.032-1.846-10.207l0.066 0.2c-1.254-2.939-2.869-5.468-4.831-7.683l0.025 0.029c7.999 4.181 14.742 9.675 20.204 16.268l0.087 0.108c5.765 6.922 10.418 15.017 13.537 23.837l0.169 0.548c3.446 9.041 5.465 19.496 5.518 30.415v0.022c0 53.398-49.304 93.802-49.304 151.65 0 0.025 0 0.056 0 0.086 0 5.338 0.979 10.448 2.768 15.159l-0.098-0.293c1.743 4.657 4.154 8.671 7.163 12.154l-0.043-0.050z"></path>
<path d="M173.236 246.214c-5.471-2.8-10.086-6.505-13.828-10.968l-0.056-0.068c-3.917-4.636-7.063-10.076-9.146-16.016l-0.11-0.359c-2.143-5.753-3.383-12.401-3.383-19.338 0-0.147 0.001-0.294 0.002-0.441v0.023c0-41.828 38.269-65.501 32.395-119.612 7.392 7.694 13.216 16.955 16.918 27.23l0.169 0.537c2.143 5.849 3.383 12.603 3.383 19.645 0 0.102-0 0.204-0.001 0.306v-0.016c0 35.599-32.929 62.832-32.929 101.634-0 0.041-0 0.090-0 0.139 0 3.592 0.653 7.032 1.846 10.207l-0.066-0.2c1.206 3.132 2.767 5.837 4.677 8.253l-0.050-0.065z"></path>
<path d="M76.764 175.016c-5.437-2.802-10.041-6.44-13.836-10.802l-0.047-0.056c-7.859-9.632-12.625-22.058-12.637-35.596v-0.003c0-42.719 39.158-66.214 32.395-120.323 7.459 7.685 13.341 16.946 17.094 27.231l0.171 0.536c2.143 5.849 3.383 12.603 3.383 19.645 0 0.102-0 0.204-0.001 0.306v-0.016c0 35.599-32.751 62.832-32.751 101.456-0.001 0.075-0.001 0.163-0.001 0.252 0 3.615 0.653 7.077 1.847 10.275l-0.066-0.203c1.162 3.073 2.726 5.725 4.664 8.055l-0.037-0.045z"></path>
</svg>
