<svg id="Layer_1" data-name="Layer 1" xmlns="http://www.w3.org/2000/svg" viewBox="0 0 71.8 68.59"><title>risk</title><path d="M37.83,39.52V61a4.53,4.53,0,0,1-4.52,4.52A4.48,4.48,0,0,1,28.79,61a2.3,2.3,0,1,0-4.6,0,9.12,9.12,0,0,0,18.24,0V39.52A16.84,16.84,0,0,0,40.13,41,16.84,16.84,0,0,0,37.83,39.52Z" transform="translate(-4.27 -1.51)"/><path d="M11,33.78a15.86,15.86,0,0,1,9.73,3.3,15.86,15.86,0,0,1,9.73-3.3,15.64,15.64,0,0,1,9.66,3.3,16,16,0,0,1,19.46,0,15.86,15.86,0,0,1,9.73-3.3,15.35,15.35,0,0,1,5.29.92,8.31,8.31,0,0,1,1.46.61A37.24,37.24,0,0,0,42.43,7.64V3.81a2.3,2.3,0,1,0-4.6,0V7.64A37.07,37.07,0,0,0,4.27,35.31c.46-.23,1-.38,1.46-.61A17.41,17.41,0,0,1,11,33.78Z" transform="translate(-4.27 -1.51)"/></svg>