<?xml version="1.0" encoding="UTF-8"?>
<svg id="Layer_1" data-name="Layer 1" xmlns="http://www.w3.org/2000/svg" viewBox="0 0 59.62 50.74">
  <circle cx="21.69" cy="16.12" r="12.1"/>
  <path d="M59.3,36.51l-2.24-1.29c.22-1.22.22-2.48,0-3.7l2.24-1.29c.25-.15.37-.46.29-.74-.58-1.86-1.56-3.57-2.88-5-.2-.21-.52-.26-.78-.12l-2.25,1.3c-.94-.81-2.03-1.44-3.2-1.85v-2.58c0-.29-.2-.55-.49-.61-1.9-.42-3.86-.42-5.76,0-.29.06-.49.32-.49.61v2.6c-1.17.41-2.26,1.04-3.2,1.84l-2.24-1.29c-.26-.15-.58-.1-.78.12-1.32,1.43-2.31,3.14-2.88,5-.09.28.03.59.29.74l2.24,1.3c-.23,1.22-.23,2.47,0,3.69l-2.24,1.3c-.26.15-.38.46-.29.74.58,1.86,1.56,3.57,2.88,5,.2.22.52.27.78.12l2.24-1.29c.94.81,2.03,1.43,3.2,1.85v2.59c0,.3.21.55.5.61,1.89.42,3.86.42,5.75,0,.29-.06.5-.31.5-.61v-2.63c1.17-.42,2.25-1.05,3.2-1.85l2.24,1.29c.26.15.58.1.78-.12,1.32-1.43,2.31-3.14,2.88-5,.07-.28-.04-.58-.29-.73ZM47.11,37.58c-2.33,0-4.21-1.88-4.21-4.21,0-2.33,1.88-4.21,4.21-4.21s4.21,1.88,4.21,4.21h0c0,2.32-1.89,4.2-4.21,4.21Z"/>
  <path d="M30.29,34.95c0-1.73.31-3.45.91-5.07-.88-.41-1.79-.76-2.71-1.06-4.18,2.9-9.72,2.9-13.9,0-6.75,2.23-12.07,7.48-14.4,14.2-.57,1.36.07,2.92,1.43,3.49.34.14.7.21,1.07.21h33.45c-3.68-2.79-5.85-7.15-5.85-11.77Z"/>
</svg>