<?xml version="1.0" encoding="UTF-8"?>
<svg id="Layer_1" data-name="Layer 1" xmlns="http://www.w3.org/2000/svg" viewBox="0 0 512 409.84">
  <circle cx="179.25" cy="128.59" r="95.52"/>
  <path d="M348.19,341.74c-18.16-53.68-60.79-95.52-115.26-112.89-32.37,22.89-76.58,22.89-109.73,0-52.89,17.37-95.52,59.21-113.68,112.1-5.53,15,4.74,29.21,19.74,29.21h296.83c16.58,0,26.84-14.21,22.1-28.42Z"/>
  <path d="M430.32,287.85c0,2.55-1.6,4.15-4.15,4.15h-25.53c-2.55,0-4.15-1.6-4.15-4.15v-69.58h-68.94c-2.55,0-4.15-1.6-4.15-4.15v-25.53c0-2.55,1.6-4.15,4.15-4.15h68.94v-68.94c0-2.55,1.6-4.15,4.15-4.15h25.53c2.55,0,4.15,1.6,4.15,4.15v68.94s69.58,0,69.58,0c2.55,0,4.15,1.6,4.15,4.15v25.53c0,2.55-1.6,4.15-4.15,4.15h-69.58v69.58Z"/>
</svg>