<?xml version="1.0" encoding="utf-8"?>
<!-- Generator: Adobe Illustrator 25.2.3, SVG Export Plug-In . SVG Version: 6.00 Build 0)  -->
<svg version="1.1" id="Layer_1" xmlns="http://www.w3.org/2000/svg" xmlns:xlink="http://www.w3.org/1999/xlink" x="0px" y="0px"
	 viewBox="0 0 89.1 63" style="enable-background:new 0 0 89.1 63;" xml:space="preserve">
<ellipse cx="44.7" cy="18.9" rx="16.3" ry="16.3"/>
<path d="M68.7,55.2c-2.6-9.1-8.7-16.3-16.4-19.2c-4.6,3.9-10.9,3.9-15.7,0C29.1,38.9,23,46,20.4,55c-0.8,2.6,0.7,5,2.8,5h42.4
	C68,60,69.4,57.6,68.7,55.2z"/>
<ellipse cx="73.8" cy="29.5" rx="9.5" ry="9.5"/>
<ellipse cx="15.6" cy="29.5" rx="9.5" ry="9.5"/>
<path d="M87.9,50.8c-1.5-5.4-5.1-9.5-9.6-11.3c-2.7,2.3-6.4,2.3-9.2,0c-1.2,0.5-2.4,1.1-3.4,2c2.9,3.3,5.1,7.4,6.4,12
	c0,0,0,0.1,0,0.1h14C87.5,53.6,88.3,52.2,87.9,50.8z"/>
<path d="M1.2,50.8c1.5-5.4,5.1-9.5,9.6-11.3c2.7,2.3,6.4,2.3,9.2,0c1.2,0.5,2.4,1.1,3.4,2c-2.9,3.3-5.1,7.4-6.4,12c0,0,0,0.1,0,0.1
	h-14C1.7,53.6,0.8,52.2,1.2,50.8z"/>
</svg>
