<?xml version="1.0" encoding="UTF-8"?>
<svg id="Layer_1" data-name="Layer 1" xmlns="http://www.w3.org/2000/svg" viewBox="0 0 512 409.84">
  <circle cx="179.25" cy="128.59" r="95.52"/>
  <path d="M348.19,341.74c-18.16-53.68-60.79-95.52-115.26-112.89-32.37,22.89-76.58,22.89-109.73,0-52.89,17.37-95.52,59.21-113.68,112.1-5.53,15,4.74,29.21,19.74,29.21h296.83c16.58,0,26.84-14.21,22.1-28.42Z"/>
  <path d="M500.68,145.04l-97.28,100.74c-6.72,6.72-17.71,6.72-24.62,0l-50.06-48.43c-6.92-6.72-7.12-17.91-.41-24.83,6.72-6.72,17.71-6.72,24.62,0l38.06,36.02,85.27-88.12c6.72-6.72,17.71-6.72,24.62,0,6.72,6.72,6.72,17.71,0,24.62h-.2Z"/>
</svg>