<!-- Generated by IcoMoon.io -->
<svg version="1.1" xmlns="http://www.w3.org/2000/svg" width="250" height="250" viewBox="0 0 250 250">
<title>vitals</title>
<path d="M2.324 102.825h45.601c2.953 0.262 5.476 1.896 6.952 4.254l0.022 0.038 17.883 17.883 30.58-64.021c1.377-2.729 4.158-4.567 7.368-4.567 0.75 0 1.478 0.101 2.168 0.289l-0.058-0.013c2.671 0.88 4.783 2.817 5.877 5.303l0.024 0.062 28.434 80.83 17.883-49.535c1.076-2.796 3.741-4.744 6.86-4.744 1.077 0 2.1 0.232 3.021 0.65l-0.046-0.019c1.252 0 1.788 1.252 3.040 1.788l2.325 2.325 11.803 25.394h48.999c5.732-10.15 9.11-22.286 9.11-35.211 0-19.873-7.984-37.882-20.92-50.992l0.008 0.008c-13.195-12.855-31.244-20.784-51.145-20.784s-37.95 7.929-51.161 20.8l0.016-0.015-1.788 1.788-2.325-1.788c-12.99-13.231-31.065-21.431-51.055-21.431s-38.065 8.2-51.045 21.42l-0.010 0.011c-12.721 13.091-20.565 30.98-20.565 50.702 0 6.969 0.979 13.71 2.809 20.091l-0.126-0.513z"></path>
<path d="M186.696 134.12c-3.155-0.058-5.862-1.922-7.132-4.601l-0.021-0.049s0-1.252-1.073-1.788l-5.365-11.266-18.956 53.648c-0.864 3.157-3.707 5.44-7.084 5.44-1.060 0-2.068-0.225-2.978-0.63l0.047 0.019c-1.362-0.677-2.536-1.451-3.604-2.347l0.028 0.022c-0.728-0.533-1.208-1.368-1.251-2.318l-0-0.007-30.043-87.447-28.255 56.688c-1.386 2.366-3.917 3.93-6.812 3.93-1.023 0-2.001-0.195-2.898-0.551l0.053 0.019-3.577-1.788-23.427-22.89h-35.766c3.114 6.168 7.062 11.43 11.776 15.891l0.026 0.025 104.615 104.615 2.325-3.577 100.501-100.501h-41.131z"></path>
</svg>
