<?xml version="1.0" encoding="utf-8"?>
<!-- Generator: Adobe Illustrator 20.1.0, SVG Export Plug-In . SVG Version: 6.00 Build 0)  -->
<svg version="1.1" id="Layer_1" xmlns="http://www.w3.org/2000/svg" xmlns:xlink="http://www.w3.org/1999/xlink" x="0px" y="0px"
	 viewBox="0 0 79.5 70.1" style="enable-background:new 0 0 79.5 70.1;" xml:space="preserve">
<title>warn</title>
<path d="M78.8,62.8L44,2.4c-1.3-2.3-4.3-3.1-6.7-1.8c-0.7,0.4-1.4,1-1.8,1.8L0.7,62.8c-1.3,2.3-0.5,5.3,1.8,6.7
	c0.7,0.4,1.6,0.7,2.4,0.7h69.7c2.7,0,4.9-2.2,4.9-4.9C79.5,64.4,79.2,63.5,78.8,62.8z M35.2,20.7h9.2v25.7h-9.2V20.7z M39.7,60.8
	c-3.1,0-5.6-2.5-5.6-5.6c0-3.1,2.5-5.6,5.6-5.6c3.1,0,5.6,2.5,5.6,5.6C45.4,58.2,42.8,60.8,39.7,60.8z"/>
</svg>
