<?xml version="1.0" encoding="UTF-8"?>
<svg id="Layer_1" xmlns="http://www.w3.org/2000/svg" version="1.1" viewBox="0 0 21 16">
  <!-- Generator: Adobe Illustrator 29.5.0, SVG Export Plug-In . SVG Version: 2.1.0 Build 137)  -->
  <defs>
    <style>
      .st0 {
        fill-rule: evenodd;
      }
    </style>
  </defs>
  <path d="M20.7,9.9c0,.2,0,.3-.1.4l-.8.7c0,.1,0,.3,0,.4s0,.3,0,.4l.8.7c.1.1.2.3.1.4,0,.2-.2.4-.3.6h0c-.1.3-.2.5-.4.7-.1.1-.3.2-.4.1l-1-.3c-.2.2-.5.3-.8.4l-.2,1c0,.2-.2.3-.3.3-.2,0-.5,0-.7,0s-.5,0-.7,0c-.2,0-.3-.2-.3-.3l-.2-1c-.3-.1-.5-.3-.8-.4l-1,.3c-.2,0-.3,0-.4-.1-.1-.2-.3-.4-.4-.5h0c-.1-.3-.2-.5-.3-.7,0-.2,0-.3.1-.4l.8-.7c0-.1,0-.3,0-.4s0-.3,0-.4l-.8-.7c-.1-.1-.2-.3-.1-.4,0-.2.2-.4.3-.6h0c.1-.3.2-.5.4-.7.1-.1.3-.2.4-.1l1,.3c.2-.2.5-.3.8-.4l.2-1c0-.2.2-.3.3-.3.2,0,.5,0,.7,0s.5,0,.7,0c.2,0,.3.2.3.3l.2,1c.3.1.5.3.8.4l1-.3c.2,0,.3,0,.4.1.1.2.3.4.4.5h0c.1.3.2.5.3.7h0ZM16.5,12.9c.8,0,1.4-.6,1.4-1.4s-.6-1.4-1.4-1.4-1.4.6-1.4,1.4.6,1.4,1.4,1.4Z"/>
  <path class="st0" d="M15.1.5H1.9C.8.5,0,1.3,0,2.3v9.1c0,1,.8,1.8,1.9,1.8h9.1v-1.4H1.9c-.3,0-.5-.2-.5-.5v-3.6h3.4l1.2,1.9c.1.2.4.3.6.3s0,0,0,0c.3,0,.5-.2.6-.4l1.8-3.4.8,1.2c.1.2.4.3.6.3h2.1c.4,0,.7-.3.7-.7s-.3-.7-.7-.7h-1.7l-1.2-1.9c-.1-.2-.4-.4-.6-.3-.3,0-.5.2-.6.4l-1.8,3.4-.8-1.2c-.1-.2-.4-.3-.6-.3H1.4V2.3c0-.3.2-.5.5-.5h13.2c.3,0,.5.2.5.5v3.8h1.4v-3.8c0-1-.8-1.8-1.9-1.8Z"/>
</svg>