<?xml version="1.0" encoding="UTF-8"?>
<svg id="Layer_1" data-name="Layer 1" xmlns="http://www.w3.org/2000/svg" viewBox="0 0 48 48">
  <path id="Path_295" data-name="Path 295" d="M47.4,27.7h0V9.6c0-1.5-1.2-2.8-2.7-2.8H14.5c-1.5,0-2.8,1.2-2.8,2.7h0v.5c.7-.1,1.4-.2,2.1-.2h0v-.2c0-.3.3-.6.6-.6h30.1c.3,0,.6.3.6.6h0v18.1H13.9v-4.9l-2.2,2.2v6.7c0,1.5,1.2,2.8,2.7,2.8h8.9l-.6,5h-1.53c-.37,0-.67.3-.67.67v1.46c0,.37.3.67.67.67h16.96c.37,0,.67-.3.67-.67v-1.46c0-.37-.3-.67-.67-.67h-1.43l-.7-5h8.6c1.5,0,2.8-1.2,2.8-2.7h0v-4.1Z"/>
  <path id="Path_296" data-name="Path 296" d="M13.6,12c-1.4,0-2.8.4-4,1.1l-3.5-3.4-2.6,2.6,3.5,3.5c-1.7,2.9-1.3,6.5,1,9l10.7-10.7c-1.3-1.3-3.2-2.1-5.1-2.1Z"/>
  <path id="Path_297" data-name="Path 297" d="M14,37.2h-3.7l-6.5-11.4.8-1.4c-.6-1.2-.9-2.6-.9-3.9L.2,25.7l6.7,11.6h-2.9c-1.7,0-3.1,1.4-3.1,3.1v1.9h16.2v-1.9c0-1.8-1.3-3.2-3.1-3.2h0Z"/>
</svg>