<?xml version="1.0" encoding="UTF-8"?><svg id="Layer_1" xmlns="http://www.w3.org/2000/svg" viewBox="0 0 1000 300"><g style="opacity:.8;"><g><path d="M215.93,234.69c4.59,0,8.15,1.57,10.69,4.69,2.54,3.13,3.81,7.56,3.81,13.29s-1.28,10.18-3.84,13.35c-2.56,3.17-6.11,4.76-10.65,4.76-2.27,0-4.35-.42-6.23-1.26-1.88-.84-3.46-2.13-4.73-3.87h-.38l-1.11,4.49h-3.79v-49.53h5.29v12.03c0,2.69-.09,5.11-.25,7.26h.25c2.46-3.48,6.12-5.22,10.96-5.22Zm-.76,4.42c-3.61,0-6.21,1.03-7.8,3.1-1.59,2.07-2.39,5.55-2.39,10.46s.82,8.41,2.45,10.52c1.63,2.11,4.26,3.17,7.87,3.17,3.25,0,5.67-1.18,7.26-3.55,1.59-2.37,2.39-5.77,2.39-10.2s-.8-7.93-2.39-10.15c-1.59-2.23-4.06-3.34-7.39-3.34Z" style="fill:#5f6770;"/><path d="M233.19,235.26h5.67l7.65,19.89c1.68,4.54,2.72,7.82,3.12,9.84h.25c.28-1.08,.86-2.93,1.74-5.55,.88-2.62,3.76-10.68,8.65-24.18h5.67l-15,39.72c-1.49,3.93-3.22,6.71-5.21,8.36-1.99,1.64-4.42,2.47-7.31,2.47-1.61,0-3.21-.18-4.78-.54v-4.23c1.17,.25,2.47,.38,3.92,.38,3.63,0,6.22-2.04,7.77-6.11l1.94-4.97-14.08-35.08Z" style="fill:#5f6770;"/></g><g style="opacity:.8;"><path d="M867.16,224.31c0,4.75-3.73,8.48-8.58,8.48s-8.64-3.73-8.64-8.48,3.83-8.37,8.64-8.37,8.58,3.73,8.58,8.37Zm-15.08,0c0,3.73,2.76,6.69,6.54,6.69s6.39-2.96,6.39-6.64-2.71-6.74-6.44-6.74-6.49,3.01-6.49,6.69Zm5.16,4.39h-1.94v-8.37c.77-.15,1.84-.26,3.22-.26,1.58,0,2.3,.26,2.91,.61,.46,.36,.82,1.02,.82,1.84,0,.92-.71,1.63-1.74,1.94v.1c.82,.31,1.28,.92,1.53,2.04,.26,1.28,.41,1.79,.61,2.09h-2.09c-.26-.31-.41-1.07-.66-2.04-.15-.92-.66-1.33-1.74-1.33h-.92v3.37Zm.05-4.75h.92c1.07,0,1.94-.36,1.94-1.23,0-.77-.56-1.28-1.79-1.28-.51,0-.87,.05-1.07,.1v2.4Z" style="fill:#5f6770;"/></g><g><path d="M317.74,297c-3.09-1.63-6.02-3.82-8.3-6.67-2.36-2.85-4.39-6.1-5.62-9.84-1.38-3.74-2.12-7.89-2.12-12.04,0-25.37,21.24-39.2,18.88-64.9,0-1.55-.33-2.93-.73-4.23-.49-1.38-1.14-2.52-1.95-3.42,3.09,1.63,6.02,3.82,8.3,6.67,2.36,2.85,4.39,6.1,5.62,9.84,1.22,3.74,2.12,7.89,2.12,12.04,0,21.96-20.1,38.14-20.1,61.64,0,2.11,.41,4.23,1.06,6.02,.81,1.71,1.63,3.42,2.85,4.88" style="fill:#5f6770;"/><polygon points="394.16 271.14 394.16 247.55 372.27 247.55 372.27 271.14 362.91 271.14 362.91 217.87 372.27 217.87 372.27 240.07 394.16 240.07 394.16 217.87 403.44 217.87 403.44 271.14 394.16 271.14" style="fill:#5f6770;"/><path d="M417.6,254.96c.49,7.81,4.56,9.68,10.91,9.68,5.53,0,10.42-.57,14.49-1.06l.73,6.59c-4.48,.73-9.85,1.55-17.58,1.55-13.67,0-17.25-8.86-17.25-20.98,0-14.72,4.56-20.98,18.15-20.98,14.73,0,17.82,7.73,17.82,19.92,0,1.06,0,1.95-.08,2.93-4.56,.98-14.41,1.79-20.18,2.11l-7,.24Zm7.98-6.18c2.93-.08,7.73-.57,10.58-.98,0-.57,.08-1.3,.08-1.95,0-6.18-2.2-9.68-9.03-9.68-8.71,0-9.85,5.37-9.85,12.77l8.22-.16Z" style="fill:#5f6770;"/><path d="M449.51,259.02c0-7.16,3.17-11.55,10.99-12.77,4.48-.73,9.36-.98,14.41-1.06,0-5.61-2.6-8.46-8.71-8.46-4.88,0-9.93,.49-14.16,1.06l-.73-6.42c4.48-.73,9.69-1.55,15.79-1.55,8.87,0,16.36,2.36,16.36,12.77v18.14c0,2.68-.08,5.04-.33,7.48-4.56,2.6-10.58,3.5-18.31,3.5-11.15,0-15.3-4.31-15.3-12.69m25.15-8.13c-3.5,.08-7.73,.08-11.15,1.06-4.23,1.06-5.86,2.2-5.86,6.99,0,5.04,2.85,6.42,8.06,6.42,2.69,0,5.94-.08,8.46-1.3,.08-1.63,.33-3.5,.33-5.53v-7.56h.08l.08-.08h0Z" style="fill:#5f6770;"/><path d="M490.36,214.54h8.79v45.62c0,3.74,.98,6.42,2.93,9.27l-7.65,3.5c-2.69-2.93-4.23-6.67-4.23-12.28l.16-46.11h0Z" style="fill:#5f6770;"/><path d="M530.08,271.14c-1.95,.33-4.31,.57-6.1,.57-8.3,0-11.72-3.5-11.72-11.14v-23.75h-6.76v-6.42h6.76v-10.08l8.79-1.55v11.47h8.46v6.42h-8.46v23.1c0,3.82,1.63,5.12,5.53,5.12,1.06,0,2.12,0,3.17-.08l.33,6.34Z" style="fill:#5f6770;"/><path d="M571.18,271.14h-8.79v-25.13c0-6.59-1.14-9.27-9.69-9.27-2.69,0-5.53,.57-7.73,1.63v32.77h-8.79v-56.52h8.79v16.75c2.93-.98,6.43-1.55,10.09-1.55,14.41,0,15.95,6.67,15.95,15.21v26.11h.16Z" style="fill:#5f6770;"/><path d="M614.89,225.68c-3.26-.57-6.76-.98-10.58-.98-14.32,0-14.41,8.3-14.41,19.44s.08,19.44,14.41,19.44c3.5,0,7.16-.33,10.58-.98l.98,7.16c-3.42,.98-8.22,1.55-13.35,1.55-17.58,0-21.89-8.3-21.89-27.16s4.31-27.16,21.89-27.16c5.37,0,9.93,.57,13.35,1.55l-.98,7.16Z" style="fill:#5f6770;"/><path d="M621.31,259.02c0-7.16,3.17-11.55,10.99-12.77,4.48-.73,9.36-.98,14.41-1.06,0-5.61-2.6-8.46-8.71-8.46-4.88,0-9.93,.49-14.16,1.06l-.73-6.42c4.48-.73,9.69-1.55,15.79-1.55,8.87,0,16.36,2.36,16.36,12.77v18.14c0,2.68-.08,5.04-.33,7.48-4.56,2.6-10.58,3.5-18.31,3.5-10.99,0-15.3-4.31-15.3-12.69m25.39-8.13c-3.5,.08-7.73,.08-11.15,1.06-4.23,1.06-5.86,2.2-5.86,6.99,0,5.04,2.85,6.42,8.06,6.42,2.69,0,5.94-.08,8.46-1.3,.08-1.63,.33-3.5,.33-5.53v-7.56h.08l.08-.08h0Z" style="fill:#5f6770;"/><path d="M684.23,271.14c-1.95,.33-4.31,.57-6.1,.57-8.3,0-11.72-3.5-11.72-11.14v-23.75h-6.76v-6.42h6.76v-10.08l8.79-1.55v11.47h8.46v6.42h-8.71v23.1c0,3.82,1.63,5.12,5.53,5.12,1.06,0,2.12,0,3.17-.08l.57,6.34Z" style="fill:#5f6770;"/><path d="M690.49,259.02c0-7.16,3.17-11.55,10.99-12.77,4.48-.73,9.36-.98,14.41-1.06,0-5.61-2.6-8.46-8.71-8.46-4.88,0-9.93,.49-14.16,1.06l-.73-6.42c4.48-.73,9.69-1.55,15.79-1.55,8.87,0,16.36,2.36,16.36,12.77v18.14c0,2.68-.08,5.04-.33,7.48-4.56,2.6-10.58,3.5-18.31,3.5-11.07,0-15.3-4.31-15.3-12.69m25.47-8.13c-3.5,.08-7.73,.08-11.15,1.06-4.23,1.06-5.86,2.2-5.86,6.99,0,5.04,2.85,6.42,8.06,6.42,2.69,0,5.94-.08,8.46-1.3,.08-1.63,.33-3.5,.33-5.53v-7.56h.08l.08-.08h0Z" style="fill:#5f6770;"/><path d="M729.88,214.54h8.79v45.62c0,3.74,.98,6.42,2.93,9.27l-7.65,3.5c-2.69-2.93-4.23-6.67-4.23-12.28v-46.11h.16Z" style="fill:#5f6770;"/><polygon points="765.12 257.56 773.83 230.23 782.7 230.23 763.74 286.1 754.95 286.1 761.14 268.46 744.78 230.23 753.89 230.23 765.12 257.56" style="fill:#5f6770;"/><path d="M804.6,259.83c0-4.55-4.23-5.04-8.06-6.18-6.59-1.95-12.78-3.74-12.78-12.52s6.19-11.47,14.41-11.47c5.62,0,9.69,.49,14.41,1.63l-.98,6.42c-3.17-.57-6.59-1.06-10.09-1.06-3.26,0-9.28,0-9.28,4.23s4.88,5.04,8.3,6.18c7,2.36,12.61,3.74,12.61,12.61,0,9.35-7,12.04-15.95,12.04-4.31,0-9.85-.57-14.16-1.63l.98-6.59c3.17,.57,7.65,1.14,10.91,1.14,3.5,0,9.69,.16,9.69-4.8" style="fill:#5f6770;"/><path d="M843.17,271.14c-1.95,.33-4.31,.57-6.1,.57-8.3,0-11.72-3.5-11.72-11.14v-23.75h-6.76v-6.42h6.76v-10.08l8.79-1.55v11.47h8.46v6.42h-8.46v23.1c0,3.82,1.63,5.12,5.53,5.12,1.06,0,2.12,0,3.17-.08l.33,6.34Z" style="fill:#5f6770;"/><path d="M336.79,295.54c-2.12-1.06-4.07-2.6-5.62-4.47-1.63-1.87-2.93-4.15-3.83-6.67-.9-2.52-1.46-5.2-1.46-8.13,0-17.08,15.63-26.76,13.18-48.71,3.01,2.68,5.53,7.56,7,11.14,.9,2.52,1.46,5.2,1.46,8.13,0,14.72-13.43,25.45-13.43,41.39,0,1.46,.24,2.85,.73,4.07,.49,1.3,1.22,2.36,1.95,3.25" style="fill:#5f6770; opacity:.75;"/><path d="M297.56,266.58c-2.12-1.06-4.07-2.6-5.62-4.47-1.63-1.87-2.93-4.15-3.83-6.67-.9-2.52-1.46-5.2-1.46-8.13,0-17.08,15.63-26.76,13.18-48.71,3.01,2.68,5.53,7.56,7,11.14,.9,2.52,1.46,5.2,1.46,8.13,0,14.72-13.43,25.45-13.43,41.39,0,1.46,.24,2.85,.73,4.07,.49,1.22,1.14,2.36,1.95,3.25" style="fill:#5f6770; opacity:.75;"/></g></g><g><g id="bM9j5v"><g><path d="M693.56,103.59c3.97-7.15,7.8-14.07,11.64-21,10.55-19.06,21.14-38.09,31.6-57.2,1.87-3.42,4.42-4.96,8.22-4.9,4.8,.07,9.6,.07,14.4-.03,1.33-.03,1.48,.42,1.48,1.58-.03,22.72-.02,45.44-.02,68.16,0,19.69-.01,39.38,.03,59.06,0,1.24-.24,1.65-1.58,1.63-6.01-.08-12.03-.09-18.05,0-1.39,.02-1.69-.33-1.69-1.7,.08-27.96,.11-55.92,.15-83.88,0-.58,0-1.15,0-2.33-.55,.97-.81,1.42-1.06,1.87-11.54,20.9-23.07,41.8-34.62,62.69-3.31,5.99-9.94,8.08-15.81,5.03-2.24-1.16-3.73-3.01-4.94-5.18-11.67-20.89-23.37-41.76-35.06-62.64-.32-.57-.66-1.14-1.28-2.23v2.18c0,28.13-.01,56.25,.03,84.38,0,1.38-.22,1.84-1.74,1.82-6.07-.11-12.14-.07-18.21-.02-1.09,0-1.35-.29-1.35-1.36,.03-42.57,.02-85.15,.03-127.72,0-.59-.29-1.36,.86-1.33,5.84,.16,11.69-.23,17.54,.23,2.52,.2,4.14,1.55,5.31,3.66,5.67,10.19,11.35,20.38,17.02,30.56,8.99,16.15,17.99,32.29,27.09,48.65Z" style="fill:#5f6770;"/><path d="M567.13,94.47c14.2,18.45,27.59,37.36,41.51,55.92-.66,.44-1.22,.27-1.74,.27-5.9,.01-11.81-.11-17.71,.05-4.8,.13-8.32-1.78-11.1-5.61-10.48-14.38-21.08-28.68-31.53-43.08-1.64-2.26-3.56-3.25-6.27-3.16-2.65,.09-5.3,.09-7.94-.01-1.29-.05-1.63,.3-1.63,1.61,.05,16.1,0,32.2,.07,48.3,0,1.61-.4,1.97-1.97,1.94-6.4-.1-12.8-.07-19.2-.02-1.15,0-1.62-.16-1.62-1.49,.04-42.46,.04-84.91,.01-127.37,0-1.11,.23-1.51,1.44-1.5,14.13,.08,28.25-.05,42.38,.2,8.76,.16,17.35,1.63,25.21,5.82,10.87,5.79,16.65,15.08,17.54,27.18,1.46,19.94-8.27,34.26-27.24,40.79-.09,.03-.16,.12-.2,.14Zm-25.63-54.7c-3.09,0-6.18,.04-9.27-.02-1.08-.02-1.53,.16-1.52,1.41,.05,12.68,.04,25.35,.01,38.03,0,.95,.15,1.35,1.24,1.34,5.73-.09,11.47,0,17.2-.17,4.21-.12,8.3-1.07,12.09-3,7.5-3.81,11.69-11.76,10.75-20.3-.94-8.52-5.33-13.38-14.25-15.81-5.33-1.45-10.78-1.5-16.25-1.47Z" style="fill:#5f6770;"/><path d="M889.3,65.7c-.14,10.85,.51,24.33-.23,37.76-1.41,25.35-18.07,44.88-43.59,48.27-15.25,2.02-29.6-.59-41.99-10.38-10.76-8.49-16.36-19.93-18.35-33.29-.54-3.61-.66-7.24-.66-10.89,.01-25.04,.02-50.08-.02-75.12,0-1.33,.25-1.76,1.68-1.74,6.51,.09,13.03,.08,19.54,0,1.31-.01,1.63,.35,1.63,1.64-.04,25.43-.01,50.85-.04,76.28,0,5.8,.74,11.44,3.18,16.74,4.61,10.01,12.65,15.33,23.49,16.28,7.9,.69,15.45-.63,21.74-5.95,6.16-5.2,9.17-12.09,10.28-19.93,.35-2.47,.39-4.94,.39-7.43,0-25.26,.01-50.52-.03-75.78,0-1.39,.23-1.88,1.77-1.86,6.57,.1,13.14,.08,19.7,.01,1.26-.01,1.55,.35,1.55,1.57-.04,13.73-.03,27.47-.03,43.8Z" style="fill:#5f6770;"/><path d="M488.41,150.42c-.38,.38-.79,.25-1.15,.25-5.24,0-10.49,.04-15.73,0-4.75-.04-7.23-1.76-8.92-6.17-3.35-8.72-6.7-17.45-9.99-26.19-.41-1.08-.89-1.5-2.11-1.5-16.17,.05-32.34,.05-48.52,0-1.16,0-1.62,.39-2,1.4-3.27,8.63-6.59,17.25-9.9,25.87-1.78,4.63-4.49,6.55-9.39,6.58-5.57,.03-11.13,0-16.9,0,2.27-5.68,4.47-11.18,6.67-16.68,14.91-37.36,29.83-74.73,44.71-112.1,.45-1.14,.97-1.58,2.24-1.56,6.07,.08,12.14,.06,18.21,.01,.97,0,1.43,.29,1.79,1.21,16.87,42.62,33.76,85.23,50.65,127.85,.14,.35,.24,.71,.34,1.03Zm-43.49-51.93c-6.25-16-12.41-31.8-18.72-47.97-6.25,16.16-12.38,32.01-18.55,47.97h37.27Z" style="fill:#5f6770;"/><path d="M945.12,152.29c-16.6-.04-30.25-6.8-41.86-18.26-.63-.62-.69-1.02-.2-1.76,1.92-2.89,3.71-5.86,5.63-8.75,2.37-3.59,5.38-4.44,9.29-2.7,2.07,.92,3.91,2.25,5.77,3.52,5.21,3.57,10.55,6.87,17.04,7.5,7.4,.73,14.56,.26,20.74-4.6,9.37-7.37,8.44-21.72-1.81-27.69-5-2.91-10.62-4.19-16.06-5.93-5.5-1.76-11.07-3.35-16.24-5.97-13.81-7.01-19.74-19.03-18.88-34,.77-13.33,9.91-29.34,30.87-33.45,17.81-3.49,33.63,.86,47.17,13.12,.86,.78,.96,1.3,.38,2.31-1.5,2.62-2.83,5.35-4.29,7.99-2.6,4.72-6.37,5.78-11.08,3.12-2.97-1.68-5.82-3.57-8.96-4.93-7.35-3.18-14.87-3.57-22.39-.83-7.11,2.6-11.08,9.83-9.66,17.04,.72,3.65,3.12,6.12,5.98,8.21,3.83,2.81,8.26,4.33,12.68,5.87,6.28,2.19,12.7,4,18.83,6.61,8.18,3.48,15.08,8.45,19.04,16.73,2.75,5.75,3.2,11.89,2.72,18.09-1.05,13.77-7.11,24.72-18.98,32.1-7.85,4.88-16.57,6.69-25.73,6.65Z" style="fill:#5f6770;"/></g></g><path d="M202.44,59.1V3.67c-4.46-.27-8.96-.48-13.52-.58-2.51-.05-5.04-.09-7.58-.09C89.2,3,14.5,39.4,14.5,84.31c0,14.98,8.35,29.01,22.86,41.07-21.73,14.4-27.79,24.73-27.34,28.73,.72,6.39,8.85,8.17,8.85,8.17,0,0-9.89-10.6,24.01-32.58,29.97,21.67,80.8,35.93,138.46,35.93s106.25-13.66,136.45-34.54l-40.62-29.78c-24.55,16.14-63.9,28.3-100.6,28.3-40.62,0-74.85-6.78-97.17-19.5,21.2-9.81,49.51-21.05,87.25-33.75,7.78-2.62,15.19-5.01,22.27-7.21v52.74h13.52v-56.82c112.1-32.77,130.02-11.1,130.02-11.1,4.15-10.59-30.08-22.17-130.02,5.14Zm-38.1,11.32c-39.52,12.64-69.34,24.6-91.72,35.35-13.45-9.55-21.08-21.83-21.08-36.57,0-30.81,55.98-60.39,125.04-60.39,4.17,0,8.28,.12,12.34,.34V62.91c-7.83,2.28-16.01,4.77-24.59,7.51Z" style="fill:#7ea242;"/></g></svg>