<?xml version="1.0" encoding="UTF-8"?>
<svg id="Layer_1" data-name="Layer 1" xmlns="http://www.w3.org/2000/svg" xmlns:xlink="http://www.w3.org/1999/xlink" version="1.1" viewBox="0 0 2386 585.7">
  <defs>
    <style>
      .cls-1 {
        clip-path: url(#clippath);
      }

      .cls-2 {
        fill: none;
      }

      .cls-2, .cls-3, .cls-4, .cls-5, .cls-6, .cls-7, .cls-8, .cls-9, .cls-10 {
        stroke-width: 0px;
      }

      .cls-11 {
        opacity: 0;
      }

      .cls-12 {
        opacity: .1;
      }

      .cls-3 {
        fill: url(#linear-gradient);
      }

      .cls-4 {
        fill: #8dc86e;
      }

      .cls-5 {
        fill: #65ad5b;
      }

      .cls-6 {
        fill: #25a2c0;
      }

      .cls-13 {
        clip-path: url(#clippath-1);
      }

      .cls-14 {
        clip-path: url(#clippath-4);
      }

      .cls-15 {
        clip-path: url(#clippath-3);
      }

      .cls-16 {
        clip-path: url(#clippath-2);
      }

      .cls-17 {
        clip-path: url(#clippath-7);
      }

      .cls-18 {
        clip-path: url(#clippath-8);
      }

      .cls-19 {
        clip-path: url(#clippath-6);
      }

      .cls-20 {
        clip-path: url(#clippath-5);
      }

      .cls-21 {
        clip-path: url(#clippath-9);
      }

      .cls-7 {
        fill: #046938;
      }

      .cls-22 {
        clip-path: url(#clippath-60);
      }

      .cls-23 {
        clip-path: url(#clippath-20);
      }

      .cls-24 {
        clip-path: url(#clippath-21);
      }

      .cls-25 {
        clip-path: url(#clippath-24);
      }

      .cls-26 {
        clip-path: url(#clippath-23);
      }

      .cls-27 {
        clip-path: url(#clippath-22);
      }

      .cls-28 {
        clip-path: url(#clippath-25);
      }

      .cls-29 {
        clip-path: url(#clippath-44);
      }

      .cls-30 {
        clip-path: url(#clippath-45);
      }

      .cls-31 {
        clip-path: url(#clippath-40);
      }

      .cls-32 {
        clip-path: url(#clippath-42);
      }

      .cls-33 {
        clip-path: url(#clippath-41);
      }

      .cls-34 {
        clip-path: url(#clippath-47);
      }

      .cls-35 {
        clip-path: url(#clippath-43);
      }

      .cls-36 {
        clip-path: url(#clippath-46);
      }

      .cls-37 {
        clip-path: url(#clippath-48);
      }

      .cls-38 {
        clip-path: url(#clippath-49);
      }

      .cls-39 {
        clip-path: url(#clippath-27);
      }

      .cls-40 {
        clip-path: url(#clippath-28);
      }

      .cls-41 {
        clip-path: url(#clippath-26);
      }

      .cls-42 {
        clip-path: url(#clippath-29);
      }

      .cls-43 {
        clip-path: url(#clippath-34);
      }

      .cls-44 {
        clip-path: url(#clippath-35);
      }

      .cls-45 {
        clip-path: url(#clippath-36);
      }

      .cls-46 {
        clip-path: url(#clippath-37);
      }

      .cls-47 {
        clip-path: url(#clippath-39);
      }

      .cls-48 {
        clip-path: url(#clippath-33);
      }

      .cls-49 {
        clip-path: url(#clippath-32);
      }

      .cls-50 {
        clip-path: url(#clippath-30);
      }

      .cls-51 {
        clip-path: url(#clippath-38);
      }

      .cls-52 {
        clip-path: url(#clippath-31);
      }

      .cls-53 {
        clip-path: url(#clippath-53);
      }

      .cls-54 {
        clip-path: url(#clippath-54);
      }

      .cls-55 {
        clip-path: url(#clippath-50);
      }

      .cls-56 {
        clip-path: url(#clippath-51);
      }

      .cls-57 {
        clip-path: url(#clippath-52);
      }

      .cls-58 {
        clip-path: url(#clippath-55);
      }

      .cls-59 {
        clip-path: url(#clippath-56);
      }

      .cls-60 {
        clip-path: url(#clippath-57);
      }

      .cls-61 {
        clip-path: url(#clippath-58);
      }

      .cls-62 {
        clip-path: url(#clippath-59);
      }

      .cls-63 {
        clip-path: url(#clippath-14);
      }

      .cls-64 {
        clip-path: url(#clippath-13);
      }

      .cls-65 {
        clip-path: url(#clippath-12);
      }

      .cls-66 {
        clip-path: url(#clippath-10);
      }

      .cls-67 {
        clip-path: url(#clippath-15);
      }

      .cls-68 {
        clip-path: url(#clippath-17);
      }

      .cls-69 {
        clip-path: url(#clippath-16);
      }

      .cls-70 {
        clip-path: url(#clippath-19);
      }

      .cls-71 {
        clip-path: url(#clippath-11);
      }

      .cls-72 {
        clip-path: url(#clippath-18);
      }

      .cls-8 {
        opacity: .8;
      }

      .cls-8, .cls-9 {
        fill: #5f6770;
      }

      .cls-73 {
        opacity: .2;
      }

      .cls-74 {
        opacity: .2;
      }

      .cls-75 {
        opacity: .3;
      }

      .cls-76 {
        opacity: .3;
      }

      .cls-77 {
        opacity: .4;
      }

      .cls-78 {
        opacity: .4;
      }

      .cls-79 {
        opacity: .6;
      }

      .cls-80 {
        opacity: .5;
      }

      .cls-81 {
        opacity: .6;
      }

      .cls-82 {
        opacity: .8;
      }

      .cls-10 {
        fill: #fff;
      }
    </style>
    <clipPath id="clippath">
      <rect class="cls-2" x="188.5" y="127.6" width="206.9" height="87.3"/>
    </clipPath>
    <clipPath id="clippath-1">
      <rect class="cls-2" x="188.5" y="127.6" width="206.9" height="87.3"/>
    </clipPath>
    <clipPath id="clippath-2">
      <rect class="cls-2" x="207" y="273.6" width="189.3" height="89.2"/>
    </clipPath>
    <clipPath id="clippath-3">
      <rect class="cls-2" x="207" y="273.6" width="189.3" height="89.2"/>
    </clipPath>
    <clipPath id="clippath-4">
      <rect class="cls-2" x="236.3" y="75.6" width="24.5" height="18"/>
    </clipPath>
    <clipPath id="clippath-5">
      <rect class="cls-2" x="236.3" y="75.6" width="24.5" height="18"/>
    </clipPath>
    <clipPath id="clippath-6">
      <rect class="cls-2" x="218.8" y="82.7" width="24.5" height="24.5"/>
    </clipPath>
    <clipPath id="clippath-7">
      <rect class="cls-2" x="218.8" y="82.7" width="24.5" height="24.5"/>
    </clipPath>
    <clipPath id="clippath-8">
      <rect class="cls-2" x="260.6" y="73.7" width="12" height="6.2"/>
    </clipPath>
    <clipPath id="clippath-9">
      <rect class="cls-2" x="260.6" y="73.7" width="12" height="6.2"/>
    </clipPath>
    <clipPath id="clippath-10">
      <rect class="cls-2" x="201.3" y="96.4" width="24.5" height="24.5"/>
    </clipPath>
    <clipPath id="clippath-11">
      <rect class="cls-2" x="201.3" y="96.4" width="24.5" height="24.5"/>
    </clipPath>
    <clipPath id="clippath-12">
      <rect class="cls-2" x="183.8" y="110.1" width="24.5" height="24.5"/>
    </clipPath>
    <clipPath id="clippath-13">
      <rect class="cls-2" x="183.8" y="110.1" width="24.5" height="24.5"/>
    </clipPath>
    <clipPath id="clippath-14">
      <rect class="cls-2" x="166.3" y="123.7" width="24.5" height="24.5"/>
    </clipPath>
    <clipPath id="clippath-15">
      <rect class="cls-2" x="166.3" y="123.7" width="24.5" height="24.5"/>
    </clipPath>
    <clipPath id="clippath-16">
      <rect class="cls-2" x="148.8" y="137.4" width="24.5" height="24.5"/>
    </clipPath>
    <clipPath id="clippath-17">
      <rect class="cls-2" x="148.8" y="137.4" width="24.5" height="24.5"/>
    </clipPath>
    <clipPath id="clippath-18">
      <rect class="cls-2" x="134" y="150.7" width="22.3" height="24.5"/>
    </clipPath>
    <clipPath id="clippath-19">
      <rect class="cls-2" x="134" y="150.7" width="22.3" height="24.5"/>
    </clipPath>
    <clipPath id="clippath-20">
      <rect class="cls-2" x="256.2" y="88.9" width="24.5" height="24.5"/>
    </clipPath>
    <clipPath id="clippath-21">
      <rect class="cls-2" x="256.2" y="88.9" width="24.5" height="24.5"/>
    </clipPath>
    <clipPath id="clippath-22">
      <rect class="cls-2" x="238.6" y="102.5" width="24.5" height="24.5"/>
    </clipPath>
    <clipPath id="clippath-23">
      <rect class="cls-2" x="238.6" y="102.5" width="24.5" height="24.5"/>
    </clipPath>
    <clipPath id="clippath-24">
      <rect class="cls-2" x="291.9" y="73.6" width="22.6" height="12.5"/>
    </clipPath>
    <clipPath id="clippath-25">
      <rect class="cls-2" x="291.9" y="73.6" width="22.6" height="12.5"/>
    </clipPath>
    <clipPath id="clippath-26">
      <rect class="cls-2" x="273.7" y="75.2" width="24.5" height="24.5"/>
    </clipPath>
    <clipPath id="clippath-27">
      <rect class="cls-2" x="273.7" y="75.2" width="24.5" height="24.5"/>
    </clipPath>
    <clipPath id="clippath-28">
      <rect class="cls-2" x="221.1" y="116.2" width="24.5" height="22.3"/>
    </clipPath>
    <clipPath id="clippath-29">
      <rect class="cls-2" x="221.1" y="116.2" width="24.5" height="22.3"/>
    </clipPath>
    <clipPath id="clippath-30">
      <rect class="cls-2" x="203.6" y="129.9" width="22.4" height="20.8"/>
    </clipPath>
    <clipPath id="clippath-31">
      <rect class="cls-2" x="203.6" y="129.9" width="22.4" height="20.8"/>
    </clipPath>
    <clipPath id="clippath-32">
      <rect class="cls-2" x="186.1" y="143.5" width="21.7" height="22.7"/>
    </clipPath>
    <clipPath id="clippath-33">
      <rect class="cls-2" x="186.1" y="143.5" width="21.7" height="22.7"/>
    </clipPath>
    <clipPath id="clippath-34">
      <rect class="cls-2" x="168.6" y="157.1" width="23.8" height="24.5"/>
    </clipPath>
    <clipPath id="clippath-35">
      <rect class="cls-2" x="168.6" y="157.2" width="23.8" height="24.5"/>
    </clipPath>
    <clipPath id="clippath-36">
      <rect class="cls-2" x="151.5" y="170.5" width="24.5" height="24.5"/>
    </clipPath>
    <clipPath id="clippath-37">
      <rect class="cls-2" x="151.5" y="170.5" width="24.5" height="24.5"/>
    </clipPath>
    <clipPath id="clippath-38">
      <rect class="cls-2" x="276.2" y="108.9" width="24.5" height="17.6"/>
    </clipPath>
    <clipPath id="clippath-39">
      <rect class="cls-2" x="276.2" y="108.9" width="24.5" height="17.6"/>
    </clipPath>
    <clipPath id="clippath-40">
      <rect class="cls-2" x="267" y="122.7" width="8" height="4.2"/>
    </clipPath>
    <clipPath id="clippath-41">
      <rect class="cls-2" x="267" y="122.7" width="8" height="4.2"/>
    </clipPath>
    <clipPath id="clippath-42">
      <rect class="cls-2" x="311.2" y="81.6" width="24.5" height="24.5"/>
    </clipPath>
    <clipPath id="clippath-43">
      <rect class="cls-2" x="311.2" y="81.6" width="24.5" height="24.5"/>
    </clipPath>
    <clipPath id="clippath-44">
      <rect class="cls-2" x="331.1" y="80.8" width="15.9" height="11.4"/>
    </clipPath>
    <clipPath id="clippath-45">
      <rect class="cls-2" x="331.1" y="80.8" width="15.9" height="11.4"/>
    </clipPath>
    <clipPath id="clippath-46">
      <rect class="cls-2" x="293.7" y="95.2" width="24.5" height="24.5"/>
    </clipPath>
    <clipPath id="clippath-47">
      <rect class="cls-2" x="293.7" y="95.2" width="24.5" height="24.5"/>
    </clipPath>
    <clipPath id="clippath-48">
      <rect class="cls-2" x="206.1" y="163.6" width="24.5" height="24.5"/>
    </clipPath>
    <clipPath id="clippath-49">
      <rect class="cls-2" x="206.1" y="163.6" width="24.5" height="24.5"/>
    </clipPath>
    <clipPath id="clippath-50">
      <rect class="cls-2" x="188.6" y="177.2" width="24.5" height="24.5"/>
    </clipPath>
    <clipPath id="clippath-51">
      <rect class="cls-2" x="188.6" y="177.2" width="24.5" height="24.5"/>
    </clipPath>
    <clipPath id="clippath-52">
      <rect class="cls-2" x="175.4" y="190.5" width="20.7" height="24.5"/>
    </clipPath>
    <clipPath id="clippath-53">
      <rect class="cls-2" x="175.4" y="190.5" width="20.7" height="24.5"/>
    </clipPath>
    <clipPath id="clippath-54">
      <rect class="cls-2" x="222.2" y="186.6" width="24.5" height="24.5"/>
    </clipPath>
    <clipPath id="clippath-55">
      <rect class="cls-2" x="222.2" y="186.6" width="24.5" height="24.5"/>
    </clipPath>
    <clipPath id="clippath-56">
      <rect class="cls-2" x="204.7" y="200.3" width="24.5" height="24.5"/>
    </clipPath>
    <clipPath id="clippath-57">
      <rect class="cls-2" x="204.7" y="200.3" width="24.5" height="24.5"/>
    </clipPath>
    <clipPath id="clippath-58">
      <rect class="cls-2" x="187.6" y="213.6" width="24.5" height="24.5"/>
    </clipPath>
    <clipPath id="clippath-59">
      <rect class="cls-2" x="187.6" y="213.6" width="24.5" height="24.5"/>
    </clipPath>
    <clipPath id="clippath-60">
      <polygon class="cls-2" points="1718.5 65.1 1711.2 79.1 1816.1 79.1 1807.1 65.1 1718.5 65.1"/>
    </clipPath>
    <linearGradient id="linear-gradient" x1="1549.5" y1="846.3" x2="1560" y2="846.3" gradientTransform="translate(-17777.2 10708.8) scale(12.6 -12.6)" gradientUnits="userSpaceOnUse">
      <stop offset="0" stop-color="#12a2c0"/>
      <stop offset=".2" stop-color="#1fa3b0"/>
      <stop offset=".6" stop-color="#41a886"/>
      <stop offset="1" stop-color="#65ad5b"/>
      <stop offset="1" stop-color="#65ad5b"/>
    </linearGradient>
  </defs>
  <g class="cls-82">
    <g>
      <path class="cls-9" d="M1362.1,469.2c6.9,0,12.2,2.3,16,7,3.8,4.7,5.7,11.3,5.7,19.9s-1.9,15.2-5.7,20c-3.8,4.7-9.1,7.1-15.9,7.1s-6.5-.6-9.3-1.9c-2.8-1.3-5.2-3.2-7.1-5.8h-.6l-1.7,6.7h-5.7v-74h7.9v18c0,4-.1,7.6-.4,10.8h.4c3.7-5.2,9.1-7.8,16.4-7.8ZM1360.9,475.8c-5.4,0-9.3,1.5-11.7,4.6-2.4,3.1-3.6,8.3-3.6,15.6s1.2,12.6,3.7,15.7c2.4,3.2,6.4,4.7,11.8,4.7s8.5-1.8,10.9-5.3c2.4-3.5,3.6-8.6,3.6-15.2s-1.2-11.8-3.6-15.2c-2.4-3.3-6.1-5-11-5Z"/>
      <path class="cls-9" d="M1387.9,470h8.5l11.4,29.7c2.5,6.8,4.1,11.7,4.7,14.7h.4c.4-1.6,1.3-4.4,2.6-8.3,1.3-3.9,5.6-16,12.9-36.1h8.5l-22.4,59.4c-2.2,5.9-4.8,10-7.8,12.5-3,2.5-6.6,3.7-10.9,3.7s-4.8-.3-7.1-.8v-6.3c1.7.4,3.7.6,5.9.6,5.4,0,9.3-3,11.6-9.1l2.9-7.4-21-52.4Z"/>
    </g>
    <g class="cls-82">
      <path class="cls-9" d="M2335.1,453.7c0,7.1-5.6,12.7-12.8,12.7s-12.9-5.6-12.9-12.7,5.7-12.5,12.9-12.5,12.8,5.6,12.8,12.5ZM2312.6,453.7c0,5.6,4.1,10,9.8,10s9.5-4.4,9.5-9.9-4-10.1-9.6-10.1-9.7,4.5-9.7,10ZM2320.3,460.2h-2.9v-12.5c1.1-.2,2.7-.4,4.8-.4s3.4.4,4.4.9c.7.5,1.2,1.5,1.2,2.7s-1.1,2.4-2.6,2.9v.2c1.2.5,1.9,1.4,2.3,3.1.4,1.9.6,2.7.9,3.1h-3.1c-.4-.5-.6-1.6-1-3.1-.2-1.4-1-2-2.6-2h-1.4v5ZM2320.4,453.2h1.4c1.6,0,2.9-.5,2.9-1.8s-.8-1.9-2.7-1.9-1.3,0-1.6.2v3.6Z"/>
    </g>
    <g>
      <path class="cls-9" d="M1514.2,562.3c-4.6-2.4-9-5.7-12.4-10-3.5-4.3-6.6-9.1-8.4-14.7-2.1-5.6-3.2-11.8-3.2-18,0-37.9,31.7-58.6,28.2-97,0-2.3-.5-4.4-1.1-6.3-.7-2.1-1.7-3.8-2.9-5.1,4.6,2.4,9,5.7,12.4,10,3.5,4.3,6.6,9.1,8.4,14.7,1.8,5.6,3.2,11.8,3.2,18,0,32.8-30,57-30,92.1s.6,6.3,1.6,9c1.2,2.6,2.4,5.1,4.3,7.3"/>
      <polygon class="cls-9" points="1628.4 523.7 1628.4 488.4 1595.7 488.4 1595.7 523.7 1581.7 523.7 1581.7 444.1 1595.7 444.1 1595.7 477.2 1628.4 477.2 1628.4 444.1 1642.2 444.1 1642.2 523.7 1628.4 523.7"/>
      <path class="cls-9" d="M1663.4,499.5c.7,11.7,6.8,14.5,16.3,14.5s15.6-.9,21.6-1.6l1.1,9.8c-6.7,1.1-14.7,2.3-26.3,2.3-20.4,0-25.8-13.2-25.8-31.3s6.8-31.3,27.1-31.3,26.6,11.5,26.6,29.8,0,2.9-.1,4.4c-6.8,1.5-21.5,2.7-30.2,3.2l-10.5.4ZM1675.3,490.2c4.4-.1,11.6-.9,15.8-1.5,0-.9.1-1.9.1-2.9,0-9.2-3.3-14.5-13.5-14.5s-14.7,8-14.7,19.1l12.3-.2Z"/>
      <path class="cls-9" d="M1711.1,505.6c0-10.7,4.7-17.3,16.4-19.1,6.7-1.1,14-1.5,21.5-1.6,0-8.4-3.9-12.6-13-12.6s-14.8.7-21.2,1.6l-1.1-9.6c6.7-1.1,14.5-2.3,23.6-2.3,13.3,0,24.4,3.5,24.4,19.1v27.1c0,4-.1,7.5-.5,11.2-6.8,3.9-15.8,5.2-27.4,5.2-16.7,0-22.9-6.4-22.9-19M1748.6,493.4c-5.2.1-11.6.1-16.7,1.6-6.3,1.6-8.8,3.3-8.8,10.4s4.3,9.6,12,9.6,8.9-.1,12.6-1.9c.1-2.4.5-5.2.5-8.3v-11.3h.2Z"/>
      <path class="cls-9" d="M1772.1,439.1h13.1v68.2c0,5.6,1.5,9.6,4.4,13.9l-11.4,5.2c-4-4.4-6.3-10-6.3-18.3l.2-68.9h0Z"/>
      <path class="cls-9" d="M1831.5,523.7c-2.9.5-6.4.9-9.1.9-12.4,0-17.5-5.2-17.5-16.6v-35.5h-10.1v-9.6h10.1v-15.1l13.1-2.3v17.1h12.6v9.6h-12.6v34.5c0,5.7,2.4,7.7,8.3,7.7s3.2,0,4.7-.1l.5,9.5Z"/>
      <path class="cls-9" d="M1892.9,523.7h-13.1v-37.5c0-9.8-1.7-13.9-14.5-13.9s-8.3.9-11.6,2.4v49h-13.1v-84.4h13.1v25c4.4-1.5,9.6-2.3,15.1-2.3,21.5,0,23.8,10,23.8,22.7v39h.2Z"/>
      <path class="cls-9" d="M1958.2,455.7c-4.9-.9-10.1-1.5-15.8-1.5-21.4,0-21.5,12.4-21.5,29s.1,29,21.5,29,10.7-.5,15.8-1.5l1.5,10.7c-5.1,1.5-12.3,2.3-19.9,2.3-26.3,0-32.7-12.4-32.7-40.6s6.4-40.6,32.7-40.6,14.8.9,19.9,2.3l-1.5,10.7Z"/>
      <path class="cls-9" d="M1967.8,505.6c0-10.7,4.7-17.3,16.4-19.1,6.7-1.1,14-1.5,21.5-1.6,0-8.4-3.9-12.6-13-12.6s-14.8.7-21.2,1.6l-1.1-9.6c6.7-1.1,14.5-2.3,23.6-2.3,13.3,0,24.4,3.5,24.4,19.1v27.1c0,4-.1,7.5-.5,11.2-6.8,3.9-15.8,5.2-27.4,5.2-16.4,0-22.9-6.4-22.9-19M2005.7,493.4c-5.2.1-11.6.1-16.7,1.6-6.3,1.6-8.8,3.3-8.8,10.4s4.3,9.6,12,9.6,8.9-.1,12.6-1.9c.1-2.4.5-5.2.5-8.3v-11.3h.2Z"/>
      <path class="cls-9" d="M2061.8,523.7c-2.9.5-6.4.9-9.1.9-12.4,0-17.5-5.2-17.5-16.6v-35.5h-10.1v-9.6h10.1v-15.1l13.1-2.3v17.1h12.6v9.6h-13v34.5c0,5.7,2.4,7.7,8.3,7.7s3.2,0,4.7-.1l.9,9.5Z"/>
      <path class="cls-9" d="M2071.1,505.6c0-10.7,4.7-17.3,16.4-19.1,6.7-1.1,14-1.5,21.5-1.6,0-8.4-3.9-12.6-13-12.6s-14.8.7-21.2,1.6l-1.1-9.6c6.7-1.1,14.5-2.3,23.6-2.3,13.3,0,24.4,3.5,24.4,19.1v27.1c0,4-.1,7.5-.5,11.2-6.8,3.9-15.8,5.2-27.4,5.2-16.5,0-22.9-6.4-22.9-19M2109.2,493.4c-5.2.1-11.6.1-16.7,1.6-6.3,1.6-8.8,3.3-8.8,10.4s4.3,9.6,12,9.6,8.9-.1,12.6-1.9c.1-2.4.5-5.2.5-8.3v-11.3h.2Z"/>
      <path class="cls-9" d="M2130,439.1h13.1v68.2c0,5.6,1.5,9.6,4.4,13.9l-11.4,5.2c-4-4.4-6.3-10-6.3-18.3v-68.9h.2Z"/>
      <polygon class="cls-9" points="2182.6 503.4 2195.7 462.5 2208.9 462.5 2180.6 546 2167.4 546 2176.7 519.6 2152.2 462.5 2165.9 462.5 2182.6 503.4"/>
      <path class="cls-9" d="M2241.6,506.8c0-6.8-6.3-7.5-12-9.2-9.8-2.9-19.1-5.6-19.1-18.7s9.2-17.1,21.5-17.1,14.5.7,21.5,2.4l-1.5,9.6c-4.7-.9-9.8-1.6-15.1-1.6s-13.9,0-13.9,6.3,7.3,7.5,12.4,9.2c10.5,3.5,18.8,5.6,18.8,18.8s-10.5,18-23.8,18-14.7-.9-21.2-2.4l1.5-9.8c4.7.9,11.4,1.7,16.3,1.7s14.5.2,14.5-7.2"/>
      <path class="cls-9" d="M2299.3,523.7c-2.9.5-6.4.9-9.1.9-12.4,0-17.5-5.2-17.5-16.6v-35.5h-10.1v-9.6h10.1v-15.1l13.1-2.3v17.1h12.6v9.6h-12.6v34.5c0,5.7,2.4,7.7,8.3,7.7s3.2,0,4.7-.1l.5,9.5Z"/>
      <path class="cls-8" d="M1542.6,560.1c-3.2-1.6-6.1-3.9-8.4-6.7-2.4-2.8-4.4-6.2-5.7-10-1.3-3.8-2.2-7.8-2.2-12.2,0-25.5,23.3-40,19.7-72.8,4.5,4,8.3,11.3,10.5,16.6,1.3,3.8,2.2,7.8,2.2,12.2,0,22-20.1,38-20.1,61.8s.4,4.3,1.1,6.1c.7,1.9,1.8,3.5,2.9,4.9"/>
      <path class="cls-8" d="M1484,516.9c-3.2-1.6-6.1-3.9-8.4-6.7-2.4-2.8-4.4-6.2-5.7-10-1.3-3.8-2.2-7.8-2.2-12.2,0-25.5,23.3-40,19.7-72.8,4.5,4,8.3,11.3,10.5,16.6,1.3,3.8,2.2,7.8,2.2,12.2,0,22-20.1,38-20.1,61.8s.4,4.3,1.1,6.1c.7,1.8,1.7,3.5,2.9,4.9"/>
    </g>
  </g>
  <g>
    <path class="cls-4" d="M835.1,152.3l-6.4,6.9c-21.1-19.1-48-30.9-79.8-30.9-65.6,0-113.6,48-113.6,116.5s48,117.1,113.6,117.1,64.6-13.2,85.2-36.7l6.4,6.9c-22,25-54.3,39.6-91.6,39.6-70.5,0-122.9-52.9-122.9-126.8s52.4-126.3,122.9-126.3,64.2,12.7,86.2,33.8"/>
    <path class="cls-4" d="M748.9,385.1c-37.9,0-72.5-14.1-97.5-39.7-25-25.7-38.8-61.3-38.8-100.5s13.8-74.4,38.8-100c25-25.6,59.6-39.6,97.4-39.6s70.1,13.3,95.4,37.5l9.5,9.1-24.3,26.2-9.8-8.9c-20-18.2-43.8-27.4-70.8-27.4s-53.8,10.1-71.9,28.6c-18.3,18.6-28.4,45.1-28.4,74.6,0,61.1,41.2,103.7,100.2,103.7s57-11.4,75.2-32.2l9.8-11.2,24.6,26.7-8,9c-25.1,28.5-61.2,44.2-101.6,44.2Z"/>
    <path class="cls-4" d="M1065.3,314.4c-22.5,39.7-60.7,57.3-106.3,57.3s-82.3-30.8-82.3-72.9,36.2-65.2,94-65.2h94v-30.9c-.5-46.5-26.9-74.4-80.3-74.4s-61.2,13.7-88.6,35.3l-5.9-7.8c28.4-22.5,58.8-37.2,94.5-37.2,58.3,0,89.6,32.8,90.1,84.2l1,169h-9.8l-.5-57.3ZM1065.3,292.4l-.5-49h-94c-53.9,0-84.2,20.1-84.2,55.4s28.4,63.2,73,63.2,85.7-19.6,105.8-69.5"/>
    <path class="cls-4" d="M1089,385.1h-36.5l-.3-32.8c-23.6,21.6-55.2,32.8-93.2,32.8s-51.1-8.6-68.4-24.1c-17.5-15.8-27.2-37.8-27.2-62.2,0-48.4,41.1-78.5,107.4-78.5h80.7v-17.4c-.2-19.8-5.7-35-16.2-45.1-11.1-10.7-28.2-16.1-50.7-16.1s-51.5,9.7-80.4,32.4l-10.8,8.5-21.9-29.2,10.2-8.1c34.5-27.4,67.2-40.1,102.8-40.1s58,9.2,76,26.6c17.7,17,27.2,41.6,27.5,70.9l1.1,182.5ZM970.8,256.8c-23.8,0-42.8,4.2-55,12.2-10.7,7-15.9,16.8-15.9,29.7,0,30.2,23.4,49.8,59.6,49.8s75.4-18.7,92.4-58.8l-.3-33h-80.8Z"/>
    <path class="cls-4" d="M1127.6,187.6c15.2-43.1,49-68.1,96.9-69v9.8c-57.3,1.5-92.5,40.2-96.9,104.8v138.6h-9.8V118.6h9.8v69Z"/>
    <path class="cls-4" d="M1141,385.1h-36.5V105.2h36.5v34.3c4.6-4.8,9.6-9.2,15-13.1,18.9-13.6,41.8-20.7,68.3-21.2l13.6-.3v36.5l-13,.3c-50,1.3-79.8,33.9-83.9,91.9v151.5Z"/>
    <path class="cls-4" d="M1433.8,325.2l6.9,6.9c-23,25-57.3,39.6-96.5,39.6-70,0-121.9-52.9-121.9-126.8s51.9-126.4,121.9-126.4,117.6,52.9,117.6,126.4h-229.7c0,69,47,117,112.1,117s68.6-13.2,89.6-36.7M1232.6,235.1h219.4c-4.4-63.2-45-106.8-107.7-106.8s-107.2,43.6-111.6,106.8"/>
    <path class="cls-4" d="M1344.2,385.1c-37.6,0-72-14.1-96.8-39.8-24.8-25.6-38.5-61.3-38.5-100.4s13.7-74.5,38.5-100c24.8-25.6,59.2-39.7,96.8-39.7s71.4,14.2,95.1,39.9c23.1,25.2,35.8,60.6,35.8,99.8v13.4h-229c5.5,53.8,44.3,90.3,98.1,90.3s61-11.5,79.7-32.3l9.4-10.5,25.9,25.9-8.7,9.4c-26.2,28.3-63.9,43.9-106.3,43.9ZM1247.8,221.7h189.2c-3.8-21.9-12.8-40.5-26.5-54.3-16.6-16.8-39.5-25.7-66.2-25.7s-50.3,9-68.1,26c-14.7,14.1-24.4,32.5-28.4,54Z"/>
    <polygon class="cls-5" points="1556.9 371.7 1454.6 113.6 1495.2 113.6 1577.5 332.1 1659.3 113.6 1698 113.6 1596.6 371.7 1556.9 371.7"/>
    <rect class="cls-5" x="1743" y="113.6" width="37.7" height="258.1"/>
    <polygon class="cls-5" points="1931.6 371.7 1829.2 113.6 1869.9 113.6 1952.1 332.1 2033.9 113.6 2072.6 113.6 1971.2 371.7 1931.6 371.7"/>
    <path class="cls-5" d="M2331.6,257.6h-210.6c6.9,50.4,43.6,82.3,93.5,82.3s59.7-11.3,79.8-32.3l21.1,22.5c-24.5,27.4-60.7,43.1-103.8,43.1-75.9,0-128.3-53.4-128.3-130.3s52.9-130.3,127.8-130.3c83.2-.5,124.4,57.3,120.5,144.9M2297.4,226.3c-2.5-49.5-35.8-80.8-86.2-80.8s-84.2,31.8-90.1,80.8h176.3Z"/>
    <path class="cls-6" d="M405.8,186.5c-15.5-17.9-30.6-36.2-44.9-55.1l26.6-43.2,36.5,21.7c9.2,6.4,18.6,18.2,0,47-5.6,8.7-11.8,18.7-18.3,29.6"/>
    <path class="cls-6" d="M160.5,186.5c15.5-17.9,30.6-36.2,44.9-55.1l-26.6-43.2-36.5,21.7c-9.2,6.4-18.6,18.2,0,47,5.7,8.7,11.8,18.7,18.3,29.6"/>
    <path class="cls-6" d="M348.7,151.3l-65.6,106.4-65.5-106.4c-20.2,14.2-35.8,34.7-43.5,58.6,31.3,52.1,51.5,95,72.3,149.5,15.9,41.6,57.7,41.6,73.5,0,20.8-54.5,41-97.3,72.3-149.5-7.8-24-23.3-44.5-43.5-58.6"/>
    <g class="cls-80">
      <g class="cls-1">
        <g class="cls-13">
          <path class="cls-7" d="M393.7,214.8h1.7c-14.8-55.6-67.7-93.5-125-86.4-34.9,4.3-64.2,24.3-81.9,52.3,18-26.3,46.7-45,80.7-49.2,57.1-7,109.7,29.4,124.5,83.3"/>
        </g>
      </g>
    </g>
    <g class="cls-80">
      <g class="cls-16">
        <g class="cls-15">
          <path class="cls-7" d="M394.3,273.6c-11.3,44.5-48.9,79.7-97.1,85.6-34,4.2-66.4-7.1-90.2-28.2,24,22.8,57.3,35.2,92.2,30.9,48.5-6,86.2-42.4,97.1-88.3h-2Z"/>
        </g>
      </g>
    </g>
    <path class="cls-5" d="M444.6,273.6h-3.4.3-49c-12.8,42.1-49.4,75-95.8,80.7-62.8,7.7-120.1-37.1-127.8-99.8-7.7-62.8,37.1-120.1,99.8-127.8,58.9-7.3,113,31.7,125.8,88.4,16.5,0,49.3.1,49.3.1,0,0,3.5.2,3.5-3.5-15.8-87.2-97.8-147.7-185-137.1-90.4,11.1-156.7,94.9-145.5,186.3,11.2,91.5,94.8,156.7,186.2,145.5,72.9-9,129.1-63.9,143.2-132.1-.4-.3-1-.5-1.7-.7"/>
    <path class="cls-4" d="M446.8,278.6s0,0,0-.1c.1-.6.3-1.3.4-1.9,0-.5,0-1-.3-1.4-13.4,55.9-60.3,100.4-120.6,107.8-77.6,9.5-148.5-45.8-158-123.4-9.5-77.6,45.8-148.5,123.4-158.1,64.5-7.9,124.5,29,148.3,86.4-26.1-71.3-98.8-118-177.3-108.3-91.5,11.2-156.7,94.8-145.5,186.3,11.2,91.5,94.8,156.7,186.3,145.5,73.1-9,129.3-64.1,143.3-132.6h0Z"/>
    <g class="cls-78">
      <g class="cls-14">
        <g class="cls-20">
          <path class="cls-10" d="M247.1,93.6l13.8-10.8-5.6-7.2c-6.3,1.1-12.6,2.5-18.9,4.2l10.7,13.7Z"/>
        </g>
      </g>
    </g>
    <g class="cls-75">
      <g class="cls-19">
        <g class="cls-17">
          <rect class="cls-10" x="222.3" y="86.3" width="17.5" height="17.4" transform="translate(-9.6 162.2) rotate(-37.9)"/>
        </g>
      </g>
    </g>
    <g class="cls-77">
      <g class="cls-18">
        <g class="cls-21">
          <path class="cls-10" d="M264.6,79.9l8-6.2c-4.3.3-8.3.6-12,1.1l4,5.1Z"/>
        </g>
      </g>
    </g>
    <g class="cls-76">
      <g class="cls-66">
        <g class="cls-71">
          <rect class="cls-10" x="204.8" y="99.9" width="17.5" height="17.4" transform="translate(-21.7 154.2) rotate(-37.9)"/>
        </g>
      </g>
    </g>
    <g class="cls-74">
      <g class="cls-65">
        <g class="cls-64">
          <rect class="cls-10" x="187.3" y="113.6" width="17.5" height="17.4" transform="translate(-33.8 146.4) rotate(-37.9)"/>
        </g>
      </g>
    </g>
    <g class="cls-73">
      <g class="cls-63">
        <g class="cls-67">
          <rect class="cls-10" x="169.8" y="127.3" width="17.5" height="17.4" transform="translate(-45.9 138.6) rotate(-38)"/>
        </g>
      </g>
    </g>
    <g class="cls-12">
      <g class="cls-69">
        <g class="cls-68">
          <rect class="cls-10" x="152.3" y="140.9" width="17.5" height="17.4" transform="translate(-58 130.7) rotate(-37.9)"/>
        </g>
      </g>
    </g>
    <g class="cls-11">
      <g class="cls-72">
        <g class="cls-70">
          <path class="cls-10" d="M156.2,164.4l-10.7-13.7-7.1,5.5c-1.5,2.7-3,5.4-4.5,8.2l8.4,10.8,13.8-10.8Z"/>
        </g>
      </g>
    </g>
    <g class="cls-78">
      <g class="cls-23">
        <g class="cls-24">
          <rect class="cls-10" x="259.7" y="92.4" width="17.5" height="17.4" transform="translate(-5.4 186.4) rotate(-37.9)"/>
        </g>
      </g>
    </g>
    <g class="cls-75">
      <g class="cls-27">
        <g class="cls-26">
          <rect class="cls-10" x="242.1" y="106.1" width="17.5" height="17.4" transform="translate(-17.5 178.6) rotate(-38)"/>
        </g>
      </g>
    </g>
    <g class="cls-81">
      <g class="cls-25">
        <g class="cls-28">
          <path class="cls-10" d="M301.9,86c4.2-3.2,8.4-6.4,12.5-9.6-3.7-.7-7.7-1.4-11.9-1.9-3.7-.5-7.3-.8-10.7-.9,3.3,4.2,6.7,8.3,10.1,12.5"/>
        </g>
      </g>
    </g>
    <g class="cls-77">
      <g class="cls-41">
        <g class="cls-39">
          <polygon class="cls-10" points="284.4 99.7 298.2 88.9 287.5 75.2 273.7 86 284.4 99.7"/>
        </g>
      </g>
    </g>
    <g class="cls-76">
      <g class="cls-40">
        <g class="cls-42">
          <path class="cls-10" d="M240.8,133.7l4.8-3.7-10.7-13.7-13.8,10.8,9,11.6c3.5-1.8,7-3.4,10.7-4.9"/>
        </g>
      </g>
    </g>
    <g class="cls-74">
      <g class="cls-50">
        <g class="cls-52">
          <path class="cls-10" d="M225.9,140.8l-8.5-10.9-13.8,10.8,7.8,10c4.8-3.7,9.7-7,14.5-9.9"/>
        </g>
      </g>
    </g>
    <g class="cls-73">
      <g class="cls-49">
        <g class="cls-48">
          <path class="cls-10" d="M207.8,153.7l-7.9-10.2-13.8,10.8,9.3,11.9c3.9-4.5,8.1-8.7,12.4-12.5"/>
        </g>
      </g>
    </g>
    <g class="cls-12">
      <g class="cls-43">
        <g class="cls-44">
          <polygon class="cls-10" points="192.3 169.9 182.4 157.2 168.6 167.9 179.3 181.7 189.5 173.7 192.3 169.9"/>
        </g>
      </g>
    </g>
    <g class="cls-11">
      <g class="cls-45">
        <g class="cls-46">
          <polygon class="cls-10" points="176 184.2 165.3 170.5 151.5 181.3 162.2 195 176 184.2"/>
        </g>
      </g>
    </g>
    <g class="cls-78">
      <g class="cls-51">
        <g class="cls-47">
          <path class="cls-10" d="M295.7,126.5l5-3.9-10.7-13.7-13.8,10.8,4.8,6.1c5,0,9.9.2,14.8.7"/>
        </g>
      </g>
    </g>
    <g class="cls-76">
      <g class="cls-31">
        <g class="cls-33">
          <path class="cls-10" d="M275.1,126l-2.7-3.4-5.4,4.2c2.7-.4,5.4-.6,8-.8"/>
        </g>
      </g>
    </g>
    <g class="cls-81">
      <g class="cls-32">
        <g class="cls-35">
          <polygon class="cls-10" points="321.9 106.1 335.8 95.3 325 81.6 311.2 92.3 321.9 106.1"/>
        </g>
      </g>
    </g>
    <g class="cls-79">
      <g class="cls-29">
        <g class="cls-30">
          <path class="cls-10" d="M340,92.2l7.1-5.5c-5.6-2.4-11-4.4-15.9-5.8l8.9,11.4Z"/>
        </g>
      </g>
    </g>
    <g class="cls-77">
      <g class="cls-36">
        <g class="cls-34">
          <polygon class="cls-10" points="304.4 119.7 318.2 109 307.5 95.2 293.7 106 304.4 119.7"/>
        </g>
      </g>
    </g>
    <g class="cls-73">
      <g class="cls-37">
        <g class="cls-38">
          <polygon class="cls-10" points="230.6 177.3 219.9 163.6 206.1 174.3 216.8 188.1 230.6 177.3"/>
        </g>
      </g>
    </g>
    <g class="cls-12">
      <g class="cls-55">
        <g class="cls-56">
          <polygon class="cls-10" points="213.1 190.9 202.4 177.2 188.6 188 199.3 201.7 213.1 190.9"/>
        </g>
      </g>
    </g>
    <g class="cls-11">
      <g class="cls-57">
        <g class="cls-53">
          <path class="cls-10" d="M196.1,204.3l-10.7-13.7-4.9,3.8c-1.9,3.8-3.6,7.8-5.1,11.9l6.9,8.8,13.8-10.8Z"/>
        </g>
      </g>
    </g>
    <g class="cls-73">
      <g class="cls-54">
        <g class="cls-58">
          <polygon class="cls-10" points="246.7 200.4 236 186.6 222.2 197.4 232.9 211.2 246.7 200.4"/>
        </g>
      </g>
    </g>
    <g class="cls-12">
      <g class="cls-59">
        <g class="cls-60">
          <polygon class="cls-10" points="229.2 214 218.5 200.3 204.7 211 215.4 224.8 229.2 214"/>
        </g>
      </g>
    </g>
    <g class="cls-11">
      <g class="cls-61">
        <g class="cls-62">
          <polygon class="cls-10" points="212.2 227.3 201.4 213.6 187.6 224.3 198.3 238.1 212.2 227.3"/>
        </g>
      </g>
    </g>
    <g class="cls-22">
      <rect class="cls-3" x="1711.2" y="64" width="104.9" height="19.1"/>
    </g>
  </g>
</svg>