<?xml version="1.0" encoding="UTF-8"?>
<svg id="Layer_1" xmlns="http://www.w3.org/2000/svg" version="1.1" viewBox="0 0 2678.1 764.5">
  <!-- Generator: Adobe Illustrator 29.1.0, SVG Export Plug-In . SVG Version: 2.1.0 Build 142)  -->
  <defs>
    <style>
      .st0 {
        fill: #6c757c;
      }

      .st1 {
        fill: #4474b4;
      }

      .st2 {
        opacity: .8;
      }

      .st3, .st4 {
        fill: #5f6770;
      }

      .st4 {
        opacity: .8;
      }

      .st5 {
        fill: #a9acb0;
      }
    </style>
  </defs>
  <g>
    <path class="st5" d="M597.4,338.9l-232.3-232.6c-2.5-2.5-5.4-4.5-8.6-5.8-3.2-1.3-6.7-2-10.2-2s-7,.7-10.2,2c-3.2,1.3-6.2,3.3-8.6,5.8l-232.4,232.6c-5,5-7.7,11.8-7.7,18.9s2.8,13.8,7.7,18.9l115.9,116,19.4-20-115-115.3,230.6-232,231.7,231.5-115.6,115.6,19.7,19.8,115.6-115.7c5-5,7.7-11.8,7.7-18.9s-2.8-13.8-7.7-18.9"/>
    <path class="st0" d="M364.6,426.1l36.1-33.6c7.5-7.1,13.5-15.5,17.6-25,4.1-9.4,6.3-19.6,6.4-29.9,0-10.3-1.9-20.5-5.9-30-4-9.5-9.8-18.1-17.2-25.3l-19.1,19.1c4.8,4.8,8.7,10.5,11.3,16.7,2.6,6.3,4,13,4,19.8,0,6.8-1.3,13.5-3.9,19.8-2.6,6.3-6.4,12-11.2,16.8l-90.8,87.9c-7.5,7.1-13.6,15.6-17.7,25-4.1,9.4-6.3,19.6-6.4,29.9,0,10.3,1.9,20.5,5.9,30.1,4,9.5,9.9,18.1,17.3,25.3l55.2,54.8,18.9-18.9-55.6-53.9c-4.9-4.9-8.9-10.7-11.6-17.1-2.7-6.4-4.1-13.3-4.1-20.2,0-6.9,1.3-13.8,4-20.2,2.6-6.4,6.5-12.2,11.4-17.2l38.1-38.9c7.1,7,28,28,36.7,36.7,6.3,6.6,10.6,14.8,12.4,23.8h-61.3v22.3h62.1c-1.2,11.5-6.1,22.4-14,30.8l-23.7,20.5,19.7,19.7,22.1-22.5c7.4-7.3,13.2-15.9,17.2-25.4,4-9.5,6.1-19.7,6.1-30.1,0-21.6-6.3-38-25.4-57.1l-34.7-33.9ZM291,393.5c-14.6-14.9-22.8-34.8-22.9-55.6,0-10.3,2-20.5,6-30,4-9.5,9.8-18.2,17.1-25.4l19.1,19.1c-8.1,8-13.4,18.5-14.9,29.7h62.2v22.3h-61.3c.3,4.4,1.4,8.7,3.4,12.7,2,4,4.7,7.5,8,10.4,10.6,10.6,25.3,25.9,25.3,25.9l-17.2,15.6-24.4-24.5"/>
    <path class="st1" d="M379.6,243.1c0-6.6-2-13-5.7-18.5-3.7-5.5-8.9-9.7-15-12.2-6.1-2.5-12.8-3.2-19.3-1.9-6.5,1.3-12.4,4.5-17.1,9.1-4.7,4.7-7.8,10.6-9.1,17-1.3,6.5-.6,13.1,1.9,19.2,2.5,6.1,6.8,11.3,12.3,14.9,5.5,3.7,11.9,5.6,18.5,5.6s8.7-.9,12.8-2.5,7.7-4.1,10.8-7.2c3.1-3.1,5.6-6.8,7.2-10.8,1.7-4,2.5-8.4,2.5-12.8Z"/>
    <g>
      <path class="st0" d="M697.5,462.4h-28.4v-220.4h28.4v220.4Z"/>
      <path class="st0" d="M755.5,314.8c.4,3.7.7,7.9.9,12.6.2,4.7.3,8.6.3,11.7h.9c1.8-4,4.1-7.8,7-11.1,3-3.4,6.4-6.4,10.2-9,3.9-2.6,8.2-4.6,12.7-6.1,4.6-1.4,9.5-2.2,14.3-2.2,7.8-.2,15.5,1.5,22.5,4.8,6.2,3.1,11.5,7.5,15.8,12.9,4.4,5.7,7.5,12.1,9.3,19,2.1,7.6,3.1,15.5,3,23.3v91.5h-27v-81.9c0-5.7-.4-11.4-1.3-17.1-.7-5-2.2-9.9-4.5-14.4-2.2-4.1-5.5-7.5-9.5-9.9-4.7-2.7-10.1-4-15.5-3.7-5.1,0-10.2,1.1-14.8,3.4-4.6,2.3-8.5,5.7-11.5,9.9-7.2,10.3-10.7,22.8-10,35.4v78.5h-27v-115.8c0-4,0-9-.3-15.3,0-6.3-.5-11.7-.9-16.5h25.4Z"/>
      <path class="st0" d="M950.1,338.9h-36.1v76.5c-.6,6.7,1,13.4,4.5,19.1,1.8,2,4.1,3.6,6.7,4.6,2.5,1,5.3,1.4,8,1.1,2.7,0,5.4-.3,8-.9,2.7-.5,5.3-1.3,7.8-2.6l.9,24c-3.5,1.3-7.1,2.3-10.8,3-4,.7-8.1,1.1-12.2,1.1-5.5.4-10.9-.5-16-2.5-5.1-2-9.7-5.1-13.4-9-6.8-7.6-10.2-19.2-10.2-34.6v-79.9h-26.1v-24.2h26.1v-42.4h26.7v42.4h36.1v24.2Z"/>
      <path class="st0" d="M971.1,331.3c0-6.3-.5-11.7-.9-16.5h25.6c.4,3.7.7,8.1.9,12.9.2,4.9.3,9,.3,12h.9c3.6-8.4,9.4-15.7,16.8-21.1,7.2-5.2,15.9-8,24.8-7.9,3.6,0,7.2.3,10.6,1.3l-1.2,27c-4-1.1-8.2-1.6-12.4-1.6-5.6-.2-11.2,1.1-16.2,3.6-5,2.5-9.4,6.2-12.6,10.8-3.3,4.5-5.6,9.7-7,15.1-1.6,5.9-2.3,11.9-2.3,18v77.6h-27v-115.8c0-4,0-9-.2-15.3Z"/>
      <path class="st0" d="M1146.5,366.8c0-11-3-19.2-9-24.5-6.9-5.6-15.7-8.4-24.6-7.9-7.5,0-14.9,1.6-21.7,4.8-6.4,3-12.2,7.2-17,12.3l-14.4-18.7c7-7,15.3-12.5,24.6-16.2,9.9-4,20.5-6,31.1-5.9,8.7-.2,17.3,1.3,25.4,4.5,6.8,2.7,12.8,6.9,17.7,12.3,4.7,5.3,8.2,11.6,10.3,18.4,2.3,7.3,3.5,14.9,3.4,22.5v64.6c0,5,0,10.3.5,15.7.2,4.5.7,9,1.6,13.5h-24.4c-1.5-7-2.3-14.1-2.3-21.2h-.9c-4.7,7.6-11.2,13.9-18.9,18.4-8.3,4.5-17.6,6.8-27,6.5-5.7,0-11.3-.8-16.8-2.3-5.8-1.5-11.2-4.1-16-7.6-5-3.7-9-8.5-11.9-14-3.3-6.7-4.8-14.1-4.5-21.5-.5-9.6,2.6-19.1,8.6-26.6,5.9-6.8,13.4-11.9,21.8-15,9.8-3.6,20.1-5.8,30.5-6.7,11.3-1,22.5-1.5,34.1-1.5l-.2-4ZM1139.9,392c-6.7,0-13.5.3-20.8.9-6.6.5-13.2,1.8-19.5,3.7-5.4,1.6-10.4,4.5-14.5,8.4-1.9,1.9-3.4,4.3-4.4,6.8-1,2.6-1.4,5.3-1.3,8-.1,3.8.7,7.5,2.4,10.9,1.6,2.8,3.8,5.3,6.5,7.1,2.7,1.9,5.8,3.2,9,3.9,3.3.7,6.7,1.1,10.1,1.1,5.5.3,11-.6,16-2.7,5.1-2.1,9.5-5.4,13.1-9.6,7-8.8,10.6-19.8,10.2-31v-7.6h-6.7Z"/>
      <path class="st0" d="M1357.8,331.3c0-6.3-.4-11.7-.9-16.5h25.6c.4,3.7.7,8.1.9,12.9.2,4.9.3,9,.3,12h.8c3.6-8.4,9.4-15.7,16.8-21.1,7.2-5.2,15.9-8,24.8-7.9,3.6,0,7.2.3,10.6,1.3l-1.2,27c-4-1.1-8.2-1.6-12.3-1.6-5.6-.2-11.2,1.1-16.2,3.6-5,2.5-9.4,6.2-12.6,10.8-3.3,4.5-5.6,9.7-7,15.1-1.6,5.9-2.3,11.9-2.3,18v77.6h-27v-115.8c0-4-.2-9-.2-15.3Z"/>
      <path class="st0" d="M1481.5,261.5c0,2.5-.3,5-1.2,7.3-.9,2.3-2.3,4.4-4,6.2-1.6,1.7-3.6,3-5.8,3.9-2.2.9-4.5,1.4-6.9,1.3-2.4,0-4.7-.4-6.9-1.4s-4.1-2.3-5.7-4.1c-1.7-1.8-3-3.8-3.9-6.1s-1.3-4.7-1.2-7.1c-.1-5,1.7-9.8,5.1-13.5,1.6-1.7,3.5-3.1,5.7-4.1,2.2-.9,4.5-1.4,6.9-1.4,2.4,0,4.7.4,6.9,1.4,2.2.9,4.1,2.3,5.8,4.1,1.7,1.8,3.1,3.9,4,6.2s1.4,4.8,1.3,7.2h0ZM1477.2,462.4h-27v-147.6h27v147.6Z"/>
      <path class="st0" d="M1584.3,352.2c-3.1-5.5-7.5-10.2-12.9-13.5-5.6-3.4-12.1-5.2-18.7-5.1-3,0-6.1.4-9,1.1-2.9.7-5.7,1.8-8.2,3.4-2.3,1.5-4.3,3.6-5.7,5.9-1.6,2.7-2.3,5.9-2.2,9-.2,2.8.5,5.6,1.9,8,1.4,2.5,3.4,4.5,5.9,5.8,7.3,3.8,15.2,6.6,23.3,8.3,6.1,1.6,12.2,3.5,18,5.9,5.3,2.1,10.1,5,14.5,8.6,4,3.4,7.3,7.6,9.5,12.3,2.4,5.3,3.6,11,3.4,16.8.3,7.6-1.3,15.2-4.5,22.1-2.9,5.8-7,10.9-12.2,14.8-5.2,3.9-11.1,6.7-17.4,8.3-6.6,1.6-13.3,2.5-20.1,2.5-10.4,0-20.8-2.3-30.3-6.5-9.8-4.3-18.3-11.2-24.6-19.9l19.2-17.8c3.7,6,8.8,11,14.8,14.7,6.3,3.9,13.6,6,21.1,5.9,3.3,0,6.7-.3,9.9-1.1,3.1-.7,6-1.9,8.6-3.6,2.6-1.6,4.7-3.9,6.2-6.5,1.7-3.2,2.4-6.7,2.3-10.3.1-3.1-.7-6.2-2.3-8.9-1.6-2.7-3.9-4.9-6.8-6.3-8.4-4.2-17.3-7.3-26.6-9.4-4.5-1.2-9-2.7-13.9-4.5-4.7-1.7-9-4.2-12.8-7.3-3.9-3.2-7.1-7.2-9.3-11.7-2.5-5.4-3.7-11.3-3.6-17.3-.2-7.1,1.4-14.1,4.5-20.4,2.8-5.5,6.7-10.3,11.6-14,4.9-3.7,10.4-6.4,16.4-8.1,6.2-1.8,12.6-2.7,19-2.7,9.8,0,19.4,2.1,28.3,6.2,8.7,3.8,16,10.1,21.1,18l-18.6,17.2Z"/>
      <path class="st0" d="M1751.9,387.3v4.9c0,1.7,0,3.3-.3,5h-108.2c.2,6,1.5,12,3.9,17.5,2.3,5.3,5.5,10.1,9.6,14.1,4,4,8.7,7.2,13.9,9.4,5.3,2.3,11,3.5,16.8,3.4,8.4.2,16.7-2,23.8-6.5,6.4-4,11.8-9.5,15.8-15.9l19,16.5c-6.5,9.7-15.3,17.7-25.7,23.1-9.6,4.6-20,7.1-30.6,7.4-10.6.3-21.2-1.6-31-5.6-8.5-3.6-16.2-8.9-22.5-15.7-6.6-7.1-11.6-15.4-15-24.5-3.7-10.2-5.6-20.9-5.5-31.8,0-10.7,1.7-21.4,5.3-31.5,3.3-9.2,8.3-17.6,14.8-24.8,6.3-6.8,14-12.3,22.5-16,8.8-3.9,18.3-5.8,27.9-5.8,9.3-.1,18.5,1.7,27,5.3,8,3.4,15.1,8.6,20.7,15.3,5.9,7.1,10.4,15.3,13.1,24.1,3.2,10.3,4.7,21.1,4.5,31.9h0ZM1724.4,375.5c-.2-5.6-1.1-11.1-2.8-16.4-1.5-4.8-3.9-9.3-7.2-13.2-3.2-3.8-7.2-6.9-11.8-9-5.2-2.3-10.8-3.4-16.5-3.3-5.6,0-11.1,1.1-16.2,3.3-4.9,2.1-9.4,5.2-13.2,9-3.7,3.9-6.8,8.3-9,13.2-2.4,5.1-3.8,10.7-4.1,16.4h80.8Z"/>
      <path class="st0" d="M1802.6,299.4h27v65.8h71.8v-65.8h27.3v162.9h-27.3v-72.2h-71.5v72.2h-27l-.2-162.9Z"/>
      <path class="st0" d="M1958.9,299.4h101.6v25.3h-74.3v41.4h70.4v24.4h-70.4v46h78.3v25.8h-105.6v-162.9Z"/>
      <path class="st0" d="M2143.1,299.4h23.6l66.1,162.9h-31.2l-14.4-37.3h-66.5l-13.9,37.3h-30.6l66.8-162.9ZM2177.8,400.2l-23.7-66.3-24,66.3h47.7Z"/>
      <path class="st0" d="M2247.1,299.4h27.3v137.2h65.3v25.8h-92.6v-162.9Z"/>
      <path class="st0" d="M2371.6,324.8h-47.1v-25.3h121.4v25.3h-47.1v137.6h-27.3v-137.6Z"/>
      <path class="st0" d="M2464.5,299.4h27.3v65.8h71.8v-65.8h27.3v162.9h-27.3v-72.2h-71.8v72.2h-27.3v-162.9Z"/>
      <path class="st0" d="M1335.3,357.9c-2.9-9-7.5-17.4-13.5-24.8-6-7.2-13.5-12.9-22-16.8-8.5-3.9-17.8-5.8-27.1-5.7-10.4-.2-20.6,2.4-29.6,7.6-8.1,4.7-14.7,11.4-19.3,19.5h-1.1v-22.9h-26.4v202h27v-76.5h.9c4.8,8.2,11.9,14.9,20.3,19.3,8.5,4.5,17.9,6.9,27.5,6.8,9.8.1,19.5-1.9,28.3-6.1,8.3-3.9,15.6-9.6,21.5-16.6,6-7.4,10.6-15.9,13.5-24.9,3.4-9.8,5.1-20.1,5.1-30.4,0-10.4-1.6-20.7-5-30.5h0ZM1309.7,408.2c-1.8,6.2-4.7,12-8.6,17.1-3.8,5-8.7,9.1-14.2,12-6.1,3.1-12.9,4.7-19.7,4.5-6.5,0-13-1.5-18.8-4.5-5.6-2.8-10.5-6.8-14.5-11.7-4.1-5.1-7.3-10.8-9.3-17-4.4-13.1-4.4-27.4,0-40.5,2.1-6.2,5.2-12,9.3-17.1,3.9-4.9,8.9-9,14.5-11.8,5.8-3,12.3-4.5,18.8-4.5,6.8-.1,13.6,1.4,19.7,4.5,5.6,2.8,10.4,6.9,14.2,11.8,3.9,5.1,6.8,10.9,8.6,17.1,3.9,13,3.9,26.8,0,39.9h0Z"/>
    </g>
  </g>
  <g class="st2">
    <g>
      <path class="st3" d="M1617.9,571.7c6.9,0,12.2,2.3,16,7,3.8,4.7,5.7,11.3,5.7,19.9s-1.9,15.2-5.7,20c-3.8,4.7-9.1,7.1-15.9,7.1s-6.5-.6-9.3-1.9c-2.8-1.3-5.2-3.2-7.1-5.8h-.6l-1.7,6.7h-5.7v-74h7.9v18c0,4-.1,7.6-.4,10.8h.4c3.7-5.2,9.1-7.8,16.4-7.8ZM1616.8,578.3c-5.4,0-9.3,1.5-11.7,4.6-2.4,3.1-3.6,8.3-3.6,15.6s1.2,12.6,3.7,15.7c2.4,3.2,6.4,4.7,11.8,4.7s8.5-1.8,10.9-5.3c2.4-3.5,3.6-8.6,3.6-15.2s-1.2-11.8-3.6-15.2c-2.4-3.3-6.1-5-11-5Z"/>
      <path class="st3" d="M1643.7,572.5h8.5l11.4,29.7c2.5,6.8,4.1,11.7,4.7,14.7h.4c.4-1.6,1.3-4.4,2.6-8.3,1.3-3.9,5.6-16,12.9-36.1h8.5l-22.4,59.4c-2.2,5.9-4.8,10-7.8,12.5-3,2.5-6.6,3.7-10.9,3.7s-4.8-.3-7.1-.8v-6.3c1.7.4,3.7.6,5.9.6,5.4,0,9.3-3,11.6-9.1l2.9-7.4-21-52.4Z"/>
    </g>
    <g class="st2">
      <path class="st3" d="M2590.9,556.2c0,7.1-5.6,12.7-12.8,12.7s-12.9-5.6-12.9-12.7,5.7-12.5,12.9-12.5,12.8,5.6,12.8,12.5ZM2568.4,556.2c0,5.6,4.1,10,9.8,10s9.5-4.4,9.5-9.9-4-10.1-9.6-10.1-9.7,4.5-9.7,10ZM2576.1,562.7h-2.9v-12.5c1.1-.2,2.7-.4,4.8-.4s3.4.4,4.4.9c.7.5,1.2,1.5,1.2,2.7s-1.1,2.4-2.6,2.9v.2c1.2.5,1.9,1.4,2.3,3.1.4,1.9.6,2.7.9,3.1h-3.1c-.4-.5-.6-1.6-1-3.1-.2-1.4-1-2-2.6-2h-1.4v5ZM2576.2,555.6h1.4c1.6,0,2.9-.5,2.9-1.8s-.8-1.9-2.7-1.9-1.3,0-1.6.2v3.6Z"/>
    </g>
    <g>
      <path class="st3" d="M1770,664.8c-4.6-2.4-9-5.7-12.4-10-3.5-4.3-6.6-9.1-8.4-14.7-2.1-5.6-3.2-11.8-3.2-18,0-37.9,31.7-58.6,28.2-97,0-2.3-.5-4.4-1.1-6.3-.7-2.1-1.7-3.8-2.9-5.1,4.6,2.4,9,5.7,12.4,10,3.5,4.3,6.6,9.1,8.4,14.7,1.8,5.6,3.2,11.8,3.2,18,0,32.8-30,57-30,92.1s.6,6.3,1.6,9c1.2,2.6,2.4,5.1,4.3,7.3"/>
      <polygon class="st3" points="1884.2 626.1 1884.2 590.9 1851.5 590.9 1851.5 626.1 1837.5 626.1 1837.5 546.5 1851.5 546.5 1851.5 579.7 1884.2 579.7 1884.2 546.5 1898.1 546.5 1898.1 626.1 1884.2 626.1"/>
      <path class="st3" d="M1919.2,602c.7,11.7,6.8,14.5,16.3,14.5s15.6-.9,21.6-1.6l1.1,9.8c-6.7,1.1-14.7,2.3-26.3,2.3-20.4,0-25.8-13.2-25.8-31.3s6.8-31.3,27.1-31.3,26.6,11.5,26.6,29.8,0,2.9-.1,4.4c-6.8,1.5-21.5,2.7-30.2,3.2l-10.5.4ZM1931.2,592.7c4.4-.1,11.6-.9,15.8-1.5,0-.9.1-1.9.1-2.9,0-9.2-3.3-14.5-13.5-14.5s-14.7,8-14.7,19.1l12.3-.2Z"/>
      <path class="st3" d="M1966.9,608c0-10.7,4.7-17.3,16.4-19.1,6.7-1.1,14-1.5,21.5-1.6,0-8.4-3.9-12.6-13-12.6s-14.8.7-21.2,1.6l-1.1-9.6c6.7-1.1,14.5-2.3,23.6-2.3,13.3,0,24.4,3.5,24.4,19.1v27.1c0,4-.1,7.5-.5,11.2-6.8,3.9-15.8,5.2-27.4,5.2-16.7,0-22.9-6.4-22.9-19M2004.5,595.9c-5.2.1-11.6.1-16.7,1.6-6.3,1.6-8.8,3.3-8.8,10.4s4.3,9.6,12,9.6,8.9-.1,12.6-1.9c.1-2.4.5-5.2.5-8.3v-11.3h.2Z"/>
      <path class="st3" d="M2028,541.6h13.1v68.2c0,5.6,1.5,9.6,4.4,13.9l-11.4,5.2c-4-4.4-6.3-10-6.3-18.3l.2-68.9h0Z"/>
      <path class="st3" d="M2087.3,626.1c-2.9.5-6.4.9-9.1.9-12.4,0-17.5-5.2-17.5-16.6v-35.5h-10.1v-9.6h10.1v-15.1l13.1-2.3v17.1h12.6v9.6h-12.6v34.5c0,5.7,2.4,7.7,8.3,7.7s3.2,0,4.7-.1l.5,9.5Z"/>
      <path class="st3" d="M2148.7,626.1h-13.1v-37.5c0-9.8-1.7-13.9-14.5-13.9s-8.3.9-11.6,2.4v49h-13.1v-84.4h13.1v25c4.4-1.5,9.6-2.3,15.1-2.3,21.5,0,23.8,10,23.8,22.7v39h.2Z"/>
      <path class="st3" d="M2214,558.2c-4.9-.9-10.1-1.5-15.8-1.5-21.4,0-21.5,12.4-21.5,29s.1,29,21.5,29,10.7-.5,15.8-1.5l1.5,10.7c-5.1,1.5-12.3,2.3-19.9,2.3-26.3,0-32.7-12.4-32.7-40.6s6.4-40.6,32.7-40.6,14.8.9,19.9,2.3l-1.5,10.7Z"/>
      <path class="st3" d="M2223.6,608c0-10.7,4.7-17.3,16.4-19.1,6.7-1.1,14-1.5,21.5-1.6,0-8.4-3.9-12.6-13-12.6s-14.8.7-21.2,1.6l-1.1-9.6c6.7-1.1,14.5-2.3,23.6-2.3,13.3,0,24.4,3.5,24.4,19.1v27.1c0,4-.1,7.5-.5,11.2-6.8,3.9-15.8,5.2-27.4,5.2-16.4,0-22.9-6.4-22.9-19M2261.6,595.9c-5.2.1-11.6.1-16.7,1.6-6.3,1.6-8.8,3.3-8.8,10.4s4.3,9.6,12,9.6,8.9-.1,12.6-1.9c.1-2.4.5-5.2.5-8.3v-11.3h.2Z"/>
      <path class="st3" d="M2317.6,626.1c-2.9.5-6.4.9-9.1.9-12.4,0-17.5-5.2-17.5-16.6v-35.5h-10.1v-9.6h10.1v-15.1l13.1-2.3v17.1h12.6v9.6h-13v34.5c0,5.7,2.4,7.7,8.3,7.7s3.2,0,4.7-.1l.9,9.5Z"/>
      <path class="st3" d="M2327,608c0-10.7,4.7-17.3,16.4-19.1,6.7-1.1,14-1.5,21.5-1.6,0-8.4-3.9-12.6-13-12.6s-14.8.7-21.2,1.6l-1.1-9.6c6.7-1.1,14.5-2.3,23.6-2.3,13.3,0,24.4,3.5,24.4,19.1v27.1c0,4-.1,7.5-.5,11.2-6.8,3.9-15.8,5.2-27.4,5.2-16.5,0-22.9-6.4-22.9-19M2365,595.9c-5.2.1-11.6.1-16.7,1.6-6.3,1.6-8.8,3.3-8.8,10.4s4.3,9.6,12,9.6,8.9-.1,12.6-1.9c.1-2.4.5-5.2.5-8.3v-11.3h.2Z"/>
      <path class="st3" d="M2385.8,541.6h13.1v68.2c0,5.6,1.5,9.6,4.4,13.9l-11.4,5.2c-4-4.4-6.3-10-6.3-18.3v-68.9h.2Z"/>
      <polygon class="st3" points="2438.5 605.8 2451.5 565 2464.8 565 2436.4 648.5 2423.3 648.5 2432.5 622.1 2408.1 565 2421.7 565 2438.5 605.8"/>
      <path class="st3" d="M2497.5,609.2c0-6.8-6.3-7.5-12-9.2-9.8-2.9-19.1-5.6-19.1-18.7s9.2-17.1,21.5-17.1,14.5.7,21.5,2.4l-1.5,9.6c-4.7-.9-9.8-1.6-15.1-1.6s-13.9,0-13.9,6.3,7.3,7.5,12.4,9.2c10.5,3.5,18.8,5.6,18.8,18.8s-10.5,18-23.8,18-14.7-.9-21.2-2.4l1.5-9.8c4.7.9,11.4,1.7,16.3,1.7s14.5.2,14.5-7.2"/>
      <path class="st3" d="M2555.1,626.1c-2.9.5-6.4.9-9.1.9-12.4,0-17.5-5.2-17.5-16.6v-35.5h-10.1v-9.6h10.1v-15.1l13.1-2.3v17.1h12.6v9.6h-12.6v34.5c0,5.7,2.4,7.7,8.3,7.7s3.2,0,4.7-.1l.5,9.5Z"/>
      <path class="st4" d="M1798.5,662.6c-3.2-1.6-6.1-3.9-8.4-6.7-2.4-2.8-4.4-6.2-5.7-10-1.3-3.8-2.2-7.8-2.2-12.2,0-25.5,23.3-40,19.7-72.8,4.5,4,8.3,11.3,10.5,16.6,1.3,3.8,2.2,7.8,2.2,12.2,0,22-20.1,38-20.1,61.8s.4,4.3,1.1,6.1c.7,1.9,1.8,3.5,2.9,4.9"/>
      <path class="st4" d="M1739.9,619.3c-3.2-1.6-6.1-3.9-8.4-6.7-2.4-2.8-4.4-6.2-5.7-10-1.3-3.8-2.2-7.8-2.2-12.2,0-25.5,23.3-40,19.7-72.8,4.5,4,8.3,11.3,10.5,16.6,1.3,3.8,2.2,7.8,2.2,12.2,0,22-20.1,38-20.1,61.8s.4,4.3,1.1,6.1c.7,1.8,1.7,3.5,2.9,4.9"/>
    </g>
  </g>
</svg>