<?xml version="1.0" encoding="UTF-8"?><svg id="a" xmlns="http://www.w3.org/2000/svg" viewBox="0 0 596 360"><g><g><path d="M170.87,270.1c-.22-.22-.33-.47-.33-.74v-39.49c0-.32,.11-.58,.33-.8s.47-.33,.74-.33h6.42c.28,0,.53,.11,.74,.33,.22,.22,.33,.49,.33,.8v13.68l12.07-14.15c.36-.44,.79-.65,1.31-.65h8.5c.44,0,.69,.08,.77,.24,.08,.16,.06,.32-.06,.48l-21.65,25.33c-.63,.75-.95,1.7-.95,2.85v11.72c0,.28-.1,.53-.3,.74-.2,.22-.46,.33-.77,.33h-6.42c-.28,0-.53-.11-.74-.33h.01Zm21.77-.01c-.38-.18-.68-.45-.92-.8l-6.3-8.98c-.28-.44-.42-.79-.42-1.07,0-.36,.16-.73,.48-1.13,.32-.36,.68-.78,1.1-1.28s.82-.96,1.22-1.4l1.25-1.49c.24-.32,.51-.48,.83-.48,.36,0,.65,.18,.89,.54l10.7,15.16c.08,.16,.12,.3,.12,.42,0,.52-.36,.79-1.07,.83h-6.07c-.83-.04-1.44-.15-1.81-.33h0Z" style="fill:#373737;"/><path d="M210.33,270.1c-.22-.22-.33-.47-.33-.74v-20.76c0-.32,.11-.58,.33-.8s.47-.33,.74-.33h13.14c1.51,0,2.8-.54,3.9-1.61,1.09-1.07,1.64-2.36,1.64-3.87s-.55-2.85-1.64-3.92c-1.09-1.07-2.39-1.61-3.9-1.61h-13.14c-.28,0-.53-.11-.74-.33-.22-.22-.33-.49-.33-.8v-5.47c0-.32,.11-.58,.33-.8s.47-.33,.74-.33h13.14c2.38,0,4.58,.59,6.6,1.78s3.63,2.81,4.82,4.85c1.19,2.04,1.78,4.25,1.78,6.63s-.59,4.58-1.78,6.6-2.8,3.63-4.82,4.82-4.22,1.78-6.6,1.78h-6.3c-.44,0-.73,.06-.89,.18-.16,.12-.24,.36-.24,.71v13.26c0,.32-.11,.58-.33,.77-.22,.2-.49,.3-.8,.3h-4.58c-.28,0-.53-.11-.74-.33v.02Z" style="fill:#373737;"/><path d="M245.04,270.1c-.22-.22-.33-.47-.33-.74v-39.49c0-.32,.12-.58,.36-.8s.5-.33,.77-.33h5.95c.28,0,.53,.11,.74,.33,.22,.22,.33,.49,.33,.8v39.49c0,.28-.1,.53-.3,.74-.2,.22-.46,.33-.77,.33h-5.95c-.32,0-.58-.11-.8-.33Z" style="fill:#373737;"/></g><g><path d="M263.16,270.07c-.18-.16-.27-.36-.27-.59v-39.79c0-.24,.09-.44,.27-.59,.18-.16,.39-.24,.62-.24h6.07c.28,0,.5,.14,.65,.42l14.09,23.85c.44,.79,.79,1.19,1.07,1.19,.32,0,.48-.44,.48-1.31l-.12-23.31c0-.24,.09-.44,.27-.59,.18-.16,.39-.24,.62-.24h6.24c.24,0,.45,.08,.62,.24,.18,.16,.27,.36,.27,.59v39.79c0,.24-.09,.44-.27,.59-.18,.16-.39,.24-.62,.24h-4.22c-.71,0-1.21-.06-1.49-.18s-.58-.44-.89-.95l-14.99-23.85c-.24-.36-.46-.54-.65-.54-.32,0-.48,.28-.48,.83l.12,23.85c0,.24-.09,.44-.27,.59-.18,.16-.37,.24-.57,.24h-5.95c-.24,0-.45-.08-.62-.24h.02Z" style="fill:#68478d;"/><path d="M304.41,270.1c-.22-.22-.33-.47-.33-.74v-39.49c0-.32,.12-.58,.36-.8s.5-.33,.77-.33h6.19c.28,0,.53,.11,.74,.33,.22,.22,.33,.49,.33,.8v39.49c0,.28-.1,.53-.3,.74-.2,.22-.46,.33-.77,.33h-6.19c-.32,0-.58-.11-.8-.33Z" style="fill:#68478d;"/><path d="M322.77,270.07c-.18-.16-.27-.36-.27-.59v-39.79c0-.24,.09-.44,.27-.59,.18-.16,.39-.24,.62-.24h6.07c.28,0,.5,.14,.65,.42l14.09,23.85c.44,.79,.79,1.19,1.07,1.19,.32,0,.48-.44,.48-1.31l-.12-23.31c0-.24,.09-.44,.27-.59,.18-.16,.39-.24,.62-.24h6.24c.24,0,.45,.08,.62,.24,.18,.16,.27,.36,.27,.59v39.79c0,.24-.09,.44-.27,.59-.18,.16-.39,.24-.62,.24h-4.22c-.71,0-1.21-.06-1.49-.18s-.58-.44-.89-.95l-14.99-23.85c-.24-.36-.46-.54-.65-.54-.32,0-.48,.28-.48,.83l.12,23.85c0,.24-.09,.44-.27,.59-.18,.16-.37,.24-.57,.24h-5.95c-.24,0-.45-.08-.62-.24h.02Z" style="fill:#68478d;"/><path d="M365.6,268.64c-2.14-1.27-3.79-2.81-4.94-4.64-.12-.2-.18-.42-.18-.65,0-.2,.05-.41,.15-.62,.1-.22,.23-.37,.39-.45,.55-.32,1.3-.71,2.23-1.19s1.67-.85,2.23-1.13c.2-.12,.4-.18,.59-.18,.4,0,.81,.22,1.25,.65,.51,.71,1.24,1.29,2.17,1.72,.93,.44,1.85,.65,2.77,.65,1.55,0,2.82-.51,3.84-1.55,1.01-1.03,1.52-2.34,1.52-3.92v-21.65h-12.55c-.4,0-.73-.15-1.01-.45s-.42-.64-.42-1.04v-4.16c0-.4,.14-.74,.42-1.04,.28-.3,.61-.45,1.01-.45h19.51c.32,0,.57,.1,.77,.3,.2,.2,.3,.46,.3,.77v27.71c0,3.17-.86,5.88-2.59,8.12-1.72,2.24-3.88,3.76-6.45,4.55-1.31,.4-2.76,.59-4.34,.59-2.3-.04-4.52-.69-6.66-1.96v.02Z" style="fill:#68478d;"/><path d="M389.78,270.19c-.12-.16-.16-.34-.12-.54l10.53-40.02c.08-.24,.23-.45,.45-.62,.22-.18,.47-.27,.74-.27h12.37c.24,0,.48,.08,.71,.24,.24,.16,.4,.36,.48,.59l10.53,40.02v.18c0,.44-.2,.65-.59,.65h-5.83c-.24,0-.49-.09-.74-.27-.26-.18-.41-.39-.45-.62l-2.91-11.06c-.08-.36-.28-.65-.59-.89-.32-.24-.65-.36-1.01-.36h-11.54c-.36,0-.69,.12-1.01,.36s-.52,.54-.59,.89l-2.91,11c-.04,.28-.19,.51-.45,.68-.26,.18-.51,.27-.74,.27h-5.83c-.2,0-.36-.08-.48-.24h-.02Zm21.71-19.32c.4,0,.7-.14,.92-.42s.29-.59,.21-.95l-3.33-12.25c-.04-.32-.22-.59-.54-.83s-.65-.36-1.01-.36h-.36c-.36,0-.69,.12-1.01,.36s-.5,.52-.54,.83l-3.27,12.25-.06,.3c0,.32,.1,.58,.3,.77,.2,.2,.48,.3,.83,.3h7.86Z" style="fill:#68478d;"/></g></g><g><path d="M277.32,97.45h38.8v89.13h-44.56V103.21c0-3.18,2.58-5.76,5.76-5.76Z" style="fill:#b565a7;"/><path d="M232.75,142.01h38.8v44.56h-38.8c-3.18,0-5.76-2.58-5.76-5.76v-33.04c0-3.18,2.58-5.76,5.76-5.76Z" style="fill:#0085ca;"/><path d="M360.69,64.68v-.42l10.25-6.39-5.07-4.99-5.18,7.38v-2.92c0-2.45-2.01-4.45-4.45-4.45h-35.65c-2.45,0-4.45,2.01-4.45,4.45V186.58h40.11c2.45,0,4.45-2,4.45-4.45V67.3l14.8,4.82,5.24-5.85-20.04-1.59h0Zm-5.57,9.17h-.07s.04,0,.07,.04v12.95h-33.43v-12.95s.05-.04,.07-.04h-.07v-3.58l6.84,2.59v6.6h6.6v-6.6l-12.24-3.33c4.63-2.45,9.92-3.84,15.51-3.84s10.75,1.35,15.36,3.75l-12.4,3.37v6.61h6.61v-6.61l7.07-2.67h.02s.04,0,.07,.05v3.67h-.01Zm-25.08,4.68v-3.57h3.55v3.57h-3.55Zm16.41-3.62v3.57h-3.56v-3.57h3.56Z" style="fill:#68478d;"/></g><g style="opacity:.8;"><g><path d="M208.68,289.95c1.29,0,2.29,.44,3,1.32s1.07,2.12,1.07,3.73-.36,2.86-1.08,3.75-1.72,1.34-2.99,1.34c-.64,0-1.22-.12-1.75-.35s-.97-.6-1.33-1.09h-.11l-.31,1.26h-1.06v-13.91h1.48v3.38c0,.76-.02,1.44-.07,2.04h.07c.69-.98,1.72-1.47,3.08-1.47h0Zm-.21,1.24c-1.01,0-1.74,.29-2.19,.87-.45,.58-.67,1.56-.67,2.94s.23,2.36,.69,2.96c.46,.59,1.2,.89,2.21,.89,.91,0,1.59-.33,2.04-1s.67-1.62,.67-2.87-.22-2.23-.67-2.85c-.45-.63-1.14-.94-2.07-.94h-.01Z" style="fill:#5e666f;"/><path d="M213.53,290.11h1.59l2.15,5.59c.47,1.28,.76,2.2,.88,2.76h.07c.08-.3,.24-.82,.49-1.56s1.06-3,2.43-6.79h1.59l-4.21,11.16c-.42,1.1-.9,1.89-1.46,2.35s-1.24,.69-2.05,.69c-.45,0-.9-.05-1.34-.15v-1.19c.33,.07,.69,.11,1.1,.11,1.02,0,1.75-.57,2.18-1.72l.55-1.4-3.95-9.85h-.02Z" style="fill:#5e666f;"/></g><g style="opacity:.8;"><path d="M391.49,287.04c0,1.33-1.05,2.38-2.41,2.38s-2.42-1.05-2.42-2.38,1.08-2.35,2.42-2.35,2.41,1.05,2.41,2.35Zm-4.23,0c0,1.05,.77,1.88,1.84,1.88s1.79-.83,1.79-1.87-.76-1.89-1.81-1.89-1.82,.85-1.82,1.88Zm1.45,1.23h-.54v-2.35c.22-.04,.52-.07,.9-.07,.44,0,.65,.07,.82,.17,.13,.1,.23,.29,.23,.52,0,.26-.2,.46-.49,.55v.03c.23,.09,.36,.26,.43,.57,.07,.36,.11,.5,.17,.59h-.59c-.07-.09-.11-.3-.19-.57-.04-.26-.19-.37-.49-.37h-.26v.93Zm.02-1.33h.26c.3,0,.54-.1,.54-.34,0-.21-.16-.36-.5-.36-.14,0-.24,.01-.3,.03v.67h0Z" style="fill:#5e666f;"/></g><g><path d="M237.26,307.46c-.87-.46-1.69-1.07-2.33-1.87-.66-.8-1.23-1.71-1.58-2.76-.39-1.05-.59-2.22-.59-3.38,0-7.13,5.96-11.01,5.3-18.23,0-.43-.09-.82-.21-1.19-.14-.39-.32-.71-.55-.96,.87,.46,1.69,1.07,2.33,1.87,.66,.8,1.23,1.71,1.58,2.76s.59,2.22,.59,3.38c0,6.17-5.64,10.72-5.64,17.32,0,.59,.11,1.19,.3,1.69,.23,.48,.46,.96,.8,1.37" style="fill:#5e666f;"/><polygon points="258.71 300.19 258.71 293.57 252.57 293.57 252.57 300.19 249.94 300.19 249.94 285.23 252.57 285.23 252.57 291.47 258.71 291.47 258.71 285.23 261.32 285.23 261.32 300.19 258.71 300.19" style="fill:#5e666f;"/><path d="M265.29,295.65c.14,2.19,1.28,2.72,3.06,2.72,1.55,0,2.92-.16,4.07-.3l.21,1.85c-1.26,.21-2.76,.43-4.93,.43-3.84,0-4.84-2.49-4.84-5.89,0-4.14,1.28-5.89,5.09-5.89,4.14,0,5,2.17,5,5.6,0,.3,0,.55-.02,.82-1.28,.27-4.04,.5-5.67,.59l-1.96,.07h-.01Zm2.24-1.74c.82-.02,2.17-.16,2.97-.27,0-.16,.02-.37,.02-.55,0-1.74-.62-2.72-2.54-2.72-2.44,0-2.76,1.51-2.76,3.59l2.31-.05h0Z" style="fill:#5e666f;"/><path d="M274.25,296.79c0-2.01,.89-3.24,3.08-3.59,1.26-.21,2.63-.27,4.04-.3,0-1.58-.73-2.38-2.44-2.38-1.37,0-2.79,.14-3.98,.3l-.21-1.8c1.26-.21,2.72-.43,4.43-.43,2.49,0,4.59,.66,4.59,3.59v5.09c0,.75-.02,1.42-.09,2.1-1.28,.73-2.97,.98-5.14,.98-3.13,0-4.3-1.21-4.3-3.56m7.06-2.28c-.98,.02-2.17,.02-3.13,.3-1.19,.3-1.64,.62-1.64,1.96,0,1.42,.8,1.8,2.26,1.8,.75,0,1.67-.02,2.38-.37,.02-.46,.09-.98,.09-1.55v-2.12h.02l.02-.02h0Z" style="fill:#5e666f;"/><path d="M285.72,284.29h2.47v12.82c0,1.05,.27,1.8,.82,2.6l-2.15,.98c-.75-.82-1.19-1.87-1.19-3.45l.05-12.95h0Z" style="fill:#5e666f;"/><path d="M296.87,300.19c-.55,.09-1.21,.16-1.71,.16-2.33,0-3.29-.98-3.29-3.13v-6.67h-1.9v-1.8h1.9v-2.83l2.47-.43v3.22h2.38v1.8h-2.38v6.49c0,1.07,.46,1.44,1.55,1.44,.3,0,.59,0,.89-.02l.09,1.78h0Z" style="fill:#5e666f;"/><path d="M308.41,300.19h-2.47v-7.06c0-1.85-.32-2.6-2.72-2.6-.75,0-1.55,.16-2.17,.46v9.21h-2.47v-15.88h2.47v4.71c.82-.27,1.8-.43,2.83-.43,4.04,0,4.48,1.87,4.48,4.27v7.33h.05Z" style="fill:#5e666f;"/><path d="M320.67,287.42c-.91-.16-1.9-.27-2.97-.27-4.02,0-4.04,2.33-4.04,5.46s.02,5.46,4.04,5.46c.98,0,2.01-.09,2.97-.27l.27,2.01c-.96,.27-2.31,.43-3.75,.43-4.93,0-6.15-2.33-6.15-7.63s1.21-7.63,6.15-7.63c1.51,0,2.79,.16,3.75,.43l-.27,2.01Z" style="fill:#5e666f;"/><path d="M322.48,296.79c0-2.01,.89-3.24,3.08-3.59,1.26-.21,2.63-.27,4.04-.3,0-1.58-.73-2.38-2.44-2.38-1.37,0-2.79,.14-3.98,.3l-.21-1.8c1.26-.21,2.72-.43,4.43-.43,2.49,0,4.59,.66,4.59,3.59v5.09c0,.75-.02,1.42-.09,2.1-1.28,.73-2.97,.98-5.14,.98-3.08,0-4.3-1.21-4.3-3.56m7.13-2.28c-.98,.02-2.17,.02-3.13,.3-1.19,.3-1.64,.62-1.64,1.96,0,1.42,.8,1.8,2.26,1.8,.75,0,1.67-.02,2.38-.37,.02-.46,.09-.98,.09-1.55v-2.12h.02l.02-.02h0Z" style="fill:#5e666f;"/><path d="M340.14,300.19c-.55,.09-1.21,.16-1.71,.16-2.33,0-3.29-.98-3.29-3.13v-6.67h-1.9v-1.8h1.9v-2.83l2.47-.43v3.22h2.38v1.8h-2.44v6.49c0,1.07,.46,1.44,1.55,1.44,.3,0,.59,0,.89-.02l.16,1.78h-.01Z" style="fill:#5e666f;"/><path d="M341.9,296.79c0-2.01,.89-3.24,3.08-3.59,1.26-.21,2.63-.27,4.04-.3,0-1.58-.73-2.38-2.44-2.38-1.37,0-2.79,.14-3.98,.3l-.21-1.8c1.26-.21,2.72-.43,4.43-.43,2.49,0,4.59,.66,4.59,3.59v5.09c0,.75-.02,1.42-.09,2.1-1.28,.73-2.97,.98-5.14,.98-3.11,0-4.3-1.21-4.3-3.56m7.15-2.28c-.98,.02-2.17,.02-3.13,.3-1.19,.3-1.64,.62-1.64,1.96,0,1.42,.8,1.8,2.26,1.8,.75,0,1.67-.02,2.38-.37,.02-.46,.09-.98,.09-1.55v-2.12h.02l.02-.02h0Z" style="fill:#5e666f;"/><path d="M352.96,284.29h2.47v12.82c0,1.05,.27,1.8,.82,2.6l-2.15,.98c-.75-.82-1.19-1.87-1.19-3.45v-12.95h.05Z" style="fill:#5e666f;"/><polygon points="362.85 296.38 365.29 288.7 367.79 288.7 362.46 304.4 359.99 304.4 361.73 299.44 357.14 288.7 359.7 288.7 362.85 296.38" style="fill:#5e666f;"/><path d="M373.93,297.02c0-1.28-1.19-1.42-2.26-1.74-1.85-.55-3.59-1.05-3.59-3.52s1.74-3.22,4.04-3.22c1.58,0,2.72,.14,4.04,.46l-.27,1.8c-.89-.16-1.85-.3-2.83-.3-.91,0-2.6,0-2.6,1.19s1.37,1.42,2.33,1.74c1.96,.66,3.54,1.05,3.54,3.54,0,2.63-1.96,3.38-4.48,3.38-1.21,0-2.76-.16-3.98-.46l.27-1.85c.89,.16,2.15,.32,3.06,.32,.98,0,2.72,.05,2.72-1.35" style="fill:#5e666f;"/><path d="M384.76,300.19c-.55,.09-1.21,.16-1.71,.16-2.33,0-3.29-.98-3.29-3.13v-6.67h-1.9v-1.8h1.9v-2.83l2.47-.43v3.22h2.38v1.8h-2.38v6.49c0,1.07,.46,1.44,1.55,1.44,.3,0,.59,0,.89-.02l.09,1.78h0Z" style="fill:#5e666f;"/><path d="M242.61,307.05c-.59-.3-1.14-.73-1.58-1.26-.46-.53-.82-1.17-1.07-1.87s-.41-1.46-.41-2.28c0-4.8,4.39-7.52,3.7-13.69,.85,.75,1.55,2.12,1.96,3.13,.25,.71,.41,1.46,.41,2.28,0,4.14-3.77,7.15-3.77,11.63,0,.41,.07,.8,.21,1.14,.14,.37,.34,.66,.55,.91" style="fill:#5e666f; isolation:isolate; opacity:.75;"/><path d="M231.6,298.92c-.59-.3-1.14-.73-1.58-1.26-.46-.53-.82-1.17-1.07-1.87s-.41-1.46-.41-2.28c0-4.8,4.39-7.52,3.7-13.69,.85,.75,1.55,2.12,1.96,3.13,.25,.71,.41,1.46,.41,2.28,0,4.14-3.77,7.15-3.77,11.63,0,.41,.07,.8,.21,1.14,.14,.34,.32,.66,.55,.91" style="fill:#5e666f; isolation:isolate; opacity:.75;"/></g></g></svg>