<?xml version="1.0" encoding="UTF-8"?><svg id="Layer_1" xmlns="http://www.w3.org/2000/svg" width="79.25in" height="37.79in" xmlns:xlink="http://www.w3.org/1999/xlink" viewBox="0 0 5706.34 2721.15"><defs><style>.cls-1{fill:url(#linear-gradient-4);}.cls-2{fill:url(#linear-gradient-3);}.cls-3{fill:url(#linear-gradient-2);}.cls-4{fill:url(#linear-gradient);}.cls-5{clip-path:url(#clippath-1);}.cls-6{fill:#575756;}.cls-7{opacity:.8;}.cls-8,.cls-9{fill:#5f6770;}.cls-9{opacity:.75;}.cls-10{clip-path:url(#clippath);}</style><linearGradient id="linear-gradient" x1="4277.19" y1="587.6" x2="5272.96" y2="587.6" gradientUnits="userSpaceOnUse"><stop offset="0" stop-color="#0067b2"/><stop offset=".1" stop-color="#0664b0"/><stop offset=".23" stop-color="#175dac"/><stop offset=".39" stop-color="#3450a6"/><stop offset=".56" stop-color="#5d409d"/><stop offset=".75" stop-color="#902a91"/><stop offset=".94" stop-color="#ce1083"/><stop offset="1" stop-color="#e3087f"/></linearGradient><clipPath id="clippath"><path class="cls-4" d="M3983.52,651.43l715.35,446.99v-314.19l-715.35-446.99v314.19ZM4728.78,784.23v314.19l715.33-446.99v-314.19l-715.33,446.99ZM4429.53,391.51l269.32,168.3V245.59l-269.32-168.27v314.19ZM4728.78,245.59v314.22l269.31-168.3V77.32l-269.31,168.27ZM4007.34,322.34l251.53,157.02,140.73-87.94V76.78l-392.26,245.56ZM5028.01,391.42l140.76,87.94,251.53-157.02-392.29-245.56v314.64Z"/></clipPath><linearGradient id="linear-gradient-2" x1="5525.26" y1="5086.01" x2="5540.59" y2="5086.01" gradientTransform="translate(153420.05 499576.92) rotate(-64) scale(69.29 -69.29)" xlink:href="#linear-gradient"/><linearGradient id="linear-gradient-3" x1="5553.89" y1="3140.15" x2="4268.55" y2="3958.09" gradientUnits="userSpaceOnUse"><stop offset="0" stop-color="#fff"/><stop offset="1" stop-color="#fff" stop-opacity=".6"/></linearGradient><clipPath id="clippath-1"><path class="cls-2" d="M3983.52,3831.84l715.35,446.99v-314.19l-715.35-446.99v314.19ZM4728.78,3964.65v314.19l715.33-446.99v-314.19l-715.33,446.99ZM4429.53,3571.93l269.32,168.3v-314.22l-269.32-168.27v314.19ZM4728.78,3426v314.22l269.31-168.3v-314.19l-269.31,168.27ZM4007.34,3502.75l251.53,157.02,140.73-87.94v-314.64l-392.26,245.56ZM5028.01,3571.84l140.76,87.94,251.53-157.02-392.29-245.56v314.64Z"/></clipPath><linearGradient id="linear-gradient-4" x1="5596.13" y1="3206.54" x2="4310.8" y2="4024.48" xlink:href="#linear-gradient-3"/></defs><path class="cls-6" d="M716.1,1942.17v138.34h-272.78c-212.63,0-350.98-129.88-350.98-350.94v-518.04h143.42v518.04c0,138.34,72.56,212.59,207.56,212.59h272.78Z"/><path class="cls-6" d="M1349.06,1211.54h143.42v526.45c0,219.36-158.63,362.8-362.79,362.8s-362.77-143.44-362.77-362.8v-526.45h141.71v526.45c0,129.93,86.08,224.43,221.05,224.43s219.36-94.5,219.36-224.43v-526.45Z"/><path class="cls-6" d="M2821.95,2080.55h-143.41v-561.92c0-113.03-74.22-197.41-188.98-197.41s-188.98,84.37-188.98,197.41v561.92h-143.41v-561.92c0-113.03-74.25-197.41-189.01-197.41s-188.97,84.37-188.97,197.41v561.92h-143.41v-556.85c0-188.96,136.67-334.08,332.38-334.08,118.13,0,209.24,55.68,259.89,143.44,52.29-87.76,143.41-143.44,261.52-143.44,197.44,0,332.39,145.11,332.39,334.08v556.85Z"/><path class="cls-6" d="M3780.15,1810.58c-67.51,185.59-212.64,290.21-413.4,290.21-249.75,0-445.5-199.11-445.5-453.91s195.75-457.26,437.02-457.26c189.01,0,372.91,131.61,423.54,357.71l-666.49,281.78c55.68,87.76,151.84,136.7,251.43,136.7,123.14,0,209.2-53.99,264.89-155.22h148.51ZM3069.76,1704.27l536.58-226.13c-54.01-94.47-150.19-153.56-248.07-153.56-138.33,0-293.58,121.51-293.58,320.64,0,21.91,1.71,40.48,5.08,59.05"/><path class="cls-6" d="M4707.03,1648.56c0,249.75-188.98,453.93-437.05,453.93s-437.02-204.18-437.02-453.93,190.69-458.94,437.02-458.94,437.05,205.85,437.05,458.94M4563.61,1648.56c0-177.15-131.62-322.26-293.63-322.26s-291.89,145.11-291.89,322.26,131.61,315.54,291.89,315.54,293.63-141.71,293.63-315.54"/><path class="cls-6" d="M4946.16,2080.55h-141.76v-528.16c0-219.33,155.27-362.77,362.8-362.77s361.09,143.44,361.09,362.77v528.16h-141.76v-533.22c0-129.93-86.06-224.42-219.33-224.42s-221.04,94.5-221.04,224.42v533.22Z"/><path class="cls-4" d="M3983.52,651.43l715.35,446.99v-314.19l-715.35-446.99v314.19ZM4728.78,784.23v314.19l715.33-446.99v-314.19l-715.33,446.99ZM4429.53,391.51l269.32,168.3V245.59l-269.32-168.27v314.19ZM4728.78,245.59v314.22l269.31-168.3V77.32l-269.31,168.27ZM4007.34,322.34l251.53,157.02,140.73-87.94V76.78l-392.26,245.56ZM5028.01,391.42l140.76,87.94,251.53-157.02-392.29-245.56v314.64Z"/><g class="cls-10"><polygon class="cls-3" points="3580.99 902.09 4264.2 -498.7 5846.63 273.11 5163.43 1673.9 3580.99 902.09"/></g><g class="cls-7"><path class="cls-8" d="M2640.46,2396.85c20.95,0,37.21,7.15,48.8,21.44,11.59,14.29,17.38,34.52,17.38,60.68s-5.84,46.48-17.53,60.97c-11.68,14.49-27.9,21.73-48.65,21.73-10.38,0-19.85-1.91-28.43-5.74-8.58-3.83-15.78-9.71-21.6-17.66h-1.74l-5.09,20.49h-17.31v-226.14h24.14v54.94c0,12.3-.39,23.35-1.16,33.14h1.16c11.25-15.89,27.93-23.84,50.03-23.84ZM2636.97,2417.05c-16.49,0-28.36,4.72-35.63,14.17-7.27,9.44-10.91,25.36-10.91,47.74s3.73,38.39,11.2,48.03c7.47,9.64,19.44,14.46,35.93,14.46,14.84,0,25.89-5.4,33.16-16.2,7.27-10.8,10.91-26.33,10.91-46.58s-3.64-36.19-10.91-46.37c-7.27-10.17-18.52-15.26-33.74-15.26Z"/><path class="cls-8" d="M2719.25,2399.46h25.89l34.91,90.84c7.66,20.74,12.41,35.71,14.25,44.91h1.16c1.26-4.94,3.9-13.39,7.93-25.36,4.02-11.96,17.18-48.76,39.49-110.39h25.89l-68.51,181.38c-6.79,17.92-14.71,30.64-23.78,38.15-9.07,7.5-20.19,11.26-33.38,11.26-7.37,0-14.64-.83-21.82-2.47v-19.33c5.33,1.16,11.29,1.74,17.89,1.74,16.58,0,28.41-9.3,35.49-27.9l8.87-22.67-64.29-160.16Z"/><g class="cls-7"><path class="cls-8" d="M5614.01,2349.45c0,21.69-17.03,38.71-39.19,38.71s-39.44-17.02-39.44-38.71,17.51-38.24,39.44-38.24,39.19,17.02,39.19,38.24ZM5545.18,2349.45c0,17.02,12.6,30.55,29.87,30.55s29.18-13.52,29.18-30.31-12.37-30.77-29.4-30.77-29.64,13.76-29.64,30.54ZM5568.74,2369.5h-8.86v-38.24c3.5-.7,8.4-1.17,14.7-1.17,7.23,0,10.5,1.17,13.3,2.8,2.1,1.63,3.73,4.66,3.73,8.4,0,4.2-3.26,7.46-7.93,8.86v.46c3.74,1.4,5.84,4.2,7,9.33,1.17,5.83,1.87,8.16,2.8,9.56h-9.56c-1.17-1.4-1.87-4.9-3.04-9.32-.7-4.2-3.04-6.06-7.93-6.06h-4.2v15.39ZM5568.98,2347.82h4.2c4.9,0,8.86-1.63,8.86-5.6,0-3.49-2.56-5.83-8.17-5.83-2.33,0-3.97.23-4.9.46v10.96Z"/></g><path class="cls-8" d="M3105.33,2681.37c-14.12-7.43-27.5-17.45-37.9-30.45-10.78-13-20.07-27.85-25.64-44.93-6.32-17.08-9.66-36.02-9.66-54.96,0-115.86,96.99-178.98,86.22-296.32,0-7.06-1.49-13.37-3.34-19.31-2.23-6.31-5.2-11.51-8.92-15.6,14.12,7.43,27.5,17.45,37.9,30.45,10.78,13,20.07,27.85,25.64,44.93,5.57,17.08,9.66,36.02,9.66,54.96,0,100.26-91.79,174.16-91.79,281.47,0,9.65,1.86,19.31,4.83,27.48,3.72,7.8,7.43,15.6,13.01,22.28"/><polygon class="cls-8" points="3454.28 2563.29 3454.28 2455.6 3354.31 2455.6 3354.31 2563.29 3311.58 2563.29 3311.58 2320.06 3354.31 2320.06 3354.31 2421.44 3454.28 2421.44 3454.28 2320.06 3496.64 2320.06 3496.64 2563.29 3454.28 2563.29"/><path class="cls-8" d="M3561.3,2489.39c2.23,35.65,20.81,44.19,49.8,44.19,25.27,0,47.57-2.6,66.15-4.83l3.34,30.08c-20.44,3.34-44.97,7.06-80.27,7.06-62.43,0-78.78-40.48-78.78-95.8,0-67.21,20.81-95.8,82.87-95.8,67.26,0,81.38,35.28,81.38,90.98,0,4.83,0,8.91-.37,13.37-20.81,4.46-65.78,8.17-92.16,9.65l-31.96,1.11ZM3597.72,2461.17c13.38-.37,35.3-2.6,48.31-4.46,0-2.6.37-5.94.37-8.91,0-28.22-10.03-44.19-41.25-44.19-39.76,0-44.97,24.51-44.97,58.3l37.53-.74Z"/><path class="cls-8" d="M3706.98,2507.96c0-32.68,14.49-52.73,50.17-58.3,20.44-3.34,42.74-4.46,65.78-4.83,0-25.62-11.89-38.62-39.76-38.62-22.3,0-45.34,2.23-64.66,4.83l-3.34-29.34c20.44-3.34,44.22-7.06,72.09-7.06,40.51,0,74.69,10.77,74.69,58.3v82.81c0,12.25-.37,23.02-1.49,34.16-20.81,11.88-48.31,15.97-83.61,15.97-50.91,0-69.86-19.68-69.86-57.93M3821.81,2470.82c-15.98.37-35.3.37-50.91,4.83-19.32,4.83-26.76,10.03-26.76,31.93,0,23.02,13.01,29.34,36.79,29.34,12.26,0,27.13-.37,38.65-5.94.37-7.43,1.49-15.97,1.49-25.25v-34.53h.37l.37-.37h0Z"/><path class="cls-8" d="M3893.53,2304.84h40.13v208.32c0,17.08,4.46,29.34,13.38,42.33l-34.93,15.97c-12.26-13.37-19.32-30.45-19.32-56.07l.74-210.55h0Z"/><path class="cls-8" d="M4074.88,2563.29c-8.92,1.49-19.7,2.6-27.87,2.6-37.9,0-53.51-15.97-53.51-50.87v-108.43h-30.84v-29.34h30.84v-46.05l40.13-7.06v52.36h38.65v29.34h-38.65v105.46c0,17.45,7.43,23.39,25.27,23.39,4.83,0,9.66,0,14.49-.37l1.49,28.96Z"/><path class="cls-8" d="M4262.54,2563.29h-40.13v-114.74c0-30.08-5.2-42.33-44.22-42.33-12.26,0-25.27,2.6-35.3,7.43v149.65h-40.13v-258.08h40.13v76.49c13.38-4.46,29.36-7.06,46.08-7.06,65.78,0,72.84,30.45,72.84,69.44v119.2h.74Z"/><path class="cls-8" d="M4462.1,2355.71c-14.86-2.6-30.84-4.46-48.31-4.46-65.4,0-65.78,37.88-65.78,88.75s.37,88.75,65.78,88.75c15.98,0,32.7-1.49,48.31-4.46l4.46,32.68c-15.61,4.46-37.53,7.06-60.95,7.06-80.27,0-99.96-37.88-99.96-124.03s19.7-124.03,99.96-124.03c24.53,0,45.34,2.6,60.95,7.06l-4.46,32.68Z"/><path class="cls-8" d="M4491.46,2507.96c0-32.68,14.49-52.73,50.17-58.3,20.44-3.34,42.74-4.46,65.78-4.83,0-25.62-11.89-38.62-39.76-38.62-22.3,0-45.34,2.23-64.66,4.83l-3.34-29.34c20.44-3.34,44.22-7.06,72.09-7.06,40.51,0,74.69,10.77,74.69,58.3v82.81c0,12.25-.37,23.02-1.49,34.16-20.81,11.88-48.31,15.97-83.61,15.97-50.17,0-69.86-19.68-69.86-57.93M4607.4,2470.82c-15.98.37-35.3.37-50.91,4.83-19.32,4.83-26.76,10.03-26.76,31.93,0,23.02,13.01,29.34,36.79,29.34,12.26,0,27.13-.37,38.65-5.94.37-7.43,1.49-15.97,1.49-25.25v-34.53h.37l.37-.37h0Z"/><path class="cls-8" d="M4778.72,2563.29c-8.92,1.49-19.7,2.6-27.87,2.6-37.9,0-53.51-15.97-53.51-50.87v-108.43h-30.84v-29.34h30.84v-46.05l40.13-7.06v52.36h38.65v29.34h-39.76v105.46c0,17.45,7.43,23.39,25.27,23.39,4.83,0,9.66,0,14.49-.37l2.6,28.96Z"/><path class="cls-8" d="M4807.33,2507.96c0-32.68,14.49-52.73,50.17-58.3,20.44-3.34,42.74-4.46,65.78-4.83,0-25.62-11.89-38.62-39.76-38.62-22.3,0-45.34,2.23-64.66,4.83l-3.34-29.34c20.44-3.34,44.22-7.06,72.09-7.06,40.51,0,74.69,10.77,74.69,58.3v82.81c0,12.25-.37,23.02-1.49,34.16-20.81,11.88-48.31,15.97-83.61,15.97-50.54,0-69.86-19.68-69.86-57.93M4923.65,2470.82c-15.98.37-35.3.37-50.91,4.83-19.32,4.83-26.76,10.03-26.76,31.93,0,23.02,13.01,29.34,36.79,29.34,12.26,0,27.13-.37,38.65-5.94.37-7.43,1.49-15.97,1.49-25.25v-34.53h.37l.37-.37h0Z"/><path class="cls-8" d="M4987.2,2304.84h40.13v208.32c0,17.08,4.46,29.34,13.38,42.33l-34.93,15.97c-12.26-13.37-19.32-30.45-19.32-56.07v-210.55h.74Z"/><polygon class="cls-8" points="5148.11 2501.27 5187.87 2376.51 5228.37 2376.51 5141.79 2631.61 5101.65 2631.61 5129.9 2551.03 5055.2 2376.51 5096.82 2376.51 5148.11 2501.27"/><path class="cls-8" d="M5328.34,2511.67c0-20.79-19.32-23.02-36.79-28.22-30.1-8.91-58.34-17.08-58.34-57.19s28.24-52.36,65.78-52.36c25.64,0,44.22,2.23,65.78,7.43l-4.46,29.34c-14.49-2.6-30.1-4.83-46.08-4.83-14.86,0-42.36,0-42.36,19.31s22.3,23.02,37.9,28.22c31.96,10.77,57.6,17.08,57.6,57.56,0,42.7-31.96,54.96-72.84,54.96-19.7,0-44.97-2.6-64.66-7.43l4.46-30.08c14.49,2.6,34.93,5.2,49.8,5.2,15.98,0,44.22.74,44.22-21.91"/><path class="cls-8" d="M5504.49,2563.29c-8.92,1.49-19.7,2.6-27.87,2.6-37.9,0-53.51-15.97-53.51-50.87v-108.43h-30.84v-29.34h30.84v-46.05l40.13-7.06v52.36h38.65v29.34h-38.65v105.46c0,17.45,7.43,23.39,25.27,23.39,4.83,0,9.66,0,14.49-.37l1.49,28.96Z"/><path class="cls-9" d="M3192.29,2674.69c-9.66-4.83-18.58-11.88-25.64-20.42-7.43-8.54-13.38-18.94-17.47-30.45-4.09-11.51-6.69-23.77-6.69-37.13,0-77.98,71.35-122.17,60.2-222.43,13.75,12.25,25.27,34.53,31.96,50.87,4.09,11.51,6.69,23.77,6.69,37.13,0,67.21-61.32,116.23-61.32,189.01,0,6.68,1.11,13,3.34,18.57,2.23,5.94,5.57,10.77,8.92,14.85"/><path class="cls-9" d="M3013.17,2542.49c-9.66-4.83-18.58-11.88-25.64-20.42-7.43-8.54-13.38-18.94-17.47-30.45-4.09-11.51-6.69-23.77-6.69-37.13,0-77.98,71.35-122.17,60.2-222.43,13.75,12.25,25.27,34.53,31.96,50.87,4.09,11.51,6.69,23.77,6.69,37.13,0,67.21-61.32,116.23-61.32,189.01,0,6.68,1.11,13,3.34,18.57,2.23,5.57,5.2,10.77,8.92,14.85"/></g><path class="cls-2" d="M3983.52,3831.84l715.35,446.99v-314.19l-715.35-446.99v314.19ZM4728.78,3964.65v314.19l715.33-446.99v-314.19l-715.33,446.99ZM4429.53,3571.93l269.32,168.3v-314.22l-269.32-168.27v314.19ZM4728.78,3426v314.22l269.31-168.3v-314.19l-269.31,168.27ZM4007.34,3502.75l251.53,157.02,140.73-87.94v-314.64l-392.26,245.56ZM5028.01,3571.84l140.76,87.94,251.53-157.02-392.29-245.56v314.64Z"/><g class="cls-5"><polygon class="cls-1" points="3580.99 4082.51 4264.2 2681.72 5846.63 3453.53 5163.43 4854.32 3580.99 4082.51"/></g></svg>