<?xml version="1.0" encoding="utf-8"?>
<!-- Generator: Adobe Illustrator 23.0.4, SVG Export Plug-In . SVG Version: 6.00 Build 0)  -->
<svg version="1.1" id="Layer_1" xmlns="http://www.w3.org/2000/svg" xmlns:xlink="http://www.w3.org/1999/xlink" x="0px" y="0px"
	 viewBox="0 0 360 93.6" style="enable-background:new 0 0 360 93.6;" xml:space="preserve">
<style type="text/css">
	.st0{fill:#006E9A;}
	.st1{fill:#00AEEF;}
</style>
<g>
	<path class="st0" d="M36.18,77c-1.78-0.91-3.47-2.19-4.79-3.83c-1.37-1.64-2.51-3.51-3.24-5.65c-0.78-2.14-1.23-4.51-1.23-6.93
		c0-14.59,12.18-22.53,10.85-37.3c0-0.87-0.18-1.69-0.41-2.42c-0.27-0.78-0.64-1.46-1.14-1.96c1.78,0.91,3.47,2.19,4.79,3.83
		c1.37,1.64,2.51,3.51,3.24,5.65c0.73,2.14,1.23,4.51,1.23,6.93c0,12.63-11.54,21.89-11.54,35.43c0,1.23,0.23,2.42,0.59,3.47
		C35,75.18,35.5,76.18,36.18,77"/>
	<polygon class="st1" points="80.06,62.14 80.06,48.62 67.49,48.62 67.49,62.14 62.11,62.14 62.11,31.54 67.49,31.54 67.49,44.32 
		80.06,44.32 80.06,31.54 85.37,31.54 85.37,62.14 	"/>
	<path class="st1" d="M93.51,52.86c0.27,4.51,2.62,5.58,6.25,5.58c3.16,0,5.98-0.34,8.34-0.61l0.4,3.77
		c-2.56,0.4-5.65,0.87-10.09,0.87c-7.87,0-9.88-5.11-9.88-12.04c0-8.47,2.62-12.04,10.42-12.04c8.47,0,10.22,4.44,10.22,11.43
		c0,0.61,0,1.14-0.07,1.68c-2.62,0.54-8.27,1.01-11.57,1.21L93.51,52.86z M98.08,49.3c1.68-0.07,4.44-0.34,6.05-0.54
		c0-0.34,0.07-0.74,0.07-1.14c0-3.56-1.28-5.58-5.18-5.58c-4.98,0-5.65,3.09-5.65,7.33L98.08,49.3z"/>
	<path class="st1" d="M111.8,55.21c0-4.1,1.82-6.66,6.32-7.33c2.56-0.4,5.38-0.54,8.27-0.61c0-3.23-1.48-4.84-4.98-4.84
		c-2.82,0-5.72,0.27-8.14,0.61l-0.4-3.7c2.56-0.4,5.58-0.87,9.08-0.87c5.11,0,9.41,1.34,9.41,7.33v10.35c0,1.55-0.07,2.89-0.2,4.3
		c-2.62,1.48-6.05,2.02-10.49,2.02C114.22,62.48,111.8,59.99,111.8,55.21 M126.26,50.51c-2.02,0.07-4.44,0.07-6.39,0.61
		c-2.42,0.61-3.36,1.28-3.36,4.03c0,2.89,1.61,3.7,4.64,3.7c1.55,0,3.43-0.07,4.84-0.74c0.07-0.94,0.2-2.02,0.2-3.16v-4.37h0.07
		V50.51z"/>
	<path class="st1" d="M135.27,29.66h5.04v26.22c0,2.15,0.54,3.7,1.68,5.31l-4.37,2.02c-1.55-1.68-2.42-3.83-2.42-7.06L135.27,29.66
		L135.27,29.66z"/>
	<path class="st1" d="M158.06,62.14c-1.14,0.2-2.49,0.34-3.5,0.34c-4.77,0-6.72-2.02-6.72-6.39V42.44h-3.9v-3.7h3.9v-5.78l5.04-0.87
		v6.59h4.84v3.7h-4.84v13.25c0,2.22,0.94,2.96,3.16,2.96c0.61,0,1.21,0,1.82-0.07L158.06,62.14z"/>
	<path class="st1" d="M181.66,62.14h-5.04V47.68c0-3.77-0.67-5.31-5.58-5.31c-1.55,0-3.16,0.34-4.44,0.94v18.83h-5.04V29.66h5.04
		v9.62c1.68-0.54,3.7-0.87,5.78-0.87c8.27,0,9.14,3.83,9.14,8.74v14.99H181.66z"/>
	<path class="st0" d="M206.74,36.05c-1.88-0.34-3.9-0.54-6.05-0.54c-8.2,0-8.27,4.77-8.27,11.16c0,6.52,0.07,11.16,8.27,11.16
		c2.02,0,4.1-0.2,6.05-0.54l0.54,4.1c-1.95,0.54-4.71,0.87-7.67,0.87c-10.09,0-12.57-4.77-12.57-15.6s2.49-15.6,12.57-15.6
		c3.09,0,5.72,0.34,7.67,0.87L206.74,36.05z"/>
	<path class="st0" d="M210.44,55.21c0-4.1,1.82-6.66,6.32-7.33c2.56-0.4,5.38-0.54,8.27-0.61c0-3.23-1.48-4.84-4.98-4.84
		c-2.82,0-5.72,0.27-8.14,0.61l-0.4-3.7c2.56-0.4,5.58-0.87,9.08-0.87c5.11,0,9.41,1.34,9.41,7.33v10.35c0,1.55-0.07,2.89-0.2,4.3
		c-2.62,1.48-6.05,2.02-10.49,2.02C212.93,62.48,210.44,59.99,210.44,55.21 M225.03,50.51c-2.02,0.07-4.44,0.07-6.39,0.61
		c-2.42,0.61-3.36,1.28-3.36,4.03c0,2.89,1.61,3.7,4.64,3.7c1.55,0,3.43-0.07,4.84-0.74c0.07-0.94,0.2-2.02,0.2-3.16v-4.37h0.07
		V50.51z"/>
	<path class="st0" d="M246.55,62.14c-1.14,0.2-2.49,0.34-3.5,0.34c-4.77,0-6.72-2.02-6.72-6.39V42.44h-3.9v-3.7h3.9v-5.78l5.04-0.87
		v6.59h4.84v3.7h-4.98v13.25c0,2.22,0.94,2.96,3.16,2.96c0.61,0,1.21,0,1.82-0.07L246.55,62.14z"/>
	<path class="st0" d="M250.18,55.21c0-4.1,1.82-6.66,6.32-7.33c2.56-0.4,5.38-0.54,8.27-0.61c0-3.23-1.48-4.84-4.98-4.84
		c-2.82,0-5.72,0.27-8.14,0.61l-0.4-3.7c2.56-0.4,5.58-0.87,9.08-0.87c5.11,0,9.41,1.34,9.41,7.33v10.35c0,1.55-0.07,2.89-0.2,4.3
		c-2.62,1.48-6.05,2.02-10.49,2.02C252.6,62.48,250.18,59.99,250.18,55.21 M264.77,50.51c-2.02,0.07-4.44,0.07-6.39,0.61
		c-2.42,0.61-3.36,1.28-3.36,4.03c0,2.89,1.61,3.7,4.64,3.7c1.55,0,3.43-0.07,4.84-0.74c0.07-0.94,0.2-2.02,0.2-3.16v-4.37h0.07
		V50.51z"/>
	<path class="st0" d="M272.77,29.66h5.04v26.22c0,2.15,0.54,3.7,1.68,5.31l-4.37,2.02c-1.55-1.68-2.42-3.83-2.42-7.06V29.66H272.77z
		"/>
	<polygon class="st0" points="293.01,54.34 297.99,38.67 303.1,38.67 292.21,70.75 287.16,70.75 290.73,60.59 281.31,38.67 
		286.56,38.67 	"/>
	<path class="st0" d="M315.67,55.68c0-2.62-2.42-2.89-4.64-3.56c-3.77-1.14-7.33-2.15-7.33-7.19c0-5.11,3.56-6.59,8.27-6.59
		c3.23,0,5.58,0.27,8.27,0.94l-0.54,3.7c-1.82-0.34-3.77-0.61-5.78-0.61c-1.88,0-5.31,0-5.31,2.42c0,2.49,2.82,2.89,4.77,3.56
		c4.03,1.34,7.26,2.15,7.26,7.26c0,5.38-4.03,6.93-9.14,6.93c-2.49,0-5.65-0.34-8.14-0.94l0.54-3.77c1.82,0.34,4.37,0.67,6.25,0.67
		C312.11,58.44,315.67,58.51,315.67,55.68"/>
	<path class="st0" d="M337.79,62.14c-1.14,0.2-2.49,0.34-3.5,0.34c-4.77,0-6.72-2.02-6.72-6.39V42.44h-3.9v-3.7h3.9v-5.78l5.04-0.87
		v6.59h4.84v3.7h-4.84v13.25c0,2.22,0.94,2.96,3.16,2.96c0.61,0,1.21,0,1.82-0.07L337.79,62.14z"/>
	<path class="st1" d="M47.13,76.18c-1.23-0.59-2.33-1.5-3.24-2.55c-0.91-1.09-1.69-2.37-2.19-3.83c-0.5-1.46-0.82-3.01-0.82-4.65
		c0-9.8,8.98-15.37,7.57-28c1.73,1.55,3.19,4.33,4.01,6.38c0.5,1.46,0.82,3.01,0.82,4.65c0,8.44-7.71,14.64-7.71,23.76
		c0,0.82,0.14,1.64,0.41,2.33C46.26,75.04,46.67,75.68,47.13,76.18"/>
	<path class="st1" d="M24.6,59.53c-1.23-0.59-2.33-1.5-3.24-2.55c-0.91-1.09-1.69-2.37-2.19-3.83c-0.5-1.46-0.82-3.01-0.82-4.65
		c0-9.8,8.98-15.37,7.57-28c1.73,1.55,3.19,4.33,4.01,6.38c0.5,1.46,0.82,3.01,0.82,4.65c0,8.44-7.71,14.64-7.71,23.76
		c0,0.82,0.14,1.64,0.41,2.33C23.73,58.39,24.14,59.03,24.6,59.53"/>
</g>
<g>
	<path class="st0" d="M342.35,32.07c0,1.29-1.01,2.31-2.33,2.31c-1.31,0-2.35-1.01-2.35-2.31c0-1.26,1.04-2.28,2.35-2.28
		C341.34,29.79,342.35,30.81,342.35,32.07z M338.26,32.07c0,1.01,0.75,1.82,1.78,1.82c1,0,1.74-0.81,1.74-1.81
		c0-1.01-0.74-1.83-1.75-1.83C339.01,30.25,338.26,31.07,338.26,32.07z M339.66,33.26h-0.53v-2.28c0.21-0.04,0.5-0.07,0.87-0.07
		c0.43,0,0.63,0.07,0.79,0.17c0.12,0.1,0.22,0.28,0.22,0.5c0,0.25-0.19,0.44-0.47,0.53v0.03c0.22,0.08,0.35,0.25,0.42,0.56
		c0.07,0.35,0.11,0.49,0.17,0.57h-0.57c-0.07-0.08-0.11-0.29-0.18-0.56c-0.04-0.25-0.18-0.36-0.47-0.36h-0.25V33.26z M339.67,31.97
		h0.25c0.29,0,0.53-0.1,0.53-0.33c0-0.21-0.15-0.35-0.49-0.35c-0.14,0-0.24,0.01-0.29,0.03V31.97z"/>
</g>
</svg>
