<?xml version="1.0" encoding="UTF-8"?>
<svg id="Layer_1" xmlns="http://www.w3.org/2000/svg" version="1.1" viewBox="0 0 360 93.6">
  <!-- Generator: Adobe Illustrator 29.5.1, SVG Export Plug-In . SVG Version: 2.1.0 Build 141)  -->
  <defs>
    <style>
      .st0 {
        fill: #fff;
      }

      .st1 {
        fill: #052533;
      }
    </style>
  </defs>
  <g id="Layer_2">
    <rect class="st1" x="-.6" y="-.4" width="361.2" height="94.3"/>
  </g>
  <g id="Layer_11" data-name="Layer_1">
    <g>
      <path class="st0" d="M37.1,77.9c-1.9-1-3.7-2.3-5.1-4.1-1.5-1.8-2.7-3.8-3.5-6.1-.8-2.3-1.3-4.8-1.3-7.4,0-15.6,13-24.1,11.6-39.9,0-.9-.2-1.8-.4-2.6-.3-.8-.7-1.6-1.2-2.1,1.9,1,3.7,2.3,5.1,4.1,1.5,1.8,2.7,3.8,3.5,6,.8,2.3,1.3,4.8,1.3,7.4,0,13.5-12.3,23.4-12.3,37.9s.2,2.6.6,3.7c.5,1,1,2.1,1.8,3"/>
      <polygon class="st0" points="83 61.5 83 48.1 70.6 48.1 70.6 61.5 65.3 61.5 65.3 31.3 70.6 31.3 70.6 43.9 83 43.9 83 31.3 88.3 31.3 88.3 61.5 83 61.5"/>
      <path class="st0" d="M96.3,52.3c.3,4.5,2.6,5.5,6.2,5.5s5.9-.3,8.2-.6l.4,3.7c-2.5.4-5.6.9-10,.9-7.8,0-9.8-5-9.8-11.9s2.6-11.9,10.3-11.9,10.1,4.4,10.1,11.3,0,1.1,0,1.7c-2.6.5-8.2,1-11.4,1.2h-4ZM100.8,48.8c1.7,0,4.4-.3,6-.5,0-.3,0-.7,0-1.1,0-3.5-1.3-5.5-5.1-5.5s-5.6,3-5.6,7.2h4.6Z"/>
      <path class="st0" d="M114.4,54.6c0-4,1.8-6.6,6.2-7.2,2.5-.4,5.3-.5,8.2-.6,0-3.2-1.5-4.8-4.9-4.8s-5.6.3-8,.6l-.4-3.7c2.5-.4,5.5-.9,9-.9,5.1,0,9.3,1.3,9.3,7.2v10.2c0,1.5,0,2.8-.2,4.2-2.6,1.5-6,2-10.4,2-6.4,0-8.8-2.5-8.8-7.2M128.6,50c-2,0-4.4,0-6.3.6-2.4.6-3.3,1.3-3.3,4s1.6,3.7,4.6,3.7,3.4,0,4.8-.7c0-.9.2-2,.2-3.1v-4.3h0q0,0,0,0Z"/>
      <path class="st0" d="M137.5,29.4h5v25.9c0,2.1.5,3.7,1.7,5.2l-4.3,2c-1.5-1.7-2.4-3.8-2.4-7v-26.2h0Z"/>
      <path class="st0" d="M160,61.5c-1.1.2-2.5.3-3.4.3-4.7,0-6.6-2-6.6-6.3v-13.5h-3.9v-3.7h3.9v-5.7l5-.9v6.5h4.8v3.7h-4.8v13.1c0,2.2.9,2.9,3.1,2.9s1.2,0,1.8,0l.2,3.6Z"/>
      <path class="st0" d="M183.3,61.5h-5v-14.3c0-3.7-.7-5.2-5.5-5.2s-3.1.3-4.4.9v18.6h-5V29.4h5v9.5c1.7-.5,3.6-.9,5.7-.9,8.2,0,9,3.8,9,8.6v14.8h.1Z"/>
      <path class="st0" d="M208.1,35.7c-1.9-.3-3.9-.5-6-.5-8.1,0-8.2,4.7-8.2,11s0,11,8.2,11,4.1-.2,6-.5l.5,4c-1.9.5-4.6.9-7.6.9-10,0-12.4-4.7-12.4-15.4s2.5-15.4,12.4-15.4,5.6.3,7.6.9l-.5,4Z"/>
      <path class="st0" d="M211.8,54.6c0-4,1.8-6.6,6.2-7.2,2.5-.4,5.3-.5,8.2-.6,0-3.2-1.5-4.8-4.9-4.8s-5.6.3-8,.6l-.4-3.7c2.5-.4,5.5-.9,9-.9,5.1,0,9.3,1.3,9.3,7.2v10.2c0,1.5,0,2.8-.2,4.2-2.6,1.5-6,2-10.4,2-6.3,0-8.8-2.5-8.8-7.2M226.2,50c-2,0-4.4,0-6.3.6-2.4.6-3.3,1.3-3.3,4s1.6,3.7,4.6,3.7,3.4,0,4.8-.7c0-.9.2-2,.2-3.1v-4.3h0Z"/>
      <path class="st0" d="M247.4,61.5c-1.1.2-2.5.3-3.4.3-4.7,0-6.6-2-6.6-6.3v-13.5h-3.9v-3.7h3.9v-5.7l5-.9v6.5h4.8v3.7h-4.9v13.1c0,2.2.9,2.9,3.1,2.9s1.2,0,1.8,0l.3,3.6Z"/>
      <path class="st0" d="M251,54.6c0-4,1.8-6.6,6.2-7.2,2.5-.4,5.3-.5,8.2-.6,0-3.2-1.5-4.8-4.9-4.8s-5.6.3-8,.6l-.4-3.7c2.5-.4,5.5-.9,9-.9,5,0,9.3,1.3,9.3,7.2v10.2c0,1.5,0,2.8-.2,4.2-2.6,1.5-6,2-10.4,2-6.4,0-8.8-2.5-8.8-7.2M265.4,50c-2,0-4.4,0-6.3.6-2.4.6-3.3,1.3-3.3,4s1.6,3.7,4.6,3.7,3.4,0,4.8-.7c0-.9.2-2,.2-3.1v-4.3h0Z"/>
      <path class="st0" d="M273.3,29.4h5v25.9c0,2.1.5,3.7,1.7,5.2l-4.3,2c-1.5-1.7-2.4-3.8-2.4-7v-26.2h0Z"/>
      <polygon class="st0" points="293.3 53.8 298.2 38.3 303.2 38.3 292.5 70 287.5 70 291 60 281.7 38.3 286.9 38.3 293.3 53.8"/>
      <path class="st0" d="M315.7,55.1c0-2.6-2.4-2.8-4.6-3.5-3.7-1.1-7.2-2.1-7.2-7.1s3.5-6.5,8.2-6.5,5.5.3,8.2.9l-.5,3.7c-1.8-.3-3.7-.6-5.7-.6s-5.2,0-5.2,2.4,2.8,2.8,4.7,3.5c4,1.3,7.2,2.1,7.2,7.2s-4,6.8-9,6.8-5.6-.3-8-.9l.5-3.7c1.8.3,4.3.7,6.2.7,1.9,0,5.4,0,5.4-2.8"/>
      <path class="st0" d="M337.5,61.5c-1.1.2-2.5.3-3.5.3-4.7,0-6.6-2-6.6-6.3v-13.5h-3.9v-3.7h3.9v-5.7l5-.9v6.5h4.8v3.7h-4.8v13.1c0,2.2.9,2.9,3.1,2.9s1.2,0,1.8,0l.2,3.6Z"/>
      <path class="st0" d="M48.8,77c-1.3-.6-2.5-1.6-3.5-2.7-1-1.2-1.8-2.5-2.3-4.1s-.9-3.2-.9-5c0-10.5,9.6-16.4,8.1-30,1.8,1.7,3.4,4.6,4.3,6.8.5,1.6.9,3.2.9,5,0,9-8.2,15.7-8.2,25.4s.2,1.8.4,2.5c.3.8.7,1.5,1.2,2.1"/>
      <path class="st0" d="M24.7,59.2c-1.3-.6-2.5-1.6-3.5-2.7-1-1.2-1.8-2.5-2.3-4.1-.5-1.6-.9-3.2-.9-5,0-10.5,9.6-16.4,8.1-30,1.9,1.7,3.4,4.6,4.3,6.8.5,1.6.9,3.2.9,5,0,9-8.2,15.7-8.2,25.4s.1,1.8.4,2.5c.3.8.7,1.5,1.2,2"/>
    </g>
    <path class="st0" d="M342,31.8c0,1.3-1,2.3-2.3,2.3s-2.3-1-2.3-2.3,1-2.2,2.3-2.2,2.3,1,2.3,2.2ZM338,31.8c0,1,.7,1.8,1.8,1.8s1.7-.8,1.7-1.8-.7-1.8-1.7-1.8c-1,0-1.7.8-1.7,1.8ZM339.3,33h-.5v-2.2c.2,0,.5,0,.9,0s.6,0,.8.2c.1.1.2.3.2.5s-.2.4-.5.5h0c.2.1.3.3.4.6,0,.3.1.5.2.6h-.6c0,0-.1-.3-.2-.5,0-.2-.2-.4-.5-.4h-.2v.9h0ZM339.4,31.7h.2c.3,0,.5-.1.5-.3s-.1-.3-.5-.3-.2,0-.3,0v.6h0Z"/>
  </g>
</svg>