<?xml version="1.0" encoding="UTF-8"?>
<svg id="Layer_1" xmlns="http://www.w3.org/2000/svg" version="1.1" viewBox="0 0 76.6 127.4">
  <!-- Generator: Adobe Illustrator 29.5.1, SVG Export Plug-In . SVG Version: 2.1.0 Build 141)  -->
  <defs>
    <style>
      .st0 {
        fill: #005cb7;
      }

      .st1 {
        fill: #003d66;
      }
    </style>
  </defs>
  <g id="Layer_2">
    <g id="Layer_1-2">
      <path class="st1" d="M39.1,127.4c-4-2-7.6-4.9-10.5-8.4-3.1-3.7-5.5-7.9-7.1-12.4-1.8-4.9-2.7-10-2.7-15.2,0-32,26.7-49.4,23.8-81.8,0-1.8-.3-3.6-.9-5.3C41.2,2.7,40.3,1.2,39.2,0c4,2,7.6,4.9,10.5,8.4,3.1,3.7,5.5,7.9,7.1,12.4,1.7,4.9,2.6,10,2.7,15.2,0,27.7-25.3,48-25.3,77.7,0,2.6.4,5.2,1.3,7.6.9,2.2,2.2,4.2,3.6,6.1"/>
      <path class="st0" d="M63.1,125.6c-2.7-1.4-5.1-3.3-7.1-5.6-2.1-2.5-3.7-5.3-4.8-8.4-1.2-3.3-1.8-6.7-1.8-10.2,0-21.5,19.7-33.7,16.6-61.4,3.8,3.4,7,9.5,8.8,14,1.2,3.3,1.8,6.7,1.8,10.2,0,18.5-16.9,32.1-16.9,52.1,0,1.7.3,3.5.9,5.1.5,1.6,1.4,3,2.5,4.2"/>
      <path class="st0" d="M13.7,89.1c-2.7-1.4-5.1-3.3-7.1-5.6-2.1-2.5-3.7-5.3-4.8-8.4-1.2-3.3-1.8-6.7-1.8-10.2C0,43.4,19.7,31.2,16.6,3.5c3.8,3.4,7,9.5,8.8,14,1.2,3.3,1.8,6.7,1.8,10.2,0,18.5-16.9,32.1-16.9,52.1,0,1.7.3,3.5.9,5.1.5,1.6,1.4,3,2.5,4.2"/>
      <path class="st1" d="M66.5,7.3c0,1.9-1.5,3.5-3.4,3.6s-3.5-1.5-3.6-3.4,1.5-3.5,3.4-3.6c0,0,0,0,0,0,1.9,0,3.4,1.4,3.5,3.3,0,0,0,0,0,0ZM60.4,7.3c0,1.4,1.1,2.7,2.5,2.7,0,0,0,0,0,0,1.4,0,2.6-1.1,2.6-2.6,0,0,0,0,0-.1,0-1.4-1.2-2.6-2.6-2.6s-2.6,1.2-2.6,2.6h0ZM62.5,9.1h-.8v-3.4c.4,0,.9-.1,1.3,0,.4,0,.8,0,1.2.2.2.2.3.5.3.7,0,.4-.3.7-.7.8h0c.3.1.6.5.6.8,0,.3.1.6.2.9h-.8c-.1-.3-.2-.5-.3-.8,0-.4-.3-.5-.7-.5h-.4v1.4ZM62.5,7.1h.4c.4,0,.8-.1.8-.5s-.2-.5-.7-.5c-.1,0-.3,0-.4,0v1Z"/>
    </g>
  </g>
</svg>