<svg id="Layer_1" data-name="Layer 1" xmlns="http://www.w3.org/2000/svg" viewBox="0 0 797.96 300"><defs><style>.cls-1{fill:#054e6c;}.cls-2{fill:#ec6523;}.cls-3{opacity:0.8;}.cls-4,.cls-5{fill:#5e666f;}.cls-5{opacity:0.75;}</style></defs><path class="cls-1" d="M130.18,167.13V131H120v-15.2h10.2V96.23h18.9v19.6h15.3V131h-15.3v34.8c0,4.7,1.8,6.6,6.8,6.6h7.6v15.2h-13C136.68,187.53,130.18,179.83,130.18,167.13Z"/><path class="cls-1" d="M257.88,187.53h-17.5l-15.7-49.4L209,187.53h-17.5l-18.7-71.7H191l10.5,48.1,14.6-48.1h17.2l14.6,48.1,10.5-48.1h18.2Z"/><path class="cls-1" d="M292.58,86.13A10.9,10.9,0,1,1,281.68,97,10.62,10.62,0,0,1,292.58,86.13Zm-9.4,29.7H302v71.7h-18.8Z"/><path class="cls-1" d="M310.88,166.33v-1.2h16.6v1c0,6.2,5.7,9.9,14.5,9.9,7.9,0,13.7-3.2,13.7-8.7,0-3.4-1.8-5.5-5.9-6.5l-21.2-4.8c-10.8-2.5-16.4-8-16.4-18.9,0-14.8,12-22.9,29-22.9,17.2,0,28.4,8.7,28.4,22.9v1.1h-16.4V137c0-5.5-3.4-9.4-11.7-9.4-7.6,0-11.7,2.8-11.7,7.9,0,3.6,1.8,5.2,5.5,6.1l21.8,5.4c10.6,2.6,16,8.3,16,18.3,0,13.9-13.2,24-31,24C323.58,189.23,310.88,181.63,310.88,166.33Z"/><path class="cls-1" d="M386.38,167.13V131h-10.2v-15.2h10.2V96.23h18.9v19.6h15.3V131h-15.3v34.8c0,4.7,1.8,6.6,6.8,6.6h7.6v15.2h-13C392.78,187.53,386.38,179.83,386.38,167.13Z"/><path class="cls-1" d="M430.88,86.83h18.8v100.7h-18.8Z"/><path class="cls-1" d="M459.88,157.23v-9.8c0-19.4,11.6-33.2,33.1-33.2,21.2,0,32,14.2,32,31.4v12.6h-46.9V160c0,8.4,4.3,15.7,15.2,15.7,8,0,13-4.1,14.8-9.1h16.4c-2.5,13.1-15.3,22.6-31.2,22.6C473,189.23,459.88,177.33,459.88,157.23Zm18.2-12.3h29.7v-1.8c0-9-4.7-15.7-14.8-15.7-10.8,0-14.9,7.2-14.9,16.8v.7Z"/><path class="cls-2" d="M643.38,38.63a74.41,74.41,0,0,0-74.4,74.5c0,18.7,6.8,36.2,20,50.7l-50.4,23.7h83.6c67.6,0,95.8-33.3,95.8-74.4a74.58,74.58,0,0,0-74.6-74.5Z"/><g class="cls-3"><path class="cls-4" d="M141.57,224.55a7.67,7.67,0,0,1,6.31,2.77q2.25,2.77,2.25,7.86t-2.26,7.89a7.66,7.66,0,0,1-6.3,2.81,9,9,0,0,1-3.67-.74,7,7,0,0,1-2.8-2.29h-.22l-.66,2.65H132V216.24h3.12v7.11q0,2.39-.15,4.29h.15A7.41,7.41,0,0,1,141.57,224.55Zm-.45,2.61a5.48,5.48,0,0,0-4.61,1.84q-1.41,1.83-1.41,6.18c0,2.89.49,5,1.45,6.21a5.52,5.52,0,0,0,4.65,1.87,4.81,4.81,0,0,0,4.29-2.09,10.8,10.8,0,0,0,1.41-6q0-4-1.41-6A5,5,0,0,0,141.12,227.16Z"/><path class="cls-4" d="M151.76,224.89h3.35l4.51,11.75a45.32,45.32,0,0,1,1.85,5.82h.15c.16-.64.5-1.74,1-3.29s2.22-6.31,5.11-14.28h3.35l-8.86,23.47a11.76,11.76,0,0,1-3.08,4.94,6.54,6.54,0,0,1-4.31,1.46,12.63,12.63,0,0,1-2.82-.32v-2.51a10.82,10.82,0,0,0,2.31.23q3.21,0,4.59-3.61l1.15-2.93Z"/><g class="cls-3"><path class="cls-4" d="M526.08,218.42a5,5,0,0,1-5.07,5,5,5,0,1,1,0-10A5,5,0,0,1,526.08,218.42Zm-8.9,0a3.83,3.83,0,0,0,3.86,4,3.79,3.79,0,0,0,3.77-3.92,3.82,3.82,0,1,0-7.63,0Zm3.05,2.59h-1.15v-4.95a10.08,10.08,0,0,1,1.9-.15,3,3,0,0,1,1.72.37,1.36,1.36,0,0,1,.48,1.08,1.27,1.27,0,0,1-1,1.15v.06a1.45,1.45,0,0,1,.9,1.21,3.43,3.43,0,0,0,.37,1.23h-1.24a4.21,4.21,0,0,1-.39-1.2c-.09-.55-.4-.79-1-.79h-.54Zm0-2.8h.54c.63,0,1.15-.21,1.15-.73s-.33-.75-1.06-.75a2.73,2.73,0,0,0-.63.06Z"/></g><path class="cls-4" d="M201.69,261.37a15.49,15.49,0,0,1-4.91-3.94,17.8,17.8,0,0,1-3.31-5.81,20.71,20.71,0,0,1-1.25-7.12c0-15,12.54-23.16,11.15-38.34a8.23,8.23,0,0,0-.43-2.5,5.89,5.89,0,0,0-1.16-2,15.34,15.34,0,0,1,4.9,3.94,17.65,17.65,0,0,1,3.32,5.81,23.4,23.4,0,0,1,1.25,7.12c0,13-11.87,22.53-11.87,36.42a10.77,10.77,0,0,0,.62,3.56,13.19,13.19,0,0,0,1.69,2.88"/><polygon class="cls-4" points="246.81 246.09 246.81 232.15 233.88 232.15 233.88 246.09 228.35 246.09 228.35 214.61 233.88 214.61 233.88 227.73 246.81 227.73 246.81 214.61 252.29 214.61 252.29 246.09 246.81 246.09"/><path class="cls-4" d="M260.65,236.53c.29,4.61,2.69,5.71,6.44,5.71a69.39,69.39,0,0,0,8.55-.62l.43,3.89a59.46,59.46,0,0,1-10.38.92c-8.07,0-10.18-5.24-10.18-12.4,0-8.7,2.69-12.4,10.71-12.4,8.7,0,10.53,4.57,10.53,11.77,0,.63,0,1.16-.05,1.73a103.33,103.33,0,0,1-11.92,1.25Zm4.71-3.66c1.73,0,4.56-.33,6.24-.57,0-.34,0-.77,0-1.16,0-3.65-1.3-5.71-5.33-5.71-5.14,0-5.82,3.17-5.82,7.54Z"/><path class="cls-4" d="M279.48,238.93c0-4.23,1.88-6.82,6.49-7.55a60.14,60.14,0,0,1,8.51-.62c0-3.32-1.54-5-5.14-5a63.76,63.76,0,0,0-8.37.63l-.43-3.8a55.88,55.88,0,0,1,9.32-.91c5.24,0,9.66,1.39,9.66,7.54v10.72c0,1.58,0,3-.19,4.42-2.69,1.54-6.25,2.07-10.81,2.07-6.59,0-9-2.55-9-7.5m14.85-4.81a27.51,27.51,0,0,0-6.58.63c-2.5.62-3.46,1.3-3.46,4.13,0,3,1.68,3.8,4.76,3.8a11.85,11.85,0,0,0,5-.77c0-1,.2-2.07.2-3.27v-4.47h0l.05,0Z"/><path class="cls-4" d="M303.61,212.64h5.19v27a8.93,8.93,0,0,0,1.73,5.48L306,247.15a10,10,0,0,1-2.5-7.26l.1-27.25Z"/><path class="cls-4" d="M327.06,246.09a24.4,24.4,0,0,1-3.61.34c-4.9,0-6.92-2.07-6.92-6.59v-14h-4V222h4v-5.95l5.19-.92v6.78h5v3.79h-5v13.65c0,2.26,1,3,3.27,3,.63,0,1.25,0,1.87,0Z"/><path class="cls-4" d="M351.32,246.09h-5.19V231.24c0-3.89-.67-5.48-5.71-5.48a11,11,0,0,0-4.57,1v19.37h-5.19v-33.4h5.19v9.9a19.07,19.07,0,0,1,6-.91c8.5,0,9.42,3.94,9.42,9v15.43Z"/><path class="cls-4" d="M377.13,219.23a35.52,35.52,0,0,0-6.25-.58c-8.46,0-8.5,4.9-8.5,11.49s0,11.48,8.5,11.48a33.49,33.49,0,0,0,6.25-.58l.57,4.23a30.11,30.11,0,0,1-7.88.92c-10.38,0-12.92-4.91-12.92-16.05s2.54-16,12.92-16a29.34,29.34,0,0,1,7.88.91Z"/><path class="cls-4" d="M380.92,238.93c0-4.23,1.88-6.82,6.49-7.55a60.14,60.14,0,0,1,8.51-.62c0-3.32-1.54-5-5.14-5a63.76,63.76,0,0,0-8.37.63l-.43-3.8a55.88,55.88,0,0,1,9.32-.91c5.24,0,9.66,1.39,9.66,7.54v10.72c0,1.58,0,3-.19,4.42-2.69,1.54-6.25,2.07-10.81,2.07-6.49,0-9-2.55-9-7.5m15-4.81a27.54,27.54,0,0,0-6.59.63c-2.5.62-3.46,1.3-3.46,4.13,0,3,1.69,3.8,4.76,3.8a11.87,11.87,0,0,0,5-.77c.05-1,.19-2.07.19-3.27v-4.47h.05l.05,0Z"/><path class="cls-4" d="M418.07,246.09a24.27,24.27,0,0,1-3.6.34c-4.91,0-6.92-2.07-6.92-6.59v-14h-4V222h4v-5.95l5.19-.92v6.78h5v3.79h-5.14v13.65c0,2.26,1,3,3.27,3,.62,0,1.25,0,1.87,0Z"/><path class="cls-4" d="M421.77,238.93c0-4.23,1.87-6.82,6.49-7.55a60,60,0,0,1,8.5-.62c0-3.32-1.54-5-5.14-5a63.74,63.74,0,0,0-8.36.63l-.43-3.8a55.88,55.88,0,0,1,9.32-.91c5.24,0,9.66,1.39,9.66,7.54v10.72c0,1.58-.05,3-.19,4.42-2.7,1.54-6.25,2.07-10.82,2.07-6.53,0-9-2.55-9-7.5m15-4.81a27.46,27.46,0,0,0-6.58.63c-2.5.62-3.46,1.3-3.46,4.13,0,3,1.68,3.8,4.75,3.8a11.87,11.87,0,0,0,5-.77c.05-1,.19-2.07.19-3.27v-4.47h.05l.05,0Z"/><path class="cls-4" d="M445,212.64h5.19v27a8.93,8.93,0,0,0,1.73,5.48l-4.52,2.07a10,10,0,0,1-2.5-7.26V212.64Z"/><polygon class="cls-4" points="465.83 238.06 470.98 221.92 476.21 221.92 465.02 254.93 459.83 254.93 463.48 244.5 453.82 221.92 459.2 221.92 465.83 238.06"/><path class="cls-4" d="M489.14,239.41c0-2.69-2.5-3-4.76-3.65-3.89-1.16-7.54-2.21-7.54-7.4s3.65-6.78,8.5-6.78a33.8,33.8,0,0,1,8.51,1l-.58,3.8a33.39,33.39,0,0,0-6-.63c-1.92,0-5.47,0-5.47,2.5s2.88,3,4.9,3.66c4.13,1.39,7.45,2.21,7.45,7.44,0,5.53-4.14,7.12-9.42,7.12a37.77,37.77,0,0,1-8.36-1l.57-3.89a40.89,40.89,0,0,0,6.44.67c2.07,0,5.72.1,5.72-2.83"/><path class="cls-4" d="M511.92,246.09a24.4,24.4,0,0,1-3.61.34c-4.9,0-6.92-2.07-6.92-6.59v-14h-4V222h4v-5.95l5.19-.92v6.78h5v3.79h-5v13.65c0,2.26,1,3,3.27,3,.63,0,1.25,0,1.88,0Z"/><path class="cls-5" d="M212.93,260.51a10.46,10.46,0,0,1-3.32-2.65,12,12,0,0,1-2.25-3.94,14.16,14.16,0,0,1-.87-4.8c0-10.09,9.23-15.81,7.79-28.79a19.51,19.51,0,0,1,4.13,6.59,14.15,14.15,0,0,1,.86,4.8c0,8.7-7.93,15-7.93,24.46a6.41,6.41,0,0,0,.44,2.4,7,7,0,0,0,1.15,1.93"/><path class="cls-5" d="M189.77,243.4a10.57,10.57,0,0,1-3.32-2.64,12.39,12.39,0,0,1-2.26-3.95,14.35,14.35,0,0,1-.86-4.8c0-10.09,9.23-15.81,7.78-28.78a19.24,19.24,0,0,1,4.14,6.58,14.15,14.15,0,0,1,.86,4.8c0,8.7-7.93,15-7.93,24.46a6.46,6.46,0,0,0,.44,2.41,6.25,6.25,0,0,0,1.15,1.92"/></g></svg>