<?xml version="1.0" encoding="UTF-8"?>
<svg id="Layer_2" data-name="Layer 2" xmlns="http://www.w3.org/2000/svg" viewBox="0 0 1094.4 276.5763">
  <defs>
    <style>
      .cls-1 {
        fill: #3ab774;
      }

      .cls-2 {
        isolation: isolate;
        opacity: .75;
      }

      .cls-2, .cls-3 {
        fill: #5f6770;
      }

      .cls-4 {
        fill: #23464f;
      }

      .cls-5 {
        opacity: .8;
      }
    </style>
  </defs>
  <g id="Layer_1-2" data-name="Layer 1-2">
    <g>
      <g>
        <path class="cls-4" d="M291.3,126.8V59.8h13v66.2c0,24.8,13.1,38.9,35.2,38.9s34.6-12.9,34.6-38.1V59.8h13v66c0,33.6-19.2,51.1-48.1,51.1s-47.8-17.5-47.8-50.1"/>
        <path class="cls-4" d="M460.3,59.9c26,0,43.1,13.8,43.1,36.6v.3c0,24.8-20.7,37.7-45.2,37.7h-27.9v40.7h-13V59.9h43ZM458.5,122.6c19,0,31.5-10.3,31.5-25.3v-.4c0-16.4-12.3-25.1-31-25.1h-29v50.7h28.5v.1Z"/>
        <path class="cls-4" d="M526.3,59.8h82.7v12.1h-69.7v41.1h62.3v11.8h-62.3v50.3h-13V59.8"/>
        <path class="cls-4" d="M678.5,59.8c14.1,0,25.5,4.2,32.7,11.5,5.6,5.6,8.9,13.7,8.9,22.7v.3c0,19-13.2,30.3-31.2,33.6l35.3,47.1h-16l-33.4-44.8h-32.9v44.8h-13V59.8h49.6ZM677.4,118.5c17.3,0,29.6-8.9,29.6-23.7v-.3c0-14.1-10.8-22.7-29.5-22.7h-35.5v46.7h35.4Z"/>
        <path class="cls-4" d="M741.1,117.4c0-31.8,23.8-59.6,58.9-59.6s58.5,27.5,58.5,59.3v.3c0,31.8-23.8,59.6-58.9,59.6s-58.5-27.5-58.5-59.3v-.3h0ZM845.1,117.7v-.3c0-26.2-19-47.5-45.3-47.5s-45.1,21.1-45.1,47.2v.3c0,26.2,19,47.5,45.3,47.5s45.1-21.1,45.1-47.2h0Z"/>
        <path class="cls-4" d="M884,59.8h12.2l72.6,92.3V59.8h12.6v115.2h-10.4l-74.4-94.5v94.5h-12.6V59.8"/>
        <path class="cls-4" d="M1042.6,71.8h-38.6v-12h90.4v12h-38.6v103.1h-13.2v-103.1"/>
      </g>
      <g>
        <path class="cls-1" d="M188.6,92.9h-43v96c0,16.4-13.3,29.9-29.7,29.9h0c-16.4,0-29.9-13.3-29.7-29.9v-96h-13.3v96c0,23.8,19.3,43,43,43h0c23.8,0,43-19.3,43-43h0v-82.9h29.7c16.4,0,29.9,13.3,29.9,29.9h0c0,16.4-13.3,29.9-29.7,29.9h-23.1v13.3h23.1c23.8,0,43-19.3,43-43h0c0-23.8-19.3-43.1-43.1-43.1"/>
        <path class="cls-1" d="M96,.2c-23.8,0-43,19.3-43,43h0v23.1h13.3v-23.2c0-16.4,13.3-29.9,29.7-29.9h0c16.4,0,29.9,13.3,29.7,29.9h0v29.9H43c-23.7,0-43,19.2-43,43h0c0,23.8,19.3,43,43,43h23.1v-13.3h-23.2c-16.4,0-29.9-13.3-29.7-29.9h0c0-16.4,13.3-29.9,29.7-29.9h96v-42.9C138.9,19.2,119.6,0,95.9,0h0"/>
        <path class="cls-1" d="M92.7,159.1h46.3v-13.3h-46.3v13.3Z"/>
      </g>
    </g>
  </g>
  <g class="cls-5">
    <g>
      <path class="cls-3" d="M639.8425,234.6039c3.0901,0,5.489,1.0542,7.199,3.1625,1.7092,2.1084,2.5638,5.0923,2.5638,8.9517s-.8618,6.857-2.5856,8.9935c-1.7237,2.1365-4.1161,3.2052-7.1773,3.2052-1.5306,0-2.9283-.2825-4.1942-.8466s-2.3281-1.4324-3.1867-2.6049h-.2575l-.7508,3.0233h-2.5533v-33.3603h3.5617v8.1043c0,1.8154-.0571,3.445-.1714,4.8879h.1714c1.6593-2.3441,4.1201-3.5158,7.3809-3.5158v-.0008ZM639.3275,237.5838c-2.4318,0-4.1837.6969-5.2564,2.0907-1.0727,1.393-1.6094,3.7411-1.6094,7.0429s.5504,5.6636,1.6521,7.0855c1.1017,1.4219,2.868,2.1333,5.2999,2.1333,2.1888,0,3.8192-.7967,4.8919-2.39s1.6094-3.8844,1.6094-6.8715c0-3.0587-.5367-5.3385-1.6094-6.8401-1.0727-1.5008-2.732-2.2508-4.978-2.2508Z"/>
      <path class="cls-3" d="M651.4659,234.9893h3.8192l5.1502,13.4001c1.1298,3.0595,1.8308,5.2669,2.1019,6.6252h.1714c.1859-.7291.5762-1.9764,1.17-3.7411.5931-1.7647,2.5349-7.1934,5.8254-16.2834h3.8192l-10.1056,26.7568c-1.0011,2.6443-2.1703,4.5201-3.5078,5.6282-1.3383,1.1073-2.9791,1.6617-4.9241,1.6617-1.0872,0-2.1599-.1215-3.2189-.3645v-2.8519c.7862.1714,1.6658.2575,2.6395.2575,2.4463,0,4.191-1.372,5.2347-4.1161l1.3093-3.3444-9.4836-23.6265-.0008-.0016Z"/>
    </g>
    <g class="cls-5">
      <path class="cls-3" d="M1078.4953,227.6125c0,3.1996-2.5123,5.7095-5.7819,5.7095-3.2358,0-5.8181-2.5107-5.8181-5.7095,0-3.1303,2.5823-5.6403,5.8181-5.6403,3.2696,0,5.7819,2.5107,5.7819,5.6403ZM1068.3406,227.6125c0,2.5115,1.8589,4.5064,4.4058,4.5064,2.4785,0,4.3036-1.9949,4.3036-4.4718,0-2.5107-1.8251-4.5394-4.3374-4.5394s-4.3728,2.0295-4.3728,4.5056l.0008-.0008ZM1071.8178,230.5698h-1.3069v-5.6403c.5166-.1038,1.2384-.1722,2.1679-.1722,1.0662,0,1.5491.1722,1.9627.4128.309.2406.5504.688.5504,1.2385,0,.6188-.4812,1.1008-1.17,1.3069v.0684c.5513.206.861.6196,1.0333,1.3761.1722.8594.276,1.2039.4128,1.4099h-1.4107c-.1722-.206-.276-.7226-.4482-1.3753-.1038-.6188-.4482-.894-1.17-.894h-.6204v2.2701l-.0007-.0008ZM1071.8524,227.3719h.6204c.7218,0,1.3069-.2406,1.3069-.8256,0-.515-.3782-.8594-1.2055-.8594-.3444,0-.5851.0346-.7218.0684v1.6167h0Z"/>
    </g>
    <g>
      <path class="cls-3" d="M708.4189,276.5763c-2.0834-1.0952-4.0566-2.5743-5.592-4.4919-1.5901-1.9176-2.9606-4.1081-3.783-6.6285-.9319-2.5196-1.4252-5.3135-1.4252-8.1075,0-17.0906,14.3079-26.4028,12.7185-43.713,0-1.0405-.2189-1.9724-.4933-2.8487-.3291-.9311-.7677-1.698-1.3157-2.3007,2.0834,1.0952,4.0566,2.5743,5.592,4.4919,1.5901,1.9176,2.9606,4.1081,3.783,6.6285.8224,2.5196,1.4252,5.3135,1.4252,8.1075,0,14.7899-13.541,25.6914-13.541,41.5218,0,1.4243.2744,2.8487.713,4.0533.548,1.1507,1.096,2.3007,1.9184,3.2865"/>
      <polygon class="cls-3" points="759.895 259.1566 759.895 243.2715 745.1486 243.2715 745.1486 259.1566 738.8445 259.1566 738.8445 223.2767 745.1486 223.2767 745.1486 238.2316 759.895 238.2316 759.895 223.2767 766.1453 223.2767 766.1453 259.1566 759.895 259.1566"/>
      <path class="cls-3" d="M775.6836,248.2559c.3291,5.2588,3.07,6.519,7.3463,6.519,3.7275,0,7.0171-.3838,9.758-.7122l.4933,4.4372c-3.0153.4933-6.6333,1.0405-11.8414,1.0405-9.21,0-11.6217-5.971-11.6217-14.1324,0-9.9149,3.07-14.1324,12.2253-14.1324,9.9222,0,12.0056,5.2041,12.0056,13.4211,0,.7122,0,1.3149-.0547,1.9724-3.07.6574-9.7033,1.2055-13.5957,1.4243l-4.7148.1642v-.0016ZM781.0558,244.0931c1.9732-.0547,5.2081-.3839,7.1266-.6575,0-.3839.0547-.8763.0547-1.3149,0-4.1628-1.4799-6.519-6.0853-6.519-5.8656,0-6.6333,3.6156-6.6333,8.6l5.5365-.1094.0008.0008Z"/>
      <path class="cls-3" d="M797.1727,250.9952c0-4.8203,2.1381-7.7784,7.401-8.6,3.0153-.4933,6.3041-.6575,9.7033-.7122,0-3.7798-1.7543-5.6966-5.8656-5.6966-3.2889,0-6.688.3283-9.5383.7122l-.4933-4.3278c3.0153-.4933,6.5238-1.0405,10.6351-1.0405,5.975,0,11.019,1.5885,11.019,8.6v12.2156c0,1.8074-.0547,3.3959-.2197,5.0399-3.07,1.7527-7.1266,2.3554-12.3347,2.3554-7.5104,0-10.306-2.9034-10.306-8.5453M814.1128,245.5167c-2.357.0547-5.2081.0547-7.5104.7122-2.8503.7122-3.9472,1.4791-3.9472,4.7108,0,3.3959,1.9184,4.3278,5.427,4.3278,1.809,0,4.0019-.0547,5.7014-.8763.0547-1.0952.2197-2.3554.2197-3.725v-5.0947h.0547l.0547-.0547h0Z"/>
      <path class="cls-3" d="M824.6924,221.0307h5.9203v30.7305c0,2.5196.6575,4.3278,1.9732,6.2446l-5.1534,2.3554c-1.809-1.9724-2.8503-4.4919-2.8503-8.2717l.1094-31.0597h0l.0008.0008Z"/>
      <path class="cls-3" d="M851.4452,259.1566c-1.3157.2189-2.9059.3838-4.1113.3838-5.592,0-7.8943-2.3554-7.8943-7.5048v-15.9954h-4.5499v-4.3278h4.5499v-6.7926l5.9203-1.0405v7.7237h5.7014v4.3278h-5.7014v15.5568c0,2.5743,1.096,3.4506,3.7275,3.4506.713,0,1.4252,0,2.1381-.0547l.2197,4.273h0Z"/>
      <path class="cls-3" d="M879.1291,259.1566h-5.9203v-16.9264c0-4.4372-.7677-6.2446-6.5238-6.2446-1.809,0-3.7275.3839-5.2081,1.0952v22.0758h-5.9203v-38.0712h5.9203v11.2845c1.9732-.6575,4.331-1.0405,6.7975-1.0405,9.7033,0,10.7446,4.4919,10.7446,10.2432v17.5839h.1102Z"/>
      <path class="cls-3" d="M908.5673,228.5355c-2.1928-.383-4.5499-.6575-7.1266-.6575-9.6485,0-9.7033,5.5871-9.7033,13.0919,0,7.669.0547,13.0919,9.7033,13.0919,2.357,0,4.8243-.2189,7.1266-.6574l.6575,4.8202c-2.3023.6574-5.5365,1.0405-8.9903,1.0405-11.8414,0-14.7464-5.5871-14.7464-18.296s2.9059-18.296,14.7464-18.296c3.618,0,6.688.383,8.9903,1.0405l-.6575,4.8203v.0016Z"/>
      <path class="cls-3" d="M912.8983,250.9952c0-4.8203,2.1381-7.7784,7.401-8.6,3.0153-.4933,6.3041-.6575,9.7033-.7122,0-3.7798-1.7543-5.6966-5.8656-5.6966-3.2889,0-6.688.3283-9.5391.7122l-.4933-4.3278c3.0153-.4933,6.5238-1.0405,10.6351-1.0405,5.975,0,11.019,1.5885,11.019,8.6v12.2156c0,1.8074-.0547,3.3959-.2197,5.0399-3.07,1.7527-7.1266,2.3554-12.3347,2.3554-7.401,0-10.306-2.9034-10.306-8.5453M930.0025,245.5167c-2.357.0547-5.2081.0547-7.5104.7122-2.8503.7122-3.9472,1.4791-3.9472,4.7108,0,3.3959,1.9184,4.3278,5.427,4.3278,1.809,0,4.0019-.0547,5.7014-.8763.0547-1.0952.2197-2.3554.2197-3.725v-5.0947h.0547l.0547-.0547h0Z"/>
      <path class="cls-3" d="M955.2746,259.1566c-1.3157.2189-2.9059.3838-4.1113.3838-5.592,0-7.8943-2.3554-7.8943-7.5048v-15.9954h-4.5499v-4.3278h4.5499v-6.7926l5.9203-1.0405v7.7237h5.7014v4.3278h-5.8656v15.5568c0,2.5743,1.096,3.4506,3.7275,3.4506.713,0,1.4252,0,2.1381-.0547l.3838,4.273h0Z"/>
      <path class="cls-3" d="M959.4954,250.9952c0-4.8203,2.1381-7.7784,7.401-8.6,3.0153-.4933,6.3041-.6575,9.7033-.7122,0-3.7798-1.7543-5.6966-5.8656-5.6966-3.2889,0-6.688.3283-9.5391.7122l-.4933-4.3278c3.0153-.4933,6.5238-1.0405,10.6351-1.0405,5.975,0,11.019,1.5885,11.019,8.6v12.2156c0,1.8074-.0547,3.3959-.2197,5.0399-3.07,1.7527-7.1266,2.3554-12.3347,2.3554-7.4557,0-10.306-2.9034-10.306-8.5453M976.6544,245.5167c-2.357.0547-5.2081.0547-7.5104.7122-2.8503.7122-3.9472,1.4791-3.9472,4.7108,0,3.3959,1.9184,4.3278,5.427,4.3278,1.809,0,4.0019-.0547,5.7014-.8763.0547-1.0952.2197-2.3554.2197-3.725v-5.0947h.0547l.0547-.0547h0Z"/>
      <path class="cls-3" d="M986.0285,221.0307h5.9203v30.7305c0,2.5196.6575,4.3278,1.9732,6.2446l-5.1534,2.3554c-1.809-1.9724-2.8503-4.4919-2.8503-8.2717v-31.0597h.1094l.0008.0008Z"/>
      <polygon class="cls-3" points="1009.7661 250.0086 1015.6317 231.6031 1021.6067 231.6031 1008.8334 269.2357 1002.9131 269.2357 1007.0799 257.3492 996.0609 231.6031 1002.2001 231.6031 1009.7661 250.0086"/>
      <path class="cls-3" d="M1036.3531,251.5424c0-3.0676-2.8503-3.3959-5.427-4.1628-4.4404-1.3149-8.6065-2.5196-8.6065-8.4358,0-5.971,4.166-7.7237,9.7033-7.7237,3.783,0,6.5239.3283,9.7033,1.0952l-.6575,4.3278c-2.1381-.3839-4.4404-.7122-6.7975-.7122-2.1928,0-6.2494,0-6.2494,2.8487,0,2.9034,3.2889,3.3959,5.592,4.1628,4.7148,1.5885,8.497,2.5196,8.497,8.4906,0,6.2993-4.7148,8.1075-10.7446,8.1075-2.9059,0-6.6333-.3838-9.5391-1.0952l.6575-4.4372c2.1381.3838,5.1534.7669,7.3463.7669,2.357,0,6.5239.1094,6.5239-3.2317"/>
      <path class="cls-3" d="M1062.3382,259.1566c-1.3157.2189-2.9058.3838-4.1113.3838-5.592,0-7.8943-2.3554-7.8943-7.5048v-15.9954h-4.5499v-4.3278h4.5499v-6.7926l5.9203-1.0405v7.7237h5.7014v4.3278h-5.7014v15.5568c0,2.5743,1.0961,3.4506,3.7274,3.4506.713,0,1.4252,0,2.1381-.0547l.2196,4.273h0Z"/>
      <path class="cls-2" d="M721.2469,275.5905c-1.4252-.7122-2.7409-1.7527-3.783-3.0129-1.096-1.2602-1.9732-2.794-2.5767-4.4919-.6028-1.6979-.9866-3.5061-.9866-5.4777,0-11.5034,10.5257-18.0224,8.8809-32.8123,2.0287,1.8074,3.7275,5.0947,4.7148,7.5048.6028,1.698.9866,3.5061.9866,5.4777,0,9.9149-9.045,17.1453-9.045,27.8818,0,.9858.1641,1.9176.4933,2.7392.3291.8763.8224,1.5885,1.3157,2.1912"/>
      <path class="cls-2" d="M694.824,256.089c-1.4252-.7122-2.7409-1.7527-3.783-3.0129-1.096-1.2602-1.9732-2.794-2.5767-4.4919-.6028-1.6979-.9866-3.5061-.9866-5.4777,0-11.5034,10.5257-18.0224,8.8809-32.8123,2.0287,1.8074,3.7275,5.0947,4.7148,7.5048.6028,1.698.9866,3.5061.9866,5.4777,0,9.9149-9.045,17.1453-9.045,27.8818,0,.9858.1641,1.9176.4933,2.7392s.7677,1.5885,1.3157,2.1912"/>
    </g>
  </g>
</svg>