<svg id="Layer_1" data-name="Layer 1" xmlns="http://www.w3.org/2000/svg" viewBox="0 0 319 48.63">
    <defs>
        <style>.cls-1{fill:#f4f3f3;}.cls-2{fill:#fff;}</style>
    </defs>
    <title>Artboard 1</title>
    <path class="cls-1"
          d="M4.64,37.38v-24c0-6.52,4.9-6.81,10.11-6.81,2,0,5.06,0,7.57.18V9.38h-7.7C9,9.38,8,10.4,8,15.27v5.07H21.68V23.1H8V37.38Z"/>
    <path class="cls-1"
          d="M25.42,14.37a53.54,53.54,0,0,1,8.74-.81c5,0,9,1.28,9,7.14V31.8c0,1.37-.06,2.72-.13,4a22.06,22.06,0,0,1-9.82,1.89c-6.3,0-9.17-1.93-9.17-7,0-4.07,1.72-6.65,5.92-7.28a91.23,91.23,0,0,1,10-.69v-1c0-3.84-1.3-5.43-6.4-5.43a55,55,0,0,0-7.85.68Zm8.09,20.71a17.84,17.84,0,0,0,6.36-1c.07-1.13.09-2.59.09-3.7V25.1a58.71,58.71,0,0,0-8.92.64c-2.68.54-3.85,1.61-3.85,4.86C27.19,34.21,29.09,35.08,33.51,35.08Z"/>
    <path class="cls-1"
          d="M48.88,4.79h3.2v9.65a25.79,25.79,0,0,1,6.49-.88c7,0,9.86,3.07,9.86,12.06,0,9.16-3.13,12.08-10.6,12.08A19.61,19.61,0,0,1,49,35.81c-.08-1.29-.12-2.64-.12-4Zm3.2,25.5c0,1.11,0,2.58.09,3.7a14.9,14.9,0,0,0,5.66,1c5.85,0,7.38-3.11,7.38-9.42,0-6.59-1.13-9.41-7.67-9.41a18.68,18.68,0,0,0-5.46.92Z"/>
    <path class="cls-1"
          d="M73.16,37.38V19.46c0-1.38,0-2.72.13-4a19.53,19.53,0,0,1,8.82-1.88,19.07,19.07,0,0,1,2.19.1L84,16.38a16.18,16.18,0,0,0-1.92-.09,14.81,14.81,0,0,0-5.67,1.07c-.06,1.11-.09,2.58-.09,3.69V37.38Z"/>
    <path class="cls-1"
          d="M87.67,6.82c0-1.72.44-2.35,1.93-2.35s1.94.63,1.94,2.35-.41,2.33-1.94,2.33S87.67,8.55,87.67,6.82Zm.33,7h3.21V37.38H88Z"/>
    <path class="cls-1"
          d="M111.57,37a29,29,0,0,1-6.15.69C97.5,37.7,96,32.13,96,25.37c0-7.7,1.74-11.81,10.23-11.81a19.88,19.88,0,0,1,5.27.67l-.27,2.45a25.49,25.49,0,0,0-3.92-.39c-7.35,0-8.06,2.57-8.06,9.08,0,6.11.54,9.55,8,9.55a21.56,21.56,0,0,0,4-.5Z"/>
    <path class="cls-1"
          d="M115.55,35.37c0-1.73.43-2.35,1.92-2.35s1.94.62,1.94,2.35-.41,2.33-1.94,2.33S115.55,37.1,115.55,35.37Z"/>
    <path class="cls-2"
          d="M143.63,11.23a39.19,39.19,0,0,0-6-.5c-8.26,0-8.32,4.78-8.32,11.27s.06,11.27,8.32,11.27a38,38,0,0,0,6-.5l.48,4.08a33.17,33.17,0,0,1-7.73.85c-10.12,0-12.61-4.78-12.61-15.7s2.5-15.69,12.61-15.69a33.79,33.79,0,0,1,7.73.84Z"/>
    <path class="cls-2"
          d="M147.06,30.37c0-4.1,1.78-6.68,6.32-7.36a74.5,74.5,0,0,1,8.33-.62c0-3.26-1.42-4.9-5-4.9a68,68,0,0,0-8.17.59l-.41-3.67a54.65,54.65,0,0,1,9.05-.85c5.18,0,9.44,1.41,9.44,7.4V31.32a42.89,42.89,0,0,1-.2,4.32c-2.62,1.48-6.12,2.06-10.5,2.06C149.56,37.7,147.06,35.2,147.06,30.37Zm14.65-4.71a36,36,0,0,0-6.39.57c-2.44.56-3.31,1.32-3.31,4.06,0,2.94,1.64,3.66,4.65,3.66a12.11,12.11,0,0,0,4.91-.81c.1-1,.14-2.1.14-3.15Z"/>
    <path class="cls-2"
          d="M182.55,31c0-2.69-2.41-2.92-4.6-3.59-3.78-1.15-7.37-2.11-7.37-7.17s3.63-6.63,8.29-6.63a34.56,34.56,0,0,1,8.36.91l-.48,3.68a32,32,0,0,0-5.87-.63c-1.9,0-5.3,0-5.3,2.4s2.86,2.9,4.81,3.56c4,1.36,7.26,2.11,7.26,7.29,0,5.42-4,6.93-9.16,6.93a36.31,36.31,0,0,1-8.12-.93l.48-3.76a39.66,39.66,0,0,0,6.25.65C179,33.66,182.55,33.72,182.55,31Z"/>
    <path class="cls-2"
          d="M211.8,37.38h-5V22.9c0-3.75-.69-5.33-5.53-5.33a11.34,11.34,0,0,0-4.44.92V37.38h-5V4.79h5v9.65a19.31,19.31,0,0,1,5.81-.88c8.3,0,9.17,3.86,9.17,8.75Z"/>
    <path class="cls-2"
          d="M235,37.38h-5V22.85c0-3.53-.85-5.32-4.65-5.32a9,9,0,0,0-3.6.78,28.93,28.93,0,0,0-.15,3.15V37.38h-5V19.93a43,43,0,0,1,.2-4.32,23.38,23.38,0,0,1,9.78-2A9.74,9.74,0,0,1,232.43,15,21,21,0,0,1,240,13.56c7.35,0,8.43,4,8.43,8.75V37.38h-5V22.85c0-3.53-.85-5.32-4.65-5.32a9.36,9.36,0,0,0-4.13,1,15.43,15.43,0,0,1,.38,3.75Z"/>
    <path class="cls-2"
          d="M257.84,28.13c.27,4.52,2.63,5.58,6.27,5.58a65.92,65.92,0,0,0,8.44-.61l.42,3.74a59.07,59.07,0,0,1-10.15.86c-7.88,0-9.95-5.11-9.95-12.08,0-8.53,2.64-12.06,10.46-12.06,8.46,0,10.27,4.46,10.27,11.47,0,.56,0,1.14-.06,1.74-2.7.47-8.31,1-11.55,1.17Zm4.6-3.65c1.72-.08,4.44-.3,6.07-.52a10.24,10.24,0,0,0,.05-1.1c0-3.58-1.32-5.53-5.23-5.53-4.95,0-5.62,3.13-5.62,7.38Z"/>
    <path class="cls-2"
          d="M282.92,37.38h-5V19.93a43,43,0,0,1,.2-4.32,19.73,19.73,0,0,1,9.23-2,22,22,0,0,1,2.2.09l-.4,4a16,16,0,0,0-1.8-.09,10.67,10.67,0,0,0-4.29.79c-.1,1-.14,2.1-.14,3.16Z"/>
    <path class="cls-2"
          d="M296.57,28.13c.26,4.52,2.62,5.58,6.26,5.58a65.78,65.78,0,0,0,8.44-.61l.42,3.74a59,59,0,0,1-10.15.86c-7.88,0-10-5.11-10-12.08,0-8.53,2.64-12.06,10.47-12.06,8.46,0,10.27,4.46,10.27,11.47,0,.56,0,1.14-.07,1.74-2.69.47-8.3,1-11.55,1.17Zm4.59-3.65c1.73-.08,4.45-.3,6.07-.52a10.24,10.24,0,0,0,0-1.1c0-3.58-1.32-5.53-5.22-5.53-4.95,0-5.63,3.13-5.63,7.38Z"/>
</svg>
