<svg id="Layer_1" data-name="Layer 1" xmlns="http://www.w3.org/2000/svg" viewBox="0 0 137.41 149">
    <defs>
        <style>.cls-1{fill:#46a7de;}</style>
    </defs>
    <title>Artboard 1 copy</title>
    <path class="cls-1"
          d="M124.43,115.73a6.71,6.71,0,0,0-10.67,5.11c-16.31,6.33-32.19,6-43.77,4.26l-1.83-.28-7.8,11.1A56.08,56.08,0,0,1,44.8,130l2.59-4.41A72.38,72.38,0,0,1,34.73,116l3.69-3.53a56.84,56.84,0,0,0,12.13,8.82A6.75,6.75,0,1,0,53,118.37a46.24,46.24,0,0,1-4.21-2.66l3-4.16c8.59,6.13,18.7,8,31.65,6a6.72,6.72,0,1,0-1.27-5.42,29.18,29.18,0,0,1-6.15.66c-22.63,0-38.62-17.45-38.62-40.08S53.34,32.65,76,32.65c13.3,0,25.13,9.14,29.7,20.15l30.74-14.54C127.27,20,109.41,1.08,76,1.08,33.4,1.08,1,30,1,72.74c0,41.85,31.32,70.62,72.82,71.59a6.74,6.74,0,1,0,.23-6.66,69.2,69.2,0,0,1-7.22-.58l4.09-5.82a96.46,96.46,0,0,0,20.15.67l2.78,10.84,2.55-.25a88.73,88.73,0,0,0,11.87-2.14,6.73,6.73,0,1,0-1.89-5.68c-2.73.66-5.48,1.2-8,1.57l-1.28-5a84.86,84.86,0,0,0,19.09-5,6.72,6.72,0,0,0,11-5.16s0-.1,0-.15C127.3,119.19,125.24,116.25,124.43,115.73Zm-67.68,5.73a2.47,2.47,0,1,1-2.46,2.47A2.48,2.48,0,0,1,56.75,121.46Zm32-10.44a2.47,2.47,0,1,1-2.47,2.47A2.47,2.47,0,0,1,88.72,111Zm-9,27.71a2.47,2.47,0,1,1-2.47,2.46A2.46,2.46,0,0,1,79.77,138.73ZM113,133.18a2.47,2.47,0,1,1-2.46,2.47A2.48,2.48,0,0,1,113,133.18Zm7.44-9.56a2.47,2.47,0,1,1,2.47-2.46A2.46,2.46,0,0,1,120.47,123.62Z"/>
</svg>
