<svg id="Layer_1" data-name="Layer 1" xmlns="http://www.w3.org/2000/svg" viewBox="100 0 319 48.63">
    <defs>
        <style>.cls-1{fill:#f4f3f3;}.cls-2{fill:#fff;}</style>
    </defs>
    <title>Artboard 1</title>
    <path class="cls-2"
          d="M143.63,11.23a39.19,39.19,0,0,0-6-.5c-8.26,0-8.32,4.78-8.32,11.27s.06,11.27,8.32,11.27a38,38,0,0,0,6-.5l.48,4.08a33.17,33.17,0,0,1-7.73.85c-10.12,0-12.61-4.78-12.61-15.7s2.5-15.69,12.61-15.69a33.79,33.79,0,0,1,7.73.84Z"/>
    <path class="cls-2"
          d="M147.06,30.37c0-4.1,1.78-6.68,6.32-7.36a74.5,74.5,0,0,1,8.33-.62c0-3.26-1.42-4.9-5-4.9a68,68,0,0,0-8.17.59l-.41-3.67a54.65,54.65,0,0,1,9.05-.85c5.18,0,9.44,1.41,9.44,7.4V31.32a42.89,42.89,0,0,1-.2,4.32c-2.62,1.48-6.12,2.06-10.5,2.06C149.56,37.7,147.06,35.2,147.06,30.37Zm14.65-4.71a36,36,0,0,0-6.39.57c-2.44.56-3.31,1.32-3.31,4.06,0,2.94,1.64,3.66,4.65,3.66a12.11,12.11,0,0,0,4.91-.81c.1-1,.14-2.1.14-3.15Z"/>
    <path class="cls-2"
          d="M182.55,31c0-2.69-2.41-2.92-4.6-3.59-3.78-1.15-7.37-2.11-7.37-7.17s3.63-6.63,8.29-6.63a34.56,34.56,0,0,1,8.36.91l-.48,3.68a32,32,0,0,0-5.87-.63c-1.9,0-5.3,0-5.3,2.4s2.86,2.9,4.81,3.56c4,1.36,7.26,2.11,7.26,7.29,0,5.42-4,6.93-9.16,6.93a36.31,36.31,0,0,1-8.12-.93l.48-3.76a39.66,39.66,0,0,0,6.25.65C179,33.66,182.55,33.72,182.55,31Z"/>
    <path class="cls-2"
          d="M211.8,37.38h-5V22.9c0-3.75-.69-5.33-5.53-5.33a11.34,11.34,0,0,0-4.44.92V37.38h-5V4.79h5v9.65a19.31,19.31,0,0,1,5.81-.88c8.3,0,9.17,3.86,9.17,8.75Z"/>
    <path class="cls-2"
          d="M235,37.38h-5V22.85c0-3.53-.85-5.32-4.65-5.32a9,9,0,0,0-3.6.78,28.93,28.93,0,0,0-.15,3.15V37.38h-5V19.93a43,43,0,0,1,.2-4.32,23.38,23.38,0,0,1,9.78-2A9.74,9.74,0,0,1,232.43,15,21,21,0,0,1,240,13.56c7.35,0,8.43,4,8.43,8.75V37.38h-5V22.85c0-3.53-.85-5.32-4.65-5.32a9.36,9.36,0,0,0-4.13,1,15.43,15.43,0,0,1,.38,3.75Z"/>
    <path class="cls-2"
          d="M257.84,28.13c.27,4.52,2.63,5.58,6.27,5.58a65.92,65.92,0,0,0,8.44-.61l.42,3.74a59.07,59.07,0,0,1-10.15.86c-7.88,0-9.95-5.11-9.95-12.08,0-8.53,2.64-12.06,10.46-12.06,8.46,0,10.27,4.46,10.27,11.47,0,.56,0,1.14-.06,1.74-2.7.47-8.31,1-11.55,1.17Zm4.6-3.65c1.72-.08,4.44-.3,6.07-.52a10.24,10.24,0,0,0,.05-1.1c0-3.58-1.32-5.53-5.23-5.53-4.95,0-5.62,3.13-5.62,7.38Z"/>
    <path class="cls-2"
          d="M282.92,37.38h-5V19.93a43,43,0,0,1,.2-4.32,19.73,19.73,0,0,1,9.23-2,22,22,0,0,1,2.2.09l-.4,4a16,16,0,0,0-1.8-.09,10.67,10.67,0,0,0-4.29.79c-.1,1-.14,2.1-.14,3.16Z"/>
    <path class="cls-2"
          d="M296.57,28.13c.26,4.52,2.62,5.58,6.26,5.58a65.78,65.78,0,0,0,8.44-.61l.42,3.74a59,59,0,0,1-10.15.86c-7.88,0-10-5.11-10-12.08,0-8.53,2.64-12.06,10.47-12.06,8.46,0,10.27,4.46,10.27,11.47,0,.56,0,1.14-.07,1.74-2.69.47-8.3,1-11.55,1.17Zm4.59-3.65c1.73-.08,4.45-.3,6.07-.52a10.24,10.24,0,0,0,0-1.1c0-3.58-1.32-5.53-5.22-5.53-4.95,0-5.63,3.13-5.63,7.38Z"/>
</svg>
