<svg id="Layer_1" data-name="Layer 1" xmlns="http://www.w3.org/2000/svg" viewBox="0 0 310.44 36.27"><defs><style>.cls-1{fill:#00aeff;}</style></defs><title>Artboard 1</title><path class="cls-1" d="M.59,34.43v-24c0-6.52,4.89-6.81,10.11-6.81,2,0,5.05,0,7.56.19V6.43h-7.7c-5.66,0-6.6,1-6.6,5.89v5.07H17.63v2.76H4V34.43Z"/><path class="cls-1" d="M21.36,11.42a53.48,53.48,0,0,1,8.74-.82c5,0,9,1.28,9,7.14v11.1c0,1.38-.05,2.72-.13,4a22,22,0,0,1-9.82,1.88c-6.3,0-9.16-1.92-9.16-7,0-4.08,1.71-6.65,5.91-7.28a91.6,91.6,0,0,1,10-.69v-1c0-3.84-1.31-5.43-6.41-5.43a55.11,55.11,0,0,0-7.85.68Zm8.09,20.71a17.6,17.6,0,0,0,6.36-1.06c.07-1.12.1-2.58.1-3.69V22.15a56.29,56.29,0,0,0-8.93.64c-2.68.54-3.85,1.61-3.85,4.85C23.13,31.26,25,32.13,29.45,32.13Z"/><path class="cls-1" d="M44.83,1.84H48v9.65a25.87,25.87,0,0,1,6.5-.89c7,0,9.85,3.08,9.85,12.07,0,9.16-3.12,12.07-10.59,12.07A19.54,19.54,0,0,1,45,32.86q-.12-2-.12-4ZM48,27.34c0,1.11,0,2.57.09,3.7a15,15,0,0,0,5.67,1.05c5.84,0,7.37-3.11,7.37-9.42,0-6.59-1.13-9.41-7.66-9.41a18.69,18.69,0,0,0-5.47.92Z"/><path class="cls-1" d="M69.1,34.43V16.5c0-1.37,0-2.72.13-4a19.53,19.53,0,0,1,8.82-1.89,19,19,0,0,1,2.19.11L80,13.43a16.22,16.22,0,0,0-1.93-.1,14.92,14.92,0,0,0-5.66,1.07c-.07,1.11-.1,2.59-.1,3.7V34.43Z"/><path class="cls-1" d="M83.62,3.87c0-1.73.43-2.35,1.92-2.35s1.95.62,1.95,2.35-.41,2.32-1.95,2.32S83.62,5.6,83.62,3.87ZM84,10.92h3.21V34.43H84Z"/><path class="cls-1" d="M107.52,34.06a29.1,29.1,0,0,1-6.15.68c-7.92,0-9.39-5.57-9.39-12.32,0-7.7,1.74-11.82,10.23-11.82a19.85,19.85,0,0,1,5.27.68l-.27,2.45a25.43,25.43,0,0,0-3.92-.4c-7.35,0-8.06,2.58-8.06,9.09,0,6.11.54,9.55,8,9.55a21.45,21.45,0,0,0,4-.5Z"/><path class="cls-1" d="M111.49,32.42c0-1.73.43-2.35,1.93-2.35s1.94.62,1.94,2.35-.41,2.32-1.94,2.32S111.49,34.15,111.49,32.42Z"/><path class="cls-1" d="M139.57,8.28a39.16,39.16,0,0,0-6-.5c-8.26,0-8.33,4.78-8.33,11.27s.07,11.27,8.33,11.27a39.16,39.16,0,0,0,6-.5l.48,4.08a33.14,33.14,0,0,1-7.72.84c-10.13,0-12.62-4.77-12.62-15.69s2.51-15.69,12.62-15.69a33.14,33.14,0,0,1,7.72.84Z"/><path class="cls-1" d="M143,27.42c0-4.11,1.79-6.68,6.33-7.37a79.17,79.17,0,0,1,8.33-.62c0-3.26-1.43-4.89-5-4.89a68,68,0,0,0-8.17.59l-.41-3.67a54.58,54.58,0,0,1,9.06-.86c5.17,0,9.44,1.42,9.44,7.41V28.37c0,1.54-.07,2.89-.2,4.31-2.63,1.48-6.13,2.06-10.51,2.06C145.5,34.74,143,32.25,143,27.42Zm14.66-4.71a36.78,36.78,0,0,0-6.39.56c-2.44.57-3.32,1.32-3.32,4.07,0,2.94,1.64,3.66,4.65,3.66a12.11,12.11,0,0,0,4.91-.81,28.93,28.93,0,0,0,.15-3.15Z"/><path class="cls-1" d="M178.5,28c0-2.69-2.42-2.92-4.61-3.59-3.77-1.15-7.36-2.11-7.36-7.17s3.63-6.64,8.29-6.64a35,35,0,0,1,8.35.91l-.48,3.69a31.13,31.13,0,0,0-5.87-.64c-1.9,0-5.29,0-5.29,2.4s2.85,2.91,4.8,3.57c4,1.36,7.26,2.11,7.26,7.28,0,5.43-4,6.93-9.16,6.93a36.22,36.22,0,0,1-8.11-.92l.47-3.76a39.79,39.79,0,0,0,6.26.65C174.91,30.71,178.5,30.77,178.5,28Z"/><path class="cls-1" d="M207.75,34.43h-5V20c0-3.75-.69-5.33-5.53-5.33a11.37,11.37,0,0,0-4.44.92V34.43h-5V1.84h5v9.65a19.31,19.31,0,0,1,5.81-.89c8.3,0,9.18,3.87,9.18,8.75Z"/><path class="cls-1" d="M231,34.43h-5V19.9c0-3.53-.85-5.32-4.65-5.32a9.16,9.16,0,0,0-3.6.77,29,29,0,0,0-.15,3.16V34.43h-5V17c0-1.55.07-2.89.2-4.32a23.22,23.22,0,0,1,9.78-2.06,9.69,9.69,0,0,1,5.83,1.48A21,21,0,0,1,236,10.6c7.35,0,8.43,4,8.43,8.75V34.43h-5V19.9c0-3.53-.85-5.32-4.65-5.32a9.36,9.36,0,0,0-4.13,1,15.35,15.35,0,0,1,.38,3.74Z"/><path class="cls-1" d="M253.79,25.17c.26,4.53,2.62,5.59,6.26,5.59a67.64,67.64,0,0,0,8.44-.61l.42,3.74a60.19,60.19,0,0,1-10.15.85c-7.88,0-9.95-5.1-9.95-12.07,0-8.53,2.64-12.07,10.47-12.07,8.46,0,10.26,4.46,10.26,11.47,0,.57,0,1.15-.06,1.75-2.69.47-8.3,1-11.55,1.17Zm4.59-3.64c1.73-.08,4.45-.3,6.07-.53a9.94,9.94,0,0,0,.05-1.09c0-3.58-1.32-5.53-5.22-5.53-4.95,0-5.63,3.13-5.63,7.38Z"/><path class="cls-1" d="M278.86,34.43h-5V17c0-1.55.07-2.89.2-4.32a19.66,19.66,0,0,1,9.24-2.06,21.63,21.63,0,0,1,2.19.1l-.4,4a16,16,0,0,0-1.79-.09,10.44,10.44,0,0,0-4.29.79,29,29,0,0,0-.15,3.16Z"/><path class="cls-1" d="M292.51,25.17c.26,4.53,2.63,5.59,6.27,5.59a67.47,67.47,0,0,0,8.43-.61l.42,3.74a60.05,60.05,0,0,1-10.14.85c-7.88,0-10-5.1-10-12.07,0-8.53,2.64-12.07,10.47-12.07,8.46,0,10.27,4.46,10.27,11.47,0,.57,0,1.15-.07,1.75-2.69.47-8.3,1-11.55,1.17Zm4.59-3.64c1.73-.08,4.45-.3,6.07-.53a10,10,0,0,0,.06-1.09c0-3.58-1.32-5.53-5.23-5.53-4.95,0-5.62,3.13-5.62,7.38Z"/></svg>