<svg id="Group_499" data-name="Group 499" xmlns="http://www.w3.org/2000/svg" width="200" height="200" viewBox="0 0 200 200">
  <circle id="Ellipse_24" data-name="Ellipse 24" cx="100" cy="100" r="100" fill="#00aeff"/>
  <path id="Path_691" data-name="Path 691" d="M182.568,167.266A6.209,6.209,0,0,0,172.695,172c-15.1,5.862-29.8,5.6-40.512,3.943l-1.7-.263-7.226,10.282a52.124,52.124,0,0,1-14.4-5.51l2.4-4.085a67.055,67.055,0,0,1-11.72-8.816l3.421-3.272a52.294,52.294,0,0,0,11.224,8.167,6.239,6.239,0,1,0,2.244-2.737,39.664,39.664,0,0,1-3.9-2.459l2.751-3.853c7.952,5.675,17.309,7.457,29.3,5.583a6.219,6.219,0,1,0-1.174-5.012,27.227,27.227,0,0,1-5.692.607c-20.955,0-35.757-16.148-35.757-37.1s14.8-37.1,35.757-37.1c12.3,0,23.261,8.459,27.49,18.647l28.452-13.456c-8.457-16.918-24.99-34.412-55.942-34.412-39.41,0-69.4,26.722-69.4,66.324,0,38.74,28.989,65.375,67.407,66.271a6.233,6.233,0,1,0,.208-6.166,64.86,64.86,0,0,1-6.68-.534l3.79-5.393a89.6,89.6,0,0,0,18.653.628l2.571,10.031,2.36-.236a80.64,80.64,0,0,0,10.984-1.978,6.229,6.229,0,1,0-1.748-5.259c-2.526.612-5.069,1.116-7.438,1.454l-1.179-4.6a78.225,78.225,0,0,0,17.673-4.615,6.222,6.222,0,0,0,10.215-4.777c0-.044-.006-.088-.006-.133C185.225,170.469,183.316,167.751,182.568,167.266Zm-62.645,5.31a2.282,2.282,0,1,1-2.282,2.283A2.285,2.285,0,0,1,119.923,172.575Zm29.59-9.667a2.282,2.282,0,1,1-2.282,2.283A2.286,2.286,0,0,1,149.514,162.909Zm-8.286,25.645a2.282,2.282,0,1,1-2.282,2.283A2.286,2.286,0,0,1,141.228,188.554Zm30.795-5.132a2.282,2.282,0,1,1-2.282,2.283A2.285,2.285,0,0,1,172.023,183.422Zm6.884-8.847a2.282,2.282,0,1,1,2.283-2.282A2.284,2.284,0,0,1,178.907,174.575Z" transform="translate(-35.318 -27.147)" fill="#fff"/>
</svg>
