<svg xmlns="http://www.w3.org/2000/svg" viewBox="0 0 346.73 87.27"><defs><style>.cls-1{fill:#006e9a;}.cls-2{fill:#00aeef;}.cls-3{fill:#6d6e71;}</style></defs><title>Asset 2</title><g id="Layer_2" data-name="Layer 2"><g id="Layer_1-2" data-name="Layer 1"><path class="cls-1" d="M26.72,87.27a23,23,0,0,1-7.24-5.74A27.56,27.56,0,0,1,14.6,73a30.83,30.83,0,0,1-1.79-10.43c0-21.91,18.21-33.79,16.25-56A10.84,10.84,0,0,0,28.43,3a9.65,9.65,0,0,0-1.71-3A23,23,0,0,1,34,5.74a27.57,27.57,0,0,1,4.88,8.52,30.89,30.89,0,0,1,1.79,10.43c0,18.95-17.25,32.84-17.25,53.11a15.39,15.39,0,0,0,.9,5.21,13.79,13.79,0,0,0,2.44,4.26"/><polygon class="cls-2" points="84.75 55.46 84.75 41.73 72 41.73 72 55.46 66.56 55.46 66.56 24.31 72 24.31 72 37.35 84.75 37.35 84.75 24.31 90.22 24.31 90.22 55.46 84.75 55.46"/><path class="cls-2" d="M98.45,46.09c.27,4.58,2.66,5.65,6.35,5.65a67.89,67.89,0,0,0,8.54-.61l.43,3.78a59.9,59.9,0,0,1-10.28.87c-8,0-10.08-5.17-10.08-12.23,0-8.63,2.67-12.22,10.6-12.22,8.57,0,10.4,4.52,10.4,11.62,0,.57,0,1.16-.07,1.76-2.73.48-8.41,1-11.7,1.19Zm4.65-3.69c1.75-.08,4.5-.31,6.15-.53a10.33,10.33,0,0,0,.05-1.11c0-3.62-1.34-5.6-5.29-5.6-5,0-5.69,3.17-5.69,7.47Z"/><path class="cls-2" d="M117,48.36c0-4.16,1.8-6.76,6.4-7.46a78.73,78.73,0,0,1,8.44-.63c0-3.3-1.44-5-5.07-5a68.18,68.18,0,0,0-8.27.6L118,32.2a55,55,0,0,1,9.17-.87c5.24,0,9.56,1.43,9.56,7.5V49.32c0,1.56-.07,2.93-.2,4.37-2.66,1.5-6.2,2.09-10.64,2.09-6.44,0-9-2.53-9-7.42m14.84-4.77a36.32,36.32,0,0,0-6.47.57c-2.47.57-3.36,1.34-3.36,4.12,0,3,1.66,3.7,4.71,3.7a12.32,12.32,0,0,0,5-.82A30.76,30.76,0,0,0,131.8,48Z"/><path class="cls-2" d="M140.91,22.45H146V49.07a8,8,0,0,0,1.74,5.35l-4.42,2.1a10.11,10.11,0,0,1-2.41-7.22Z"/><path class="cls-2" d="M164.07,55.43a23.43,23.43,0,0,1-3.6.35c-4.83,0-6.87-2.1-6.87-6.5V35.42h-4V31.65h4V25.76l5.09-.83v6.72h4.95v3.77h-4.95V48.85c0,2.3,1,3,3.18,3,.61,0,1.2,0,1.8-.07Z"/><path class="cls-2" d="M188,55.46h-5.08V40.79c0-3.8-.7-5.4-5.6-5.4a11.45,11.45,0,0,0-4.49.93V55.46h-5.08v-33h5.08v9.77a19.47,19.47,0,0,1,5.88-.9c8.41,0,9.29,3.92,9.29,8.86Z"/><path class="cls-1" d="M213.55,29a39.19,39.19,0,0,0-6.12-.51c-8.37,0-8.43,4.84-8.43,11.42s.07,11.41,8.43,11.41a39.19,39.19,0,0,0,6.12-.51l.48,4.13a33.62,33.62,0,0,1-7.82.86c-10.25,0-12.78-4.84-12.78-15.89S196,24,206.21,24a33.62,33.62,0,0,1,7.82.86Z"/><path class="cls-1" d="M217.25,48.36c0-4.16,1.8-6.76,6.4-7.46a78.77,78.77,0,0,1,8.44-.63c0-3.3-1.44-5-5.07-5a68.18,68.18,0,0,0-8.27.6l-.41-3.72a55,55,0,0,1,9.17-.87c5.24,0,9.56,1.43,9.56,7.5V49.32c0,1.56-.07,2.93-.2,4.37-2.66,1.5-6.2,2.09-10.64,2.09-6.44,0-9-2.53-9-7.42m14.84-4.77a36.31,36.31,0,0,0-6.47.57c-2.47.57-3.35,1.34-3.35,4.12,0,3,1.66,3.7,4.7,3.7a12.32,12.32,0,0,0,5-.82,31,31,0,0,0,.15-3.19Z"/><path class="cls-1" d="M254,55.43a23.44,23.44,0,0,1-3.6.35c-4.83,0-6.87-2.1-6.87-6.5V35.42h-4V31.65h4V25.76l5.09-.83v6.72h4.95v3.77h-4.95V48.85c0,2.3,1,3,3.18,3,.62,0,1.2,0,1.8-.07Z"/><path class="cls-1" d="M257.64,48.36c0-4.16,1.81-6.76,6.4-7.46a78.73,78.73,0,0,1,8.43-.63c0-3.3-1.44-5-5.06-5a68.25,68.25,0,0,0-8.28.6l-.41-3.72a55,55,0,0,1,9.17-.87c5.24,0,9.56,1.43,9.56,7.5V49.32c0,1.56-.07,2.93-.2,4.37-2.66,1.5-6.2,2.09-10.64,2.09-6.44,0-9-2.53-9-7.42m14.84-4.77a36.33,36.33,0,0,0-6.47.57c-2.47.57-3.35,1.34-3.35,4.12,0,3,1.66,3.7,4.71,3.7a12.32,12.32,0,0,0,5-.82,30.47,30.47,0,0,0,.15-3.19Z"/><path class="cls-1" d="M280.69,22.45h5.09V49.07a8,8,0,0,0,1.74,5.35l-4.43,2.1a10.12,10.12,0,0,1-2.41-7.22Z"/><polygon class="cls-1" points="301.21 47.56 306.3 31.65 311.45 31.65 300.37 64.22 295.22 64.22 298.91 53.85 289.3 31.65 294.67 31.65 301.21 47.56"/><path class="cls-1" d="M324.26,48.95c0-2.73-2.45-3-4.66-3.64-3.82-1.16-7.46-2.14-7.46-7.26s3.68-6.72,8.39-6.72a35.33,35.33,0,0,1,8.46.92L328.51,36a32.13,32.13,0,0,0-5.95-.64c-1.93,0-5.36,0-5.36,2.43s2.89,2.94,4.87,3.61c4.06,1.38,7.35,2.14,7.35,7.38,0,5.49-4.06,7-9.28,7a36.91,36.91,0,0,1-8.22-.93L312.4,51a40.23,40.23,0,0,0,6.33.65c1.89,0,5.52.07,5.52-2.74"/><path class="cls-1" d="M346.73,55.43a23.42,23.42,0,0,1-3.6.35c-4.83,0-6.87-2.1-6.87-6.5V35.42h-4V31.65h4V25.76l5.09-.83v6.72h4.95v3.77h-4.95V48.85c0,2.3,1,3,3.18,3,.61,0,1.2,0,1.8-.07Z"/><path class="cls-2" d="M43.1,86.08a15.47,15.47,0,0,1-4.85-3.85A18.42,18.42,0,0,1,35,76.53a20.69,20.69,0,0,1-1.2-7c0-14.67,13.46-23,11.4-41.91,2.63,2.35,4.78,6.53,6,9.55a20.66,20.66,0,0,1,1.2,7c0,12.69-11.55,22-11.55,35.57a10.29,10.29,0,0,0,.6,3.49,9.19,9.19,0,0,0,1.63,2.85"/><path class="cls-2" d="M9.32,61.17a15.44,15.44,0,0,1-4.85-3.85,18.43,18.43,0,0,1-3.27-5.7,20.66,20.66,0,0,1-1.2-7C0,30,13.46,21.67,11.4,2.72c2.64,2.36,4.78,6.53,6,9.55a20.61,20.61,0,0,1,1.2,7c0,12.69-11.55,22-11.55,35.57a10.37,10.37,0,0,0,.6,3.49,9.23,9.23,0,0,0,1.64,2.85"/><path class="cls-3" d="M66.48,64.82c0-.59.15-.8.66-.8s.66.21.66.8-.14.79-.66.79-.66-.2-.66-.79m.11,2.41h1.1v8h-1.1Z"/><path class="cls-3" d="M70.34,77.19a18.47,18.47,0,0,0,2.74.24c1.74,0,2.19-.54,2.19-1.86V74.9a8.82,8.82,0,0,1-2.22.3c-2.38,0-3.38-1-3.38-4s1.09-4,3.63-4a6.69,6.69,0,0,1,3,.65c0,.44,0,.9,0,1.37v6.76c0,2-1.35,2.44-3.07,2.44a18.46,18.46,0,0,1-3.05-.29Zm.43-6c0,2.2.41,3.13,2.62,3.13A6.4,6.4,0,0,0,75.27,74V69.66c0-.38,0-.88,0-1.26A5.09,5.09,0,0,0,73.29,68c-2,0-2.52,1-2.52,3.13"/><path class="cls-3" d="M79.83,75.28H78.74V69.17c0-.47,0-.93,0-1.37a9.33,9.33,0,0,1,3.63-.67c2.74,0,3,1.3,3,2.93v5.23h-1.1v-5c0-1.52-.27-2.2-2.29-2.2a6.54,6.54,0,0,0-2.18.39c0,.38,0,.88,0,1.26Z"/><path class="cls-3" d="M87.63,64.82c0-.59.15-.8.66-.8s.66.21.66.8-.14.79-.66.79-.66-.2-.66-.79m.11,2.41h1.1v8h-1.1Z"/><path class="cls-3" d="M93.07,65v2.27h1.79v.87H93.07v5c0,1.15.39,1.36,1.37,1.36l.44,0,.09.83a5.65,5.65,0,0,1-.87.09c-1.49,0-2.12-.64-2.12-2.1V68.1H90.5v-.87H92v-2.1Z"/><path class="cls-3" d="M96.2,71.26c0-2.92.88-4.13,3.52-4.13s3.46,1.42,3.46,3.62c0,.23,0,.52,0,.76-.92.15-2.83.33-4,.38L97.3,72c.13,1.65.63,2.49,2.66,2.49a20.76,20.76,0,0,0,2.84-.23l.1.88a20,20,0,0,1-3.37.27c-2.63,0-3.33-1.75-3.33-4.13M99.4,71c.7,0,1.91-.13,2.66-.22,0-.16,0-.4,0-.57,0-1.36-.6-2.23-2.35-2.23-2,0-2.45,1-2.45,3.12Z"/><path class="cls-3" d="M109.26,71.25c0-3,.94-4.13,3.53-4.13s3.53,1.16,3.53,4.13-.93,4.13-3.53,4.13-3.53-1.12-3.53-4.13m6,0c0-2.44-.58-3.2-2.43-3.2s-2.42.65-2.42,3.2.61,3.21,2.42,3.21,2.43-.76,2.43-3.21"/><path class="cls-3" d="M118.41,67.24h1.1v5c0,1.52.27,2.2,2.29,2.2a6.44,6.44,0,0,0,2.16-.39c0-.38,0-.88,0-1.26V67.24h1.09v6.11c0,.47,0,.93,0,1.37a9.26,9.26,0,0,1-3.61.67c-2.74,0-3-1.3-3-2.93Z"/><path class="cls-3" d="M129.39,65v2.27h1.79v.87h-1.79v5c0,1.15.39,1.36,1.37,1.36l.44,0,.09.83a5.62,5.62,0,0,1-.87.09c-1.49,0-2.12-.64-2.12-2.1V68.1h-1.47v-.87h1.47v-2.1Z"/><path class="cls-3" d="M137.87,75.15a9.88,9.88,0,0,1-2.11.24c-2.71,0-3.21-1.91-3.21-4.22,0-2.63.6-4,3.5-4a6.8,6.8,0,0,1,1.8.23l-.09.84a8.55,8.55,0,0,0-1.34-.13c-2.52,0-2.76.88-2.76,3.11s.18,3.27,2.75,3.27a7.49,7.49,0,0,0,1.36-.17Z"/><path class="cls-3" d="M139.21,71.25c0-3,.94-4.13,3.53-4.13s3.53,1.16,3.53,4.13-.93,4.13-3.53,4.13-3.53-1.12-3.53-4.13m6,0c0-2.44-.58-3.2-2.43-3.2s-2.42.65-2.42,3.2.61,3.21,2.42,3.21,2.43-.76,2.43-3.21"/><path class="cls-3" d="M149.5,75.28h-1.09V69.17c0-.47,0-.93,0-1.37a9.19,9.19,0,0,1,3.31-.67,2.82,2.82,0,0,1,2.08.65,6.88,6.88,0,0,1,3-.65c2.41,0,2.77,1.34,2.77,2.93v5.23h-1.09v-5c0-1.53-.38-2.2-2-2.2a4.84,4.84,0,0,0-2.11.53,4.56,4.56,0,0,1,.19,1.47v5.23h-1.1v-5c0-1.53-.37-2.2-2-2.2a5.67,5.67,0,0,0-1.88.39c0,.38,0,.88,0,1.26Z"/><path class="cls-3" d="M161.7,71.26c0-2.92.88-4.13,3.52-4.13s3.46,1.42,3.46,3.62c0,.23,0,.52,0,.76-.92.15-2.83.33-4,.38L162.8,72c.14,1.65.63,2.49,2.66,2.49a20.76,20.76,0,0,0,2.84-.23l.1.88a20,20,0,0,1-3.37.27c-2.63,0-3.33-1.75-3.33-4.13m3.2-.22c.7,0,1.91-.13,2.66-.22,0-.16,0-.4,0-.57,0-1.36-.6-2.23-2.35-2.23-2,0-2.45,1-2.45,3.12Z"/><path class="cls-3" d="M171.52,69.18c0,1.08.83,1.19,2,1.55,1.62.5,2.53.91,2.53,2.4,0,1.77-1.32,2.26-3.07,2.26a11.93,11.93,0,0,1-2.56-.27l.11-.86a13.31,13.31,0,0,0,2.07.19c.94,0,2.33,0,2.33-1.26,0-1-.71-1.2-2-1.58s-2.52-.68-2.52-2.33,1.16-2.15,2.78-2.15a12.15,12.15,0,0,1,2.62.27l-.11.85a11.71,11.71,0,0,0-2-.19c-.92,0-2.18,0-2.18,1.13"/><path class="cls-3" d="M182,64.82c0-.59.15-.8.66-.8s.66.21.66.8-.14.79-.66.79-.66-.2-.66-.79m.11,2.41h1.1v8h-1.1Z"/><path class="cls-3" d="M186.65,75.28h-1.09V69.17c0-.47,0-.93,0-1.37a9.19,9.19,0,0,1,3.31-.67,2.82,2.82,0,0,1,2.08.65,6.87,6.87,0,0,1,3-.65c2.41,0,2.77,1.34,2.77,2.93v5.23h-1.09v-5c0-1.53-.38-2.2-2-2.2a4.83,4.83,0,0,0-2.11.53,4.59,4.59,0,0,1,.19,1.47v5.23h-1.1v-5c0-1.53-.37-2.2-2-2.2a5.66,5.66,0,0,0-1.88.39c0,.38,0,.88,0,1.26Z"/><path class="cls-3" d="M200.2,78.24h-1.09v-9.1c0-.47,0-.93,0-1.37a6.71,6.71,0,0,1,3-.65c2.56,0,3.63,1,3.63,4.13s-1,4.13-3.37,4.13a8.86,8.86,0,0,1-2.23-.3Zm1.88-3.76c2.23,0,2.62-1,2.62-3.22S204.17,68,202.17,68a5.09,5.09,0,0,0-1.94.36c0,.38,0,.89,0,1.27v4.5a6.44,6.44,0,0,0,1.88.32"/><path class="cls-3" d="M207.87,75.28V69.15c0-.47,0-.93,0-1.37a6.69,6.69,0,0,1,3-.64,6.37,6.37,0,0,1,.75,0l-.09.93a6,6,0,0,0-.66,0,5.09,5.09,0,0,0-1.94.37c0,.38,0,.89,0,1.27v5.59Z"/><path class="cls-3" d="M212.88,71.25c0-3,.94-4.13,3.53-4.13s3.53,1.16,3.53,4.13-.93,4.13-3.53,4.13-3.53-1.12-3.53-4.13m6,0c0-2.44-.58-3.2-2.43-3.2s-2.42.65-2.42,3.2.61,3.21,2.42,3.21,2.43-.76,2.43-3.21"/><path class="cls-3" d="M225.74,74.61c-.2.52-.45.78-.86.78s-.69-.26-.89-.78l-2.83-7.37h1.17l2.56,6.85,2.6-6.85h1.12Z"/><path class="cls-3" d="M229.83,71.26c0-2.92.88-4.13,3.52-4.13s3.46,1.42,3.46,3.62c0,.23,0,.52,0,.76-.92.15-2.83.33-4,.38l-1.91.08c.14,1.65.63,2.49,2.66,2.49a20.75,20.75,0,0,0,2.84-.23l.1.88a20.06,20.06,0,0,1-3.37.27c-2.63,0-3.33-1.75-3.33-4.13M233,71c.7,0,1.91-.13,2.66-.22,0-.16,0-.4,0-.57,0-1.36-.6-2.23-2.35-2.23-2,0-2.45,1-2.45,3.12Z"/><path class="cls-3" d="M239.91,75.28h-1.09V69.17c0-.47,0-.93,0-1.37a9.19,9.19,0,0,1,3.31-.67,2.82,2.82,0,0,1,2.08.65,6.87,6.87,0,0,1,3-.65c2.41,0,2.77,1.34,2.77,2.93v5.23h-1.09v-5c0-1.53-.38-2.2-2-2.2a4.83,4.83,0,0,0-2.11.53,4.59,4.59,0,0,1,.19,1.47v5.23h-1.1v-5c0-1.53-.37-2.2-2-2.2a5.66,5.66,0,0,0-1.88.39c0,.38,0,.88,0,1.26Z"/><path class="cls-3" d="M252.11,71.26c0-2.92.88-4.13,3.52-4.13s3.46,1.42,3.46,3.62c0,.23,0,.52,0,.76-.92.15-2.83.33-4,.38l-1.91.08c.14,1.65.63,2.49,2.66,2.49a20.75,20.75,0,0,0,2.84-.23l.1.88a20.06,20.06,0,0,1-3.37.27c-2.63,0-3.33-1.75-3.33-4.13m3.2-.22c.7,0,1.91-.13,2.66-.22,0-.16,0-.4,0-.57,0-1.36-.6-2.23-2.35-2.23-2,0-2.45,1-2.45,3.12Z"/><path class="cls-3" d="M262.2,75.28H261.1V69.17c0-.47,0-.93,0-1.37a9.33,9.33,0,0,1,3.63-.67c2.74,0,3,1.3,3,2.93v5.23h-1.1v-5c0-1.52-.27-2.2-2.29-2.2a6.54,6.54,0,0,0-2.18.39c0,.38,0,.88,0,1.26Z"/><path class="cls-3" d="M271.93,65v2.27h1.79v.87h-1.79v5c0,1.15.39,1.36,1.37,1.36l.44,0,.09.83a5.64,5.64,0,0,1-.87.09c-1.49,0-2.12-.64-2.12-2.1V68.1h-1.47v-.87h1.47v-2.1Z"/></g></g></svg>