<svg xmlns="http://www.w3.org/2000/svg" width="278.854" height="50" viewBox="0 0 278.854 50">
  <g id="Group_3" data-name="Group 3" transform="translate(-18.353 -18.904)">
    <g id="Group_1" data-name="Group 1" transform="translate(18.353 18.904)">
      <path id="Path_1" data-name="Path 1" d="M34.893,68.9a12.754,12.754,0,0,1-4.121-3.3,15.3,15.3,0,0,1-2.787-4.867,17.657,17.657,0,0,1-1.059-5.965c0-12.559,10.479-19.388,9.341-32.1a6.989,6.989,0,0,0-.354-2.079,4.438,4.438,0,0,0-.981-1.688,12.754,12.754,0,0,1,4.121,3.3,15.3,15.3,0,0,1,2.787,4.867A18.663,18.663,0,0,1,42.9,33.033c0,10.871-9.929,18.838-9.929,30.495a9.142,9.142,0,0,0,.51,2.983A11.314,11.314,0,0,0,34.893,68.9" transform="translate(-19.548 -18.904)" fill="#006e9a"/>
      <path id="Path_2" data-name="Path 2" d="M77.56,57.876V46.244H66.739V57.876h-4.63V31.545h4.63v11H77.56v-11h4.572V57.876Z" transform="translate(-24.45 -20.665)" fill="#00aeff"/>
      <path id="Path_3" data-name="Path 3" d="M92.817,50.846c.232,3.877,2.257,4.8,5.382,4.8a61.105,61.105,0,0,0,7.176-.521l.348,3.24a51.172,51.172,0,0,1-8.681.752c-6.772,0-8.508-4.4-8.508-10.359,0-7.292,2.258-10.359,8.971-10.359,7.292,0,8.8,3.82,8.8,9.838a11.666,11.666,0,0,1-.058,1.447,95.906,95.906,0,0,1-9.954,1.042Zm3.935-3.067c1.447-.058,3.82-.289,5.209-.463,0-.289.058-.636.058-.984,0-3.067-1.1-4.8-4.456-4.8-4.283,0-4.861,2.662-4.861,6.309Z" transform="translate(-28.132 -21.621)" fill="#00aeff"/>
      <path id="Path_4" data-name="Path 4" d="M111.8,52.88c0-3.53,1.563-5.729,5.44-6.308a54.869,54.869,0,0,1,7.119-.521c0-2.777-1.274-4.166-4.283-4.166a52.307,52.307,0,0,0-7,.521l-.348-3.183a48.273,48.273,0,0,1,7.813-.752c4.4,0,8.1,1.157,8.1,6.308v8.912c0,1.331-.058,2.488-.173,3.7-2.257,1.273-5.209,1.736-9.028,1.736-5.556,0-7.639-2.141-7.639-6.25m12.443-4.05a24.933,24.933,0,0,0-5.5.521c-2.083.521-2.894,1.1-2.894,3.472,0,2.489,1.389,3.183,3.993,3.183a10.161,10.161,0,0,0,4.166-.636c.058-.811.174-1.736.174-2.721V48.888h.058Z" transform="translate(-31.374 -21.63)" fill="#00aeff"/>
      <path id="Path_5" data-name="Path 5" d="M135.257,29.662h4.34v22.57a7.312,7.312,0,0,0,1.447,4.572l-3.761,1.736a8.381,8.381,0,0,1-2.084-6.076l.058-22.8Z" transform="translate(-34.634 -20.403)" fill="#00aeff"/>
      <path id="Path_6" data-name="Path 6" d="M156.093,57.951a18.818,18.818,0,0,1-3.01.289c-4.109,0-5.787-1.736-5.787-5.5V41H143.94V37.812H147.3V32.835l4.34-.752v5.671H155.8v3.184h-4.167v11.4c0,1.91.811,2.546,2.721,2.546a14.145,14.145,0,0,0,1.562-.058Z" transform="translate(-35.852 -20.74)" fill="#00aeff"/>
      <path id="Path_7" data-name="Path 7" d="M178.861,57.614h-4.34V45.172c0-3.241-.578-4.572-4.8-4.572a9.22,9.22,0,0,0-3.82.81v16.2h-4.34V29.662h4.34v8.275a16.663,16.663,0,0,1,4.977-.752c7.118,0,7.871,3.3,7.871,7.524v12.9Z" transform="translate(-38.307 -20.403)" fill="#00aeff"/>
      <path id="Path_8" data-name="Path 8" d="M204,35.357a29.574,29.574,0,0,0-5.209-.463c-7.06,0-7.118,4.109-7.118,9.607,0,5.613.058,9.607,7.118,9.607A31.148,31.148,0,0,0,204,53.644l.463,3.53a26.248,26.248,0,0,1-6.6.752c-8.681,0-10.822-4.109-10.822-13.426s2.141-13.426,10.822-13.426a25.549,25.549,0,0,1,6.6.752Z" transform="translate(-41.858 -20.6)" fill="#006e9a"/>
      <path id="Path_9" data-name="Path 9" d="M210.441,52.88c0-3.53,1.562-5.729,5.44-6.308A54.867,54.867,0,0,1,223,46.052c0-2.777-1.273-4.166-4.283-4.166a52.319,52.319,0,0,0-7,.521l-.347-3.183a48.272,48.272,0,0,1,7.812-.752c4.4,0,8.1,1.157,8.1,6.308v8.912c0,1.331-.058,2.488-.174,3.7-2.257,1.273-5.209,1.736-9.027,1.736-5.5,0-7.639-2.141-7.639-6.25M223,48.83a24.933,24.933,0,0,0-5.5.521c-2.083.521-2.894,1.1-2.894,3.472,0,2.489,1.389,3.183,3.993,3.183a10.161,10.161,0,0,0,4.166-.636c.058-.811.174-1.736.174-2.721V48.888H223Z" transform="translate(-45.119 -21.63)" fill="#006e9a"/>
      <path id="Path_10" data-name="Path 10" d="M244.581,57.951a18.818,18.818,0,0,1-3.01.289c-4.109,0-5.787-1.736-5.787-5.5V41h-3.357V37.812h3.357V32.835l4.34-.752v5.671h4.167v3.184H240.01v11.4c0,1.91.81,2.546,2.72,2.546a14.16,14.16,0,0,0,1.563-.058Z" transform="translate(-48.182 -20.74)" fill="#006e9a"/>
      <path id="Path_11" data-name="Path 11" d="M250.18,52.88c0-3.53,1.562-5.729,5.44-6.308a54.867,54.867,0,0,1,7.118-.521c0-2.777-1.273-4.166-4.283-4.166a52.318,52.318,0,0,0-7,.521l-.347-3.183a48.273,48.273,0,0,1,7.812-.752c4.4,0,8.1,1.157,8.1,6.308v8.912c0,1.331-.058,2.488-.174,3.7-2.257,1.273-5.208,1.736-9.027,1.736-5.556,0-7.639-2.141-7.639-6.25m12.558-4.05a24.932,24.932,0,0,0-5.5.521c-2.083.521-2.894,1.1-2.894,3.472,0,2.489,1.389,3.183,3.993,3.183a10.161,10.161,0,0,0,4.166-.636c.058-.811.174-1.736.174-2.721V48.888h.058Z" transform="translate(-50.656 -21.63)" fill="#006e9a"/>
      <path id="Path_12" data-name="Path 12" d="M272.764,29.662h4.34v22.57a7.312,7.312,0,0,0,1.447,4.572l-3.762,1.736a8.384,8.384,0,0,1-2.084-6.076v-22.8Z" transform="translate(-53.795 -20.403)" fill="#006e9a"/>
      <path id="Path_13" data-name="Path 13" d="M291.382,52.156l4.282-13.484h4.4l-9.375,27.6h-4.34l3.067-8.739-8.1-18.866h4.514Z" transform="translate(-54.994 -21.659)" fill="#006e9a"/>
      <path id="Path_14" data-name="Path 14" d="M313.957,53.267c0-2.257-2.084-2.488-3.993-3.067-3.24-.984-6.308-1.851-6.308-6.192,0-4.4,3.067-5.672,7.118-5.672a27.353,27.353,0,0,1,7.118.81l-.463,3.184a27.267,27.267,0,0,0-4.976-.521c-1.621,0-4.572,0-4.572,2.083,0,2.141,2.431,2.489,4.109,3.067,3.472,1.158,6.25,1.852,6.25,6.25,0,4.629-3.473,5.961-7.871,5.961a32.118,32.118,0,0,1-7-.811l.463-3.24a33.307,33.307,0,0,0,5.382.578c1.678-.058,4.746,0,4.746-2.431" transform="translate(-58.067 -21.612)" fill="#006e9a"/>
      <path id="Path_15" data-name="Path 15" d="M335.827,57.951a18.817,18.817,0,0,1-3.009.289c-4.11,0-5.787-1.736-5.787-5.5V41h-3.357V37.812h3.357V32.835l4.34-.752v5.671h4.166v3.184h-4.166v11.4c0,1.91.81,2.546,2.72,2.546a14.145,14.145,0,0,0,1.562-.058Z" transform="translate(-60.897 -20.74)" fill="#006e9a"/>
      <path id="Path_16" data-name="Path 16" d="M46.257,70.739a8.856,8.856,0,0,1-2.787-2.2,10.482,10.482,0,0,1-1.884-3.3,12.266,12.266,0,0,1-.706-4c0-8.438,7.731-13.226,6.514-24.1a15.863,15.863,0,0,1,3.454,5.494,12.248,12.248,0,0,1,.707,4c0,7.261-6.633,12.6-6.633,20.448a5.492,5.492,0,0,0,.354,2,4.842,4.842,0,0,0,.981,1.648" transform="translate(-21.492 -21.446)" fill="#00aeff"/>
      <path id="Path_17" data-name="Path 17" d="M23.73,54.095a8.871,8.871,0,0,1-2.787-2.2,10.459,10.459,0,0,1-1.883-3.3,12.248,12.248,0,0,1-.707-4c0-8.439,7.731-13.227,6.514-24.1a15.85,15.85,0,0,1,3.454,5.494,12.248,12.248,0,0,1,.707,4c0,7.261-6.632,12.6-6.632,20.448a5.494,5.494,0,0,0,.353,2,4.842,4.842,0,0,0,.981,1.648" transform="translate(-18.353 -19.126)" fill="#00aeff"/>
    </g>
    <g id="Group_2" data-name="Group 2" transform="translate(293.179 28.275)">
      <path id="Path_18" data-name="Path 18" d="M341.7,31.752a2.015,2.015,0,1,1-2.008-1.96A1.97,1.97,0,0,1,341.7,31.752Zm-3.526,0a1.518,1.518,0,0,0,1.53,1.566,1.5,1.5,0,0,0,1.494-1.553,1.513,1.513,0,1,0-3.024-.012Zm1.207,1.028h-.454V30.82a3.928,3.928,0,0,1,.752-.06,1.225,1.225,0,0,1,.682.144.543.543,0,0,1,.191.43.5.5,0,0,1-.406.454v.023a.579.579,0,0,1,.358.479,1.516,1.516,0,0,0,.144.49h-.49A1.676,1.676,0,0,1,340,32.3c-.036-.215-.156-.311-.406-.311h-.215Zm.012-1.111h.215c.251,0,.454-.083.454-.287,0-.179-.132-.3-.419-.3a1.075,1.075,0,0,0-.25.024Z" transform="translate(-337.673 -29.792)" fill="#006e9a"/>
    </g>
  </g>
</svg>
