<svg xmlns="http://www.w3.org/2000/svg" xmlns:xlink="http://www.w3.org/1999/xlink" width="200" height="200" viewBox="0 0 200 200">
  <defs>
    <clipPath id="clip-path">
      <circle id="Ellipse_5" data-name="Ellipse 5" cx="100" cy="100" r="100" fill="#00a859"/>
    </clipPath>
    <clipPath id="clip-path-2">
      <circle id="Ellipse_5-2" data-name="Ellipse 5" cx="88.717" cy="88.717" r="88.717" fill="none" stroke="#fff" stroke-width="8"/>
    </clipPath>
    <clipPath id="clip-Availability">
      <rect width="200" height="200"/>
    </clipPath>
  </defs>
  <g id="Availability" clip-path="url(#clip-Availability)">
    <g id="Group_472" data-name="Group 472">
      <circle id="Ellipse_24" data-name="Ellipse 24" cx="100" cy="100" r="100" fill="#00a859"/>
    </g>
    <g id="Group_480" data-name="Group 480" transform="translate(11.283 11.283)" opacity="0.301">
      <circle id="Ellipse_24-2" data-name="Ellipse 24" cx="88.717" cy="88.717" r="88.717" fill="none" stroke="#fff" stroke-width="8"/>
    </g>
    <path id="Path_661" data-name="Path 661" d="M53.506,2.506a51,51,0,1,0,51,51A51.06,51.06,0,0,0,53.506,2.506ZM92.277,74.691a3.476,3.476,0,0,0-1.13-.225H79.1a84.039,84.039,0,0,0,2.055-15.122H97.265A43.82,43.82,0,0,1,92.277,74.691ZM9.747,59.345H25.89a84.615,84.615,0,0,0,2.062,15.122H14.613A43.834,43.834,0,0,1,9.747,59.345Zm2.933-22.73a3.581,3.581,0,0,0,.6.116H27.407A81.667,81.667,0,0,0,25.76,52.54H9.359A43.97,43.97,0,0,1,12.68,36.615Zm44.229-6.69V12.714c3.124,1.688,9.541,6.349,13.72,17.211Zm15.816,6.805A74.066,74.066,0,0,1,74.487,52.54H56.909V36.731Zm-22.621-24V29.925H36.424C40.582,19.118,46.959,14.443,50.1,12.735Zm0,24V52.54H32.559a74.471,74.471,0,0,1,1.769-15.809ZM32.681,59.345H50.1V74.467H34.92A75.44,75.44,0,0,1,32.681,59.345ZM50.1,81.272V96.646a3.381,3.381,0,0,0-.687-.463c-.449-.191-7.363-3.335-12.2-14.911Zm7.534,14.911a3.177,3.177,0,0,0-.728.49v-15.4h12.93C64.994,92.848,58.079,95.992,57.637,96.183Zm-.728-21.716V59.345H74.371a75.441,75.441,0,0,1-2.239,15.122ZM81.293,52.54a81.667,81.667,0,0,0-1.647-15.809H94.373a43.985,43.985,0,0,1,3.28,15.809ZM90.82,29.925H77.863c-3.028-9.14-7.54-15.013-11.6-18.722A44.368,44.368,0,0,1,90.82,29.925ZM40.807,11.19c-4.063,3.709-8.588,9.582-11.624,18.735H16.192A44.336,44.336,0,0,1,40.807,11.19ZM19.173,81.272H29.966a45.237,45.237,0,0,0,7.261,13.284A44.364,44.364,0,0,1,19.173,81.272ZM69.839,94.536a45.435,45.435,0,0,0,7.248-13.264H87.839A44.358,44.358,0,0,1,69.839,94.536Z" transform="translate(46.494 46.494)" fill="#fff"/>
  </g>
</svg>
