<svg xmlns="http://www.w3.org/2000/svg" xmlns:xlink="http://www.w3.org/1999/xlink" width="200" height="200" viewBox="0 0 200 200">
  <defs>
    <clipPath id="clip-path">
      <circle id="Ellipse_42" data-name="Ellipse 42" cx="100" cy="100" r="100" transform="translate(48.186)" fill="#00aeff"/>
    </clipPath>
    <clipPath id="clip-path-2">
      <circle id="Ellipse_43" data-name="Ellipse 43" cx="100" cy="100" r="100" transform="translate(-55.955 -29.655)" fill="#00aeff"/>
    </clipPath>
    <linearGradient id="linear-gradient" x1="0.119" y1="0.174" x2="0.46" y2="0.569" gradientUnits="objectBoundingBox">
      <stop offset="0" stop-color="#00455f"/>
      <stop offset="0.37" stop-color="#006d93" stop-opacity="0.631"/>
      <stop offset="0.801" stop-color="#0099d2" stop-opacity="0.2"/>
      <stop offset="1" stop-color="#00aeef" stop-opacity="0"/>
    </linearGradient>
    <clipPath id="clip-Data_Mart_Config_Mgr">
      <rect width="200" height="200"/>
    </clipPath>
  </defs>
  <g id="Data_Mart_Config_Mgr" data-name="Data Mart Config Mgr" clip-path="url(#clip-Data_Mart_Config_Mgr)">
    <circle id="Ellipse_24" data-name="Ellipse 24" cx="100" cy="100" r="100" fill="#00aeff"/>
    <g id="Group_133" data-name="Group 133" transform="translate(-48.186)">
      <g id="Mask_Group_2" data-name="Mask Group 2" clip-path="url(#clip-path)">
        <g id="Group_121" data-name="Group 121" transform="translate(46.9)">
          <path id="Path_116" data-name="Path 116" d="M82.593,120.5a55.828,55.828,0,1,0,55.862,55.862A55.79,55.79,0,0,0,82.593,120.5Zm0,100.069a44.241,44.241,0,1,1,44.276-44.207A44.267,44.267,0,0,1,82.593,220.569Z" transform="translate(-40.662 -37.397)" fill="#e58b22"/>
          <path id="Path_117" data-name="Path 117" d="M150.276,174.09V153.538L138,150.917a65.388,65.388,0,0,0-2.276-7.379l9.172-8.276-10.276-17.793-12.69,4.069a68.727,68.727,0,0,0-5.1-4.9l4-12.414L103.034,93.952l-9.034,10a69.174,69.174,0,0,0-6.759-1.724L84.483,89.4H64.069L61.31,102.228a59.61,59.61,0,0,0-7.1,1.862l-8.483-9.241L27.931,105.124l3.793,11.586a76.537,76.537,0,0,0-5.862,5.724l-11.034-3.586L4.552,136.641l8.207,7.379a55.873,55.873,0,0,0-2.621,8.966L0,155.193v20.552l9.655,2.069a69.42,69.42,0,0,0,2.552,10.069L5.379,194.09l10.276,17.793,8.552-2.759a70.527,70.527,0,0,0,7.862,7.862l-2.69,8,17.793,10.276,5.862-6.483a71.855,71.855,0,0,0,10.9,2.69l1.793,8.276H86.276l1.931-8.9a64.261,64.261,0,0,0,10.345-3.172l6.069,6.69,17.793-10.276-3.1-9.586a67.274,67.274,0,0,0,6.69-7.31l9.586,3.1L145.862,192.5l-8.414-7.586a69.778,69.778,0,0,0,1.862-8.552Zm-23.034-7.448a52.966,52.966,0,1,1-52.966-52.966A52.979,52.979,0,0,1,127.241,166.641Z" transform="translate(-32.345 -27.745)" fill="#ff9d27"/>
        </g>
      </g>
      <g id="Group_132" data-name="Group 132" transform="translate(104.141 29.655)">
        <rect id="Rectangle_64" data-name="Rectangle 64" width="9.448" height="10.138" transform="translate(38 9.448)" fill="#dce4e7"/>
        <rect id="Rectangle_65" data-name="Rectangle 65" width="9.448" height="4.69" transform="translate(38 9.448)" fill="#cdd5d8"/>
        <g id="Mask_Group_3" data-name="Mask Group 3" clip-path="url(#clip-path-2)">
          <path id="Path_154" data-name="Path 154" d="M310.089,248.221,160.639,101.8v58.383l-56.795,2.879L241.592,299.751C240.006,304.95,310.279,248.348,310.089,248.221Z" transform="translate(-92.999 -77.541)" opacity="0.8" fill="url(#linear-gradient)"/>
        </g>
        <g id="Group_122" data-name="Group 122" transform="translate(34.069)">
          <path id="Path_119" data-name="Path 119" d="M196.541,53.621a1.854,1.854,0,0,1-1.862,1.862H181.162a1.854,1.854,0,0,1-1.862-1.862V44.862A1.854,1.854,0,0,1,181.162,43h13.517a1.854,1.854,0,0,1,1.862,1.862Z" transform="translate(-179.3 -43)" fill="#30363d"/>
          <path id="Path_120" data-name="Path 120" d="M183.907,54.3H181.7V45.2h2.207Z" transform="translate(-180.045 -43.683)" fill="#484f59"/>
          <rect id="Rectangle_66" data-name="Rectangle 66" width="1.862" height="9.103" transform="translate(5.103 1.517)" fill="#484f59"/>
          <rect id="Rectangle_67" data-name="Rectangle 67" width="1.172" height="9.103" transform="translate(8.483 1.517)" fill="#484f59"/>
        </g>
        <g id="Group_125" data-name="Group 125" transform="translate(9.693 12.245)">
          <g id="Group_124" data-name="Group 124">
            <rect id="Rectangle_68" data-name="Rectangle 68" width="5.862" height="6.276" transform="matrix(0.866, -0.5, 0.5, 0.866, 4.654, 8.889)" fill="#dce4e7"/>
            <rect id="Rectangle_69" data-name="Rectangle 69" width="5.862" height="2.966" transform="translate(4.649 8.867) rotate(-29.967)" fill="#cdd5d8"/>
            <g id="Group_123" data-name="Group 123">
              <path id="Path_121" data-name="Path 121" d="M156.193,66.1a1.146,1.146,0,0,1-.414,1.586l-7.31,4.207a1.146,1.146,0,0,1-1.586-.414l-2.759-4.759a1.146,1.146,0,0,1,.414-1.586l7.31-4.207a1.146,1.146,0,0,1,1.586.414Z" transform="translate(-143.956 -60.756)" fill="#30363d"/>
              <rect id="Rectangle_70" data-name="Rectangle 70" width="1.379" height="5.655" transform="matrix(0.865, -0.501, 0.501, 0.865, 0.969, 5.299)" fill="#484f59"/>
              <path id="Path_122" data-name="Path 122" d="M151.893,71l-.966.552-2.828-4.9.966-.552Z" transform="translate(-145.242 -62.414)" fill="#484f59"/>
              <rect id="Rectangle_71" data-name="Rectangle 71" width="0.69" height="5.655" transform="translate(4.67 3.198) rotate(-30.014)" fill="#484f59"/>
            </g>
          </g>
        </g>
        <g id="Group_128" data-name="Group 128" transform="translate(62.431 12.245)">
          <g id="Group_127" data-name="Group 127">
            <rect id="Rectangle_72" data-name="Rectangle 72" width="6.276" height="5.862" transform="matrix(0.5, -0.866, 0.866, 0.5, 0, 11.415)" fill="#dce4e7"/>
            <rect id="Rectangle_73" data-name="Rectangle 73" width="2.966" height="5.862" transform="matrix(0.5, -0.866, 0.866, 0.5, 1.699, 8.491)" fill="#cdd5d8"/>
            <g id="Group_126" data-name="Group 126" transform="translate(0.504)">
              <path id="Path_123" data-name="Path 123" d="M221.324,66.1a1.146,1.146,0,0,0,.414,1.586l7.31,4.207a1.146,1.146,0,0,0,1.586-.414l2.759-4.759a1.146,1.146,0,0,0-.414-1.586l-7.31-4.207a1.146,1.146,0,0,0-1.586.414Z" transform="translate(-221.156 -60.756)" fill="#30363d"/>
              <rect id="Rectangle_74" data-name="Rectangle 74" width="5.655" height="1.379" transform="matrix(0.5, -0.866, 0.866, 0.5, 7.382, 9.54)" fill="#484f59"/>
              <rect id="Rectangle_75" data-name="Rectangle 75" width="5.655" height="1.172" transform="translate(5.711 8.591) rotate(-59.986)" fill="#484f59"/>
              <path id="Path_124" data-name="Path 124" d="M227.4,69.8l.621.345,2.828-4.9-.621-.345Z" transform="translate(-223.093 -62.042)" fill="#484f59"/>
            </g>
          </g>
        </g>
        <g id="Group_129" data-name="Group 129" transform="translate(0 15.241)">
          <path id="Path_125" data-name="Path 125" d="M215.417,107.859A42.759,42.759,0,1,1,172.659,65.1,42.8,42.8,0,0,1,215.417,107.859Z" transform="translate(-129.9 -65.1)" fill="#30363d"/>
          <path id="Path_126" data-name="Path 126" d="M172.659,150.617a42.759,42.759,0,0,1,0-85.517" transform="translate(-129.9 -65.1)" fill="#484f59"/>
          <path id="Path_127" data-name="Path 127" d="M211.714,110.807A36.207,36.207,0,1,1,175.507,74.6,36.2,36.2,0,0,1,211.714,110.807Z" transform="translate(-132.817 -68.048)" fill="#f7f8fc"/>
          <path id="Path_128" data-name="Path 128" d="M142.434,112.531a36.2,36.2,0,0,1,36.207-36.207,36.628,36.628,0,0,1,16,3.724,36.191,36.191,0,1,0-35.035,63.241A36.12,36.12,0,0,1,142.434,112.531Z" transform="translate(-132.848 -68.048)" fill="#e5e8ec"/>
        </g>
        <g id="Group_130" data-name="Group 130" transform="translate(10.897 26.138)">
          <rect id="Rectangle_76" data-name="Rectangle 76" width="0.759" height="4.414" transform="translate(31.517)" fill="#30363d"/>
          <path id="Path_129" data-name="Path 129" d="M184.917,85.845l-.759.138-.759-4.345.759-.138Z" transform="translate(-157.4 -81.086)" fill="#30363d"/>
          <path id="Path_130" data-name="Path 130" d="M177.907,87.638l-.759.276L175.7,83.776l.69-.276Z" transform="translate(-155.01 -81.707)" fill="#30363d"/>
          <rect id="Rectangle_77" data-name="Rectangle 77" width="0.759" height="4.414" transform="translate(15.63 4.438) rotate(-29.98)" fill="#30363d"/>
          <path id="Path_131" data-name="Path 131" d="M165.279,94.679l-.552.483L161.9,91.783l.552-.483Z" transform="translate(-150.728 -84.128)" fill="#30363d"/>
          <path id="Path_132" data-name="Path 132" d="M160.062,99.728l-.483.621L156.2,97.521l.483-.621Z" transform="translate(-148.959 -85.866)" fill="#30363d"/>
          <path id="Path_133" data-name="Path 133" d="M155.907,105.607l-.414.69L151.7,104.09l.345-.69Z" transform="translate(-147.562 -87.883)" fill="#30363d"/>
          <path id="Path_134" data-name="Path 134" d="M152.714,112.217l-.276.69L148.3,111.39l.276-.69Z" transform="translate(-146.507 -90.148)" fill="#30363d"/>
          <rect id="Rectangle_78" data-name="Rectangle 78" width="0.759" height="4.414" transform="translate(0.407 26.634) rotate(-79.904)" fill="#30363d"/>
          <rect id="Rectangle_79" data-name="Rectangle 79" width="4.414" height="0.759" transform="translate(0 31.379)" fill="#30363d"/>
          <path id="Path_135" data-name="Path 135" d="M150.645,133.3l.138.759-4.345.828-.138-.828Z" transform="translate(-145.886 -97.162)" fill="#30363d"/>
          <rect id="Rectangle_80" data-name="Rectangle 80" width="4.414" height="0.759" transform="matrix(0.939, -0.343, 0.343, 0.939, 1.788, 42.288)" fill="#30363d"/>
          <path id="Path_136" data-name="Path 136" d="M155.362,146.4l.345.69-3.793,2.207-.414-.69Z" transform="translate(-147.5 -101.228)" fill="#30363d"/>
          <rect id="Rectangle_81" data-name="Rectangle 81" width="4.414" height="0.759" transform="matrix(0.77, -0.638, 0.638, 0.77, 7.165, 51.97)" fill="#30363d"/>
          <path id="Path_137" data-name="Path 137" d="M164.528,157.1l.552.552-2.828,3.379-.552-.552Z" transform="translate(-150.666 -104.548)" fill="#30363d"/>
          <rect id="Rectangle_82" data-name="Rectangle 82" width="4.414" height="0.759" transform="translate(15.516 59.189) rotate(-59.966)" fill="#30363d"/>
          <rect id="Rectangle_83" data-name="Rectangle 83" width="4.414" height="0.759" transform="matrix(0.34, -0.941, 0.941, 0.34, 20.538, 61.597)" fill="#30363d"/>
          <path id="Path_138" data-name="Path 138" d="M183.959,166.2l.759.138-.759,4.276-.759-.138Z" transform="translate(-157.338 -107.372)" fill="#30363d"/>
          <path id="Path_139" data-name="Path 139" d="M191.2,166.9h.759v4.414H191.2Z" transform="translate(-159.821 -107.59)" fill="#30363d"/>
          <path id="Path_140" data-name="Path 140" d="M198.1,166.338l.759-.138.759,4.345-.759.138Z" transform="translate(-161.962 -107.372)" fill="#30363d"/>
          <path id="Path_141" data-name="Path 141" d="M204.8,164.576l.759-.276,1.517,4.138-.759.276Z" transform="translate(-164.041 -106.783)" fill="#30363d"/>
          <rect id="Rectangle_84" data-name="Rectangle 84" width="0.759" height="4.414" transform="translate(45.171 55.861) rotate(-30.031)" fill="#30363d"/>
          <path id="Path_142" data-name="Path 142" d="M216.9,157.783l.621-.483,2.828,3.379-.621.483Z" transform="translate(-167.797 -104.61)" fill="#30363d"/>
          <rect id="Rectangle_85" data-name="Rectangle 85" width="0.759" height="4.414" transform="matrix(0.643, -0.766, 0.766, 0.643, 52.526, 49.867)" fill="#30363d"/>
          <path id="Path_143" data-name="Path 143" d="M226,147.29l.345-.69,3.862,2.207-.414.69Z" transform="translate(-170.621 -101.29)" fill="#30363d"/>
          <path id="Path_144" data-name="Path 144" d="M229,141.059l.276-.759,4.138,1.517-.276.69Z" transform="translate(-171.552 -99.334)" fill="#30363d"/>
          <rect id="Rectangle_86" data-name="Rectangle 86" width="0.759" height="4.414" transform="matrix(0.173, -0.985, 0.985, 0.173, 58.782, 37.086)" fill="#30363d"/>
          <rect id="Rectangle_87" data-name="Rectangle 87" width="4.414" height="0.759" transform="translate(59.241 31.586)" fill="#30363d"/>
          <rect id="Rectangle_88" data-name="Rectangle 88" width="4.414" height="0.759" transform="matrix(0.985, -0.173, 0.173, 0.985, 58.804, 26.798)" fill="#30363d"/>
          <path id="Path_145" data-name="Path 145" d="M229.376,113.107l-.276-.69,4.138-1.517.276.759Z" transform="translate(-171.583 -90.21)" fill="#30363d"/>
          <path id="Path_146" data-name="Path 146" d="M226.514,106.5l-.414-.69,3.793-2.207.414.69Z" transform="translate(-170.652 -87.945)" fill="#30363d"/>
          <path id="Path_147" data-name="Path 147" d="M222.583,100.548l-.483-.621,3.31-2.828.552.621Z" transform="translate(-169.41 -85.928)" fill="#30363d"/>
          <path id="Path_148" data-name="Path 148" d="M217.721,95.362l-.621-.483,2.828-3.379.621.483Z" transform="translate(-167.859 -84.19)" fill="#30363d"/>
          <path id="Path_149" data-name="Path 149" d="M212.021,91.107l-.621-.414,2.207-3.793.621.414Z" transform="translate(-166.09 -82.762)" fill="#30363d"/>
          <path id="Path_150" data-name="Path 150" d="M205.79,88.014l-.69-.276,1.448-4.138.759.276Z" transform="translate(-164.134 -81.738)" fill="#30363d"/>
          <path id="Path_151" data-name="Path 151" d="M199.059,86.014l-.759-.069.759-4.345.828.138Z" transform="translate(-162.024 -81.117)" fill="#30363d"/>
        </g>
        <g id="Group_131" data-name="Group 131" transform="translate(36.414 41.103)">
          <path id="Path_152" data-name="Path 152" d="M195.252,124.276a6.276,6.276,0,1,0-6.276,6.276A6.3,6.3,0,0,0,195.252,124.276Zm-6.207,3.793a3.782,3.782,0,0,1-3.793-3.793,3.793,3.793,0,1,1,7.586,0A3.782,3.782,0,0,1,189.045,128.069Z" transform="translate(-182.7 -107.379)" fill="#484f59"/>
          <path id="Path_153" data-name="Path 153" d="M209.145,102.6l-12.138,16.276-4.207-4.138Z" transform="translate(-185.834 -102.6)" fill="#484f59"/>
        </g>
        <path id="Path_115" data-name="Path 115" d="M277.4,198.183v-6.414l-3.862-.828a21.936,21.936,0,0,0-.69-2.276l2.9-2.621-3.241-5.586-4,1.31a16.491,16.491,0,0,0-1.586-1.517l1.241-3.862-5.586-3.241-2.828,3.1a19.354,19.354,0,0,0-2.138-.552l-.828-4h-6.414l-.828,4a11.6,11.6,0,0,0-2.207.621l-2.621-2.9-5.586,3.241,1.172,3.655c-.621.552-1.241,1.172-1.862,1.793l-3.448-1.1-3.241,5.586,2.552,2.345a19.093,19.093,0,0,0-.828,2.828l-3.172.69v6.414l3.034.621a23.774,23.774,0,0,0,.828,3.172l-2.138,1.931,3.241,5.586,2.69-.9a21.1,21.1,0,0,0,2.483,2.483l-.828,2.552,5.586,3.241,1.862-2a18.6,18.6,0,0,0,3.379.828l.552,2.621H257.4l.621-2.759a17.532,17.532,0,0,0,3.241-.965l1.862,2.069,5.586-3.241-.966-3.034a16.221,16.221,0,0,0,2.069-2.276l2.965.966,3.241-5.586-2.621-2.345a18.621,18.621,0,0,0,.552-2.69Zm-10.759-2.345A13.034,13.034,0,1,1,253.61,182.8,13.024,13.024,0,0,1,266.645,195.838Z" transform="translate(-161.059 -82.941)" fill="#e5e8ec"/>
      </g>
    </g>
  </g>
</svg>
