<svg xmlns="http://www.w3.org/2000/svg" xmlns:xlink="http://www.w3.org/1999/xlink" width="200" height="200" viewBox="0 0 200 200">
  <defs>
    <clipPath id="clip-Data_Quality">
      <rect width="200" height="200"/>
    </clipPath>
  </defs>
  <g id="Data_Quality" data-name="Data Quality" clip-path="url(#clip-Data_Quality)">
    <circle id="Blue_300_Bg" data-name="Blue 300 Bg" cx="100" cy="100" r="100" transform="translate(0 -0.1)" fill="#005cb7"/>
    <path id="Path_12650" data-name="Path 12650" d="M148.036,30.65v6.8l1.544,2.839h9.64L148.036,29.459Z" fill="#dedede"/>
    <path id="Path_12651" data-name="Path 12651" d="M129.65,35.292V64.486l1.332,3.709,2.544,1.622h23l3.345-5.331-.5-23.523h-9.147l-2.3-2.475V29.845H133.521l-3.877,3.3Z" fill="#fff"/>
    <path id="Path_12652" data-name="Path 12652" d="M149.731,29.52a4.064,4.064,0,0,0-2.9-1.133h-11.4a7.252,7.252,0,0,0-7.221,7.221V63.791a7.252,7.252,0,0,0,7.221,7.221H153.7a7.253,7.253,0,0,0,7.221-7.221V41.84a4.12,4.12,0,0,0-1.275-3.045Zm7.151,9.913h-5.81a1.9,1.9,0,0,1-1.912-1.9.048.048,0,0,1,0-.017V32.14Zm1.772,24.358a4.926,4.926,0,0,1-4.9,4.956H135.426a4.926,4.926,0,0,1-4.956-4.9V35.608a4.926,4.926,0,0,1,4.9-4.954H146.9v6.868a4.231,4.231,0,0,0,4.175,4.177h7.582Z" fill="#535353"/>
    <line id="Line_68" data-name="Line 68" x2="15.646" transform="translate(136.74 49.701)" fill="none" stroke="#1365b5" stroke-linecap="round" stroke-width="2"/>
    <line id="Line_69" data-name="Line 69" x2="15.646" transform="translate(136.74 54.515)" fill="none" stroke="#1365b5" stroke-linecap="round" stroke-width="2"/>
    <line id="Line_70" data-name="Line 70" x2="15.646" transform="translate(136.74 59.329)" fill="none" stroke="#1365b5" stroke-linecap="round" stroke-width="2"/>
    <path id="Path_12653" data-name="Path 12653" d="M21.751,60.142H94.415a4.541,4.541,0,0,1,4.541,4.541v54.5a4.542,4.542,0,0,1-4.541,4.542H21.751a4.542,4.542,0,0,1-4.541-4.542v-54.5a4.541,4.541,0,0,1,4.541-4.541" fill="#fff"/>
    <path id="Rectangle_495" data-name="Rectangle 495" d="M4.541,0H77.205a4.541,4.541,0,0,1,4.541,4.541v54.5A4.542,4.542,0,0,1,77.2,63.581H4.541A4.541,4.541,0,0,1,0,59.04V4.541A4.541,4.541,0,0,1,4.541,0Z" transform="translate(17.21 60.142)" fill="none" stroke="#535353" stroke-miterlimit="10" stroke-width="2"/>
    <line id="Line_71" data-name="Line 71" x2="59.546" transform="translate(29.021 80.214)" fill="none" stroke="#b8d2eb" stroke-linecap="round" stroke-width="2"/>
    <line id="Line_72" data-name="Line 72" x2="59.546" transform="translate(29.021 100.507)" fill="none" stroke="#b8d2eb" stroke-linecap="round" stroke-width="2"/>
    <path id="Path_12654" data-name="Path 12654" d="M30.736,110.2l8.639-18.681,12.709,11.6L63.515,76.317l12.716,15.83,6.989-15.83" fill="none" stroke="#1365b5" stroke-linecap="round" stroke-linejoin="round" stroke-width="2"/>
    <path id="Path_12655" data-name="Path 12655" d="M31.158,106.445a3.095,3.095,0,1,1-3.094,3.094,3.094,3.094,0,0,1,3.094-3.094" fill="#1365b5"/>
    <path id="Path_12656" data-name="Path 12656" d="M39.822,89.118a3.095,3.095,0,1,1-3.094,3.094,3.094,3.094,0,0,1,3.094-3.094" fill="#1365b5"/>
    <path id="Path_12657" data-name="Path 12657" d="M52.2,100.257a3.094,3.094,0,1,1-3.094,3.094,3.094,3.094,0,0,1,3.094-3.094" fill="#1365b5"/>
    <path id="Path_12658" data-name="Path 12658" d="M63.336,73.029a3.095,3.095,0,1,1-3.094,3.094,3.094,3.094,0,0,1,3.094-3.094" fill="#1365b5"/>
    <path id="Path_12659" data-name="Path 12659" d="M75.713,89.118a3.095,3.095,0,1,1-3.094,3.094,3.094,3.094,0,0,1,3.094-3.094" fill="#1365b5"/>
    <path id="Path_12660" data-name="Path 12660" d="M83.139,73.029a3.095,3.095,0,1,1-3.094,3.094,3.094,3.094,0,0,1,3.094-3.094" fill="#1365b5"/>
    <rect id="Rectangle_496" data-name="Rectangle 496" width="34.82" height="11.559" transform="translate(128.278 78.493)" fill="#b8d2eb"/>
    <rect id="Rectangle_497" data-name="Rectangle 497" width="34.82" height="11.559" transform="translate(128.278 78.493)" fill="none" stroke="#707070" stroke-width="1"/>
    <rect id="Rectangle_498" data-name="Rectangle 498" width="11.702" height="35.357" transform="translate(98.594 109.922)" fill="#b8d2eb"/>
    <rect id="Rectangle_499" data-name="Rectangle 499" width="11.702" height="35.357" transform="translate(98.594 109.922)" fill="none" stroke="#707070" stroke-width="1"/>
    <path id="Path_12661" data-name="Path 12661" d="M137.1,119.913c.423,1.106,1.019,19.138,1.019,19.138l3.44,1.753,3.373-1.753,6.35-4.618,5.635-6.285.9-5.873-9.159-6.784h-7.1Z" fill="#b8d2eb"/>
    <path id="Path_12662" data-name="Path 12662" d="M137.1,119.913c.423,1.106,1.019,19.138,1.019,19.138l3.44,1.753,3.373-1.753,6.35-4.618,5.635-6.285.9-5.873-9.159-6.784h-7.1Z" fill="none" stroke="#707070" stroke-width="1"/>
    <rect id="Rectangle_500" data-name="Rectangle 500" width="23.297" height="35.679" transform="translate(132.913 89.014)" fill="#b8d2eb"/>
    <rect id="Rectangle_502" data-name="Rectangle 502" width="32.577" height="25.312" transform="translate(110.297 115.492)" fill="#b8d2eb"/>
    <path id="Path_12663" data-name="Path 12663" d="M111.863,145.615v-3.646h27.571a19.7,19.7,0,0,0,19.694-19.694V91.932h3.647a1.378,1.378,0,0,0,1.458-1.459V78.511a1.377,1.377,0,0,0-1.458-1.458H128.056a1.378,1.378,0,0,0-1.459,1.458V90.473a1.378,1.378,0,0,0,1.459,1.459H131.7v22.611H111.717V110.9a1.378,1.378,0,0,0-1.459-1.458H98.3a1.377,1.377,0,0,0-1.458,1.458v34.719a1.378,1.378,0,0,0,1.458,1.459h11.962a1.5,1.5,0,0,0,1.6-1.459M129.514,79.97h31.8v9.044h-31.8ZM134.62,116V91.932h21.59v30.343a16.779,16.779,0,0,1-16.776,16.776H111.863v-21.59h21.3A1.378,1.378,0,0,0,134.62,116m-34.865-3.647H108.8v31.8H99.755Z" fill="#535353"/>
    <path id="Path_12664" data-name="Path 12664" d="M48.383,116.665H89.158c1.407,0,2.548,1.706,2.548,3.809v45.713c0,2.1-1.141,3.809-2.548,3.809H48.383c-1.407,0-2.548-1.705-2.548-3.809V120.474c0-2.1,1.141-3.809,2.548-3.809" fill="#f4f4f4"/>
    <path id="Path_12665" data-name="Path 12665" d="M48.383,116.665H89.158c1.407,0,2.548,1.706,2.548,3.809v45.713c0,2.1-1.141,3.809-2.548,3.809H48.383c-1.407,0-2.548-1.705-2.548-3.809V120.474C45.835,118.371,46.976,116.665,48.383,116.665Z" fill="none" stroke="#535353" stroke-miterlimit="10" stroke-width="2"/>
    <line id="Line_73" data-name="Line 73" x2="14.172" transform="translate(68.667 132.024)" fill="none" stroke="#a0a0a0" stroke-linecap="round" stroke-width="4"/>
    <line id="Line_74" data-name="Line 74" x2="11.239" transform="translate(68.667 144.013)" fill="none" stroke="#a0a0a0" stroke-linecap="round" stroke-width="4"/>
    <path id="Path_12666" data-name="Path 12666" d="M56.626,152.5a3.5,3.5,0,1,1-3.5,3.5,3.5,3.5,0,0,1,3.5-3.5" fill="#1365b5"/>
    <line id="Line_75" data-name="Line 75" x2="16.257" transform="translate(68.667 156.003)" fill="none" stroke="#a0a0a0" stroke-linecap="round" stroke-width="4"/>
    <path id="Path_12667" data-name="Path 12667" d="M56.626,140.424a3.5,3.5,0,1,1-3.5,3.5,3.5,3.5,0,0,1,3.5-3.5" fill="#5c97d1"/>
    <path id="Path_12668" data-name="Path 12668" d="M56.626,128.348a3.5,3.5,0,1,1-3.5,3.5,3.5,3.5,0,0,1,3.5-3.5" fill="#5c97d1"/>
    <path id="Path_12669" data-name="Path 12669" d="M150.249,149.461a2.717,2.717,0,0,0-2.449-.713l-1.178-1.137a13.64,13.64,0,1,0-2.118,2.274l1.18,1.131a2.683,2.683,0,0,0,.8,2.423l5.488,5.3a2.76,2.76,0,0,0,1.931.765,2.688,2.688,0,0,0,1.9-.832,2.723,2.723,0,0,0-.045-3.851l-.022-.021Zm-3.7-10.679a11.1,11.1,0,1,1-11.294-10.907h0a11.13,11.13,0,0,1,11.293,10.907" fill="#535353"/>
    <path id="Path_12670" data-name="Path 12670" d="M138.439,128.723l8.225,12.969L134,150.119l-8.225-12.97Z" fill="#fff"/>
    <path id="Path_12671" data-name="Path 12671" d="M136.667,151.119a11.654,11.654,0,1,0-12.81-10.369,11.653,11.653,0,0,0,12.81,10.369h0M141,133.1l-6.662,8.229-3.294-2.67-1.174,3.14,4.938,4,7.995-9.875Z" fill="#5c97d1" fill-rule="evenodd"/>
    <rect id="Rectangle_504" data-name="Rectangle 504" width="200" height="200" fill="none"/>
  </g>
</svg>
