<svg xmlns="http://www.w3.org/2000/svg" xmlns:xlink="http://www.w3.org/1999/xlink" width="200" height="200" viewBox="0 0 200 200">
  <defs>
    <clipPath id="clip-DOS_CLI">
      <rect width="200" height="200"/>
    </clipPath>
  </defs>
  <g id="DOS_CLI" data-name="DOS CLI" clip-path="url(#clip-DOS_CLI)">
    <circle id="Blue_300_Bg" data-name="Blue 300 Bg" cx="100" cy="100" r="100" transform="translate(0 -0.1)" fill="#005cb7"/>
    <g id="Group_3" transform="translate(50.868 75.508)">
      <path id="terminal" d="M25.174,24.529,3.458,46.388a2.692,2.692,0,0,1-3.739,0L-2.87,43.8a2.692,2.692,0,0,1,0-3.739l17.258-17.4L-2.87,5.258a2.692,2.692,0,0,1,0-3.739L-.281-1.07a2.692,2.692,0,0,1,3.739,0l21.86,21.86a2.569,2.569,0,0,1-.144,3.739Z" transform="translate(3.625 1.825)" fill="#b8d2eb"/>
      <path id="terminal-2" d="M58.349,32.728v-3.6A2.731,2.731,0,0,0,55.616,26.4H21.532A2.731,2.731,0,0,0,18.8,29.132v3.6a2.731,2.731,0,0,0,2.732,2.732H55.616A2.829,2.829,0,0,0,58.349,32.728Z" transform="translate(13.45 14.191)" fill="#fff"/>
    </g>
    <path id="Subtraction_10" d="M41.288,94.148a2.734,2.734,0,0,1-1.87-.719L36.83,90.84a2.692,2.692,0,0,1,0-3.739L54.088,69.7H65.736a2.734,2.734,0,0,1-.719,1.87l-21.86,21.86A3.386,3.386,0,0,1,41.288,94.148Z" transform="translate(14.805 30.538)" fill="#5c97d1"/>
    <path id="Rectangle_157" d="M34.643,42.39a8.04,8.04,0,0,0-8.054,8.054V119.9a8.04,8.04,0,0,0,8.054,8.054H150.988a8.04,8.04,0,0,0,8.054-8.054V50.443a8.04,8.04,0,0,0-8.054-8.054H34.643m0-4.89H150.988a12.889,12.889,0,0,1,12.943,12.943V119.9a12.889,12.889,0,0,1-12.943,12.943H34.643A12.889,12.889,0,0,1,21.7,119.9V50.443A13.075,13.075,0,0,1,34.643,37.5Z" transform="translate(8.507 16.43)" fill="#fff"/>
  </g>
</svg>
