<svg xmlns="http://www.w3.org/2000/svg" xmlns:xlink="http://www.w3.org/1999/xlink" width="200" height="200" viewBox="0 0 200 200">
  <defs>
    <clipPath id="clip-Data_Operating_System">
      <rect width="200" height="200"/>
    </clipPath>
  </defs>
  <g id="Data_Operating_System" data-name="Data Operating System" clip-path="url(#clip-Data_Operating_System)">
    <circle id="Ellipse_66" data-name="Ellipse 66" cx="100" cy="100" r="100" fill="#00aeff"/>
    <g id="Group_1014" data-name="Group 1014" transform="translate(-200.982 -288.39)">
      <g id="Group_1006" data-name="Group 1006" transform="translate(0 -3)">
        <path id="Union_6" data-name="Union 6" d="M-2988.017,41.323V29.753l3.846-1.162v0l.55-.166.117-.036-.1,11.327h-.014v1.606Z" transform="translate(3210.142 373.138)" fill="#efaf21" stroke="rgba(0,0,0,0)" stroke-miterlimit="10" stroke-width="1"/>
        <path id="Union_7" data-name="Union 7" d="M-2983.621,41.278l-.55-.166V30.274h.567l.1,11.039Zm-4.4-1.327V28.39h4.4v1.885h-.55V41.112Z" transform="translate(3210.142 339.005)" fill="#efaf21" stroke="rgba(0,0,0,0)" stroke-miterlimit="10" stroke-width="1"/>
        <path id="Union_5" data-name="Union 5" d="M-2954.464,73.85h0l.1-11.326-.118.035-.549.167V41.112l.549.167.118.035-.1-11.039h0l-.017-1.885c.13.392,5.614,9.22,9.737,15.829l.1.032,4.1,6.7c.185.3.3.47.3.47h-.007l.289.472h.032l-.016.026.016.026h-.032l-.289.471h.007s-.11.173-.3.47l-4.1,6.7-.1.032c-4.123,6.61-9.607,15.437-9.737,15.828Zm-33.5-28.362a113.734,113.734,0,0,1,1.284-13.936l27.805,8.4V63.886l-26.777,8.087A113.044,113.044,0,0,1-2987.965,45.489Zm29.09-5.539,3.848,1.162V62.725l-3.848,1.161Z" transform="translate(3181 339.005)" fill="#ffc22a" stroke="rgba(0,0,0,0)" stroke-miterlimit="10" stroke-width="1"/>
      </g>
      <g id="Group_1007" data-name="Group 1007" transform="translate(-2)">
        <path id="Union_4" data-name="Union 4" d="M-2988.017,32.233l2.328-3.275.333-.467,6.917,8.924-6.917-8.924.071-.1,6.858,9.016-.012.009.957,1.219-3.475,2.694Z" transform="translate(3236.773 418.599)" fill="#efaf21" stroke="rgba(0,0,0,0)" stroke-miterlimit="10" stroke-width="1"/>
        <path id="Union_3" data-name="Union 3" d="M-2988.017,31.083l3.475-2.694,1.154,1.49-.434.337.434-.337,6.741,8.7-.535.205-3.753,1.438Zm4.629-1.2.014-.01,6.842,8.663-.115.044Z" transform="translate(3215.028 391.693)" fill="#efaf21" stroke="rgba(0,0,0,0)" stroke-miterlimit="10" stroke-width="1"/>
        <path id="Union_2" data-name="Union 2" d="M-2980.495,62.419a113.884,113.884,0,0,1-7.522-11.8l27.121-10.4,3.753-1.438.535-.205,13.037,16.819-.333.468-2.328,3.275-16.211,22.8A113.091,113.091,0,0,1-2980.495,62.419Zm43.853,1.894.423-.329-.423.328L-2943.5,55.3l-.071.1-13.037-16.819.115-.044-6.842-8.663.183-.142-.184.142-1.166-1.48c.341.229,10.084,3.848,17.392,6.546l.1-.039,7.348,2.784.52.191,0,0,.516.2.026-.02,0,.031.03.012-.025.02.06.548.005,0,.056.553.862,7.809-.062.087c.791,7.75,1.864,18.087,2,18.476ZM-2936.219,63.984Z" transform="translate(3194.988 391.693)" fill="#ffc22a" stroke="rgba(0,0,0,0)" stroke-miterlimit="10" stroke-width="1"/>
      </g>
      <g id="Group_1008" data-name="Group 1008" transform="translate(-4 -1)">
        <path id="Union_10" data-name="Union 10" d="M-2985.359,41.207l-.332-.468,6.824-8.788.434.337.012.009-6.866,9.009Zm-2.658-3.746,7.084-9.072,3.473,2.7-.974,1.2-.434-.337-6.824,8.788Z" transform="translate(3236.569 287.739)" fill="#efaf21" stroke="rgba(0,0,0,0)" stroke-miterlimit="10" stroke-width="1"/>
        <path id="Union_9" data-name="Union 9" d="M-2988.017,37.52l7.09-9.13,3.751,1.443-6.647,8.559,6.647-8.559.535.206.115.044-6.851,8.657-.013-.011-1.156,1.489Z" transform="translate(3214.798 315.715)" fill="#efaf21" stroke="rgba(0,0,0,0)" stroke-miterlimit="10" stroke-width="1"/>
        <path id="Union_8" data-name="Union 8" d="M-2963.354,80.454h0l6.849-8.657-.114-.043-.535-.206,13.255-17.069.332.468.071.1,6.867-9.009h0l.969-1.27c-.137.389-1.22,10.725-2.018,18.474l.061.088-.869,7.807c-.035.349-.055.552-.055.552l-.006,0-.061.549.026.02-.029.011,0,.031-.025-.019-.518.194.005,0-.52.19-7.35,2.776-.1-.038c-7.31,2.692-17.056,6.3-17.4,6.53Zm.421.328,26.727-34.416-26.727,34.415-.076-.059ZM-2936.207,46.365Zm-24.7,23.739,14.681-18.9,2.326,3.278-13.255,17.069Zm-27.112-10.423a113.519,113.519,0,0,1,7.534-11.794,112.97,112.97,0,0,1,18.071-19.5l16.187,22.81-14.681,18.9Z" transform="translate(3194.777 274)" fill="#ffc22a" stroke="rgba(0,0,0,0)" stroke-miterlimit="10" stroke-width="1"/>
      </g>
    </g>
    <g id="Group_1015" data-name="Group 1015" transform="translate(86.04 14)">
      <path id="Path_12541" data-name="Path 12541" d="M49.839,148.4l5.943-5.943-2.468-3.788a30.232,30.232,0,0,0,1.842-3.267l4.379.209,2.19-8.1-4.032-2.051a33.111,33.111,0,0,0-.035-3.719l3.927-2.016-2.155-8.1-4.518.243A25.064,25.064,0,0,0,53,108.67l2.4-3.684-6.047-5.978-3.788,2.468A30.231,30.231,0,0,0,42.3,99.634l.209-4.379-8.1-2.155-2.051,4.032a33.111,33.111,0,0,0-3.719.035l-2.016-3.927-8.1,2.155.243,4.518a22.865,22.865,0,0,0-3.2,1.912l-3.684-2.4L5.908,105.4l2.468,3.788a30.232,30.232,0,0,0-1.842,3.267l-4.379-.209L0,120.383l4.032,2.051a26.513,26.513,0,0,0,.035,3.719L.174,128.168l2.155,8.1,4.518-.243a22.865,22.865,0,0,0,1.912,3.2L6.36,142.9l5.943,5.943,3.788-2.468a30.233,30.233,0,0,0,3.267,1.842L19.15,152.6l8.1,2.19,2.051-4.032a33.111,33.111,0,0,0,3.719-.035l2.016,3.893,8.1-2.155-.243-4.518a22.865,22.865,0,0,0,3.2-1.912Z" transform="translate(3.097 -89.553)" fill="#318bc9"/>
      <path id="Path_93" data-name="Path 93" d="M47.98,118.7a22.33,22.33,0,1,0,15.806,6.542A22.288,22.288,0,0,0,47.98,118.7Z" transform="translate(-16.58 -109.648)" fill="#f7f8fc"/>
      <g id="Group_117" data-name="Group 117">
        <path id="Path_110" data-name="Path 110" d="M50.706,149.358l6.047-6.047-2.511-3.854a30.76,30.76,0,0,0,1.874-3.324l4.455.212,2.228-8.239-4.1-2.086a33.687,33.687,0,0,0-.035-3.784l4-2.051-2.192-8.239-4.6.248a25.5,25.5,0,0,0-1.945-3.253l2.44-3.748-6.153-6.082-3.854,2.511a30.758,30.758,0,0,0-3.324-1.874l.212-4.455L35.007,93.1,32.92,97.2a33.687,33.687,0,0,0-3.784.035l-2.051-4-8.239,2.192.248,4.6a23.264,23.264,0,0,0-3.253,1.945l-3.748-2.44-6.082,6.082,2.511,3.854A30.757,30.757,0,0,0,6.648,112.8l-4.455-.212L0,120.858l4.1,2.086a26.974,26.974,0,0,0,.035,3.784l-3.96,2.051,2.192,8.239,4.6-.248a23.263,23.263,0,0,0,1.945,3.253l-2.44,3.748,6.047,6.047,3.854-2.511a30.76,30.76,0,0,0,3.324,1.874l-.212,4.455,8.239,2.228,2.086-4.1a33.685,33.685,0,0,0,3.784-.035l2.051,3.96,8.239-2.192-.248-4.6a23.264,23.264,0,0,0,3.253-1.945Zm-4.349-9.9a21.178,21.178,0,1,1,0-29.95A21.171,21.171,0,0,1,46.357,139.457Z" transform="translate(0 -93.1)" fill="#30363d"/>
        <g id="Group_116" data-name="Group 116" transform="translate(7.01 7.001)">
          <path id="Path_113" data-name="Path 113" d="M44.215,161.662A24.381,24.381,0,1,1,61.4,154.519,24.066,24.066,0,0,1,44.215,161.662Zm0-46.711a22.33,22.33,0,1,0,15.806,6.542A22.288,22.288,0,0,0,44.215,114.951Z" transform="translate(-19.825 -112.9)" fill="#c2c1c0"/>
        </g>
      </g>
      <path id="Path_12536" data-name="Path 12536" d="M307.731,332.207a2.745,2.745,0,0,1,2.982,2.406,2.442,2.442,0,0,0,4.772,0c-.012-2.7-2.178-5.091-5.368-5.919v-1.3a2.442,2.442,0,0,0-4.772,0v1.3c-4.065,1.056-6.3,4.569-4.99,7.847,1.031,2.581,4.013,4.329,7.376,4.324a2.461,2.461,0,1,1-2.982,2.4,2.442,2.442,0,0,0-4.772,0c.012,2.7,2.178,5.091,5.368,5.919v1.3a2.441,2.441,0,0,0,4.772,0v-1.3c4.065-1.056,6.3-4.569,4.99-7.847-1.031-2.581-4.013-4.329-7.376-4.324a2.461,2.461,0,1,1,0-4.811Z" transform="translate(-276.331 -307.559)" fill="#ef4767"/>
    </g>
    <g id="Group_1016" data-name="Group 1016" transform="translate(43.401 64.221)">
      <path id="Path_12542" data-name="Path 12542" d="M58.022,157.475l6.919-6.919-2.873-4.41a35.2,35.2,0,0,0,2.144-3.8l5.1.243,2.549-9.428-4.694-2.387a38.545,38.545,0,0,0-.04-4.329l4.572-2.347-2.509-9.428-5.26.283a29.179,29.179,0,0,0-2.225-3.722l2.792-4.289-7.04-6.959-4.41,2.873a35.2,35.2,0,0,0-3.8-2.144l.243-5.1L40.057,93.1,37.67,97.794a38.547,38.547,0,0,0-4.329.04l-2.347-4.572L21.566,95.77l.283,5.26a26.619,26.619,0,0,0-3.722,2.225l-4.289-2.792-6.959,6.959,2.873,4.41a35.2,35.2,0,0,0-2.144,3.8l-5.1-.243L0,124.862l4.694,2.387a30.866,30.866,0,0,0,.04,4.329L.2,133.926l2.509,9.428,5.26-.283a26.619,26.619,0,0,0,2.225,3.722L7.4,151.082,14.323,158l4.41-2.873a35.2,35.2,0,0,0,3.8,2.144l-.243,5.1,9.428,2.549,2.387-4.694a38.551,38.551,0,0,0,4.329-.04l2.347,4.532,9.428-2.509-.283-5.26a26.619,26.619,0,0,0,3.722-2.225Z" transform="translate(3.736 -89.774)" fill="#318bc9"/>
      <path id="Path_12528" data-name="Path 12528" d="M387.164,359.337l-25.4-.019a.876.876,0,0,0-.6,1.5l7.394,7.4L343.138,393.6a.913.913,0,0,1-1.2,0L325.151,376.79a.913.913,0,0,0-1.2,0l-31.725,31.676a.914.914,0,0,0,0,1.2l8.394,8.406a.913.913,0,0,0,1.2,0l22.117-22.083a.912.912,0,0,1,1.2,0L341.923,412.8a.912.912,0,0,0,1.2,0l35.027-34.973,7.394,7.406a.886.886,0,0,0,1.5-.6l.018-24.4C387.064,359.738,387.664,359.337,387.164,359.337Z" transform="translate(-242.383 -350.611)" fill="#318ac8"/>
      <path id="Path_12537" data-name="Path 12537" d="M386.164,359.337l-24.4-.019a.876.876,0,0,0-.6,1.5l7.394,7.4L343.138,393.6a.913.913,0,0,1-1.2,0L325.151,376.79a.913.913,0,0,0-1.2,0l-31.725,31.676a.914.914,0,0,0,0,1.2l8.394,8.406a.913.913,0,0,0,1.2,0l22.117-22.083a.912.912,0,0,1,1.2,0L341.923,412.8a.912.912,0,0,0,1.2,0l35.027-34.973,7.394,7.406a.886.886,0,0,0,1.5-.6l.018-24.4A.9.9,0,0,0,386.164,359.337Z" transform="translate(-246.383 -354.611)" fill="#faa32f"/>
      <path id="Path_93-2" data-name="Path 93" d="M51.109,118.7a25.459,25.459,0,1,0,18.021,7.458A25.411,25.411,0,0,0,51.109,118.7Z" transform="translate(-15.309 -108.379)" fill="#f7f8fc"/>
      <g id="Group_117-2" data-name="Group 117">
        <path id="Path_110-2" data-name="Path 110" d="M57.811,157.241l6.894-6.894-2.862-4.394a35.069,35.069,0,0,0,2.137-3.79l5.08.242,2.54-9.393-4.677-2.379a38.407,38.407,0,0,0-.04-4.314l4.556-2.338-2.5-9.393-5.241.282a29.073,29.073,0,0,0-2.217-3.709l2.782-4.273-7.015-6.934-4.394,2.862a35.068,35.068,0,0,0-3.79-2.137l.242-5.08-9.393-2.5-2.379,4.677a38.407,38.407,0,0,0-4.314.04l-2.338-4.556-9.393,2.5L21.77,101a26.523,26.523,0,0,0-3.709,2.217l-4.273-2.782-6.934,6.934,2.862,4.394a35.068,35.068,0,0,0-2.137,3.79l-5.08-.242L0,124.747l4.677,2.379a30.754,30.754,0,0,0,.04,4.314L.2,133.778l2.5,9.393,5.241-.282a26.522,26.522,0,0,0,2.217,3.709l-2.782,4.273,6.894,6.894,4.394-2.862a35.072,35.072,0,0,0,3.79,2.137l-.242,5.08,9.393,2.54,2.379-4.677a38.409,38.409,0,0,0,4.314-.04l2.338,4.515,9.393-2.5-.282-5.241a26.523,26.523,0,0,0,3.709-2.217Zm-4.959-11.288a24.145,24.145,0,1,1,0-34.147A24.138,24.138,0,0,1,52.853,145.953Z" transform="translate(0 -93.1)" fill="#30363d"/>
        <g id="Group_116-2" data-name="Group 116" transform="translate(7.992 7.982)">
          <path id="Path_113-2" data-name="Path 113" d="M47.632,168.494a27.8,27.8,0,1,1,19.593-8.144A27.438,27.438,0,0,1,47.632,168.494Zm0-53.256A25.459,25.459,0,1,0,65.653,122.7,25.411,25.411,0,0,0,47.632,115.238Z" transform="translate(-19.825 -112.9)" fill="#c2c1c0"/>
        </g>
      </g>
      <g id="Group_1018" data-name="Group 1018" transform="translate(-247.213 -353.136)">
        <path id="Path_12530" data-name="Path 12530" d="M293.968,384.361h-6.4v-6.4a1.2,1.2,0,0,0-1.194-1.194h-6.719a1.2,1.2,0,0,0-1.194,1.194v6.4h-6.4a1.194,1.194,0,0,0-1.193,1.194v6.721a1.193,1.193,0,0,0,1.193,1.194h6.4v6.4a1.194,1.194,0,0,0,1.194,1.193h6.719a1.194,1.194,0,0,0,1.194-1.193v-6.4h6.4a1.193,1.193,0,0,0,1.193-1.194v-6.722A1.194,1.194,0,0,0,293.968,384.361Zm-1.194,6.722h-6.4a1.193,1.193,0,0,0-1.194,1.193v6.4h-4.332v-6.4a1.194,1.194,0,0,0-1.193-1.194h-6.4v-4.334h6.4a1.194,1.194,0,0,0,1.194-1.194v-6.4h4.331v6.4a1.194,1.194,0,0,0,1.195,1.194h6.4v4.334Z" fill="#04658e"/>
        <rect id="Rectangle_386" data-name="Rectangle 386" width="21.553" height="6.08" transform="translate(272.416 385.713)" fill="#04658e"/>
        <rect id="Rectangle_387" data-name="Rectangle 387" width="6.723" height="21.256" transform="translate(280.078 378.595)" fill="#04658e"/>
      </g>
    </g>
    <g id="Group_1017" data-name="Group 1017" transform="translate(88.137 122.546)">
      <path id="Path_12540" data-name="Path 12540" d="M49.839,148.4l5.943-5.943-2.468-3.788a30.232,30.232,0,0,0,1.842-3.267l4.379.209,2.19-8.1-4.032-2.051a33.111,33.111,0,0,0-.035-3.719l3.927-2.016-2.155-8.1-4.518.243A25.064,25.064,0,0,0,53,108.67l2.4-3.684-6.047-5.978-3.788,2.468A30.231,30.231,0,0,0,42.3,99.634l.209-4.379-8.1-2.155-2.051,4.032a33.111,33.111,0,0,0-3.719.035l-2.016-3.927-8.1,2.155.243,4.518a22.865,22.865,0,0,0-3.2,1.912l-3.684-2.4L5.908,105.4l2.468,3.788a30.232,30.232,0,0,0-1.842,3.267l-4.379-.209L0,120.383l4.032,2.051a26.513,26.513,0,0,0,.035,3.719L.174,128.168l2.155,8.1,4.518-.243a22.865,22.865,0,0,0,1.912,3.2L6.36,142.9l5.943,5.943,3.788-2.468a30.233,30.233,0,0,0,3.267,1.842L19.15,152.6l8.1,2.19,2.051-4.032a33.111,33.111,0,0,0,3.719-.035l2.016,3.893,8.1-2.155-.243-4.518a22.865,22.865,0,0,0,3.2-1.912Z" transform="translate(2 -90.1)" fill="#318bc9"/>
      <path id="Path_93-3" data-name="Path 93" d="M47.6,118.7a21.948,21.948,0,1,0,15.536,6.43A21.907,21.907,0,0,0,47.6,118.7Z" transform="translate(-16.735 -109.803)" fill="#f7f8fc"/>
      <g id="Group_117-3" data-name="Group 117">
        <path id="Path_110-3" data-name="Path 110" d="M49.839,148.4l5.943-5.943-2.468-3.788a30.232,30.232,0,0,0,1.842-3.267l4.379.209,2.19-8.1-4.032-2.051a33.111,33.111,0,0,0-.035-3.719l3.927-2.016-2.155-8.1-4.518.243A25.064,25.064,0,0,0,53,108.67l2.4-3.684-6.047-5.978-3.788,2.468A30.231,30.231,0,0,0,42.3,99.634l.209-4.379-8.1-2.155-2.051,4.032a33.111,33.111,0,0,0-3.719.035l-2.016-3.927-8.1,2.155.243,4.518a22.865,22.865,0,0,0-3.2,1.912l-3.684-2.4L5.908,105.4l2.468,3.788a30.232,30.232,0,0,0-1.842,3.267l-4.379-.209L0,120.383l4.032,2.051a26.513,26.513,0,0,0,.035,3.719L.174,128.168l2.155,8.1,4.518-.243a22.865,22.865,0,0,0,1.912,3.2L6.36,142.9l5.943,5.943,3.788-2.468a30.233,30.233,0,0,0,3.267,1.842L19.15,152.6l8.1,2.19,2.051-4.032a33.111,33.111,0,0,0,3.719-.035l2.016,3.893,8.1-2.155-.243-4.518a22.865,22.865,0,0,0,3.2-1.912Zm-4.275-9.732a20.816,20.816,0,1,1,0-29.438A20.809,20.809,0,0,1,45.564,138.664Z" transform="translate(0 -93.1)" fill="#30363d"/>
        <g id="Group_116-3" data-name="Group 116" transform="translate(6.89 6.882)">
          <path id="Path_113-3" data-name="Path 113" d="M43.8,160.828a23.964,23.964,0,1,1,16.891-7.021A23.655,23.655,0,0,1,43.8,160.828Zm0-45.912a21.948,21.948,0,1,0,15.536,6.43A21.907,21.907,0,0,0,43.8,114.916Z" transform="translate(-19.825 -112.9)" fill="#c2c1c0"/>
        </g>
      </g>
      <g id="Group_1012" data-name="Group 1012" transform="translate(-275.011 -405.683)">
        <path id="Path_12531" data-name="Path 12531" d="M316.717,429.008a6.979,6.979,0,0,0-9.854,0l-.977,1-1-1h0a6.968,6.968,0,1,0-9.854,9.854h0l10.859,10.858,10.858-10.858h0A7,7,0,0,0,316.717,429.008Z" transform="translate(0 0)" fill="#ef4767"/>
      </g>
    </g>
  </g>
</svg>
