<svg xmlns="http://www.w3.org/2000/svg" xmlns:xlink="http://www.w3.org/1999/xlink" width="200" height="200" viewBox="0 0 200 200">
  <defs>
    <linearGradient id="linear-gradient" x1="0.5" x2="0.5" y2="1" gradientUnits="objectBoundingBox">
      <stop offset="0" stop-color="#017bb5"/>
      <stop offset="1" stop-color="#052331" stop-opacity="0"/>
    </linearGradient>
    <clipPath id="clip-eMeasures">
      <rect width="200" height="200"/>
    </clipPath>
  </defs>
  <g id="eMeasures" clip-path="url(#clip-eMeasures)">
    <g id="Unofficial_jake_made_e_measures_icon" data-name="Unofficial jake made e measures icon" transform="translate(-6720 -5296)">
      <circle id="Ellipse_25" data-name="Ellipse 25" cx="100" cy="100" r="100" transform="translate(6720 5296)" fill="#00aeff"/>
      <path id="Path_12137" data-name="Path 12137" d="M95.409.056S147,56.545,147,67.076,142.271,112.6,116.926,137.9s-62.937,27.065-62.937,27.065L0,130.574Z" transform="translate(6773.333 5330.759)" fill="url(#linear-gradient)"/>
      <rect id="Rectangle_264" data-name="Rectangle 264" width="50.667" height="130.667" transform="translate(6773.333 5330.667)" fill="#fff"/>
      <rect id="Rectangle_263" data-name="Rectangle 263" width="48" height="130.667" transform="translate(6821.333 5330.667)" fill="#e0f8ff"/>
      <rect id="Rectangle_265" data-name="Rectangle 265" width="48" height="8" transform="translate(6773.333 5453.333)" fill="#82e1fa"/>
      <rect id="Rectangle_268" data-name="Rectangle 268" width="48" height="8" transform="translate(6821.333 5453.333)" fill="#80e5ff"/>
      <rect id="Rectangle_266" data-name="Rectangle 266" width="48" height="8" transform="translate(6773.333 5445.333)" fill="#c4f3ff"/>
      <rect id="Rectangle_267" data-name="Rectangle 267" width="48" height="8" transform="translate(6821.333 5445.333)" fill="#adeeff"/>
      <rect id="Rectangle_275" data-name="Rectangle 275" width="41.422" height="8" transform="translate(6809.245 5397.333)" fill="#727d8d"/>
      <rect id="Rectangle_273" data-name="Rectangle 273" width="41.422" height="8" transform="translate(6809.245 5349.333)" fill="#727d8d"/>
      <rect id="Rectangle_274" data-name="Rectangle 274" width="41.422" height="8" transform="translate(6809.245 5373.333)" fill="#727d8d"/>
      <rect id="Rectangle_272" data-name="Rectangle 272" width="26.667" height="15.297" transform="translate(6794.667 5322.667)" fill="#ff9d27"/>
      <rect id="Rectangle_276" data-name="Rectangle 276" width="26.667" height="15.297" transform="translate(6821.333 5322.667)" fill="#e58b22"/>
      <path id="Path_636" data-name="Path 636" d="M25.839,9a2.5,2.5,0,0,0-1.7.793l-7.8,8.125-2.991-3.117a2.513,2.513,0,1,0-3.654,3.453l.03.03,4.8,5.009a2.511,2.511,0,0,0,3.548.075l.075-.075L27.751,13.27A2.51,2.51,0,0,0,25.839,9Z" transform="translate(6771.998 5336.933)" fill="#00a859"/>
      <path id="Path_12138" data-name="Path 12138" d="M25.839,9a2.5,2.5,0,0,0-1.7.793l-7.8,8.125-2.991-3.117a2.513,2.513,0,1,0-3.654,3.453l.03.03,4.8,5.009a2.511,2.511,0,0,0,3.548.075l.075-.075L27.751,13.27A2.51,2.51,0,0,0,25.839,9Z" transform="translate(6771.998 5359.933)" fill="#00a859"/>
      <path id="Path_12139" data-name="Path 12139" d="M25.839,9a2.5,2.5,0,0,0-1.7.793l-7.8,8.125-2.991-3.117a2.513,2.513,0,1,0-3.654,3.453l.03.03,4.8,5.009a2.511,2.511,0,0,0,3.548.075l.075-.075L27.751,13.27A2.51,2.51,0,0,0,25.839,9Z" transform="translate(6771.998 5384.933)" fill="#00a859"/>
    </g>
  </g>
</svg>
