<svg xmlns="http://www.w3.org/2000/svg" xmlns:xlink="http://www.w3.org/1999/xlink" width="200" height="200" viewBox="0 0 200 200">
  <defs>
    <clipPath id="clip-HCI_Grid">
      <rect width="200" height="200"/>
    </clipPath>
  </defs>
  <g id="HCI_Grid" data-name="HCI Grid" clip-path="url(#clip-HCI_Grid)">
    <circle id="Blue_300_Bg" data-name="Blue 300 Bg" cx="100" cy="100" r="100" transform="translate(0 -0.1)" fill="#005cb7"/>
    <path id="Path_12185" data-name="Path 12185" d="M144.293,68.106a12.829,12.829,0,0,0-14.738-10.641,12.647,12.647,0,0,0-7.094,3.669l-16.634-8.378a11.952,11.952,0,0,0-.061-3.3A12.829,12.829,0,0,0,91.027,38.813a9.775,9.775,0,0,0-1.284.306L79.407,23.769a12.789,12.789,0,1,0-7.95,4.709c.673-.122,1.345-.306,2.018-.489L83.566,42.849a12.854,12.854,0,0,0-3.119,10.4l-15.9,9.662a12.866,12.866,0,0,0-18.9.367l-19.264-10.7a11.647,11.647,0,0,0,.122-4.831,12.79,12.79,0,1,0-3.669,11.252L42.531,69.941a12.037,12.037,0,0,0,.061,3.914A12.829,12.829,0,0,0,57.33,84.5c.428-.061.8-.183,1.223-.245L69.5,100.4a12.85,12.85,0,1,0,7.339-3.914c-.306.061-.673.122-.978.183L64.852,80.4a13,13,0,0,0,3.18-10.641c0-.061-.061-.183-.061-.245l15.656-9.54a12.761,12.761,0,0,0,19.508-.428L119.1,67.617a12.775,12.775,0,0,0,14.616,15.228A12.942,12.942,0,0,0,144.293,68.106Z" transform="translate(26.605 38.251)" fill="#0a698c"/>
    <g id="Group_521" data-name="Group 521" transform="translate(27 39.393)">
      <g id="Group_508" data-name="Group 508" transform="translate(11.069 12.659)">
        <path id="Path_12186" data-name="Path 12186" d="M136.14,57.026h0L140.6,56.6,116.325,20.7l-4.525.183Z" transform="translate(-54.498 -20.7)" fill="#fff"/>
        <path id="Path_12187" data-name="Path 12187" d="M133.537,57.142,109.2,21l-4.1.183,2.324,3.425,22.2,32.84v.122Z" transform="translate(-51.895 -20.817)" fill="#e6e7e8"/>
        <path id="Path_12188" data-name="Path 12188" d="M110.54,147.226h0L115,146.8,90.725,110.9l-4.525.183Z" transform="translate(-44.554 -55.738)" fill="#fff"/>
        <path id="Path_12189" data-name="Path 12189" d="M107.937,147.342,83.6,111.2l-4.1.183,2.324,3.425,22.26,32.84-.061.122Z" transform="translate(-41.951 -55.855)" fill="#e6e7e8"/>
        <path id="Path_12190" data-name="Path 12190" d="M62.524,97.719V93.193l-.183.122L22.773,71.3,21,74.541Z" transform="translate(-19.227 -40.356)" fill="#e6e7e8"/>
        <path id="Path_12191" data-name="Path 12191" d="M188.6,94.295l1.773-3.425L149.4,70.2l.245,4.525Z" transform="translate(-69.104 -39.928)" fill="#e6e7e8"/>
        <path id="Path_12192" data-name="Path 12192" d="M126.143,74.725h0L125.9,70.2l-37,22.566v4.525Z" transform="translate(-45.602 -39.928)" fill="#fff"/>
        <path id="Path_12193" data-name="Path 12193" d="M61.4,99.778h0L19.873,76.6,18.1,79.78l43.3,24.095Z" transform="translate(-18.1 -42.414)" fill="#fff"/>
        <path id="Path_12194" data-name="Path 12194" d="M188.756,97.17,149.8,77.6l.245,3.975,37.182,18.713Z" transform="translate(-69.259 -42.803)" fill="#fff"/>
        <path id="Path_12195" data-name="Path 12195" d="M126.143,77.6,88.9,100.166v4.1l3.486-2.14,33.88-20.609.122.061Z" transform="translate(-45.602 -42.803)" fill="#e6e7e8"/>
      </g>
      <g id="Group_510" data-name="Group 510" transform="translate(0 34.002)">
        <g id="Group_509" data-name="Group 509">
          <circle id="Ellipse_92" data-name="Ellipse 92" cx="12.843" cy="12.843" r="12.843" fill="#5c97d1"/>
        </g>
        <path id="Path_12196" data-name="Path 12196" d="M5.04,74.331A11.515,11.515,0,0,1,23.387,63.385,11.5,11.5,0,0,0,2.411,71.518,11.641,11.641,0,0,0,6.753,78.8,13.559,13.559,0,0,1,5.04,74.331Z" transform="translate(-0.882 -56.597)" fill="#317cc5"/>
        <ellipse id="Ellipse_93" data-name="Ellipse 93" cx="3.975" cy="1.101" rx="3.975" ry="1.101" transform="matrix(0.722, -0.692, 0.692, 0.722, 14.981, 21.103)" fill="#fff"/>
      </g>
      <g id="Group_512" data-name="Group 512" transform="translate(41.341 55.957)">
        <g id="Group_511" data-name="Group 511">
          <circle id="Ellipse_94" data-name="Ellipse 94" cx="12.843" cy="12.843" r="12.843" fill="#fff"/>
        </g>
        <path id="Path_12197" data-name="Path 12197" d="M72.741,110.331A11.515,11.515,0,0,1,91.088,99.385a11.484,11.484,0,1,0-16.634,15.35A10.712,10.712,0,0,1,72.741,110.331Z" transform="translate(-68.521 -92.535)" fill="#cdd5d7"/>
      </g>
      <g id="Group_514" data-name="Group 514" transform="translate(55.529)">
        <g id="Group_513" data-name="Group 513">
          <circle id="Ellipse_95" data-name="Ellipse 95" cx="12.843" cy="12.843" r="12.843" fill="#fff"/>
        </g>
        <path id="Path_12198" data-name="Path 12198" d="M95.84,18.731A11.515,11.515,0,0,1,114.187,7.785,11.5,11.5,0,1,0,97.553,23.2,10.977,10.977,0,0,1,95.84,18.731Z" transform="translate(-91.682 -0.997)" fill="#cdd5d7"/>
      </g>
      <g id="Group_516" data-name="Group 516" transform="translate(79.257 35.592)">
        <g id="Group_515" data-name="Group 515">
          <circle id="Ellipse_96" data-name="Ellipse 96" cx="12.843" cy="12.843" r="12.843" fill="#5c97d1"/>
        </g>
        <path id="Path_12199" data-name="Path 12199" d="M134.641,77.031a11.515,11.515,0,0,1,18.346-10.947,11.484,11.484,0,1,0-16.634,15.35A10.712,10.712,0,0,1,134.641,77.031Z" transform="translate(-130.483 -59.235)" fill="#317cc5"/>
      </g>
      <g id="Group_518" data-name="Group 518" transform="translate(64.946 93.322)">
        <g id="Group_517" data-name="Group 517">
          <circle id="Ellipse_97" data-name="Ellipse 97" cx="12.843" cy="12.843" r="12.843" fill="#5c97d1"/>
        </g>
        <path id="Path_12200" data-name="Path 12200" d="M111.241,171.431a11.515,11.515,0,0,1,18.346-10.947,11.484,11.484,0,1,0-16.634,15.35A11.055,11.055,0,0,1,111.241,171.431Z" transform="translate(-107.083 -153.635)" fill="#317cc5"/>
      </g>
      <g id="Group_520" data-name="Group 520" transform="translate(117.723 54.305)">
        <g id="Group_519" data-name="Group 519">
          <circle id="Ellipse_98" data-name="Ellipse 98" cx="12.843" cy="12.843" r="12.843" fill="#fff"/>
        </g>
        <path id="Path_12201" data-name="Path 12201" d="M197.641,107.631a11.515,11.515,0,0,1,18.346-10.947,11.484,11.484,0,1,0-16.634,15.35A11.055,11.055,0,0,1,197.641,107.631Z" transform="translate(-193.421 -89.835)" fill="#cdd5d7"/>
      </g>
      <path id="Path_12202" data-name="Path 12202" d="M88.9,114.5Z" transform="translate(-34.533 -44.478)" fill="#e6e7e8"/>
      <ellipse id="Ellipse_99" data-name="Ellipse 99" cx="3.975" cy="1.101" rx="3.975" ry="1.101" transform="matrix(0.722, -0.692, 0.692, 0.722, 95.114, 56.935)" fill="#fff"/>
      <ellipse id="Ellipse_100" data-name="Ellipse 100" cx="3.975" cy="1.101" rx="3.975" ry="1.101" transform="matrix(0.722, -0.692, 0.692, 0.722, 79.167, 115.556)" fill="#fff"/>
    </g>
  </g>
</svg>
