<svg xmlns="http://www.w3.org/2000/svg" xmlns:xlink="http://www.w3.org/1999/xlink" width="200" height="200" viewBox="0 0 200 200">
  <defs>
    <clipPath id="clip-path">
      <circle id="Ellipse_40" data-name="Ellipse 40" cx="100.5" cy="100.5" r="100.5" transform="translate(4 25)"/>
    </clipPath>
    <linearGradient id="linear-gradient" x1="0.119" y1="0.174" x2="0.46" y2="0.569" gradientUnits="objectBoundingBox">
      <stop offset="0" stop-color="#00455f"/>
      <stop offset="0.37" stop-color="#006d93" stop-opacity="0.631"/>
      <stop offset="1" stop-color="#00aeef" stop-opacity="0.8"/>
    </linearGradient>
    <clipPath id="clip-healthcare.ai">
      <rect width="200" height="200"/>
    </clipPath>
  </defs>
  <g id="healthcare.ai" clip-path="url(#clip-healthcare.ai)">
    <g id="Group_977" data-name="Group 977">
      <circle id="Ellipse_164" data-name="Ellipse 164" cx="100" cy="100" r="100" fill="#00aeff"/>
      <g id="Group_974" data-name="Group 974" transform="translate(-5 -26)">
        <g id="Group_79" data-name="Group 79" clip-path="url(#clip-path)">
          <path id="Path_84" data-name="Path 84" d="M310.089,248.221,168.2,134.4l-25.647-22.148-47.951,4v96.314l93.235,97.283C186.255,315.052,310.279,248.348,310.089,248.221Z" transform="translate(-36.044 -36.886)" opacity="0.8" fill="url(#linear-gradient)"/>
        </g>
      </g>
      <g id="Group_975" data-name="Group 975" transform="translate(39.231 38.653)">
        <path id="Path_12388" data-name="Path 12388" d="M15.779,19.656H63.962V15.684H60.244l-.053-10.5L56.814,5.2l.053,10.481H44.912l-.053-10.5L41.482,5.2l.053,10.481H29.579l-.053-10.5L26.149,5.2,26.2,15.684H14.091A1.689,1.689,0,0,0,12.4,17.373v9.454L1.708,26.88l.016,3.377L12.4,30.2V42.16l-10.694.053.016,3.377L12.4,45.538V57.492l-10.694.053.016,3.377L12.4,60.869V72.825l-10.694.053.016,3.377L12.4,76.2V88.157l-10.694.054.016,3.377L12.4,91.534V103.49l-10.694.05.016,3.377,10.678-.05v10.1a1.689,1.689,0,0,0,1.689,1.689H26.163l.042,8.411,3.377-.015-.042-8.4H41.495l.043,8.412,3.377-.016-.043-8.4H56.828l.042,8.412,3.377-.016-.042-8.4h3.757v-3.97H15.779Z" transform="translate(-1.708 -5.189)" fill="#fff"/>
        <path id="Path_12389" data-name="Path 12389" d="M53.752,75.331a5.138,5.138,0,1,0-3.377,0l.047,21.435H38.557V84.777a5.154,5.154,0,1,0-3.377.084V96.767H23.444V57.584H34.427v3.979a5.132,5.132,0,1,0,3.377.027V54.207H23.442V25.261H50.429v10.96H43.34A5.146,5.146,0,1,0,43.4,39.6H53.8V25.261h3.72V21.884H21.754a1.689,1.689,0,0,0-1.689,1.689V98.455a1.689,1.689,0,0,0,1.689,1.689H57.525V96.767H53.8ZM36.07,64.643a1.76,1.76,0,1,1-1.76,1.759A1.735,1.735,0,0,1,36.07,64.643ZM38.547,39.77A1.76,1.76,0,1,1,40.3,38.01,1.735,1.735,0,0,1,38.547,39.77ZM36.729,81.754a1.76,1.76,0,1,1,1.76-1.76A1.736,1.736,0,0,1,36.729,81.754Zm15.333-9.489a1.76,1.76,0,1,1,1.76-1.76A1.735,1.735,0,0,1,52.062,72.265Z" transform="translate(4.734 0.67)" fill="#fff"/>
      </g>
      <rect id="Rectangle_370" data-name="Rectangle 370" width="5" height="16" transform="translate(37.5 95) rotate(-90)" fill="#fadb3f"/>
      <rect id="Rectangle_371" data-name="Rectangle 371" width="5" height="16" transform="translate(37.5 110) rotate(-90)" fill="#fadb3f"/>
      <rect id="Rectangle_372" data-name="Rectangle 372" width="5" height="16" transform="translate(37.5 126) rotate(-90)" fill="#fadb3f"/>
      <rect id="Rectangle_373" data-name="Rectangle 373" width="5" height="16" transform="translate(37.5 141) rotate(-90)" fill="#fadb3f"/>
      <g id="Ellipse_172" data-name="Ellipse 172" transform="translate(90 104)" fill="#fedb40" stroke="#fff" stroke-width="3">
        <circle cx="5.5" cy="5.5" r="5.5" stroke="none"/>
        <circle cx="5.5" cy="5.5" r="4" fill="none"/>
      </g>
      <line id="Line_6" data-name="Line 6" x2="49" transform="translate(52.5 147.5)" fill="none" stroke="#fff" stroke-width="3"/>
      <line id="Line_10" data-name="Line 10" x2="40" transform="translate(61.5 138.5)" fill="none" stroke="#fff" stroke-width="3"/>
      <line id="Line_13" data-name="Line 13" x2="36" transform="translate(65.5 136)" fill="none" stroke="#fff" stroke-width="3"/>
      <g id="Group_976" data-name="Group 976" transform="translate(-164 -4955)">
        <path id="Path_12439" data-name="Path 12439" d="M24.8,3882.548l-4.429,3.3-2.024,7.146v9.353l2.024,4.746,2.572,3.828-2.572,3.251-2.024,7.482v31.237l2.024,4.833,4.429,4.1L20.37,3965.1l-2.024,6.309v26.016l3.08,5.054,5.266,2.918h4.922l5.241-4.283,1.086-1.207,2.859,1.207h6.461l5.815-3.689,2.457-8.33,4.777,1.41,5.772-1.41,4.792-3.493,3.538-5.207v-8.986l-3.538-3.531,3.538-2.777,4.368-7.378,1.2-5.971-1.2-7.987-6.237-7.041-1.669-1.639,1.669-5.066v-6.1l-3.844-6.433-4.566-3.315H61.4l1.131-7.079-2.224-10.023-4.777-4.075-5.278-3.3H45.5l-3.854,3.3H39.177v-3.3l-3.1-5.637-4.533-2.635H27.313Z" transform="translate(253.126 1112.235)" fill="#f89d26"/>
        <path id="Path_12440" data-name="Path 12440" d="M-35.99,77.185c4.516-9.276,1.913-20.61-5.858-26.52a16.617,16.617,0,0,0,1.514-6.907c0-7.638-5.117-14.111-11.945-15.389a18.425,18.425,0,0,0-5.411-21A15.121,15.121,0,0,0-69.8,4.307a15.5,15.5,0,0,0-4.468,1.533c-.147.077-.285.174-.43.257C-75.489-.068-80.365-4.948-86.4-4.948h0C-92.892-4.947-98.047.7-98.22,7.52c-.005.057-.008.113-.008.169V7.7c0,.057-.008.112-.008.169s0,.122.008.182v.005l-.015,8.172a1.6,1.6,0,0,0,.031.35,16.322,16.322,0,0,0,3.662,9.9,16.31,16.31,0,0,0-3.718,10.3,1.761,1.761,0,0,0-.016.239l-.055,29.228V66.5a1.743,1.743,0,0,0,.024.29V66.8a16.192,16.192,0,0,0,4.532,11.1,16.288,16.288,0,0,0-4.593,11.491v0c0,.045-.005.091-.005.135l-.039,20.691a1.216,1.216,0,0,0,0,.122c0,.022,0,.042,0,.063v.155a1.593,1.593,0,0,0,.02.277v0c.245,6.753,5.367,12.317,11.813,12.317a11.069,11.069,0,0,0,1.223-.066,11.42,11.42,0,0,0,7.171-3.726,12.577,12.577,0,0,0,1.287-1.681,12.709,12.709,0,0,0,2.078.8c7.286,2.025,14.675-2.871,16.469-10.636.051-.224.081-.45.123-.675A14.356,14.356,0,0,0-40.9,100.078a17.185,17.185,0,0,0-.063-16.4A20.2,20.2,0,0,0-35.99,77.185ZM-94.858,15.938c0-.055,0-.112-.005-.169l0-.014L-94.85,7.7c.082-5.229,3.9-9.267,8.45-9.267h0c4.6,0,8.457,4.124,8.457,9.438a1.7,1.7,0,0,0,.092.57,16.784,16.784,0,0,0-2.487,2.968,1.688,1.688,0,0,0,.459,2.344,1.689,1.689,0,0,0,2.344-.459l.022-.035c4.178-6.379,11.979-7.764,17.734-3.231s7.122,13.512,2.945,19.893a12.428,12.428,0,0,1-9.617,5.828c-.37.023-.74.008-1.11-.005a15.144,15.144,0,0,0-4.549-10.622,16.462,16.462,0,0,0,2.68-8.889,1.69,1.69,0,0,0-1.659-1.718,1.689,1.689,0,0,0-1.718,1.659v.026c-.065,6.868-5.117,12.195-11.137,12.126S-94.923,22.806-94.858,15.938Zm51.2,65.579a1.687,1.687,0,0,0-1.105.8,15.041,15.041,0,0,1-3.394,1.689,6.265,6.265,0,0,1-5.155-.517,15.063,15.063,0,0,1-5.37-5.373l-.026-.039a11.018,11.018,0,0,0,4.087-8.185,1.689,1.689,0,0,0-1.593-1.779h-.049a1.688,1.688,0,0,0-1.733,1.641c-.173,4.162-3.295,7.191-6.849,7.013a5.908,5.908,0,0,1-1.6-.3,1.69,1.69,0,0,0-2.14,1.065,1.69,1.69,0,0,0,1.063,2.14,9.324,9.324,0,0,0,2.5.471,9.141,9.141,0,0,0,3.348-.465,1.722,1.722,0,0,0,.143.265,18.22,18.22,0,0,0,6.652,6.545,9.849,9.849,0,0,0,7.807.721A18.219,18.219,0,0,0-43.8,85.711,13.9,13.9,0,0,1-44.022,98.3c-2.967,5.469-8.851,7.511-13.947,5.258-.274-6.19-4.162-11.771-10.048-13.457a11.377,11.377,0,0,0-1.8-8.264,1.691,1.691,0,0,0-1.433-.755,1.689,1.689,0,0,0-1.409.8c-.03.049-.057.1-.082.149a1.689,1.689,0,0,0,.138,1.714,8.009,8.009,0,0,1-1.324,10.417,6.4,6.4,0,0,1-1.431.9,1.689,1.689,0,0,0-.909,2.209A1.688,1.688,0,0,0-74.623,98.3a1.633,1.633,0,0,0,.332-.05,1.646,1.646,0,0,0,.324-.122,9.779,9.779,0,0,0,2.182-1.363,10.589,10.589,0,0,0,2.734-3.457l.031.011c4.418,1.227,7.5,5.582,7.676,10.49a1.691,1.691,0,0,0-.027,1.344,12.331,12.331,0,0,1-.28,1.922,10.537,10.537,0,0,1-8.288,8.362,9.063,9.063,0,0,1-.978.111,9.283,9.283,0,0,1-2-.108,9.69,9.69,0,0,1-1.008-.222,9.431,9.431,0,0,1-1.528-.589,13.628,13.628,0,0,0,.7-4.3,1.689,1.689,0,0,0-1.667-1.71,1.689,1.689,0,0,0-1.71,1.667v.043c0,4.981-3.388,8.918-7.6,9.39a7.743,7.743,0,0,1-.852.047c-4.584,0-8.426-4.092-8.457-9.376v0L-95,90.084c0-.051,0-.1,0-.151-.292-6.753,4.339-12.327,10.221-12.8a10.669,10.669,0,0,0,3.214,4.572,9.8,9.8,0,0,0,2.182,1.367,1.689,1.689,0,0,0,2.243-.823,1.688,1.688,0,0,0-.821-2.243L-77.991,80a6.47,6.47,0,0,1-1.429-.9,8.011,8.011,0,0,1-1.325-10.417,1.689,1.689,0,0,0-.405-2.353,1.683,1.683,0,0,0-1-.309,1.688,1.688,0,0,0-1.382.755,11.34,11.34,0,0,0-1.943,7.04,13.44,13.44,0,0,0-4.778,1.446c-.3.155-.578.335-.862.512-.066-.062-.138-.116-.2-.18a12.885,12.885,0,0,1-3.646-9.285l.026-14.254.03-14.832c0-.046,0-.092,0-.138a13.023,13.023,0,0,1,2.773-8.253A13.55,13.55,0,0,0-83.983,31.7a13.675,13.675,0,0,0,9.7-3.965h0a12.244,12.244,0,0,1,.8,15.824,10.515,10.515,0,0,1-1.37,1.409,13.214,13.214,0,0,0-9.532-5.731c-.057-.007-.112-.009-.169-.011a1.69,1.69,0,0,0-1.713,1.666,1.688,1.688,0,0,0,1.555,1.706c5.513.538,9.729,5.947,9.219,12.254a12.447,12.447,0,0,1-.557,2.813A1.688,1.688,0,0,0-75,59.809a1.69,1.69,0,0,0,2.148-1.046l.022-.066a15.8,15.8,0,0,0,.707-3.577A15.707,15.707,0,0,0-73.2,47.989a14.007,14.007,0,0,0,2.367-2.336,15.176,15.176,0,0,0,2.99-6.533,15.415,15.415,0,0,0,10.96-3.995c.267-.239.527-.489.781-.75a17.181,17.181,0,0,0,2.093-2.606c.047-.072.084-.147.13-.219,5.631.484,10.169,5.669,10.169,12.208a13.357,13.357,0,0,1-.934,4.944c-.023.058-.055.111-.08.169A17.766,17.766,0,0,0-51.009,47a17.527,17.527,0,0,0-6.116.5,8.4,8.4,0,0,0-3.568-4.4,1.678,1.678,0,0,0-.966-.251,1.688,1.688,0,0,0-1.608,1.766,1.689,1.689,0,0,0,.835,1.379,5.619,5.619,0,0,1,1.855,7.164,5.261,5.261,0,0,1-.7,1.066A1.689,1.689,0,0,0-61.2,56.6a1.689,1.689,0,0,0,2.387-.078c.035-.036.068-.076.1-.116a8.623,8.623,0,0,0,1.158-1.749,9.117,9.117,0,0,0,.95-3.807,14.09,14.09,0,0,1,11.148,1.44c7.583,4.441,10.543,14.972,6.43,23.417A16.7,16.7,0,0,1-43.653,81.516Z" transform="translate(368.544 4995.899)" fill="#fff"/>
      </g>
      <circle id="Ellipse_165" data-name="Ellipse 165" cx="3.5" cy="3.5" r="3.5" transform="translate(92.231 105.951)" fill="#f89d26"/>
      <circle id="Ellipse_166" data-name="Ellipse 166" cx="3.5" cy="3.5" r="3.5" transform="translate(77.231 115.951)" fill="#e9a842"/>
      <circle id="Ellipse_167" data-name="Ellipse 167" cx="3.5" cy="3.5" r="3.5" transform="translate(76.231 101.951)" fill="#e9a842"/>
      <circle id="Ellipse_168" data-name="Ellipse 168" cx="3.5" cy="3.5" r="3.5" transform="translate(79.231 73.951)" fill="#e9a842"/>
      <g id="Ellipse_169" data-name="Ellipse 169" transform="translate(77 72)" fill="#fadb3f" stroke="#fff" stroke-width="3">
        <circle cx="5.5" cy="5.5" r="5.5" stroke="none"/>
        <circle cx="5.5" cy="5.5" r="4" fill="none"/>
      </g>
      <g id="Ellipse_170" data-name="Ellipse 170" transform="translate(75 100)" fill="#fadb3f" stroke="#fff" stroke-width="3">
        <circle cx="5.5" cy="5.5" r="5.5" stroke="none"/>
        <circle cx="5.5" cy="5.5" r="4" fill="none"/>
      </g>
      <g id="Path_12441" data-name="Path 12441" transform="translate(75 114)" fill="#fadb3f">
        <path d="M 5.5 9.5 C 3.294389963150024 9.5 1.5 7.705609798431396 1.5 5.5 C 1.5 3.294389963150024 3.294389963150024 1.5 5.5 1.5 C 7.705609798431396 1.5 9.5 3.294389963150024 9.5 5.5 C 9.5 7.705609798431396 7.705609798431396 9.5 5.5 9.5 Z" stroke="none"/>
        <path d="M 5.5 3 C 4.121500015258789 3 3 4.121500015258789 3 5.5 C 3 6.878499984741211 4.121500015258789 8 5.5 8 C 6.878499984741211 8 8 6.878499984741211 8 5.5 C 8 4.121500015258789 6.878499984741211 3 5.5 3 M 5.5 0 C 8.537569999694824 0 11 2.462430000305176 11 5.5 C 11 8.537569999694824 8.537569999694824 11 5.5 11 C 2.462430000305176 11 0 8.537569999694824 0 5.5 C 0 2.462430000305176 2.462430000305176 0 5.5 0 Z" stroke="none" fill="#fff"/>
      </g>
      <rect id="Rectangle_365" data-name="Rectangle 365" width="5" height="16" transform="translate(94 37)" fill="#fadb3f"/>
      <rect id="Rectangle_366" data-name="Rectangle 366" width="5" height="16" transform="translate(79 37)" fill="#fadb3f"/>
      <rect id="Rectangle_367" data-name="Rectangle 367" width="5" height="16" transform="translate(63 37)" fill="#fadb3f"/>
      <line id="Line_5" data-name="Line 5" x2="49" transform="translate(52.5 54.5)" fill="none" stroke="#fff" stroke-width="3"/>
      <line id="Line_7" data-name="Line 7" y2="93" transform="translate(54.5 54.5)" fill="none" stroke="#fff" stroke-width="3"/>
      <rect id="Rectangle_368" data-name="Rectangle 368" width="5" height="16" transform="translate(37.5 64) rotate(-90)" fill="#fadb3f"/>
      <rect id="Rectangle_369" data-name="Rectangle 369" width="5" height="16" transform="translate(37.5 79) rotate(-90)" fill="#fadb3f"/>
      <line id="Line_8" data-name="Line 8" y2="76" transform="translate(63 62.5)" fill="none" stroke="#fff" stroke-width="3"/>
      <line id="Line_9" data-name="Line 9" x2="40" transform="translate(61.5 62)" fill="none" stroke="#fff" stroke-width="3"/>
      <line id="Line_11" data-name="Line 11" x2="16" transform="translate(66.5 93.5)" fill="none" stroke="#fff" stroke-width="3"/>
      <rect id="Rectangle_374" data-name="Rectangle 374" width="4" height="9" transform="translate(79 92)" fill="#fff"/>
      <rect id="Rectangle_375" data-name="Rectangle 375" width="4" height="24" transform="translate(93 114)" fill="#fff"/>
      <rect id="Rectangle_376" data-name="Rectangle 376" width="5" height="7" transform="translate(78 94)" fill="#fff"/>
      <rect id="Rectangle_377" data-name="Rectangle 377" width="5" height="15" transform="translate(78 124)" fill="#fff"/>
      <rect id="Rectangle_378" data-name="Rectangle 378" width="5" height="25" transform="translate(93 114)" fill="#fff"/>
      <rect id="Rectangle_379" data-name="Rectangle 379" width="5" height="16" transform="translate(93 63)" fill="#fff"/>
      <rect id="Rectangle_380" data-name="Rectangle 380" width="5" height="11" transform="translate(98 75) rotate(90)" fill="#fff"/>
      <rect id="Rectangle_381" data-name="Rectangle 381" width="5" height="16" transform="translate(94 149)" fill="#fadb3f"/>
      <rect id="Rectangle_382" data-name="Rectangle 382" width="5" height="16" transform="translate(79 149)" fill="#fadb3f"/>
      <rect id="Rectangle_383" data-name="Rectangle 383" width="5" height="16" transform="translate(63 149)" fill="#fadb3f"/>
      <line id="Line_12" data-name="Line 12" x2="36" transform="translate(65.5 64)" fill="none" stroke="#fff" stroke-width="3"/>
    </g>
  </g>
</svg>
