<svg xmlns="http://www.w3.org/2000/svg" xmlns:xlink="http://www.w3.org/1999/xlink" width="200" height="200" viewBox="0 0 200 200">
  <defs>
    <clipPath id="clip-path">
      <circle id="Ellipse_5" data-name="Ellipse 5" cx="100" cy="100" r="100"/>
    </clipPath>
    <linearGradient id="linear-gradient" x1="0.187" y1="0.199" x2="0.523" y2="0.525" gradientUnits="objectBoundingBox">
      <stop offset="0" stop-color="#00455f"/>
      <stop offset="0.37" stop-color="#006d93" stop-opacity="0.631"/>
      <stop offset="0.801" stop-color="#0099d2" stop-opacity="0.2"/>
      <stop offset="1" stop-color="#00aeef" stop-opacity="0"/>
    </linearGradient>
    <clipPath id="clip-Installer">
      <rect width="200" height="200"/>
    </clipPath>
  </defs>
  <g id="Installer" clip-path="url(#clip-Installer)">
    <circle id="Ellipse_24" data-name="Ellipse 24" cx="100" cy="100" r="100" fill="#00aeff"/>
    <g id="Group_4" data-name="Group 4" clip-path="url(#clip-path)">
      <path id="Path_3" data-name="Path 3" d="M322.8,234.081l-103.913-120.8-22.745,74.29L101.66,192.2l111.48,120.09C211.942,316.325,320.527,236.163,322.8,234.081Z" transform="translate(-61.748 -54.551)" opacity="0.8" fill="url(#linear-gradient)"/>
    </g>
    <g id="Group_465" data-name="Group 465" transform="translate(553.5 -340.605)">
      <g id="Group_463" data-name="Group 463" transform="translate(-514.5 383.605)">
        <path id="Path_625" data-name="Path 625" d="M-332.5,503.506h52.007l1.08-79.9H-332.5Z" transform="translate(398.004 -409.209)" fill="#fea832"/>
        <path id="Path_626" data-name="Path 626" d="M-514,383.605v94.3h65.324V398h-6.3l-7.2-14.4Z" transform="translate(514.18 -383.605)" fill="#fcbf29"/>
        <path id="Path_627" data-name="Path 627" d="M-492.185,468.105H-449v63.7h-65.5Z" transform="translate(514.5 -437.693)" fill="#fedb40"/>
        <path id="Path_628" data-name="Path 628" d="M-332.5,468.105h69.823l-16.916,63.7H-332.5Z" transform="translate(398.004 -437.693)" fill="#fcbf29"/>
      </g>
      <g id="Group_464" data-name="Group 464" transform="translate(-475.45 445.33)">
        <path id="Path_629" data-name="Path 629" d="M-379.547,627.088-406,595.775h13.317v-40.67h13.137" transform="translate(406 -555.105)" fill="#ff0b69"/>
        <path id="Path_630" data-name="Path 630" d="M-332.5,627.088l26.453-31.312h-13.317v-40.67H-332.5" transform="translate(358.953 -555.105)" fill="#dd025a"/>
      </g>
    </g>
  </g>
</svg>
