<svg xmlns="http://www.w3.org/2000/svg" xmlns:xlink="http://www.w3.org/1999/xlink" width="200" height="200" viewBox="0 0 200 200">
  <defs>
    <clipPath id="clip-path">
      <circle id="Ellipse_5" data-name="Ellipse 5" cx="100" cy="100" r="100"/>
    </clipPath>
    <linearGradient id="linear-gradient" x1="0.187" y1="0.199" x2="0.523" y2="0.525" gradientUnits="objectBoundingBox">
      <stop offset="0" stop-color="#00455f"/>
      <stop offset="0.37" stop-color="#006d93" stop-opacity="0.631"/>
      <stop offset="0.801" stop-color="#0099d2" stop-opacity="0.2"/>
      <stop offset="1" stop-color="#00aeef" stop-opacity="0"/>
    </linearGradient>
    <clipPath id="clip-path-2">
      <rect id="Rectangle_172" data-name="Rectangle 172" width="26" height="40" fill="#30363d"/>
    </clipPath>
    <clipPath id="clip-Checklist">
      <rect width="200" height="200"/>
    </clipPath>
  </defs>
  <g id="Checklist" clip-path="url(#clip-Checklist)">
    <g id="Group_472" data-name="Group 472">
      <circle id="Ellipse_24" data-name="Ellipse 24" cx="100" cy="100" r="100" fill="#00aeff"/>
      <g id="Group_4" data-name="Group 4" clip-path="url(#clip-path)">
        <path id="Path_3" data-name="Path 3" d="M322.8,232.581,214.028,92.671l-.887,127.1L108.594,218.2,213.14,310.788C211.941,314.825,320.527,234.663,322.8,232.581Z" transform="translate(-61.748 -55.051)" opacity="0.8" fill="url(#linear-gradient)"/>
      </g>
      <g id="Group_471" data-name="Group 471" transform="translate(44 18.5)">
        <path id="Path_642" data-name="Path 642" d="M8,0H56V129.5H8a8,8,0,0,1-8-8V8A8,8,0,0,1,8,0Z" transform="translate(0 17)" fill="#ff9d27"/>
        <path id="Path_643" data-name="Path 643" d="M0,0H48a8,8,0,0,1,8,8V121.5a8,8,0,0,1-8,8H0Z" transform="translate(56 17)" fill="#e58b22"/>
        <g id="Group_466" data-name="Group 466" transform="translate(10 24.243)">
          <path id="Path_633" data-name="Path 633" d="M174.88,173.759H133.347a4.323,4.323,0,0,1-4.347-4.3V64.3a4.323,4.323,0,0,1,4.347-4.3H174.88Z" transform="translate(-129 -60)" fill="#fff"/>
          <path id="Path_634" data-name="Path 634" d="M462.663,60H420.5V173.759h26.622a4.372,4.372,0,0,0,3.084-1.269l15.54-15.443a4.275,4.275,0,0,0,1.263-3.03V64.3A4.323,4.323,0,0,0,462.663,60Z" transform="translate(-374.62 -60)" fill="#e6e7e8"/>
          <path id="Path_635" data-name="Path 635" d="M541.1,654.183V673.42h2.584a4.372,4.372,0,0,0,3.084-1.269l15.54-15.443a4.275,4.275,0,0,0,1.263-3.03v-1.831H543.468A2.35,2.35,0,0,0,541.1,654.183Z" transform="translate(-471.187 -559.661)" fill="#d3d3d8"/>
        </g>
        <path id="Path_636" data-name="Path 636" d="M25.839,9a2.5,2.5,0,0,0-1.7.793l-7.8,8.125-2.991-3.117a2.513,2.513,0,1,0-3.654,3.453l.03.03,4.8,5.009a2.511,2.511,0,0,0,3.548.075l.075-.075L27.751,13.27A2.51,2.51,0,0,0,25.839,9Z" transform="translate(10.998 31.433)" fill="#16a9e0"/>
        <path id="Path_637" data-name="Path 637" d="M25.839,9a2.5,2.5,0,0,0-1.7.793l-7.8,8.125-2.991-3.117a2.513,2.513,0,1,0-3.654,3.453l.03.03,4.8,5.009a2.511,2.511,0,0,0,3.548.075l.075-.075L27.751,13.27A2.51,2.51,0,0,0,25.839,9Z" transform="translate(10.998 56.433)" fill="#16a9e0"/>
        <g id="Path_644" data-name="Path 644" transform="translate(22 90.5)" fill="#fff">
          <path d="M 7.5 12.5 C 4.742990016937256 12.5 2.5 10.2570104598999 2.5 7.5 C 2.5 4.742990016937256 4.742990016937256 2.5 7.5 2.5 C 10.2570104598999 2.5 12.5 4.742990016937256 12.5 7.5 C 12.5 10.2570104598999 10.2570104598999 12.5 7.5 12.5 Z" stroke="none"/>
          <path d="M 7.5 5 C 6.121500015258789 5 5 6.121500015258789 5 7.5 C 5 8.878499984741211 6.121500015258789 10 7.5 10 C 8.878499984741211 10 10 8.878499984741211 10 7.5 C 10 6.121500015258789 8.878499984741211 5 7.5 5 M 7.5 0 C 11.64213943481445 0 15 3.35785961151123 15 7.5 C 15 11.64213943481445 11.64213943481445 15 7.5 15 C 3.35785961151123 15 0 11.64213943481445 0 7.5 C 0 3.35785961151123 3.35785961151123 0 7.5 0 Z" stroke="none" fill="#dd025a"/>
        </g>
        <g id="Path_645" data-name="Path 645" transform="translate(22 115.5)" fill="#fff">
          <path d="M 7.5 12.5 C 4.742990016937256 12.5 2.5 10.2570104598999 2.5 7.5 C 2.5 4.742990016937256 4.742990016937256 2.5 7.5 2.5 C 10.2570104598999 2.5 12.5 4.742990016937256 12.5 7.5 C 12.5 10.2570104598999 10.2570104598999 12.5 7.5 12.5 Z" stroke="none"/>
          <path d="M 7.5 5 C 6.121500015258789 5 5 6.121500015258789 5 7.5 C 5 8.878499984741211 6.121500015258789 10 7.5 10 C 8.878499984741211 10 10 8.878499984741211 10 7.5 C 10 6.121500015258789 8.878499984741211 5 7.5 5 M 7.5 0 C 11.64213943481445 0 15 3.35785961151123 15 7.5 C 15 11.64213943481445 11.64213943481445 15 7.5 15 C 3.35785961151123 15 0 11.64213943481445 0 7.5 C 0 3.35785961151123 3.35785961151123 0 7.5 0 Z" stroke="none" fill="#dd025a"/>
        </g>
        <g id="Group_467" data-name="Group 467" transform="translate(45 40.5)">
          <path id="Path_638" data-name="Path 638" d="M16.339,9a2.5,2.5,0,0,0,.255,5H56.582a2.5,2.5,0,0,0,.07-5H16.594A2.167,2.167,0,0,0,16.339,9Z" transform="translate(-13.966 -8.999)" fill="#727d8d"/>
          <path id="Path_639" data-name="Path 639" d="M16.347,11a2.5,2.5,0,0,0,.255,5H36.6a2.5,2.5,0,0,0,.07-5H16.6A2.168,2.168,0,0,0,16.347,11Z" transform="translate(-13.934 -1.002)" fill="#727d8d"/>
        </g>
        <g id="Group_468" data-name="Group 468" transform="translate(45 65.5)">
          <path id="Path_638-2" data-name="Path 638" d="M16.339,9a2.5,2.5,0,0,0,.255,5H56.582a2.5,2.5,0,0,0,.07-5H16.594A2.167,2.167,0,0,0,16.339,9Z" transform="translate(-13.966 -8.999)" fill="#727d8d"/>
          <path id="Path_639-2" data-name="Path 639" d="M16.347,11a2.5,2.5,0,0,0,.255,5H44.6a2.5,2.5,0,0,0,.07-5H16.6A2.168,2.168,0,0,0,16.347,11Z" transform="translate(-13.934 -1.002)" fill="#727d8d"/>
        </g>
        <g id="Group_469" data-name="Group 469" transform="translate(45 90.5)">
          <path id="Path_638-3" data-name="Path 638" d="M16.339,9a2.5,2.5,0,0,0,.255,5H56.582a2.5,2.5,0,0,0,.07-5H16.594A2.167,2.167,0,0,0,16.339,9Z" transform="translate(-13.966 -8.999)" fill="#727d8d"/>
          <path id="Path_639-3" data-name="Path 639" d="M16.347,11a2.5,2.5,0,0,0,.255,5H26.6a2.5,2.5,0,0,0,.07-5H16.6A2.168,2.168,0,0,0,16.347,11Z" transform="translate(-13.934 -1.002)" fill="#727d8d"/>
        </g>
        <g id="Group_470" data-name="Group 470" transform="translate(45 115.5)">
          <path id="Path_638-4" data-name="Path 638" d="M16.339,9a2.5,2.5,0,0,0,.255,5H41.582a2.5,2.5,0,0,0,.07-5H16.594A2.167,2.167,0,0,0,16.339,9Z" transform="translate(-13.966 -8.999)" fill="#727d8d"/>
          <path id="Path_639-4" data-name="Path 639" d="M16.347,11a2.5,2.5,0,0,0,.255,5H31.6a2.5,2.5,0,0,0,.07-5H16.6A2.168,2.168,0,0,0,16.347,11Z" transform="translate(-13.934 -1.002)" fill="#727d8d"/>
        </g>
        <path id="Path_640" data-name="Path 640" d="M62.478,34.342H22.926A4.932,4.932,0,0,1,18,29.411V14.7a4.932,4.932,0,0,1,4.93-4.93H33.019A8.27,8.27,0,0,1,34.054,4.36,10.386,10.386,0,0,1,42.836-.186,9.638,9.638,0,0,1,51.41,4.36a9.1,9.1,0,0,1,1.065,5.414h10a4.932,4.932,0,0,1,4.93,4.93V29.411A4.932,4.932,0,0,1,62.478,34.342Z" transform="translate(13.004 1.496)" fill="#484f59"/>
        <g id="Group_12" data-name="Group 12" transform="translate(56)" clip-path="url(#clip-path-2)">
          <path id="Path_641" data-name="Path 641" d="M62.478,34.342H22.926A4.932,4.932,0,0,1,18,29.411V14.7a4.932,4.932,0,0,1,4.93-4.93H33.019A8.27,8.27,0,0,1,34.054,4.36,10.386,10.386,0,0,1,42.836-.186,9.638,9.638,0,0,1,51.41,4.36a9.1,9.1,0,0,1,1.065,5.414h10a4.932,4.932,0,0,1,4.93,4.93V29.411A4.932,4.932,0,0,1,62.478,34.342Z" transform="translate(-42.996 1.496)" fill="#30363d"/>
        </g>
        <circle id="Ellipse_83" data-name="Ellipse 83" cx="5" cy="5" r="5" transform="translate(51 5)" fill="#00aeff"/>
      </g>
    </g>
  </g>
</svg>
