<svg xmlns="http://www.w3.org/2000/svg" xmlns:xlink="http://www.w3.org/1999/xlink" width="200" height="200" viewBox="0 0 200 200">
  <defs>
    <clipPath id="clip-path">
      <circle id="Ellipse_162" data-name="Ellipse 162" cx="100" cy="100" r="100" transform="translate(698.866 4287.203)" fill="#00aeff"/>
    </clipPath>
    <linearGradient id="linear-gradient" x1="0.126" y1="0.165" x2="0.588" y2="0.612" gradientUnits="objectBoundingBox">
      <stop offset="0" stop-color="#00364d"/>
      <stop offset="0.567" stop-color="#0076ac" stop-opacity="0.4"/>
      <stop offset="1" stop-color="#00a1ed" stop-opacity="0"/>
    </linearGradient>
    <clipPath id="clip-Life_Sciences">
      <rect width="200" height="200"/>
    </clipPath>
  </defs>
  <g id="Life_Sciences" data-name="Life Sciences" clip-path="url(#clip-Life_Sciences)">
    <circle id="Ellipse_24" data-name="Ellipse 24" cx="100" cy="100" r="100" fill="#00aeff"/>
    <g id="Group_543" data-name="Group 543" transform="translate(-698.866 -4287.203)">
      <g id="Mask_Group_24" data-name="Mask Group 24" clip-path="url(#clip-path)">
        <path id="Path_12283" data-name="Path 12283" d="M981.718,4587.379a41246,41246,0,0,1-1.867-1.943,3435.064,3435.064,0,0,1-1.866-1.943,2519.555,2519.555,0,0,1-1.867-1.943,8.684,8.684,0,0,0-.933-.971,8.572,8.572,0,0,0-.933-.971,1299.467,1299.467,0,0,0-1.867-1.943,8074.447,8074.447,0,0,1-2.8-2.916,8.627,8.627,0,0,0-.933-.971,8.73,8.73,0,0,0-.933-.972l-.03-.037c9.661-6.513,16.373-20.788,16.373-37.371,0-14.132-4.874-26.593-12.3-34q-.458-.5-.933-.971-.46-.5-.934-.972-.459-.5-.933-.972-.46-.5-.933-.971-.458-.5-.933-.971-.46-.5-.933-.973-.46-.5-.934-.971c-.164-.179-.331-.351-.5-.523l5.625-10.141-1.126-.625h0l1.563.867c.719.4,1.8-.176,2.415-1.285s.533-2.332-.188-2.733l-.394-.219a1.164,1.164,0,0,0-.539-.752l-.394-.219a1.167,1.167,0,0,0-.539-.754l-.394-.218a1.162,1.162,0,0,0-.539-.753l-.394-.218a1.314,1.314,0,0,0-.226-.463l6.109-11.011.579.319a.663.663,0,1,0,.644-1.159l-.593-.33a.666.666,0,0,0-.34-.642l-.594-.329a.662.662,0,0,0-.34-.642l-.594-.33a.664.664,0,0,0-.34-.643l-.594-.33a.664.664,0,0,0-.34-.642l-.594-.329a.662.662,0,0,0-.339-.643l-.594-.329a.666.666,0,0,0-.34-.643l-.594-.329a.665.665,0,0,0-.34-.643l-.594-.329a.663.663,0,0,0-.34-.642l-.594-.33a.667.667,0,0,0-.339-.643l-.594-.33a.663.663,0,0,0-.34-.641l-.594-.33a.664.664,0,0,0-.34-.643l-.594-.33a.664.664,0,0,0-.34-.642l-.594-.33a.664.664,0,0,0-.34-.642l-.593-.329a.664.664,0,0,0-.34-.642l-.594-.329a.666.666,0,0,0-.34-.643l-.594-.33a.663.663,0,0,0-.339-.642l-.594-.329a.664.664,0,0,0-.34-.643l-.593-.33a.666.666,0,0,0-.34-.642l-.594-.329a.662.662,0,0,0-.34-.642l-.594-.33a.664.664,0,0,0-.34-.642l-.594-.33a.663.663,0,0,0-.34-.642l-.594-.33a.663.663,0,0,0-.339-.642l-.594-.329a.665.665,0,0,0-.34-.643l-.594-.33a.665.665,0,0,0-.34-.642l-.594-.33a.663.663,0,0,0-.34-.642l-.594-.33a.667.667,0,0,0-.339-.643l-.594-.329a.666.666,0,0,0-.34-.642l-.594-.329a.663.663,0,0,0-.34-.643l-.594-.33a.665.665,0,0,0-.34-.642l-.594-.329a.663.663,0,0,0-.34-.642l-.593-.33a.666.666,0,0,0-.34-.642l-.594-.329a.665.665,0,0,0-.34-.643l-.594-.33a.665.665,0,0,0-.34-.642l-.594-.329a.664.664,0,0,0-.34-.643l-.593-.33a.666.666,0,0,0-.34-.642l-.594-.329a.664.664,0,0,0-.34-.642l-.594-.329a.663.663,0,0,0-.34-.642l-.594-.329a.666.666,0,0,0-.34-.643l-.594-.329a.661.661,0,0,0-.339-.642l-.594-.331a.664.664,0,0,0-.34-.642l-.594-.33a.664.664,0,0,0-.34-.642l-.594-.33a.665.665,0,0,0-.34-.642l-.594-.329a.663.663,0,0,0-.339-.642l-.594-.329a.664.664,0,0,0-.34-.642l-.594-.33a.663.663,0,0,0-.34-.642l-.594-.329a.664.664,0,0,0-.34-.643l-.594-.33a.665.665,0,0,0-.339-.642l-.594-.329a.665.665,0,0,0-.34-.642l-.594-.33a.665.665,0,0,0-.34-.643l-.594-.33a.665.665,0,0,0-.34-.642l-.594-.33a.663.663,0,0,0-.34-.642l-.593-.329a.665.665,0,0,0-.34-.642l-.594-.33a.663.663,0,0,0-.34-.642l-.594-.33a.664.664,0,0,0-.34-.642l-.594-.329a.663.663,0,0,0-.34-.643l-.594-.33a.664.664,0,0,0-.339-.642l-.594-.329a.664.664,0,0,0-.34-.643l-.594-.329a.664.664,0,0,0-.34-.643l-.594-.33a.664.664,0,0,0-.34-.642l-.594-.329a.663.663,0,0,0-.339-.642l-.594-.329a.667.667,0,0,0-.34-.643l-.594-.329a.662.662,0,0,0-.34-.642l-.594-.33a.664.664,0,0,0-.34-.643l-.594-.329a.664.664,0,0,0-.339-.642l-.594-.33a.667.667,0,0,0-.34-.642l-.594-.329a.663.663,0,0,0-.34-.642l-.594-.33a.665.665,0,0,0-.34-.643l-.594-.33a.664.664,0,0,0-.34-.642l-.593-.329a.664.664,0,0,0-.34-.642l-.594-.33a.665.665,0,0,0-.34-.642l-.594-.329a.663.663,0,0,0-.34-.642l-.594-.33a.665.665,0,0,0-.34-.642l-.594-.33a.663.663,0,0,0-.339-.642l-.594-.33a.665.665,0,0,0-.34-.642l-.594-.329a.664.664,0,0,0-.34-.642l-.594-.33a.666.666,0,0,0-.34-.643l-.594-.329a.663.663,0,0,0-.339-.642l-.594-.329a.666.666,0,0,0-.34-.644l-.594-.329a.665.665,0,0,0-.34-.642l-.594-.329a.663.663,0,0,0-.34-.643l-.594-.33a.664.664,0,0,0-.339-.642l-.594-.33a.666.666,0,0,0-.34-.643l-.594-.329a.664.664,0,0,0-.34-.642l-.594-.329a.665.665,0,0,0-.34-.643l-.594-.33a.663.663,0,0,0-.34-.641l-.593-.33a.663.663,0,0,0-.34-.642l-.594-.33a.666.666,0,0,0-.34-.643l-.594-.329a.665.665,0,0,0-.34-.643l-.594-.329a.662.662,0,0,0-.34-.642l-.594-.33a.665.665,0,0,0-.339-.643l-.594-.329a.664.664,0,0,0-.34-.642l-.594-.33a.663.663,0,0,0-.34-.642l-.594-.33a.665.665,0,0,0-.34-.642l-.594-.33a.663.663,0,0,0-.339-.642l-.594-.329a.665.665,0,0,0-.34-.643l-.594-.33a.663.663,0,0,0-.34-.642l-.594-.33a.664.664,0,0,0-.34-.642l-.594-.329a.666.666,0,0,0-.339-.643l-.594-.329a.667.667,0,0,0-.34-.643l-.594-.329a.663.663,0,0,0-.34-.642l-.594-.33a.666.666,0,0,0-.34-.643l-.594-.329a.665.665,0,0,0-.34-.642l-.593-.33a.663.663,0,0,0-.34-.641l-.594-.33a.664.664,0,0,0-.34-.642l-.594-.329a.664.664,0,0,0-.34-.643l-.594-.33a.662.662,0,0,0-.34-.642l-.593-.33a.666.666,0,0,0-.34-.643l-.594-.33a.665.665,0,0,0-.34-.642l-.594-.329a.664.664,0,0,0-.34-.643l-.594-.329a.665.665,0,0,0-.34-.643l-.594-.33a.663.663,0,0,0-.339-.642l-.594-.329a.662.662,0,0,0-.34-.642l-.594-.33a.666.666,0,0,0-.34-.643l-.594-.329a.662.662,0,0,0-.34-.642l-.594-.33a.666.666,0,0,0-.339-.643l-.594-.33a.665.665,0,0,0-.34-.642l-.594-.33a.664.664,0,0,0-.34-.642l-.594-.329a.665.665,0,0,0-.34-.643l-.594-.33a.665.665,0,0,0-.34-.642l-.593-.329a.664.664,0,0,0-.34-.642l-.594-.329a.664.664,0,0,0-.34-.642l-.594-.33a.665.665,0,0,0-.34-.643l-.594-.329a.663.663,0,0,0-.34-.642l-.593-.33a.667.667,0,0,0-.34-.643l-.594-.329a.664.664,0,0,0-.34-.642l-.594-.33a.665.665,0,0,0-.34-.642l-.594-.329a.664.664,0,0,0-.34-.642l-.594-.33a.665.665,0,0,0-.339-.643l-.594-.329a.663.663,0,0,0-.34-.642l-.594-.33a.665.665,0,0,0-.34-.643l-.594-.329a.664.664,0,0,0-.34-.642l-.594-.329a.664.664,0,0,0-.339-.643l-.594-.33a.666.666,0,0,0-.34-.642l-.594-.33a.663.663,0,0,0-.34-.642l-.594-.33a.663.663,0,0,0-.34-.641l-.594-.33a.665.665,0,0,0-.34-.643l-.593-.33a.662.662,0,0,0-.34-.641l-.594-.33a.664.664,0,0,0-.34-.643l-.594-.329a.664.664,0,0,0-.34-.643l-.594-.33a.664.664,0,0,0-.34-.642l-.593-.329a.666.666,0,0,0-.34-.643l-.594-.329a.666.666,0,0,0-.34-.643l-.594-.329a.664.664,0,0,0-.34-.642l-.594-.33a.664.664,0,0,0-.34-.642l-.594-.329a.664.664,0,0,0-.339-.643l-.594-.329a.663.663,0,0,0-.34-.642l-.594-.33a.664.664,0,0,0-.34-.643l-.594-.33a.664.664,0,0,0-.34-.642l-.594-.33a.665.665,0,0,0-.339-.642l-.594-.329a.667.667,0,0,0-.34-.643l-.595-.329a.665.665,0,0,0-.339-.643l-13.3-7.377a.664.664,0,0,0-.644,1.162l.579.321-6.831,12.314-4.139-2.3c-.72-.4-1.8.175-2.42,1.283s-.529,2.333.19,2.731l.395.219c.006.021.016.041.023.063L780.711,4379l-.437-.242c-.722-.4-1.8.177-2.417,1.285s-.531,2.33.188,2.73l.4.219a1.167,1.167,0,0,0,.538.753l.4.219a1.162,1.162,0,0,0,.538.752l.4.219a1.165,1.165,0,0,0,.538.753l.395.218a1.328,1.328,0,0,0,.226.463l-1.681,3.028-.579-.322a.664.664,0,0,0-.644,1.161l.58.324.016.009a.661.661,0,0,0,.337.639l.58.322.016.009a.657.657,0,0,0,.337.639l.581.324.016.009a.657.657,0,0,0,.337.639l.581.324.015.008a.66.66,0,0,0,.337.639l.58.324.016.009a.659.659,0,0,0,.337.639l.58.324.016.008a.657.657,0,0,0,.337.639l.581.324.016.008a.66.66,0,0,0,.337.64l.581.323.015.009a.661.661,0,0,0,.337.639l.58.324.016.008a.663.663,0,0,0,.337.641l.58.323.016.009a.657.657,0,0,0,.337.639l.581.323.016.009a.657.657,0,0,0,.337.639l.581.324.016.009a.658.658,0,0,0,.337.639l.58.323.016.008a.661.661,0,0,0,.337.64l.58.324.016.009a.66.66,0,0,0,.337.639l.581.324.016.008a.658.658,0,0,0,.337.639l.581.323.016.01a.659.659,0,0,0,.337.639l.581.322.015.01a.66.66,0,0,0,.337.639l.58.324.016.008a.663.663,0,0,0,.337.641l.58.322.016.009a.659.659,0,0,0,.337.639l.581.324.016.008a.657.657,0,0,0,.337.639l.581.324.015.009a.662.662,0,0,0,.337.64l.58.323.016.009a.66.66,0,0,0,.337.64l.58.324.016.008a.656.656,0,0,0,.337.639l.581.325.016.008a.659.659,0,0,0,.337.64l.581.323.015.009a.659.659,0,0,0,.337.639l.58.324.016.009a.653.653,0,0,0,.073.344,2.324,2.324,0,0,0-.5.318l-4.707-2.544h0l-39.088-21.129a5.474,5.474,0,0,0-.312.5c-1.261,2.337-.391,5.35,1.914,7.391a10888.3,10888.3,0,0,0,2.8,2.916,8.193,8.193,0,0,0,.933.971,9548.987,9548.987,0,0,0,1.866,1.943c.168.206.349.4.54.6a3.357,3.357,0,0,0-2.624,1.988c-.83,1.533-.731,3.2.222,3.709l.294.158a1.419,1.419,0,0,0,.64.813l.293.158a1.427,1.427,0,0,0,.641.814l.293.158a1.425,1.425,0,0,0,.64.813l.294.158a1.429,1.429,0,0,0,.64.813l.293.158a1.423,1.423,0,0,0,.64.813l.293.159a1.42,1.42,0,0,0,.64.813l.293.159a1.429,1.429,0,0,0,.64.813l.294.159a1.423,1.423,0,0,0,.64.812l.294.16a1.423,1.423,0,0,0,.64.813l.293.158a1.417,1.417,0,0,0,.64.813l.293.159a1.43,1.43,0,0,0,.641.814l.293.158a1.422,1.422,0,0,0,.64.813l.294.159a1.428,1.428,0,0,0,.64.813l.294.158a1.416,1.416,0,0,0,.64.813l.293.159a1.423,1.423,0,0,0,.641.813l.293.158a1.423,1.423,0,0,0,.64.813l.293.16a1.422,1.422,0,0,0,.64.812l.293.159a1.416,1.416,0,0,0,.64.813l.293.158a1.421,1.421,0,0,0,.641.813l.293.159a1.423,1.423,0,0,0,.64.813l.294.159a1.427,1.427,0,0,0,.64.813l.294.159a1.428,1.428,0,0,0,.64.813l.293.158a1.423,1.423,0,0,0,.64.813l.293.159a1.426,1.426,0,0,0,.64.813l.293.159a1.428,1.428,0,0,0,.64.813l.294.159a1.668,1.668,0,0,0,.214.414H760.866c-8.285,0-15,3.8-15,8.5a4.971,4.971,0,0,0,.076.86h.867c0,.037-.01.073-.01.11a5.026,5.026,0,0,0,.076.86h.868c0,.038-.01.074-.01.113a4.949,4.949,0,0,0,.076.859h.868c0,.038-.01.075-.01.112a4.948,4.948,0,0,0,.076.86h.867c0,.038-.01.074-.01.112a4.944,4.944,0,0,0,.076.858h.867c0,.039-.01.075-.01.113a5.034,5.034,0,0,0,.076.86h.868c0,.037-.01.074-.01.111a4.957,4.957,0,0,0,.076.861h.868c0,.037-.01.074-.01.112a4.957,4.957,0,0,0,.076.859h.868c0,.039-.011.074-.011.111a4.958,4.958,0,0,0,.076.86h.867c0,.038-.01.074-.01.112a5.044,5.044,0,0,0,.076.86h.868c0,.038-.01.074-.01.111a4.964,4.964,0,0,0,.076.86h.868c0,.037-.01.074-.01.112a4.951,4.951,0,0,0,.076.859h.868c0,.038-.01.074-.01.112a4.957,4.957,0,0,0,.076.86h.867c0,.037-.01.074-.01.113a5,5,0,0,0,.076.858h.868c0,.039-.01.075-.01.112a4.966,4.966,0,0,0,.076.86h.868c0,.037-.01.075-.01.111a4.958,4.958,0,0,0,.076.86h.868c0,.038-.011.074-.011.112a4.976,4.976,0,0,0,.076.86h.867c0,.038-.01.074-.01.111a4.953,4.953,0,0,0,.076.86h.867c0,.038-.01.074-.01.112a5.045,5.045,0,0,0,.076.86h.868c0,.038-.01.073-.01.111a4.963,4.963,0,0,0,.076.86h.868c0,.038-.01.074-.01.111a4.957,4.957,0,0,0,.076.861h.867c0,.037-.01.073-.01.111a4.966,4.966,0,0,0,.076.86h.867c0,.038-.01.074-.01.112a5.018,5.018,0,0,0,.076.859h.868c0,.039-.01.075-.01.112a4.968,4.968,0,0,0,.076.86h.868c0,.037-.01.075-.01.112a4.961,4.961,0,0,0,.076.859h.868c0,.038-.011.074-.011.112a4.957,4.957,0,0,0,.076.859h.867c0,.038-.01.075-.01.112a5.021,5.021,0,0,0,.076.86h.868c0,.039-.01.074-.01.112a4.939,4.939,0,0,0,.076.859h.868c0,.038-.01.074-.01.112a4.96,4.96,0,0,0,.076.86h.868c0,.038-.011.074-.011.111a4.963,4.963,0,0,0,.076.86h.867c0,.037-.01.073-.01.112a5.037,5.037,0,0,0,.076.859h.868c0,.038-.01.074-.01.112a4.951,4.951,0,0,0,.076.859h.868c0,.038-.01.074-.01.112a4.961,4.961,0,0,0,.076.86h.868c0,.038-.011.074-.011.112a4.95,4.95,0,0,0,.076.859h.867c0,.038-.01.074-.01.111a4.953,4.953,0,0,0,.076.86h.867c0,.038-.01.075-.01.112a5.026,5.026,0,0,0,.076.86h.868c0,.037-.01.073-.01.112a4.948,4.948,0,0,0,.076.858h.867c0,.038-.01.075-.01.112a4.934,4.934,0,0,0,.076.859h.867c0,.038-.01.075-.01.112a4.954,4.954,0,0,0,.076.86h.867c0,.038-.01.074-.01.112a5.05,5.05,0,0,0,.076.86h.868c0,.038-.01.074-.01.112a4.959,4.959,0,0,0,.076.86h.868c0,.038-.01.074-.01.111a4.96,4.96,0,0,0,.076.86h.868c0,.038-.01.073-.01.111a4.951,4.951,0,0,0,.076.86h.867c0,.038-.01.074-.01.111a5.045,5.045,0,0,0,.076.861h.868c0,.037-.01.074-.01.111a4.966,4.966,0,0,0,.076.86h.868c0,.037-.01.073-.01.111a4.951,4.951,0,0,0,.076.859h.868c0,.038-.01.075-.01.112a4.95,4.95,0,0,0,.076.86h.867c0,.038-.01.075-.01.112a5.03,5.03,0,0,0,.076.859h.868c0,.038-.01.074-.01.111a4.958,4.958,0,0,0,.076.86h.868c0,.038-.01.075-.01.111a4.942,4.942,0,0,0,.076.86h.868c0,.039-.011.074-.011.112a4.974,4.974,0,0,0,.077.86h.867c0,.038-.01.073-.01.111a4.957,4.957,0,0,0,.076.86h.867c0,.039-.01.074-.01.112a5.049,5.049,0,0,0,.076.861h.868c0,.036-.01.073-.01.111a4.951,4.951,0,0,0,.076.859h.868c0,.038-.01.074-.01.112a4.941,4.941,0,0,0,.076.858h.867c0,.038-.01.075-.01.113a4.956,4.956,0,0,0,.076.859h.867c0,.038-.01.075-.01.112a5.023,5.023,0,0,0,.076.86h.868c0,.038-.01.074-.01.111a4.96,4.96,0,0,0,.076.86H800c0,.037-.01.075-.01.111a4.948,4.948,0,0,0,.076.86h.868c0,.038-.01.073-.01.112a4.966,4.966,0,0,0,.076.859h.867c0,.039-.01.074-.01.111a5.028,5.028,0,0,0,.076.86h.868c0,.038-.01.074-.01.112a4.973,4.973,0,0,0,.076.86h.868c0,.036-.01.073-.01.11a4.966,4.966,0,0,0,.076.861h.868c0,.037-.011.074-.011.112a4.956,4.956,0,0,0,.076.859h.867c0,.038-.01.074-.01.111a5.05,5.05,0,0,0,.076.86h.868c0,.037-.01.074-.01.112a4.953,4.953,0,0,0,.076.859h.868c0,.038-.01.075-.01.111a4.978,4.978,0,0,0,.076.861h.868c0,.037-.01.074-.01.111a4.967,4.967,0,0,0,.076.86h.867c0,.037-.01.073-.01.111a4.957,4.957,0,0,0,.076.859h.867c0,.039-.01.074-.01.112a5.037,5.037,0,0,0,.076.86h.868c0,.037-.01.074-.01.112a4.964,4.964,0,0,0,.076.86h.868c0,.038-.01.073-.01.111a4.952,4.952,0,0,0,.076.86h.867c0,.038-.01.074-.01.112a4.961,4.961,0,0,0,.076.86H814c0,.037-.01.073-.01.111a5.042,5.042,0,0,0,.076.86h.868c0,.038-.01.074-.01.112a4.935,4.935,0,0,0,.076.859h.868c0,.039-.01.075-.01.112a4.976,4.976,0,0,0,.076.861h.868c0,.036-.011.074-.011.111a4.957,4.957,0,0,0,.076.859h.867c0,.038-.01.074-.01.112a5.024,5.024,0,0,0,.076.859h.868c0,.038-.01.075-.01.112a4.952,4.952,0,0,0,.076.86h.868c0,.038-.01.074-.01.112a4.95,4.95,0,0,0,.076.86h.868c0,.037-.011.074-.011.112a4.95,4.95,0,0,0,.076.859h.867c0,.038-.01.075-.01.112a5.03,5.03,0,0,0,.076.86h.868c0,.037-.01.073-.01.111a4.953,4.953,0,0,0,.076.859h.868c0,.039-.01.074-.01.113a4.943,4.943,0,0,0,.076.859h.868c0,.038-.01.074-.01.112a4.97,4.97,0,0,0,.076.86h.867c0,.037-.01.074-.01.112a4.951,4.951,0,0,0,.076.859h.867c0,.038-.01.074-.01.112a5.042,5.042,0,0,0,.076.86h.868c0,.037-.01.074-.01.111a4.952,4.952,0,0,0,.076.86H828c0,.038-.01.074-.01.112a4.949,4.949,0,0,0,.076.859h.867c0,.038-.01.075-.01.111a4.951,4.951,0,0,0,.076.861h.867c0,.038-.01.074-.01.111a5.041,5.041,0,0,0,.076.86h.868c0,.038-.01.074-.01.112a4.965,4.965,0,0,0,.076.86h.868c0,.039-.01.074-.01.111a4.952,4.952,0,0,0,.076.86h.868c0,.038-.011.074-.011.111a4.967,4.967,0,0,0,.076.86h.867c0,.039-.01.073-.01.111a5.041,5.041,0,0,0,.076.86h.868c0,.037-.01.074-.01.111a4.972,4.972,0,0,0,.076.861h.868c0,.037-.01.074-.01.112a4.961,4.961,0,0,0,.076.859h.868c0,.038-.01.074-.01.112a4.942,4.942,0,0,0,.076.858h.867c0,.039-.01.075-.01.112a5.038,5.038,0,0,0,.076.861h.868c0,.036-.01.074-.01.111a4.939,4.939,0,0,0,.076.859h.868c0,.039-.01.074-.01.113a4.955,4.955,0,0,0,.076.86h.868c0,.038-.011.074-.011.111a4.941,4.941,0,0,0,.076.86h.867c0,.038-.01.074-.01.112a4.961,4.961,0,0,0,.076.86H842c0,.038-.01.074-.01.112a5.05,5.05,0,0,0,.076.86h.868c0,.038-.01.074-.01.111a4.957,4.957,0,0,0,.076.861h.868c0,.036-.011.073-.011.111a4.948,4.948,0,0,0,.076.859h.867c0,.039-.01.075-.01.113a4.94,4.94,0,0,0,.076.858h.867c0,.038-.01.075-.01.112a5.027,5.027,0,0,0,.076.86h.868c0,.038-.01.075-.01.112a4.955,4.955,0,0,0,.076.859h.868c0,.038-.01.074-.01.112a4.947,4.947,0,0,0,.076.859h.867c0,.038-.01.075-.01.112a4.954,4.954,0,0,0,.076.86h.867c0,.038-.01.074-.01.112a5.032,5.032,0,0,0,.076.859h.868c0,.038-.01.074-.01.111a4.947,4.947,0,0,0,.076.861h.868c0,.037-.01.074-.01.111a4.958,4.958,0,0,0,.076.86h.868c0,.037-.011.073-.011.111a4.956,4.956,0,0,0,.076.859h.867c0,.038-.01.074-.01.112a5.05,5.05,0,0,0,.076.86h.868c0,.037-.01.074-.01.111a4.972,4.972,0,0,0,.076.86h.868c0,.038-.01.074-.01.112a4.959,4.959,0,0,0,.076.859H856c0,.038-.011.074-.011.111a4.963,4.963,0,0,0,.076.86h.867c0,.037-.01.074-.01.112a5.034,5.034,0,0,0,.076.859h.868c0,.037-.01.073-.01.112a4.949,4.949,0,0,0,.076.859h.868c0,.038-.01.075-.01.112a4.958,4.958,0,0,0,.076.86h.868c0,.037-.011.074-.011.111a4.965,4.965,0,0,0,.076.86h.867c0,.037-.01.073-.01.111a4.958,4.958,0,0,0,.076.86h.867c0,.038-.01.074-.01.112a5.038,5.038,0,0,0,.076.86h.868c0,.038-.01.074-.01.111a4.961,4.961,0,0,0,.076.86h.868c0,.038-.011.074-.011.112a4.962,4.962,0,0,0,.076.859h.867c0,.038-.01.074-.01.111a4.972,4.972,0,0,0,.076.861h.867c0,.037-.01.074-.01.112a5.022,5.022,0,0,0,.076.859h.868c0,.038-.01.074-.01.112a4.951,4.951,0,0,0,.076.859h.868c0,.037-.01.075-.01.112a4.932,4.932,0,0,0,.076.859h.867c0,.038-.01.075-.01.113a4.94,4.94,0,0,0,.076.859h.867c0,.038-.01.074-.01.112a5.035,5.035,0,0,0,.076.86H870c0,.038-.01.075-.01.112a4.97,4.97,0,0,0,.076.86h.868c0,.037-.01.073-.01.111a4.962,4.962,0,0,0,.076.859h.868c0,.039-.011.074-.011.111a4.948,4.948,0,0,0,.076.86h.867c0,.038-.01.074-.01.112a5.054,5.054,0,0,0,.076.86h.868c0,.037-.01.074-.01.111a4.958,4.958,0,0,0,.076.86h.868c0,.038-.01.074-.01.112a4.974,4.974,0,0,0,.076.86h.868c0,.037-.011.073-.011.111a4.954,4.954,0,0,0,.076.86h.867c0,.038-.01.074-.01.112a4.963,4.963,0,0,0,.076.86h.867c0,.038-.01.075-.01.111a5.032,5.032,0,0,0,.076.861h.868c0,.038-.01.074-.01.111a4.956,4.956,0,0,0,.076.86h.868c0,.038-.011.073-.011.111a4.955,4.955,0,0,0,.076.86h.867c0,.039-.01.074-.01.111a4.948,4.948,0,0,0,.076.86h.867c0,.038-.01.074-.01.112a5.06,5.06,0,0,0,.076.861h.868c0,.037-.01.072-.01.111a4.974,4.974,0,0,0,.076.86h.868c0,.037-.01.074-.01.112a4.955,4.955,0,0,0,.076.859H884c0,.038-.011.074-.011.112a4.952,4.952,0,0,0,.076.859h.867c0,.038-.01.074-.01.112a5.028,5.028,0,0,0,.076.859h.868c0,.038-.01.075-.01.111a4.959,4.959,0,0,0,.076.861h.868c0,.037-.01.074-.01.111a4.951,4.951,0,0,0,.076.859h97.123a4.951,4.951,0,0,0,.076-.859A6.161,6.161,0,0,0,981.718,4587.379Z" transform="translate(0 0)" opacity="0.8" fill="url(#linear-gradient)"/>
      </g>
      <g id="Group_541" data-name="Group 541" transform="translate(745.866 4310.54)">
        <path id="Path_12284" data-name="Path 12284" d="M861.752,4400.984c0,22.727-12.6,41.149-28.132,41.149v-11.1a20.735,20.735,0,0,0-7.019-40.374,21.518,21.518,0,0,0-4.328.454l18.024-30.1C852.61,4365.4,861.752,4381.625,861.752,4400.984Z" transform="translate(-764.477 -4322.834)" fill="#e58b22"/>
        <g id="Group_540" data-name="Group 540" transform="translate(31.579)">
          <path id="Path_12285" data-name="Path 12285" d="M858.4,4318l-13.3-7.377a.664.664,0,0,0-.644,1.161l.579.321-7.276,13.119,12.138,6.732,7.277-13.116.579.319A.663.663,0,1,0,858.4,4318Z" transform="translate(-799.83 -4310.54)" fill="#e6e6e6"/>
          <path id="Path_12286" data-name="Path 12286" d="M802.919,4419.862l-.579-.324,3.417-6.157-12.138-6.734L790.2,4412.8l-.579-.322a.664.664,0,0,0-.644,1.162l.58.324h0L801.7,4420.7h0l.58.322a.668.668,0,0,0,.9-.259A.662.662,0,0,0,802.919,4419.862Z" transform="translate(-787.864 -4333.95)" fill="#e6e6e6"/>
          <rect id="Rectangle_355" data-name="Rectangle 355" width="62.461" height="22.351" transform="translate(2.15 70.463) rotate(-60.979)" fill="#fff"/>
          <path id="Path_12287" data-name="Path 12287" d="M852.579,4339.871c.617-1.109.532-2.332-.188-2.733l-20.42-11.325c-.72-.4-1.8.175-2.42,1.284h0c-.613,1.109-.529,2.333.19,2.731l20.423,11.328c.719.4,1.8-.177,2.415-1.285Z" transform="translate(-797.73 -4314.229)" fill="#fff"/>
          <path id="Path_12288" data-name="Path 12288" d="M811.053,4414.737c.614-1.108.531-2.332-.191-2.733l-20.42-11.326c-.722-.4-1.8.177-2.417,1.285h0c-.614,1.106-.531,2.33.188,2.73l20.421,11.328c.719.4,1.8-.177,2.418-1.284Z" transform="translate(-787.615 -4332.464)" fill="#fff"/>
        </g>
        <path id="Path_12289" data-name="Path 12289" d="M844.667,4474.2a2.2,2.2,0,0,1-2.2,2.2H806.789a2.2,2.2,0,0,1-2.2-2.2l11.008-23.395a2.2,2.2,0,0,1,2.2-2.2h13.658a2.2,2.2,0,0,1,2.2,2.2Z" transform="translate(-760.17 -4344.17)" fill="#fff"/>
        <path id="Path_12290" data-name="Path 12290" d="M843.065,4486.711a4.941,4.941,0,0,0,.076-.859c0-4.7-6.716-8.5-15-8.5H760.866c-8.285,0-15,3.8-15,8.5a4.947,4.947,0,0,0,.076.859Z" transform="translate(-745.866 -4351.172)" fill="#e58b22"/>
        <rect id="Rectangle_356" data-name="Rectangle 356" width="2.211" height="12.093" transform="matrix(0.476, -0.88, 0.88, 0.476, 50.441, 104.38)" fill="#fff"/>
        <rect id="Rectangle_357" data-name="Rectangle 357" width="2.21" height="39.015" transform="matrix(0.475, -0.88, 0.88, 0.475, 21.619, 101.081)" fill="#fff"/>
        <path id="Path_12291" data-name="Path 12291" d="M768.85,4438.937c.831-1.534,2.276-2.364,3.228-1.848l15.919,8.6c.953.516,1.053,2.178.221,3.715h0c-.83,1.535-2.274,2.362-3.227,1.849l-15.919-8.608c-.953-.514-1.051-2.175-.222-3.71Z" transform="translate(-751.327 -4341.327)" fill="#e6e6e6"/>
        <path id="Path_12292" data-name="Path 12292" d="M841.9,4379.617a8.593,8.593,0,1,1-8.594-8.591A8.595,8.595,0,0,1,841.9,4379.617Z" transform="translate(-765.071 -4325.273)" fill="#e6e6e6"/>
        <path id="Path_12293" data-name="Path 12293" d="M839.983,4380.526a5.774,5.774,0,1,1-5.774-5.771A5.775,5.775,0,0,1,839.983,4380.526Z" transform="translate(-765.978 -4326.181)" fill="#fff"/>
        <circle id="Ellipse_161" data-name="Ellipse 161" cx="4.958" cy="4.958" r="4.958" transform="translate(59.501 111.002)" fill="#e6e6e6"/>
        <path id="Path_12294" data-name="Path 12294" d="M832.821,4463.013a2.567,2.567,0,1,1-2.566-2.566A2.565,2.565,0,0,1,832.821,4463.013Z" transform="translate(-765.796 -4347.054)" fill="#fff"/>
        <path id="Path_12295" data-name="Path 12295" d="M761.977,4418.027a5.527,5.527,0,0,0-.312.5c-1.527,2.832.064,6.652,3.553,8.539l28.355,15.324c3.49,1.889,7.559,1.125,9.088-1.7a4.61,4.61,0,0,0,.245-.533Z" transform="translate(-749.573 -4336.721)" fill="#e6e6e6"/>
      </g>
    </g>
  </g>
</svg>
