<svg xmlns="http://www.w3.org/2000/svg" xmlns:xlink="http://www.w3.org/1999/xlink" width="200" height="200" viewBox="0 0 200 200">
  <defs>
    <clipPath id="clip-path">
      <circle id="Ellipse_5" data-name="Ellipse 5" cx="100" cy="100" r="100" fill="#fac00b"/>
    </clipPath>
    <clipPath id="clip-path-2">
      <circle id="Ellipse_5-2" data-name="Ellipse 5" cx="88.717" cy="88.717" r="88.717" fill="none" stroke="#fff" stroke-width="8"/>
    </clipPath>
    <clipPath id="clip-Manageability">
      <rect width="200" height="200"/>
    </clipPath>
  </defs>
  <g id="Manageability" clip-path="url(#clip-Manageability)">
    <g id="Group_472" data-name="Group 472">
      <circle id="Ellipse_24" data-name="Ellipse 24" cx="100" cy="100" r="100" fill="#fac00b"/>
    </g>
    <g id="Group_480" data-name="Group 480" transform="translate(11.283 11.283)" opacity="0.301">
      <circle id="Ellipse_24-2" data-name="Ellipse 24" cx="88.717" cy="88.717" r="88.717" fill="none" stroke="#fff" stroke-width="8"/>
    </g>
    <g id="Group_482" data-name="Group 482" transform="translate(46.002 46)">
      <path id="Path_663" data-name="Path 663" d="M37.464,71.6c-.146-.488-.233-.991-.364-1.486-1.508.124-3.088.2-4.742.2-13.817,0-22.98-4.734-22.98-7.859V56.4c5.725,3.4,14.48,5.222,22.98,5.222,1.326,0,2.644-.124,3.97-.211a29.611,29.611,0,0,1,1.158-6.038l-.568-.32c-1.457.109-2.972.189-4.56.189-13.817,0-22.98-4.727-22.98-7.859v-6.06C14.55,44.393,22.2,46.1,29.9,46.41l3.635-6.3c-.4.007-.765.051-1.18.051-13.817,0-22.98-4.727-22.98-7.852V26.242c5.725,3.409,14.48,5.222,22.987,5.222s17.255-1.814,22.98-5.222v6.067c0,2.8-7.451,6.883-18.988,7.684l7.509,4.334A27.813,27.813,0,0,1,57.9,36.359V25.171h3.817V17.232C61.719,7.989,46.6,3,32.366,3S3,7.989,3,17.232V62.456c0,8.5,12.783,13.344,25.9,14.079ZM32.366,9.38c13.81,0,22.98,4.727,22.98,7.852s-9.17,7.859-22.98,7.859S9.378,20.357,9.378,17.232,18.541,9.38,32.366,9.38Z" transform="translate(0)" fill="#fff"/>
      <path id="Path_664" data-name="Path 664" d="M56.107,88.6H36.973V76.745a30.876,30.876,0,0,1-11.384-6.5l-10.2,5.892L5.821,59.563,16,53.685a27.04,27.04,0,0,1,.022-13.154l-10.2-5.892,9.563-16.57L25.64,23.99a30.8,30.8,0,0,1,11.333-6.446V5.606H56.107V17.755A31,31,0,0,1,67.1,24.187l10.59-6.118,9.571,16.57L76.581,40.8A27.021,27.021,0,0,1,76.6,53.416l10.656,6.147-9.571,16.57L67.149,70.044a30.859,30.859,0,0,1-11.042,6.49Zm-12.754-6.38h6.373V71.639l2.433-.6A24.588,24.588,0,0,0,64.3,63.9l1.726-1.865,9.33,5.39,3.19-5.521-9.41-5.426.707-2.411a24.265,24.265,0,0,0,1.122-6.919,24.261,24.261,0,0,0-1.144-6.985l-.714-2.4,9.44-5.448-3.19-5.528-9.367,5.412-1.734-1.85a24.6,24.6,0,0,0-12.1-7.094l-2.433-.6V11.986H43.354V22.54l-2.491.554a24.565,24.565,0,0,0-12.426,7.058L26.71,31.973,17.722,26.78l-3.19,5.528,9,5.2-.743,2.425a24.267,24.267,0,0,0-1.209,7.211,24.122,24.122,0,0,0,1.195,7.145l.736,2.425L14.532,61.9l3.19,5.521,8.944-5.164,1.726,1.828A24.591,24.591,0,0,0,40.863,71.2l2.491.554Z" transform="translate(17.739 16.375)" fill="#fff"/>
      <path id="Path_665" data-name="Path 665" d="M26.077,42.976A17,17,0,1,1,43.084,25.969,17.025,17.025,0,0,1,26.077,42.976Zm0-27.634A10.627,10.627,0,1,0,36.7,25.969,10.643,10.643,0,0,0,26.077,15.342Z" transform="translate(38.198 37.507)" fill="#fff"/>
    </g>
  </g>
</svg>
