<svg xmlns="http://www.w3.org/2000/svg" xmlns:xlink="http://www.w3.org/1999/xlink" width="200" height="200" viewBox="0 0 200 200">
  <defs>
    <clipPath id="clip-path">
      <circle id="Ellipse_5" data-name="Ellipse 5" cx="100" cy="100" r="100"/>
    </clipPath>
    <clipPath id="clip-PARMSS">
      <rect width="200" height="200"/>
    </clipPath>
  </defs>
  <g id="PARMSS" clip-path="url(#clip-PARMSS)">
    <g id="Group_472" data-name="Group 472">
      <circle id="Ellipse_24" data-name="Ellipse 24" cx="100" cy="100" r="100" fill="#00aeff"/>
    </g>
    <g id="Group_118" data-name="Group 118" transform="translate(60.165 60.196)">
      <path id="Path_93" data-name="Path 93" d="M53.885,118.7a28.235,28.235,0,1,0,19.986,8.271A28.182,28.182,0,0,0,53.885,118.7Z" transform="translate(-14.182 -107.254)" fill="#f7f8fc"/>
      <g id="Group_117" data-name="Group 117">
        <g id="Group_114" data-name="Group 114" transform="translate(17.795 17.795)">
          <rect id="Rectangle_44" data-name="Rectangle 44" width="0.537" height="3.04" transform="translate(21.685)" fill="#30363d"/>
          <rect id="Rectangle_45" data-name="Rectangle 45" width="0.537" height="3.04" transform="matrix(0.986, -0.168, 0.168, 0.986, 17.899, 0.33)" fill="#30363d"/>
          <rect id="Rectangle_46" data-name="Rectangle 46" width="0.537" height="3.04" transform="matrix(0.939, -0.343, 0.343, 0.939, 14.21, 1.392)" fill="#30363d"/>
          <rect id="Rectangle_47" data-name="Rectangle 47" width="0.537" height="3.04" transform="translate(10.77 3.012) rotate(-29.98)" fill="#30363d"/>
          <rect id="Rectangle_48" data-name="Rectangle 48" width="0.537" height="3.04" transform="matrix(0.766, -0.643, 0.643, 0.766, 7.654, 5.215)" fill="#30363d"/>
          <rect id="Rectangle_49" data-name="Rectangle 49" width="0.537" height="3.04" transform="translate(4.991 7.986) rotate(-49.945)" fill="#30363d"/>
          <path id="Path_94" data-name="Path 94" d="M49.006,158.22l-.268.447L46.1,157.192l.268-.492Z" transform="translate(-43.283 -146.059)" fill="#30363d"/>
          <path id="Path_95" data-name="Path 95" d="M45.6,165.428l-.179.492L42.6,164.892l.179-.492Z" transform="translate(-41.348 -150.316)" fill="#30363d"/>
          <path id="Path_96" data-name="Path 96" d="M43.54,173.137l-.089.536-2.951-.536.089-.537Z" transform="translate(-40.187 -154.85)" fill="#30363d"/>
          <rect id="Rectangle_50" data-name="Rectangle 50" width="3.04" height="0.537" transform="translate(0 21.55)" fill="#30363d"/>
          <rect id="Rectangle_51" data-name="Rectangle 51" width="3.04" height="0.537" transform="translate(0.283 25.351) rotate(-10.16)" fill="#30363d"/>
          <rect id="Rectangle_52" data-name="Rectangle 52" width="3.04" height="0.537" transform="matrix(0.94, -0.342, 0.342, 0.94, 1.209, 29.058)" fill="#30363d"/>
          <rect id="Rectangle_53" data-name="Rectangle 53" width="3.04" height="0.537" transform="matrix(0.865, -0.501, 0.501, 0.865, 2.746, 32.548)" fill="#30363d"/>
          <path id="Path_97" data-name="Path 97" d="M53.125,208.4l.313.4-2.325,1.967-.313-.4Z" transform="translate(-45.882 -174.644)" fill="#30363d"/>
          <path id="Path_98" data-name="Path 98" d="M58.667,213.7l.4.358L57.1,216.383l-.4-.358Z" transform="translate(-49.144 -177.574)" fill="#30363d"/>
          <path id="Path_99" data-name="Path 99" d="M65.12,218l.492.268-1.52,2.638-.492-.268Z" transform="translate(-52.959 -179.951)" fill="#30363d"/>
          <rect id="Rectangle_54" data-name="Rectangle 54" width="3.04" height="0.537" transform="translate(14.09 42.323) rotate(-70.239)" fill="#30363d"/>
          <rect id="Rectangle_55" data-name="Rectangle 55" width="3.04" height="0.537" transform="translate(17.758 43.4) rotate(-80.032)" fill="#30363d"/>
          <rect id="Rectangle_56" data-name="Rectangle 56" width="0.537" height="3.04" transform="translate(21.55 40.731)" fill="#30363d"/>
          <rect id="Rectangle_57" data-name="Rectangle 57" width="0.537" height="3.04" transform="translate(24.876 40.525) rotate(-9.904)" fill="#30363d"/>
          <path id="Path_100" data-name="Path 100" d="M102.5,221.479l.492-.179,1.073,2.861-.537.179Z" transform="translate(-74.467 -181.776)" fill="#30363d"/>
          <rect id="Rectangle_58" data-name="Rectangle 58" width="0.537" height="3.04" transform="matrix(0.865, -0.501, 0.501, 0.865, 31.024, 38.395)" fill="#30363d"/>
          <path id="Path_101" data-name="Path 101" d="M115.3,214.213l.4-.313,1.967,2.325-.4.313Z" transform="translate(-81.544 -177.685)" fill="#30363d"/>
          <rect id="Rectangle_59" data-name="Rectangle 59" width="0.537" height="3.04" transform="translate(36.15 34.275) rotate(-50.112)" fill="#30363d"/>
          <rect id="Rectangle_60" data-name="Rectangle 60" width="0.537" height="3.04" transform="translate(38.092 31.603) rotate(-60.153)" fill="#30363d"/>
          <path id="Path_102" data-name="Path 102" d="M128.2,196.337l.179-.537,2.817,1.028-.179.536Z" transform="translate(-88.676 -167.677)" fill="#30363d"/>
          <path id="Path_103" data-name="Path 103" d="M130.2,189.237l.089-.537,3,.537-.089.536Z" transform="translate(-89.782 -163.752)" fill="#30363d"/>
          <rect id="Rectangle_61" data-name="Rectangle 61" width="3.04" height="0.537" transform="translate(40.776 21.685)" fill="#30363d"/>
          <path id="Path_104" data-name="Path 104" d="M130.334,173.928l-.134-.536,3-.492.089.537Z" transform="translate(-89.782 -155.016)" fill="#30363d"/>
          <path id="Path_105" data-name="Path 105" d="M128.479,166.165l-.179-.492,2.817-1.073.179.537Z" transform="translate(-88.731 -150.427)" fill="#30363d"/>
          <rect id="Rectangle_62" data-name="Rectangle 62" width="3.04" height="0.537" transform="translate(38.122 12.284) rotate(-29.929)" fill="#30363d"/>
          <rect id="Rectangle_63" data-name="Rectangle 63" width="3.04" height="0.537" transform="translate(36.207 9.578) rotate(-40.015)" fill="#30363d"/>
          <path id="Path_106" data-name="Path 106" d="M115.9,146.683l-.4-.358L117.467,144l.4.358Z" transform="translate(-81.654 -139.037)" fill="#30363d"/>
          <path id="Path_107" data-name="Path 107" d="M109.947,142.106l-.447-.268,1.475-2.638.492.268Z" transform="translate(-78.337 -136.383)" fill="#30363d"/>
          <path id="Path_108" data-name="Path 108" d="M103.292,138.7l-.492-.179,1.028-2.817.492.179Z" transform="translate(-74.632 -134.448)" fill="#30363d"/>
          <path id="Path_109" data-name="Path 109" d="M96.137,136.585,95.6,136.5l.537-3,.537.089Z" transform="translate(-70.652 -133.232)" fill="#30363d"/>
        </g>
        <path id="Path_110" data-name="Path 110" d="M64.115,164.234l7.645-7.645-3.174-4.873a38.9,38.9,0,0,0,2.37-4.2l5.634.268,2.817-10.418-5.186-2.638a42.6,42.6,0,0,0-.045-4.784l5.052-2.593-2.772-10.418-5.812.313a32.245,32.245,0,0,0-2.459-4.113l3.085-4.739-7.78-7.69-4.873,3.174a38.89,38.89,0,0,0-4.2-2.37l.268-5.634L44.263,93.1l-2.638,5.186a42.6,42.6,0,0,0-4.784.045l-2.593-5.052L23.831,96.051l.313,5.812a29.412,29.412,0,0,0-4.113,2.459l-4.739-3.085-7.69,7.69,3.174,4.873a38.89,38.89,0,0,0-2.37,4.2l-5.634-.268L0,128.2l5.186,2.638a34.107,34.107,0,0,0,.045,4.784L.224,138.213,3,148.63l5.812-.313a29.41,29.41,0,0,0,2.459,4.113L8.182,157.17l7.645,7.645,4.873-3.174a38.884,38.884,0,0,0,4.2,2.37l-.268,5.634,10.418,2.817,2.638-5.186a42.6,42.6,0,0,0,4.784-.045l2.593,5.008,10.418-2.772-.313-5.812a29.413,29.413,0,0,0,4.113-2.459Zm-5.5-12.519a26.778,26.778,0,1,1,0-37.87A26.769,26.769,0,0,1,58.615,151.715Z" transform="translate(0 -93.1)" fill="#30363d"/>
        <g id="Group_115" data-name="Group 115" transform="translate(35.858 29.241)">
          <path id="Path_111" data-name="Path 111" d="M87.89,177.045a3.845,3.845,0,1,0-3.845,3.845A3.845,3.845,0,0,0,87.89,177.045Zm-3.845,2.325a2.325,2.325,0,1,1,2.325-2.325A2.338,2.338,0,0,1,84.045,179.37Z" transform="translate(-80.2 -166.628)" fill="#ff9d27"/>
          <path id="Path_112" data-name="Path 112" d="M99.715,158.5l-7.467,10.06L89.7,165.967Z" transform="translate(-85.453 -158.5)" fill="#ff9d27"/>
        </g>
        <g id="Group_116" data-name="Group 116" transform="translate(8.864 8.853)">
          <path id="Path_113" data-name="Path 113" d="M50.664,174.556a30.828,30.828,0,1,1,21.729-9.032A30.43,30.43,0,0,1,50.664,174.556Zm0-59.062a28.235,28.235,0,1,0,19.986,8.271A28.181,28.181,0,0,0,50.664,115.493Z" transform="translate(-19.825 -112.9)" fill="#484f59"/>
        </g>
      </g>
    </g>
    <g id="Group_479" data-name="Group 479" transform="translate(0.395)">
      <g id="Group_464" data-name="Group 464" transform="translate(78.346 9.641)">
        <path id="Path_629" data-name="Path 629" d="M-384.842,612.677-406,587.634h10.651V555.105h10.507" transform="translate(406 -555.105)" fill="#ff0b69"/>
        <path id="Path_630" data-name="Path 630" d="M-332.5,612.677l21.158-25.044h-10.651V555.105H-332.5" transform="translate(353.658 -555.105)" fill="#dd025a"/>
      </g>
      <g id="Group_474" data-name="Group 474" transform="translate(164.245 31.905) rotate(60)">
        <path id="Path_629-2" data-name="Path 629" d="M21.158,57.572,0,32.528H10.651V0H21.158" fill="#00a859"/>
        <path id="Path_630-2" data-name="Path 630" d="M0,57.572,21.158,32.528H10.507V0H0" transform="translate(21.158 0)" fill="#008f4c"/>
      </g>
      <g id="Group_478" data-name="Group 478" transform="translate(84.621 60.691) rotate(120)">
        <path id="Path_629-3" data-name="Path 629" d="M21.158,0,0,25.044H10.651V57.572H21.158" transform="translate(0 0)" fill="#005980"/>
        <path id="Path_630-3" data-name="Path 630" d="M0,0,21.158,25.044H10.507V57.572H0" transform="translate(21.158 0)" fill="#006d9a"/>
      </g>
      <g id="Group_475" data-name="Group 475" transform="translate(185.403 131.08) rotate(120)">
        <path id="Path_629-4" data-name="Path 629" d="M21.158,57.572,0,32.528H10.651V0H21.158" fill="#5d468a"/>
        <path id="Path_630-4" data-name="Path 630" d="M0,57.572,21.158,32.528H10.507V0H0" transform="translate(21.158 0)" fill="#6e53a3"/>
      </g>
      <g id="Group_477" data-name="Group 477" transform="translate(63.464 102.294) rotate(60)">
        <path id="Path_629-5" data-name="Path 629" d="M21.158,0,0,25.044H10.651V57.572H21.158" transform="translate(0 0)" fill="#f05323"/>
        <path id="Path_630-5" data-name="Path 630" d="M0,0,21.158,25.044H10.507V57.572H0" transform="translate(21.158 0)" fill="#d64b20"/>
      </g>
      <g id="Group_476" data-name="Group 476" transform="translate(78.346 133.219)">
        <path id="Path_629-6" data-name="Path 629" d="M21.158,0,0,25.044H10.651V57.572H21.158" transform="translate(0 0)" fill="#fac00b"/>
        <path id="Path_630-6" data-name="Path 630" d="M0,0,21.158,25.044H10.507V57.572H0" transform="translate(21.158 0)" fill="#e0ab09"/>
      </g>
    </g>
  </g>
</svg>
