<svg xmlns="http://www.w3.org/2000/svg" xmlns:xlink="http://www.w3.org/1999/xlink" width="200" height="200" viewBox="0 0 200 200">
  <defs>
    <clipPath id="clip-path">
      <circle id="Ellipse_47" data-name="Ellipse 47" cx="100" cy="100" r="100" fill="#00aeff"/>
    </clipPath>
    <linearGradient id="linear-gradient" x1="0.107" y1="0.117" x2="0.539" y2="0.636" gradientUnits="objectBoundingBox">
      <stop offset="0" stop-color="#00455f"/>
      <stop offset="0.64" stop-color="#008cc0" stop-opacity="0.329"/>
      <stop offset="1" stop-color="#00aeef" stop-opacity="0"/>
    </linearGradient>
    <clipPath id="clip-path-2">
      <path id="Path_218" data-name="Path 218" d="M220.032,224.168l1.662-37.988H210.3l1.67,37.988ZM216,230.1c-4.037,0-7.005,3.087-7.005,7.362,0,4.148,2.85,7.362,7.005,7.362,4.274,0,7.005-3.213,7.005-7.362,0-4.26-2.731-7.347-7.005-7.347Z" transform="translate(-208.99 -186.18)" fill="none"/>
    </clipPath>
    <clipPath id="clip-path-3">
      <path id="path4080-9-0-8" d="M194.511,115.64c-26.389,0-26.07,23-26.07,23l-.163,12.237c-2.16,0-2.672,2.108-2.672,6.367,0,6.389,3.9,13.068,7.421,16.519a28.756,28.756,0,0,0,6.642,12.838l-.334.193h0c-10.515,6.419-23.049,10.76-31.242,15.109a20.438,20.438,0,0,0-6.619,5.937,39.069,39.069,0,0,0-3.48,5.848l-.111.215-.4.861A52.348,52.348,0,0,0,133.4,228.06a1.639,1.639,0,0,0-.045.252c-.037.215-.082.43-.111.646-.141.787-.275,1.558-.386,2.33a16.643,16.643,0,0,0-.171,2.657.744.744,0,0,0,0,.126c-.3,4.133,7.473,5.484,7.473,5.484a114.9,114.9,0,0,0,14.745,2.679,266.43,266.43,0,0,0,35.064,2.916c1.135,0,2.315.059,3.547.059h2.1c1.224,0,2.412,0,3.54-.059a267.481,267.481,0,0,0,35.057-2.916,114.228,114.228,0,0,0,14.76-2.679s7.762-1.351,7.473-5.484a.738.738,0,0,1,0-.126,15.832,15.832,0,0,0-.171-2.657c-.156-1.106-.334-2.226-.549-3.347a51.731,51.731,0,0,0-4.69-14.463l-.074-.156a39.326,39.326,0,0,0-3.287-5.477,20.556,20.556,0,0,0-6.634-5.937c-8.163-4.349-20.727-8.69-31.242-15.109h0l-.334-.193a28.83,28.83,0,0,0,6.523-12.816c3.54-3.451,7.421-10.13,7.421-16.519,0-4.26-.527-6.4-2.679-6.367l-.163-12.237s.327-23-26.062-23Z" transform="translate(-132.679 -115.64)" fill="none"/>
    </clipPath>
    <clipPath id="clip-Patient_Safety">
      <rect width="200" height="200"/>
    </clipPath>
  </defs>
  <g id="Patient_Safety" data-name="Patient Safety" clip-path="url(#clip-Patient_Safety)">
    <circle id="Ellipse_24" data-name="Ellipse 24" cx="100" cy="100" r="100" fill="#00aeff"/>
    <g id="Patient_Safety_Icon" data-name="Patient Safety Icon" clip-path="url(#clip-path)">
      <g id="Asset_2" data-name="Asset 2" transform="translate(442.825 -17.785)">
        <path id="Path_215" data-name="Path 215" d="M399.8,371.666a.643.643,0,0,1,0-.119,16.594,16.594,0,0,0-.171-2.657c-.163-1.106-.341-2.226-.557-3.347a51.337,51.337,0,0,0-4.69-14.463,1.594,1.594,0,0,0-.074-.163,39.229,39.229,0,0,0-3.28-5.469,22.445,22.445,0,0,0-3.043-3.384c-.23-.23-.468-.453-.7-.668s-.468-.453-.705-.668-.475-.453-.742-.668-.467-.453-.7-.668-.468-.453-.705-.668-.475-.453-.742-.668-.467-.453-.742-.668-.468-.453-.705-.668-.475-.453-.742-.668-.468-.453-.7-.668-.467-.453-.705-.675-.475-.445-.742-.66-.468-.453-.705-.675-.467-.445-.705-.668-.475-.453-.742-.668-.468-.453-.705-.668-.467-.453-.7-.668-.468-.453-.742-.668-.468-.453-.742-.668-.467-.453-.7-.668-.468-.453-.7-.668l-.742-.668a8.146,8.146,0,0,0-.742-.668c-.275-.215-.468-.453-.705-.668s-.475-.453-.742-.668-.467-.453-.7-.668-.468-.453-.705-.668l-.742-.668c-.23-.23-.467-.453-.7-.668s-.468-.453-.7-.668-.475-.453-.742-.668-.467-.453-.7-.668-.468-.453-.705-.668l-.742-.668a7.187,7.187,0,0,0-.742-.668c-.275-.215-.467-.453-.705-.668s-.467-.453-.7-.668-.475-.453-.742-.668-.467-.453-.742-.668-.467-.453-.7-.668-.475-.453-.742-.668a4.133,4.133,0,0,1-.438-.423,29.98,29.98,0,0,0,.839-2.879c3.54-3.451,7.421-10.137,7.421-16.519,0-3.4-.341-5.44-1.573-6.115a1.945,1.945,0,0,0-.7-.668,2.33,2.33,0,0,0-.416-.468l-.148-11.361s.134-10.137-7.48-16.957a9.826,9.826,0,0,0-.742-.668c-.23-.23-.46-.453-.7-.668s-.46-.453-.7-.668-.468-.453-.742-.668-.46-.453-.742-.668-.46-.453-.7-.668-.468-.453-.742-.668-.46-.453-.705-.668-.46-.453-.742-.668-.468-.453-.742-.675-.46-.445-.705-.668-.46-.445-.7-.668l-.742-.668-.742-.668c-.23-.223-.46-.445-.7-.668l-.742-.668c-.223-.223-.46-.445-.7-.668s-.46-.445-.705-.668-.46-.445-.705-.668l-.742-.668a9.561,9.561,0,0,0-.742-.668c-.282-.223-36.1-37.12-36.355-37.313s-.46-.445-.7-.668l-.742-.668c-.23-.223-.46-.445-.705-.668s-.46-.445-.742-.668l-.742-.668c-.23-.223-.46-.445-.7-.668s-.46-.453-.705-.668-.468-.453-.742-.668-.46-.453-.7-.668-.46-.453-.7-.668-.468-.453-.742-.668-.46-.453-.7-.668-.46-.453-.705-.668-.468-.453-.742-.668-.46-.453-.7-.668-.46-.453-.742-.668-.46-.453-.705-.668-.468-.453-.742-.668-.46-.453-.7-.668-.46-.453-.742-.668-.467-.453-.742-.675-.46-.445-.7-.668-.46-.445-.7-.668l-.742-.668c-.23-.223-.46-.445-.705-.668s-.46-.445-.7-.668l-.742-.668c-.23-.223-.46-.445-.705-.668s-.46-.445-.705-.668l-.742-.668c-.223-.223-.46-.445-.7-.668s-.46-.445-.742-.668l-.742-.668c-.223-.223-.46-.445-.7-.668s-.46-.445-.705-.668-.46-.445-.742-.668l-.742-.668c-.23-.223-.46-.453-.7-.668s-.46-.453-.7-.668-.468-.453-.742-.668-.46-.453-.7-.668-.46-.453-.705-.668-.467-.453-.742-.668-.46-.453-.7-.668-.46-.453-.705-.668-.468-.453-.742-.668-.46-.453-.705-.668-.46-.453-.742-.668-.468-.453-.742-.668-.46-.453-.7-.668-.46-.453-.705-.668-.468-.453-.742-.675-.46-.445-.705-.668-.46-.445-.7-.668l-.7-.668-.742-.668c-.23-.223-.46-.445-.705-.668s-.46-.445-.7-.668l-.742-.668c-.23-.223-.46-.445-.7-.668s-.46-.445-.7-.668l-.742-.668c-.23-.223-.46-.445-.7-.668s-.46-.445-.742-.668l-.742-.668c-.223-.223-.46-.445-.7-.668s-.46-.445-.7-.668l-.742-.668c-.223-.223-.46-.453-.7-.668s-.46-.453-.7-.668-.468-.453-.742-.668-.46-.453-.705-.668-.46-.453-.7-.668-.468-.453-.742-.668-.46-.453-.742-.668-.46-.453-.7-.668-.46-.453-.705-.668-.468-.453-.742-.668-.46-.453-.705-.668-.46-.453-.742-.668-.468-.453-.742-.668-.46-.453-.705-.668-.46-.453-.705-.668-.467-.453-.742-.675-.46-.445-.705-.668-.46-.445-.7-.668l-.742-.668c-.223-.223-.46-.445-.7-.668s-.46-.445-.705-.668l-.742-.668a8.364,8.364,0,0,0-.742-.668c-.282-.223-.46-.445-.7-.668l-.705-.668-.742-.668c-.23-.223-.46-.445-.7-.668s-.46-.445-.742-.668l-.742-.668c-.23-.223-.46-.445-.705-.668s-.46-.445-.7-.668-.468-.453-.742-.668-.46-.453-.705-.668-.46-.453-.705-.668-.468-.453-.742-.668-.46-.453-.705-.668-.46-.453-.705-.668-.467-.453-.742-.668-.46-.453-.742-.668-.46-.453-.705-.668-.468-.453-.742-.668-.46-.453-.7-.668-.46-.453-.705-.668-.468-.453-.742-.668-.46-.453-.7-.668-.46-.453-.7-.675l-.742-.668-.742-.668c-.23-.223-.46-.445-.7-.668s-.46-.445-.7-.668l-.742-.668a9.558,9.558,0,0,0-.742-.668c-.282-.223-.46-.445-.705-.668l-.742-.668c-.23-.223-.46-.445-.705-.668s-.46-.445-.7-.668l-.742-.668a8.361,8.361,0,0,0-.742-.668c-.282-.223-.46-.445-.7-.668l-.742-.668c-3.837-3.785-9.848-6.738-19.294-6.738h0c-26.389,0-26.062,23-26.062,23l-.171,12.237c-2.16,0-2.672,2.108-2.672,6.367,0,6.389,3.9,13.068,7.421,16.519a28.756,28.756,0,0,0,8.423,12.808l-.334.193c-10.515,6.419-23.049,10.76-31.242,15.109a20.438,20.438,0,0,0-6.619,5.937A39.069,39.069,0,0,0,138,213.7l-.111.215-.4.861A52.348,52.348,0,0,0,133.4,228.07a1.639,1.639,0,0,0-.045.252c-.037.215-.082.43-.111.646-.141.787-.275,1.558-.386,2.33a16.643,16.643,0,0,0-.171,2.657.741.741,0,0,0,0,.126,3.614,3.614,0,0,0,1.6,3.1,6.108,6.108,0,0,0,.742.668,6.107,6.107,0,0,0,2.152,2,5.566,5.566,0,0,0,2.152,2,38.44,38.44,0,0,0,1.447,1.336,5.56,5.56,0,0,0,.742.668,5.5,5.5,0,0,0,2.152,2,116.831,116.831,0,0,1,2.894,2.672,38.436,38.436,0,0,0,1.447,1.336,6.107,6.107,0,0,0,.742.668,5.5,5.5,0,0,0,.7.668,5.032,5.032,0,0,0,.7.668,5.536,5.536,0,0,0,.742.668,4.683,4.683,0,0,0,2.152,2,4.631,4.631,0,0,0,.705.668,5.076,5.076,0,0,0,.7.675,5.564,5.564,0,0,0,.742.668,113.25,113.25,0,0,1,2.152,2,116.536,116.536,0,0,1,2.894,2.672,6.108,6.108,0,0,0,2.152,2,38.569,38.569,0,0,0,1.447,1.336,6.111,6.111,0,0,0,.742.668,5.566,5.566,0,0,0,2.152,2,5.566,5.566,0,0,0,2.152,2,808326.514,808326.514,0,0,1,1.41,1.336,5.5,5.5,0,0,0,.742.668,6.106,6.106,0,0,0,.742.668,21283.95,21283.95,0,0,1,1.41,1.336,5.537,5.537,0,0,0,.742.668,5.033,5.033,0,0,0,.705.668,4.631,4.631,0,0,0,.742.668q.716.664,1.417,1.343a5.5,5.5,0,0,0,.7.668,6.111,6.111,0,0,0,.742.668,38.456,38.456,0,0,0,1.447,1.336,6.11,6.11,0,0,0,.742.668,42569.281,42569.281,0,0,1,1.41,1.336,5.567,5.567,0,0,0,.742.668,38.434,38.434,0,0,1,1.447,1.336,6.032,6.032,0,0,0,.7.668,6.108,6.108,0,0,0,.742.668,38.618,38.618,0,0,0,1.447,1.336,6.108,6.108,0,0,0,.742.668,809043.908,809043.908,0,0,1,1.41,1.336,116.4,116.4,0,0,1,2.894,2.672,28884.986,28884.986,0,0,1,1.41,1.336,6.108,6.108,0,0,0,.742.668,5.5,5.5,0,0,0,.742.668,5.031,5.031,0,0,0,.7.668,5.094,5.094,0,0,0,.742.668,5.036,5.036,0,0,0,.7.668,4.63,4.63,0,0,0,.7.668,5.009,5.009,0,0,0,.742.668,5.588,5.588,0,0,0,.742.675,89867.755,89867.755,0,0,1,1.41,1.336,6.1,6.1,0,0,0,.742.668,38.523,38.523,0,0,0,1.447,1.336,6.108,6.108,0,0,0,.742.668,808326.532,808326.532,0,0,1,1.41,1.336,6.111,6.111,0,0,0,.742.668,38.551,38.551,0,0,1,1.447,1.336,6.108,6.108,0,0,0,.742.668,809349.163,809349.163,0,0,1,1.41,1.336,5.566,5.566,0,0,0,.742.668,6.033,6.033,0,0,0,2.115,2c.215.237,37.031,37.1,37.3,37.342a14189.76,14189.76,0,0,1,1.41,1.336,6.037,6.037,0,0,0,.705.668,6.109,6.109,0,0,0,.742.668,42569.281,42569.281,0,0,0,1.41,1.336,6.11,6.11,0,0,0,.742.668,5.5,5.5,0,0,0,.7.668,5.03,5.03,0,0,0,.7.668,5.537,5.537,0,0,0,.742.668,5.031,5.031,0,0,0,.742.668,4.631,4.631,0,0,0,.7.668q.716.664,1.417,1.343a5.5,5.5,0,0,0,.7.668,6.109,6.109,0,0,0,.742.668,14705.6,14705.6,0,0,1,1.41,1.336,5.564,5.564,0,0,0,.742.668,40438.964,40438.964,0,0,1,1.41,1.336,5.5,5.5,0,0,0,.705.668,6.1,6.1,0,0,0,.742.668,14442.432,14442.432,0,0,1,1.41,1.336,116.181,116.181,0,0,1,2.894,2.672,14189.2,14189.2,0,0,1,1.41,1.336,6.107,6.107,0,0,0,.742.668,21860.24,21860.24,0,0,1,1.41,1.336,6.109,6.109,0,0,0,.742.668,10929.635,10929.635,0,0,1,1.41,1.336,5.567,5.567,0,0,0,.742.668,5.5,5.5,0,0,0,.742.668,5.034,5.034,0,0,0,.705.668,5.473,5.473,0,0,0,.705.668c2,2.226,6.59,3.057,6.59,3.057a116.054,116.054,0,0,0,14.738,2.679,266.418,266.418,0,0,0,35.071,2.909q1.692.052,3.54.067h2.1c1.232,0,2.412,0,3.54-.067a266.2,266.2,0,0,0,35.056-2.909,114.4,114.4,0,0,0,14.768-2.679C392.333,377.135,400.073,375.806,399.8,371.666Z" transform="translate(-537.271 -69.895)" opacity="0.8" fill="url(#linear-gradient)"/>
        <path id="path4080-9-0-8-2" data-name="path4080-9-0-8" d="M196.511,118.64c-26.389,0-26.062,23-26.062,23l-.171,12.237c-2.159,0-2.672,2.115-2.672,6.375,0,6.382,3.9,13.061,7.421,16.519a28.875,28.875,0,0,0,6.642,12.838l-.334.193h0c-10.515,6.412-23.049,10.76-31.242,15.1a20.511,20.511,0,0,0-6.619,5.937,39.712,39.712,0,0,0-3.48,5.848l-.111.223-.4.853a52.31,52.31,0,0,0-4.082,13.3,2.551,2.551,0,0,0-.045.252l-.111.638c-.141.787-.275,1.558-.386,2.33a16.647,16.647,0,0,0-.171,2.657.741.741,0,0,0,0,.126c-.3,4.133,7.48,5.484,7.48,5.484a115.5,115.5,0,0,0,14.738,2.686,266.422,266.422,0,0,0,35.071,2.909c1.128.037,2.308.059,3.54.059h2.1c1.232,0,2.412,0,3.54-.059a266.2,266.2,0,0,0,35.057-2.909,115.672,115.672,0,0,0,14.768-2.686s7.755-1.343,7.465-5.484a.738.738,0,0,1,0-.126,16.647,16.647,0,0,0-.163-2.657c-.163-1.1-.341-2.226-.557-3.347a51.731,51.731,0,0,0-4.69-14.463,1.481,1.481,0,0,0-.074-.156,39.328,39.328,0,0,0-3.287-5.477,20.474,20.474,0,0,0-6.634-5.937c-8.163-4.349-20.727-8.69-31.242-15.1h0l-.334-.2a28.756,28.756,0,0,0,6.523-12.816c3.54-3.451,7.421-10.13,7.421-16.512,0-4.26-.527-6.4-2.679-6.375l-.156-12.237s.319-23-26.07-23Z" transform="translate(-537.784 -70.658)" fill="#0a698c"/>
        <path id="path4080-9-0-8-3" data-name="path4080-9-0-8" d="M194.511,115.64c-26.389,0-26.07,23-26.07,23l-.163,12.237c-2.16,0-2.672,2.108-2.672,6.367,0,6.389,3.9,13.068,7.421,16.519a28.756,28.756,0,0,0,6.642,12.838l-.334.193h0c-10.515,6.419-23.049,10.76-31.242,15.109a20.438,20.438,0,0,0-6.619,5.937,39.069,39.069,0,0,0-3.48,5.848l-.111.215-.4.861A52.348,52.348,0,0,0,133.4,228.06a1.639,1.639,0,0,0-.045.252c-.037.215-.082.43-.111.646-.141.787-.275,1.558-.386,2.33a16.643,16.643,0,0,0-.171,2.657.744.744,0,0,0,0,.126c-.3,4.133,7.473,5.484,7.473,5.484a114.9,114.9,0,0,0,14.745,2.679,266.43,266.43,0,0,0,35.064,2.916c1.135,0,2.315.059,3.547.059h2.1c1.224,0,2.412,0,3.54-.059a267.481,267.481,0,0,0,35.057-2.916,114.228,114.228,0,0,0,14.76-2.679s7.762-1.351,7.473-5.484a.738.738,0,0,1,0-.126,15.832,15.832,0,0,0-.171-2.657c-.156-1.106-.334-2.226-.549-3.347a51.731,51.731,0,0,0-4.69-14.463l-.074-.156a39.326,39.326,0,0,0-3.287-5.477,20.556,20.556,0,0,0-6.634-5.937c-8.163-4.349-20.727-8.69-31.242-15.109h0l-.334-.193a28.83,28.83,0,0,0,6.523-12.816c3.54-3.451,7.421-10.13,7.421-16.519,0-4.26-.527-6.4-2.679-6.367l-.163-12.237s.327-23-26.062-23Z" transform="translate(-537.269 -69.884)" fill="#fff"/>
        <path id="Path_216" data-name="Path 216" d="M209,237.481c0-4.274,2.968-7.362,7.005-7.362,4.274,0,7.005,3.087,7.005,7.362,0,4.148-2.731,7.362-7.005,7.362C211.842,244.843,209,241.629,209,237.481Zm2.968-13.313-1.662-37.988h11.4l-1.662,37.988Z" transform="translate(-556.952 -88.077)" fill="#ff9d27"/>
        <g id="Group_166" data-name="Group 166" transform="translate(-347.96 98.103)" clip-path="url(#clip-path-2)">
          <path id="Path_217" data-name="Path 217" d="M206.259,182.907l1.447,40.7,5.195-.512s-1.135-28.63-1.6-33.847,6.5-6.441,6.909-6.337l.408-3.785Zm9.061,44.474-2.419-1.944-3.273.586s-5.959,9.41-5.632,9.506,5.432,8.163,5.432,8.163h5.937C204.834,234.95,215.32,227.381,215.32,227.381Z" transform="translate(-207.699 -184.362)" fill="#e58b22"/>
        </g>
        <g id="Group_167" data-name="Group 167" transform="translate(-404.59 45.756)" clip-path="url(#clip-path-3)">
          <path id="Path_219" data-name="Path 219" d="M189.211,110.491s-10.441,8.905-14.4,22.753-2.1,32.756,4.95,43.962-.245,16.645-13.113,27.035-13.3,30.515,11.287,39.991-47.4,6.471-47.4,6.471L105.05,231.445l15.584-31.168,30.923-23.042L147.1,149.6s10.857-31.658,9.647-31.413,18.8-15.087,18.8-15.087Z" transform="translate(-125.553 -112.406)" fill="#e6e7e8"/>
        </g>
        <circle id="Ellipse_46" data-name="Ellipse 46" cx="158.044" cy="158.044" r="158.044" transform="translate(-503.05 -40.06)" fill="none"/>
      </g>
    </g>
  </g>
</svg>
