<svg xmlns="http://www.w3.org/2000/svg" xmlns:xlink="http://www.w3.org/1999/xlink" width="200" height="200" viewBox="0 0 200 200">
  <defs>
    <clipPath id="clip-path">
      <circle id="Ellipse_47" data-name="Ellipse 47" cx="100" cy="100" r="100" fill="#00aeff"/>
    </clipPath>
    <clipPath id="clip-Patient_Safety">
      <rect width="200" height="200"/>
    </clipPath>
  </defs>
  <g id="Patient_Safety" data-name="Patient Safety" clip-path="url(#clip-Patient_Safety)">
    <circle id="Blue_300_Bg" data-name="Blue 300 Bg" cx="100" cy="100" r="100" transform="translate(0 -0.1)" fill="#005cb7"/>
    <g id="Patient_Safety_Icon" data-name="Patient Safety Icon" clip-path="url(#clip-path)">
      <g id="Asset_2" data-name="Asset 2" transform="translate(442.825 -17.785)">
        <path id="path4080-9-0-8" d="M194.511,115.64c-26.389,0-26.07,23-26.07,23l-.163,12.237c-2.16,0-2.672,2.108-2.672,6.367,0,6.389,3.9,13.068,7.421,16.519a28.756,28.756,0,0,0,6.642,12.838l-.334.193h0c-10.515,6.419-23.049,10.76-31.242,15.109a20.438,20.438,0,0,0-6.619,5.937,39.069,39.069,0,0,0-3.48,5.848l-.111.215-.4.861A52.348,52.348,0,0,0,133.4,228.06a1.639,1.639,0,0,0-.045.252c-.037.215-.082.43-.111.646-.141.787-.275,1.558-.386,2.33a16.643,16.643,0,0,0-.171,2.657.744.744,0,0,0,0,.126c-.3,4.133,7.473,5.484,7.473,5.484a114.9,114.9,0,0,0,14.745,2.679,266.43,266.43,0,0,0,35.064,2.916c1.135,0,2.315.059,3.547.059h2.1c1.224,0,2.412,0,3.54-.059a267.481,267.481,0,0,0,35.057-2.916,114.228,114.228,0,0,0,14.76-2.679s7.762-1.351,7.473-5.484a.738.738,0,0,1,0-.126,15.832,15.832,0,0,0-.171-2.657c-.156-1.106-.334-2.226-.549-3.347a51.731,51.731,0,0,0-4.69-14.463l-.074-.156a39.326,39.326,0,0,0-3.287-5.477,20.556,20.556,0,0,0-6.634-5.937c-8.163-4.349-20.727-8.69-31.242-15.109h0l-.334-.193a28.83,28.83,0,0,0,6.523-12.816c3.54-3.451,7.421-10.13,7.421-16.519,0-4.26-.527-6.4-2.679-6.367l-.163-12.237s.327-23-26.062-23Z" transform="translate(-537.269 -69.884)" fill="#fff"/>
        <path id="Path_216" data-name="Path 216" d="M209,237.481c0-4.274,2.968-7.362,7.005-7.362,4.274,0,7.005,3.087,7.005,7.362,0,4.148-2.731,7.362-7.005,7.362C211.842,244.843,209,241.629,209,237.481Zm2.968-13.313-1.662-37.988h11.4l-1.662,37.988Z" transform="translate(-556.952 -88.077)" fill="#5c97d1"/>
        <circle id="Ellipse_46" data-name="Ellipse 46" cx="158.044" cy="158.044" r="158.044" transform="translate(-503.05 -40.06)" fill="none"/>
      </g>
    </g>
  </g>
</svg>
