<svg xmlns="http://www.w3.org/2000/svg" xmlns:xlink="http://www.w3.org/1999/xlink" width="200" height="200" viewBox="0 0 200 200">
  <defs>
    <clipPath id="clip-path">
      <circle id="Ellipse_5" data-name="Ellipse 5" cx="100" cy="100" r="100" fill="#ff0b69"/>
    </clipPath>
    <clipPath id="clip-path-2">
      <circle id="Ellipse_5-2" data-name="Ellipse 5" cx="88.717" cy="88.717" r="88.717" fill="none" stroke="#fff" stroke-width="8"/>
    </clipPath>
    <clipPath id="clip-Performance">
      <rect width="200" height="200"/>
    </clipPath>
  </defs>
  <g id="Performance" clip-path="url(#clip-Performance)">
    <g id="Group_472" data-name="Group 472">
      <circle id="Ellipse_24" data-name="Ellipse 24" cx="100" cy="100" r="100" fill="#ff0b69"/>
    </g>
    <g id="Group_480" data-name="Group 480" transform="translate(11.283 11.283)" opacity="0.301">
      <circle id="Ellipse_24-2" data-name="Ellipse 24" cx="88.717" cy="88.717" r="88.717" fill="none" stroke="#fff" stroke-width="8"/>
    </g>
    <g id="Group_481" data-name="Group 481" transform="translate(46 46)">
      <path id="Path_654" data-name="Path 654" d="M9.622,17.6a4.651,4.651,0,0,1,3.206-5.741,4.547,4.547,0,0,1,.991-.168L36.71,8.862c3.118-.379,3.344.386.488,1.719l-20.939,9.8A4.576,4.576,0,0,1,10.03,18.6,4.509,4.509,0,0,1,9.622,17.6Z" transform="translate(40.51 36.235)" fill="#fff"/>
      <circle id="Ellipse_84" data-name="Ellipse 84" cx="6.497" cy="6.497" r="6.497" transform="translate(46.713 46.317)" fill="#fff"/>
      <path id="Path_655" data-name="Path 655" d="M11.72,5.414l-.951,7.127L9.818,5.414Z" transform="translate(42.857 15.174)" fill="#fff"/>
      <path id="Path_656" data-name="Path 656" d="M7.485,6.93,9.537,9.922l-3-2.041Z" transform="translate(22.217 24.706)" fill="#fff"/>
      <path id="Path_657" data-name="Path 657" d="M6.536,14.713l2.992-2.041L7.487,15.664Z" transform="translate(22.226 60.796)" fill="#fff"/>
      <path id="Path_658" data-name="Path 658" d="M16.117,7.881,13.125,9.922,15.166,6.93Z" transform="translate(63.645 24.706)" fill="#fff"/>
      <path id="Path_659" data-name="Path 659" d="M5.537,9.762l7.319.9-7.5.844Z" transform="translate(14.805 42.507)" fill="#fff"/>
      <path id="Path_660" data-name="Path 660" d="M40.072,73.986H38.28c-.59,0-1.3,0-2.135-.073l-2.922-.35c-1.064-.255-2.266-.5-3.548-.838l-1.96-.663c-.342-.117-.7-.219-1.071-.35l-1.071-.466a31.942,31.942,0,0,1-8.728-5.515A34.065,34.065,0,0,1,5.326,42.876L5.217,41.07V39.219l.08-1.785v-.9l.124-.925a29.173,29.173,0,0,1,.663-3.73l.459-1.829c.153-.619.423-1.195.612-1.8A34.649,34.649,0,0,1,42.833,5.348a34.039,34.039,0,0,1,22.8,11.584,31.809,31.809,0,0,1,5.508,8.728l.459,1.071c.131.35.24.692.357,1.064l.663,1.967c.342,1.282.576,2.484.831,3.548l.35,2.907c.109.845,0,1.574.08,2.135v1.8l-.153-1.785c-.073-.576-.066-1.3-.233-2.135L73,33.383c-.306-1.064-.6-2.2-1-3.439l-.75-1.9c-.131-.321-.255-.663-.393-.991l-.5-.984a33.323,33.323,0,0,0-5.727-8.189,34.068,34.068,0,0,0-9.391-7.009A33,33,0,0,0,10.907,25.449a33.366,33.366,0,0,0-1.552,3.592,16.535,16.535,0,0,0-.59,1.661l-.444,1.712a25.64,25.64,0,0,0-.663,3.4l-.153.78-.051.889-.109,1.785v1.69l.08,1.7A33.159,33.159,0,0,0,10.842,55.2a33.924,33.924,0,0,0,7.009,9.391,33.148,33.148,0,0,0,8.182,5.727l.984.5c.335.146.663.27,1,.408l1.887.743c1.239.408,2.4.7,3.446,1.005l2.841.525c.831.168,1.559.16,2.135.233Z" transform="translate(13.935 13.914)" fill="#fff"/>
      <g id="Ellipse_87" data-name="Ellipse 87" transform="translate(3 3)" fill="none" stroke="#fff" stroke-width="10">
        <circle cx="51" cy="51" r="51" stroke="none"/>
        <circle cx="51" cy="51" r="46" fill="none"/>
      </g>
    </g>
  </g>
</svg>
