<svg xmlns="http://www.w3.org/2000/svg" xmlns:xlink="http://www.w3.org/1999/xlink" width="200" height="200" viewBox="0 0 200 200">
  <defs>
    <clipPath id="clip-path">
      <circle id="Ellipse_63" data-name="Ellipse 63" cx="100" cy="100" r="100" fill="#00aeff"/>
    </clipPath>
    <linearGradient id="linear-gradient" x1="0.258" y1="0.238" x2="0.514" y2="0.517" gradientUnits="objectBoundingBox">
      <stop offset="0" stop-color="#00455f"/>
      <stop offset="0.37" stop-color="#006d93" stop-opacity="0.631"/>
      <stop offset="0.801" stop-color="#0099d2" stop-opacity="0.2"/>
      <stop offset="1" stop-color="#00aeef" stop-opacity="0"/>
    </linearGradient>
    <linearGradient id="linear-gradient-2" x1="0.09" y1="0.095" x2="0.481" y2="0.52" xlink:href="#linear-gradient"/>
    <linearGradient id="linear-gradient-3" x1="0.258" y1="0.238" x2="0.514" y2="0.517" xlink:href="#linear-gradient"/>
    <linearGradient id="linear-gradient-4" x1="0.007" y1="0.122" x2="0.535" y2="0.53" xlink:href="#linear-gradient"/>
    <linearGradient id="linear-gradient-5" x1="0.034" y1="0.061" x2="0.538" y2="0.54" xlink:href="#linear-gradient"/>
    <linearGradient id="linear-gradient-6" x1="-0.022" y1="0.071" x2="0.536" y2="0.534" xlink:href="#linear-gradient"/>
    <clipPath id="clip-path-2">
      <path id="Path_496" data-name="Path 496" d="M78,71.9V211.418H240.051V71.9ZM184.161,199.352a39.35,39.35,0,0,1-39.33-39.33c0-21.705,17.625-37.556,39.33-37.556s39.33,18.985,39.33,37.556A39.388,39.388,0,0,1,184.161,199.352Z" transform="translate(-78 -71.9)"/>
    </clipPath>
    <linearGradient id="linear-gradient-7" x1="-0.019" y1="0.116" x2="0.536" y2="0.531" xlink:href="#linear-gradient"/>
    <linearGradient id="linear-gradient-8" x1="0.034" y1="0.061" x2="0.539" y2="0.539" xlink:href="#linear-gradient"/>
    <linearGradient id="linear-gradient-9" x1="-0.021" y1="0.072" x2="0.536" y2="0.535" xlink:href="#linear-gradient"/>
    <linearGradient id="linear-gradient-10" x1="0.007" y1="0.122" x2="0.535" y2="0.53" xlink:href="#linear-gradient"/>
    <linearGradient id="linear-gradient-11" x1="0.033" y1="0.061" x2="0.538" y2="0.539" xlink:href="#linear-gradient"/>
    <linearGradient id="linear-gradient-12" x1="-0.022" y1="0.072" x2="0.536" y2="0.535" xlink:href="#linear-gradient"/>
    <linearGradient id="linear-gradient-13" x1="0.007" y1="0.122" x2="0.535" y2="0.53" xlink:href="#linear-gradient"/>
    <linearGradient id="linear-gradient-14" x1="0.034" y1="0.061" x2="0.539" y2="0.539" xlink:href="#linear-gradient"/>
    <linearGradient id="linear-gradient-19" x1="0.007" y1="0.122" x2="0.535" y2="0.531" xlink:href="#linear-gradient"/>
    <linearGradient id="linear-gradient-20" x1="0.034" y1="0.061" x2="0.539" y2="0.54" xlink:href="#linear-gradient"/>
    <linearGradient id="linear-gradient-21" x1="-0.021" y1="0.071" x2="0.536" y2="0.535" xlink:href="#linear-gradient"/>
    <linearGradient id="linear-gradient-22" x1="0.007" y1="0.122" x2="0.535" y2="0.531" xlink:href="#linear-gradient"/>
    <linearGradient id="linear-gradient-23" x1="0.033" y1="0.061" x2="0.538" y2="0.54" xlink:href="#linear-gradient"/>
    <linearGradient id="linear-gradient-24" x1="-0.022" y1="0.071" x2="0.536" y2="0.535" xlink:href="#linear-gradient"/>
    <linearGradient id="linear-gradient-35" x1="0.034" y1="0.061" x2="0.539" y2="0.54" xlink:href="#linear-gradient"/>
    <linearGradient id="linear-gradient-40" x1="-0.019" y1="0.116" x2="0.536" y2="0.531" xlink:href="#linear-gradient"/>
    <linearGradient id="linear-gradient-49" x1="-0.019" y1="0.116" x2="0.537" y2="0.531" xlink:href="#linear-gradient"/>
    <linearGradient id="linear-gradient-52" x1="-0.019" y1="0.116" x2="0.537" y2="0.531" xlink:href="#linear-gradient"/>
    <linearGradient id="linear-gradient-53" x1="0.034" y1="0.061" x2="0.539" y2="0.539" xlink:href="#linear-gradient"/>
    <linearGradient id="linear-gradient-55" x1="-0.019" y1="0.116" x2="0.536" y2="0.531" xlink:href="#linear-gradient"/>
    <clipPath id="clip-path-3">
      <path id="Path_436" data-name="Path 436" d="M119.939,112.441a2.721,2.721,0,1,0-2.721-2.721A2.677,2.677,0,0,0,119.939,112.441Zm7.57,11.3-2.129-7.452a4.09,4.09,0,0,0-3.489-3.016h-3.9a4.1,4.1,0,0,0-3.371,2.661h0l-2.247,7.807a1.141,1.141,0,0,0,2.188.651l2.129-7.452h.651l-3.194,11.592a.747.747,0,0,0,.769,1.005H117.1v9.522a1.242,1.242,0,1,0,2.484,0v-9.581h.71V139a1.242,1.242,0,0,0,2.484,0v-9.522h2.188a.773.773,0,0,0,.769-1.005l-3.194-11.592h.651l2.129,7.452a1.158,1.158,0,0,0,1.419.769A1.071,1.071,0,0,0,127.509,123.737Z" transform="translate(-112.322 -107)"/>
    </clipPath>
    <clipPath id="clip-path-4">
      <path id="Path_438" data-name="Path 438" d="M153.634,116.64a3.9,3.9,0,0,0-3.489-3.43h-5.855a3.956,3.956,0,0,0-3.489,3.43h0V117h0v7.984a1.124,1.124,0,0,0,2.247,0v-7.393h.591v21.35a1.484,1.484,0,0,0,2.957,0V126.4h.887v12.538a1.484,1.484,0,0,0,2.957,0v-21.35h.887v7.393a1.124,1.124,0,1,0,2.247,0l.059-8.339Zm-6.387-4.2a2.721,2.721,0,1,0-2.721-2.721A2.642,2.642,0,0,0,147.247,112.441Z" transform="translate(-140.8 -107)"/>
    </clipPath>
    <clipPath id="clip-path-5">
      <path id="Path_442" data-name="Path 442" d="M173.139,112.441a2.721,2.721,0,1,0-2.721-2.721A2.677,2.677,0,0,0,173.139,112.441Zm7.57,11.3-2.129-7.452a4.09,4.09,0,0,0-3.489-3.016h-3.9a4.1,4.1,0,0,0-3.371,2.661h0l-2.247,7.807a1.141,1.141,0,1,0,2.188.651l2.129-7.452h.651l-3.194,11.592a.747.747,0,0,0,.769,1.005H170.3v9.522a1.242,1.242,0,1,0,2.484,0v-9.581h.71V139a1.242,1.242,0,0,0,2.484,0v-9.522h2.188a.773.773,0,0,0,.769-1.005l-3.194-11.592h.651l2.129,7.452a1.158,1.158,0,0,0,1.419.769A1.071,1.071,0,0,0,180.709,123.737Z" transform="translate(-165.522 -107)"/>
    </clipPath>
    <clipPath id="clip-path-6">
      <path id="Path_444" data-name="Path 444" d="M206.834,116.64a3.9,3.9,0,0,0-3.489-3.43h-5.855A3.956,3.956,0,0,0,194,116.64h0V117h0v7.984a1.124,1.124,0,1,0,2.247,0v-7.393h.591v21.35a1.484,1.484,0,0,0,2.957,0V126.4h.887v12.538a1.484,1.484,0,0,0,2.957,0v-21.35h.887v7.393a1.124,1.124,0,1,0,2.247,0l.059-8.339Zm-6.387-4.2a2.721,2.721,0,1,0-2.721-2.721A2.642,2.642,0,0,0,200.447,112.441Z" transform="translate(-194 -107)"/>
    </clipPath>
    <clipPath id="clip-path-7">
      <path id="Path_448" data-name="Path 448" d="M146.179,172.241a2.721,2.721,0,1,0-2.721-2.721A2.713,2.713,0,0,0,146.179,172.241Zm7.629,11.3-2.129-7.452a4.09,4.09,0,0,0-3.489-3.016h-3.9a4.1,4.1,0,0,0-3.371,2.661h0l-2.247,7.807a1.141,1.141,0,0,0,2.188.651l2.129-7.452h.651l-3.194,11.592a.747.747,0,0,0,.769,1.005H143.4v9.522a1.242,1.242,0,1,0,2.484,0v-9.522h.71v9.522a1.242,1.242,0,1,0,2.484,0v-9.522h2.188a.773.773,0,0,0,.769-1.005l-3.194-11.592h.651l2.129,7.452a1.141,1.141,0,0,0,2.188-.651Z" transform="translate(-138.622 -166.8)"/>
    </clipPath>
    <clipPath id="clip-path-8">
      <path id="Path_450" data-name="Path 450" d="M126.434,176.44a3.9,3.9,0,0,0-3.489-3.43h-5.855a3.956,3.956,0,0,0-3.489,3.43h0v.355h0v7.984a1.124,1.124,0,0,0,2.247,0v-7.393h.591v21.35a1.484,1.484,0,0,0,2.957,0V186.2h.887v12.538a1.484,1.484,0,0,0,2.957,0v-21.35h.887v7.393a1.124,1.124,0,0,0,2.247,0l.059-8.339Zm-6.387-4.2a2.721,2.721,0,1,0-2.721-2.721A2.713,2.713,0,0,0,120.047,172.241Z" transform="translate(-113.6 -166.8)"/>
    </clipPath>
    <clipPath id="clip-path-9">
      <path id="Path_454" data-name="Path 454" d="M199.979,172.241a2.721,2.721,0,1,0-2.721-2.721A2.713,2.713,0,0,0,199.979,172.241Zm7.629,11.3-2.129-7.452a4.09,4.09,0,0,0-3.489-3.016h-3.9a4.1,4.1,0,0,0-3.371,2.661h0l-2.247,7.807a1.141,1.141,0,0,0,2.188.651l2.129-7.452h.651l-3.194,11.592a.747.747,0,0,0,.769,1.005H197.2v9.522a1.242,1.242,0,1,0,2.484,0v-9.522h.71v9.522a1.242,1.242,0,1,0,2.484,0v-9.522h2.188a.773.773,0,0,0,.769-1.005l-3.194-11.592h.651l2.129,7.452a1.141,1.141,0,1,0,2.188-.651Z" transform="translate(-192.423 -166.8)"/>
    </clipPath>
    <clipPath id="clip-path-10">
      <path id="Path_456" data-name="Path 456" d="M180.234,176.44a3.9,3.9,0,0,0-3.489-3.43h-5.855a3.956,3.956,0,0,0-3.489,3.43h0v.355h0v7.984a1.124,1.124,0,0,0,2.247,0v-7.393h.591v21.35a1.484,1.484,0,0,0,2.957,0V186.2h.887v12.538a1.484,1.484,0,0,0,2.957,0v-21.35h.887v7.393a1.124,1.124,0,0,0,2.247,0l.059-8.339Zm-6.387-4.2a2.721,2.721,0,1,0-2.721-2.721A2.713,2.713,0,0,0,173.847,172.241Z" transform="translate(-167.4 -166.8)"/>
    </clipPath>
    <clipPath id="clip-path-11">
      <path id="Path_460" data-name="Path 460" d="M228.979,112.441a2.721,2.721,0,1,0-2.721-2.721A2.713,2.713,0,0,0,228.979,112.441Zm7.629,11.3-2.129-7.452a4.09,4.09,0,0,0-3.489-3.016h-3.9a4.1,4.1,0,0,0-3.371,2.661h0l-2.247,7.807a1.141,1.141,0,1,0,2.188.651l2.129-7.452h.651l-3.194,11.592a.747.747,0,0,0,.769,1.005H226.2v9.522a1.242,1.242,0,1,0,2.484,0v-9.581h.71V139a1.242,1.242,0,0,0,2.484,0v-9.522h2.188a.773.773,0,0,0,.769-1.005l-3.194-11.592h.651l2.129,7.452a1.159,1.159,0,0,0,1.419.769A1.071,1.071,0,0,0,236.609,123.737Z" transform="translate(-221.423 -107)"/>
    </clipPath>
    <clipPath id="clip-path-12">
      <path id="Path_462" data-name="Path 462" d="M262.634,116.64a3.9,3.9,0,0,0-3.489-3.43h-5.855a3.956,3.956,0,0,0-3.489,3.43h0V117h0v7.984a1.124,1.124,0,0,0,2.247,0v-7.393h.591v21.35a1.484,1.484,0,0,0,2.957,0V126.4h.887v12.538a1.484,1.484,0,0,0,2.957,0v-21.35h.887v7.393a1.124,1.124,0,0,0,2.247,0l.059-8.339Zm-6.387-4.2a2.721,2.721,0,1,0-2.721-2.721A2.677,2.677,0,0,0,256.247,112.441Z" transform="translate(-249.8 -107)"/>
    </clipPath>
    <clipPath id="clip-path-13">
      <path id="Path_465" data-name="Path 465" d="M282.179,112.441a2.721,2.721,0,1,0-2.721-2.721A2.713,2.713,0,0,0,282.179,112.441Zm7.629,11.3-2.129-7.452a4.09,4.09,0,0,0-3.489-3.016h-3.9a4.1,4.1,0,0,0-3.371,2.661h0l-2.247,7.807a1.141,1.141,0,1,0,2.188.651l2.129-7.452h.651l-3.194,11.592a.747.747,0,0,0,.769,1.005H279.4v9.522a1.242,1.242,0,1,0,2.484,0v-9.581h.71V139a1.242,1.242,0,0,0,2.484,0v-9.522h2.188a.773.773,0,0,0,.769-1.005l-3.194-11.592h.651l2.129,7.452a1.159,1.159,0,0,0,1.419.769A1.071,1.071,0,0,0,289.809,123.737Z" transform="translate(-274.622 -107)"/>
    </clipPath>
    <clipPath id="clip-path-14">
      <path id="Path_469" data-name="Path 469" d="M255.239,172.241a2.721,2.721,0,1,0-2.721-2.721A2.677,2.677,0,0,0,255.239,172.241Zm7.57,11.3-2.129-7.452a4.09,4.09,0,0,0-3.489-3.016h-3.9a4.1,4.1,0,0,0-3.371,2.661h0l-2.247,7.807a1.141,1.141,0,0,0,2.188.651l2.129-7.452h.651l-3.194,11.592a.747.747,0,0,0,.769,1.005H252.4v9.522a1.242,1.242,0,1,0,2.484,0v-9.522h.71v9.522a1.242,1.242,0,1,0,2.484,0v-9.522h2.188a.773.773,0,0,0,.769-1.005l-3.194-11.592h.651l2.129,7.452a1.141,1.141,0,0,0,2.188-.651Z" transform="translate(-247.622 -166.8)"/>
    </clipPath>
    <clipPath id="clip-path-15">
      <path id="Path_471" data-name="Path 471" d="M235.534,176.44a3.9,3.9,0,0,0-3.489-3.43h-5.855a3.956,3.956,0,0,0-3.489,3.43h0v.355h0v7.984a1.124,1.124,0,1,0,2.247,0v-7.393h.591v21.35a1.484,1.484,0,0,0,2.957,0V186.2h.887v12.538a1.484,1.484,0,0,0,2.957,0v-21.35h.887v7.393a1.124,1.124,0,0,0,2.247,0l.059-8.339Zm-6.387-4.2a2.721,2.721,0,1,0-2.721-2.721A2.642,2.642,0,0,0,229.147,172.241Z" transform="translate(-222.7 -166.8)"/>
    </clipPath>
    <clipPath id="clip-path-16">
      <path id="Path_474" data-name="Path 474" d="M289.334,176.44a3.9,3.9,0,0,0-3.489-3.43H279.99a3.956,3.956,0,0,0-3.489,3.43h0v.355h0v7.984a1.124,1.124,0,0,0,2.247,0v-7.393h.591v21.35a1.484,1.484,0,0,0,2.957,0V186.2h.887v12.538a1.484,1.484,0,0,0,2.957,0v-21.35h.887v7.393a1.124,1.124,0,0,0,2.247,0l.059-8.339Zm-6.387-4.2a2.721,2.721,0,1,0-2.721-2.721A2.642,2.642,0,0,0,282.947,172.241Z" transform="translate(-276.5 -166.8)"/>
    </clipPath>
    <clipPath id="clip-path-17">
      <path id="Path_478" data-name="Path 478" d="M119.939,232.141a2.721,2.721,0,1,0-2.721-2.721A2.677,2.677,0,0,0,119.939,232.141Zm7.57,11.3-2.129-7.452a4.09,4.09,0,0,0-3.489-3.016h-3.9a4.1,4.1,0,0,0-3.371,2.661h0l-2.247,7.807a1.141,1.141,0,0,0,2.188.651l2.129-7.452h.651l-3.194,11.592a.747.747,0,0,0,.769,1.005H117.1v9.522a1.242,1.242,0,0,0,2.484,0v-9.522h.71v9.522a1.242,1.242,0,1,0,2.484,0v-9.522h2.188a.773.773,0,0,0,.769-1.005l-3.194-11.592h.651l2.129,7.452a1.141,1.141,0,0,0,2.188-.651Z" transform="translate(-112.322 -226.7)"/>
    </clipPath>
    <clipPath id="clip-path-18">
      <path id="Path_480" data-name="Path 480" d="M153.634,236.34a3.9,3.9,0,0,0-3.489-3.43h-5.855a3.956,3.956,0,0,0-3.489,3.43h0v.355h0v7.984a1.124,1.124,0,0,0,2.247,0v-7.393h.591v21.351a1.484,1.484,0,0,0,2.957,0V246.1h.887v12.538a1.484,1.484,0,0,0,2.957,0V237.287h.887v7.393a1.124,1.124,0,1,0,2.247,0l.059-8.339Zm-6.387-4.2a2.721,2.721,0,1,0-2.721-2.721A2.642,2.642,0,0,0,147.247,232.141Z" transform="translate(-140.8 -226.7)"/>
    </clipPath>
    <clipPath id="clip-path-19">
      <path id="Path_484" data-name="Path 484" d="M173.139,232.141a2.721,2.721,0,1,0-2.721-2.721A2.677,2.677,0,0,0,173.139,232.141Zm7.57,11.3-2.129-7.452a4.09,4.09,0,0,0-3.489-3.016h-3.9a4.1,4.1,0,0,0-3.371,2.661h0l-2.247,7.807a1.141,1.141,0,1,0,2.188.651l2.129-7.452h.651l-3.194,11.592a.747.747,0,0,0,.769,1.005H170.3v9.522a1.242,1.242,0,1,0,2.484,0v-9.522h.71v9.522a1.242,1.242,0,0,0,2.484,0v-9.522h2.188a.773.773,0,0,0,.769-1.005l-3.194-11.592h.651l2.129,7.452a1.141,1.141,0,0,0,2.188-.651Z" transform="translate(-165.522 -226.7)"/>
    </clipPath>
    <clipPath id="clip-path-20">
      <path id="Path_486" data-name="Path 486" d="M206.834,236.34a3.9,3.9,0,0,0-3.489-3.43h-5.855A3.956,3.956,0,0,0,194,236.34h0v.355h0v7.984a1.124,1.124,0,1,0,2.247,0v-7.393h.591v21.351a1.484,1.484,0,0,0,2.957,0V246.1h.887v12.538a1.484,1.484,0,0,0,2.957,0V237.287h.887v7.393a1.124,1.124,0,1,0,2.247,0l.059-8.339Zm-6.387-4.2a2.721,2.721,0,1,0-2.721-2.721A2.642,2.642,0,0,0,200.447,232.141Z" transform="translate(-194 -226.7)"/>
    </clipPath>
    <clipPath id="clip-path-21">
      <path id="Path_490" data-name="Path 490" d="M228.979,232.141a2.721,2.721,0,1,0-2.721-2.721A2.713,2.713,0,0,0,228.979,232.141Zm7.629,11.3-2.129-7.452a4.09,4.09,0,0,0-3.489-3.016h-3.9a4.1,4.1,0,0,0-3.371,2.661h0l-2.247,7.807a1.141,1.141,0,1,0,2.188.651l2.129-7.452h.651l-3.194,11.592a.747.747,0,0,0,.769,1.005H226.2v9.522a1.242,1.242,0,1,0,2.484,0v-9.522h.71v9.522a1.242,1.242,0,1,0,2.484,0v-9.522h2.188a.773.773,0,0,0,.769-1.005l-3.194-11.592h.651l2.129,7.452a1.141,1.141,0,0,0,2.188-.651Z" transform="translate(-221.423 -226.7)"/>
    </clipPath>
    <clipPath id="clip-path-22">
      <path id="Path_492" data-name="Path 492" d="M262.634,236.34a3.9,3.9,0,0,0-3.489-3.43h-5.855a3.956,3.956,0,0,0-3.489,3.43h0v.355h0v7.984a1.124,1.124,0,0,0,2.247,0v-7.393h.591v21.351a1.484,1.484,0,0,0,2.957,0V246.1h.887v12.538a1.484,1.484,0,0,0,2.957,0V237.287h.887v7.393a1.124,1.124,0,0,0,2.247,0l.059-8.339Zm-6.387-4.2a2.721,2.721,0,1,0-2.721-2.721A2.677,2.677,0,0,0,256.247,232.141Z" transform="translate(-249.8 -226.7)"/>
    </clipPath>
    <clipPath id="clip-path-23">
      <path id="Path_495" data-name="Path 495" d="M282.179,232.141a2.721,2.721,0,1,0-2.721-2.721A2.713,2.713,0,0,0,282.179,232.141Zm7.629,11.3-2.129-7.452a4.09,4.09,0,0,0-3.489-3.016h-3.9a4.1,4.1,0,0,0-3.371,2.661h0l-2.247,7.807a1.141,1.141,0,0,0,2.188.651l2.129-7.452h.651l-3.194,11.592a.747.747,0,0,0,.769,1.005H279.4v9.522a1.242,1.242,0,1,0,2.484,0v-9.522h.71v9.522a1.242,1.242,0,0,0,2.484,0v-9.522h2.188a.773.773,0,0,0,.769-1.005l-3.194-11.592h.651l2.129,7.452a1.141,1.141,0,0,0,2.188-.651Z" transform="translate(-274.622 -226.7)"/>
    </clipPath>
    <clipPath id="clip-path-24">
      <path id="Path_506" data-name="Path 506" d="M257.919,194.437c-.059-2.839-3.194-5.914-6.033-5.914H241.833c-2.78,0-5.914,3.135-6.033,5.914h0v.651h0v13.721a1.952,1.952,0,1,0,3.9,0V196.093h1.005V232.88a2.614,2.614,0,0,0,5.2,0V211.234h1.538V232.88a2.614,2.614,0,0,0,5.2,0V196.034h1.479V208.75a1.952,1.952,0,0,0,3.9,0l-.118-14.313Zm-11.06-7.275a4.731,4.731,0,1,0-4.731-4.731A4.745,4.745,0,0,0,246.86,187.163Z" transform="translate(-235.8 -177.7)"/>
    </clipPath>
    <clipPath id="clip-Population_Builder">
      <rect width="200" height="200"/>
    </clipPath>
  </defs>
  <g id="Population_Builder" data-name="Population Builder" clip-path="url(#clip-Population_Builder)">
    <circle id="Ellipse_24" data-name="Ellipse 24" cx="100" cy="100" r="100" fill="#00aeff"/>
    <g id="Mask_Group_6" data-name="Mask Group 6" clip-path="url(#clip-path)">
      <g id="Group_344" data-name="Group 344" transform="translate(-16.829 -15.833)">
        <path id="Path_364" data-name="Path 364" d="M326.337,281.8l-72.568-91.2s10.468,30.872-9.64,50.981-52.7-.059-52.7-.059L164.7,270.738l71.858,89.128C235.435,363.652,324.267,283.75,326.337,281.8Z" transform="translate(-75.135 -85.104)" opacity="0.8" fill="url(#linear-gradient)"/>
        <path id="Path_365" data-name="Path 365" d="M333.454,271.9l-72.568-91.2s-23.48-35.959-52.637-11.71-8.4,50.685-8.4,50.685l71.858,89.128C270.586,312.536,331.325,273.857,333.454,271.9Z" transform="translate(-86.57 -72.845)" opacity="0.8" fill="url(#linear-gradient-2)"/>
        <path id="Path_366" data-name="Path 366" d="M326.337,281.8l-72.568-91.2s10.468,30.872-9.64,50.981-52.7-.059-52.7-.059L164.7,270.738l71.858,89.128C235.435,363.652,324.267,283.75,326.337,281.8Z" transform="translate(-75.135 -85.104)" opacity="0.8" fill="url(#linear-gradient-3)"/>
        <path id="Path_367" data-name="Path 367" d="M333.373,293.4l-72.568-91.2-4.672,3.844-2.6,39.212-1.656-24.367L248.5,220.3l-3.9,24.249,71.858,89.128C315.394,337.459,331.244,295.409,333.373,293.4Z" transform="translate(-107.78 -89.843)" opacity="0.8" fill="url(#linear-gradient-4)"/>
        <path id="Path_368" data-name="Path 368" d="M327.965,272.1,255.4,180.9l-7.1,5.855,71.858,89.128C319.035,279.668,325.9,274.109,327.965,272.1Z" transform="translate(-109.292 -81.141)" opacity="0.8" fill="url(#linear-gradient-5)"/>
        <path id="Path_369" data-name="Path 369" d="M312.708,295.8,240.14,204.6,236,220.687l71.858,89.128C306.735,313.6,310.579,297.75,312.708,295.8Z" transform="translate(-104.266 -90.824)" opacity="0.8" fill="url(#linear-gradient-6)"/>
        <g id="Group_343" data-name="Group 343" transform="translate(38.288 35.294)">
          <g id="Group_334" data-name="Group 334">
            <g id="Group_333" data-name="Group 333" clip-path="url(#clip-path-2)">
              <path id="Path_370" data-name="Path 370" d="M170,173.851,127.829,120.8l-2.129,1.656-1.479,22.77-.946-14.194-1.952-.355L120.2,145.344l41.755,51.809C161.3,199.4,168.756,174.975,170,173.851Z" transform="translate(-95.242 -91.879)" opacity="0.8" fill="url(#linear-gradient-7)"/>
              <path id="Path_371" data-name="Path 371" d="M166.609,160.451,124.44,107.4l-4.14,3.43,41.755,51.809C161.463,164.828,165.426,161.575,166.609,160.451Z" transform="translate(-95.283 -86.404)" opacity="0.8" fill="url(#linear-gradient-8)"/>
              <path id="Path_372" data-name="Path 372" d="M157.694,174.151,115.525,121.1l-2.425,9.345,41.755,51.809C154.263,184.5,156.511,175.334,157.694,174.151Z" transform="translate(-92.341 -92.002)" opacity="0.8" fill="url(#linear-gradient-9)"/>
              <path id="Path_373" data-name="Path 373" d="M197.072,292.851,154.9,239.8l-2.721,2.247-1.479,22.77-.946-14.194-1.952-.355L145.5,264.344l41.755,51.809C186.663,318.4,195.89,293.975,197.072,292.851Z" transform="translate(-105.579 -140.499)" opacity="0.8" fill="url(#linear-gradient-10)"/>
              <path id="Path_374" data-name="Path 374" d="M194.009,280.451,151.84,227.4l-4.14,3.43,41.755,51.809C188.8,284.827,192.767,281.575,194.009,280.451Z" transform="translate(-106.478 -135.433)" opacity="0.8" fill="url(#linear-gradient-11)"/>
              <path id="Path_375" data-name="Path 375" d="M185.094,294.151,142.925,241.1l-2.425,9.344,41.755,51.809C181.6,304.5,183.852,295.334,185.094,294.151Z" transform="translate(-103.536 -141.031)" opacity="0.8" fill="url(#linear-gradient-12)"/>
              <path id="Path_376" data-name="Path 376" d="M249.872,292.851,207.7,239.8l-2.721,2.247-1.479,22.77-.946-14.194-1.952-.355L198.3,264.344l41.814,51.868C239.4,318.4,248.63,293.975,249.872,292.851Z" transform="translate(-127.151 -140.499)" opacity="0.8" fill="url(#linear-gradient-13)"/>
              <path id="Path_377" data-name="Path 377" d="M246.709,280.451,204.54,227.4l-4.14,3.43,41.755,51.809C241.5,284.827,245.526,281.575,246.709,280.451Z" transform="translate(-128.009 -135.433)" opacity="0.8" fill="url(#linear-gradient-14)"/>
              <path id="Path_378" data-name="Path 378" d="M237.794,294.151,195.625,241.1l-2.425,9.344,41.755,51.809C234.363,304.5,236.611,295.334,237.794,294.151Z" transform="translate(-125.068 -141.031)" opacity="0.8" fill="url(#linear-gradient-9)"/>
              <path id="Path_379" data-name="Path 379" d="M306.072,292.851,263.9,239.8l-2.721,2.247-1.479,22.77-.946-14.194-1.952-.355L254.5,264.344l41.755,51.809C295.663,318.4,304.89,293.975,306.072,292.851Z" transform="translate(-150.113 -140.499)" opacity="0.8" fill="url(#linear-gradient-10)"/>
              <path id="Path_380" data-name="Path 380" d="M303.009,280.451,260.84,227.4l-4.14,3.43,41.755,51.809C297.8,284.827,301.767,281.575,303.009,280.451Z" transform="translate(-151.012 -135.433)" opacity="0.8" fill="url(#linear-gradient-11)"/>
              <path id="Path_381" data-name="Path 381" d="M294.094,294.151,251.925,241.1l-2.425,9.344,41.755,51.809C290.6,304.5,292.852,295.334,294.094,294.151Z" transform="translate(-148.07 -141.031)" opacity="0.8" fill="url(#linear-gradient-12)"/>
              <path id="Path_382" data-name="Path 382" d="M332.872,233.051,290.7,180l-2.721,2.247-1.479,22.77-.946-14.194-1.952-.355L281.3,204.544l41.755,51.809C322.4,258.66,331.63,234.175,332.872,233.051Z" transform="translate(-161.063 -116.067)" opacity="0.8" fill="url(#linear-gradient-19)"/>
              <path id="Path_383" data-name="Path 383" d="M329.709,220.651,287.54,167.6l-4.14,3.43,41.755,51.809C324.5,225.028,328.526,221.775,329.709,220.651Z" transform="translate(-161.921 -111)" opacity="0.8" fill="url(#linear-gradient-20)"/>
              <path id="Path_384" data-name="Path 384" d="M320.794,234.451,278.625,181.4l-2.425,9.345,41.755,51.809C317.363,244.8,319.611,235.575,320.794,234.451Z" transform="translate(-158.979 -116.639)" opacity="0.8" fill="url(#linear-gradient-21)"/>
              <path id="Path_385" data-name="Path 385" d="M278.972,233.051,236.8,180l-2.721,2.247-1.479,22.77-.946-14.194-1.952-.355L227.4,204.544l41.755,51.809C268.563,258.66,277.79,234.175,278.972,233.051Z" transform="translate(-139.041 -116.067)" opacity="0.8" fill="url(#linear-gradient-22)"/>
              <path id="Path_386" data-name="Path 386" d="M275.909,220.651,233.74,167.6l-4.14,3.43,41.755,51.809C270.7,225.028,274.667,221.775,275.909,220.651Z" transform="translate(-139.94 -111)" opacity="0.8" fill="url(#linear-gradient-23)"/>
              <path id="Path_387" data-name="Path 387" d="M266.994,234.451,224.825,181.4l-2.425,9.345,41.755,51.809C263.5,244.8,265.752,235.575,266.994,234.451Z" transform="translate(-136.998 -116.639)" opacity="0.8" fill="url(#linear-gradient-24)"/>
              <path id="Path_388" data-name="Path 388" d="M223.772,233.051,181.6,180l-2.721,2.247-1.479,22.77-.946-14.194-1.952-.355L172.2,204.544l41.755,51.809C213.3,258.66,222.53,234.175,223.772,233.051Z" transform="translate(-116.488 -116.067)" opacity="0.8" fill="url(#linear-gradient-19)"/>
              <path id="Path_389" data-name="Path 389" d="M220.609,220.651,178.44,167.6l-4.14,3.43,41.814,51.809C215.463,225.028,219.426,221.775,220.609,220.651Z" transform="translate(-117.346 -111)" opacity="0.8" fill="url(#linear-gradient-20)"/>
              <path id="Path_390" data-name="Path 390" d="M211.694,234.451,169.525,181.4l-2.425,9.345,41.755,51.809C208.263,244.8,210.511,235.575,211.694,234.451Z" transform="translate(-114.404 -116.639)" opacity="0.8" fill="url(#linear-gradient-21)"/>
              <path id="Path_391" data-name="Path 391" d="M169.972,233.051,127.8,180l-2.721,2.247-1.479,22.77-.946-14.194-1.952-.355L118.4,204.544l41.755,51.809C159.563,258.66,168.79,234.175,169.972,233.051Z" transform="translate(-94.506 -116.067)" opacity="0.8" fill="url(#linear-gradient-22)"/>
              <path id="Path_392" data-name="Path 392" d="M166.909,220.651,124.74,167.6l-4.14,3.43,41.755,51.809C161.7,225.028,165.667,221.775,166.909,220.651Z" transform="translate(-95.405 -111)" opacity="0.8" fill="url(#linear-gradient-23)"/>
              <path id="Path_393" data-name="Path 393" d="M157.994,234.451,115.825,181.4l-2.425,9.345,41.755,51.809C154.5,244.8,156.752,235.575,157.994,234.451Z" transform="translate(-92.463 -116.639)" opacity="0.8" fill="url(#linear-gradient-24)"/>
              <path id="Path_394" data-name="Path 394" d="M306.272,173.551,264.1,120.5l-2.721,2.247-1.479,22.77-.946-14.194-1.952-.355L254.7,145.044l41.755,51.809C295.8,199.16,305.03,174.675,306.272,173.551Z" transform="translate(-150.195 -91.757)" opacity="0.8" fill="url(#linear-gradient-19)"/>
              <path id="Path_395" data-name="Path 395" d="M303.109,161.151,260.94,108.1l-4.14,3.43,41.755,51.809C297.963,165.528,301.926,162.275,303.109,161.151Z" transform="translate(-151.053 -86.69)" opacity="0.8" fill="url(#linear-gradient-20)"/>
              <path id="Path_396" data-name="Path 396" d="M294.194,174.951,252.025,121.9l-2.425,9.345,41.755,51.809C290.763,185.3,293.011,176.075,294.194,174.951Z" transform="translate(-148.111 -92.329)" opacity="0.8" fill="url(#linear-gradient-21)"/>
              <path id="Path_397" data-name="Path 397" d="M250.472,173.551,208.3,120.5l-2.721,2.247-1.479,22.77-.946-14.194-1.952-.355L198.9,145.044l41.755,51.809C240.063,199.16,249.29,174.675,250.472,173.551Z" transform="translate(-127.396 -91.757)" opacity="0.8" fill="url(#linear-gradient-22)"/>
              <path id="Path_398" data-name="Path 398" d="M247.368,161.151,205.14,108.1,201,111.53l41.755,51.809C242.163,165.528,246.126,162.275,247.368,161.151Z" transform="translate(-128.254 -86.69)" opacity="0.8" fill="url(#linear-gradient-35)"/>
              <path id="Path_399" data-name="Path 399" d="M238.494,174.951,196.325,121.9l-2.425,9.344,41.755,51.809C235,185.3,237.252,176.075,238.494,174.951Z" transform="translate(-125.354 -92.329)" opacity="0.8" fill="url(#linear-gradient-24)"/>
              <path id="Path_400" data-name="Path 400" d="M197.472,173.551,155.3,120.5l-2.721,2.247-1.479,22.77-.946-14.194-1.952-.355L145.9,145.044l41.755,51.809C187.063,199.16,196.29,174.675,197.472,173.551Z" transform="translate(-105.742 -91.757)" opacity="0.8" fill="url(#linear-gradient-22)"/>
              <path id="Path_401" data-name="Path 401" d="M194.368,161.151,152.14,108.1,148,111.53l41.755,51.809C189.163,165.528,193.126,162.275,194.368,161.151Z" transform="translate(-106.6 -86.69)" opacity="0.8" fill="url(#linear-gradient-35)"/>
              <path id="Path_402" data-name="Path 402" d="M185.494,174.951,143.325,121.9l-2.425,9.344,41.755,51.809C182,185.3,184.252,176.075,185.494,174.951Z" transform="translate(-103.699 -92.329)" opacity="0.8" fill="url(#linear-gradient-24)"/>
              <path id="Path_403" data-name="Path 403" d="M170.5,293.551,128.329,240.5l-2.129,1.656-1.479,22.77-.946-14.194-1.952-.355L120.7,265.044l41.755,51.809C161.8,319.16,169.256,294.675,170.5,293.551Z" transform="translate(-95.446 -140.785)" opacity="0.8" fill="url(#linear-gradient-40)"/>
              <path id="Path_404" data-name="Path 404" d="M167.109,280.151,124.94,227.1l-4.14,3.43,41.755,51.809C161.963,284.527,165.926,281.275,167.109,280.151Z" transform="translate(-95.487 -135.311)" opacity="0.8" fill="url(#linear-gradient-20)"/>
              <path id="Path_405" data-name="Path 405" d="M158.194,293.951,116.025,240.9l-2.425,9.345,41.755,51.809C154.763,304.3,157.011,295.075,158.194,293.951Z" transform="translate(-92.545 -140.949)" opacity="0.8" fill="url(#linear-gradient-21)"/>
              <path id="Path_406" data-name="Path 406" d="M223.5,293.551,181.329,240.5l-2.129,1.656-1.479,22.77-.946-14.194-1.952-.355L173.7,265.044l41.755,51.809C214.8,319.16,222.256,294.675,223.5,293.551Z" transform="translate(-117.1 -140.785)" opacity="0.8" fill="url(#linear-gradient-40)"/>
              <path id="Path_407" data-name="Path 407" d="M220.109,280.151,177.94,227.1l-4.14,3.43,41.755,51.809C214.963,284.527,218.926,281.275,220.109,280.151Z" transform="translate(-117.141 -135.311)" opacity="0.8" fill="url(#linear-gradient-20)"/>
              <path id="Path_408" data-name="Path 408" d="M211.194,293.951,169.025,240.9l-2.425,9.345,41.755,51.809C207.763,304.3,210.011,295.075,211.194,293.951Z" transform="translate(-114.2 -140.949)" opacity="0.8" fill="url(#linear-gradient-21)"/>
              <path id="Path_409" data-name="Path 409" d="M279.5,293.551,237.329,240.5l-2.129,1.656-1.479,22.77-.946-14.194-1.952-.355L229.7,265.044l41.755,51.809C270.8,319.16,278.256,294.675,279.5,293.551Z" transform="translate(-139.981 -140.785)" opacity="0.8" fill="url(#linear-gradient-40)"/>
              <path id="Path_410" data-name="Path 410" d="M276.109,280.151,233.94,227.1l-4.14,3.43,41.755,51.809C270.963,284.527,274.926,281.275,276.109,280.151Z" transform="translate(-140.021 -135.311)" opacity="0.8" fill="url(#linear-gradient-20)"/>
              <path id="Path_411" data-name="Path 411" d="M267.194,293.951,225.025,240.9l-2.425,9.345,41.755,51.809C263.763,304.3,266.011,295.075,267.194,293.951Z" transform="translate(-137.08 -140.949)" opacity="0.8" fill="url(#linear-gradient-21)"/>
              <path id="Path_412" data-name="Path 412" d="M332.7,293.551,290.529,240.5l-2.129,1.656-1.479,22.77-.946-14.194-1.952-.355L282.9,265.044l41.755,51.809C324.063,319.16,331.515,294.675,332.7,293.551Z" transform="translate(-161.717 -140.785)" opacity="0.8" fill="url(#linear-gradient-49)"/>
              <path id="Path_413" data-name="Path 413" d="M329.368,280.151,287.14,227.1,283,230.53l41.755,51.809C324.163,284.528,328.126,281.275,329.368,280.151Z" transform="translate(-161.758 -135.311)" opacity="0.8" fill="url(#linear-gradient-35)"/>
              <path id="Path_414" data-name="Path 414" d="M320.494,293.951,278.325,240.9l-2.425,9.345,41.755,51.809C317,304.3,319.252,295.075,320.494,293.951Z" transform="translate(-158.857 -140.949)" opacity="0.8" fill="url(#linear-gradient-24)"/>
              <path id="Path_415" data-name="Path 415" d="M305.7,233.851,263.529,180.8l-2.129,1.656-1.479,22.77-.946-14.194-1.952-.355L255.9,205.344l41.755,51.809C297.063,259.4,304.515,234.975,305.7,233.851Z" transform="translate(-150.685 -116.394)" opacity="0.8" fill="url(#linear-gradient-52)"/>
              <path id="Path_416" data-name="Path 416" d="M302.368,220.451,260.14,167.4,256,170.83l41.755,51.809C297.163,224.828,301.126,221.575,302.368,220.451Z" transform="translate(-150.726 -110.919)" opacity="0.8" fill="url(#linear-gradient-53)"/>
              <path id="Path_417" data-name="Path 417" d="M293.494,234.151,251.325,181.1l-2.425,9.345,41.755,51.809C290,244.5,292.252,235.334,293.494,234.151Z" transform="translate(-147.825 -116.516)" opacity="0.8" fill="url(#linear-gradient-12)"/>
              <path id="Path_418" data-name="Path 418" d="M250.5,233.851,208.329,180.8l-2.129,1.656-1.479,22.77-.946-14.194-1.952-.355L200.7,205.344l41.755,51.809C241.8,259.4,249.256,234.975,250.5,233.851Z" transform="translate(-128.132 -116.394)" opacity="0.8" fill="url(#linear-gradient-55)"/>
              <path id="Path_419" data-name="Path 419" d="M247.109,220.451,204.94,167.4l-4.14,3.43,41.755,51.809C241.963,224.828,245.926,221.575,247.109,220.451Z" transform="translate(-128.173 -110.919)" opacity="0.8" fill="url(#linear-gradient-14)"/>
              <path id="Path_420" data-name="Path 420" d="M238.194,234.151,196.025,181.1l-2.425,9.345,41.755,51.809C234.763,244.5,237.011,235.334,238.194,234.151Z" transform="translate(-125.231 -116.516)" opacity="0.8" fill="url(#linear-gradient-9)"/>
              <path id="Path_421" data-name="Path 421" d="M196.7,233.851,154.529,180.8l-2.129,1.656-1.479,22.77-.946-14.194-1.952-.355L146.9,205.344l41.755,51.809C188.063,259.4,195.515,234.975,196.7,233.851Z" transform="translate(-106.151 -116.394)" opacity="0.8" fill="url(#linear-gradient-52)"/>
              <path id="Path_422" data-name="Path 422" d="M193.368,220.451,151.14,167.4,147,170.83l41.755,51.809C188.163,224.828,192.126,221.575,193.368,220.451Z" transform="translate(-106.192 -110.919)" opacity="0.8" fill="url(#linear-gradient-53)"/>
              <path id="Path_423" data-name="Path 423" d="M184.494,234.151,142.325,181.1l-2.425,9.345,41.755,51.809C181,244.5,183.252,235.334,184.494,234.151Z" transform="translate(-103.291 -116.516)" opacity="0.8" fill="url(#linear-gradient-12)"/>
              <path id="Path_424" data-name="Path 424" d="M332.5,173.851,290.329,120.8l-2.129,1.656-1.479,22.77-.946-14.194-1.952-.355L282.7,145.344l41.755,51.809C323.8,199.4,331.256,174.975,332.5,173.851Z" transform="translate(-161.635 -91.879)" opacity="0.8" fill="url(#linear-gradient-55)"/>
              <path id="Path_425" data-name="Path 425" d="M329.109,160.451,286.94,107.4l-4.14,3.43,41.755,51.809C323.963,164.828,327.926,161.575,329.109,160.451Z" transform="translate(-161.676 -86.404)" opacity="0.8" fill="url(#linear-gradient-14)"/>
              <path id="Path_426" data-name="Path 426" d="M320.194,174.151,278.025,121.1l-2.425,9.345,41.755,51.809C316.763,184.5,319.011,175.334,320.194,174.151Z" transform="translate(-158.734 -92.002)" opacity="0.8" fill="url(#linear-gradient-9)"/>
              <path id="Path_427" data-name="Path 427" d="M279.2,173.851,237.029,120.8l-2.129,1.656-1.479,22.77-.946-14.194-1.952-.355L229.4,145.344l41.755,51.809C270.563,199.4,278.015,174.975,279.2,173.851Z" transform="translate(-139.858 -91.879)" opacity="0.8" fill="url(#linear-gradient-52)"/>
              <path id="Path_428" data-name="Path 428" d="M275.909,160.451,233.74,107.4l-4.14,3.43,41.755,51.809C270.7,164.828,274.667,161.575,275.909,160.451Z" transform="translate(-139.94 -86.404)" opacity="0.8" fill="url(#linear-gradient-11)"/>
              <path id="Path_429" data-name="Path 429" d="M266.994,174.151,224.825,121.1l-2.425,9.345,41.755,51.809C263.5,184.5,265.752,175.334,266.994,174.151Z" transform="translate(-136.998 -92.002)" opacity="0.8" fill="url(#linear-gradient-12)"/>
              <path id="Path_430" data-name="Path 430" d="M223.5,173.851,181.329,120.8l-2.129,1.656-1.479,22.77-.946-14.194-1.952-.355L173.7,145.344l41.755,51.809C214.8,199.4,222.256,174.975,223.5,173.851Z" transform="translate(-117.1 -91.879)" opacity="0.8" fill="url(#linear-gradient-55)"/>
              <path id="Path_431" data-name="Path 431" d="M220.109,160.451,177.94,107.4l-4.14,3.43,41.755,51.809C214.963,164.828,218.926,161.575,220.109,160.451Z" transform="translate(-117.141 -86.404)" opacity="0.8" fill="url(#linear-gradient-14)"/>
              <path id="Path_432" data-name="Path 432" d="M211.194,174.151,169.025,121.1l-2.425,9.345,41.755,51.809C207.763,184.5,210.011,175.334,211.194,174.151Z" transform="translate(-114.2 -92.002)" opacity="0.8" fill="url(#linear-gradient-9)"/>
              <g id="Group_317" data-name="Group 317" transform="translate(20.299 20.759)">
                <path id="Path_433" data-name="Path 433" d="M119.939,112.441a2.721,2.721,0,1,0-2.721-2.721A2.677,2.677,0,0,0,119.939,112.441Zm7.57,11.3-2.129-7.452a4.09,4.09,0,0,0-3.489-3.016h-3.9a4.1,4.1,0,0,0-3.371,2.661h0l-2.247,7.807a1.141,1.141,0,0,0,2.188.651l2.129-7.452h.651l-3.194,11.592a.747.747,0,0,0,.769,1.005H117.1v9.522a1.242,1.242,0,1,0,2.484,0v-9.581h.71V139a1.242,1.242,0,0,0,2.484,0v-9.522h2.188a.773.773,0,0,0,.769-1.005l-3.194-11.592h.651l2.129,7.452a1.158,1.158,0,0,0,1.419.769A1.071,1.071,0,0,0,127.509,123.737Z" transform="translate(-112.322 -107)" fill="#fff"/>
                <path id="Path_434" data-name="Path 434" d="M153.634,116.64a3.9,3.9,0,0,0-3.489-3.43h-5.855a3.956,3.956,0,0,0-3.489,3.43h0V117h0v7.984a1.124,1.124,0,0,0,2.247,0v-7.393h.591v21.35a1.484,1.484,0,0,0,2.957,0V126.4h.887v12.538a1.484,1.484,0,0,0,2.957,0v-21.35h.887v7.393a1.124,1.124,0,1,0,2.247,0l.059-8.339Zm-6.387-4.2a2.721,2.721,0,1,0-2.721-2.721A2.642,2.642,0,0,0,147.247,112.441Z" transform="translate(-123.958 -107)" fill="#fff"/>
                <g id="Group_289" data-name="Group 289">
                  <g id="Group_288" data-name="Group 288" clip-path="url(#clip-path-3)">
                    <path id="Path_435" data-name="Path 435" d="M119.342,106.3a7.731,7.731,0,0,0-1.6,2.366,3.112,3.112,0,0,0,1.6,3.785,2.954,2.954,0,0,0-1.479,3.075c.118,1.952.177,6.742.118,9.049s.118,14.431.059,16.028-3.253,1.36-3.785-3.135-2.011-8.871-2.721-9.64c-.651-.769-1.005-1.774-.237-5.8s.828-6.861,1.952-8.162,2.366-2.129,2.247-4.258C115.32,107.481,117.213,106.239,119.342,106.3Z" transform="translate(-111.726 -106.713)" fill="#e6e7e8"/>
                  </g>
                </g>
                <g id="Group_291" data-name="Group 291" transform="translate(16.842)">
                  <g id="Group_290" data-name="Group 290" clip-path="url(#clip-path-4)">
                    <path id="Path_437" data-name="Path 437" d="M146.242,106.3a7.731,7.731,0,0,0-1.6,2.366,3.112,3.112,0,0,0,1.6,3.785,2.954,2.954,0,0,0-1.479,3.075c.118,1.952.177,6.742.118,9.049-.118,2.307.118,14.431.059,16.028s-3.253,1.36-3.785-3.135-2.011-8.871-2.721-9.64c-.651-.769-1.005-1.774-.237-5.8s.828-6.861,1.952-8.162,2.366-2.129,2.247-4.258C142.22,107.481,144.113,106.239,146.242,106.3Z" transform="translate(-139.559 -106.713)" fill="#e6e7e8"/>
                  </g>
                </g>
                <g id="Group_296" data-name="Group 296" transform="translate(31.464)">
                  <path id="Path_439" data-name="Path 439" d="M173.139,112.441a2.721,2.721,0,1,0-2.721-2.721A2.677,2.677,0,0,0,173.139,112.441Zm7.57,11.3-2.129-7.452a4.09,4.09,0,0,0-3.489-3.016h-3.9a4.1,4.1,0,0,0-3.371,2.661h0l-2.247,7.807a1.141,1.141,0,1,0,2.188.651l2.129-7.452h.651l-3.194,11.592a.747.747,0,0,0,.769,1.005H170.3v9.522a1.242,1.242,0,1,0,2.484,0v-9.581h.71V139a1.242,1.242,0,0,0,2.484,0v-9.522h2.188a.773.773,0,0,0,.769-1.005l-3.194-11.592h.651l2.129,7.452a1.158,1.158,0,0,0,1.419.769A1.071,1.071,0,0,0,180.709,123.737Z" transform="translate(-165.522 -107)" fill="#fff"/>
                  <path id="Path_440" data-name="Path 440" d="M206.834,116.64a3.9,3.9,0,0,0-3.489-3.43h-5.855A3.956,3.956,0,0,0,194,116.64h0V117h0v7.984a1.124,1.124,0,1,0,2.247,0v-7.393h.591v21.35a1.484,1.484,0,0,0,2.957,0V126.4h.887v12.538a1.484,1.484,0,0,0,2.957,0v-21.35h.887v7.393a1.124,1.124,0,1,0,2.247,0l.059-8.339Zm-6.387-4.2a2.721,2.721,0,1,0-2.721-2.721A2.642,2.642,0,0,0,200.447,112.441Z" transform="translate(-177.158 -107)" fill="#fff"/>
                  <g id="Group_293" data-name="Group 293">
                    <g id="Group_292" data-name="Group 292" clip-path="url(#clip-path-5)">
                      <path id="Path_441" data-name="Path 441" d="M172.542,106.3a7.731,7.731,0,0,0-1.6,2.366,3.112,3.112,0,0,0,1.6,3.785,2.954,2.954,0,0,0-1.479,3.075c.118,1.952.177,6.742.118,9.049-.118,2.307.118,14.431.059,16.028-.118,1.6-3.253,1.36-3.785-3.135s-2.011-8.871-2.721-9.64c-.651-.769-1.005-1.774-.237-5.8s.828-6.861,1.952-8.162,2.366-2.129,2.247-4.258C168.52,107.481,170.413,106.239,172.542,106.3Z" transform="translate(-164.926 -106.713)" fill="#e6e7e8"/>
                    </g>
                  </g>
                  <g id="Group_295" data-name="Group 295" transform="translate(16.842)">
                    <g id="Group_294" data-name="Group 294" clip-path="url(#clip-path-6)">
                      <path id="Path_443" data-name="Path 443" d="M199.442,106.3a7.731,7.731,0,0,0-1.6,2.366,3.112,3.112,0,0,0,1.6,3.785,2.954,2.954,0,0,0-1.479,3.075c.118,1.952.177,6.742.118,9.049-.118,2.307.118,14.431.059,16.028-.118,1.6-3.253,1.36-3.785-3.135s-2.011-8.871-2.721-9.64c-.651-.769-1.005-1.774-.237-5.8s.828-6.861,1.952-8.162,2.366-2.129,2.247-4.258C195.42,107.481,197.313,106.239,199.442,106.3Z" transform="translate(-192.759 -106.713)" fill="#e6e7e8"/>
                    </g>
                  </g>
                </g>
                <path id="Path_445" data-name="Path 445" d="M146.179,172.241a2.721,2.721,0,1,0-2.721-2.721A2.713,2.713,0,0,0,146.179,172.241Zm7.629,11.3-2.129-7.452a4.09,4.09,0,0,0-3.489-3.016h-3.9a4.1,4.1,0,0,0-3.371,2.661h0l-2.247,7.807a1.141,1.141,0,0,0,2.188.651l2.129-7.452h.651l-3.194,11.592a.747.747,0,0,0,.769,1.005H143.4v9.522a1.242,1.242,0,1,0,2.484,0v-9.522h.71v9.522a1.242,1.242,0,1,0,2.484,0v-9.522h2.188a.773.773,0,0,0,.769-1.005l-3.194-11.592h.651l2.129,7.452a1.141,1.141,0,0,0,2.188-.651Z" transform="translate(-123.068 -131.433)" fill="#fff"/>
                <path id="Path_446" data-name="Path 446" d="M126.434,176.44a3.9,3.9,0,0,0-3.489-3.43h-5.855a3.956,3.956,0,0,0-3.489,3.43h0v.355h0v7.984a1.124,1.124,0,0,0,2.247,0v-7.393h.591v21.35a1.484,1.484,0,0,0,2.957,0V186.2h.887v12.538a1.484,1.484,0,0,0,2.957,0v-21.35h.887v7.393a1.124,1.124,0,0,0,2.247,0l.059-8.339Zm-6.387-4.2a2.721,2.721,0,1,0-2.721-2.721A2.713,2.713,0,0,0,120.047,172.241Z" transform="translate(-112.844 -131.433)" fill="#fff"/>
                <g id="Group_298" data-name="Group 298" transform="translate(15.555 35.367)">
                  <g id="Group_297" data-name="Group 297" clip-path="url(#clip-path-7)">
                    <path id="Path_447" data-name="Path 447" d="M145.542,166.1a7.731,7.731,0,0,0-1.6,2.366,3.051,3.051,0,0,0,1.6,3.785,2.954,2.954,0,0,0-1.479,3.075c.118,1.952.177,6.742.118,9.049-.118,2.307.118,14.431.059,16.028s-3.253,1.36-3.785-3.135-2.011-8.871-2.721-9.64c-.651-.769-1.005-1.774-.237-5.8s.828-6.861,1.952-8.162,2.366-2.129,2.247-4.258S143.413,166.039,145.542,166.1Z" transform="translate(-137.985 -166.513)" fill="#e6e7e8"/>
                  </g>
                </g>
                <g id="Group_300" data-name="Group 300" transform="translate(0.756 35.367)">
                  <g id="Group_299" data-name="Group 299" clip-path="url(#clip-path-8)">
                    <path id="Path_449" data-name="Path 449" d="M119.142,166.1a7.731,7.731,0,0,0-1.6,2.366,3.051,3.051,0,0,0,1.6,3.785,2.954,2.954,0,0,0-1.479,3.075c.118,1.952.177,6.742.118,9.049-.118,2.307.118,14.431.059,16.028-.118,1.6-3.253,1.36-3.785-3.135s-2.011-8.871-2.721-9.64c-.651-.769-1.005-1.774-.237-5.8s.828-6.861,1.952-8.162,2.366-2.129,2.247-4.258C115.12,167.281,117.013,166.039,119.142,166.1Z" transform="translate(-112.4 -166.513)" fill="#e6e7e8"/>
                  </g>
                </g>
                <path id="Path_451" data-name="Path 451" d="M199.979,172.241a2.721,2.721,0,1,0-2.721-2.721A2.713,2.713,0,0,0,199.979,172.241Zm7.629,11.3-2.129-7.452a4.09,4.09,0,0,0-3.489-3.016h-3.9a4.1,4.1,0,0,0-3.371,2.661h0l-2.247,7.807a1.141,1.141,0,0,0,2.188.651l2.129-7.452h.651l-3.194,11.592a.747.747,0,0,0,.769,1.005H197.2v9.522a1.242,1.242,0,1,0,2.484,0v-9.522h.71v9.522a1.242,1.242,0,1,0,2.484,0v-9.522h2.188a.773.773,0,0,0,.769-1.005l-3.194-11.592h.651l2.129,7.452a1.141,1.141,0,1,0,2.188-.651Z" transform="translate(-145.049 -131.433)" fill="#fff"/>
                <path id="Path_452" data-name="Path 452" d="M180.234,176.44a3.9,3.9,0,0,0-3.489-3.43h-5.855a3.956,3.956,0,0,0-3.489,3.43h0v.355h0v7.984a1.124,1.124,0,0,0,2.247,0v-7.393h.591v21.35a1.484,1.484,0,0,0,2.957,0V186.2h.887v12.538a1.484,1.484,0,0,0,2.957,0v-21.35h.887v7.393a1.124,1.124,0,0,0,2.247,0l.059-8.339Zm-6.387-4.2a2.721,2.721,0,1,0-2.721-2.721A2.713,2.713,0,0,0,173.847,172.241Z" transform="translate(-134.826 -131.433)" fill="#fff"/>
                <g id="Group_302" data-name="Group 302" transform="translate(47.373 35.367)">
                  <g id="Group_301" data-name="Group 301" clip-path="url(#clip-path-9)">
                    <path id="Path_453" data-name="Path 453" d="M199.342,166.1a7.731,7.731,0,0,0-1.6,2.366,3.051,3.051,0,0,0,1.6,3.785,2.954,2.954,0,0,0-1.479,3.075c.118,1.952.177,6.742.118,9.049-.118,2.307.118,14.431.059,16.028-.118,1.6-3.253,1.36-3.785-3.135s-2.011-8.871-2.721-9.64c-.651-.769-1.005-1.774-.237-5.8s.828-6.861,1.952-8.162,2.366-2.129,2.247-4.258C195.32,167.281,197.213,166.039,199.342,166.1Z" transform="translate(-191.785 -166.513)" fill="#e6e7e8"/>
                  </g>
                </g>
                <g id="Group_304" data-name="Group 304" transform="translate(32.574 35.367)">
                  <g id="Group_303" data-name="Group 303" clip-path="url(#clip-path-10)">
                    <path id="Path_455" data-name="Path 455" d="M172.942,166.1a7.731,7.731,0,0,0-1.6,2.366,3.112,3.112,0,0,0,1.6,3.785,2.954,2.954,0,0,0-1.479,3.075c.118,1.952.177,6.742.118,9.049-.118,2.307.118,14.431.059,16.028-.118,1.6-3.253,1.36-3.785-3.135s-2.011-8.871-2.721-9.64c-.651-.769-1.005-1.774-.237-5.8s.828-6.861,1.952-8.162,2.366-2.129,2.247-4.258C168.92,167.281,170.813,166.039,172.942,166.1Z" transform="translate(-166.2 -166.513)" fill="#e6e7e8"/>
                  </g>
                </g>
                <path id="Path_457" data-name="Path 457" d="M228.979,112.441a2.721,2.721,0,1,0-2.721-2.721A2.713,2.713,0,0,0,228.979,112.441Zm7.629,11.3-2.129-7.452a4.09,4.09,0,0,0-3.489-3.016h-3.9a4.1,4.1,0,0,0-3.371,2.661h0l-2.247,7.807a1.141,1.141,0,1,0,2.188.651l2.129-7.452h.651l-3.194,11.592a.747.747,0,0,0,.769,1.005H226.2v9.522a1.242,1.242,0,1,0,2.484,0v-9.581h.71V139a1.242,1.242,0,0,0,2.484,0v-9.522h2.188a.773.773,0,0,0,.769-1.005l-3.194-11.592h.651l2.129,7.452a1.159,1.159,0,0,0,1.419.769A1.071,1.071,0,0,0,236.609,123.737Z" transform="translate(-156.898 -107)" fill="#fff"/>
                <path id="Path_458" data-name="Path 458" d="M262.634,116.64a3.9,3.9,0,0,0-3.489-3.43h-5.855a3.956,3.956,0,0,0-3.489,3.43h0V117h0v7.984a1.124,1.124,0,0,0,2.247,0v-7.393h.591v21.35a1.484,1.484,0,0,0,2.957,0V126.4h.887v12.538a1.484,1.484,0,0,0,2.957,0v-21.35h.887v7.393a1.124,1.124,0,0,0,2.247,0l.059-8.339Zm-6.387-4.2a2.721,2.721,0,1,0-2.721-2.721A2.677,2.677,0,0,0,256.247,112.441Z" transform="translate(-168.492 -107)" fill="#fff"/>
                <g id="Group_306" data-name="Group 306" transform="translate(64.525)">
                  <g id="Group_305" data-name="Group 305" clip-path="url(#clip-path-11)">
                    <path id="Path_459" data-name="Path 459" d="M228.342,106.3a7.73,7.73,0,0,0-1.6,2.366,3.112,3.112,0,0,0,1.6,3.785,2.954,2.954,0,0,0-1.479,3.075c.118,1.952.177,6.742.118,9.049s.118,14.431.059,16.028c-.118,1.6-3.253,1.36-3.785-3.135s-2.011-8.871-2.721-9.64c-.651-.769-1.005-1.774-.237-5.8s.828-6.861,1.952-8.162,2.366-2.129,2.247-4.258C224.32,107.481,226.213,106.239,228.342,106.3Z" transform="translate(-220.785 -106.713)" fill="#e6e7e8"/>
                  </g>
                </g>
                <g id="Group_308" data-name="Group 308" transform="translate(81.308)">
                  <g id="Group_307" data-name="Group 307" clip-path="url(#clip-path-12)">
                    <path id="Path_461" data-name="Path 461" d="M255.342,106.3a7.731,7.731,0,0,0-1.6,2.366,3.112,3.112,0,0,0,1.6,3.785,2.954,2.954,0,0,0-1.479,3.075c.118,1.952.177,6.742.118,9.049-.118,2.307.118,14.431.059,16.028-.118,1.6-3.253,1.36-3.785-3.135s-2.011-8.871-2.721-9.64c-.651-.769-1.005-1.774-.237-5.8s.828-6.861,1.952-8.162,2.366-2.129,2.247-4.258C251.32,107.481,253.213,106.239,255.342,106.3Z" transform="translate(-248.6 -106.713)" fill="#e6e7e8"/>
                  </g>
                </g>
                <path id="Path_463" data-name="Path 463" d="M282.179,112.441a2.721,2.721,0,1,0-2.721-2.721A2.713,2.713,0,0,0,282.179,112.441Zm7.629,11.3-2.129-7.452a4.09,4.09,0,0,0-3.489-3.016h-3.9a4.1,4.1,0,0,0-3.371,2.661h0l-2.247,7.807a1.141,1.141,0,1,0,2.188.651l2.129-7.452h.651l-3.194,11.592a.747.747,0,0,0,.769,1.005H279.4v9.522a1.242,1.242,0,1,0,2.484,0v-9.581h.71V139a1.242,1.242,0,0,0,2.484,0v-9.522h2.188a.773.773,0,0,0,.769-1.005l-3.194-11.592h.651l2.129,7.452a1.159,1.159,0,0,0,1.419.769A1.071,1.071,0,0,0,289.809,123.737Z" transform="translate(-178.634 -107)" fill="#fff"/>
                <g id="Group_310" data-name="Group 310" transform="translate(95.989)">
                  <g id="Group_309" data-name="Group 309" clip-path="url(#clip-path-13)">
                    <path id="Path_464" data-name="Path 464" d="M281.542,106.3a7.73,7.73,0,0,0-1.6,2.366,3.112,3.112,0,0,0,1.6,3.785,2.954,2.954,0,0,0-1.479,3.075c.118,1.952.177,6.742.118,9.049s.118,14.431.059,16.028-3.253,1.36-3.785-3.135-2.011-8.871-2.72-9.64c-.651-.769-1.006-1.774-.237-5.8s.828-6.861,1.952-8.162,2.366-2.129,2.247-4.258C277.52,107.481,279.413,106.239,281.542,106.3Z" transform="translate(-273.985 -106.713)" fill="#e6e7e8"/>
                  </g>
                </g>
                <path id="Path_466" data-name="Path 466" d="M255.239,172.241a2.721,2.721,0,1,0-2.721-2.721A2.677,2.677,0,0,0,255.239,172.241Zm7.57,11.3-2.129-7.452a4.09,4.09,0,0,0-3.489-3.016h-3.9a4.1,4.1,0,0,0-3.371,2.661h0l-2.247,7.807a1.141,1.141,0,0,0,2.188.651l2.129-7.452h.651l-3.194,11.592a.747.747,0,0,0,.769,1.005H252.4v9.522a1.242,1.242,0,1,0,2.484,0v-9.522h.71v9.522a1.242,1.242,0,1,0,2.484,0v-9.522h2.188a.773.773,0,0,0,.769-1.005l-3.194-11.592h.651l2.129,7.452a1.141,1.141,0,0,0,2.188-.651Z" transform="translate(-167.602 -131.433)" fill="#fff"/>
                <path id="Path_467" data-name="Path 467" d="M235.534,176.44a3.9,3.9,0,0,0-3.489-3.43h-5.855a3.956,3.956,0,0,0-3.489,3.43h0v.355h0v7.984a1.124,1.124,0,1,0,2.247,0v-7.393h.591v21.35a1.484,1.484,0,0,0,2.957,0V186.2h.887v12.538a1.484,1.484,0,0,0,2.957,0v-21.35h.887v7.393a1.124,1.124,0,0,0,2.247,0l.059-8.339Zm-6.387-4.2a2.721,2.721,0,1,0-2.721-2.721A2.642,2.642,0,0,0,229.147,172.241Z" transform="translate(-157.42 -131.433)" fill="#fff"/>
                <g id="Group_312" data-name="Group 312" transform="translate(80.02 35.367)">
                  <g id="Group_311" data-name="Group 311" clip-path="url(#clip-path-14)">
                    <path id="Path_468" data-name="Path 468" d="M254.642,166.1a7.731,7.731,0,0,0-1.6,2.366,3.112,3.112,0,0,0,1.6,3.785,2.954,2.954,0,0,0-1.479,3.075c.118,1.952.177,6.742.118,9.049-.118,2.307.118,14.431.059,16.028s-3.253,1.36-3.785-3.135-2.011-8.871-2.721-9.64c-.651-.769-1.005-1.774-.237-5.8s.828-6.861,1.952-8.162,2.366-2.129,2.247-4.258C250.62,167.281,252.513,166.039,254.642,166.1Z" transform="translate(-247.026 -166.513)" fill="#e6e7e8"/>
                  </g>
                </g>
                <g id="Group_314" data-name="Group 314" transform="translate(65.28 35.367)">
                  <g id="Group_313" data-name="Group 313" clip-path="url(#clip-path-15)">
                    <path id="Path_470" data-name="Path 470" d="M228.142,166.1a7.731,7.731,0,0,0-1.6,2.366,3.051,3.051,0,0,0,1.6,3.785,2.954,2.954,0,0,0-1.479,3.075c.118,1.952.177,6.742.118,9.049-.118,2.307.118,14.431.059,16.028s-3.253,1.36-3.785-3.135-2.011-8.871-2.721-9.64c-.651-.769-1.005-1.774-.237-5.8s.828-6.861,1.952-8.162,2.366-2.129,2.247-4.258S226.013,166.039,228.142,166.1Z" transform="translate(-221.459 -166.513)" fill="#e6e7e8"/>
                  </g>
                </g>
                <path id="Path_472" data-name="Path 472" d="M289.334,176.44a3.9,3.9,0,0,0-3.489-3.43H279.99a3.956,3.956,0,0,0-3.489,3.43h0v.355h0v7.984a1.124,1.124,0,0,0,2.247,0v-7.393h.591v21.35a1.484,1.484,0,0,0,2.957,0V186.2h.887v12.538a1.484,1.484,0,0,0,2.957,0v-21.35h.887v7.393a1.124,1.124,0,0,0,2.247,0l.059-8.339Zm-6.387-4.2a2.721,2.721,0,1,0-2.721-2.721A2.642,2.642,0,0,0,282.947,172.241Z" transform="translate(-179.401 -131.433)" fill="#fff"/>
                <g id="Group_316" data-name="Group 316" transform="translate(97.099 35.367)">
                  <g id="Group_315" data-name="Group 315" clip-path="url(#clip-path-16)">
                    <path id="Path_473" data-name="Path 473" d="M281.942,166.1a7.732,7.732,0,0,0-1.6,2.366,3.112,3.112,0,0,0,1.6,3.785,2.954,2.954,0,0,0-1.479,3.075c.118,1.952.177,6.742.118,9.049-.118,2.307.118,14.431.059,16.028-.118,1.6-3.253,1.36-3.785-3.135s-2.011-8.871-2.721-9.64c-.651-.769-1.005-1.774-.236-5.8s.828-6.861,1.952-8.162,2.366-2.129,2.247-4.258S279.813,166.039,281.942,166.1Z" transform="translate(-275.259 -166.513)" fill="#e6e7e8"/>
                  </g>
                </g>
              </g>
              <path id="Path_475" data-name="Path 475" d="M119.939,232.141a2.721,2.721,0,1,0-2.721-2.721A2.677,2.677,0,0,0,119.939,232.141Zm7.57,11.3-2.129-7.452a4.09,4.09,0,0,0-3.489-3.016h-3.9a4.1,4.1,0,0,0-3.371,2.661h0l-2.247,7.807a1.141,1.141,0,0,0,2.188.651l2.129-7.452h.651l-3.194,11.592a.747.747,0,0,0,.769,1.005H117.1v9.522a1.242,1.242,0,0,0,2.484,0v-9.522h.71v9.522a1.242,1.242,0,1,0,2.484,0v-9.522h2.188a.773.773,0,0,0,.769-1.005l-3.194-11.592h.651l2.129,7.452a1.141,1.141,0,0,0,2.188-.651Z" transform="translate(-92.023 -135.147)" fill="#fff"/>
              <path id="Path_476" data-name="Path 476" d="M153.634,236.34a3.9,3.9,0,0,0-3.489-3.43h-5.855a3.956,3.956,0,0,0-3.489,3.43h0v.355h0v7.984a1.124,1.124,0,0,0,2.247,0v-7.393h.591v21.351a1.484,1.484,0,0,0,2.957,0V246.1h.887v12.538a1.484,1.484,0,0,0,2.957,0V237.287h.887v7.393a1.124,1.124,0,1,0,2.247,0l.059-8.339Zm-6.387-4.2a2.721,2.721,0,1,0-2.721-2.721A2.642,2.642,0,0,0,147.247,232.141Z" transform="translate(-103.658 -135.147)" fill="#fff"/>
              <g id="Group_319" data-name="Group 319" transform="translate(20.299 91.553)">
                <g id="Group_318" data-name="Group 318" clip-path="url(#clip-path-17)">
                  <path id="Path_477" data-name="Path 477" d="M119.342,226a7.73,7.73,0,0,0-1.6,2.366,3.112,3.112,0,0,0,1.6,3.785,2.954,2.954,0,0,0-1.479,3.075c.118,1.952.177,6.742.118,9.049-.118,2.307.118,14.431.059,16.028-.118,1.6-3.253,1.36-3.785-3.134s-2.011-8.871-2.721-9.64c-.651-.769-1.005-1.774-.237-5.8s.828-6.861,1.952-8.162,2.366-2.129,2.247-4.258C115.32,227.181,117.213,225.939,119.342,226Z" transform="translate(-111.726 -226.413)" fill="#e6e7e8"/>
                </g>
              </g>
              <g id="Group_321" data-name="Group 321" transform="translate(37.142 91.553)">
                <g id="Group_320" data-name="Group 320" clip-path="url(#clip-path-18)">
                  <path id="Path_479" data-name="Path 479" d="M146.23,226a7.731,7.731,0,0,0-1.6,2.366,3.112,3.112,0,0,0,1.6,3.785,2.954,2.954,0,0,0-1.479,3.075c.118,1.952.177,6.742.118,9.049-.118,2.307.118,14.431.059,16.028-.118,1.6-3.253,1.36-3.785-3.134s-2.011-8.871-2.721-9.64-1.005-1.774-.237-5.8.828-6.861,1.952-8.162,2.366-2.129,2.247-4.258C142.208,227.181,144.1,225.939,146.23,226Z" transform="translate(-139.547 -226.413)" fill="#e6e7e8"/>
                </g>
              </g>
              <g id="Group_326" data-name="Group 326" transform="translate(51.763 91.553)">
                <path id="Path_481" data-name="Path 481" d="M173.139,232.141a2.721,2.721,0,1,0-2.721-2.721A2.677,2.677,0,0,0,173.139,232.141Zm7.57,11.3-2.129-7.452a4.09,4.09,0,0,0-3.489-3.016h-3.9a4.1,4.1,0,0,0-3.371,2.661h0l-2.247,7.807a1.141,1.141,0,1,0,2.188.651l2.129-7.452h.651l-3.194,11.592a.747.747,0,0,0,.769,1.005H170.3v9.522a1.242,1.242,0,1,0,2.484,0v-9.522h.71v9.522a1.242,1.242,0,0,0,2.484,0v-9.522h2.188a.773.773,0,0,0,.769-1.005l-3.194-11.592h.651l2.129,7.452a1.141,1.141,0,0,0,2.188-.651Z" transform="translate(-165.522 -226.7)" fill="#fff"/>
                <path id="Path_482" data-name="Path 482" d="M206.834,236.34a3.9,3.9,0,0,0-3.489-3.43h-5.855A3.956,3.956,0,0,0,194,236.34h0v.355h0v7.984a1.124,1.124,0,1,0,2.247,0v-7.393h.591v21.351a1.484,1.484,0,0,0,2.957,0V246.1h.887v12.538a1.484,1.484,0,0,0,2.957,0V237.287h.887v7.393a1.124,1.124,0,1,0,2.247,0l.059-8.339Zm-6.387-4.2a2.721,2.721,0,1,0-2.721-2.721A2.642,2.642,0,0,0,200.447,232.141Z" transform="translate(-177.158 -226.7)" fill="#fff"/>
                <g id="Group_323" data-name="Group 323">
                  <g id="Group_322" data-name="Group 322" clip-path="url(#clip-path-19)">
                    <path id="Path_483" data-name="Path 483" d="M172.53,226a7.73,7.73,0,0,0-1.6,2.366,3.112,3.112,0,0,0,1.6,3.785,2.954,2.954,0,0,0-1.479,3.075c.118,1.952.177,6.742.118,9.049-.118,2.307.118,14.431.059,16.028-.118,1.6-3.253,1.36-3.785-3.134s-2.011-8.871-2.721-9.64-1.005-1.774-.237-5.8.828-6.861,1.952-8.162,2.366-2.129,2.247-4.258C168.508,227.181,170.4,225.939,172.53,226Z" transform="translate(-164.914 -226.413)" fill="#e6e7e8"/>
                  </g>
                </g>
                <g id="Group_325" data-name="Group 325" transform="translate(16.842)">
                  <g id="Group_324" data-name="Group 324" clip-path="url(#clip-path-20)">
                    <path id="Path_485" data-name="Path 485" d="M199.43,226a7.73,7.73,0,0,0-1.6,2.366,3.112,3.112,0,0,0,1.6,3.785,2.954,2.954,0,0,0-1.479,3.075c.118,1.952.178,6.742.118,9.049-.118,2.307.118,14.431.059,16.028-.118,1.6-3.253,1.36-3.785-3.134s-2.011-8.871-2.721-9.64-1.005-1.774-.237-5.8.828-6.861,1.952-8.162,2.366-2.129,2.247-4.258C195.408,227.181,197.3,225.939,199.43,226Z" transform="translate(-192.747 -226.413)" fill="#e6e7e8"/>
                  </g>
                </g>
              </g>
              <path id="Path_487" data-name="Path 487" d="M228.979,232.141a2.721,2.721,0,1,0-2.721-2.721A2.713,2.713,0,0,0,228.979,232.141Zm7.629,11.3-2.129-7.452a4.09,4.09,0,0,0-3.489-3.016h-3.9a4.1,4.1,0,0,0-3.371,2.661h0l-2.247,7.807a1.141,1.141,0,1,0,2.188.651l2.129-7.452h.651l-3.194,11.592a.747.747,0,0,0,.769,1.005H226.2v9.522a1.242,1.242,0,1,0,2.484,0v-9.522h.71v9.522a1.242,1.242,0,1,0,2.484,0v-9.522h2.188a.773.773,0,0,0,.769-1.005l-3.194-11.592h.651l2.129,7.452a1.141,1.141,0,0,0,2.188-.651Z" transform="translate(-136.599 -135.147)" fill="#fff"/>
              <path id="Path_488" data-name="Path 488" d="M262.634,236.34a3.9,3.9,0,0,0-3.489-3.43h-5.855a3.956,3.956,0,0,0-3.489,3.43h0v.355h0v7.984a1.124,1.124,0,0,0,2.247,0v-7.393h.591v21.351a1.484,1.484,0,0,0,2.957,0V246.1h.887v12.538a1.484,1.484,0,0,0,2.957,0V237.287h.887v7.393a1.124,1.124,0,0,0,2.247,0l.059-8.339Zm-6.387-4.2a2.721,2.721,0,1,0-2.721-2.721A2.677,2.677,0,0,0,256.247,232.141Z" transform="translate(-148.193 -135.147)" fill="#fff"/>
              <g id="Group_328" data-name="Group 328" transform="translate(84.824 91.553)">
                <g id="Group_327" data-name="Group 327" clip-path="url(#clip-path-21)">
                  <path id="Path_489" data-name="Path 489" d="M228.33,226a7.73,7.73,0,0,0-1.6,2.366,3.112,3.112,0,0,0,1.6,3.785,2.954,2.954,0,0,0-1.479,3.075c.118,1.952.177,6.742.118,9.049-.118,2.307.118,14.431.059,16.028-.118,1.6-3.253,1.36-3.785-3.134s-2.011-8.871-2.721-9.64-1.005-1.774-.237-5.8.828-6.861,1.952-8.162,2.366-2.129,2.247-4.258C224.308,227.181,226.2,225.939,228.33,226Z" transform="translate(-220.773 -226.413)" fill="#e6e7e8"/>
                </g>
              </g>
              <g id="Group_330" data-name="Group 330" transform="translate(101.607 91.553)">
                <g id="Group_329" data-name="Group 329" clip-path="url(#clip-path-22)">
                  <path id="Path_491" data-name="Path 491" d="M255.33,226a7.73,7.73,0,0,0-1.6,2.366,3.112,3.112,0,0,0,1.6,3.785,2.954,2.954,0,0,0-1.479,3.075c.118,1.952.177,6.742.118,9.049-.118,2.307.118,14.431.059,16.028-.118,1.6-3.253,1.36-3.785-3.134s-2.011-8.871-2.721-9.64-1.005-1.774-.237-5.8.828-6.861,1.952-8.162,2.366-2.129,2.247-4.258C251.308,227.181,253.2,225.939,255.33,226Z" transform="translate(-248.588 -226.413)" fill="#e6e7e8"/>
                </g>
              </g>
              <path id="Path_493" data-name="Path 493" d="M282.179,232.141a2.721,2.721,0,1,0-2.721-2.721A2.713,2.713,0,0,0,282.179,232.141Zm7.629,11.3-2.129-7.452a4.09,4.09,0,0,0-3.489-3.016h-3.9a4.1,4.1,0,0,0-3.371,2.661h0l-2.247,7.807a1.141,1.141,0,0,0,2.188.651l2.129-7.452h.651l-3.194,11.592a.747.747,0,0,0,.769,1.005H279.4v9.522a1.242,1.242,0,1,0,2.484,0v-9.522h.71v9.522a1.242,1.242,0,0,0,2.484,0v-9.522h2.188a.773.773,0,0,0,.769-1.005l-3.194-11.592h.651l2.129,7.452a1.141,1.141,0,0,0,2.188-.651Z" transform="translate(-158.335 -135.147)" fill="#fff"/>
              <g id="Group_332" data-name="Group 332" transform="translate(116.288 91.553)">
                <g id="Group_331" data-name="Group 331" clip-path="url(#clip-path-23)">
                  <path id="Path_494" data-name="Path 494" d="M281.542,226a7.73,7.73,0,0,0-1.6,2.366,3.112,3.112,0,0,0,1.6,3.785,2.954,2.954,0,0,0-1.479,3.075c.118,1.952.177,6.742.118,9.049-.118,2.307.118,14.431.059,16.028-.118,1.6-3.253,1.36-3.785-3.134s-2.011-8.871-2.72-9.64c-.651-.769-1.006-1.774-.237-5.8s.828-6.861,1.952-8.162,2.366-2.129,2.247-4.258C277.52,227.181,279.413,225.939,281.542,226Z" transform="translate(-273.985 -226.413)" fill="#e6e7e8"/>
                </g>
              </g>
            </g>
          </g>
          <g id="Group_339" data-name="Group 339" transform="translate(45.362 40.423)">
            <path id="Path_497" data-name="Path 497" d="M195.7,194.3a47.891,47.891,0,0,0,53.11-21.469c.414-.651.769-1.3,1.124-1.952A36.016,36.016,0,0,0,195.7,194.3Z" transform="translate(-171.451 -150.562)" fill="#fff" opacity="0.1"/>
            <g id="Group_338" data-name="Group 338" transform="translate(0 0)">
              <circle id="Ellipse_62" data-name="Ellipse 62" cx="36.018" cy="36.018" r="36.018" transform="translate(8.634 50.937) rotate(-45)" fill="#fff" opacity="0.1"/>
              <g id="Group_335" data-name="Group 335" transform="translate(0.532 10.377)">
                <path id="Path_498" data-name="Path 498" d="M244.61,169.981a41.724,41.724,0,0,0-48.793-7.452,40.318,40.318,0,0,0-10.054,7.452,41.554,41.554,0,0,0-1.419,57.309l-2.839,2.839-2.78-2.78-1.656,1.656.887.887L155.6,252.426l6.683,6.683,22.356-22.533.887.887,1.656-1.656-2.78-2.78,2.839-2.839a41.64,41.64,0,0,0,47.255,5.973,40.321,40.321,0,0,0,10.054-7.452A41.5,41.5,0,0,0,244.61,169.981Zm-54.884,3.963a36.007,36.007,0,1,1,0,50.922A35.981,35.981,0,0,1,189.725,173.944Z" transform="translate(-155.6 -157.794)" fill="#0a698c"/>
              </g>
              <g id="Group_337" data-name="Group 337" transform="translate(0 9.242)">
                <g id="Group_336" data-name="Group 336">
                  <rect id="Rectangle_136" data-name="Rectangle 136" width="10.941" height="4.199" transform="translate(21.994 76.215) rotate(-45)" fill="#fff"/>
                  <rect id="Rectangle_137" data-name="Rectangle 137" width="10.941" height="2.07" transform="translate(23.445 77.704) rotate(-45)" fill="#e6e7e8"/>
                  <path id="Path_499" data-name="Path 499" d="M256.02,168.073a41.611,41.611,0,1,0,0,58.847A41.586,41.586,0,0,0,256.02,168.073Zm-54.884,54.884a36.007,36.007,0,1,1,50.922,0A35.981,35.981,0,0,1,201.136,222.958Z" transform="translate(-167.07 -155.875)" fill="#c2c1c0"/>
                  <path id="Path_500" data-name="Path 500" d="M256.02,168.073a41.611,41.611,0,1,0,0,58.847A41.586,41.586,0,0,0,256.02,168.073Zm-.828,58.019a40.4,40.4,0,1,1,0-57.132A40.372,40.372,0,0,1,255.192,226.092Z" transform="translate(-167.07 -155.875)" fill="#e6e7e8"/>
                  <path id="Path_501" data-name="Path 501" d="M161.383,306.545,154.7,299.8l23.125-23.3,6.742,6.683Z" transform="translate(-154.7 -205.159)" fill="#fff"/>
                  <path id="Path_502" data-name="Path 502" d="M163.671,308.832l-3.371-3.371L183.484,282.1l3.371,3.371Z" transform="translate(-156.988 -207.447)" fill="#c2c1c0"/>
                  <path id="Path_503" data-name="Path 503" d="M196.855,277.8l-4.258-4.2-1.6,1.656,8.457,8.457,1.656-1.656Z" transform="translate(-169.531 -203.974)" fill="#c2c1c0"/>
                </g>
              </g>
            </g>
          </g>
          <g id="Group_342" data-name="Group 342" transform="translate(93.327 62.573)">
            <path id="Path_504" data-name="Path 504" d="M257.919,194.437c-.059-2.839-3.194-5.914-6.033-5.914H241.833c-2.78,0-5.914,3.135-6.033,5.914h0v.651h0v13.721a1.952,1.952,0,1,0,3.9,0V196.093h1.005V232.88a2.614,2.614,0,0,0,5.2,0V211.234h1.538V232.88a2.614,2.614,0,0,0,5.2,0V196.034h1.479V208.75a1.952,1.952,0,0,0,3.9,0l-.118-14.313Zm-11.06-7.275a4.731,4.731,0,1,0-4.731-4.731A4.745,4.745,0,0,0,246.86,187.163Z" transform="translate(-235.8 -177.7)" fill="#ff9d27"/>
            <g id="Group_341" data-name="Group 341">
              <g id="Group_340" data-name="Group 340" clip-path="url(#clip-path-24)">
                <path id="Path_505" data-name="Path 505" d="M245.094,176.5a12.746,12.746,0,0,0-2.721,4.081c-.651,2.07-.118,5.382,2.721,6.565-1.005.532-2.78,1.952-2.6,5.323s.355,11.651.177,15.673.237,24.9.059,27.679-5.619,2.366-6.565-5.382-3.489-15.377-4.672-16.678-1.715-3.075-.414-10c1.3-6.979,1.419-11.829,3.312-14.135,1.952-2.307,4.081-3.667,3.9-7.393S241.427,176.378,245.094,176.5Z" transform="translate(-233.561 -177.206)" fill="#e58b22"/>
              </g>
            </g>
          </g>
        </g>
      </g>
    </g>
  </g>
</svg>
