<svg xmlns="http://www.w3.org/2000/svg" xmlns:xlink="http://www.w3.org/1999/xlink" width="200" height="200" viewBox="0 0 200 200">
  <defs>
    <clipPath id="clip-path">
      <rect id="Rectangle_534" data-name="Rectangle 534" width="122.101" height="119.251" fill="none"/>
    </clipPath>
    <clipPath id="clip-path-2">
      <rect id="Rectangle_535" data-name="Rectangle 535" width="39.464" height="39.464" fill="none"/>
    </clipPath>
    <clipPath id="clip-path-3">
      <rect id="Rectangle_535-2" data-name="Rectangle 535" width="18.113" height="18.113" fill="none"/>
    </clipPath>
    <clipPath id="clip-path-4">
      <rect id="Rectangle_535-3" data-name="Rectangle 535" width="29.446" height="29.446" fill="none"/>
    </clipPath>
    <clipPath id="clip-BDS_-_PowerPlanning">
      <rect width="200" height="200"/>
    </clipPath>
  </defs>
  <g id="BDS_-_PowerPlanning" data-name="BDS - PowerPlanning" clip-path="url(#clip-BDS_-_PowerPlanning)">
    <circle id="Blue_300_Bg" data-name="Blue 300 Bg" cx="100" cy="100" r="100" transform="translate(0 -0.1)" fill="#005cb7"/>
    <rect id="Rectangle_1" data-name="Rectangle 1" width="135.692" height="129.549" transform="translate(30.336 26.225)" fill="none"/>
    <g id="Path_12687" data-name="Path 12687" transform="translate(27.652 24.207)" fill="#fff">
      <path d="M 72.73307037353516 142.9661560058594 C 63.25057220458984 142.9661560058594 54.05303192138672 141.1095581054688 45.39596939086914 137.4479217529297 C 41.23490905761719 135.6879425048828 37.22137069702148 133.5094451904297 33.46685028076172 130.9729309082031 C 29.74735069274902 128.4600830078125 26.24961090087891 125.5741806030273 23.07079124450684 122.3953552246094 C 19.89199066162109 119.2165603637695 17.00607109069824 115.7188186645508 14.49323081970215 111.9993209838867 C 11.95673084259033 108.2447814941406 9.778230667114258 104.2312545776367 8.018250465393066 100.070198059082 C 4.356610298156738 91.41311645507812 2.50001049041748 82.215576171875 2.50001049041748 72.73307800292969 C 2.50001049041748 63.25057983398438 4.356610298156738 54.05303955078125 8.018250465393066 45.39595794677734 C 9.778230667114258 41.23489761352539 11.95673084259033 37.22135925292969 14.49323081970215 33.46683883666992 C 17.00607109069824 29.74733734130859 19.89199066162109 26.24959754943848 23.07079124450684 23.07077789306641 C 26.24961090087891 19.89197731018066 29.74735069274902 17.00605773925781 33.46685028076172 14.49321842193604 C 37.22137069702148 11.95671844482422 41.23490905761719 9.778218269348145 45.39596939086914 8.018238067626953 C 54.05303192138672 4.356597900390625 63.25057220458984 2.499998092651367 72.73307037353516 2.499998092651367 C 82.21556854248047 2.499998092651367 91.41310882568359 4.356597900390625 100.0701904296875 8.018238067626953 C 104.2312469482422 9.778218269348145 108.2447738647461 11.95671844482422 111.9993133544922 14.49321842193604 C 115.7188110351562 17.00605773925781 119.216552734375 19.89197731018066 122.3953475952148 23.07077789306641 C 125.5741729736328 26.24959754943848 128.4600677490234 29.74733734130859 130.9729309082031 33.46683883666992 C 133.5094299316406 37.22135925292969 135.6879272460938 41.23489761352539 137.4479064941406 45.39595794677734 C 141.1095428466797 54.05303955078125 142.9661560058594 63.25057983398438 142.9661560058594 72.73307800292969 C 142.9661560058594 80.77231597900391 141.6164703369141 88.65264129638672 138.9546051025391 96.15512084960938 C 136.3734283447266 103.4301986694336 132.6001434326172 110.2437591552734 127.7395706176758 116.4065170288086 C 124.5715713500977 120.4237213134766 120.9381866455078 124.103515625 116.9402313232422 127.3438568115234 C 112.9150924682617 130.6062164306641 108.5183334350586 133.4244995117188 103.8721084594727 135.7203979492188 C 99.13599395751953 138.0607147216797 94.12848663330078 139.8635406494141 88.98873138427734 141.0787963867188 C 83.69200897216797 142.3311614990234 78.22283172607422 142.9661560058594 72.73307037353516 142.9661560058594 Z" stroke="none"/>
      <path d="M 72.73307037353516 4.999984741210938 C 63.58695983886719 4.999984741210938 54.71709442138672 6.790145874023438 46.36984252929688 10.32073974609375 C 42.35746002197266 12.017822265625 38.48711395263672 14.11862182617188 34.86636352539062 16.56478881835938 C 31.27870941162109 18.98855590820312 27.90486907958984 21.77226257324219 24.83856964111328 24.83855438232422 C 21.77225494384766 27.90485382080078 18.98854827880859 31.27869415283203 16.56477355957031 34.86634826660156 C 14.11863708496094 38.48712158203125 12.01783752441406 42.35746765136719 10.32075500488281 46.36985015869141 C 6.7901611328125 54.71710205078125 5 63.58696746826172 5 72.73307800292969 C 5 81.87919616699219 6.7901611328125 90.74905395507812 10.32075500488281 99.09630584716797 C 12.01783752441406 103.1086883544922 14.11863708496094 106.9790115356445 16.56477355957031 110.5997772216797 C 18.98854827880859 114.1874389648438 21.77225494384766 117.561279296875 24.83856964111328 120.6275787353516 C 27.90486907958984 123.6938934326172 31.27870941162109 126.4775772094727 34.86636352539062 128.9013519287109 C 38.48711395263672 131.3475036621094 42.35746002197266 133.4483032226562 46.36984252929688 135.1454010009766 C 54.71709442138672 138.6759948730469 63.58695983886719 140.4661407470703 72.73307037353516 140.4661407470703 C 78.02936553955078 140.4661407470703 83.30502319335938 139.8537139892578 88.41348266601562 138.6458740234375 C 93.36941528320312 137.4740753173828 98.19781494140625 135.7357330322266 102.7645874023438 133.4790954589844 C 107.2449340820312 131.2651672363281 111.4846801757812 128.5475311279297 115.3660888671875 125.4016723632812 C 119.220458984375 122.2777099609375 122.7229995727539 118.7305145263672 125.776611328125 114.8583297729492 C 130.4678039550781 108.9103698730469 134.1087951660156 102.3364410400391 136.5984954833984 95.31916809082031 C 139.1648864746094 88.08580017089844 140.4661407470703 80.48676300048828 140.4661407470703 72.73307800292969 C 140.4661407470703 63.58696746826172 138.6759796142578 54.71710205078125 135.1453857421875 46.36985015869141 C 133.4483032226562 42.35746765136719 131.3475036621094 38.48712158203125 128.9013671875 34.86634826660156 C 126.4775924682617 31.27869415283203 123.6938858032227 27.90485382080078 120.627571105957 24.83855438232422 C 117.561279296875 21.77226257324219 114.1874313354492 18.98855590820312 110.5997772216797 16.56478881835938 C 106.9790267944336 14.11862182617188 103.1086883544922 12.017822265625 99.09629821777344 10.32073974609375 C 90.74904632568359 6.790145874023438 81.87918090820312 4.999984741210938 72.73307037353516 4.999984741210938 M 72.73307037353516 -1.52587890625e-05 C 112.9024353027344 -1.52587890625e-05 145.4661407470703 32.56371307373047 145.4661407470703 72.73307800292969 C 145.4661407470703 89.72471618652344 139.6395416259766 105.35546875 129.7024993896484 117.9546890258789 C 116.5563659667969 134.6247406005859 95.91079711914062 145.4661407470703 72.73307037353516 145.4661407470703 C 32.56370544433594 145.4661407470703 0 112.9024200439453 0 72.73307800292969 C 0 32.56371307373047 32.56370544433594 -1.52587890625e-05 72.73307037353516 -1.52587890625e-05 Z" stroke="none" fill="#e6e6e6"/>
    </g>
    <g id="Group_1088" data-name="Group 1088" transform="translate(43.145 33.198)">
      <g id="Group_1071" data-name="Group 1071" transform="translate(0 0)">
        <g id="Group_1070" data-name="Group 1070" clip-path="url(#clip-path)">
          <path id="Path_12684" data-name="Path 12684" d="M55.067,93.544,100.178,108.2a3.122,3.122,0,0,1,1.924,4.13A52.9,52.9,0,0,1,2.6,76.5,51.991,51.991,0,0,1,49.655,40.037a3.1,3.1,0,0,1,3.262,3.109V90.584a3.112,3.112,0,0,0,2.151,2.96" transform="translate(0 -26.51)" fill="#1365b5"/>
          <path id="Path_12685" data-name="Path 12685" d="M210.819,96.68l26.695-36.742a3.121,3.121,0,0,1,4.513-.56A51.887,51.887,0,0,1,259.549,113.3a3.122,3.122,0,0,1-3.981,2.2L212.376,101.47a3.112,3.112,0,0,1-1.556-4.789" transform="translate(-143.984 -37.894)" fill="#5c97d1"/>
          <path id="Path_12686" data-name="Path 12686" d="M184.131,43.238V3.111A3.121,3.121,0,0,1,187.439,0,49.879,49.879,0,0,1,212.5,8.146a3.121,3.121,0,0,1,.85,4.458L189.762,45.068a3.112,3.112,0,0,1-5.631-1.829" transform="translate(-124.974 6.673)" fill="#b8d2eb"/>
        </g>
      </g>
      <g id="Group_1085" data-name="Group 1085" transform="translate(13.784 62.268)">
        <ellipse id="Ellipse_301" data-name="Ellipse 301" cx="12.462" cy="16.097" rx="12.462" ry="16.097" transform="translate(8.828 4.454)" fill="#fff"/>
        <g id="Group_1073" data-name="Group 1073">
          <g id="Group_1072" data-name="Group 1072" clip-path="url(#clip-path-2)">
            <path id="Path_12688" data-name="Path 12688" d="M19.743,0A19.743,19.743,0,1,0,39.487,19.743,19.738,19.738,0,0,0,19.743,0m1.382,17.374a11.817,11.817,0,0,1,4.2,2.715,5.469,5.469,0,0,1,1.382,3.8,5.533,5.533,0,0,1-1.53,3.85,8.382,8.382,0,0,1-3.06,1.974v3.208H17.374V29.911a10.8,10.8,0,0,1-4.1-1.777l-.74-.592,2.221-3.949,1.037.839a5.555,5.555,0,0,0,3.6,1.185,3.082,3.082,0,0,0,1.925-.543,1.249,1.249,0,0,0,.543-1.086c0-1.037-1.629-1.876-2.616-2.27-3.9-1.678-5.923-3.751-5.923-6.219a5.371,5.371,0,0,1,1.431-3.8,6.989,6.989,0,0,1,2.863-1.777V6.663h4.738V9.822a15.954,15.954,0,0,1,3.356,1.283l1.037.592-2.517,4.146L23.248,15a4.623,4.623,0,0,0-3.06-.938,2.5,2.5,0,0,0-1.579.444.914.914,0,0,0-.444.839c.049-.1.1.74,2.961,2.024" fill="#043d66"/>
          </g>
        </g>
      </g>
      <g id="Group_1086" data-name="Group 1086" transform="translate(62.004 12.427)">
        <ellipse id="Ellipse_301-2" data-name="Ellipse 301" cx="5.72" cy="7.388" rx="5.72" ry="7.388" transform="translate(4.052 2.044)" fill="#fff"/>
        <g id="Group_1073-2" data-name="Group 1073">
          <g id="Group_1072-2" data-name="Group 1072" clip-path="url(#clip-path-3)">
            <path id="Path_12688-2" data-name="Path 12688" d="M9.062,0a9.062,9.062,0,1,0,9.062,9.062A9.059,9.059,0,0,0,9.062,0M9.7,7.974A5.424,5.424,0,0,1,11.621,9.22a2.51,2.51,0,0,1,.634,1.744,2.539,2.539,0,0,1-.7,1.767,3.847,3.847,0,0,1-1.4.906V15.11H7.974V13.728a4.958,4.958,0,0,1-1.88-.816l-.34-.272,1.019-1.812.476.385a2.55,2.55,0,0,0,1.654.544,1.414,1.414,0,0,0,.884-.249.573.573,0,0,0,.249-.5c0-.476-.748-.861-1.2-1.042C7.045,9.2,6.117,8.246,6.117,7.113a2.465,2.465,0,0,1,.657-1.744,3.208,3.208,0,0,1,1.314-.816v-1.5h2.175v1.45A7.322,7.322,0,0,1,11.8,5.1l.476.272-1.155,1.9-.453-.385a2.122,2.122,0,0,0-1.4-.43,1.15,1.15,0,0,0-.725.2.42.42,0,0,0-.2.385c.023-.045.045.34,1.359.929" fill="#043d66"/>
          </g>
        </g>
      </g>
      <g id="Group_1087" data-name="Group 1087" transform="translate(81.07 36.636)">
        <ellipse id="Ellipse_301-3" data-name="Ellipse 301" cx="9.299" cy="12.011" rx="9.299" ry="12.011" transform="translate(6.587 3.323)" fill="#fff"/>
        <g id="Group_1073-3" data-name="Group 1073">
          <g id="Group_1072-3" data-name="Group 1072" clip-path="url(#clip-path-4)">
            <path id="Path_12688-3" data-name="Path 12688" d="M14.731,0A14.731,14.731,0,1,0,29.463,14.731,14.727,14.727,0,0,0,14.731,0m1.031,12.964a8.817,8.817,0,0,1,3.13,2.026,4.08,4.08,0,0,1,1.031,2.836A4.128,4.128,0,0,1,18.782,20.7,6.254,6.254,0,0,1,16.5,22.171v2.394H12.964V22.318a8.061,8.061,0,0,1-3.057-1.326l-.552-.442L11.012,17.6l.773.626a4.145,4.145,0,0,0,2.688.884,2.3,2.3,0,0,0,1.436-.405.932.932,0,0,0,.405-.81c0-.773-1.215-1.4-1.952-1.694-2.909-1.252-4.419-2.8-4.419-4.64a4.008,4.008,0,0,1,1.068-2.836A5.215,5.215,0,0,1,13.148,7.4V4.972h3.536V7.329a11.9,11.9,0,0,1,2.5.958l.773.442-1.878,3.094-.737-.626a3.45,3.45,0,0,0-2.283-.7,1.869,1.869,0,0,0-1.179.331.682.682,0,0,0-.331.626c.037-.074.074.552,2.21,1.51" fill="#043d66"/>
          </g>
        </g>
      </g>
    </g>
  </g>
</svg>
