<svg xmlns="http://www.w3.org/2000/svg" xmlns:xlink="http://www.w3.org/1999/xlink" width="200" height="200" viewBox="0 0 200 200">
  <defs>
    <clipPath id="clip-path">
      <circle id="Ellipse_5" data-name="Ellipse 5" cx="100" cy="100" r="100" fill="#6e53a3"/>
    </clipPath>
    <clipPath id="clip-path-2">
      <circle id="Ellipse_5-2" data-name="Ellipse 5" cx="88.717" cy="88.717" r="88.717" fill="none" stroke="#fff" stroke-width="8"/>
    </clipPath>
    <clipPath id="clip-Reliability">
      <rect width="200" height="200"/>
    </clipPath>
  </defs>
  <g id="Reliability" clip-path="url(#clip-Reliability)">
    <g id="Group_472" data-name="Group 472">
      <circle id="Ellipse_24" data-name="Ellipse 24" cx="100" cy="100" r="100" fill="#6e53a3"/>
    </g>
    <g id="Group_480" data-name="Group 480" transform="translate(11.283 11.283)" opacity="0.301">
      <circle id="Ellipse_24-2" data-name="Ellipse 24" cx="88.717" cy="88.717" r="88.717" fill="none" stroke="#fff" stroke-width="8"/>
    </g>
    <path id="Path_662" data-name="Path 662" d="M92.234,16.784,84.054,8.6a9.648,9.648,0,0,0-6.8-2.8H38.271a9.7,9.7,0,0,0-6.812,2.8l-8.179,8.179H3V60.729H14a5.476,5.476,0,0,0,5.484-5.445h1.564L35.584,68.414a15.126,15.126,0,0,0,18.15.652,10.551,10.551,0,0,0,15.455-1.391,9.643,9.643,0,0,0,11-2.891l4.5-5.547a9.464,9.464,0,0,0,1.878-3.952h9.947A5.486,5.486,0,0,0,102,60.729h11V16.784ZM11.25,55.229A2.75,2.75,0,1,1,14,52.479,2.753,2.753,0,0,1,11.25,55.229Zm67.029-1.186-4.486,5.539a1.389,1.389,0,0,1-1.941.2l-4.109-3.331-5.154,6.27a2.305,2.305,0,0,1-3.1.416L53.168,57.72l-2.679,3.3a6.848,6.848,0,0,1-9.507,1.139L24.261,47.034H19.5V25.019h7.2L37.3,14.427l.982-.393h9.743l-6.647,6.1a12.3,12.3,0,0,0-.762,17.411c2.546,2.789,10.521,7.087,17.451.762l1.406-1.289L78.075,52.1a1.406,1.406,0,0,1,.2,1.941ZM96.5,47.034H84.6a10.035,10.035,0,0,0-1.32-1.328L65.629,31.375l2.153-1.956a2.756,2.756,0,0,0,.173-3.889l-1.878-2.011a2.761,2.761,0,0,0-3.881-.173l-9.491,8.7a4.365,4.365,0,0,1-5.948,0,4.07,4.07,0,0,1,.212-5.822L58.244,15.889a6.8,6.8,0,0,1,4.636-1.807l14.386-.031a1.292,1.292,0,0,1,.943.393L88.816,25.034H96.5Zm8.25,8.195a2.75,2.75,0,1,1,2.75-2.75A2.753,2.753,0,0,1,104.75,55.229Z" transform="translate(42 61.2)" fill="#fff"/>
  </g>
</svg>
