<svg xmlns="http://www.w3.org/2000/svg" xmlns:xlink="http://www.w3.org/1999/xlink" width="200" height="200" viewBox="0 0 200 200">
  <defs>
    <clipPath id="clip-path">
      <circle id="Ellipse_5" data-name="Ellipse 5" cx="100" cy="100" r="100" fill="#f05323"/>
    </clipPath>
    <clipPath id="clip-path-2">
      <circle id="Ellipse_5-2" data-name="Ellipse 5" cx="88.717" cy="88.717" r="88.717" fill="none" stroke="#fff" stroke-width="8"/>
    </clipPath>
    <clipPath id="clip-Scalability">
      <rect width="200" height="200"/>
    </clipPath>
  </defs>
  <g id="Scalability" clip-path="url(#clip-Scalability)">
    <g id="Group_472" data-name="Group 472">
      <circle id="Ellipse_24" data-name="Ellipse 24" cx="100" cy="100" r="100" fill="#f05323"/>
    </g>
    <g id="Group_480" data-name="Group 480" transform="translate(11.283 11.283)" opacity="0.301">
      <circle id="Ellipse_24-2" data-name="Ellipse 24" cx="88.717" cy="88.717" r="88.717" fill="none" stroke="#fff" stroke-width="8"/>
    </g>
    <path id="Path_652" data-name="Path 652" d="M99.879,67.25H15.5V7.879A3.126,3.126,0,0,0,12.379,4.75H6.129A3.128,3.128,0,0,0,3,7.879V73.5a6.252,6.252,0,0,0,6.25,6.25H99.879A3.125,3.125,0,0,0,103,76.629v-6.25A3.126,3.126,0,0,0,99.879,67.25ZM93.629,11H70.564a4.688,4.688,0,0,0-3.314,8l6.329,6.329L59.25,39.664,44.921,25.329a6.264,6.264,0,0,0-8.843,0L22.664,38.75a3.126,3.126,0,0,0,0,4.421l4.421,4.414a3.126,3.126,0,0,0,4.421,0l8.993-9L54.829,52.921a6.264,6.264,0,0,0,8.843,0l18.75-18.75,6.321,6.321a4.689,4.689,0,0,0,8.007-3.314V14.129A3.126,3.126,0,0,0,93.629,11Z" transform="translate(47 56.508)" fill="#fff"/>
  </g>
</svg>
