<svg xmlns="http://www.w3.org/2000/svg" xmlns:xlink="http://www.w3.org/1999/xlink" width="200" height="200" viewBox="0 0 200 200">
  <defs>
    <clipPath id="clip-path">
      <circle id="Ellipse_5" data-name="Ellipse 5" cx="100" cy="100" r="100" fill="#006d9a"/>
    </clipPath>
    <clipPath id="clip-path-2">
      <circle id="Ellipse_5-2" data-name="Ellipse 5" cx="88.717" cy="88.717" r="88.717" fill="none" stroke="#fff" stroke-width="8"/>
    </clipPath>
    <clipPath id="clip-Security">
      <rect width="200" height="200"/>
    </clipPath>
  </defs>
  <g id="Security" clip-path="url(#clip-Security)">
    <g id="Group_472" data-name="Group 472">
      <circle id="Ellipse_24" data-name="Ellipse 24" cx="100" cy="100" r="100" fill="#006d9a"/>
    </g>
    <g id="Group_480" data-name="Group 480" transform="translate(11.283 11.283)" opacity="0.301">
      <circle id="Ellipse_24-2" data-name="Ellipse 24" cx="88.717" cy="88.717" r="88.717" fill="none" stroke="#fff" stroke-width="8"/>
    </g>
    <path id="Path_666" data-name="Path 666" d="M75.15,44.917H69.286v-15.9h-.033a26.752,26.752,0,0,0-53.495,0h-.033v15.9H9.816a5.668,5.668,0,0,0-5.667,5.661V92.089A5.672,5.672,0,0,0,9.816,97.75H75.15a5.672,5.672,0,0,0,5.667-5.661V50.578A5.668,5.668,0,0,0,75.15,44.917ZM47.259,72.2v8.884c0,.157.026.478,0,.924a9.154,9.154,0,0,1-1.343,4.213,5.1,5.1,0,0,1-2.961,1.061,5.18,5.18,0,0,1-3.538-1.343,8.133,8.133,0,0,1-1.343-3.879,8.6,8.6,0,0,1,0-.95V72.2c-.354-.229-4.521-3-4.521-7.692a9.11,9.11,0,0,1,18.22,0A8.972,8.972,0,0,1,47.259,72.2ZM57.631,44.517H27.7V33.366h.02c.1-10.07,6.742-18.194,14.944-18.194S57.513,23.3,57.611,33.366h.02Z" transform="translate(58.851 41.25)" fill="#fff"/>
  </g>
</svg>
