<svg xmlns="http://www.w3.org/2000/svg" xmlns:xlink="http://www.w3.org/1999/xlink" width="200" height="200" viewBox="0 0 200 200">
  <defs>
    <linearGradient id="linear-gradient" x1="0.187" y1="0.199" x2="0.523" y2="0.525" gradientUnits="objectBoundingBox">
      <stop offset="0" stop-color="#00455f"/>
      <stop offset="0.37" stop-color="#006d93" stop-opacity="0.631"/>
      <stop offset="0.801" stop-color="#0099d2" stop-opacity="0.2"/>
      <stop offset="1" stop-color="#00aeef" stop-opacity="0"/>
    </linearGradient>
    <clipPath id="clip-path">
      <path id="Path_12216" data-name="Path 12216" d="M111.98,158.864c-9.614-26.853-22.764-38.983-18.508-55.914S113.3,69.978,111.98,41.235,83.626.049,83.626.049h54.5V158.864Z" fill="#fff"/>
    </clipPath>
    <filter id="Path_12219" x="62.14" y="35.732" width="82.609" height="82.598" filterUnits="userSpaceOnUse">
      <feOffset dx="2" dy="3" input="SourceAlpha"/>
      <feGaussianBlur stdDeviation="1" result="blur"/>
      <feFlood flood-color="#006f9d" flood-opacity="0.302"/>
      <feComposite operator="in" in2="blur"/>
      <feComposite in="SourceGraphic"/>
    </filter>
    <filter id="Ellipse_120" x="92.9" y="66.8" width="46" height="46" filterUnits="userSpaceOnUse">
      <feOffset dx="2" dy="3" input="SourceAlpha"/>
      <feGaussianBlur stdDeviation="1" result="blur-2"/>
      <feFlood flood-color="#006f9d" flood-opacity="0.349"/>
      <feComposite operator="in" in2="blur-2"/>
      <feComposite in="SourceGraphic"/>
    </filter>
    <filter id="Ellipse_121" x="69.7" y="59.6" width="21.5" height="22.5" filterUnits="userSpaceOnUse">
      <feOffset dx="2" dy="3" input="SourceAlpha"/>
      <feGaussianBlur stdDeviation="0.5" result="blur-3"/>
      <feFlood flood-color="#006f9d" flood-opacity="0.161"/>
      <feComposite operator="in" in2="blur-3"/>
      <feComposite in="SourceGraphic"/>
    </filter>
    <filter id="Ellipse_122" x="91.2" y="40.5" width="19.5" height="20.5" filterUnits="userSpaceOnUse">
      <feOffset dx="2" dy="3" input="SourceAlpha"/>
      <feGaussianBlur stdDeviation="0.5" result="blur-4"/>
      <feFlood flood-color="#006f9d" flood-opacity="0.161"/>
      <feComposite operator="in" in2="blur-4"/>
      <feComposite in="SourceGraphic"/>
    </filter>
    <clipPath id="clip-Services">
      <rect width="200" height="200"/>
    </clipPath>
  </defs>
  <g id="Services" clip-path="url(#clip-Services)">
    <circle id="Ellipse_24" data-name="Ellipse 24" cx="100" cy="100" r="100" fill="#00aeff"/>
    <path id="Path_3" data-name="Path 3" d="M293.156,243.087,201.088,100.818l-9.948,88.956-51,34.576,81,86.437C219.941,314.825,290.884,245.169,293.156,243.087Z" transform="translate(-61.748 -55.051)" opacity="0.8" fill="url(#linear-gradient)"/>
    <path id="Path_12213" data-name="Path 12213" d="M19.422,66.467c1.039-1.485,2.022-2.888,2.606-3.881,2.216-3.783,2.4-4.259,1.527-8.609-.8-4,.3-7.737,1.467-11.695.352-1.19.71-2.411,1.027-3.677l.157-.648C32.6,11.19,56.377,5.263,75.2,5c41.743-.624,52.431,34.684,52.859,47.084.4,11.474-5.73,26-10,32.211-4.065,5.915-7.163,17.95-7.535,29.269-.336,10.21,11.247,29.843,13.051,32.833a1.864,1.864,0,0,1-1.573,2.824h-67.5a2.249,2.249,0,0,1-2.277-2.331,33.537,33.537,0,0,0-1.47-9.227c-.657-2.4-1.225-4.465-.794-6.953.887-5.094-.363-9.866-3.186-12.157-1.313-1.07-6.271-1.7-10.254-2.214-4.178-.536-7.785-1-9.682-2-4.5-2.369-3.825-9.68-3.241-11.436.049-.151.108-.306.17-.469a1.968,1.968,0,0,0-.55-2.672c-2.28-2.281-2.121-4.32-1.25-6.1a5.179,5.179,0,0,1-1.581-2.114,5.241,5.241,0,0,1,.227-4.247,2.244,2.244,0,0,0,.219-1.8,3.182,3.182,0,0,0-1.947-1.366c-2.711-.9-5.578-2.254-5.309-6.858C13.731,74.77,16.1,71.215,19.422,66.467Z" transform="translate(25.053 20.393)" fill="#fff"/>
    <g id="Mask_Group_23" data-name="Mask Group 23" transform="translate(25.053 20.393)" clip-path="url(#clip-path)">
      <path id="Path_12215" data-name="Path 12215" d="M19.422,66.467c1.039-1.485,2.022-2.888,2.606-3.881,2.216-3.783,2.4-4.259,1.527-8.609-.8-4,.3-7.737,1.467-11.695.352-1.19.71-2.411,1.027-3.677l.157-.648C32.6,11.19,56.377,5.263,75.2,5c41.743-.624,52.431,34.684,52.859,47.084.4,11.474-5.73,26-10,32.211-4.065,5.915-7.163,17.95-7.535,29.269-.336,10.21,11.247,29.843,13.051,32.833a1.864,1.864,0,0,1-1.573,2.824h-67.5a2.249,2.249,0,0,1-2.277-2.331,33.537,33.537,0,0,0-1.47-9.227c-.657-2.4-1.225-4.465-.794-6.953.887-5.094-.363-9.866-3.186-12.157-1.313-1.07-6.271-1.7-10.254-2.214-4.178-.536-7.785-1-9.682-2-4.5-2.369-3.825-9.68-3.241-11.436.049-.151.108-.306.17-.469a1.968,1.968,0,0,0-.55-2.672c-2.28-2.281-2.121-4.32-1.25-6.1a5.179,5.179,0,0,1-1.581-2.114,5.241,5.241,0,0,1,.227-4.247,2.244,2.244,0,0,0,.219-1.8,3.182,3.182,0,0,0-1.947-1.366c-2.711-.9-5.578-2.254-5.309-6.858C13.731,74.77,16.1,71.215,19.422,66.467Z" fill="#e6e7e8"/>
    </g>
    <g transform="matrix(1, 0, 0, 1, 0, 0)" filter="url(#Path_12219)">
      <path id="Path_12219-2" data-name="Path 12219" d="M-173.195,400.855l-4.787-.8a20.341,20.341,0,0,0-2.128-5.151l2.837-4a1.884,1.884,0,0,0-.177-2.4l-1.684-1.688-1.684-1.688a1.8,1.8,0,0,0-1.33-.533,1.7,1.7,0,0,0-1.064.355l-3.9,2.842a18.539,18.539,0,0,0-5.142-2.132l-.8-4.8a1.8,1.8,0,0,0-1.773-1.51h-4.787a1.738,1.738,0,0,0-1.773,1.51l-.8,4.8a18.01,18.01,0,0,0-5.053,2.132l-3.989-2.842a1.7,1.7,0,0,0-1.064-.355,1.953,1.953,0,0,0-1.33.533l-1.684,1.688-1.684,1.688a1.875,1.875,0,0,0-.177,2.4l2.837,3.908a20.342,20.342,0,0,0-2.128,5.151l-4.787.8a1.9,1.9,0,0,0-1.507,1.865v4.8a1.74,1.74,0,0,0,1.507,1.776l4.7.8a17.561,17.561,0,0,0,2.128,5.151l-2.837,4a1.884,1.884,0,0,0,.177,2.4l1.684,1.688,1.684,1.688a1.8,1.8,0,0,0,1.33.533,1.7,1.7,0,0,0,1.064-.355l3.9-2.842a20.261,20.261,0,0,0,5.142,2.132l.8,4.8a1.8,1.8,0,0,0,1.773,1.51h4.787a1.738,1.738,0,0,0,1.773-1.51l.8-4.707a19.875,19.875,0,0,0,5.319-2.22l3.989,2.842a1.7,1.7,0,0,0,1.064.355,1.953,1.953,0,0,0,1.33-.533l1.684-1.688,1.684-1.688a1.875,1.875,0,0,0,.177-2.4l-2.837-3.908a18.614,18.614,0,0,0,2.128-5.151l4.787-.8a1.806,1.806,0,0,0,1.507-1.776v-4.8A2.179,2.179,0,0,0-173.195,400.855Zm-8.422,7.9a16.093,16.093,0,0,1-15.691,12.523,17.655,17.655,0,0,1-3.635-.444A16.06,16.06,0,0,1-213,401.477a16.093,16.093,0,0,1,15.691-12.523,17.651,17.651,0,0,1,3.635.444A16.239,16.239,0,0,1-181.616,408.76Zm-35.371-22.826-.266-1.421-.266-1.421a1.053,1.053,0,0,0-1.064-.888h-2.925a10.266,10.266,0,0,0-1.773-2.842l1.241-2.665a1.115,1.115,0,0,0-.355-1.421l-1.152-.8-1.152-.8a.9.9,0,0,0-.8-.178,1.323,1.323,0,0,0-.621.266l-2.039,2.043a13.625,13.625,0,0,0-3.28-.8l-.975-2.753a1.087,1.087,0,0,0-1.241-.711h0l-1.418.266-1.418.266a1.054,1.054,0,0,0-.886,1.066v2.931a13.735,13.735,0,0,0-2.837,1.776l-2.659-1.332a1.725,1.725,0,0,0-.709-.089,1.218,1.218,0,0,0-.709.444l-.8,1.155-.8,1.155a1.081,1.081,0,0,0,.089,1.421l2.039,2.043a13.7,13.7,0,0,0-.8,3.286l-2.837.977a1.089,1.089,0,0,0-.709,1.243l.266,1.421.266,1.421a1.054,1.054,0,0,0,1.064.888h2.925a10.267,10.267,0,0,0,1.773,2.842l-1.33,2.665a1.115,1.115,0,0,0,.355,1.421l1.152.8,1.152.8a.9.9,0,0,0,.8.178,1.322,1.322,0,0,0,.621-.266l2.039-2.043a13.627,13.627,0,0,0,3.28.8l.975,2.842a1.087,1.087,0,0,0,1.241.711h0l1.418-.266,1.418-.267a1.054,1.054,0,0,0,.886-1.066V398.1a10.235,10.235,0,0,0,2.925-1.865l2.659,1.243a1.725,1.725,0,0,0,.709.089,1.218,1.218,0,0,0,.709-.444l.8-1.155.8-1.155a1.081,1.081,0,0,0-.089-1.421l-2.039-2.043a13.7,13.7,0,0,0,.8-3.286l2.748-.977A.981.981,0,0,0-216.987,385.934Zm-9.219.622a6.36,6.36,0,0,1-5.851,6.839,6.355,6.355,0,0,1-6.826-5.862,6.309,6.309,0,0,1,5.851-6.839A6.355,6.355,0,0,1-226.206,386.555Zm24.644-12.435.621-1.066.621-1.066a.97.97,0,0,0-.266-1.155l-1.862-1.51a9.787,9.787,0,0,0,.355-2.753l2.128-1.066a.784.784,0,0,0,.443-1.066l-.355-1.155-.355-1.155a.91.91,0,0,0-.443-.533,1.122,1.122,0,0,0-.532-.089l-2.393.266a9.917,9.917,0,0,0-1.684-2.132l.8-2.22a.784.784,0,0,0-.443-1.066h0l-1.064-.622-1.064-.622a.966.966,0,0,0-1.152.267l-1.507,1.865a9.137,9.137,0,0,0-2.659-.355l-1.064-2.22a.886.886,0,0,0-.355-.444.94.94,0,0,0-.709-.089l-1.152.355-1.152.355a.818.818,0,0,0-.621.977l.266,2.4a7.767,7.767,0,0,0-2.128,1.688l-2.3-.8a.782.782,0,0,0-1.064.444l-.621,1.066-.621,1.066a.97.97,0,0,0,.266,1.155l1.862,1.51a9.387,9.387,0,0,0-.355,2.753l-2.216,1.066a.784.784,0,0,0-.443,1.066l.355,1.155.355,1.155a.909.909,0,0,0,.443.533,1.123,1.123,0,0,0,.532.089l2.393-.266a7.777,7.777,0,0,0,1.684,2.132l-.8,2.309a.784.784,0,0,0,.443,1.066h0l1.064.622,1.064.622a.966.966,0,0,0,1.152-.266l1.507-1.865a9.941,9.941,0,0,0,2.837.355l1.064,2.132a.886.886,0,0,0,.355.444.94.94,0,0,0,.709.089l1.152-.355,1.152-.355a.818.818,0,0,0,.621-.977l-.266-2.4a9.9,9.9,0,0,0,2.128-1.688l2.216.8A1.078,1.078,0,0,0-201.562,374.121Zm-6.205-4.352a5.146,5.146,0,0,1-7.18,1.421A5.168,5.168,0,0,1-216.366,364a5.146,5.146,0,0,1,7.18-1.421A5.184,5.184,0,0,1-207.767,369.769Z" transform="translate(311.26 -318.37)" fill="#ff9d27"/>
    </g>
    <g transform="matrix(1, 0, 0, 1, 0, 0)" filter="url(#Ellipse_120)">
      <g id="Ellipse_120-2" data-name="Ellipse 120" transform="translate(93.9 66.8)" fill="none" stroke="#e58b22" stroke-width="9">
        <circle cx="20" cy="20" r="20" stroke="none"/>
        <circle cx="20" cy="20" r="15.5" fill="none"/>
      </g>
    </g>
    <g transform="matrix(1, 0, 0, 1, 0, 0)" filter="url(#Ellipse_121)">
      <g id="Ellipse_121-2" data-name="Ellipse 121" transform="translate(69.7 59.6)" fill="none" stroke="#e58b22" stroke-width="5">
        <circle cx="9" cy="9" r="9" stroke="none"/>
        <circle cx="9" cy="9" r="6.5" fill="none"/>
      </g>
    </g>
    <g transform="matrix(1, 0, 0, 1, 0, 0)" filter="url(#Ellipse_122)">
      <g id="Ellipse_122-2" data-name="Ellipse 122" transform="translate(91.2 40.5)" fill="none" stroke="#e58b22" stroke-width="5">
        <circle cx="8" cy="8" r="8" stroke="none"/>
        <circle cx="8" cy="8" r="5.5" fill="none"/>
      </g>
    </g>
    <path id="Path_12220" data-name="Path 12220" d="M-173.195,400.855l-4.787-.8a20.341,20.341,0,0,0-2.128-5.151l2.837-4a1.884,1.884,0,0,0-.177-2.4l-1.684-1.688-1.684-1.688a1.8,1.8,0,0,0-1.33-.533,1.7,1.7,0,0,0-1.064.355l-3.9,2.842a18.539,18.539,0,0,0-5.142-2.132l-.8-4.8a1.8,1.8,0,0,0-1.773-1.51h-4.787a1.738,1.738,0,0,0-1.773,1.51l-.8,4.8a18.01,18.01,0,0,0-5.053,2.132l-3.989-2.842a1.7,1.7,0,0,0-1.064-.355,1.953,1.953,0,0,0-1.33.533l-1.684,1.688-1.684,1.688a1.875,1.875,0,0,0-.177,2.4l2.837,3.908a20.342,20.342,0,0,0-2.128,5.151l-4.787.8a1.9,1.9,0,0,0-1.507,1.865v4.8a1.74,1.74,0,0,0,1.507,1.776l4.7.8a17.561,17.561,0,0,0,2.128,5.151l-2.837,4a1.884,1.884,0,0,0,.177,2.4l1.684,1.688,1.684,1.688a1.8,1.8,0,0,0,1.33.533,1.7,1.7,0,0,0,1.064-.355l3.9-2.842a20.261,20.261,0,0,0,5.142,2.132l.8,4.8a1.8,1.8,0,0,0,1.773,1.51h4.787a1.738,1.738,0,0,0,1.773-1.51l.8-4.707a19.875,19.875,0,0,0,5.319-2.22l3.989,2.842a1.7,1.7,0,0,0,1.064.355,1.953,1.953,0,0,0,1.33-.533l1.684-1.688,1.684-1.688a1.875,1.875,0,0,0,.177-2.4l-2.837-3.908a18.614,18.614,0,0,0,2.128-5.151l4.787-.8a1.806,1.806,0,0,0,1.507-1.776v-4.8A2.179,2.179,0,0,0-173.195,400.855Zm-8.422,7.9a16.093,16.093,0,0,1-15.691,12.523,17.655,17.655,0,0,1-3.635-.444A16.06,16.06,0,0,1-213,401.477a16.093,16.093,0,0,1,15.691-12.523,17.651,17.651,0,0,1,3.635.444A16.239,16.239,0,0,1-181.616,408.76Zm-35.371-22.826-.266-1.421-.266-1.421a1.053,1.053,0,0,0-1.064-.888h-2.925a10.266,10.266,0,0,0-1.773-2.842l1.241-2.665a1.115,1.115,0,0,0-.355-1.421l-1.152-.8-1.152-.8a.9.9,0,0,0-.8-.178,1.323,1.323,0,0,0-.621.266l-2.039,2.043a13.625,13.625,0,0,0-3.28-.8l-.975-2.753a1.087,1.087,0,0,0-1.241-.711h0l-1.418.266-1.418.266a1.054,1.054,0,0,0-.886,1.066v2.931a13.735,13.735,0,0,0-2.837,1.776l-2.659-1.332a1.725,1.725,0,0,0-.709-.089,1.218,1.218,0,0,0-.709.444l-.8,1.155-.8,1.155a1.081,1.081,0,0,0,.089,1.421l2.039,2.043a13.7,13.7,0,0,0-.8,3.286l-2.837.977a1.089,1.089,0,0,0-.709,1.243l.266,1.421.266,1.421a1.054,1.054,0,0,0,1.064.888h2.925a10.267,10.267,0,0,0,1.773,2.842l-1.33,2.665a1.115,1.115,0,0,0,.355,1.421l1.152.8,1.152.8a.9.9,0,0,0,.8.178,1.322,1.322,0,0,0,.621-.266l2.039-2.043a13.627,13.627,0,0,0,3.28.8l.975,2.842a1.087,1.087,0,0,0,1.241.711h0l1.418-.266,1.418-.267a1.054,1.054,0,0,0,.886-1.066V398.1a10.235,10.235,0,0,0,2.925-1.865l2.659,1.243a1.725,1.725,0,0,0,.709.089,1.218,1.218,0,0,0,.709-.444l.8-1.155.8-1.155a1.081,1.081,0,0,0-.089-1.421l-2.039-2.043a13.7,13.7,0,0,0,.8-3.286l2.748-.977A.981.981,0,0,0-216.987,385.934Zm-9.219.622a6.36,6.36,0,0,1-5.851,6.839,6.355,6.355,0,0,1-6.826-5.862,6.309,6.309,0,0,1,5.851-6.839A6.355,6.355,0,0,1-226.206,386.555Zm24.644-12.435.621-1.066.621-1.066a.97.97,0,0,0-.266-1.155l-1.862-1.51a9.787,9.787,0,0,0,.355-2.753l2.128-1.066a.784.784,0,0,0,.443-1.066l-.355-1.155-.355-1.155a.91.91,0,0,0-.443-.533,1.122,1.122,0,0,0-.532-.089l-2.393.266a9.917,9.917,0,0,0-1.684-2.132l.8-2.22a.784.784,0,0,0-.443-1.066h0l-1.064-.622-1.064-.622a.966.966,0,0,0-1.152.267l-1.507,1.865a9.137,9.137,0,0,0-2.659-.355l-1.064-2.22a.886.886,0,0,0-.355-.444.94.94,0,0,0-.709-.089l-1.152.355-1.152.355a.818.818,0,0,0-.621.977l.266,2.4a7.767,7.767,0,0,0-2.128,1.688l-2.3-.8a.782.782,0,0,0-1.064.444l-.621,1.066-.621,1.066a.97.97,0,0,0,.266,1.155l1.862,1.51a9.387,9.387,0,0,0-.355,2.753l-2.216,1.066a.784.784,0,0,0-.443,1.066l.355,1.155.355,1.155a.909.909,0,0,0,.443.533,1.123,1.123,0,0,0,.532.089l2.393-.266a7.777,7.777,0,0,0,1.684,2.132l-.8,2.309a.784.784,0,0,0,.443,1.066h0l1.064.622,1.064.622a.966.966,0,0,0,1.152-.266l1.507-1.865a9.941,9.941,0,0,0,2.837.355l1.064,2.132a.886.886,0,0,0,.355.444.94.94,0,0,0,.709.089l1.152-.355,1.152-.355a.818.818,0,0,0,.621-.977l-.266-2.4a9.9,9.9,0,0,0,2.128-1.688l2.216.8A1.078,1.078,0,0,0-201.562,374.121Zm-6.205-4.352a5.146,5.146,0,0,1-7.18,1.421A5.168,5.168,0,0,1-216.366,364a5.146,5.146,0,0,1,7.18-1.421A5.184,5.184,0,0,1-207.767,369.769Z" transform="translate(311.259 -318.368)" fill="#ff9d27"/>
  </g>
</svg>
