<svg xmlns="http://www.w3.org/2000/svg" viewBox="2381 361 218.8 171.09">
  <defs>
    <style>
      .cls-1 {
        fill: #00aeff;
      }
    </style>
  </defs>
  <g id="_404" data-name="404" transform="translate(2381 361)">
    <g id="Layer_1" data-name="Layer 1">
      <path id="Path_625" data-name="Path 625" class="cls-1" d="M207.76,0H11A11,11,0,0,0,0,11V135.61a11,11,0,0,0,11,11H91.83C88,154,81.37,159.09,75.32,159.09H71.8a3.86,3.86,0,0,0-3.7,4v4a3.86,3.86,0,0,0,3.7,4H147a3.86,3.86,0,0,0,3.7-4v-4a3.86,3.86,0,0,0-3.7-4h-3.43c-6.84,0-13.22-4.82-16.86-12.48H207.8a11,11,0,0,0,11-11V11A11,11,0,0,0,207.76,0ZM143.53,163.09h3.13v4H72.1v-4h3.22c8.13,0,16.58-6.72,20.94-16.48h26C126.41,156.66,134.61,163.09,143.53,163.09Zm71.23-27.48a7,7,0,0,1-7,7H11a7,7,0,0,1-7-7V11a7,7,0,0,1,7-7H207.76a7,7,0,0,1,7,7Z"/>
      <path id="Path_626" data-name="Path 626" class="cls-1" d="M198.58,8.84H20.18a11,11,0,0,0-11,11V113a11,11,0,0,0,11,11h178.4a11,11,0,0,0,11-11V19.84A11,11,0,0,0,198.58,8.84Zm-148,78.24a20.665,20.665,0,1,1,.01,0Zm155,25.91a7,7,0,0,1-7,7H86V12.84H198.58a7,7,0,0,1,7,7Z"/>
      <path id="Path_627" data-name="Path 627" class="cls-1" d="M60,59.34,57.66,57a1.55,1.55,0,0,0-2.12,0l-4.95,5-5-5a1.55,1.55,0,0,0-2.12,0l-2.3,2.3a1.49,1.49,0,0,0,0,2.12l4.95,5-4.95,5a1.49,1.49,0,0,0,0,2.12l2.3,2.3a1.5,1.5,0,0,0,2.12,0l5-5,4.95,5a1.5,1.5,0,0,0,2.12,0l2.3-2.3a1.49,1.49,0,0,0,0-2.12l-5-5,5-5A1.49,1.49,0,0,0,60,59.34Z"/>
      <path id="Path_628" data-name="Path 628" class="cls-1" d="M101.23,34.69h21.85a2,2,0,1,0,0-4H101.23a2,2,0,0,0,0,4Z"/>
      <path id="Path_629" data-name="Path 629" class="cls-1" d="M186.16,30.69H141a2,2,0,0,0,0,4h45.21a2,2,0,0,0,0-4Z"/>
      <path id="Path_630" data-name="Path 630" class="cls-1" d="M101.23,50.46h74.93a2,2,0,0,0,0-4H101.23a2,2,0,0,0,0,4Z"/>
      <path id="Path_631" data-name="Path 631" class="cls-1" d="M182.16,61.46H101.23a2,2,0,0,0,0,4h80.93a2,2,0,1,0,0-4Z"/>
      <path id="Path_632" data-name="Path 632" class="cls-1" d="M101.23,81.46h40.93a2,2,0,0,0,0-4H101.23a2,2,0,0,0,0,4Z"/>
      <path id="Path_633" data-name="Path 633" class="cls-1" d="M176.16,92.46H101.23a2,2,0,0,0,0,4h74.93a2,2,0,0,0,0-4Z"/>
    </g>
  </g>
</svg>
