<svg id="Layer_1" data-name="Layer 1" xmlns="http://www.w3.org/2000/svg" viewBox="0 0 352.44 352.44"><defs><style>.cls-1{fill:#ffab00;}.cls-2{fill:#ff8f00;}.cls-3{fill:#ffccbc;}.cls-4{fill:#efac9a;}.cls-5{fill:#231f20;}.cls-6{fill:#682319;}.cls-7{fill:#d81b60;}.cls-8{fill:#512da8;}.cls-9{fill:#fff;}</style></defs><circle class="cls-1" cx="176.22" cy="176.22" r="176.22"/><path class="cls-2" d="M176.36,0V352.43A176.22,176.22,0,0,0,176.36,0Z"/><ellipse class="cls-3" cx="176.5" cy="192.4" rx="85" ry="100.68"/><path class="cls-4" d="M177,91.72h-.64V293.07H177c46.94,0,85-45.07,85-100.68S223.94,91.72,177,91.72Z"/><ellipse class="cls-3" cx="91.57" cy="186.92" rx="12.65" ry="13.03"/><ellipse class="cls-4" cx="263.59" cy="186.92" rx="12.65" ry="13.03"/><path class="cls-5" d="M193.25,190a7.49,7.49,0,1,0,7.49,7.49A7.48,7.48,0,0,0,193.25,190Z"/><path class="cls-6" d="M198.54,170a20.93,20.93,0,0,0-12.77,4.08v6.38c3.07-4.2,25.83-5.25,29.12-2.42C212.06,173.33,205.8,170,198.54,170Z"/><path class="cls-5" d="M157.5,190.41A7.49,7.49,0,1,0,165,197.9,7.49,7.49,0,0,0,157.5,190.41Z"/><path class="cls-6" d="M135.87,177.63c3.29-2.84,26-1.78,29.12,2.41v-6.37a21,21,0,0,0-12.78-4.08C145,169.59,138.7,172.89,135.87,177.63Z"/><path class="cls-7" d="M191,242.4c-2.5-1-4.85-2.57-7.42-3.22s-5.57-.12-7.24,2.38h-.44c-1.66-2.5-4.66-3-7.23-2.38s-4.93,2.22-7.42,3.22a17.57,17.57,0,0,1-10.92.76c6.22,9.13,16.19,14.11,25.79,12.93,9.61,1.18,19.58-3.8,25.79-12.93A17.53,17.53,0,0,1,191,242.4Z"/><path class="cls-8" d="M268.17,194.46a4.39,4.39,0,1,0,4.39,4.38A4.38,4.38,0,0,0,268.17,194.46Z"/><path class="cls-8" d="M272.56,207.61a4.39,4.39,0,1,0-6.07,4,4.39,4.39,0,1,0,3.37,0A4.4,4.4,0,0,0,272.56,207.61Z"/><path class="cls-8" d="M269.54,236.73a4.38,4.38,0,0,0,.32-8.21,4.39,4.39,0,1,0-3.37,0,4.38,4.38,0,0,0,.32,8.21,8.77,8.77,0,1,0,2.73,0Z"/><path class="cls-8" d="M87.53,194.46a4.39,4.39,0,1,0,4.39,4.38A4.38,4.38,0,0,0,87.53,194.46Z"/><path class="cls-8" d="M91.92,207.61a4.39,4.39,0,1,0-6.07,4,4.39,4.39,0,1,0,3.37,0A4.38,4.38,0,0,0,91.92,207.61Z"/><path class="cls-8" d="M88.9,236.73a4.38,4.38,0,0,0,.32-8.21,4.39,4.39,0,1,0-3.37,0,4.38,4.38,0,0,0,.32,8.21,8.77,8.77,0,1,0,2.73,0Z"/><path class="cls-9" d="M237.26,115.23c.53-9.76-7.17-17-14.29-21.36a93.19,93.19,0,0,0-23.31-10.71c-18.95-5.45-39.25-2.64-57.16,6.7s-33.46,25-45.24,44.06c-2.84,4.59-5.87,9.72-10.44,11.05.79,2.91,1.59,5.82,2.38,8.73l-15.81-.06A21.42,21.42,0,0,1,80.7,165.3,31.45,31.45,0,0,1,51.06,161c6.2,6,12.56,12.06,20,15.14,7.89,3.25,16.42,2.9,24.72,2.31,28.29-2,57.22-6.65,82.22-23,6.55-4.3,12.78-9.37,19.58-13.05,7.29-3.93,15.15-6.22,22.22-10.73,5.06-3.22,10-7.68,15.7-7.67.16,6.65-1.59,13.81,1,19.63,4,8.89,20.94,29.26,25.56,37.67,1.84-9.38-3.83-40.16-7.09-48.94S245.06,116.46,237.26,115.23Z"/><path class="cls-8" d="M256.79,110.78H243.14a65.25,65.25,0,0,0-130.22,0H99.27a6.09,6.09,0,0,0-6.07,6.07v2.36a6.09,6.09,0,0,0,6.07,6.07H256.79a6.09,6.09,0,0,0,6.07-6.07v-2.36A6.09,6.09,0,0,0,256.79,110.78Z"/></svg>