<svg id="Layer_1" data-name="Layer 1" xmlns="http://www.w3.org/2000/svg" viewBox="0 0 352.44 352.44"><defs><style>.cls-1{fill:#ff5177;}.cls-2{fill:#d81b60;}.cls-3{fill:#ffccbc;}.cls-4{fill:#efac9a;}.cls-5{fill:#231f20;}.cls-6{fill:#682319;}.cls-7{fill:#b76b5c;}.cls-8{fill:#824640;}</style></defs><circle class="cls-1" cx="176.22" cy="176.22" r="176.22"/><path class="cls-2" d="M176.36,0V352.43A176.22,176.22,0,0,0,176.36,0Z"/><ellipse class="cls-3" cx="176.97" cy="188.92" rx="85" ry="100.68"/><path class="cls-4" d="M177,88.24h-.65V289.59H177c46.94,0,85-45.08,85-100.68S223.91,88.24,177,88.24Z"/><circle class="cls-5" cx="160.87" cy="184.45" r="7.49"/><path class="cls-5" d="M193.45,177a7.49,7.49,0,1,0,7.49,7.49A7.49,7.49,0,0,0,193.45,177Z"/><rect class="cls-6" x="142.3" y="157.13" width="26.06" height="4.55"/><rect class="cls-6" x="185.96" y="157.13" width="26.06" height="4.55"/><path class="cls-3" d="M91.6,169.9a13,13,0,1,0,12.65,13A12.85,12.85,0,0,0,91.6,169.9Z"/><path class="cls-4" d="M260.84,169.9a13,13,0,1,0,12.64,13A12.85,12.85,0,0,0,260.84,169.9Z"/><path class="cls-7" d="M177.16,249.21a28.7,28.7,0,0,0,28.57-28.33H148.59A28.69,28.69,0,0,0,177.16,249.21Z"/><path class="cls-8" d="M123.53,126.17l.06.4C123.46,126.66,125.37,122.62,123.53,126.17Z"/><path class="cls-8" d="M109.88,118.11c-1.09,1.43-2.18,2.92-3.3,4.49-7.84,11.05-8.84,22.61-13,35.5-1,3.27-2,9,.77,9.66,1.46.35,1.91,2.31,3,3.39,5.75,5.95,7.72,14.62,8.14,22.88s-.47,16.6.67,24.79a52.3,52.3,0,0,1,14.1-1.46q-4-25.29-6.8-50.72c-.79-7.13-1.52-14.36-.37-21.43s6.86-12,10.14-18.35c.13-.26.24-.49.35-.69C120.25,103.58,114.55,113.51,109.88,118.11Z"/><path class="cls-8" d="M245.58,120.6c-.18-.31-6-13.73-10-11.23-4.83,3.07-.33,16.18-5.45,18.52a20.66,20.66,0,0,1,2.29,1.47c5.76,4.26,9,11.27,10.14,18.35s.41,14.3-.38,21.43q-2.83,25.43-6.8,50.72a52.26,52.26,0,0,1,14.1,1.46c1.14-8.19.26-16.53.68-24.79s2.38-16.93,8.13-22.88a17.56,17.56,0,0,0,2.95-3.39c1.68-3,.66-6.71-.39-10C256.72,147.39,252.54,132.23,245.58,120.6Z"/><path class="cls-6" d="M177,70.55c-48-1.63-64.34,18.5-71.39,29.82-8.83,14.21-3.75,29.75-3.75,29.75s7.21-13.91,13.75-8.75l7.75,5c12.25-13.75,25.76.68,52.75,0,20-.5,27.61-12.52,55,2.25,2.41,1.3,2.07-15.14,12-10,3.46,1.79,8,13.5,8,13.5a48.81,48.81,0,0,0-7-33.5C233.7,82.57,215.6,71.87,177,70.55Z"/></svg>