<svg id="Layer_1" data-name="Layer 1" xmlns="http://www.w3.org/2000/svg" viewBox="0 0 352.44 352.44"><defs><style>.cls-1{fill:#b39ddb;}.cls-2{fill:#9575cd;}.cls-3{fill:#fff;}.cls-4{fill:#d89b79;}.cls-5{fill:#c18161;}.cls-6{fill:#231f20;}.cls-7{fill:#ad1457;}.cls-8{fill:#d81b60;}</style></defs><circle class="cls-1" cx="176.22" cy="176.22" r="176.22"/><path class="cls-2" d="M176.36,0V352.43A176.22,176.22,0,0,0,176.36,0Z"/><path class="cls-3" d="M208.36,53.67c-9.48-2.78-39.52-7.39-74.2,3.38C95,69.19,72,115.86,64.34,148.11c-11.72,49.6-4.73,96.47,15.51,130.54.89-7.16,3.08-18.8,5.74-25.3C83.9,285.73,89.3,287.75,94,299.9c3.11-7.11,4-19.88,7.08-27-1.11,22.45,4.39,28.67,16.53,38.46-7.71-40.95-3.6-52.6,1.66-94.09l6.34,19.62a144.64,144.64,0,0,1,10-75.33,63.2,63.2,0,0,0,6.19,32.48l4.45-13.36a69.92,69.92,0,0,1-.49,33.35A111.11,111.11,0,0,0,153,183.38a17.51,17.51,0,0,1,4.69,9.82,95.8,95.8,0,0,1,12.48-41.52A89.4,89.4,0,0,0,167,178.79l7-12a143.29,143.29,0,0,1-.06,34.63,104.72,104.72,0,0,0,9.25-27.62l3.33,18C192.81,183.18,196,171.4,195,160l4.9,22.18a11.55,11.55,0,0,0,3.42-6.86,128.47,128.47,0,0,1,4,15.53l2.31-5.19a136.26,136.26,0,0,1,6,30.29,92.49,92.49,0,0,0,1.37-29.42l2.94,6.91a78.84,78.84,0,0,0,3.21-22.73c7.77,21.69-.17,47.24-1.23,70.8l7.76-14.17c-4,24.48,5.4,57,10.46,78.25,8.09-9.11,5-21.07,7.08-27-.67,18.55,3,19.31,4.72,25,20.24-22.94,19.86-42.71,19.9-53.63,2,4.61,4.77,29.11,6.75,33.73,35.08-66.45,8.05-160.57-8.44-185C249.17,67.84,234.63,61.38,208.36,53.67Z"/><path class="cls-4" d="M95.54,166.64a13,13,0,1,0,12.65,13A12.84,12.84,0,0,0,95.54,166.64Z"/><path class="cls-5" d="M264.78,166.64a13,13,0,1,0,12.64,13A12.84,12.84,0,0,0,264.78,166.64Z"/><ellipse class="cls-4" cx="177.34" cy="181.27" rx="85" ry="100.68"/><path class="cls-5" d="M177.34,80.59h-.64V281.94h.64c46.94,0,85-45.07,85-100.68S224.28,80.59,177.34,80.59Z"/><circle class="cls-6" cx="194.47" cy="189.23" r="7.49" transform="translate(-54.78 296.48) rotate(-67.5)"/><path class="cls-6" d="M199.76,161.8A21,21,0,0,0,187,165.88v6.38c3.07-4.2,25.83-5.25,29.12-2.42C213.27,165.1,207,161.8,199.76,161.8Z"/><path class="cls-6" d="M158.71,182.18a7.49,7.49,0,1,0,7.49,7.49A7.49,7.49,0,0,0,158.71,182.18Z"/><path class="cls-6" d="M137.08,169.4c3.29-2.84,26-1.78,29.12,2.41v-6.37a20.93,20.93,0,0,0-12.77-4.08C146.16,161.36,139.91,164.66,137.08,169.4Z"/><path class="cls-7" d="M190.91,234.17c-2.49-1-4.84-2.57-7.42-3.21s-5.57-.13-7.23,2.38h-.44c-1.67-2.51-4.67-3-7.24-2.38s-4.92,2.21-7.42,3.21a17.53,17.53,0,0,1-10.91.76c6.21,9.13,16.18,14.11,25.79,12.93,9.6,1.18,19.57-3.8,25.79-12.93A17.57,17.57,0,0,1,190.91,234.17Z"/><circle class="cls-8" cx="88.79" cy="193.78" r="10.62"/><circle class="cls-8" cx="270.93" cy="190.28" r="10.62" transform="translate(-36.47 67.34) rotate(-13.28)"/><path class="cls-3" d="M177.5,76.68c-47.37,0-85.9,36.93-87,82.9h174C263.4,113.61,224.87,76.68,177.5,76.68Z"/><path class="cls-8" d="M239.38,99.05a93.84,93.84,0,0,0-125.11,0c-15.74,14.41-25.13,33.38-26.74,53.79H92.6c3.49-40.43,40.31-72.62,84.22-72.62s80.74,32.19,84.22,72.62h5.08C264.51,132.43,255.12,113.46,239.38,99.05Z"/><path class="cls-8" d="M123,92.12c-3,1-31.37,6.41-31.37,6.41l14.5,23.28s18.89-24.29,19.9-24,30.36-6.07,30.36-6.07L144.61,68.85Z"/></svg>