<svg id="Layer_1" data-name="Layer 1" xmlns="http://www.w3.org/2000/svg" viewBox="0 0 352.44 352.44"><defs><style>.cls-1{fill:#9233c4;}.cls-2{fill:#7b1fa2;}.cls-3{fill:#ffe7d7;}.cls-4{fill:#f2d4c0;}.cls-5{fill:#231f20;}.cls-6{fill:#ff3d00;}.cls-7{fill:#ff8f00;}.cls-8{fill:#15edc9;}</style></defs><circle class="cls-1" cx="176.22" cy="176.22" r="176.22"/><path class="cls-2" d="M176.36,0V352.43A176.22,176.22,0,0,0,176.36,0Z"/><ellipse class="cls-3" cx="177.81" cy="184.82" rx="85" ry="100.68"/><path class="cls-4" d="M177.81,84.14h-.64V285.49h.64c46.95,0,85-45.07,85-100.68S224.76,84.14,177.81,84.14Z"/><path class="cls-3" d="M92.89,165.64a13,13,0,1,0,12.65,13A12.84,12.84,0,0,0,92.89,165.64Z"/><ellipse class="cls-4" cx="263.9" cy="180.69" rx="12.65" ry="13.03"/><path class="cls-5" d="M194.57,180.87a7.49,7.49,0,1,0,7.49,7.49A7.49,7.49,0,0,0,194.57,180.87Z"/><path class="cls-5" d="M158.81,181.31a7.49,7.49,0,1,0,7.49,7.49A7.5,7.5,0,0,0,158.81,181.31Z"/><path class="cls-6" d="M191,233.3c-2.49-1-4.85-2.57-7.42-3.22s-5.57-.12-7.23,2.39h-.45c-1.66-2.51-4.66-3-7.23-2.39s-4.92,2.22-7.42,3.22a17.53,17.53,0,0,1-10.91.76c6.21,9.13,16.18,14.11,25.79,12.93,9.6,1.18,19.57-3.8,25.79-12.93A17.56,17.56,0,0,1,191,233.3Z"/><path class="cls-7" d="M178.5,76c-47.61,0-87.64,38.33-99.15,90.28H224.22L234.68,302l7.42-82.53,6.41,49.74,8.09-102.93h21.06C266.14,114.32,226.11,76,178.5,76Z"/><path class="cls-8" d="M116.29,122.57c-3,1-31.37,6.41-31.37,6.41l14.5,23.27s18.89-24.28,19.9-23.94,28-5.74,28-5.74L137.87,99.3Z"/></svg>