<svg id="Layer_1" data-name="Layer 1" xmlns="http://www.w3.org/2000/svg" viewBox="0 0 352.44 352.44"><defs><style>.cls-1{fill:#e64a19;}.cls-2{fill:#d84315;}.cls-3{fill:#ffccbc;}.cls-4{fill:#efac9a;}.cls-5{fill:#231f20;}.cls-6{fill:#b76b5c;}</style></defs><circle class="cls-1" cx="176.22" cy="176.22" r="176.22"/><path class="cls-2" d="M176.36,0V352.43A176.22,176.22,0,0,0,176.36,0Z"/><ellipse class="cls-3" cx="178.35" cy="186.54" rx="85" ry="100.68"/><path class="cls-4" d="M178.35,85.86h-.64V287.22h.64c46.94,0,85-45.08,85-100.69S225.29,85.86,178.35,85.86Z"/><path class="cls-5" d="M162.25,174.59a7.49,7.49,0,1,0,7.49,7.48A7.48,7.48,0,0,0,162.25,174.59Z"/><path class="cls-5" d="M194.83,174.59a7.49,7.49,0,1,0,7.49,7.48A7.49,7.49,0,0,0,194.83,174.59Z"/><rect class="cls-5" x="143.68" y="154.75" width="26.06" height="4.55"/><rect class="cls-5" x="187.34" y="154.75" width="26.06" height="4.55"/><path class="cls-3" d="M93.42,167.36a13,13,0,1,0,12.65,13A12.85,12.85,0,0,0,93.42,167.36Z"/><path class="cls-5" d="M236.92,93.37c-16-12.93-36.47-10.21-58.44-10.21-1.1,0-2.21,0-3.31.09H123.25a6.09,6.09,0,0,0-6.07,6.07v19.9a6.09,6.09,0,0,0,6.07,6.07H154c58.52,5.14,104.13,46.73,104.13,97.28a83.32,83.32,0,0,1-2.49,20.22,96.41,96.41,0,0,0,16-53.39C271.66,149.08,258.53,110.86,236.92,93.37Z"/><path class="cls-6" d="M178.54,246.84a28.7,28.7,0,0,0,28.57-28.34H150A28.7,28.7,0,0,0,178.54,246.84Z"/><path class="cls-5" d="M225.06,229.47a7.63,7.63,0,0,1-4.57-4.88,28.83,28.83,0,0,1-1.18-6.81c-.69-6.39-2.66-13.24-7.93-16.91-4-2.78-9.12-3.23-14-3.11a75,75,0,0,0-11.18,1.11,54.4,54.4,0,0,0-8.5,1.89,54.75,54.75,0,0,0-8.51-1.89A74.81,74.81,0,0,0,158,197.76c-4.86-.12-10,.33-14,3.11-5.27,3.67-7.24,10.52-7.93,16.91a28.83,28.83,0,0,1-1.18,6.81,7.63,7.63,0,0,1-4.57,4.88c-2.21.68-5-.45-5.59-2.68-1.8,3.74.73,8.67,4.69,9.94s8.51-.78,10.76-4.27,2.39-7.69,4.25-11.26c2.1-4,6.19-6.79,10.55-8.09a36.05,36.05,0,0,1,13.54-.88c2.56.22,6.37.92,9.15.33,2.77.59,6.58-.11,9.14-.33a36.05,36.05,0,0,1,13.54.88c4.37,1.3,8.45,4,10.55,8.09,1.86,3.57,2.08,7.87,4.25,11.26S222,238,226,236.73s6.49-6.2,4.69-9.94C230.06,229,227.27,230.15,225.06,229.47Z"/></svg>