<svg id="Layer_1" data-name="Layer 1" xmlns="http://www.w3.org/2000/svg" viewBox="0 0 352.44 352.44"><defs><style>.cls-1{fill:#b7c1ed;}.cls-2{fill:#9fa8da;}.cls-3{fill:#d89b79;}.cls-4{fill:#c18161;}.cls-5{fill:#b76b5c;}.cls-6{fill:#231f20;}</style></defs><circle class="cls-1" cx="176.22" cy="176.22" r="176.22" transform="translate(-72.99 176.22) rotate(-45)"/><path class="cls-2" d="M176.36,0V352.43A176.22,176.22,0,0,0,176.36,0Z"/><ellipse class="cls-3" cx="176.33" cy="188.88" rx="85" ry="100.68"/><path class="cls-4" d="M176.33,88.2h-.64V289.55h.64c46.95,0,85-45.07,85-100.68S223.28,88.2,176.33,88.2Z"/><path class="cls-5" d="M176.53,249.17a28.7,28.7,0,0,0,28.57-28.33H148A28.71,28.71,0,0,0,176.53,249.17Z"/><path class="cls-6" d="M160.24,176.92a7.49,7.49,0,1,0,7.48,7.49A7.49,7.49,0,0,0,160.24,176.92Z"/><path class="cls-6" d="M192.82,176.92a7.49,7.49,0,1,0,7.49,7.49A7.49,7.49,0,0,0,192.82,176.92Z"/><rect class="cls-6" x="141.67" y="157.09" width="26.06" height="4.55"/><rect class="cls-6" x="185.33" y="157.09" width="26.06" height="4.55"/><path class="cls-3" d="M91,169.87a13,13,0,1,0,12.65,13A12.84,12.84,0,0,0,91,169.87Z"/><path class="cls-4" d="M260.2,169.87a13,13,0,1,0,12.65,13A12.84,12.84,0,0,0,260.2,169.87Z"/><path class="cls-6" d="M224.19,94.78c-3.41-1.53-7.48-2.73-10.84-1.11-5.72-13.8-22.79-20.4-38.44-21-27.75-1-55.53,13.28-69.76,35.85l4.42-4.32c-7.57,16-16.47,33.4-33.39,40.63l2.7.09a40.22,40.22,0,0,1-28.3,4.21A53,53,0,0,0,74.43,163.1c3.57,1,7.31,1.62,10.48,3.45,5.13,3,6.69,20.31,7.35,34.89.1,4.26.28,9.12.5,14,.06,1.76.13,3.25.21,4.38.48,9.91,1.06,19.17,1.33,22.72a40.64,40.64,0,0,0,1,5.91c9.17,40,43.69,50.59,54.22,52.16l2.72.38a2.44,2.44,0,0,0,0,.27c.52,0,1-.05,1.55-.06a151.33,151.33,0,0,0,22.51,1.34,151.21,151.21,0,0,0,22.5-1.34c.52,0,1,0,1.55.06,0-.09,0-.18,0-.27l2.71-.38c10.54-1.57,45.05-12.12,54.22-52.16a39.35,39.35,0,0,0,1-5.91c.52-6.95,2.25-35.74,2.09-48.56.49-6.78,1-13.51,1.55-20.7a3.39,3.39,0,0,1,2.08-2.84,8.13,8.13,0,0,1,2.79-.08c4.21,0,6.66-4.57,7.21-8.53,1.85-13.27-6-25.91-14.48-36.64C249.87,113,238.71,101.28,224.19,94.78Zm24.15,125.74c-2.83,9.66-7.59,19-16.17,23.39-5.85,3-19.87-10.06-22.5-17.5-4.25,4-3.11,5.47-5.92,10.58-4.4,8-15.91,14.42-27.49,15.95-18.92-1.36-23.1-8-27.5-15.95-2.81-5.11-3.5-7.42-7.75-11.41-2.63,7.44-16.15,20.45-22,17.5-6.74-3.41-11-9.86-13.72-17.07-3.56-20.08-4-49.12-1.37-68.73,6.13,2.21,12.82-1,18.5-4.07,6.09-3.32,12.23-6.66,17.48-11.08,6.21-5.23,11.18-12,18.48-15.71,6.06-3.13,13.13-3.88,20-4.47s13.93-1.14,20.18-3.91,11.62-8.34,11.83-14.87l21.75,30.24c4.92,6.84,11.87,13.08,13.44,21.29C249.27,174,253.84,199.61,248.34,220.52Z"/><path class="cls-6" d="M218.91,212.91c-3.8-1.43-6.5-4.77-9.75-7.2-9.38-7-22.3-6-34-4.6-11.65-1.4-24.57-2.44-33.95,4.6-3.25,2.43-5.95,5.77-9.75,7.2-4.78,1.78-14.08.46-15.58-4.79-7,15.5,8.12,20.56,11.75,20.75,2.48.12,9.5,0,12.25-3.25,1.87-2.21,2.28-6.65,4.9-7.86,2.3-1.06,4.91-1.13,7.45-1.17l22.93-.4,22.94.4c2.53,0,5.15.11,7.45,1.17,2.62,1.21,3,5.65,4.89,7.86,2.75,3.25,9.78,3.37,12.25,3.25,3.64-.19,18.75-5.25,11.75-20.75C233,213.37,223.69,214.69,218.91,212.91Z"/></svg>