<svg id="Layer_1" data-name="Layer 1" xmlns="http://www.w3.org/2000/svg" viewBox="0 0 352.44 352.44"><defs><style>.cls-1{fill:#ff5177;}.cls-2{fill:#d81b60;}.cls-3{fill:#ffccbc;}.cls-4{fill:#efac9a;}.cls-5{fill:#231f20;}.cls-6{fill:#682319;}.cls-7{fill:#b76b5c;}</style></defs><circle class="cls-1" cx="176.22" cy="176.22" r="176.22"/><path class="cls-2" d="M176.36,0V352.43A176.22,176.22,0,0,0,176.36,0Z"/><ellipse class="cls-3" cx="176.97" cy="148.92" rx="85" ry="100.68"/><path class="cls-4" d="M177,48.24h-.65V249.59H177c46.94,0,85-45.08,85-100.68S223.91,48.24,177,48.24Z"/><circle class="cls-5" cx="160.87" cy="144.45" r="7.49"/><path class="cls-5" d="M193.45,137a7.49,7.49,0,1,0,7.49,7.49A7.49,7.49,0,0,0,193.45,137Z"/><rect class="cls-6" x="142.3" y="117.13" width="26.06" height="4.55"/><rect class="cls-6" x="185.96" y="117.13" width="26.06" height="4.55"/><ellipse class="cls-3" cx="91.6" cy="142.93" rx="12.65" ry="13.03"/><path class="cls-4" d="M260.84,129.9a13,13,0,1,0,12.64,13A12.85,12.85,0,0,0,260.84,129.9Z"/><path class="cls-7" d="M177.16,209.21a28.7,28.7,0,0,0,28.57-28.33H148.59A28.69,28.69,0,0,0,177.16,209.21Z"/><path class="cls-6" d="M259.93,176.7c2.14-12.73,2.64-25.9,2.64-38.15,0-52.72-38.21-95.46-85.34-95.46S91.9,85.83,91.9,138.55A239.86,239.86,0,0,0,94,172.78c-7.58,13.75-5,34.9.19,49.52l3.43-4.56c-1.25,8-4,15.95-3.59,24.08.56,12.32,8,23.11,15.2,33.14V264.48a61,61,0,0,0,10.67,27.18c3.15,4.45,7.11,9,6.81,14.5a77.25,77.25,0,0,0,10.43-16.46c2.32,6.71,1.91,14.08,3.73,20.94s7.23,13.83,14.33,13.48l.63-8.55,4.17,8.19a21.32,21.32,0,0,0,7.87-5.7A57.51,57.51,0,0,0,176.3,330v.27a1.34,1.34,0,0,1,.11-.14h0a57.65,57.65,0,0,0,8.22-12.06,21.28,21.28,0,0,0,7.86,5.7l4.18-8.19.63,8.55c7.09.35,12.51-6.61,14.33-13.48s1.41-14.23,3.73-20.94a77.2,77.2,0,0,0,10.42,16.46c-.29-5.45,3.66-10.05,6.82-14.5a61,61,0,0,0,10.66-27.18V275c7.19-10,14.65-20.82,15.21-33.14.37-8.13-2.34-16-3.6-24.08l3.43,4.56C263.22,208.61,265.83,190.14,259.93,176.7Zm-16.54,8.85a12.54,12.54,0,0,1-13.26-2.75c-3.68-3.71-4.9-9.66-9.34-12.42-4.89-3-11.44-.81-16.89-2.67,4.91,8.53,6.92,19.06,3.83,28.41s-11.85,17-21.69,17.24c2.21,6.21-2.12,13.87-8.58,15.18l-1.16.21-1.25-.21c-6.45-1.31-10.79-9-8.57-15.18-9.84-.25-18.61-7.9-21.69-17.24s-1.08-19.88,3.82-28.41c-5.45,1.86-12-.36-16.89,2.67-4.43,2.76-5.66,8.71-9.33,12.42a12.54,12.54,0,0,1-13.26,2.75c-2.53-1-6.37-4.53-9.22-8.25v-.47a110.53,110.53,0,0,1,7.8-41.2,33.61,33.61,0,0,1-1.48-9.84c0-26.71,31.79-48.36,71-48.36s71,21.65,71,48.36a33.63,33.63,0,0,1-1.4,9.6,110.34,110.34,0,0,1,7.88,40C251.93,179.64,246.58,184.27,243.39,185.55Z"/></svg>