<svg id="Layer_1" data-name="Layer 1" xmlns="http://www.w3.org/2000/svg" viewBox="0 0 352.44 352.44"><defs><style>.cls-1{fill:#e64a19;}.cls-2{fill:#d84315;}.cls-3{fill:#ffccbc;}.cls-4{fill:#efac9a;}.cls-5{fill:#231f20;}.cls-6{fill:#d81b60;}</style></defs><circle class="cls-1" cx="176.22" cy="176.22" r="176.22" transform="translate(-72.99 176.22) rotate(-45)"/><path class="cls-2" d="M176.36,0V352.43A176.22,176.22,0,0,0,176.36,0Z"/><ellipse class="cls-3" cx="177.68" cy="186.54" rx="85" ry="100.68"/><path class="cls-4" d="M177.68,85.86H177V287.22h.64c46.94,0,85-45.08,85-100.69S224.62,85.86,177.68,85.86Z"/><ellipse class="cls-3" cx="92.76" cy="180.39" rx="12.65" ry="13.03"/><path class="cls-5" d="M236.26,93.37c-16-12.93-36.48-10.21-58.44-10.21-1.11,0-2.21,0-3.32.09H122.59a6.09,6.09,0,0,0-6.07,6.07v19.9a6.09,6.09,0,0,0,6.07,6.07h30.79c58.51,5.14,104.13,46.73,104.13,97.28a83.32,83.32,0,0,1-2.5,20.22,96.42,96.42,0,0,0,16-53.39C271,149.08,257.87,110.86,236.26,93.37Z"/><circle class="cls-5" cx="194.44" cy="189.58" r="7.49"/><path class="cls-5" d="M199.73,162.15A21,21,0,0,0,187,166.23v6.37c3.07-4.19,25.83-5.25,29.12-2.41C213.24,165.45,207,162.15,199.73,162.15Z"/><circle class="cls-5" cx="158.68" cy="190.02" r="7.49" transform="translate(-28.45 27.94) rotate(-9.24)"/><path class="cls-5" d="M137.05,169.74c3.29-2.83,26-1.78,29.12,2.42v-6.37a21,21,0,0,0-12.77-4.08C146.13,161.71,139.88,165,137.05,169.74Z"/><path class="cls-6" d="M190.88,234.52c-2.49-1-4.85-2.58-7.42-3.22s-5.57-.13-7.23,2.38h-.45c-1.66-2.51-4.66-3-7.23-2.38s-4.92,2.22-7.42,3.22a17.53,17.53,0,0,1-10.91.76c6.21,9.13,16.18,14.11,25.79,12.93,9.6,1.18,19.57-3.8,25.79-12.93A17.56,17.56,0,0,1,190.88,234.52Z"/><path class="cls-5" d="M226.11,166.13h-35a10.81,10.81,0,0,0-10.8,10.8v10.46H174V176.93a10.81,10.81,0,0,0-10.81-10.8h-35a10.81,10.81,0,0,0-10.8,10.8v23.89a10.81,10.81,0,0,0,10.8,10.81h35A10.82,10.82,0,0,0,174,200.82v-8.76h6.31v8.76a10.82,10.82,0,0,0,10.8,10.81h35a10.82,10.82,0,0,0,10.8-10.81V176.93A10.81,10.81,0,0,0,226.11,166.13Zm-57.05,34.69a5.92,5.92,0,0,1-5.9,5.9h-35a5.92,5.92,0,0,1-5.89-5.9V176.93a5.91,5.91,0,0,1,5.89-5.89h35a5.92,5.92,0,0,1,5.9,5.89Zm62.94,0a5.92,5.92,0,0,1-5.89,5.9h-35a5.92,5.92,0,0,1-5.89-5.9V176.93a5.91,5.91,0,0,1,5.89-5.89h35a5.91,5.91,0,0,1,5.89,5.89Z"/></svg>