<svg id="Layer_1" data-name="Layer 1" xmlns="http://www.w3.org/2000/svg" viewBox="0 0 352.44 352.44"><defs><style>.cls-1{fill:#ff3d00;}.cls-2{fill:#dd2c00;}.cls-3{fill:#ffccbc;}.cls-4{fill:#efac9a;}.cls-5{fill:#b76b5c;}.cls-6{fill:#231f20;}.cls-7{fill:#682319;}</style></defs><circle class="cls-1" cx="176.22" cy="176.22" r="176.22"/><path class="cls-2" d="M176.36,0V352.43A176.22,176.22,0,0,0,176.36,0Z"/><ellipse class="cls-3" cx="179.89" cy="177.18" rx="85" ry="100.68"/><path class="cls-4" d="M179.89,76.49h-.64V277.85h.64c47,0,85-45.08,85-100.68S226.84,76.49,179.89,76.49Z"/><path class="cls-5" d="M180.09,237.47a28.7,28.7,0,0,0,28.57-28.34H151.51A28.71,28.71,0,0,0,180.09,237.47Z"/><path class="cls-6" d="M163.8,165.22a7.49,7.49,0,1,0,7.48,7.49A7.49,7.49,0,0,0,163.8,165.22Z"/><path class="cls-6" d="M196.38,165.22a7.49,7.49,0,1,0,7.49,7.49A7.49,7.49,0,0,0,196.38,165.22Z"/><rect class="cls-7" x="145.23" y="145.39" width="26.06" height="4.55"/><rect class="cls-7" x="188.89" y="145.39" width="26.06" height="4.55"/><path class="cls-7" d="M198.92,189.91H159.46a19.19,19.19,0,0,0-19.14,19.14v62.57a19.19,19.19,0,0,0,19.14,19.14h39.46a19.19,19.19,0,0,0,19.14-19.14V209.05A19.19,19.19,0,0,0,198.92,189.91Zm13.83,45.79a19.2,19.2,0,0,1-19.14,19.14H164.77a19.2,19.2,0,0,1-19.14-19.14V213.77a19.19,19.19,0,0,1,19.14-19.14h28.84a19.19,19.19,0,0,1,19.14,19.14Z"/><path class="cls-7" d="M265.83,152.14c-5.31-38.71-22.86-63.85-53.38-72.86-84-24.79-112.29,42.36-116.11,54.89C83.59,175.9,91,229.91,82.42,260.91c5.26.07,12.56-7.86,13.28-13.07a50.59,50.59,0,0,0,5.44,13.83,113.86,113.86,0,0,0,.14-21.05l11.12,19.61c1.73-33-21.25-114,21.6-158.62,12.93-13.48,27.44,2.38,45,2,20.31-.39,24.63-10.12,36.43-6.41,12.62,4,30.7,23.61,32.38,85.67.35,12.88-5.39,72.52-.54,82.89a19.69,19.69,0,0,0,3.7-11.48,69.29,69.29,0,0,1,6.63,13.6,38.78,38.78,0,0,0,1.05-12.74A42,42,0,0,0,270,262.85C264.71,242,272.94,203.94,265.83,152.14Z"/></svg>