<svg id="Layer_1" data-name="Layer 1" xmlns="http://www.w3.org/2000/svg" viewBox="0 0 352.44 352.44"><defs><style>.cls-1{fill:#966f63;}.cls-2{fill:#795548;}.cls-3{fill:#ffccbc;}.cls-4{fill:#efac9a;}.cls-5{fill:#b76b5c;}.cls-6{fill:#231f20;}.cls-7{fill:#ff9100;}.cls-8{fill:#01579b;}</style></defs><circle class="cls-1" cx="176.22" cy="176.22" r="176.22" transform="translate(-72.99 176.22) rotate(-45)"/><path class="cls-2" d="M176.36,0V352.43A176.22,176.22,0,0,0,176.36,0Z"/><ellipse class="cls-3" cx="176.97" cy="179.45" rx="85" ry="100.68"/><path class="cls-4" d="M177,78.76h-.65V280.12H177c46.94,0,85-45.08,85-100.68S223.91,78.76,177,78.76Z"/><path class="cls-5" d="M177.16,239.74a28.7,28.7,0,0,0,28.57-28.34H148.59A28.7,28.7,0,0,0,177.16,239.74Z"/><path class="cls-6" d="M160.87,167.49a7.49,7.49,0,1,0,7.49,7.49A7.49,7.49,0,0,0,160.87,167.49Z"/><path class="cls-6" d="M193.45,167.49a7.49,7.49,0,1,0,7.49,7.49A7.49,7.49,0,0,0,193.45,167.49Z"/><rect class="cls-2" x="142.3" y="147.66" width="26.06" height="4.55"/><rect class="cls-2" x="185.96" y="147.66" width="26.06" height="4.55"/><path class="cls-7" d="M177,246.15c-17.32,0-31.81-14.84-35.42-34.68a62.12,62.12,0,0,0-7.92,30.8c0,29.71,19.7,53.8,44,53.8s44-24.09,44-53.8a61.67,61.67,0,0,0-9-32.56C209.68,230.43,194.85,246.15,177,246.15Z"/><ellipse class="cls-3" cx="91.6" cy="173.46" rx="12.65" ry="13.03"/><path class="cls-4" d="M260.84,160.43a13,13,0,1,0,12.64,13A12.84,12.84,0,0,0,260.84,160.43Z"/><path class="cls-7" d="M240.9,73.28H112.05A6.09,6.09,0,0,0,106,79.35v35.76a6.09,6.09,0,0,0,3.29,5.39c15.21-10.4,40.47-17.2,69.06-17.2,27.37,0,51.68,6.23,67,15.88a6.05,6.05,0,0,0,1.59-4.07V79.35A6.09,6.09,0,0,0,240.9,73.28Z"/><path class="cls-8" d="M221.11,157.06H189.79a9.67,9.67,0,0,0-9.66,9.66v9.36h-5.64v-9.36a9.67,9.67,0,0,0-9.66-9.66H133.51a9.67,9.67,0,0,0-9.66,9.66v21.37a9.67,9.67,0,0,0,9.66,9.66h31.32a9.68,9.68,0,0,0,9.66-9.66v-7.84h5.64v7.84a9.68,9.68,0,0,0,9.66,9.66h31.32a9.67,9.67,0,0,0,9.66-9.66V166.72A9.67,9.67,0,0,0,221.11,157.06Zm-51,31a5.28,5.28,0,0,1-5.26,5.27H133.51a5.28,5.28,0,0,1-5.27-5.27V166.72a5.28,5.28,0,0,1,5.27-5.27h31.32a5.28,5.28,0,0,1,5.26,5.27Zm56.29,0a5.28,5.28,0,0,1-5.27,5.27H189.79a5.28,5.28,0,0,1-5.27-5.27V166.72a5.28,5.28,0,0,1,5.27-5.27h31.32a5.28,5.28,0,0,1,5.27,5.27Z"/></svg>