<svg id="Layer_1" data-name="Layer 1" xmlns="http://www.w3.org/2000/svg" viewBox="0 0 352.44 352.44"><defs><style>.cls-1{fill:#008e79;}.cls-2{fill:#00695c;}.cls-3{fill:#d89b79;}.cls-4{fill:#c18161;}.cls-5{fill:#231f20;}.cls-6{fill:#682319;}.cls-7{fill:#ad1457;}.cls-8{fill:#ffe5c2;}</style></defs><circle class="cls-1" cx="176.22" cy="176.22" r="176.22"/><path class="cls-2" d="M176.36,0V352.43A176.22,176.22,0,0,0,176.36,0Z"/><ellipse class="cls-3" cx="177.43" cy="152.06" rx="85" ry="100.68"/><path class="cls-4" d="M177.43,51.38h-.64V252.73h.64c46.94,0,85-45.08,85-100.68S224.37,51.38,177.43,51.38Z"/><circle class="cls-5" cx="194.19" cy="156.1" r="7.49"/><path class="cls-6" d="M199.47,128.68a20.93,20.93,0,0,0-12.77,4.08v6.37c3.07-4.2,25.83-5.25,29.12-2.42C213,132,206.74,128.68,199.47,128.68Z"/><path class="cls-5" d="M158.43,149.06a7.49,7.49,0,1,0,7.49,7.48A7.48,7.48,0,0,0,158.43,149.06Z"/><path class="cls-6" d="M136.8,136.27c3.29-2.83,26-1.78,29.12,2.42v-6.38a21,21,0,0,0-12.78-4.08C145.88,128.23,139.63,131.53,136.8,136.27Z"/><path class="cls-7" d="M190.63,201.05c-2.5-1-4.85-2.58-7.42-3.22s-5.57-.13-7.24,2.38h-.44c-1.66-2.51-4.66-3-7.24-2.38s-4.92,2.21-7.41,3.22a17.64,17.64,0,0,1-10.92.76c6.22,9.12,16.19,14.1,25.79,12.93,9.6,1.17,19.58-3.81,25.79-12.93A17.6,17.6,0,0,1,190.63,201.05Z"/><path class="cls-8" d="M178.08,51.07c-7.12-4.38-35-.17-63.25,24.79C75.88,110.26,47.54,280.76,86,318.71c11,10.81,44.07,24.52,54.64,25.8-8.85-24.24-13.79-206.85-9.11-232.23,10.58,4,84,6,94.61,2,4.68,25.38,1.26,202.42-7.59,226.66,10.57-1.28,41.6-15,50.6-23.78,20.74-20.24,34.91-177.08-27.32-238.8C215.06,51.84,185.2,46.69,178.08,51.07Z"/></svg>