<svg id="Layer_1" data-name="Layer 1" xmlns="http://www.w3.org/2000/svg" viewBox="0 0 352.44 352.44"><defs><style>.cls-1{fill:#0277bd;}.cls-2{fill:#01579b;}.cls-3{fill:#ffccbc;}.cls-4{fill:#efac9a;}.cls-5{fill:#b76b5c;}.cls-6{fill:#231f20;}.cls-7{fill:#e64a19;}.cls-8{fill:#ea896e;}</style></defs><circle class="cls-1" cx="176.22" cy="176.22" r="176.22" transform="translate(-72.99 176.22) rotate(-45)"/><path class="cls-2" d="M176.36,0V352.43A176.22,176.22,0,0,0,176.36,0Z"/><ellipse class="cls-3" cx="176.97" cy="170.74" rx="85" ry="100.68"/><path class="cls-4" d="M177,70.06h-.65V271.41H177c46.94,0,85-45.08,85-100.68S223.91,70.06,177,70.06Z"/><path class="cls-5" d="M177.16,231a28.7,28.7,0,0,0,28.57-28.33H148.59A28.69,28.69,0,0,0,177.16,231Z"/><path class="cls-6" d="M160.87,158.78a7.49,7.49,0,1,0,7.49,7.49A7.49,7.49,0,0,0,160.87,158.78Z"/><path class="cls-6" d="M193.45,158.78a7.49,7.49,0,1,0,7.49,7.49A7.49,7.49,0,0,0,193.45,158.78Z"/><rect class="cls-7" x="142.3" y="138.95" width="26.06" height="4.55"/><rect class="cls-7" x="185.96" y="138.95" width="26.06" height="4.55"/><path class="cls-7" d="M177,237.44c-17.32,0-31.81-14.83-35.42-34.67a62.08,62.08,0,0,0-7.92,30.79c0,29.71,19.7,53.8,44,53.8s44-24.09,44-53.8a61.67,61.67,0,0,0-9-32.56C209.68,221.72,194.85,237.44,177,237.44Z"/><path class="cls-3" d="M91.6,151.72a13,13,0,1,0,12.65,13A12.85,12.85,0,0,0,91.6,151.72Z"/><path class="cls-4" d="M260.84,151.72a13,13,0,1,0,12.64,13A12.85,12.85,0,0,0,260.84,151.72Z"/><path class="cls-8" d="M109.45,102.79c-1.09,1.43-2.18,2.93-3.3,4.49-7.84,11-8.84,22.61-13,35.5-1.05,3.27-2,9,.77,9.66,1.46.35,1.91,2.31,3,3.4,5.75,5.94,7.72,14.61,8.14,22.87s-.47,16.6.67,24.8a51.91,51.91,0,0,1,14.1-1.47q-4-25.29-6.8-50.72c-.79-7.13-1.52-14.36-.37-21.43s6.86-12,10.14-18.35l.35-.69C119.82,88.26,114.12,98.19,109.45,102.79Z"/><path class="cls-8" d="M123.1,110.85l.06.4C123,111.34,124.94,107.3,123.1,110.85Z"/><path class="cls-8" d="M245.15,105.28c-.18-.31-6-13.73-10-11.23-4.83,3.07-.33,16.19-5.45,18.52A22.23,22.23,0,0,1,232,114c5.76,4.26,9,11.27,10.14,18.35s.41,14.3-.38,21.43q-2.84,25.43-6.8,50.72a51.87,51.87,0,0,1,14.1,1.47c1.14-8.2.26-16.53.68-24.8s2.38-16.93,8.13-22.87a17.67,17.67,0,0,0,3-3.4c1.67-3,.65-6.71-.4-10C256.29,132.07,252.11,116.91,245.15,105.28Z"/><path class="cls-7" d="M176.56,55.24c-48-1.64-64.34,18.49-71.39,29.81-8.83,14.21-3.75,29.75-3.75,29.75s7.22-13.9,13.75-8.75l7.75,5c12.25-13.75,25.76.68,52.75,0,20-.5,27.61-12.52,55,2.25,2.41,1.3,2.07-15.14,12-10,3.46,1.8,8,13.5,8,13.5a48.81,48.81,0,0,0-7-33.5C233.27,67.25,215.17,56.55,176.56,55.24Z"/></svg>