<svg id="Layer_1" data-name="Layer 1" xmlns="http://www.w3.org/2000/svg" viewBox="0 0 352.44 352.44"><defs><style>.cls-1{fill:#00d2e2;}.cls-2{fill:#00acc1;}.cls-3{fill:#ffccbc;}.cls-4{fill:#efac9a;}.cls-5{fill:#231f20;}.cls-6{fill:#b76b5c;}</style></defs><circle class="cls-1" cx="176.22" cy="176.22" r="176.22"/><path class="cls-2" d="M176.36,0V352.43A176.22,176.22,0,0,0,176.36,0Z"/><ellipse class="cls-3" cx="178.35" cy="159.92" rx="85" ry="100.68"/><path class="cls-4" d="M178.35,59.23h-.65V260.59h.65c46.94,0,85-45.08,85-100.68S225.29,59.23,178.35,59.23Z"/><path class="cls-5" d="M162.25,148a7.49,7.49,0,1,0,7.49,7.49A7.49,7.49,0,0,0,162.25,148Z"/><path class="cls-5" d="M194.83,148a7.49,7.49,0,1,0,7.49,7.49A7.49,7.49,0,0,0,194.83,148Z"/><rect class="cls-5" x="143.68" y="128.13" width="26.06" height="4.55"/><rect class="cls-5" x="187.34" y="128.13" width="26.06" height="4.55"/><ellipse class="cls-5" cx="178.28" cy="247.49" rx="47.94" ry="74.75"/><path class="cls-6" d="M178.28,220.21a28.7,28.7,0,0,0,28.57-28.34H149.71A28.7,28.7,0,0,0,178.28,220.21Z"/><ellipse class="cls-3" cx="93.46" cy="158.55" rx="12.65" ry="13.03"/><ellipse class="cls-4" cx="262.7" cy="158.55" rx="12.65" ry="13.03"/><path class="cls-5" d="M227.2,70.89c.45-6.66-6-11.57-12-14.58A87.7,87.7,0,0,0,195.68,49c-15.89-3.71-32.91-1.8-47.93,4.58a94.87,94.87,0,0,0-37.93,30.08c-2.38,3.14-4.92,6.64-8.75,7.55.66,2,1.33,4,2,6l-13.25,0a14.52,14.52,0,0,1,6.12,8,31.4,31.4,0,0,1-24.84-2.93c5.19,4.08,10.52,8.24,16.79,10.34,6.61,2.22,13.76,2,20.72,1.58,23.72-1.37,48-4.54,68.93-15.73C183,95.41,188.25,92,194,89.44c6.11-2.69,12.7-4.25,18.63-7.33,4.24-2.2,8.38-5.24,13.16-5.23.14,4.53-1.33,9.42.86,13.4,3.34,6.06,12.89,5.92,16.76,11.66,1.54-6.4,1.45-13.36-1.28-19.36S233.74,71.73,227.2,70.89Z"/></svg>