<svg id="Layer_1" data-name="Layer 1" xmlns="http://www.w3.org/2000/svg" viewBox="0 0 352.44 352.44"><defs><style>.cls-1{fill:#c2185b;}.cls-2{fill:#880e4f;}.cls-3{fill:#d89b79;}.cls-4{fill:#c18161;}.cls-5{fill:#ffe5c2;}.cls-6{fill:#231f20;}</style></defs><circle class="cls-1" cx="176.22" cy="176.22" r="176.22"/><path class="cls-2" d="M176.36,0V352.43A176.22,176.22,0,0,0,176.36,0Z"/><ellipse class="cls-3" cx="177.04" cy="188.2" rx="85" ry="100.68"/><path class="cls-4" d="M177,87.51h-.64V288.87H177c46.94,0,85-45.08,85-100.68S224,87.51,177,87.51Z"/><path class="cls-5" d="M175.45,81.27c-53.23,0-90.56,44.79-100.58,104.38-2.43,14.44-3.8,28.58-2,50.08l39.47,26.82.25-94.36c.25-39.46,125.47-31.11,126-2L238,266.34l38.71-26.56a299.83,299.83,0,0,0-2.28-49.58C265.16,122.33,228.68,81.27,175.45,81.27Z"/><circle class="cls-6" cx="194.17" cy="197.67" r="7.49"/><path class="cls-6" d="M199.45,170.25a20.93,20.93,0,0,0-12.77,4.08v6.37c3.07-4.2,25.83-5.25,29.12-2.42C213,173.54,206.72,170.25,199.45,170.25Z"/><circle class="cls-6" cx="158.41" cy="198.11" r="7.49" transform="translate(-41.4 41.85) rotate(-13.33)"/><path class="cls-6" d="M136.78,177.84c3.29-2.83,26.05-1.78,29.12,2.42v-6.38a21,21,0,0,0-12.78-4.08C145.86,169.8,139.61,173.1,136.78,177.84Z"/><path class="cls-2" d="M190.61,242.62c-2.5-1-4.85-2.58-7.42-3.22s-5.57-.13-7.24,2.38h-.44c-1.66-2.51-4.66-3-7.23-2.38s-4.93,2.21-7.42,3.22a17.64,17.64,0,0,1-10.92.76c6.22,9.12,16.19,14.1,25.79,12.92,9.61,1.18,19.58-3.8,25.79-12.92A17.6,17.6,0,0,1,190.61,242.62Z"/></svg>