<svg id="Layer_1" data-name="Layer 1" xmlns="http://www.w3.org/2000/svg" viewBox="0 0 352.44 352.44"><defs><style>.cls-1{fill:#f8bbd0;}.cls-2{fill:#f58fb1;}.cls-3{fill:#682319;}.cls-4{fill:#d89b79;}.cls-5{fill:#c18161;}.cls-6{fill:#8c513a;}.cls-7{fill:#231f20;}</style></defs><circle class="cls-1" cx="176.22" cy="176.22" r="176.22" transform="translate(-72.99 176.22) rotate(-45)"/><path class="cls-2" d="M176.36,0V352.43A176.22,176.22,0,0,0,176.36,0Z"/><path class="cls-3" d="M186,152.13c-.12.37-.25.74-.38,1.1A5.71,5.71,0,0,0,186,152.13Z"/><ellipse class="cls-4" cx="176.97" cy="189.27" rx="85" ry="100.68"/><path class="cls-5" d="M177,88.59h-.65V289.94H177c46.94,0,85-45.08,85-100.68S223.91,88.59,177,88.59Z"/><path class="cls-6" d="M177.16,249.56a28.7,28.7,0,0,0,28.57-28.33H148.59A28.69,28.69,0,0,0,177.16,249.56Z"/><path class="cls-4" d="M91.6,170.25a13,13,0,1,0,12.65,13A12.85,12.85,0,0,0,91.6,170.25Z"/><path class="cls-5" d="M260.84,170.25a13,13,0,1,0,12.64,13A12.85,12.85,0,0,0,260.84,170.25Z"/><path class="cls-3" d="M175.56,79.31c-48-1.64-64.34,18.49-71.39,29.82-8.83,14.21-3.75,29.75-3.75,29.75s7.22-13.91,13.75-8.75l7.75,5c12.25-13.75,25.76.67,52.75,0,20-.5,27.61-12.52,55,2.25,2.41,1.29,2.07-15.15,12-10,3.46,1.79,8,13.5,8,13.5a48.8,48.8,0,0,0-7-33.5C232.27,91.33,214.17,80.63,175.56,79.31Z"/><path class="cls-7" d="M160.37,181.72a7.49,7.49,0,1,0,7.48,7.49A7.49,7.49,0,0,0,160.37,181.72Z"/><path class="cls-7" d="M193,181.72a7.49,7.49,0,1,0,7.49,7.49A7.49,7.49,0,0,0,193,181.72Z"/><rect class="cls-3" x="141.8" y="161.89" width="26.06" height="4.55"/><rect class="cls-3" x="185.46" y="161.89" width="26.06" height="4.55"/></svg>