<svg id="Layer_1" data-name="Layer 1" xmlns="http://www.w3.org/2000/svg" viewBox="0 0 352.44 352.44"><defs><style>.cls-1{fill:#6c53d3;}.cls-2{fill:#512da8;}.cls-3{fill:#231f20;}.cls-4{fill:#ffe7d7;}.cls-5{fill:#f2d4c0;}.cls-6{fill:#d81b60;}.cls-7{fill:#dd2c00;}</style></defs><circle class="cls-1" cx="176.22" cy="176.22" r="176.22" transform="translate(-72.99 176.22) rotate(-45)"/><path class="cls-2" d="M176.36,0V352.43A176.22,176.22,0,0,0,176.36,0Z"/><path class="cls-3" d="M207.88,56.63c-9.48-2.78-39.51-7.39-74.2,3.37-39.13,12.15-62.2,58.81-69.82,91.07a208.46,208.46,0,0,0-5.64,44H294.73c-2.55-41.88-15.6-79.27-25.13-93.36C248.7,70.8,234.15,64.34,207.88,56.63Z"/><ellipse class="cls-4" cx="95.06" cy="182.62" rx="12.65" ry="13.03"/><ellipse class="cls-5" cx="264.3" cy="182.62" rx="12.65" ry="13.03"/><ellipse class="cls-4" cx="176.86" cy="184.23" rx="85" ry="100.68"/><path class="cls-5" d="M176.86,83.55h-.64V284.9h.64c46.95,0,85-45.08,85-100.68S223.81,83.55,176.86,83.55Z"/><path class="cls-3" d="M194,186.72a7.49,7.49,0,1,0,7.49,7.49A7.5,7.5,0,0,0,194,186.72Z"/><path class="cls-3" d="M199.28,166.79a21,21,0,0,0-12.78,4.08v6.37c3.08-4.2,25.83-5.25,29.12-2.42C212.79,170.08,206.54,166.79,199.28,166.79Z"/><circle class="cls-3" cx="158.24" cy="194.65" r="7.49" transform="translate(-13.41 11.72) rotate(-4.07)"/><path class="cls-3" d="M136.6,174.38c3.29-2.83,26.05-1.78,29.12,2.42v-6.38A20.93,20.93,0,0,0,153,166.34C145.69,166.34,139.43,169.64,136.6,174.38Z"/><path class="cls-6" d="M190.43,239.16c-2.49-1-4.84-2.58-7.41-3.22s-5.58-.13-7.24,2.38h-.44c-1.67-2.51-4.67-3-7.24-2.38s-4.92,2.21-7.42,3.22a17.6,17.6,0,0,1-10.91.76C156,249,166,254,175.56,252.84c9.6,1.18,19.57-3.8,25.79-12.92A17.64,17.64,0,0,1,190.43,239.16Z"/><path class="cls-3" d="M177,79.63c-47.37,0-85.9,36.94-87,82.91H264C262.92,116.57,224.39,79.63,177,79.63Z"/><path class="cls-7" d="M238.91,102a93.86,93.86,0,0,0-125.12,0c-15.74,14.41-25.13,33.37-26.74,53.78h5.08c3.48-40.43,40.3-72.61,84.22-72.61s80.73,32.18,84.22,72.61h5.08C264,135.38,254.64,116.42,238.91,102Z"/><path class="cls-7" d="M122.55,95.08c-3,1-31.37,6.41-31.37,6.41l14.5,23.27s18.89-24.28,19.9-23.94,30.36-6.08,30.36-6.08L144.13,71.81Z"/></svg>