<svg id="Layer_1" data-name="Layer 1" xmlns="http://www.w3.org/2000/svg" viewBox="0 0 352.44 352.44"><defs><style>.cls-1{fill:#ff3d00;}.cls-2{fill:#dd2c00;}.cls-3{fill:#231f20;}.cls-4{fill:#ffe7d7;}.cls-5{fill:#f2d4c0;}.cls-6{fill:#0288d1;}.cls-7{fill:#03a9f4;}</style></defs><circle class="cls-1" cx="176.22" cy="176.22" r="176.22"/><path class="cls-2" d="M176.36,0V352.43A176.22,176.22,0,0,0,176.36,0Z"/><path class="cls-3" d="M208.36,46.23c-9.48-2.78-39.52-7.39-74.2,3.38C95,61.75,72,108.42,64.34,140.68c-11.72,49.59-4.73,96.46,15.51,130.53.89-7.16,3.08-18.79,5.74-25.3C83.9,278.29,89.3,280.32,94,292.46c3.11-7.11,4-19.88,7.08-27-1.11,22.45,4.39,28.67,16.53,38.46-7.71-40.95-3.6-52.6,1.66-94.09l6.34,19.62a144.64,144.64,0,0,1,10-75.33,63.2,63.2,0,0,0,6.19,32.48l4.45-13.36a69.92,69.92,0,0,1-.49,33.35A111.11,111.11,0,0,0,153,175.94a17.51,17.51,0,0,1,4.69,9.82,95.8,95.8,0,0,1,12.48-41.52A89.4,89.4,0,0,0,167,171.35l7-12a143.29,143.29,0,0,1-.06,34.63,104.72,104.72,0,0,0,9.25-27.62l3.33,18C192.81,175.74,196,164,195,152.6l4.9,22.18a11.55,11.55,0,0,0,3.42-6.86,128.47,128.47,0,0,1,4,15.53l2.31-5.19a136.26,136.26,0,0,1,6,30.29,92.49,92.49,0,0,0,1.37-29.42l2.94,6.91a78.84,78.84,0,0,0,3.21-22.73c7.77,21.69-.17,47.24-1.23,70.8l7.76-14.17c-4,24.48,5.4,57,10.46,78.25,8.09-9.1,5-21.07,7.08-27-.67,18.55,3,19.31,4.72,25,20.24-22.94,19.86-42.71,19.9-53.63,2,4.61,4.77,29.11,6.75,33.73,35.08-66.45,8.05-160.57-8.44-185C249.17,60.4,234.63,53.94,208.36,46.23Z"/><path class="cls-4" d="M95.54,159.2a13,13,0,1,0,12.65,13A12.84,12.84,0,0,0,95.54,159.2Z"/><path class="cls-5" d="M264.78,159.2a13,13,0,1,0,12.64,13A12.84,12.84,0,0,0,264.78,159.2Z"/><ellipse class="cls-4" cx="177.34" cy="173.83" rx="85" ry="100.68"/><path class="cls-5" d="M177.34,73.15h-.64V274.5h.64c46.94,0,85-45.07,85-100.68S224.28,73.15,177.34,73.15Z"/><path class="cls-3" d="M192.47,176a7.49,7.49,0,1,0,7.49,7.49A7.5,7.5,0,0,0,192.47,176Z"/><path class="cls-3" d="M199.76,154.37A21,21,0,0,0,187,158.44v6.38c3.07-4.2,25.83-5.25,29.12-2.42C213.27,157.66,207,154.37,199.76,154.37Z"/><path class="cls-3" d="M158.71,176a7.49,7.49,0,1,0,7.49,7.49A7.49,7.49,0,0,0,158.71,176Z"/><path class="cls-3" d="M137.08,162c3.29-2.84,26-1.78,29.12,2.42V158a20.93,20.93,0,0,0-12.77-4.08C146.16,153.92,139.91,157.22,137.08,162Z"/><path class="cls-1" d="M190.91,226.73c-2.49-1-4.84-2.57-7.42-3.21s-5.57-.13-7.23,2.38h-.44c-1.67-2.51-4.67-3-7.24-2.38s-4.92,2.21-7.42,3.21a17.61,17.61,0,0,1-10.91.77c6.21,9.12,16.18,14.1,25.79,12.92,9.6,1.18,19.57-3.8,25.79-12.92A17.64,17.64,0,0,1,190.91,226.73Z"/><circle class="cls-6" cx="88.79" cy="186.34" r="10.62"/><circle class="cls-6" cx="270.93" cy="182.84" r="10.62" transform="translate(-49.93 245.13) rotate(-45)"/><path class="cls-3" d="M178.5,72.24c-47.37,0-85.9,36.93-87,82.9h174C264.4,109.17,225.87,72.24,178.5,72.24Z"/><path class="cls-7" d="M239.38,91.61a93.84,93.84,0,0,0-125.11,0C98.53,106,89.14,125,87.53,145.4H92.6c3.49-40.43,40.31-72.62,84.22-72.62S257.56,105,261,145.4h5.08C264.51,125,255.12,106,239.38,91.61Z"/><path class="cls-7" d="M123,84.68c-3,1-31.37,6.41-31.37,6.41l14.5,23.28s18.89-24.29,19.9-24,30.36-6.07,30.36-6.07L144.61,61.41Z"/></svg>