<svg id="Layer_1" data-name="Layer 1" xmlns="http://www.w3.org/2000/svg" viewBox="0 0 352.44 352.44"><defs><style>.cls-1{fill:#15edc9;}.cls-2{fill:#00bfa5;}.cls-3{fill:#ffe7d7;}.cls-4{fill:#f2d4c0;}.cls-5{fill:#231f20;}.cls-6{fill:#682319;}.cls-7{fill:#dd2c00;}.cls-8{fill:#ff3d00;}.cls-9{fill:#00695c;}.cls-10{fill:#fff;}</style></defs><circle class="cls-1" cx="176.22" cy="176.22" r="176.22"/><path class="cls-2" d="M176.36,0V352.43A176.22,176.22,0,0,0,176.36,0Z"/><ellipse class="cls-3" cx="177.12" cy="204" rx="85" ry="100.68"/><path class="cls-4" d="M177.12,103.31h-.65V304.67h.65c46.94,0,85-45.08,85-100.68S224.06,103.31,177.12,103.31Z"/><circle class="cls-5" cx="194.25" cy="203.35" r="7.49" transform="matrix(0.97, -0.23, 0.23, 0.97, -41.64, 50.25)"/><path class="cls-6" d="M199.53,175.93A20.93,20.93,0,0,0,186.76,180v6.37c3.07-4.2,25.83-5.25,29.12-2.42C213.05,179.22,206.8,175.93,199.53,175.93Z"/><circle class="cls-5" cx="158.49" cy="203.8" r="7.49" transform="translate(-97.69 171.76) rotate(-45)"/><path class="cls-6" d="M136.86,183.52c3.29-2.83,26-1.78,29.12,2.42v-6.37a21,21,0,0,0-12.78-4.08C145.94,175.49,139.69,178.78,136.86,183.52Z"/><path class="cls-7" d="M190.69,248.3c-2.5-1-4.85-2.58-7.42-3.22s-5.57-.13-7.24,2.38h-.44c-1.66-2.51-4.66-3-7.24-2.38s-4.92,2.21-7.41,3.22a17.64,17.64,0,0,1-10.92.76c6.22,9.13,16.19,14.11,25.79,12.93,9.6,1.18,19.58-3.8,25.79-12.93A17.6,17.6,0,0,1,190.69,248.3Z"/><path class="cls-8" d="M279.87,117.57A42.72,42.72,0,0,0,279,88.42c-.6,10.74-9.48,20.66-20.88,23.33a26.54,26.54,0,0,0,4.38-11.63,39.21,39.21,0,0,1-13.92,5c12.47-14.15,13.25-35.91,1.8-50.76A33.67,33.67,0,0,1,233.52,72.7q-2.47-3.86-5-7.7c-3.75,7.69-11.95,13.42-21.06,14.71,13.92-3.41,8.66-18.59.76-24.47-1,6.13-3.72,13.5-9.27,16.5s-11.08,3.8-16.43,1.81a8.5,8.5,0,0,0,5.43-6c-9.44,2.23-17.91-5.51-27.24-8.08-11.29-3.11-23.89,1.93-31.47,10.17s-10.9,19.09-12.4,29.76c-.73,5.15-.16,11.77,5.16,13.58-4-1.34-8.39,1-10.92,4.06s-3.79,6.87-5.9,10.21-5.57,6.44-9.79,6.46c-5.25,0-9.34-5.62-7.6-10.15s8.32-6.7,13-4.57c-9.29-6.22-26.47-1.86-32,7.37-5.31,8.84-1.09,20.25,4.83,28.93C79.53,160,85.19,165.45,88.86,172c9.41-6.36,19.93-10.76,30.26-15.67,5.92-2.81,11.62-6.17,17.41-9.32l.6-.46c.45-5.54.15-11.2.61-16.75,6.27-1.63,13.06.46,18.48,3.77l1.13.74a32.17,32.17,0,0,1,6.47-1.72,43.12,43.12,0,0,1,14.19.61c9.15,1.66,18.08,5.3,26.27,9.62a132.92,132.92,0,0,1,11.59,7,6.27,6.27,0,0,1,7.26-.91c11.58,5.39,21.51,13.68,30.07,23.07a125.57,125.57,0,0,1,10.7,13.74c8.75-3.88,18.22-30.17,23.63-36.29,12.82-14.51,13.16-30.85,5.42-46.62A24.73,24.73,0,0,1,279.87,117.57Z"/><path class="cls-9" d="M183.9,121.42c12.22,0,31.45.65,39.21-22-12.28-5.58-36.3,2-43.44,13.44-6.22-9.39-28.89-20.1-39.88-22.55-8.09,27.66,8.1,32.38,20.07,34.56C110.11,128.14,74,154.47,73,156.13c-.7,1.23,11.63,28.3,19.34,35.22a211.67,211.67,0,0,1,73.05-44.76c3.79-1.36,7.75-2.63,11.75-2.29s7.8,2.35,11.39,4.29l36.28,19.66c13.29,7.19,26.79,14.55,37.44,25.27q6.28-4.34,12.58-8.66c2.07-1.43,4.2-2.92,5.5-5.07a18.09,18.09,0,0,0,1.93-6.24c1.41-7.58,3.16-15.48,8.2-21.31-14.43-5-27.08-14.16-41.18-20.06C228.79,123.61,206.1,122.21,183.9,121.42Z"/><circle class="cls-10" cx="213.32" cy="128.14" r="5.73"/><path class="cls-10" d="M84.38,148a106.22,106.22,0,0,0-9.14,5.94A5.73,5.73,0,1,0,84.38,148Z"/><path class="cls-10" d="M81.44,166.59a5.69,5.69,0,0,0-3.6,1.28c1.53,3.18,3.32,6.65,5.19,10a5.73,5.73,0,0,0-1.59-11.24Z"/><path class="cls-10" d="M100,156.13a5.74,5.74,0,1,0,5.74,5.74A5.74,5.74,0,0,0,100,156.13Z"/><path class="cls-10" d="M114.71,134c-2.92,1-5.71,2.1-8.37,3.19a5.62,5.62,0,0,0-.27,1.75,5.73,5.73,0,1,0,8.64-4.94Z"/><path class="cls-10" d="M124.62,154.78a5.73,5.73,0,0,0-.19,11.46q2.66-1.67,5.36-3.26a5.8,5.8,0,0,0,.56-2.46A5.74,5.74,0,0,0,124.62,154.78Z"/><path class="cls-10" d="M95.27,185.48a5.75,5.75,0,0,0,.52,2.38q4.11-3.69,8.4-7.15a5.73,5.73,0,0,0-8.92,4.77Z"/><path class="cls-10" d="M136.08,136.91a5.73,5.73,0,1,0,5.74,5.73A5.73,5.73,0,0,0,136.08,136.91Z"/><path class="cls-10" d="M159.36,143a5.74,5.74,0,0,0-5.74,5.73,5.68,5.68,0,0,0,.38,2q5.26-2.25,10.66-4.22A5.73,5.73,0,0,0,159.36,143Z"/><path class="cls-10" d="M149.59,121.77a36.9,36.9,0,0,0,4.65,1.58,5.72,5.72,0,0,0-4-1.62A4.87,4.87,0,0,0,149.59,121.77Z"/><path class="cls-10" d="M144.63,126.31a6.23,6.23,0,0,0-.11,1.15,5.73,5.73,0,1,0,11.46,0,5.6,5.6,0,0,0-.59-2.52C151.72,125.28,148.13,125.75,144.63,126.31Z"/><path class="cls-10" d="M145.87,96.09a5.73,5.73,0,0,0,11.44.48c-3.44-1.66-6.87-3.11-10-4.26A5.69,5.69,0,0,0,145.87,96.09Z"/><path class="cls-10" d="M163.41,106.21a5.74,5.74,0,1,0,5.73,5.74A5.74,5.74,0,0,0,163.41,106.21Z"/><circle class="cls-10" cx="175.21" cy="131.85" r="5.73"/><path class="cls-10" d="M193.28,101.84a43.87,43.87,0,0,0-5.08,2.74,5.63,5.63,0,0,0-.85,3,5.74,5.74,0,1,0,5.93-5.72Z"/><path class="cls-10" d="M211,107.56a5.74,5.74,0,0,0-3.66,10.15,27,27,0,0,0,9-6.54A5.75,5.75,0,0,0,211,107.56Z"/><path class="cls-10" d="M195.11,137.58a5.74,5.74,0,1,0,5.73,5.74A5.73,5.73,0,0,0,195.11,137.58Z"/><path class="cls-10" d="M220.41,141.29a5.74,5.74,0,1,0,5.73,5.74A5.74,5.74,0,0,0,220.41,141.29Z"/><path class="cls-10" d="M234.19,126.83a5.73,5.73,0,1,0,9.83,4,6.05,6.05,0,0,0-.1-1.06Q239.12,128.09,234.19,126.83Z"/><path class="cls-10" d="M243.68,145.34a5.74,5.74,0,1,0,5.74,5.73A5.73,5.73,0,0,0,243.68,145.34Z"/><path class="cls-10" d="M229.85,162.88a5.72,5.72,0,0,0-5.63,4.7l.6.33c3,1.61,6,3.23,8.93,4.9a5.72,5.72,0,0,0-3.9-9.93Z"/><path class="cls-10" d="M261.57,137.77a5.73,5.73,0,1,0,8.76,4.87s0-.09,0-.14C267.41,140.92,264.5,139.33,261.57,137.77Z"/><path class="cls-10" d="M259.2,161.87a5.73,5.73,0,1,0,5.73,5.73A5.73,5.73,0,0,0,259.2,161.87Z"/><path class="cls-10" d="M279.43,158.16a5.73,5.73,0,0,0,5,5.67,34.21,34.21,0,0,1,4.56-10,5.73,5.73,0,0,0-9.53,4.3Z"/><path class="cls-10" d="M266.62,183.45a5.73,5.73,0,0,0-4.21,9.63l9.34-6.44A5.73,5.73,0,0,0,266.62,183.45Z"/><path class="cls-3" d="M94.09,194.55a13,13,0,1,0,12.65,13A12.85,12.85,0,0,0,94.09,194.55Z"/><path class="cls-4" d="M263.33,194.55a13,13,0,1,0,12.65,13A12.85,12.85,0,0,0,263.33,194.55Z"/><path class="cls-9" d="M87.85,211.45a8.1,8.1,0,1,0,8.1,8.09A8.09,8.09,0,0,0,87.85,211.45Z"/><path class="cls-9" d="M265.94,209.09a8.1,8.1,0,1,0,8.1,8.09A8.09,8.09,0,0,0,265.94,209.09Z"/></svg>