<svg id="Layer_1" data-name="Layer 1" xmlns="http://www.w3.org/2000/svg" viewBox="0 0 352.44 352.44"><defs><style>.cls-1{fill:#9233c4;}.cls-2{fill:#7b1fa2;}.cls-3{fill:#d89b79;}.cls-4{fill:#c18161;}.cls-5{fill:#b76b5c;}.cls-6{fill:#231f20;}</style></defs><circle class="cls-1" cx="176.22" cy="176.22" r="176.22" transform="translate(-72.99 176.22) rotate(-45)"/><path class="cls-2" d="M176.36,0V352.43A176.22,176.22,0,0,0,176.36,0Z"/><ellipse class="cls-3" cx="178.1" cy="182.9" rx="85" ry="100.68"/><path class="cls-4" d="M178.1,82.22h-.64V283.57h.64c46.94,0,85-45.07,85-100.68S225,82.22,178.1,82.22Z"/><path class="cls-5" d="M178.29,243.19a28.71,28.71,0,0,0,28.58-28.33H149.72A28.7,28.7,0,0,0,178.29,243.19Z"/><circle class="cls-6" cx="162" cy="178.43" r="7.49"/><path class="cls-6" d="M194.59,170.94a7.49,7.49,0,1,0,7.48,7.49A7.49,7.49,0,0,0,194.59,170.94Z"/><rect class="cls-6" x="143.43" y="151.11" width="26.06" height="4.55"/><rect class="cls-6" x="187.1" y="151.11" width="26.06" height="4.55"/><path class="cls-3" d="M92.73,163.89a13,13,0,1,0,12.65,13A12.84,12.84,0,0,0,92.73,163.89Z"/><path class="cls-4" d="M262,163.89a13,13,0,1,0,12.65,13A12.84,12.84,0,0,0,262,163.89Z"/><path class="cls-6" d="M253.51,134.61c1-3.27,7.55-8.05,10.45-9.87-4.42,0-8.08-.51-12.5-.5.67-2,1.83-3,2.5-5-3.83-.91-11.12-6.86-13.5-10-9.87-13-23.75-19.76-38.77-26.14s-32-8.29-47.93-4.58a87.7,87.7,0,0,0-19.54,7.32c-6,3-12.43,7.92-12,14.59-6.54.83-12.16,5.69-14.88,11.68s-2.82,13-1.28,19.36c3.87-5.74,13.42-5.59,16.76-11.66,2.19-4,.72-8.87.86-13.4,4.78,0,8.92,3,13.16,5.23,5.93,3.08,12.52,4.64,18.63,7.33,5.7,2.51,10.93,6,16.42,8.91,21,11.18,45.21,14.36,68.93,15.72,7,.4,14.11.64,20.72-1.58,6.27-2.1,11.6-6.25,16.79-10.34A31.4,31.4,0,0,1,253.51,134.61Z"/></svg>