<svg id="Layer_1" data-name="Layer 1" xmlns="http://www.w3.org/2000/svg" viewBox="0 0 352.44 352.44"><defs><style>.cls-1{fill:#0277bd;}.cls-2{fill:#01579b;}.cls-3{fill:#ffccbc;}.cls-4{fill:#efac9a;}.cls-5{fill:#b76b5c;}.cls-6{fill:#231f20;}.cls-7{fill:#e64a19;}</style></defs><circle class="cls-1" cx="176.22" cy="176.22" r="176.22" transform="translate(-72.99 176.22) rotate(-45)"/><path class="cls-2" d="M176.36,0V352.43A176.22,176.22,0,0,0,176.36,0Z"/><ellipse class="cls-3" cx="176.97" cy="177.74" rx="85" ry="100.68"/><path class="cls-4" d="M177,77.06h-.65V278.41H177c46.94,0,85-45.08,85-100.68S223.91,77.06,177,77.06Z"/><path class="cls-5" d="M177.16,238a28.7,28.7,0,0,0,28.57-28.33H148.59A28.69,28.69,0,0,0,177.16,238Z"/><path class="cls-6" d="M160.87,165.78a7.49,7.49,0,1,0,7.49,7.49A7.49,7.49,0,0,0,160.87,165.78Z"/><path class="cls-6" d="M193.45,165.78a7.49,7.49,0,1,0,7.49,7.49A7.49,7.49,0,0,0,193.45,165.78Z"/><rect class="cls-7" x="142.3" y="145.95" width="26.06" height="4.55"/><rect class="cls-7" x="185.96" y="145.95" width="26.06" height="4.55"/><path class="cls-7" d="M125.92,75.79V76c0,20,23.33,36.26,52.11,36.26S230.14,96,230.14,76v-.17Z"/><path class="cls-7" d="M177,244.44c-17.32,0-31.81-14.83-35.42-34.67a62.08,62.08,0,0,0-7.92,30.79c0,29.71,19.7,53.8,44,53.8s44-24.09,44-53.8a61.67,61.67,0,0,0-9-32.56C209.68,228.72,194.85,244.44,177,244.44Z"/><path class="cls-3" d="M91.6,158.72a13,13,0,1,0,12.65,13A12.85,12.85,0,0,0,91.6,158.72Z"/><path class="cls-4" d="M260.84,158.72a13,13,0,1,0,12.64,13A12.85,12.85,0,0,0,260.84,158.72Z"/></svg>