<svg id="Layer_1" data-name="Layer 1" xmlns="http://www.w3.org/2000/svg" viewBox="0 0 352.44 352.44"><defs><style>.cls-1{fill:#03a9f4;}.cls-2{fill:#0288d1;}.cls-3{fill:#ffccbc;}.cls-4{fill:#efac9a;}.cls-5{fill:#b76b5c;}.cls-6{fill:#231f20;}.cls-7{fill:#682319;}</style></defs><circle class="cls-1" cx="176.22" cy="176.22" r="176.22"/><path class="cls-2" d="M176.36,0V352.43A176.22,176.22,0,0,0,176.36,0Z"/><ellipse class="cls-3" cx="176.97" cy="180.5" rx="85" ry="100.68"/><path class="cls-4" d="M177,79.81h-.65V281.17H177c46.94,0,85-45.08,85-100.68S223.91,79.81,177,79.81Z"/><path class="cls-5" d="M177.16,240.79a28.7,28.7,0,0,0,28.57-28.33H148.59A28.69,28.69,0,0,0,177.16,240.79Z"/><path class="cls-6" d="M160.87,168.54a7.49,7.49,0,1,0,7.49,7.49A7.49,7.49,0,0,0,160.87,168.54Z"/><circle class="cls-6" cx="193.45" cy="176.03" r="7.49" transform="translate(-67.81 188.35) rotate(-45)"/><rect class="cls-7" x="142.3" y="148.71" width="26.06" height="4.55"/><rect class="cls-7" x="185.96" y="148.71" width="26.06" height="4.55"/><path class="cls-3" d="M91.6,161.48a13,13,0,1,0,12.65,13A12.84,12.84,0,0,0,91.6,161.48Z"/><ellipse class="cls-4" cx="260.84" cy="174.51" rx="12.65" ry="13.03"/><path class="cls-6" d="M200.21,159.82a18.72,18.72,0,0,0-18.68,17.63H173a18.73,18.73,0,1,0-.11,3.37h8.72a18.72,18.72,0,1,0,18.57-21Zm-45.87,33.9a15.18,15.18,0,1,1,15.18-15.18A15.2,15.2,0,0,1,154.34,193.72Zm45.87,0a15.18,15.18,0,1,1,15.18-15.18A15.19,15.19,0,0,1,200.21,193.72Z"/><path class="cls-7" d="M158.63,245.12c-4.29,10.43-2.21,22.07,2.45,32.45,1.85,4.12,5.06,8,7.51,12.07a36.71,36.71,0,0,1,5.65,22.56c13-9,19.29-20.11,21.42-31.23s2.6-25.71.8-36.85C187.73,248.12,167.9,246.89,158.63,245.12Z"/></svg>