<svg id="Layer_1" data-name="Layer 1" xmlns="http://www.w3.org/2000/svg" viewBox="0 0 352.44 352.44"><defs><style>.cls-1{fill:#ba68c8;}.cls-2{fill:#8e24aa;}.cls-3{fill:#ffccbc;}.cls-4{fill:#efac9a;}.cls-5{fill:#231f20;}.cls-6{fill:#d81b60;}.cls-7{fill:#ff3d00;}</style></defs><circle class="cls-1" cx="176.22" cy="176.22" r="176.22" transform="translate(-72.99 176.22) rotate(-45)"/><path class="cls-2" d="M176.36,0V352.43A176.22,176.22,0,0,0,176.36,0Z"/><ellipse class="cls-3" cx="94.9" cy="200.79" rx="12.65" ry="13.03"/><path class="cls-4" d="M264.14,187.77a13,13,0,1,0,12.65,13A12.84,12.84,0,0,0,264.14,187.77Z"/><ellipse class="cls-3" cx="176.7" cy="202.4" rx="85" ry="100.68"/><path class="cls-4" d="M176.7,101.72h-.64V303.08h.64c47,0,85-45.08,85-100.69S223.65,101.72,176.7,101.72Z"/><circle class="cls-5" cx="193.83" cy="201.25" r="7.49" transform="translate(-85.54 196.01) rotate(-45)"/><path class="cls-5" d="M199.12,173.83a21,21,0,0,0-12.78,4.08v6.37c3.08-4.2,25.83-5.25,29.12-2.42C212.63,177.12,206.38,173.83,199.12,173.83Z"/><circle class="cls-5" cx="158.08" cy="201.7" r="7.49"/><path class="cls-5" d="M136.44,181.42c3.29-2.83,26.05-1.78,29.12,2.42v-6.37a20.93,20.93,0,0,0-12.77-4.08C145.53,173.39,139.27,176.68,136.44,181.42Z"/><path class="cls-6" d="M190.27,246.2c-2.49-1-4.84-2.58-7.41-3.22s-5.58-.13-7.24,2.38h-.44c-1.67-2.51-4.67-3-7.24-2.38s-4.92,2.21-7.42,3.22a17.6,17.6,0,0,1-10.91.76c6.21,9.13,16.19,14.11,25.79,12.93,9.6,1.18,19.57-3.8,25.79-12.93A17.64,17.64,0,0,1,190.27,246.2Z"/><path class="cls-5" d="M87.94,208.62a4.05,4.05,0,1,0,4,4A4.05,4.05,0,0,0,87.94,208.62Z"/><path class="cls-5" d="M264.26,207.11a4,4,0,1,0,4.05,4A4,4,0,0,0,264.26,207.11Z"/><path class="cls-7" d="M252.22,185.85c0-.24-.09-.47-.13-.71A.55.55,0,0,0,252.22,185.85Z"/><path class="cls-7" d="M271.59,103.84A325.73,325.73,0,0,0,241.83,87C191.14,62.59,130.08,62.26,72.77,68.44A1118.08,1118.08,0,0,1,101.45,302c.18,11,.27,22.36,5.21,32.46a452,452,0,0,1,7.16-72.32,57.06,57.06,0,0,0,11.59,33.27,249.17,249.17,0,0,1-2.78-69.12c-1.13-17.31,2.18-34.87,8-51.5,7.59-21.85,19.3-42.37,31-62.76a47.41,47.41,0,0,0,16.09,26.6q-.31-5.94-.64-11.88a35.67,35.67,0,0,0,16.12,17.36c-.64-3.23-1.27-6.47-1.91-9.71L216.44,154c-.26-3.8,1.36-9.21,5.6-8.51a6.84,6.84,0,0,1,3.86,2.65,84.55,84.55,0,0,1,12.92,19.55q.66-5.16,1.3-10.32a65.46,65.46,0,0,1,12,27.82,1.52,1.52,0,0,1,1.83-.62,3,3,0,0,1,1.32,2.51q2.2,15.75,4.43,31.51a411,411,0,0,1,20.46-95.41c1-3,2.06-6,1.36-9.08C280.44,109.55,275.86,106.48,271.59,103.84Z"/><path class="cls-7" d="M122.63,226.32a95.39,95.39,0,0,0,2.43,16.13q-1.17-8.61-2.33-17.21C122.7,225.6,122.67,226,122.63,226.32Z"/></svg>