<svg id="Layer_1" data-name="Layer 1" xmlns="http://www.w3.org/2000/svg" viewBox="0 0 352.44 352.44"><defs><style>.cls-1{fill:#b7c1ed;}.cls-2{fill:#9fa8da;}.cls-3{fill:#ffccbc;}.cls-4{fill:#efac9a;}.cls-5{fill:#b76b5c;}.cls-6{fill:#231f20;}</style></defs><circle class="cls-1" cx="176.22" cy="176.22" r="176.22" transform="translate(-72.99 176.22) rotate(-45)"/><path class="cls-2" d="M176.36,0V352.43A176.22,176.22,0,0,0,176.36,0Z"/><ellipse class="cls-3" cx="176.33" cy="187.88" rx="85" ry="100.68"/><path class="cls-4" d="M176.33,87.2h-.64V288.55h.64c46.95,0,85-45.07,85-100.68S223.28,87.2,176.33,87.2Z"/><path class="cls-5" d="M176.53,248.17a28.7,28.7,0,0,0,28.57-28.33H148A28.71,28.71,0,0,0,176.53,248.17Z"/><path class="cls-6" d="M160.24,175.92a7.49,7.49,0,1,0,7.48,7.49A7.49,7.49,0,0,0,160.24,175.92Z"/><path class="cls-6" d="M192.82,175.92a7.49,7.49,0,1,0,7.49,7.49A7.49,7.49,0,0,0,192.82,175.92Z"/><rect class="cls-6" x="141.67" y="156.09" width="26.06" height="4.55"/><rect class="cls-6" x="185.33" y="156.09" width="26.06" height="4.55"/><path class="cls-3" d="M91,168.87a13,13,0,1,0,12.65,13A12.84,12.84,0,0,0,91,168.87Z"/><path class="cls-4" d="M260.2,168.87a13,13,0,1,0,12.65,13A12.84,12.84,0,0,0,260.2,168.87Z"/><path class="cls-6" d="M221.88,93.78c-3.23-1.53-7.09-2.73-10.26-1.11-5.42-13.8-21.57-20.4-36.38-21-26.26-1-52.55,13.28-66,35.85l4.18-4.32c-7.16,16-15.58,33.4-31.59,40.63l2.55.09a36.28,36.28,0,0,1-26.78,4.21A49.63,49.63,0,0,0,80.15,162.1c3.38,1,6.92,1.62,9.92,3.45,7.6,4.63,9.09,14.84,9.8,23.72q1.09,13.86,2.2,27.73l7.65.39a198.84,198.84,0,0,1-1.66-61.11c5.8,2.21,12.13-1,17.51-4.07,5.76-3.32,11.57-6.66,16.54-11.08,5.87-5.23,10.57-12,17.48-15.72,5.74-3.12,12.43-3.87,18.93-4.46s13.18-1.14,19.1-3.91,11-8.34,11.19-14.87l20.59,30.24c4.65,6.84,9.34,13.73,12.71,21.29,8.93,20,8,43.18,2.31,64.3a12.72,12.72,0,0,1,10.13-.62,96.9,96.9,0,0,1,3-45.1c.35-1.14.85-2.4,2-2.84a7.28,7.28,0,0,1,2.64-.08c4,0,6.3-4.57,6.82-8.53,1.76-13.27-5.71-25.91-13.7-36.64C246.18,112,235.62,100.28,221.88,93.78Z"/></svg>