<svg id="Layer_1" data-name="Layer 1" xmlns="http://www.w3.org/2000/svg" viewBox="0 0 352.44 352.44"><defs><style>.cls-1{fill:#9233c4;}.cls-2{fill:#7b1fa2;}.cls-3{fill:#ffccbc;}.cls-4{fill:#efac9a;}.cls-5{fill:#231f20;}.cls-6{fill:#e64a19;}.cls-7{fill:#b76b5c;}</style></defs><circle class="cls-1" cx="176.22" cy="176.22" r="176.22" transform="translate(-72.99 176.22) rotate(-45)"/><path class="cls-2" d="M176.36,0V352.43A176.22,176.22,0,0,0,176.36,0Z"/><ellipse class="cls-3" cx="176" cy="180.58" rx="85" ry="100.68"/><path class="cls-4" d="M176,79.89h-.64V281.25H176c46.94,0,85-45.08,85-100.68S222.94,79.89,176,79.89Z"/><path class="cls-5" d="M159.9,168.62a7.49,7.49,0,1,0,7.49,7.49A7.49,7.49,0,0,0,159.9,168.62Z"/><circle class="cls-5" cx="192.48" cy="176.11" r="7.49" transform="translate(-20.08 24.84) rotate(-7.02)"/><rect class="cls-5" x="141.33" y="148.79" width="26.06" height="4.55"/><rect class="cls-5" x="185" y="148.79" width="26.06" height="4.55"/><path class="cls-6" d="M229.39,76.61H177.47c-1.1,0-2.21-.09-3.32-.09-22,0-42.47-2.72-58.43,10.2-14.15,11.45-24.66,31.78-30.23,53h39.74c18.67-17,44.44-28.49,73.37-31h30.79a6.09,6.09,0,0,0,6.07-6.07V82.68A6.09,6.09,0,0,0,229.39,76.61Z"/><ellipse class="cls-5" cx="175.67" cy="244.24" rx="47.94" ry="48.82"/><path class="cls-7" d="M176.19,240.87a28.71,28.71,0,0,0,28.58-28.33H147.62A28.7,28.7,0,0,0,176.19,240.87Z"/><path class="cls-3" d="M91.6,164.66a13,13,0,1,0,12.65,13A12.84,12.84,0,0,0,91.6,164.66Z"/><ellipse class="cls-4" cx="260.84" cy="177.69" rx="12.65" ry="13.03"/></svg>