<svg id="Layer_1" data-name="Layer 1" xmlns="http://www.w3.org/2000/svg" viewBox="0 0 352.44 352.44"><defs><style>.cls-1{fill:#ffab00;}.cls-2{fill:#ff8f00;}.cls-3{fill:#ffccbc;}.cls-4{fill:#efac9a;}.cls-5{fill:#b76b5c;}.cls-6{fill:#231f20;}.cls-7{fill:#682319;}</style></defs><circle class="cls-1" cx="176.22" cy="176.22" r="176.22" transform="translate(-72.99 176.22) rotate(-45)"/><path class="cls-2" d="M176.36,0V352.43A176.22,176.22,0,0,0,176.36,0Z"/><ellipse class="cls-3" cx="176.97" cy="198.07" rx="85" ry="100.68"/><path class="cls-4" d="M177,97.39h-.65V298.75H177c46.94,0,85-45.08,85-100.69S223.91,97.39,177,97.39Z"/><path class="cls-5" d="M177.16,258.37A28.7,28.7,0,0,0,205.73,230H148.59A28.7,28.7,0,0,0,177.16,258.37Z"/><path class="cls-6" d="M160.87,186.12a7.49,7.49,0,1,0,7.49,7.49A7.49,7.49,0,0,0,160.87,186.12Z"/><path class="cls-6" d="M193.45,186.12a7.49,7.49,0,1,0,7.49,7.49A7.49,7.49,0,0,0,193.45,186.12Z"/><rect class="cls-7" x="142.3" y="166.28" width="26.06" height="4.55"/><rect class="cls-7" x="185.96" y="166.28" width="26.06" height="4.55"/><path class="cls-3" d="M91.6,179.06a13,13,0,1,0,12.65,13A12.84,12.84,0,0,0,91.6,179.06Z"/><path class="cls-4" d="M260.84,179.06a13,13,0,1,0,12.64,13A12.84,12.84,0,0,0,260.84,179.06Z"/><path class="cls-6" d="M255.74,125.64H242.09a65.25,65.25,0,0,0-130.22,0H98.22a6.09,6.09,0,0,0-6.07,6.07v2.36a6.09,6.09,0,0,0,6.07,6.07H255.74a6.09,6.09,0,0,0,6.07-6.07v-2.36A6.09,6.09,0,0,0,255.74,125.64Z"/><path class="cls-7" d="M223.92,241a7.63,7.63,0,0,1-4.57-4.88,28.83,28.83,0,0,1-1.18-6.81c-.69-6.39-2.66-13.24-7.93-16.92-4-2.77-9.12-3.22-14-3.1a75.08,75.08,0,0,0-11.19,1.11,54.9,54.9,0,0,0-8.5,1.89,54.75,54.75,0,0,0-8.51-1.89,74.81,74.81,0,0,0-11.18-1.11c-4.86-.12-10,.33-14,3.1-5.27,3.68-7.24,10.53-7.93,16.92a28.83,28.83,0,0,1-1.18,6.81,7.61,7.61,0,0,1-4.57,4.88c-2.21.68-5-.45-5.59-2.68-1.8,3.74.74,8.67,4.69,9.94s8.52-.78,10.76-4.27,2.4-7.69,4.25-11.26c2.11-4,6.19-6.79,10.55-8.09a36.3,36.3,0,0,1,13.55-.89c2.55.23,6.36.93,9.14.34,2.77.59,6.59-.11,9.14-.34a36.26,36.26,0,0,1,13.54.89c4.37,1.3,8.45,4.05,10.55,8.09,1.86,3.57,2.08,7.87,4.25,11.26s6.81,5.54,10.77,4.27,6.48-6.2,4.69-9.94C228.92,240.58,226.13,241.71,223.92,241Z"/></svg>