<svg id="Layer_1" data-name="Layer 1" xmlns="http://www.w3.org/2000/svg" viewBox="0 0 352.44 352.44"><defs><style>.cls-1{fill:#00aeb7;}.cls-2{fill:#00838f;}.cls-3{fill:#ffe7d7;}.cls-4{fill:#f2d4c0;}.cls-5{fill:#231f20;}.cls-6{fill:#d81b60;}</style></defs><circle class="cls-1" cx="176.22" cy="176.22" r="176.22"/><path class="cls-2" d="M176.36,0V352.43A176.22,176.22,0,0,0,176.36,0Z"/><ellipse class="cls-3" cx="176.52" cy="161.16" rx="85" ry="100.68"/><path class="cls-4" d="M176.52,60.48h-.64V261.84h.64c46.94,0,85-45.08,85-100.69S223.46,60.48,176.52,60.48Z"/><path class="cls-3" d="M91.59,142.66a13,13,0,1,0,12.65,13A12.84,12.84,0,0,0,91.59,142.66Z"/><path class="cls-4" d="M263.61,142.66a13,13,0,1,0,12.65,13A12.84,12.84,0,0,0,263.61,142.66Z"/><circle class="cls-5" cx="193.28" cy="167.74" r="7.49" transform="translate(-14.38 317.31) rotate(-76.72)"/><circle class="cls-5" cx="157.52" cy="168.18" r="7.49"/><path class="cls-6" d="M189.72,212.68c-2.5-1-4.85-2.57-7.42-3.22s-5.57-.12-7.24,2.38h-.44c-1.66-2.5-4.66-3-7.23-2.38s-4.93,2.22-7.42,3.22a17.57,17.57,0,0,1-10.92.76c6.22,9.13,16.19,14.11,25.79,12.93,9.61,1.18,19.58-3.8,25.79-12.93A17.53,17.53,0,0,1,189.72,212.68Z"/><path class="cls-5" d="M242.43,61.69C209.8,42.81,183,49.8,175.85,54.17c-7.11-4.37-37.39-9.33-70,9.54C89.78,73,62.34,94.56,55.24,132,44.11,190.71,43.6,268.62,82.05,306.57c11,10.8,41,22,51.61,23.27-8.85-24.24-12.27-157.27-7.59-182.65,10.58,4,92.12,3.48,102.7-.5,4.68,25.38-.76,157.39-9.61,181.63,10.57-1.28,38.06-13.48,47-22.26C287,285.82,311.55,245.52,295.05,129,289.71,91.23,258.48,71,242.43,61.69Z"/></svg>