<svg id="Layer_1" data-name="Layer 1" xmlns="http://www.w3.org/2000/svg" viewBox="0 0 352.44 352.44"><defs><style>.cls-1{fill:#008e79;}.cls-2{fill:#00695c;}.cls-3{fill:#ffccbc;}.cls-4{fill:#efac9a;}.cls-5{fill:#b76b5c;}.cls-6{fill:#231f20;}.cls-7{fill:#514848;}</style></defs><circle class="cls-1" cx="176.22" cy="176.22" r="176.22" transform="translate(-72.99 176.22) rotate(-45)"/><path class="cls-2" d="M176.36,0V352.43A176.22,176.22,0,0,0,176.36,0Z"/><ellipse class="cls-3" cx="176.97" cy="166.7" rx="85" ry="100.68"/><path class="cls-4" d="M177,66h-.65V267.37H177c46.94,0,85-45.08,85-100.68S223.91,66,177,66Z"/><path class="cls-5" d="M177.16,227a28.7,28.7,0,0,0,28.57-28.33H148.59A28.69,28.69,0,0,0,177.16,227Z"/><path class="cls-6" d="M160.87,154.74a7.49,7.49,0,1,0,7.49,7.49A7.49,7.49,0,0,0,160.87,154.74Z"/><path class="cls-6" d="M193.45,154.74a7.49,7.49,0,1,0,7.49,7.49A7.49,7.49,0,0,0,193.45,154.74Z"/><rect class="cls-6" x="142.3" y="134.91" width="26.06" height="4.55"/><rect class="cls-6" x="185.96" y="134.91" width="26.06" height="4.55"/><ellipse class="cls-3" cx="91.6" cy="160.71" rx="12.65" ry="13.03"/><path class="cls-4" d="M260.84,147.68a13,13,0,1,0,12.64,13A12.85,12.85,0,0,0,260.84,147.68Z"/><path class="cls-6" d="M256.91,167.32a9.67,9.67,0,0,0-2.5,3.06c-2.3,3.78-1.41,42-21.58,52.16-5.85,3-19.87-10-22.5-17.5-4.25,4-3.11,5.47-5.92,10.58-4.4,8-15.91,14.42-27.5,16-18.91-1.37-23.09-8-27.49-16-2.81-5.11-3.5-7.42-7.76-11.41-2.62,7.44-16.14,20.46-22,17.5-20.16-10.2-17.94-47.55-20.24-51.33a9.57,9.57,0,0,0-2.51-3.06,3.24,3.24,0,0,0-3.72-.15c-1.22,6,1.14,45.68,1.77,54a38.29,38.29,0,0,0,1,5.91c9.17,40,43.68,50.58,54.22,52.15l2.71.39c0,.09,0,.17,0,.26.51,0,1-.05,1.55-.06a150.07,150.07,0,0,0,22.5,1.35,150.2,150.2,0,0,0,22.51-1.35c.52,0,1,0,1.55.06a2.26,2.26,0,0,0,0-.26l2.72-.39c10.53-1.57,45.05-12.11,54.22-52.15a39.53,39.53,0,0,0,.95-5.91c.63-8.33,3-48,1.77-54A3.26,3.26,0,0,0,256.91,167.32Z"/><path class="cls-7" d="M219.57,191.54c-3.81-1.42-6.5-4.76-9.75-7.2-9.38-7-22.3-6-34-4.59-11.66-1.41-24.58-2.44-34,4.59-3.24,2.44-5.94,5.78-9.74,7.2-4.78,1.79-14.08.46-15.58-4.79-7,15.5,8.12,20.56,11.75,20.75,2.47.13,9.5,0,12.25-3.25,1.87-2.21,2.27-6.64,4.9-7.86,2.3-1.06,4.91-1.12,7.44-1.17l22.94-.39,22.94.39c2.53.05,5.15.11,7.44,1.17,2.63,1.22,3,5.65,4.9,7.86,2.75,3.25,9.78,3.38,12.25,3.25,3.64-.19,18.75-5.25,11.75-20.75C233.64,192,224.34,193.33,219.57,191.54Z"/></svg>