<svg id="Layer_1" data-name="Layer 1" xmlns="http://www.w3.org/2000/svg" viewBox="0 0 352.44 352.44"><defs><style>.cls-1{fill:#ffab00;}.cls-2{fill:#ff8f00;}.cls-3{fill:#d89b79;}.cls-4{fill:#c18161;}.cls-5{fill:#8c513a;}.cls-6{fill:#231f20;}.cls-7{fill:#563e3b;}.cls-8{fill:#6b4e4c;}</style></defs><circle class="cls-1" cx="176.22" cy="176.22" r="176.22" transform="translate(-72.99 176.22) rotate(-45)"/><path class="cls-2" d="M175.36,0V352.43A176.22,176.22,0,0,0,175.36,0Z"/><ellipse class="cls-3" cx="176.97" cy="179.07" rx="85" ry="100.68"/><path class="cls-4" d="M177,78.39h-.65V279.75H177c46.94,0,85-45.08,85-100.69S223.91,78.39,177,78.39Z"/><path class="cls-5" d="M176.91,240.87a28.7,28.7,0,0,0,28.57-28.34H148.34A28.7,28.7,0,0,0,176.91,240.87Z"/><path class="cls-6" d="M160.87,167.12a7.49,7.49,0,1,0,7.49,7.49A7.49,7.49,0,0,0,160.87,167.12Z"/><path class="cls-6" d="M193.45,167.12a7.49,7.49,0,1,0,7.49,7.49A7.49,7.49,0,0,0,193.45,167.12Z"/><rect class="cls-7" x="142.3" y="147.28" width="26.06" height="4.55"/><rect class="cls-7" x="185.96" y="147.28" width="26.06" height="4.55"/><path class="cls-3" d="M91.6,160.06a13,13,0,1,0,12.65,13A12.84,12.84,0,0,0,91.6,160.06Z"/><path class="cls-4" d="M260.84,160.06a13,13,0,1,0,12.64,13A12.84,12.84,0,0,0,260.84,160.06Z"/><path class="cls-7" d="M257.26,181.89a9.42,9.42,0,0,0-2.51,3.05c-2.3,3.78-1.41,42-21.58,52.17-5.85,2.95-19.87-10.06-22.5-17.5-4.25,4-3.11,5.47-5.92,10.58-4.4,8-15.91,14.42-27.49,15.95-18.92-1.37-23.1-8-27.5-15.95-2.81-5.11-3.5-7.42-7.75-11.42-2.63,7.45-16.15,20.46-22,17.5-20.17-10.19-18-47.55-20.24-51.33a9.69,9.69,0,0,0-2.51-3.05,3.24,3.24,0,0,0-3.73-.16c-1.22,6,1.14,45.68,1.77,54a40.86,40.86,0,0,0,1,5.91c9.17,40,43.69,50.58,54.22,52.15l2.72.39a2.17,2.17,0,0,0,0,.26c.52,0,1-.05,1.55-.06a150.2,150.2,0,0,0,22.51,1.35,150.07,150.07,0,0,0,22.5-1.35c.52,0,1,0,1.55.06,0-.08,0-.17,0-.26l2.71-.39c10.54-1.57,45.05-12.11,54.22-52.15a39.56,39.56,0,0,0,1-5.91c.62-8.33,3-48,1.76-54A3.23,3.23,0,0,0,257.26,181.89Z"/><path class="cls-8" d="M219.91,206.1c-3.8-1.42-6.5-4.76-9.75-7.19-9.38-7-22.3-6-34-4.6-11.65-1.41-24.57-2.44-33.95,4.6-3.25,2.43-5.95,5.77-9.75,7.19-4.78,1.79-14.08.46-15.58-4.79-7,15.5,8.12,20.57,11.75,20.75,2.48.13,9.5,0,12.25-3.25,1.87-2.2,2.28-6.64,4.9-7.85,2.3-1.07,4.91-1.13,7.45-1.17l22.93-.4,22.94.4c2.53,0,5.15.1,7.45,1.17,2.62,1.21,3,5.65,4.89,7.85,2.75,3.25,9.78,3.38,12.25,3.25,3.64-.18,18.75-5.25,11.75-20.75C234,206.56,224.69,207.89,219.91,206.1Z"/><path class="cls-7" d="M249.79,98.37c-.2-.06-.4-.13-.6-.18A.69.69,0,0,0,249.79,98.37Z"/><path class="cls-7" d="M257.08,107.14c-1-3.82-3.53-7.52-7.29-8.77a.69.69,0,0,1-.6-.18c.2,0,.4.12.6.18a1.33,1.33,0,0,0,1-1.53c-.27-.91-1.26-1.39-2.16-1.71-4-1.43-8.41-2-11.91-4.35a32.7,32.7,0,0,0-3.23-2.25c-2.35-1.2-5.14-1-7.77-1.41C220,86.32,215.11,83,210,80.34c-19.38-10-43-9.84-63.9-3.31l6.66.11A92.57,92.57,0,0,0,121,91.85l7.94-1.54A101.67,101.67,0,0,0,103.36,108l6.5-1.44a36.87,36.87,0,0,0-21.62,20.61,9.48,9.48,0,0,1,4.33-1.38,280,280,0,0,1,.17,43h4.91a61.34,61.34,0,0,1,9.09-28.12l.63,2.82,17.12-16.56a17.38,17.38,0,0,1-5.22,9.15A53.92,53.92,0,0,0,140,125.23a8.77,8.77,0,0,1-1.11,4.44,122.22,122.22,0,0,0,34.16-12.76,30.56,30.56,0,0,1-7.53,6.38l7.13-2.31L170,124.8a52.67,52.67,0,0,0,22.36-10c-.46,1.32-.91,2.65-1.36,4a98.11,98.11,0,0,0,21.54-14.4,37.11,37.11,0,0,0,10.12,9.86l3.13-3.93A33.56,33.56,0,0,0,237,129.82c.16-1,.32-2.08.47-3.12,8.11,11.1,16.14,27.11,17,40.74,2.21-.47,4.24,0,5.94-.17-.46-3.54.29-36.46.68-45.16C261.36,118,258.09,111.16,257.08,107.14Z"/></svg>