<svg id="Layer_1" data-name="Layer 1" xmlns="http://www.w3.org/2000/svg" viewBox="0 0 352.44 352.44"><defs><style>.cls-1{fill:#f8bbd0;}.cls-2{fill:#f58fb1;}.cls-3{fill:#d89b79;}.cls-4{fill:#c18161;}.cls-5{fill:#8c513a;}.cls-6{fill:#231f20;}.cls-7{fill:#682319;}</style></defs><circle class="cls-1" cx="170.28" cy="180.69" r="176.22" transform="translate(-77.89 173.33) rotate(-45)"/><path class="cls-2" d="M170.43,4.47V356.9a176.22,176.22,0,0,0,0-352.43Z"/><ellipse class="cls-3" cx="176.97" cy="193.19" rx="85" ry="100.68"/><path class="cls-4" d="M177,92.51h-.65V293.86H177c46.94,0,85-45.08,85-100.68S223.91,92.51,177,92.51Z"/><path class="cls-5" d="M177.16,253.48a28.7,28.7,0,0,0,28.57-28.33H148.59A28.69,28.69,0,0,0,177.16,253.48Z"/><path class="cls-6" d="M160.87,181.23a7.49,7.49,0,1,0,7.49,7.49A7.49,7.49,0,0,0,160.87,181.23Z"/><path class="cls-6" d="M193.45,181.23a7.49,7.49,0,1,0,7.49,7.49A7.49,7.49,0,0,0,193.45,181.23Z"/><path class="cls-3" d="M91.6,174.17a13,13,0,1,0,12.65,13A12.85,12.85,0,0,0,91.6,174.17Z"/><path class="cls-4" d="M260.84,174.17a13,13,0,1,0,12.64,13A12.85,12.85,0,0,0,260.84,174.17Z"/><path class="cls-7" d="M197.47,205.37H158a19.2,19.2,0,0,0-19.14,19.15v62.56A19.2,19.2,0,0,0,158,306.23h39.46a19.2,19.2,0,0,0,19.14-19.15V224.52A19.2,19.2,0,0,0,197.47,205.37Zm13.83,45.79a19.19,19.19,0,0,1-19.14,19.14H163.32a19.19,19.19,0,0,1-19.14-19.14V229.24a19.19,19.19,0,0,1,19.14-19.14h28.84a19.19,19.19,0,0,1,19.14,19.14Z"/><path class="cls-6" d="M226.21,158.87h-35a10.81,10.81,0,0,0-10.8,10.8v10.46h-6.32V169.67a10.81,10.81,0,0,0-10.8-10.8h-35a10.81,10.81,0,0,0-10.81,10.8v23.9a10.82,10.82,0,0,0,10.81,10.8h35a10.81,10.81,0,0,0,10.8-10.8V184.8h6.32v8.77a10.81,10.81,0,0,0,10.8,10.8h35A10.82,10.82,0,0,0,237,193.57v-23.9A10.81,10.81,0,0,0,226.21,158.87Zm-57.05,34.7a5.91,5.91,0,0,1-5.89,5.89h-35a5.91,5.91,0,0,1-5.9-5.89v-23.9a5.91,5.91,0,0,1,5.9-5.89h35a5.91,5.91,0,0,1,5.89,5.89Zm63,0a5.92,5.92,0,0,1-5.9,5.89h-35a5.91,5.91,0,0,1-5.89-5.89v-23.9a5.91,5.91,0,0,1,5.89-5.89h35a5.92,5.92,0,0,1,5.9,5.89Z"/><path class="cls-7" d="M240.59,105.39a83,83,0,0,0,1.36-16l-6.71,7.34a97.85,97.85,0,0,0-8.4-31.22A20.36,20.36,0,0,1,220.66,79c-1.09-2.3-2.17-4.6-3.26-6.89A18.31,18.31,0,0,1,214,76.81a95.85,95.85,0,0,1-4.27-10.58L207,72.62a75.68,75.68,0,0,0-13.8-26.41,24.83,24.83,0,0,1-6.43,24c-1.28-2.14-2.57-4.27-3.86-6.41a15.32,15.32,0,0,0-3.28,5,33.49,33.49,0,0,1-4.77-11.34,128.22,128.22,0,0,0-14.11,22.05l-3.51-5.73A47.51,47.51,0,0,0,151,81.55c-2-4.58-3.73-9.41-3.74-14.41s1.95-10.23,6.07-13.06a39.74,39.74,0,0,0-20.81,34.69,9.72,9.72,0,0,1-2.48-6.9c-2.28,3-2.6,7.24-1.63,10.92a31.29,31.29,0,0,0,5.27,10.06A78.72,78.72,0,0,0,100.06,122a33.94,33.94,0,0,1,13.48-1.86,82,82,0,0,0-21.79,23.88c-5,8.27-10.78,21.52-9.76,32.4,4-.81,14.87-7.35,18.52-9.12a24.15,24.15,0,0,0-1.09,15.2L113.83,163c2.39-3.25,5-6.69,8.85-8-.55,1.45-1.09,2.9-1.63,4.35l20.49-7c3.84-1.32,8.31-2.58,11.74-.41l-3.69,3.39a64.12,64.12,0,0,0,27.7-2.24c3.35-1,7-2.78,8.36-5.88.13-.36.26-.73.38-1.1a5.71,5.71,0,0,1-.38,1.1,36.26,36.26,0,0,1-5.13,9.58c6.65-3.84,13.36-7.74,18.87-13.07s9.78-12.36,10.27-20l1.11,6.4a36.33,36.33,0,0,0,4-20.84,77.77,77.77,0,0,0,10.37,14.88c.08-1.86.17-3.72.25-5.58a23.38,23.38,0,0,0,13.51,19.74,15.36,15.36,0,0,0-2.56-15.72c5.61-6.3,7.36-15,8.89-23.34Z"/><path class="cls-7" d="M186,146.05c-.12.37-.25.74-.38,1.1A5.71,5.71,0,0,0,186,146.05Z"/></svg>