<svg id="Layer_1" data-name="Layer 1" xmlns="http://www.w3.org/2000/svg" viewBox="0 0 352.44 352.44"><defs><style>.cls-1{fill:#ffd54f;}.cls-2{fill:#ffb300;}.cls-3{fill:#d89b79;}.cls-4{fill:#c18161;}.cls-5{fill:#231f20;}.cls-6{fill:#880e4f;}</style></defs><circle class="cls-1" cx="176.22" cy="176.22" r="176.22"/><path class="cls-2" d="M176.36,0V352.43A176.22,176.22,0,0,0,176.36,0Z"/><ellipse class="cls-3" cx="95.82" cy="188.73" rx="12.65" ry="13.03"/><ellipse class="cls-4" cx="265.06" cy="188.73" rx="12.65" ry="13.03"/><ellipse class="cls-3" cx="177.62" cy="190.34" rx="85" ry="100.68"/><path class="cls-4" d="M177.62,89.65H177V291h.64c46.94,0,85-45.08,85-100.68S224.56,89.65,177.62,89.65Z"/><circle class="cls-5" cx="194.75" cy="188.18" r="7.49"/><path class="cls-5" d="M200,160.75a21,21,0,0,0-12.78,4.08v6.37c3.08-4.19,25.83-5.25,29.12-2.41C213.55,164.05,207.3,160.75,200,160.75Z"/><path class="cls-5" d="M159,181.13a7.49,7.49,0,1,0,7.49,7.49A7.48,7.48,0,0,0,159,181.13Z"/><path class="cls-5" d="M137.36,168.34c3.29-2.83,26-1.78,29.12,2.42v-6.37a20.93,20.93,0,0,0-12.77-4.08C146.44,160.31,140.19,163.6,137.36,168.34Z"/><path class="cls-6" d="M191.19,233.12c-2.49-1-4.84-2.58-7.42-3.22s-5.57-.13-7.23,2.38h-.44c-1.67-2.51-4.67-3-7.24-2.38s-4.92,2.22-7.42,3.22a17.53,17.53,0,0,1-10.91.76c6.21,9.13,16.18,14.11,25.79,12.93,9.6,1.18,19.57-3.8,25.79-12.93A17.57,17.57,0,0,1,191.19,233.12Z"/><path class="cls-5" d="M236.92,102.65c-4.82-2.55-11-3.16-15.59-.19,2.44-8.82-3-18.33-10.6-23.41s-17-6.68-26-8c-7-1-14.05-1.87-21.11-1.51-9.23.46-18.27,3-26.82,6.55-26.08,10.78-48.49,31.43-58.89,57.67s-7.81,57.87,8.88,80.63c6.66,9.08,15.22,16.55,23.41,24.26q13.05,12.28,25,25.64C132,235.43,132.86,205,146,179c13.91-27.48,39.72-46.63,64.62-64.74,7.17,3.37,10.49,11.55,13.17,19q7.14,19.88,14.3,39.74c5.43,15.11,10.88,31.79,5.23,46.81,5.36-10,12-19.23,17.45-29.2s9.58-21,9.31-32.31c-.39-16.81-10.37-31.81-21.11-44.74C245.47,109.38,241.75,105.19,236.92,102.65Z"/><rect class="cls-6" x="263.24" y="196.78" width="6.75" height="9.95"/></svg>