<svg id="Layer_1" data-name="Layer 1" xmlns="http://www.w3.org/2000/svg" viewBox="0 0 352.44 352.44"><defs><style>.cls-1{fill:#d81b60;}.cls-2{fill:#ad1457;}.cls-3{fill:#ffccbc;}.cls-4{fill:#efac9a;}.cls-5{fill:#b76b5c;}.cls-6{fill:#231f20;}.cls-7{fill:#682319;}.cls-8{fill:#00bfa5;}</style></defs><circle class="cls-1" cx="176.22" cy="176.22" r="176.22" transform="translate(-72.99 176.22) rotate(-45)"/><path class="cls-2" d="M176.36,0V352.43A176.22,176.22,0,0,0,176.36,0Z"/><ellipse class="cls-3" cx="176.97" cy="184.62" rx="85" ry="100.68"/><path class="cls-4" d="M177,83.94h-.65V285.3H177c46.94,0,85-45.08,85-100.69S223.91,83.94,177,83.94Z"/><path class="cls-5" d="M177.16,244.92a28.7,28.7,0,0,0,28.57-28.34H148.59A28.7,28.7,0,0,0,177.16,244.92Z"/><circle class="cls-6" cx="160.87" cy="180.16" r="7.49"/><path class="cls-6" d="M193.45,172.67a7.49,7.49,0,1,0,7.49,7.49A7.49,7.49,0,0,0,193.45,172.67Z"/><rect class="cls-7" x="142.3" y="152.83" width="26.06" height="4.55"/><rect class="cls-7" x="185.96" y="152.83" width="26.06" height="4.55"/><path class="cls-3" d="M91.6,165.61a13,13,0,1,0,12.65,13A12.84,12.84,0,0,0,91.6,165.61Z"/><path class="cls-4" d="M260.84,165.61a13,13,0,1,0,12.64,13A12.84,12.84,0,0,0,260.84,165.61Z"/><path class="cls-7" d="M196,197.36H156.53a19.19,19.19,0,0,0-19.14,19.14v62.57a19.2,19.2,0,0,0,19.14,19.14H196a19.21,19.21,0,0,0,19.15-19.14V216.5A19.2,19.2,0,0,0,196,197.36Zm13.83,45.79a19.2,19.2,0,0,1-19.14,19.14H161.84a19.21,19.21,0,0,1-19.14-19.14V221.22a19.2,19.2,0,0,1,19.14-19.14h28.84a19.19,19.19,0,0,1,19.14,19.14Z"/><path class="cls-8" d="M177,78.86c-20,0-37.5,6-47,15,.52,14,20.9,25.21,46,25.21,25.4,0,46-11.53,46-25.75,0-.42,0-.84-.06-1.25C212.08,84.11,195.62,78.86,177,78.86Z"/><path class="cls-7" d="M177,78.86c-20,0-37.5,6-47,15,.52,14,20.9,25.21,46,25.21,25.4,0,46-11.53,46-25.75,0-.42,0-.84-.06-1.25C212.08,84.11,195.62,78.86,177,78.86Z"/></svg>