<svg id="Layer_1" data-name="Layer 1" xmlns="http://www.w3.org/2000/svg" viewBox="0 0 352.44 352.44"><defs><style>.cls-1{fill:#ff5177;}.cls-2{fill:#d81b60;}.cls-3{fill:#ffccbc;}.cls-4{fill:#efac9a;}.cls-5{fill:#231f20;}.cls-6{fill:#00aeb7;}</style></defs><circle class="cls-1" cx="176.22" cy="176.22" r="176.22" transform="translate(-72.99 176.22) rotate(-45)"/><path class="cls-2" d="M176.36,0V352.43A176.22,176.22,0,0,0,176.36,0Z"/><ellipse class="cls-3" cx="177.12" cy="167.52" rx="85" ry="100.68"/><path class="cls-4" d="M177.12,66.83h-.64V268.19h.64c46.95,0,85-45.08,85-100.68S224.07,66.83,177.12,66.83Z"/><path class="cls-5" d="M193.88,164.07a7.49,7.49,0,1,0,7.49,7.49A7.49,7.49,0,0,0,193.88,164.07Z"/><path class="cls-5" d="M199.17,144.14a21,21,0,0,0-12.78,4.07v6.38c3.08-4.2,25.83-5.25,29.12-2.42C212.68,147.43,206.43,144.14,199.17,144.14Z"/><circle class="cls-5" cx="158.12" cy="172" r="7.49" transform="translate(-25.46 27.48) rotate(-9.2)"/><path class="cls-5" d="M136.49,151.73c3.29-2.84,26-1.78,29.12,2.41v-6.37a20.93,20.93,0,0,0-12.77-4.08C145.58,143.69,139.32,147,136.49,151.73Z"/><path class="cls-2" d="M190.32,216.5c-2.49-1-4.84-2.57-7.42-3.21s-5.57-.13-7.23,2.38h-.44c-1.67-2.51-4.67-3-7.24-2.38s-4.92,2.21-7.42,3.21a17.61,17.61,0,0,1-10.91.77c6.21,9.12,16.18,14.1,25.79,12.92,9.6,1.18,19.57-3.8,25.79-12.92A17.64,17.64,0,0,1,190.32,216.5Z"/><path class="cls-5" d="M80.44,255.2c-1.08,1.66-2.08,3.32-3,5A10.77,10.77,0,0,0,80.44,255.2Z"/><path class="cls-5" d="M274.45,257.7c-.34-.86-.69-1.69-1-2.5A10.37,10.37,0,0,0,274.45,257.7Z"/><path class="cls-5" d="M282.92,239.75c-5.82-4.87-10.84-5.95-13.66-13,6.36,5.29,12.36-2.27,15-1-14.34-8.33-16.56-15-19.21-27.07-2.77-12.58.49-23.73-.13-36.6-.48-10,.4-26.26-5.66-33.59a15.72,15.72,0,0,1-3.68-9c-.55-8.43,4.28-10.79,6.36-19.1,1.36-5.44,4.36-18.51-19.62-34.27-6.24-4.1-17.46-8.21-24.85-9.32-16-2.39-24.77-5.4-40.21-1.08l-.33.11-.33-.11c-15.44-4.32-24.2-1.31-40.22,1.08-7.38,1.11-18.6,5.22-24.84,9.32-24,15.76-21,28.83-19.63,34.27,2.08,8.31,6.91,10.67,6.37,19.1a15.8,15.8,0,0,1-3.69,9c-6.06,7.33-5.18,23.6-5.66,33.59-.62,12.87,2.64,24-.13,36.6-2.65,12-4.87,18.74-19.2,27.07,2.63-1.27,8.64,6.29,15,1-2.83,7.05-7.84,8.13-13.67,13s-12.33,9.33-24.71,6.16c5,12.17,15.63,9.64,24.68,10.06l-5.32,7.17a11.89,11.89,0,0,0,11.89-2.95c.89-1.67,1.89-3.33,3-5a10.77,10.77,0,0,1-3,5c-8.64,16.09-7.79,32.35,18.79,48.06-.09-1.25-1.84-14.38-1.93-15.63,3.68,5.09,7.41,10.23,12.27,14.2s11.07,6.69,17.31,6.08a18.65,18.65,0,0,1-1.68-8.52,19.13,19.13,0,0,0,7.2,1.5,84.07,84.07,0,0,1-9-29.77l3.49,2c-5.4-24,7.83-49.34,2.2-73.29-4.38-18.63-16.72-27.94-13.23-46.76,2.65-14.28,30.23-24,44.67-23.83,5.55.08,12.5,2.62,18,1.33,5.49,1.29,15.1-1.25,20.66-1.33,14.44-.21,42,9.55,44.66,23.83,3.49,18.82-8.84,28.13-13.22,46.76-5.63,23.95,7.6,49.29,2.2,73.29l3.48-2a84.07,84.07,0,0,1-9,29.77,19.13,19.13,0,0,0,7.2-1.5,18.65,18.65,0,0,1-1.68,8.52c6.25.61,12.45-2.11,17.31-6.08s8.6-9.11,12.27-14.2c-.09,1.25.17,12.38.08,13.63,25-17.51,20.11-35.61,14.85-48.55a10.37,10.37,0,0,1-1-2.5c.34.81.69,1.64,1,2.5,2.65,4.61,8.73,7.22,13.83,5.44L283,256c9-.42,19.63,2.11,24.68-10.06C295.26,249.08,288.75,244.62,282.92,239.75Z"/><path class="cls-6" d="M239.89,106.64a24.9,24.9,0,0,0-8.68,1.53,25,25,0,0,0-8.69-1.53,26.32,26.32,0,0,0-5.25.54,30.21,30.21,0,0,0-15.47-4,32.21,32.21,0,0,0-8.77,1.2,35.65,35.65,0,0,0-28.83.19,32.32,32.32,0,0,0-9.46-1.39,30.11,30.11,0,0,0-15.6,4.13,25.57,25.57,0,0,0-5.69-.63,24.68,24.68,0,0,0-9.24,1.74,24.68,24.68,0,0,0-9.24-1.74c-10.5,0-19,6.17-19,13.75s8.54,13.75,19,13.75a24.68,24.68,0,0,0,9.24-1.74,24.68,24.68,0,0,0,9.24,1.74,26.18,26.18,0,0,0,5.69-.62,30.21,30.21,0,0,0,15.6,4.12,32,32,0,0,0,9.46-1.39,35.71,35.71,0,0,0,28.83.2,32.6,32.6,0,0,0,8.77,1.19,30.21,30.21,0,0,0,15.47-4,25.6,25.6,0,0,0,5.25.54,25,25,0,0,0,8.69-1.52,24.9,24.9,0,0,0,8.68,1.52c10.5,0,19-6.17,19-13.75S250.39,106.64,239.89,106.64ZM118.46,128.83a19.79,19.79,0,0,1-3.49.31c-7.41,0-13.44-3.92-13.44-8.75s6-8.75,13.44-8.75a19.79,19.79,0,0,1,3.49.31,10.84,10.84,0,0,0,0,16.88Zm5.75-2.1c-2.58-1.6-4.19-3.85-4.19-6.34s1.61-4.74,4.19-6.33c2.58,1.59,4.19,3.84,4.19,6.33S126.79,125.13,124.21,126.73Zm77.59-18.59a26,26,0,0,1,8.87,1.51,15,15,0,0,0-6,6.09,18,18,0,0,0-5.33-7.48C200.12,108.19,201,108.14,201.8,108.14Zm-23-1.75a30.43,30.43,0,0,1,7.34.9c-3.93,2.41-6.76,5.69-7.9,9.43a17.26,17.26,0,0,0-7.59-9.23A30,30,0,0,1,178.83,106.39Zm-24.09,1.75a26.88,26.88,0,0,1,3.51.23,16.53,16.53,0,0,0-5.92,10.33c-.61-3.58-3.12-6.74-6.78-8.92A25.75,25.75,0,0,1,154.74,108.14Zm-14.53,19.8a9.18,9.18,0,0,1,0-15.1c4,1.52,6.68,4.33,6.68,7.55S144.2,126.42,140.21,127.94Zm14.53,4.7a26,26,0,0,1-9.19-1.63c3.66-2.19,6.17-5.35,6.78-8.92a16.55,16.55,0,0,0,5.92,10.33A28.76,28.76,0,0,1,154.74,132.64Zm9.94-1.93c-4.2-2.56-6.86-6.23-6.86-10.32s2.66-7.75,6.86-10.31c5.13,2.18,8.55,6,8.55,10.31S169.81,128.53,164.68,130.71Zm14.15,3.68a30,30,0,0,1-8.15-1.1,17.22,17.22,0,0,0,7.59-9.23,17.35,17.35,0,0,0,7.9,9.43A30.43,30.43,0,0,1,178.83,134.39Zm13.7-3.41c-5.5-2.13-9.22-6.07-9.22-10.59s3.72-8.46,9.22-10.59c4.47,2.57,7.31,6.36,7.31,10.59S197,128.41,192.53,131Zm9.27,1.66c-.85,0-1.68,0-2.5-.12a17.94,17.94,0,0,0,5.33-7.48,15,15,0,0,0,6,6.1A26,26,0,0,1,201.8,132.64Zm14.35-4.54c-4.2-1.49-7.06-4.38-7.06-7.71s2.86-6.22,7.06-7.7c2.58,2.1,4.13,4.78,4.13,7.7S218.73,126,216.15,128.1Zm15.06-1c-2.91-1.61-4.76-4-4.76-6.67s1.85-5.06,4.76-6.67c2.9,1.61,4.75,4,4.75,6.67S234.11,125.45,231.21,127.06Zm8.68,2.08a18.84,18.84,0,0,1-2.52-.16,10.9,10.9,0,0,0,0-17.18,20.66,20.66,0,0,1,2.52-.16c7.41,0,13.44,3.93,13.44,8.75S247.3,129.14,239.89,129.14Z"/></svg>