<svg id="Layer_1" data-name="Layer 1" xmlns="http://www.w3.org/2000/svg" viewBox="0 0 352.44 352.44"><defs><style>.cls-1{fill:#00d2e2;}.cls-2{fill:#00acc1;}.cls-3{fill:#ffe7d7;}.cls-4{fill:#f2d4c0;}.cls-5{fill:#231f20;}.cls-6{fill:#dd2c00;}.cls-7{fill:#ff3d00;}</style></defs><circle class="cls-1" cx="176.22" cy="176.22" r="176.22"/><path class="cls-2" d="M176.36,0V352.43A176.22,176.22,0,0,0,176.36,0Z"/><ellipse class="cls-3" cx="177.5" cy="194.6" rx="85" ry="100.68"/><path class="cls-4" d="M177.5,93.92h-.64V295.27h.64c46.94,0,85-45.08,85-100.68S224.44,93.92,177.5,93.92Z"/><path class="cls-3" d="M92.57,176.09a13,13,0,1,0,12.65,13A12.85,12.85,0,0,0,92.57,176.09Z"/><path class="cls-4" d="M264.59,176.09a13,13,0,1,0,12.65,13A12.85,12.85,0,0,0,264.59,176.09Z"/><circle class="cls-5" cx="194.25" cy="199.66" r="7.49" transform="translate(-15.81 16.7) rotate(-4.73)"/><path class="cls-5" d="M158.5,192.61A7.49,7.49,0,1,0,166,200.1,7.49,7.49,0,0,0,158.5,192.61Z"/><path class="cls-6" d="M190.7,244.6c-2.5-1-4.85-2.58-7.42-3.22s-5.58-.13-7.24,2.38h-.44c-1.66-2.51-4.66-3-7.24-2.38s-4.92,2.22-7.41,3.22a17.64,17.64,0,0,1-10.92.76c6.21,9.13,16.19,14.11,25.79,12.93,9.6,1.18,19.58-3.8,25.79-12.93A17.6,17.6,0,0,1,190.7,244.6Z"/><path class="cls-6" d="M269.17,196.65a4.39,4.39,0,1,0,4.39,4.39A4.39,4.39,0,0,0,269.17,196.65Z"/><path class="cls-6" d="M273.56,209.81a4.39,4.39,0,1,0-6.07,4.05,4.39,4.39,0,1,0,3.37,0A4.41,4.41,0,0,0,273.56,209.81Z"/><path class="cls-6" d="M270.54,238.93a4.38,4.38,0,0,0,.32-8.21,4.39,4.39,0,1,0-3.37,0,4.38,4.38,0,0,0,.32,8.21,8.77,8.77,0,1,0,2.73,0Z"/><path class="cls-6" d="M88.53,196.65A4.39,4.39,0,1,0,92.92,201,4.39,4.39,0,0,0,88.53,196.65Z"/><path class="cls-6" d="M92.92,209.81a4.39,4.39,0,1,0-6.07,4.05,4.39,4.39,0,1,0,3.37,0A4.39,4.39,0,0,0,92.92,209.81Z"/><path class="cls-6" d="M89.9,238.93a4.38,4.38,0,0,0,.32-8.21,4.39,4.39,0,1,0-3.37,0,4.38,4.38,0,0,0,.32,8.21,8.77,8.77,0,1,0,2.73,0Z"/><path class="cls-5" d="M238.26,117.43c.53-9.77-7.17-17-14.29-21.36a93.58,93.58,0,0,0-23.31-10.72c-18.95-5.44-39.25-2.63-57.16,6.71s-33.46,25-45.24,44.06c-2.84,4.59-5.87,9.72-10.44,11,.79,2.91,1.59,5.82,2.38,8.73l-15.81-.06A21.39,21.39,0,0,1,81.7,167.5a31.45,31.45,0,0,1-29.64-4.29c6.2,6,12.56,12.07,20,15.15,7.89,3.24,16.42,2.9,24.72,2.31,28.29-2,57.22-6.65,82.22-23,6.55-4.29,12.78-9.36,19.58-13,7.29-3.94,15.15-6.22,22.22-10.73,5.06-3.23,10-7.68,15.7-7.67.16,6.64-1.59,13.81,1,19.63,4,8.89,20.94,29.26,25.56,37.67,1.84-9.38-3.83-40.16-7.09-48.94S246.06,118.66,238.26,117.43Z"/><path class="cls-7" d="M257.79,113H244.14a65.25,65.25,0,0,0-130.22,0H100.27A6.09,6.09,0,0,0,94.2,119v2.37a6.09,6.09,0,0,0,6.07,6.07H257.79a6.09,6.09,0,0,0,6.07-6.07V119A6.09,6.09,0,0,0,257.79,113Z"/><path class="cls-5" d="M225.57,176.16h-35a10.81,10.81,0,0,0-10.8,10.8v10.46h-6.32V187a10.81,10.81,0,0,0-10.8-10.8h-35A10.81,10.81,0,0,0,116.8,187v23.89a10.82,10.82,0,0,0,10.81,10.81h35a10.81,10.81,0,0,0,10.8-10.81v-8.76h6.32v8.76a10.81,10.81,0,0,0,10.8,10.81h35a10.82,10.82,0,0,0,10.81-10.81V187A10.81,10.81,0,0,0,225.57,176.16Zm-57,34.69a5.91,5.91,0,0,1-5.89,5.9h-35a5.91,5.91,0,0,1-5.9-5.9V187a5.91,5.91,0,0,1,5.9-5.89h35a5.91,5.91,0,0,1,5.89,5.89Zm62.95,0a5.92,5.92,0,0,1-5.9,5.9h-35a5.91,5.91,0,0,1-5.89-5.9V187a5.91,5.91,0,0,1,5.89-5.89h35a5.92,5.92,0,0,1,5.9,5.89Z"/></svg>