<svg id="Layer_1" data-name="Layer 1" xmlns="http://www.w3.org/2000/svg" viewBox="0 0 352.44 352.44"><defs><style>.cls-1{fill:#c2185b;}.cls-2{fill:#880e4f;}.cls-3{fill:#d89b79;}.cls-4{fill:#c18161;}.cls-5{fill:#8c513a;}.cls-6{fill:#ffe5c2;}.cls-7{fill:#231f20;}</style></defs><circle class="cls-1" cx="176.22" cy="176.22" r="176.22" transform="translate(-72.99 176.22) rotate(-45)"/><path class="cls-2" d="M176.36,0V352.43A176.22,176.22,0,0,0,176.36,0Z"/><ellipse class="cls-3" cx="177.81" cy="188.2" rx="85" ry="100.68"/><path class="cls-4" d="M177.81,87.51h-.64V288.87h.64c46.94,0,85-45.08,85-100.68S224.75,87.51,177.81,87.51Z"/><path class="cls-5" d="M178,248.49a28.7,28.7,0,0,0,28.57-28.34H149.43A28.7,28.7,0,0,0,178,248.49Z"/><path class="cls-6" d="M176.22,81.27c-53.23,0-96.38,49-96.38,109.41a123.11,123.11,0,0,0,3.54,29.47h28.2V156.53a31.09,31.09,0,0,1,31-31h67.29a31.08,31.08,0,0,1,31,31v63.62h28.21a123.62,123.62,0,0,0,3.54-29.47C272.6,130.26,229.45,81.27,176.22,81.27Z"/><path class="cls-7" d="M161.71,176.24a7.49,7.49,0,1,0,7.49,7.49A7.49,7.49,0,0,0,161.71,176.24Z"/><circle class="cls-7" cx="194.29" cy="183.73" r="7.49" transform="translate(-12.54 14.24) rotate(-4.07)"/><rect class="cls-7" x="143.14" y="156.41" width="26.06" height="4.55"/><rect class="cls-7" x="186.8" y="156.41" width="26.06" height="4.55"/></svg>