<svg id="Layer_1" data-name="Layer 1" xmlns="http://www.w3.org/2000/svg" viewBox="0 0 352.44 352.44"><defs><style>.cls-1{fill:#b39ddb;}.cls-2{fill:#9575cd;}.cls-3{fill:#ffccbc;}.cls-4{fill:#efac9a;}.cls-5{fill:#b76b5c;}.cls-6{fill:#231f20;}.cls-7{fill:#682319;}</style></defs><circle class="cls-1" cx="176.22" cy="176.22" r="176.22"/><path class="cls-2" d="M176.36,0V352.43A176.22,176.22,0,0,0,176.36,0Z"/><ellipse class="cls-3" cx="177.6" cy="205.52" rx="85" ry="100.68"/><path class="cls-4" d="M177.6,104.84H177V306.19h.64c46.94,0,85-45.08,85-100.68S224.54,104.84,177.6,104.84Z"/><path class="cls-5" d="M177.79,265.81a28.71,28.71,0,0,0,28.58-28.33H149.22A28.7,28.7,0,0,0,177.79,265.81Z"/><path class="cls-6" d="M161.5,193.56a7.49,7.49,0,1,0,7.49,7.49A7.49,7.49,0,0,0,161.5,193.56Z"/><path class="cls-6" d="M194.08,193.56a7.49,7.49,0,1,0,7.49,7.49A7.48,7.48,0,0,0,194.08,193.56Z"/><rect class="cls-7" x="142.93" y="173.73" width="26.06" height="4.55"/><rect class="cls-7" x="186.6" y="173.73" width="26.06" height="4.55"/><path class="cls-3" d="M92.23,186.5a13,13,0,1,0,12.65,13A12.85,12.85,0,0,0,92.23,186.5Z"/><path class="cls-4" d="M261.47,186.5a13,13,0,1,0,12.65,13A12.85,12.85,0,0,0,261.47,186.5Z"/><path class="cls-7" d="M224.55,248.48A7.63,7.63,0,0,1,220,243.6a29.51,29.51,0,0,1-1.17-6.82c-.69-6.39-2.67-13.23-7.94-16.91-4-2.78-9.12-3.22-14-3.11a77.55,77.55,0,0,0-11.18,1.11,55.93,55.93,0,0,0-8.51,1.89,55.93,55.93,0,0,0-8.51-1.89,77.55,77.55,0,0,0-11.18-1.11c-4.85-.11-10,.33-14,3.11-5.27,3.68-7.25,10.52-7.94,16.91a29,29,0,0,1-1.17,6.82,7.63,7.63,0,0,1-4.57,4.88c-2.21.67-5-.46-5.6-2.69-1.8,3.74.74,8.68,4.69,10s8.52-.79,10.76-4.28,2.4-7.69,4.26-11.26c2.1-4,6.18-6.79,10.54-8.09a36.31,36.31,0,0,1,13.55-.88c2.55.23,6.37.93,9.14.33,2.78.6,6.59-.1,9.14-.33a36.31,36.31,0,0,1,13.55.88c4.36,1.3,8.44,4.06,10.54,8.09,1.86,3.57,2.08,7.88,4.26,11.26s6.81,5.55,10.76,4.28,6.49-6.21,4.69-10C229.56,248,226.76,249.15,224.55,248.48Z"/><path class="cls-7" d="M272.82,107.26a46.51,46.51,0,0,0-.77-29.15A26.15,26.15,0,0,1,253,101.44a28.28,28.28,0,0,0,4-11.63,34,34,0,0,1-12.72,5c11.39-14.15,12.1-35.91,1.64-50.77a32.75,32.75,0,0,1-15.43,18.37L226,54.68a25.79,25.79,0,0,1-19.24,14.71c12.71-3.41,7.9-18.58.69-24.47-.88,6.14-3.4,13.51-8.47,16.51s-10.12,3.8-15,1.8a8.26,8.26,0,0,0,4.95-6c-8.62,2.23-16.36-5.51-24.89-8.08-10.3-3.11-21.81,1.93-28.74,10.17s-10,19.08-11.33,29.76c-.66,5.15-.14,11.76,4.72,13.58-3.61-1.34-7.67,1-10,4.06s-3.46,6.87-5.39,10.21-5.08,6.44-8.94,6.46c-4.8,0-8.53-5.63-6.94-10.16s7.59-6.7,11.89-4.56c-8.49-6.23-24.18-1.86-29.25,7.36s-.65,21.26,5.13,30.06a9.33,9.33,0,0,1-6.92-9.1c-3.61,5.76-2.55,13.61,1.28,19.23s10,9.27,16.34,11.68c5,1.88,10.37,3.12,15.56,2s10.08-4.92,11.07-10.13c8.5,1.21,16-6.54,18.43-14.78s1.41-17,2.06-25.62c5.72-1.62,11.93.46,16.88,3.78s9,7.78,13.51,11.65a69.51,69.51,0,0,0,17.54,11c5.08,2.2,10.58,3.81,16.08,3.27s11-3.55,13.35-8.56a20.41,20.41,0,0,0,15.74,13.62c4,9.06,9.72,18.5,19.15,21.51,8.75,2.81,18.66-1,25-7.7s9.44-15.78,11-24.83a88.35,88.35,0,0,0-6.4-50.68A24.27,24.27,0,0,1,272.82,107.26Z"/></svg>