<svg id="Layer_1" data-name="Layer 1" xmlns="http://www.w3.org/2000/svg" viewBox="0 0 352.44 352.44"><defs><style>.cls-1{fill:#ffab00;}.cls-2{fill:#ff8f00;}.cls-3{fill:#d89b79;}.cls-4{fill:#c18161;}.cls-5{fill:#231f20;}.cls-6{fill:#880e4f;}.cls-7{fill:#dd2c00;}.cls-8{fill:#fff;}</style></defs><circle class="cls-1" cx="176.22" cy="176.22" r="176.22" transform="translate(-72.99 176.22) rotate(-45)"/><path class="cls-2" d="M176.36,0V352.43A176.22,176.22,0,0,0,176.36,0Z"/><ellipse class="cls-3" cx="177.21" cy="195.9" rx="85" ry="100.68"/><path class="cls-4" d="M177.21,95.22h-.64V296.57h.64c46.94,0,85-45.07,85-100.68S224.15,95.22,177.21,95.22Z"/><circle class="cls-5" cx="194.34" cy="195.26" r="7.49"/><path class="cls-5" d="M199.63,167.83a21,21,0,0,0-12.78,4.08v6.38c3.07-4.2,25.83-5.25,29.12-2.42C213.14,171.13,206.89,167.83,199.63,167.83Z"/><path class="cls-5" d="M158.58,188.21a7.49,7.49,0,1,0,7.49,7.49A7.5,7.5,0,0,0,158.58,188.21Z"/><path class="cls-5" d="M137,175.43c3.29-2.84,26.05-1.78,29.12,2.41v-6.37a21,21,0,0,0-12.78-4.08C146,167.39,139.78,170.69,137,175.43Z"/><path class="cls-6" d="M190.78,240.2c-2.5-1-4.85-2.57-7.42-3.22s-5.57-.12-7.23,2.39h-.45c-1.66-2.51-4.66-3-7.23-2.39s-4.93,2.22-7.42,3.22a17.56,17.56,0,0,1-10.92.76c6.22,9.13,16.19,14.11,25.79,12.93,9.61,1.18,19.58-3.8,25.79-12.93A17.53,17.53,0,0,1,190.78,240.2Z"/><path class="cls-5" d="M280,109.48a42.6,42.6,0,0,0-.84-29.15c-.6,10.74-9.48,20.66-20.88,23.32A26.37,26.37,0,0,0,262.62,92a39.09,39.09,0,0,1-13.92,5C261.18,82.86,262,61.1,250.5,46.24A33.64,33.64,0,0,1,233.61,64.6l-5-7.7c-3.75,7.69-12,13.42-21.06,14.71,13.91-3.41,8.65-18.59.75-24.47-1,6.14-3.71,13.5-9.27,16.51s-11.08,3.79-16.42,1.8a8.52,8.52,0,0,0,5.43-6c-9.44,2.24-17.91-5.51-27.25-8.08-11.28-3.1-23.88,1.94-31.47,10.18S118.47,80.66,117,91.34c-.73,5.15-.16,11.76,5.17,13.58-4-1.34-8.4,1-10.93,4.06s-3.79,6.87-5.89,10.21-5.58,6.44-9.79,6.46c-5.26,0-9.34-5.63-7.6-10.16s8.31-6.7,13-4.56c-9.29-6.23-26.47-1.86-32,7.36-5.31,8.84-1.09,20.25,4.84,28.93,5.86,4.69,11.52,10.13,15.19,16.65,9.42-6.35,19.94-10.75,30.27-15.67,5.91-2.81,11.61-6.17,17.4-9.31l.6-.46c.46-5.54.15-11.2.61-16.76,6.27-1.62,13.07.46,18.48,3.78.39.23.76.49,1.13.74a31,31,0,0,1,6.48-1.72,43,43,0,0,1,14.18.6c9.15,1.67,18.08,5.3,26.28,9.63a131.85,131.85,0,0,1,11.59,7c1.93-1.94,4.77-2.07,7.26-.91,11.57,5.4,21.5,13.69,30.07,23.07A126.45,126.45,0,0,1,264,177.58c8.76-3.87,18.22-30.16,23.63-36.29,12.82-14.5,13.16-30.85,5.43-46.62A24.82,24.82,0,0,1,280,109.48Z"/><path class="cls-7" d="M184,113.32c12.23,0,31.45.65,39.21-21.95-12.28-5.57-36.3,2-43.43,13.44-6.22-9.38-28.89-20.1-39.88-22.55-8.1,27.66,8.09,32.39,20.06,34.57C110.21,120,74.05,146.37,73.1,148c-.7,1.23,11.63,28.3,19.34,35.22a211.84,211.84,0,0,1,73.05-44.77c3.79-1.36,7.75-2.63,11.76-2.28s7.79,2.34,11.39,4.29l36.27,19.65c13.29,7.2,26.79,14.55,37.44,25.28l12.58-8.67c2.07-1.43,4.2-2.92,5.5-5.07a18.12,18.12,0,0,0,1.94-6.23c1.4-7.58,3.15-15.49,8.2-21.32-14.44-5-27.09-14.16-41.19-20C228.88,115.52,206.19,114.11,184,113.32Z"/><path class="cls-8" d="M213.42,114.31a5.74,5.74,0,1,0,5.73,5.73A5.74,5.74,0,0,0,213.42,114.31Z"/><path class="cls-8" d="M84.48,139.88a105.14,105.14,0,0,0-9.15,5.94,5.73,5.73,0,1,0,9.15-5.94Z"/><path class="cls-8" d="M81.54,158.49a5.71,5.71,0,0,0-3.61,1.28c1.54,3.19,3.33,6.66,5.2,10a5.73,5.73,0,0,0-1.59-11.24Z"/><circle class="cls-8" cx="100.09" cy="153.77" r="5.73"/><path class="cls-8" d="M114.8,125.9c-2.92,1-5.71,2.1-8.37,3.18a6,6,0,0,0-.27,1.76,5.74,5.74,0,1,0,8.64-4.94Z"/><path class="cls-8" d="M124.71,146.69a5.73,5.73,0,0,0-.19,11.46c1.77-1.12,3.56-2.2,5.36-3.26a5.67,5.67,0,0,0,.56-2.47A5.73,5.73,0,0,0,124.71,146.69Z"/><path class="cls-8" d="M95.36,177.38a5.57,5.57,0,0,0,.53,2.38q4.1-3.69,8.39-7.15a5.68,5.68,0,0,0-3.18-1A5.74,5.74,0,0,0,95.36,177.38Z"/><path class="cls-8" d="M136.18,128.81a5.74,5.74,0,1,0,5.73,5.74A5.74,5.74,0,0,0,136.18,128.81Z"/><path class="cls-8" d="M159.45,134.88a5.73,5.73,0,0,0-5.73,5.74,5.66,5.66,0,0,0,.37,2q5.28-2.25,10.66-4.21A5.74,5.74,0,0,0,159.45,134.88Z"/><path class="cls-8" d="M149.68,113.67a35.36,35.36,0,0,0,4.65,1.58,5.7,5.7,0,0,0-4-1.62C150.12,113.63,149.9,113.65,149.68,113.67Z"/><path class="cls-8" d="M144.73,118.22a5.4,5.4,0,0,0-.12,1.15,5.74,5.74,0,1,0,10.88-2.53C151.82,117.18,148.23,117.65,144.73,118.22Z"/><path class="cls-8" d="M146,88a5.73,5.73,0,0,0,11.44.47c-3.44-1.65-6.87-3.1-10-4.25A5.69,5.69,0,0,0,146,88Z"/><path class="cls-8" d="M163.5,98.12a5.74,5.74,0,1,0,5.73,5.73A5.74,5.74,0,0,0,163.5,98.12Z"/><path class="cls-8" d="M175.3,118a5.74,5.74,0,1,0,5.74,5.73A5.74,5.74,0,0,0,175.3,118Z"/><path class="cls-8" d="M193.37,93.74a47.14,47.14,0,0,0-5.08,2.74,5.73,5.73,0,1,0,5.08-2.74Z"/><path class="cls-8" d="M211.06,99.47a5.73,5.73,0,0,0-3.67,10.14,26.83,26.83,0,0,0,9-6.53A5.72,5.72,0,0,0,211.06,99.47Z"/><path class="cls-8" d="M195.2,129.49a5.73,5.73,0,1,0,5.74,5.73A5.73,5.73,0,0,0,195.2,129.49Z"/><path class="cls-8" d="M220.5,133.2a5.73,5.73,0,1,0,5.73,5.73A5.72,5.72,0,0,0,220.5,133.2Z"/><path class="cls-8" d="M234.28,118.73a5.73,5.73,0,1,0,9.83,4,6,6,0,0,0-.1-1C240.81,120.55,237.56,119.58,234.28,118.73Z"/><path class="cls-8" d="M243.77,137.24a5.74,5.74,0,1,0,5.74,5.74A5.74,5.74,0,0,0,243.77,137.24Z"/><path class="cls-8" d="M230,154.78a5.73,5.73,0,0,0-5.64,4.71l.6.32c3,1.62,6,3.24,8.93,4.9a5.68,5.68,0,0,0,1.84-4.19A5.74,5.74,0,0,0,230,154.78Z"/><path class="cls-8" d="M261.66,129.68a5.73,5.73,0,1,0,8.76,4.87c0-.05,0-.1,0-.14C267.5,132.83,264.59,131.23,261.66,129.68Z"/><path class="cls-8" d="M259.29,153.77a5.74,5.74,0,1,0,5.73,5.74A5.73,5.73,0,0,0,259.29,153.77Z"/><path class="cls-8" d="M279.53,150.06a5.73,5.73,0,0,0,5,5.68,34,34,0,0,1,4.55-10,5.66,5.66,0,0,0-3.79-1.44A5.72,5.72,0,0,0,279.53,150.06Z"/><path class="cls-8" d="M266.71,175.36a5.72,5.72,0,0,0-4.2,9.62l9.33-6.43A5.71,5.71,0,0,0,266.71,175.36Z"/><ellipse class="cls-3" cx="94.19" cy="199.49" rx="12.65" ry="13.03"/><ellipse class="cls-4" cx="263.42" cy="199.49" rx="12.65" ry="13.03"/><circle class="cls-8" cx="87.94" cy="211.45" r="8.1" transform="translate(-141.06 212.25) rotate(-67.62)"/><circle class="cls-8" cx="266.04" cy="209.09" r="8.1" transform="translate(-28.94 374.86) rotate(-67.5)"/></svg>