<svg id="Layer_1" data-name="Layer 1" xmlns="http://www.w3.org/2000/svg" viewBox="0 0 352.44 352.44"><defs><style>.cls-1{fill:#6c53d3;}.cls-2{fill:#512da8;}.cls-3{fill:#ffccbc;}.cls-4{fill:#efac9a;}.cls-5{fill:#b76b5c;}.cls-6{fill:#231f20;}.cls-7{fill:#e64a19;}</style></defs><circle class="cls-1" cx="176.22" cy="176.22" r="176.22"/><path class="cls-2" d="M176.36,0V352.43A176.22,176.22,0,0,0,176.36,0Z"/><ellipse class="cls-3" cx="176.97" cy="188.04" rx="85" ry="100.68"/><path class="cls-4" d="M177,87.36h-.65V288.72H177c46.94,0,85-45.08,85-100.69S223.91,87.36,177,87.36Z"/><path class="cls-5" d="M177.16,248.34A28.7,28.7,0,0,0,205.73,220H148.59A28.7,28.7,0,0,0,177.16,248.34Z"/><circle class="cls-6" cx="160.87" cy="183.58" r="7.49"/><path class="cls-6" d="M193.45,176.09a7.49,7.49,0,1,0,7.49,7.49A7.49,7.49,0,0,0,193.45,176.09Z"/><rect class="cls-7" x="142.3" y="156.25" width="26.06" height="4.55"/><rect class="cls-7" x="185.96" y="156.25" width="26.06" height="4.55"/><path class="cls-3" d="M91.6,169a13,13,0,1,0,12.65,13A12.84,12.84,0,0,0,91.6,169Z"/><path class="cls-4" d="M260.84,169a13,13,0,1,0,12.64,13A12.84,12.84,0,0,0,260.84,169Z"/><path class="cls-7" d="M201.34,30.83c-2.24-6-8.87-9.33-15.23-10.29a20.84,20.84,0,0,0-10.52.76c-4.24,1.61-7.53,5.13-9.78,9.07-4.1,7.2-5,15.78-5,24.06s1,16.59.28,24.85a44.5,44.5,0,0,0-.37,7.82A24.89,24.89,0,0,0,165,98c2,3.14,4.62,6.27,8.26,7.06,4.81,1,9.63-2.53,11.8-6.94,2.43-4.93,2.39-10.75,1.34-16.14s-3-10.56-4.33-15.9a66,66,0,0,1-1.88-18.15c.13-3.82.72-7.91,3.3-10.73s7.77-3.46,10-.37a8,8,0,0,1,1.23,3.36c.62,3.66.13,7.41.43,11.11s1.6,7.64,4.74,9.62C195.8,51.51,204.88,40.41,201.34,30.83Z"/><path class="cls-7" d="M170.19,202.88c-5.68-2.57-12.33-2.49-18.29-.65a46.37,46.37,0,0,0-16,9.4,27.88,27.88,0,0,0-7.3,8.6c-2.68,5.44-2.28,11.89-1,17.83,3.29,15.63,11.85,29.56,18,44.29,1.45,3.48,2.77,7.49,1.14,10.89a4.88,4.88,0,0,1-4,3c-1.75.05-3.51-1.58-3.18-3.3-1.76,2.18-.79,5.8,1.6,7.26a7.37,7.37,0,0,0,7.91-.62,13.26,13.26,0,0,0,4.59-6.89c3.11-9.61-.5-19.95-3.71-29.54-4.58-13.71-8.41-28.45-5-42.5.5-2,1.32-4.24,3.19-5.2,1.68-.86,3.69-.45,5.55-.12a54.76,54.76,0,0,0,14.06.71c3.15-.24,6.8-1.15,8-4.07C177.21,208.31,173.76,204.5,170.19,202.88Z"/><path class="cls-7" d="M217.43,211.29a46.51,46.51,0,0,0-16-9.39c-5.95-1.84-12.6-1.92-18.29.65-3.57,1.61-7,5.43-5.52,9,1.21,2.92,4.86,3.82,8,4.07a54.76,54.76,0,0,0,14.06-.71c1.86-.34,3.88-.75,5.56.11,1.87,1,2.68,3.17,3.18,5.21,3.45,14-.39,28.78-5,42.5-3.2,9.58-6.81,19.92-3.7,29.54a13.24,13.24,0,0,0,4.58,6.88,7.37,7.37,0,0,0,7.92.63c2.39-1.47,3.36-5.08,1.59-7.26.33,1.72-1.42,3.35-3.17,3.3a4.9,4.9,0,0,1-4-3c-1.62-3.39-.31-7.41,1.14-10.88,6.17-14.74,14.73-28.66,18-44.3,1.25-5.93,1.65-12.38-1-17.82A28.2,28.2,0,0,0,217.43,211.29Z"/></svg>