<svg id="Layer_1" data-name="Layer 1" xmlns="http://www.w3.org/2000/svg" viewBox="0 0 352.44 352.44"><defs><style>.cls-1{fill:#00aeb7;}.cls-2{fill:#00838f;}.cls-3{fill:#f2d4c0;}.cls-4{fill:#d89b79;}.cls-5{fill:#c18161;}.cls-6{fill:#231f20;}.cls-7{fill:#d81b60;}.cls-8{fill:#edd0ae;}.cls-9{fill:#ffe5c2;}</style></defs><circle class="cls-1" cx="176.22" cy="176.22" r="176.22"/><path class="cls-2" d="M176.36,0V352.43A176.22,176.22,0,0,0,176.36,0Z"/><path class="cls-3" d="M263.45,168.75a13,13,0,1,0,12.65,13A12.84,12.84,0,0,0,263.45,168.75Z"/><ellipse class="cls-4" cx="176.36" cy="176.26" rx="85" ry="100.68"/><path class="cls-5" d="M176.36,75.57h-.64V276.93h.64c46.94,0,85-45.08,85-100.68S223.3,75.57,176.36,75.57Z"/><path class="cls-4" d="M91.43,157.75a13,13,0,1,0,12.65,13A12.84,12.84,0,0,0,91.43,157.75Z"/><path class="cls-6" d="M193.12,173.82a7.49,7.49,0,1,0,7.48,7.49A7.49,7.49,0,0,0,193.12,173.82Z"/><path class="cls-6" d="M198.4,153.89A21,21,0,0,0,185.63,158v6.37c3.07-4.2,25.83-5.25,29.12-2.42C211.92,157.18,205.67,153.89,198.4,153.89Z"/><circle class="cls-6" cx="157.36" cy="181.75" r="7.49"/><path class="cls-6" d="M135.73,161.48c3.29-2.83,26.05-1.78,29.12,2.42v-6.38a21,21,0,0,0-12.78-4.08C144.81,153.44,138.56,156.74,135.73,161.48Z"/><path class="cls-7" d="M189.56,226.26c-2.5-1-4.85-2.58-7.42-3.22s-5.57-.13-7.24,2.38h-.44c-1.66-2.51-4.66-3-7.23-2.38s-4.93,2.21-7.42,3.22a17.64,17.64,0,0,1-10.92.76c6.22,9.12,16.19,14.1,25.79,12.92,9.61,1.18,19.58-3.8,25.79-12.92A17.6,17.6,0,0,1,189.56,226.26Z"/><path class="cls-8" d="M142.11,85.48A7.5,7.5,0,0,0,138.7,84a7.12,7.12,0,0,0-4.16,1.45,89.82,89.82,0,0,0-41.47,67.67c-.08,1-.53,4.52-.53,4.52s3.66.33,6.8,9.78c3.65,11,2.86,18.72,3.53,26.38.17-6.38.82-9.61,1-16,.22-8,.06-11.21,3.06-18.64s9.37-14,17.33-15c-2.88-10,1.77-21.13,9.53-28.1s18.11-10.36,28.4-12.08C157.64,96,149.74,90.6,142.11,85.48Z"/><path class="cls-9" d="M252.23,293.75a17.36,17.36,0,0,0,.65-2.27A17.82,17.82,0,0,0,252.23,293.75Z"/><path class="cls-9" d="M254.52,80.22a17.17,17.17,0,0,1,10.35,3.71C251,53.76,216.19,34.74,183.32,39.37a9.52,9.52,0,0,1,10.07-4.77A53.94,53.94,0,0,0,144,47.5c-7,6.63-12.3,16.08-10.8,25.6.8,5.09,3.46,9.7,6.44,13.91,5.65,7.95,12.6,14.89,19.92,21.34,5.47,4.81,11.28,9.44,18.07,12.06,5.17,2,10.76,2.76,15.85,4.93C204.68,130.1,212,140.84,218.6,151a83.06,83.06,0,0,0-15-38.36c18,15.91,26.56,41.72,21.69,65.23a12.77,12.77,0,0,0,5-9.54,214.85,214.85,0,0,1-18.57,91.18,20.63,20.63,0,0,0,9.89-15.17c-1.12,16.36-8.76,31.85-19.51,44.25s-24.48,21.89-38.92,29.67a108.06,108.06,0,0,0,34.36-1.78c9-1.94,18.91-6,22.14-14.71a21.7,21.7,0,0,1-6.57,10.66c8.09-.44,16.35-.93,23.87-3.95,6.78-2.73,12.94-7.94,15.3-14.76a17.82,17.82,0,0,1,.65-2.27,17.36,17.36,0,0,1-.65,2.27,18.25,18.25,0,0,0-.14,6.87c12-13,10.13-33.18,7.54-50.69a49.64,49.64,0,0,0,7.2,7.92c-4.26-22.05,9-43.13,15.92-64.5a116.86,116.86,0,0,0-4-81.61C273.37,99.43,265.6,87.8,254.52,80.22Z"/></svg>