<svg id="Layer_1" data-name="Layer 1" xmlns="http://www.w3.org/2000/svg" viewBox="0 0 352.44 352.44"><defs><style>.cls-1{fill:#ffccbc;}.cls-2{fill:#ffab91;}.cls-3{fill:#d89b79;}.cls-4{fill:#c18161;}.cls-5{fill:#8c513a;}.cls-6{fill:#682319;}.cls-7{fill:#231f20;}.cls-8{fill:#a35952;}</style></defs><circle class="cls-1" cx="176.22" cy="176.22" r="176.22"/><path class="cls-2" d="M176.36,0V352.43A176.22,176.22,0,0,0,176.36,0Z"/><ellipse class="cls-3" cx="179.34" cy="179.89" rx="85" ry="100.68"/><path class="cls-4" d="M179.34,79.21h-.64V280.56h.64c46.94,0,85-45.08,85-100.68S226.28,79.21,179.34,79.21Z"/><path class="cls-5" d="M179.53,240.18a28.69,28.69,0,0,0,28.57-28.33H151A28.7,28.7,0,0,0,179.53,240.18Z"/><path class="cls-3" d="M94,160.87a13,13,0,1,0,12.65,13A12.85,12.85,0,0,0,94,160.87Z"/><ellipse class="cls-4" cx="263.21" cy="173.9" rx="12.65" ry="13.03"/><path class="cls-6" d="M199.85,192.07H160.38a19.2,19.2,0,0,0-19.14,19.15v62.56a19.19,19.19,0,0,0,19.14,19.14h39.47A19.2,19.2,0,0,0,219,273.78V211.22A19.21,19.21,0,0,0,199.85,192.07Zm13.82,45.79A19.19,19.19,0,0,1,194.53,257H165.69a19.2,19.2,0,0,1-19.14-19.14V215.94a19.2,19.2,0,0,1,19.14-19.14h28.84a19.19,19.19,0,0,1,19.14,19.14Z"/><path class="cls-7" d="M163.12,167.73a7.49,7.49,0,1,0,7.49,7.49A7.49,7.49,0,0,0,163.12,167.73Z"/><path class="cls-7" d="M195.7,167.73a7.49,7.49,0,1,0,7.49,7.49A7.48,7.48,0,0,0,195.7,167.73Z"/><rect class="cls-7" x="144.55" y="147.89" width="26.06" height="4.55"/><rect class="cls-7" x="188.22" y="147.89" width="26.06" height="4.55"/><path class="cls-8" d="M179,78.39c-25.86.51-50.45,14.88-65.32,36.05-10.06,14.31-19.8,38.47-19.67,46.44,3.79.25,8.6,2.78,9.74,6.2,3.11,9.33,1.33,19.52.76,29.34,4.17.76,7.71.38,11.91.33-2.14-15-4.29-30.19-2.22-45.19s9-30,21.48-38.48A49.66,49.66,0,0,1,157,105.37c7.66-1,16.69.87,21.91,6.56C179.16,99.48,178.88,88.44,179,78.39Z"/><path class="cls-6" d="M280.81,143c-4.33-2.46-7.73-6.24-11-10a11.39,11.39,0,0,0,7.44,1.26c-6.9-5.41-9.86-14.36-15.28-21.25-7.13-9.09-18.09-14.15-28.63-18.88a16.33,16.33,0,0,1,12.58,1,53.14,53.14,0,0,0-22.26-17.46,78,78,0,0,0-27.85-5.93,18.33,18.33,0,0,0-5.68.41c-2.72.75-6.3,1.35-8.49,3.13a13.8,13.8,0,0,0-2.65,3s-.72,25-.38,33.64c4.72-2.67,11.94-3.91,16.85-1.6,9.19,4.34,13.47,16.25,23.17,19.31l-.33-7.93c2.27,7,6.62,13.07,10.9,19,2.95,4.11,6,8.28,10,11.3,6.22,4.61,14.18,6,21.81,7.26l-5.62-5.43a42.61,42.61,0,0,0,30.62-2.25c3.56-1.7,7-4,9.05-7.35C290.61,146.39,285.14,145.44,280.81,143Z"/></svg>