<svg id="Layer_1" data-name="Layer 1" xmlns="http://www.w3.org/2000/svg" viewBox="0 0 352.44 352.44"><defs><style>.cls-1{fill:#ffab91;}.cls-2{fill:#ff7043;}.cls-3{fill:#ffe7d7;}.cls-4{fill:#f2d4c0;}.cls-5{fill:#231f20;}.cls-6{fill:#7f5e5b;}.cls-7{fill:#880e4f;}</style></defs><circle class="cls-1" cx="176.22" cy="176.22" r="176.22"/><path class="cls-2" d="M176.36,0V352.43A176.22,176.22,0,0,0,176.36,0Z"/><ellipse class="cls-3" cx="176.92" cy="201.6" rx="85" ry="100.68"/><path class="cls-4" d="M176.92,100.92h-.64V302.28h.64c47,0,85-45.08,85-100.69S223.87,100.92,176.92,100.92Z"/><path class="cls-5" d="M194.05,199a7.49,7.49,0,1,0,7.49,7.49A7.48,7.48,0,0,0,194.05,199Z"/><path class="cls-6" d="M199.34,179.1a20.93,20.93,0,0,0-12.77,4.08v6.37c3.07-4.19,25.82-5.25,29.12-2.41C212.85,182.4,206.6,179.1,199.34,179.1Z"/><path class="cls-5" d="M158.3,199.48a7.49,7.49,0,1,0,7.48,7.49A7.49,7.49,0,0,0,158.3,199.48Z"/><path class="cls-6" d="M136.67,186.69c3.29-2.83,26-1.78,29.11,2.42v-6.37A20.93,20.93,0,0,0,153,178.66C145.75,178.66,139.5,182,136.67,186.69Z"/><path class="cls-7" d="M190.49,251.47c-2.49-1-4.84-2.58-7.41-3.22s-5.58-.12-7.24,2.38h-.44c-1.66-2.5-4.66-3-7.24-2.38s-4.92,2.22-7.42,3.22a17.53,17.53,0,0,1-10.91.76c6.21,9.13,16.19,14.11,25.79,12.93,9.6,1.18,19.58-3.8,25.79-12.93A17.57,17.57,0,0,1,190.49,251.47Z"/><path class="cls-3" d="M89.45,197.35a13,13,0,1,0,12.65,13A12.84,12.84,0,0,0,89.45,197.35Z"/><path class="cls-4" d="M263.45,197.35a13,13,0,1,0,12.65,13A12.84,12.84,0,0,0,263.45,197.35Z"/><path class="cls-6" d="M207.77,160.76a10.5,10.5,0,0,0,.22,1.87A2.22,2.22,0,0,0,207.77,160.76Z"/><path class="cls-6" d="M244.64,177a1.47,1.47,0,0,0,0,.21,10.82,10.82,0,0,0,3.58-1.44C247.49,174.17,244.76,175.25,244.64,177Z"/><path class="cls-6" d="M278.17,136.09c.62-3.23,1.22-6.61.24-9.75s-4.12-5.86-7.34-5.19a5.12,5.12,0,1,0-6.46-7.72c1.95-6.74-4.38-14.45-11.38-13.84,2.53-3-.25-8.55-4.17-8.33.74-3,1.37-6.19.38-9.11s-4.17-5.31-7.1-4.35a8.27,8.27,0,0,0-14.94-4.1,9,9,0,0,0-16.27-2.27,4.54,4.54,0,0,0-8.9-.62c-1.59-2.22-4.91-2.67-7.41-1.56a11.74,11.74,0,0,0-5.45,5.89,9.58,9.58,0,0,0-9.46-7.83c-1.37-3.07-2.91-6.34-5.81-8.06s-7.52-.85-8.37,2.41c.39-3.56-4.09-6.08-7.54-5.12s-5.83,4.07-7.72,7.11c-2.45-2.17-6.49-1.43-8.95.72s-3.73,5.33-4.91,8.38A4.36,4.36,0,0,0,128,73.88,7.07,7.07,0,0,0,115,77a8.15,8.15,0,0,0-11.3,10.34A10,10,0,0,0,89.46,99.11a7.15,7.15,0,0,0-10.76,8.83c-6.11,1.46-8.94,10.19-4.85,15-.55,4.26,3.4,7.61,6.93,10.06-5.15.08-8.58,7.17-5.44,11.25a5.61,5.61,0,1,0-.71,11.07c-3.28,0-5.44,4-4.58,7.18s3.76,5.38,6.77,6.68c-2.07,1.21-1.81,4.53-.12,6.23s4.22,2.18,6.59,2.6c-1.23.46-1.55,2.06-1.38,3.36a8.86,8.86,0,0,0,10.45,7.15c2.46,3.82,9.16,3.51,11.25-.52,1.51,2.28,4.82,2.54,7.44,1.77s5-2.31,7.68-2.83,6.12-.16,7.9-2.35c1.35-1.67,1.15-4.21,2.51-5.88,2-2.45,5.85-1.57,9-1.94,4.67-.55,8.76-5.45,7.34-9.94a14.2,14.2,0,0,0,18.25-4.49,25.66,25.66,0,0,0,17.18,11.13,5,5,0,0,0,3.4-.34c1-.6,1.46-2.16.61-3,3.12.37,6.38.72,9.31-.4s5.34-4.26,4.55-7.29c1.72,1.37,3.65,2.82,5.85,2.76a3.84,3.84,0,0,0,3.36-2.58,10.5,10.5,0,0,1-.22-1.87,2.22,2.22,0,0,1,.22,1.87,12.36,12.36,0,0,0,11.77,9.69c-.11,2.6.45,5.55,2.61,7s6-.08,5.58-2.66a5.12,5.12,0,0,0,6.42-2,11.92,11.92,0,0,0,10.27,2.52,1.47,1.47,0,0,1,0-.21c.12-1.71,2.85-2.79,3.58-1.23a10.82,10.82,0,0,1-3.58,1.44c0,1.62,1.36,3,2.73,3.88,2.16,1.43,4.83,2.43,7.35,1.79s4.55-3.43,3.64-5.87c-.37-1-1.2-1.89-1.18-3a3.86,3.86,0,0,1,1.67-2.59,37.37,37.37,0,0,1,7-4.74c1.67-.87,3.49-1.68,4.54-3.25s.82-4.15-.94-4.82c4.48.44,8.63-4.34,7.58-8.71,2.47-2,5.09-4.2,5.84-7.27S281.31,135.61,278.17,136.09Z"/><rect class="cls-7" x="83.04" y="217.37" width="10.33" height="56"/><rect class="cls-7" x="260.37" y="217.37" width="10.33" height="56"/></svg>