<svg id="Layer_1" data-name="Layer 1" xmlns="http://www.w3.org/2000/svg" viewBox="0 0 352.44 352.44"><defs><style>.cls-1{fill:#00d2e2;}.cls-2{fill:#00acc1;}.cls-3{fill:#a5573f;}.cls-4{fill:#914426;}.cls-5{fill:#231f20;}.cls-6{fill:#5b2a1b;}</style></defs><circle class="cls-1" cx="176.22" cy="176.22" r="176.22"/><path class="cls-2" d="M176.36,0V352.43A176.22,176.22,0,0,0,176.36,0Z"/><ellipse class="cls-3" cx="178.35" cy="190.92" rx="85" ry="100.68"/><path class="cls-4" d="M178.35,90.23h-.65V291.59h.65c46.94,0,85-45.08,85-100.68S225.29,90.23,178.35,90.23Z"/><path class="cls-5" d="M162.25,179a7.49,7.49,0,1,0,7.49,7.49A7.49,7.49,0,0,0,162.25,179Z"/><path class="cls-5" d="M194.83,179a7.49,7.49,0,1,0,7.49,7.49A7.49,7.49,0,0,0,194.83,179Z"/><rect class="cls-5" x="143.68" y="159.13" width="26.06" height="4.55"/><rect class="cls-5" x="187.34" y="159.13" width="26.06" height="4.55"/><path class="cls-6" d="M178.28,251.21a28.7,28.7,0,0,0,28.57-28.34H149.71A28.7,28.7,0,0,0,178.28,251.21Z"/><path class="cls-3" d="M93.46,176.52a13,13,0,1,0,12.65,13A12.84,12.84,0,0,0,93.46,176.52Z"/><path class="cls-4" d="M262.7,176.52a13,13,0,1,0,12.64,13A12.84,12.84,0,0,0,262.7,176.52Z"/><path class="cls-5" d="M243.55,149s0,.1,0,.15a10.63,10.63,0,0,0,3.2-1.09C246.11,146.83,243.67,147.65,243.55,149Z"/><path class="cls-5" d="M210.61,136.62a6.76,6.76,0,0,0,.21,1.42A1.47,1.47,0,0,0,210.61,136.62Z"/><path class="cls-5" d="M273.52,117.83c.55-2.46,1.09-5,.21-7.43a6.21,6.21,0,0,0-6.56-4,3.73,3.73,0,0,0,1.25-5.9,5.36,5.36,0,0,0-7,0c1.74-5.13-3.91-11-10.16-10.54,2.25-2.3-.23-6.51-3.73-6.34.66-2.28,1.22-4.72.34-6.94a5.62,5.62,0,0,0-6.35-3.31c-.26-2.54-2.52-4.84-5.4-5.51a8.31,8.31,0,0,0-7.94,2.38,8,8,0,0,0-6.61-4.91,8.8,8.8,0,0,0-7.93,3.18,4,4,0,0,0-3.75-3,4.15,4.15,0,0,0-4.2,2.58c-1.43-1.69-4.39-2-6.62-1.19a9.73,9.73,0,0,0-4.88,4.48c-.61-3.36-4.45-6.07-8.45-6-1.22-2.35-2.6-4.84-5.18-6.15s-6.73-.64-7.49,1.84c.35-2.71-3.65-4.63-6.74-3.9s-5.2,3.1-6.89,5.41c-2.19-1.65-5.8-1.09-8,.56s-3.33,4.06-4.38,6.38A4.05,4.05,0,0,0,142.73,67a3.63,3.63,0,0,0-3.38,3.44,7,7,0,0,0-6.78-2.31,5.9,5.9,0,0,0-4.81,4.67,8.51,8.51,0,0,0-8.29.92,5.73,5.73,0,0,0-1.81,7,10.45,10.45,0,0,0-9.89.86,7.14,7.14,0,0,0-2.86,8.12,7.51,7.51,0,0,0-7.93.11,5.06,5.06,0,0,0-1.68,6.61c-5.46,1.11-8,7.76-4.34,11.39-.49,3.25,3,5.8,6.19,7.67-4.6.06-7.66,5.46-4.85,8.57-2.81-.52-5.88,1.46-6.06,3.9s2.56,4.74,5.42,4.53a4.36,4.36,0,0,0-4.09,5.47c.77,2.41,3.36,4.1,6.05,5.09-1.85.92-1.62,3.45-.11,4.74s3.77,1.67,5.88,2a2.17,2.17,0,0,0-1.22,2.55c.55,3.6,5.2,6.32,9.33,5.45,2.2,2.91,8.19,2.67,10.06-.39,1.34,1.73,4.3,1.93,6.64,1.34s4.46-1.75,6.86-2.15,5.47-.12,7.06-1.79c1.2-1.27,1-3.21,2.24-4.48,1.8-1.87,5.23-1.19,8-1.48,4.18-.42,7.83-4.15,6.56-7.57,5.37,2.59,13,1,16.3-3.42a23.6,23.6,0,0,0,15.36,8.48,5.2,5.2,0,0,0,3-.26c.89-.46,1.3-1.64.54-2.25,2.78.28,5.7.55,8.31-.31s4.78-3.23,4.08-5.55c1.53,1,3.25,2.15,5.22,2.1a3.39,3.39,0,0,0,3-2,6.76,6.76,0,0,1-.21-1.42,1.47,1.47,0,0,1,.21,1.42c1,4.08,5.57,7.44,10.51,7.38-.1,2,.4,4.23,2.33,5.35s5.34-.06,5-2a5,5,0,0,0,5.74-1.54,12.06,12.06,0,0,0,9.18,1.91c0-.05,0-.1,0-.15.12-1.31,2.56-2.13,3.21-.94a10.63,10.63,0,0,1-3.2,1.09c0,1.24,1.21,2.26,2.43,3a9.62,9.62,0,0,0,6.57,1.36c2.25-.48,4.07-2.61,3.26-4.46-.34-.77-1.08-1.45-1.06-2.27s.77-1.45,1.49-2a34,34,0,0,1,6.27-3.61c1.49-.66,3.12-1.28,4.05-2.47a2.31,2.31,0,0,0-.84-3.68c4,.33,7.71-3.3,6.77-6.64,2.21-1.51,4.55-3.19,5.23-5.54A4,4,0,0,0,273.52,117.83Z"/></svg>