<svg id="Layer_1" data-name="Layer 1" xmlns="http://www.w3.org/2000/svg" viewBox="0 0 352.44 352.44"><defs><style>.cls-1{fill:#008e79;}.cls-2{fill:#00695c;}.cls-3{fill:#ffccbc;}.cls-4{fill:#efac9a;}.cls-5{fill:#b76b5c;}.cls-6{fill:#231f20;}.cls-7{fill:#e64a19;}</style></defs><circle class="cls-1" cx="176.22" cy="176.22" r="176.22" transform="translate(-72.99 176.22) rotate(-45)"/><path class="cls-2" d="M176.36,0V352.43A176.22,176.22,0,0,0,176.36,0Z"/><ellipse class="cls-3" cx="176.97" cy="152.7" rx="85" ry="100.68"/><path class="cls-4" d="M177,52h-.65V253.37H177c46.94,0,85-45.08,85-100.68S223.91,52,177,52Z"/><path class="cls-5" d="M177.16,213a28.7,28.7,0,0,0,28.57-28.33H148.59A28.69,28.69,0,0,0,177.16,213Z"/><path class="cls-6" d="M160.87,140.74a7.49,7.49,0,1,0,7.49,7.49A7.49,7.49,0,0,0,160.87,140.74Z"/><path class="cls-6" d="M193.45,140.74a7.49,7.49,0,1,0,7.49,7.49A7.49,7.49,0,0,0,193.45,140.74Z"/><rect class="cls-7" x="142.3" y="120.91" width="26.06" height="4.55"/><rect class="cls-7" x="185.96" y="120.91" width="26.06" height="4.55"/><ellipse class="cls-3" cx="91.6" cy="146.71" rx="12.65" ry="13.03"/><path class="cls-4" d="M260.84,133.68a13,13,0,1,0,12.64,13A12.85,12.85,0,0,0,260.84,133.68Z"/><path class="cls-7" d="M178.11,51.43c-35.24,0-66.85,21.44-74.62,49.92,16.78-15.24,45.12-25.3,74.62-25.3s55.76,9.81,72.54,25C242.88,72.62,213.36,51.43,178.11,51.43Z"/><path class="cls-7" d="M176.68,220.07c-14,0-26.37-11.28-33.4-28.3-8,12.89-13,30.41-13,49.72,0,39.59,20.77,71.68,46.38,71.68s46.38-32.09,46.38-71.68c0-19.31-4.94-36.83-13-49.72C203.05,208.79,190.72,220.07,176.68,220.07Z"/></svg>