<svg id="Layer_1" data-name="Layer 1" xmlns="http://www.w3.org/2000/svg" viewBox="0 0 352.44 352.44"><defs><style>.cls-1{fill:#ff3d00;}.cls-2{fill:#dd2c00;}.cls-3{fill:#ffccbc;}.cls-4{fill:#efac9a;}.cls-5{fill:#231f20;}.cls-6{fill:#b76b5c;}</style></defs><circle class="cls-1" cx="176.22" cy="176.22" r="176.22"/><path class="cls-2" d="M176.36,0V352.43A176.22,176.22,0,0,0,176.36,0Z"/><ellipse class="cls-3" cx="178.35" cy="176.64" rx="85" ry="100.68"/><path class="cls-4" d="M178.35,76h-.64V277.31h.64c46.94,0,85-45.07,85-100.68S225.29,76,178.35,76Z"/><path class="cls-5" d="M162.25,164.68a7.49,7.49,0,1,0,7.49,7.49A7.49,7.49,0,0,0,162.25,164.68Z"/><circle class="cls-5" cx="194.83" cy="172.17" r="7.49"/><rect class="cls-5" x="143.68" y="144.85" width="26.06" height="4.55"/><rect class="cls-5" x="187.34" y="144.85" width="26.06" height="4.55"/><path class="cls-5" d="M241.16,80.17a6.09,6.09,0,0,0-6.07-6.08H207.88c-9.07-.65-18.74-.11-28.71-.08s-19.64-.57-28.7.08H123.25a6.09,6.09,0,0,0-6.07,6.08V88c-19.07,18.8-30.5,53.94-30.5,82.23a96.31,96.31,0,0,0,16,53.38,83.18,83.18,0,0,1-2.5-20.21c0-43,33.07-79.57,79-92.66,45.94,13.09,79,49.62,79,92.66a83.18,83.18,0,0,1-2.49,20.21,96.38,96.38,0,0,0,16-53.38c0-28.29-11.43-63.43-30.5-82.23Z"/><path class="cls-6" d="M178.54,236.93a28.69,28.69,0,0,0,28.57-28.33H150A28.7,28.7,0,0,0,178.54,236.93Z"/><path class="cls-5" d="M168.5,247.3c-2.21,10.43-1.14,22.07,1.26,32.46,1,4.11,2.61,8,3.87,12.07a65.49,65.49,0,0,1,2.92,22.55c6.69-8.95,9.94-20.11,11-31.23A224.48,224.48,0,0,0,188,246.3C183.5,250.3,173.28,249.07,168.5,247.3Z"/></svg>