<svg id="Layer_1" data-name="Layer 1" xmlns="http://www.w3.org/2000/svg" viewBox="0 0 352.44 352.44"><defs><style>.cls-1{fill:#7da3b2;}.cls-2{fill:#607d8b;}.cls-3{fill:#ffccbc;}.cls-4{fill:#efac9a;}.cls-5{fill:#231f20;}.cls-6{fill:#b76b5c;}</style></defs><circle class="cls-1" cx="176.22" cy="176.22" r="176.22" transform="translate(-72.99 176.22) rotate(-45)"/><path class="cls-2" d="M176.36,0V352.43A176.22,176.22,0,0,0,176.36,0Z"/><ellipse class="cls-3" cx="176" cy="196.38" rx="85" ry="100.68"/><path class="cls-4" d="M176,95.7h-.64V297.05H176c46.94,0,85-45.08,85-100.68S222.94,95.7,176,95.7Z"/><path class="cls-5" d="M159.9,184.42a7.49,7.49,0,1,0,7.49,7.49A7.49,7.49,0,0,0,159.9,184.42Z"/><circle class="cls-5" cx="192.48" cy="191.91" r="7.49" transform="translate(-22.01 24.96) rotate(-7.02)"/><rect class="cls-5" x="141.33" y="164.59" width="26.06" height="4.55"/><rect class="cls-5" x="185" y="164.59" width="26.06" height="4.55"/><path class="cls-5" d="M175.67,211.22c-26.47,0-84.62-4.17-84.62-4.17s-5,99.81,84.62,101.82c92.46,2.06,85.72-102.16,85.72-102.16S202.15,211.22,175.67,211.22Z"/><path class="cls-6" d="M176.19,256.67a28.71,28.71,0,0,0,28.58-28.33H147.62A28.7,28.7,0,0,0,176.19,256.67Z"/><path class="cls-3" d="M91.6,180.46a13,13,0,1,0,12.65,13A12.84,12.84,0,0,0,91.6,180.46Z"/><ellipse class="cls-4" cx="260.84" cy="193.49" rx="12.65" ry="13.03"/><path class="cls-5" d="M229.44,82.88a110.83,110.83,0,0,1-3.94-27.16,23.12,23.12,0,0,0-9,10.49q-1.81-4.35-3.64-8.69a21.89,21.89,0,0,1-4,7.46,30.68,30.68,0,0,0-10.2-19.53,25.53,25.53,0,0,1-6.47,19.86A37,37,0,0,0,188,54.49c-1.38,1.6-2.77,3.19-4.15,4.78a47,47,0,0,1-1.68-19.57,39.12,39.12,0,0,0-20.74,24.62l-6.25-8.07-3.27,7.56a34.79,34.79,0,0,0-18.19-18.74,31.49,31.49,0,0,1-3.3,28.71,60.64,60.64,0,0,0-5.81-7.72,23.29,23.29,0,0,0-3.71,8.49A23,23,0,0,1,116,57.92c-4.33,5.18-5.51,12.29-5.62,19s.66,13.56-.47,20.21q-2.61-4.71-5.21-9.41c0,7.37-1.09,14.72-.82,22.09s2,15,6.89,20.55a8.83,8.83,0,0,0,4,2.87,10.88,10.88,0,0,0,3.78.17,108.34,108.34,0,0,0,16-2c5.82-1.32,11.37-3.6,17-5.51a139.44,139.44,0,0,1,43.52-7.32,71.19,71.19,0,0,1,21,2.46c6.78,2,21.26,6.47,25.77,11.91,3.75-19.31-5-40-5.82-59.66Q232.72,78.12,229.44,82.88Z"/></svg>