<svg id="Layer_1" data-name="Layer 1" xmlns="http://www.w3.org/2000/svg" viewBox="0 0 352.44 352.44"><defs><style>.cls-1{fill:#15edc9;}.cls-2{fill:#00bfa5;}.cls-3{fill:#ffccbc;}.cls-4{fill:#efac9a;}.cls-5{fill:#231f20;}.cls-6{fill:#682319;}.cls-7{fill:#b76b5c;}</style></defs><circle class="cls-1" cx="176.22" cy="176.22" r="176.22" transform="translate(-72.99 176.22) rotate(-45)"/><path class="cls-2" d="M176.36,0V352.43A176.22,176.22,0,0,0,176.36,0Z"/><ellipse class="cls-3" cx="175.44" cy="192.16" rx="85" ry="100.68"/><path class="cls-4" d="M175.44,91.48h-.64V292.84h.64c46.95,0,85-45.08,85-100.69S222.39,91.48,175.44,91.48Z"/><path class="cls-5" d="M159.34,180.21a7.49,7.49,0,1,0,7.49,7.48A7.48,7.48,0,0,0,159.34,180.21Z"/><circle class="cls-5" cx="191.93" cy="187.69" r="7.49"/><rect class="cls-5" x="140.78" y="160.37" width="26.06" height="4.55"/><rect class="cls-5" x="184.44" y="160.37" width="26.06" height="4.55"/><path class="cls-6" d="M175.12,207c-26.48,0-84.62-4.17-84.62-4.17s-5,99.82,84.62,101.82c92.46,2.07,85.71-102.16,85.71-102.16S201.59,207,175.12,207Z"/><path class="cls-7" d="M175.64,252.45a28.7,28.7,0,0,0,28.57-28.33H147.06A28.71,28.71,0,0,0,175.64,252.45Z"/><path class="cls-3" d="M91,176.25a13,13,0,1,0,12.65,13A12.85,12.85,0,0,0,91,176.25Z"/><ellipse class="cls-4" cx="260.28" cy="189.28" rx="12.65" ry="13.03"/><path class="cls-6" d="M264.82,102.78a46.51,46.51,0,0,0-.77-29.15A26.15,26.15,0,0,1,245,97a28.23,28.23,0,0,0,4-11.63,33.88,33.88,0,0,1-12.72,5c11.39-14.15,12.1-35.91,1.64-50.77a32.72,32.72,0,0,1-15.43,18.37q-2.25-3.85-4.52-7.7a25.83,25.83,0,0,1-19.24,14.71c12.71-3.41,7.9-18.59.69-24.48C198.52,46.58,196,54,190.93,57s-10.12,3.8-15,1.8a8.25,8.25,0,0,0,4.95-6C172.26,55,164.52,47.28,156,44.71c-10.31-3.11-21.82,1.93-28.75,10.17s-10,19.09-11.33,29.76c-.66,5.15-.14,11.76,4.72,13.58-3.61-1.34-7.67,1-10,4.06s-3.46,6.87-5.39,10.21-5.08,6.44-8.94,6.46c-4.8,0-8.53-5.62-6.94-10.15s7.59-6.71,11.89-4.57C92.79,98,77.1,102.37,72,111.59s-.65,21.26,5.13,30.06a9.33,9.33,0,0,1-6.92-9.1c-3.61,5.76-2.55,13.62,1.28,19.23s10,9.27,16.34,11.68c5,1.88,10.37,3.12,15.56,2s10.08-4.92,11.07-10.14c8.5,1.21,16-6.54,18.43-14.78s1.41-17,2.06-25.62c5.72-1.62,11.93.47,16.88,3.78s9,7.78,13.51,11.65a69.51,69.51,0,0,0,17.54,10.95c5.08,2.2,10.58,3.81,16.09,3.27s11-3.55,13.34-8.56a20.44,20.44,0,0,0,15.74,13.63c4,9.05,9.72,18.49,19.15,21.51,8.75,2.8,18.66-1,25-7.7s9.44-15.79,11-24.84A88.35,88.35,0,0,0,276.77,88,24.24,24.24,0,0,1,264.82,102.78Z"/></svg>