<svg id="Layer_1" data-name="Layer 1" xmlns="http://www.w3.org/2000/svg" viewBox="0 0 352.44 352.44"><defs><style>.cls-1{fill:#607d8b;}.cls-2{fill:#546e7a;}.cls-3{fill:#ffccbc;}.cls-4{fill:#efac9a;}.cls-5{fill:#b76b5c;}.cls-6{fill:#ccae81;}.cls-7{fill:#231f20;}.cls-8{fill:#ba9768;}.cls-9{fill:#880e4f;}</style></defs><circle class="cls-1" cx="176.22" cy="176.22" r="176.22"/><path class="cls-2" d="M176.36,0V352.43A176.22,176.22,0,0,0,176.36,0Z"/><ellipse class="cls-3" cx="176.81" cy="172.23" rx="85" ry="100.68"/><path class="cls-4" d="M176.81,71.55h-.64V272.9h.64c46.94,0,85-45.07,85-100.68S223.75,71.55,176.81,71.55Z"/><path class="cls-5" d="M177,232.52a28.69,28.69,0,0,0,28.57-28.33H148.43A28.7,28.7,0,0,0,177,232.52Z"/><path class="cls-6" d="M175.22,65.31c-53.23,0-96.38,49-96.38,109.41a123.17,123.17,0,0,0,3.54,29.47h28.2V140.57a31.08,31.08,0,0,1,31-31h67.29a31.07,31.07,0,0,1,31,31v63.62h28.21a123.68,123.68,0,0,0,3.54-29.47C271.6,114.29,228.45,65.31,175.22,65.31Z"/><path class="cls-7" d="M160.71,160.28a7.49,7.49,0,1,0,7.49,7.48A7.48,7.48,0,0,0,160.71,160.28Z"/><path class="cls-7" d="M193.29,160.28a7.49,7.49,0,1,0,7.49,7.48A7.49,7.49,0,0,0,193.29,160.28Z"/><rect class="cls-8" x="142.14" y="140.44" width="26.06" height="4.55"/><rect class="cls-8" x="185.8" y="140.44" width="26.06" height="4.55"/><path class="cls-9" d="M221.89,147.86H190.57a9.67,9.67,0,0,0-9.66,9.66v9.36h-5.65v-9.36a9.67,9.67,0,0,0-9.66-9.66H134.28a9.68,9.68,0,0,0-9.66,9.66v21.37a9.67,9.67,0,0,0,9.66,9.66H165.6a9.67,9.67,0,0,0,9.66-9.66v-7.84h5.65v7.84a9.67,9.67,0,0,0,9.66,9.66h31.32a9.67,9.67,0,0,0,9.66-9.66V157.52A9.68,9.68,0,0,0,221.89,147.86Zm-51,31a5.28,5.28,0,0,1-5.27,5.27H134.28a5.28,5.28,0,0,1-5.27-5.27V157.52a5.28,5.28,0,0,1,5.27-5.27H165.6a5.28,5.28,0,0,1,5.27,5.27Zm56.29,0a5.29,5.29,0,0,1-5.27,5.27H190.57a5.28,5.28,0,0,1-5.27-5.27V157.52a5.28,5.28,0,0,1,5.27-5.27h31.32a5.29,5.29,0,0,1,5.27,5.27Z"/></svg>