<svg id="Layer_1" data-name="Layer 1" xmlns="http://www.w3.org/2000/svg" viewBox="0 0 352.44 352.44"><defs><style>.cls-1{fill:#ffd54f;}.cls-2{fill:#ffb300;}.cls-3{fill:#d89b79;}.cls-4{fill:#c18161;}.cls-5{fill:#231f20;}.cls-6{fill:#b76b5c;}.cls-7{fill:#00d2e2;}</style></defs><circle class="cls-1" cx="176.22" cy="176.22" r="176.22" transform="translate(-72.99 176.22) rotate(-45)"/><path class="cls-2" d="M176.36,0V352.43A176.22,176.22,0,0,0,176.36,0Z"/><path class="cls-3" d="M92,166a13,13,0,1,0,12.65,13A12.85,12.85,0,0,0,92,166Z"/><ellipse class="cls-3" cx="179.75" cy="182.24" rx="85" ry="100.68"/><path class="cls-4" d="M179.75,81.56h-.64V282.91h.64c46.94,0,85-45.07,85-100.68S226.69,81.56,179.75,81.56Z"/><circle class="cls-5" cx="163.65" cy="177.77" r="7.49"/><path class="cls-5" d="M196.23,170.28a7.49,7.49,0,1,0,7.49,7.49A7.5,7.5,0,0,0,196.23,170.28Z"/><rect class="cls-5" x="145.08" y="150.45" width="26.06" height="4.55"/><rect class="cls-5" x="188.74" y="150.45" width="26.06" height="4.55"/><path class="cls-5" d="M238.32,89.06c-16-12.92-36.47-10.2-58.44-10.2-1.1,0-2.21,0-3.31.08H124.65A6.09,6.09,0,0,0,118.58,85v19.9a6.09,6.09,0,0,0,6.07,6.07h30.79c58.52,5.14,104.13,46.72,104.13,97.28a83.18,83.18,0,0,1-2.49,20.21,96.4,96.4,0,0,0,16-53.38C273.06,144.77,259.93,106.55,238.32,89.06Z"/><ellipse class="cls-5" cx="179.42" cy="245.9" rx="47.94" ry="48.82"/><path class="cls-6" d="M179.94,242.53a28.69,28.69,0,0,0,28.57-28.33H151.37A28.7,28.7,0,0,0,179.94,242.53Z"/><path class="cls-7" d="M223.63,155.13H192.31a9.67,9.67,0,0,0-9.65,9.66v9.36H177v-9.36a9.68,9.68,0,0,0-9.66-9.66H136a9.67,9.67,0,0,0-9.66,9.66v21.37a9.67,9.67,0,0,0,9.66,9.66h31.32a9.67,9.67,0,0,0,9.66-9.66v-7.84h5.65v7.84a9.66,9.66,0,0,0,9.65,9.66h31.32a9.67,9.67,0,0,0,9.66-9.66V164.79A9.67,9.67,0,0,0,223.63,155.13Zm-51,31a5.28,5.28,0,0,1-5.27,5.27H136a5.28,5.28,0,0,1-5.27-5.27V164.79a5.28,5.28,0,0,1,5.27-5.27h31.32a5.28,5.28,0,0,1,5.27,5.27Zm56.28,0a5.28,5.28,0,0,1-5.27,5.27H192.31a5.28,5.28,0,0,1-5.26-5.27V164.79a5.28,5.28,0,0,1,5.26-5.27h31.32a5.28,5.28,0,0,1,5.27,5.27Z"/></svg>