<svg id="Layer_1" data-name="Layer 1" xmlns="http://www.w3.org/2000/svg" viewBox="0 0 352.44 352.44"><defs><style>.cls-1{fill:#ff3d00;}.cls-2{fill:#dd2c00;}.cls-3{fill:#ffccbc;}.cls-4{fill:#efac9a;}.cls-5{fill:#231f20;}.cls-6{fill:#b76b5c;}</style></defs><circle class="cls-1" cx="176.22" cy="176.22" r="176.22"/><path class="cls-2" d="M176.36,0V352.43A176.22,176.22,0,0,0,176.36,0Z"/><ellipse class="cls-3" cx="178.35" cy="180.64" rx="85" ry="100.68"/><path class="cls-4" d="M178.35,80h-.64V281.31h.64c46.94,0,85-45.07,85-100.68S225.29,80,178.35,80Z"/><path class="cls-5" d="M162.25,168.68a7.49,7.49,0,1,0,7.49,7.49A7.49,7.49,0,0,0,162.25,168.68Z"/><circle class="cls-5" cx="194.83" cy="176.17" r="7.49"/><rect class="cls-5" x="143.68" y="148.85" width="26.06" height="4.55"/><rect class="cls-5" x="187.34" y="148.85" width="26.06" height="4.55"/><ellipse class="cls-3" cx="93.42" cy="174.49" rx="12.65" ry="13.03"/><path class="cls-5" d="M236.92,87.46c-16-12.92-36.47-10.2-58.44-10.2-1.1,0-2.21,0-3.31.08H123.25a6.09,6.09,0,0,0-6.07,6.08v19.9a6.09,6.09,0,0,0,6.07,6.07H154c58.52,5.14,104.13,46.72,104.13,97.28a83.18,83.18,0,0,1-2.49,20.21,96.38,96.38,0,0,0,16-53.38C271.66,143.17,258.53,105,236.92,87.46Z"/><ellipse class="cls-5" cx="178.02" cy="244.31" rx="47.94" ry="48.82"/><path class="cls-6" d="M178.54,240.93a28.69,28.69,0,0,0,28.57-28.33H150A28.7,28.7,0,0,0,178.54,240.93Z"/></svg>