<svg id="Layer_1" data-name="Layer 1" xmlns="http://www.w3.org/2000/svg" viewBox="0 0 352.44 352.44"><defs><style>.cls-1{fill:#03a9f4;}.cls-2{fill:#0288d1;}.cls-3{fill:#ff9100;}.cls-4{fill:#ffe7d7;}.cls-5{fill:#f2d4c0;}.cls-6{fill:#231f20;}.cls-7{fill:#ff3d00;}.cls-8{fill:#dd2c00;}</style></defs><circle class="cls-1" cx="176.22" cy="176.22" r="176.22"/><path class="cls-2" d="M176.36,0V352.43A176.22,176.22,0,0,0,176.36,0Z"/><path class="cls-3" d="M208.36,57.55c-9.48-2.78-39.52-7.39-74.2,3.37C95,73.07,72,119.73,64.34,152c-11.72,49.6-4.73,96.47,15.51,130.54.89-7.16,3.08-18.8,5.74-25.3-1.69,32.38,3.71,34.4,8.43,46.55,3.11-7.11,4-19.88,7.08-27-1.11,22.45,4.39,28.67,16.53,38.45-7.71-40.94-3.6-52.59,1.66-94.08l6.34,19.62a144.69,144.69,0,0,1,10-75.34,63.24,63.24,0,0,0,6.19,32.49l4.45-13.36a69.92,69.92,0,0,1-.49,33.35A111.11,111.11,0,0,0,153,187.26a17.51,17.51,0,0,1,4.69,9.81,95.8,95.8,0,0,1,12.48-41.51A89.37,89.37,0,0,0,167,182.67l7-12a143.29,143.29,0,0,1-.06,34.63,104.79,104.79,0,0,0,9.25-27.63l3.33,18c6.29-8.62,9.43-20.4,8.47-31.77l4.9,22.19a11.58,11.58,0,0,0,3.42-6.86,128.47,128.47,0,0,1,4,15.53l2.31-5.19a136.26,136.26,0,0,1,6,30.29,92.49,92.49,0,0,0,1.37-29.42l2.94,6.91a78.84,78.84,0,0,0,3.21-22.73c7.77,21.69-.17,47.24-1.23,70.79l7.76-14.16c-4,24.48,5.4,57,10.46,78.25,8.09-9.11,5-21.07,7.08-27-.67,18.55,3,19.31,4.72,25,20.24-22.94,19.86-42.71,19.9-53.63,2,4.61,4.77,29.11,6.75,33.73,35.08-66.45,8.05-160.58-8.44-185C249.17,71.72,234.63,65.26,208.36,57.55Z"/><path class="cls-4" d="M95.54,170.51a13,13,0,1,0,12.65,13A12.85,12.85,0,0,0,95.54,170.51Z"/><path class="cls-5" d="M264.78,170.51a13,13,0,1,0,12.64,13A12.85,12.85,0,0,0,264.78,170.51Z"/><ellipse class="cls-4" cx="177.34" cy="185.15" rx="85" ry="100.68"/><path class="cls-5" d="M177.34,84.47h-.64V285.82h.64c46.94,0,85-45.07,85-100.68S224.28,84.47,177.34,84.47Z"/><path class="cls-6" d="M192.47,187.34a7.49,7.49,0,1,0,7.49,7.49A7.49,7.49,0,0,0,192.47,187.34Z"/><path class="cls-6" d="M199.76,165.68A21,21,0,0,0,187,169.76v6.38c3.07-4.2,25.83-5.25,29.12-2.42C213.27,169,207,165.68,199.76,165.68Z"/><path class="cls-6" d="M158.71,187.34a7.49,7.49,0,1,0,7.49,7.49A7.48,7.48,0,0,0,158.71,187.34Z"/><path class="cls-6" d="M137.08,173.28c3.29-2.84,26-1.78,29.12,2.41v-6.37a20.93,20.93,0,0,0-12.77-4.08C146.16,165.24,139.91,168.54,137.08,173.28Z"/><path class="cls-7" d="M190.91,238.05c-2.49-1-4.84-2.57-7.42-3.22s-5.57-.12-7.23,2.39h-.44c-1.67-2.51-4.67-3-7.24-2.39s-4.92,2.22-7.42,3.22a17.53,17.53,0,0,1-10.91.76c6.21,9.13,16.18,14.11,25.79,12.93,9.6,1.18,19.57-3.8,25.79-12.93A17.57,17.57,0,0,1,190.91,238.05Z"/><circle class="cls-8" cx="88.79" cy="197.66" r="10.62"/><path class="cls-8" d="M270.93,183.53a10.63,10.63,0,1,0,10.62,10.63A10.63,10.63,0,0,0,270.93,183.53Z"/><path class="cls-3" d="M178.5,83.55c-47.37,0-85.9,36.94-87,82.91h174C264.4,120.49,225.87,83.55,178.5,83.55Z"/><path class="cls-8" d="M239.38,102.93a93.84,93.84,0,0,0-125.11,0c-15.74,14.41-25.13,33.37-26.74,53.79H92.6c3.49-40.44,40.31-72.62,84.22-72.62s80.74,32.18,84.22,72.62h5.08C264.51,136.3,255.12,117.34,239.38,102.93Z"/><path class="cls-8" d="M123,96c-3,1-31.37,6.41-31.37,6.41l14.5,23.27s18.89-24.28,19.9-23.94,30.36-6.07,30.36-6.07L144.61,72.73Z"/></svg>