<svg id="Layer_1" data-name="Layer 1" xmlns="http://www.w3.org/2000/svg" viewBox="0 0 352.44 352.44"><defs><style>.cls-1{fill:#0277bd;}.cls-2{fill:#01579b;}.cls-3{fill:#ffe7d7;}.cls-4{fill:#f2d4c0;}.cls-5{fill:#231f20;}.cls-6{fill:#682319;}.cls-7{fill:#d81b60;}.cls-8{fill:#ff8f00;}</style></defs><circle class="cls-1" cx="176.22" cy="176.22" r="176.22" transform="translate(-72.99 176.22) rotate(-45)"/><path class="cls-2" d="M176.36,0V352.43A176.22,176.22,0,0,0,176.36,0Z"/><ellipse class="cls-3" cx="176.47" cy="200.12" rx="85" ry="100.68"/><path class="cls-4" d="M176.47,99.44h-.64V300.8h.64c46.94,0,85-45.08,85-100.69S223.41,99.44,176.47,99.44Z"/><ellipse class="cls-3" cx="91.55" cy="194.64" rx="12.65" ry="13.03"/><ellipse class="cls-4" cx="263.57" cy="194.64" rx="12.65" ry="13.03"/><circle class="cls-5" cx="193.23" cy="205.69" r="7.49" transform="translate(-70.75 305.49) rotate(-67.5)"/><path class="cls-6" d="M198.51,178.26a21,21,0,0,0-12.77,4.08v6.37c3.07-4.19,25.83-5.25,29.12-2.41C212,181.56,205.78,178.26,198.51,178.26Z"/><circle class="cls-5" cx="157.47" cy="206.13" r="7.49" transform="translate(-30.98 27.89) rotate(-9.22)"/><path class="cls-6" d="M135.84,185.85c3.29-2.83,26-1.78,29.12,2.42V181.9a21,21,0,0,0-12.78-4.08C144.92,177.82,138.67,181.11,135.84,185.85Z"/><path class="cls-7" d="M189.67,250.63c-2.5-1-4.85-2.58-7.42-3.22s-5.57-.12-7.24,2.38h-.44c-1.66-2.5-4.66-3-7.23-2.38s-4.93,2.22-7.42,3.22a17.57,17.57,0,0,1-10.92.76c6.22,9.13,16.19,14.11,25.79,12.93,9.61,1.18,19.58-3.8,25.79-12.93A17.53,17.53,0,0,1,189.67,250.63Z"/><path class="cls-8" d="M242.42,94.74c-32.64-18.87-59.5-15.59-66.61-11.22-7.12-4.37-34-7.65-66.62,11.22-16,9.29-34.4,31.37-43.17,68.48C62.66,177.45,62.31,204,68.72,218a43.12,43.12,0,0,0,22.11,21.73c9.8,4.17,20.53,5.5,31.11,6.78a146.25,146.25,0,0,1-6.41-76.24c10.58,4,22.15,4.18,33.45,4.33,8.66.11,17.32.22,26,.26h1.69c8.66,0,17.32-.15,26-.26,11.3-.15,22.87-.35,33.45-4.33a146.35,146.35,0,0,1-6.4,76.24c10.57-1.28,21.3-2.61,31.1-6.78A43.12,43.12,0,0,0,282.89,218c6.41-14,6.06-40.58,2.7-54.81C276.82,126.11,258.46,104,242.42,94.74Z"/></svg>