<svg id="Layer_1" data-name="Layer 1" xmlns="http://www.w3.org/2000/svg" viewBox="0 0 352.44 352.44"><defs><style>.cls-1{fill:#ffd54f;}.cls-2{fill:#ffb300;}.cls-3{fill:#a5573f;}.cls-4{fill:#914426;}.cls-5{fill:#231f20;}.cls-6{fill:#5b2a1b;}.cls-7{fill:#fff;}</style></defs><circle class="cls-1" cx="176.22" cy="176.47" r="176.22" transform="translate(-73.17 176.29) rotate(-45)"/><path class="cls-2" d="M174.86-.25V352.18a176.22,176.22,0,0,0,0-352.43Z"/><path class="cls-3" d="M90,166.28a13,13,0,1,0,12.65,13A12.85,12.85,0,0,0,90,166.28Z"/><ellipse class="cls-3" cx="177.75" cy="182.49" rx="85" ry="100.68"/><path class="cls-4" d="M177.75,81.81h-.64V283.16h.64c46.94,0,85-45.07,85-100.68S224.69,81.81,177.75,81.81Z"/><circle class="cls-5" cx="161.65" cy="178.02" r="7.49"/><path class="cls-5" d="M194.23,170.53a7.49,7.49,0,1,0,7.49,7.49A7.5,7.5,0,0,0,194.23,170.53Z"/><path class="cls-5" d="M236.32,89.31c-16-12.92-36.47-10.2-58.44-10.2-1.1,0-2.21,0-3.31.08H122.65a6.09,6.09,0,0,0-6.07,6.08v19.9a6.09,6.09,0,0,0,6.07,6.07h30.79C212,116.38,257.57,158,257.57,208.52a83.18,83.18,0,0,1-2.49,20.21,96.4,96.4,0,0,0,16-53.38C271.06,145,257.93,106.8,236.32,89.31Z"/><path class="cls-6" d="M177.94,242.78a28.69,28.69,0,0,0,28.57-28.33H149.37A28.7,28.7,0,0,0,177.94,242.78Z"/><path class="cls-7" d="M230.24,151.39H192.77a11.56,11.56,0,0,0-11.56,11.55v11.2h-6.76v-11.2a11.56,11.56,0,0,0-11.55-11.55H125.43a11.56,11.56,0,0,0-11.56,11.55v25.57a11.56,11.56,0,0,0,11.56,11.55H162.9a11.56,11.56,0,0,0,11.55-11.55v-9.38h6.76v9.38a11.56,11.56,0,0,0,11.56,11.55h37.47a11.56,11.56,0,0,0,11.55-11.55V162.94A11.56,11.56,0,0,0,230.24,151.39Zm-61,37.12a6.32,6.32,0,0,1-6.3,6.3H125.43a6.33,6.33,0,0,1-6.31-6.3V162.94a6.33,6.33,0,0,1,6.31-6.3H162.9a6.32,6.32,0,0,1,6.3,6.3Zm67.34,0a6.32,6.32,0,0,1-6.3,6.3H192.77a6.33,6.33,0,0,1-6.31-6.3V162.94a6.33,6.33,0,0,1,6.31-6.3h37.47a6.32,6.32,0,0,1,6.3,6.3Z"/></svg>