<svg id="Layer_1" data-name="Layer 1" xmlns="http://www.w3.org/2000/svg" viewBox="0 0 352.44 352.44"><defs><style>.cls-1{fill:#ff3d00;}.cls-2{fill:#dd2c00;}.cls-3{fill:#ffccbc;}.cls-4{fill:#efac9a;}.cls-5{fill:#231f20;}.cls-6{fill:#d81b60;}</style></defs><circle class="cls-1" cx="176.22" cy="176.22" r="176.22"/><path class="cls-2" d="M176.36,0V352.43A176.22,176.22,0,0,0,176.36,0Z"/><path class="cls-3" d="M95,162a13,13,0,1,0,12.65,13A12.84,12.84,0,0,0,95,162Z"/><path class="cls-4" d="M264.19,162a13,13,0,1,0,12.65,13A12.85,12.85,0,0,0,264.19,162Z"/><ellipse class="cls-3" cx="176.76" cy="176.6" rx="85" ry="100.68"/><path class="cls-4" d="M176.76,75.92h-.64V277.27h.64c46.94,0,85-45.07,85-100.68S223.7,75.92,176.76,75.92Z"/><circle class="cls-5" cx="193.89" cy="180.51" r="7.49"/><path class="cls-5" d="M199.17,153.09a21,21,0,0,0-12.77,4.07v6.38c3.07-4.2,25.83-5.25,29.12-2.42C212.69,156.38,206.44,153.09,199.17,153.09Z"/><path class="cls-5" d="M158.13,173.47a7.49,7.49,0,1,0,7.49,7.48A7.48,7.48,0,0,0,158.13,173.47Z"/><path class="cls-5" d="M136.5,160.68c3.29-2.84,26.05-1.78,29.12,2.42v-6.38a21,21,0,0,0-12.78-4.08C145.58,152.64,139.33,155.94,136.5,160.68Z"/><path class="cls-6" d="M190.33,225.45c-2.5-1-4.85-2.57-7.42-3.21s-5.57-.13-7.24,2.38h-.44c-1.66-2.51-4.66-3-7.23-2.38s-4.93,2.21-7.42,3.21a17.64,17.64,0,0,1-10.92.77c6.22,9.12,16.19,14.1,25.79,12.92,9.61,1.18,19.58-3.8,25.79-12.92A17.61,17.61,0,0,1,190.33,225.45Z"/><path class="cls-5" d="M246.86,89.85c-9.78-9.44-21.58-15.51-32.38-17.2,7.58-2.7,14.24-15.54,12.6-23.42S219.17,35,211.89,31.59a67.07,67.07,0,0,0-25.06-5.82c-14.42-.36-31.16-.36-44.53,5.06-8.91,3.61-17.63,10.31-21.25,19.22s-.18,23.47,9.11,26C115.6,84.31,105.89,94.69,97,108.88s-12.31,32.54-5.88,48c2.3,5.56,5.87,11,5.62,17-.23,5.72-3.92,10.89-4,16.61-.08,4.28,1.86,8.34,2.34,12.59.87,7.58-2.89,14.83-4.6,22.27A42.7,42.7,0,0,0,98,260.24c3.05,4,7,7.85,7.52,12.86,3.92-6.2,1.4-14.37-1.9-20.93s-7.43-13.4-6.4-20.67c1.18-8.26,8.87-14.78,9-23.13.07-6.64-4.76-13.46-1.93-19.47-.17,6,6.18,10.13,7.91,15.88,1.94,6.46-2.29,12.93-4.49,19.31a33.2,33.2,0,0,0,2.56,27c2.38,4.15,5.7,7.86,7,12.47,3.74,13.63-11.94,26.7-9,40.53.74,3.54,2.66,6.7,4.27,9.95a59.64,59.64,0,0,1,6,22.74,37.2,37.2,0,0,0,1.22-23.51c-1.11-3.93-2.87-7.77-2.87-11.84,0-12.81,16.9-21.7,15-34.37-1.21-8.08-9.67-13.09-12.63-20.7-6-15.33,12.42-31.19,9.13-47.3-1.85-9.08-10.13-15.47-13.51-24.1-3.52-9-1.24-19.25,2.17-28.32,4-10.7,10.1-21.38,20.15-26.81,6.53-3.53,14.13-4.49,21.55-4.79a137.21,137.21,0,0,1,49.72,7.22c10.18,3.47,20.19,8.33,27.49,16.22,13.88,15,15.33,43.85,18.4,56.93,5.74-12.82,4.68-20.9,7.76-32.05C275.87,113.46,253.06,95.83,246.86,89.85Z"/><path class="cls-5" d="M265.13,183.62a4.39,4.39,0,1,0,4.39,4.39A4.39,4.39,0,0,0,265.13,183.62Z"/><path class="cls-5" d="M269.52,196.78a4.39,4.39,0,1,0-6.07,4,4.39,4.39,0,1,0,3.37,0A4.37,4.37,0,0,0,269.52,196.78Z"/><path class="cls-5" d="M266.5,225.9a4.38,4.38,0,0,0,.32-8.21,4.39,4.39,0,1,0-3.37,0,4.38,4.38,0,0,0,.32,8.21,8.77,8.77,0,1,0,2.73,0Z"/></svg>