<svg id="Layer_1" data-name="Layer 1" xmlns="http://www.w3.org/2000/svg" viewBox="0 0 352.44 352.44"><defs><style>.cls-1{fill:#ff3d00;}.cls-2{fill:#dd2c00;}.cls-3{fill:#a5573f;}.cls-4{fill:#914426;}.cls-5{fill:#231f20;}.cls-6{fill:#880e4f;}.cls-7{fill:#00d2e2;}</style></defs><circle class="cls-1" cx="176.22" cy="176.22" r="176.22" transform="translate(-72.99 176.22) rotate(-45)"/><path class="cls-2" d="M176.36,0V352.43A176.22,176.22,0,0,0,176.36,0Z"/><ellipse class="cls-3" cx="95.57" cy="190.75" rx="12.65" ry="13.03"/><ellipse class="cls-4" cx="264.8" cy="190.75" rx="12.65" ry="13.03"/><ellipse class="cls-3" cx="177.37" cy="192.36" rx="85" ry="100.68"/><path class="cls-4" d="M177.37,91.68h-.64V293h.64c46.94,0,85-45.07,85-100.68S224.31,91.68,177.37,91.68Z"/><path class="cls-5" d="M194.5,183.72a7.49,7.49,0,1,0,7.49,7.49A7.49,7.49,0,0,0,194.5,183.72Z"/><path class="cls-5" d="M199.79,163.79A21,21,0,0,0,187,167.87v6.37c3.07-4.2,25.83-5.25,29.12-2.42C213.3,167.08,207.05,163.79,199.79,163.79Z"/><path class="cls-5" d="M158.74,184.17a7.49,7.49,0,1,0,7.49,7.49A7.49,7.49,0,0,0,158.74,184.17Z"/><path class="cls-5" d="M137.11,171.38c3.29-2.83,26-1.78,29.12,2.42v-6.38a21,21,0,0,0-12.78-4.07C146.19,163.35,139.94,166.64,137.11,171.38Z"/><path class="cls-6" d="M190.94,236.16c-2.49-1-4.85-2.58-7.42-3.22s-5.57-.13-7.23,2.38h-.45c-1.66-2.51-4.66-3-7.23-2.38s-4.93,2.21-7.42,3.22a17.64,17.64,0,0,1-10.92.76c6.22,9.13,16.19,14.1,25.79,12.93,9.61,1.17,19.58-3.8,25.79-12.93A17.6,17.6,0,0,1,190.94,236.16Z"/><path class="cls-5" d="M237,85.86a122.81,122.81,0,0,1-4.37-30.14,25.67,25.67,0,0,0-10,11.64l-4-9.63A24.4,24.4,0,0,1,214.16,66a34,34,0,0,0-11.32-21.67,28.3,28.3,0,0,1-7.18,22,40.68,40.68,0,0,0-4.59-12c-1.54,1.76-3.07,3.53-4.61,5.3A52.16,52.16,0,0,1,184.6,38a43.42,43.42,0,0,0-23,27.32q-3.47-4.47-6.94-8.95-1.8,4.2-3.62,8.38a38.63,38.63,0,0,0-20.17-20.78,34.94,34.94,0,0,1-3.67,31.84,65.46,65.46,0,0,0-6.45-8.56,26,26,0,0,0-4.11,9.42,25.46,25.46,0,0,1-5.46-18.45c-4.8,5.74-6.1,13.63-6.23,21.12s.74,15-.52,22.42q-2.88-5.22-5.78-10.44c0,8.17-1.21,16.33-.91,24.5s2.26,16.66,7.65,22.8a9.64,9.64,0,0,0,4.43,3.18,12,12,0,0,0,4.19.19,119.63,119.63,0,0,0,17.73-2.19c6.45-1.46,12.61-4,18.88-6.11a154.82,154.82,0,0,1,48.28-8.12c7.84-.06,15.76.49,23.27,2.73s23.58,7.18,28.59,13.22c4.16-21.43-5.61-44.38-6.46-66.19Q240.65,80.58,237,85.86Z"/><circle class="cls-7" cx="88.82" cy="204.87" r="10.62" transform="translate(-118.31 288.3) rotate(-88.5)"/><path class="cls-7" d="M268.43,188.68a10.63,10.63,0,1,0,10.62,10.63A10.63,10.63,0,0,0,268.43,188.68Z"/></svg>