<svg id="Layer_1" data-name="Layer 1" xmlns="http://www.w3.org/2000/svg" viewBox="0 0 352.44 352.44"><defs><style>.cls-1{fill:#ffab91;}.cls-2{fill:#ff7043;}.cls-3{fill:#d89b79;}.cls-4{fill:#c18161;}.cls-5{fill:#b76b5c;}.cls-6{fill:#231f20;}</style></defs><circle class="cls-1" cx="176.22" cy="176.22" r="176.22" transform="translate(-72.99 176.22) rotate(-45)"/><path class="cls-2" d="M176.36,0V352.43A176.22,176.22,0,0,0,176.36,0Z"/><ellipse class="cls-3" cx="178.1" cy="182.9" rx="85" ry="100.68"/><path class="cls-4" d="M178.1,82.22h-.64V283.57h.64c46.94,0,85-45.07,85-100.68S225,82.22,178.1,82.22Z"/><path class="cls-5" d="M178.29,243.19a28.71,28.71,0,0,0,28.58-28.33H149.72A28.7,28.7,0,0,0,178.29,243.19Z"/><circle class="cls-6" cx="162" cy="178.43" r="7.49"/><path class="cls-6" d="M194.59,170.94a7.49,7.49,0,1,0,7.48,7.49A7.49,7.49,0,0,0,194.59,170.94Z"/><rect class="cls-6" x="143.43" y="151.11" width="26.06" height="4.55"/><rect class="cls-6" x="187.1" y="151.11" width="26.06" height="4.55"/><path class="cls-3" d="M92.73,163.89a13,13,0,1,0,12.65,13A12.84,12.84,0,0,0,92.73,163.89Z"/><path class="cls-4" d="M262,163.89a13,13,0,1,0,12.65,13A12.84,12.84,0,0,0,262,163.89Z"/><path class="cls-6" d="M253.51,134.61a14.52,14.52,0,0,1,6.12-8l-13.25,0c.66-2,1.33-4,2-6-3.83-.91-6.37-4.41-8.75-7.54A94.8,94.8,0,0,0,201.69,83.1c-15-6.38-32-8.29-47.93-4.58a87.7,87.7,0,0,0-19.54,7.32c-6,3-12.43,7.92-12,14.59-6.54.83-12.16,5.69-14.88,11.68s-2.82,13-1.28,19.36c3.87-5.74,13.42-5.59,16.76-11.66,2.19-4,.72-8.87.86-13.4,4.78,0,8.92,3,13.16,5.23,5.93,3.08,12.52,4.64,18.63,7.33,5.7,2.51,10.93,6,16.42,8.91,21,11.18,45.21,14.36,68.93,15.72,7,.4,14.11.64,20.72-1.58,6.27-2.1,11.6-6.25,16.79-10.34A31.4,31.4,0,0,1,253.51,134.61Z"/><path class="cls-6" d="M246.69,185.92c-1.58-2-4.6-3.22-6.85-1.94a2.37,2.37,0,0,1,2.9,1.14,6.77,6.77,0,0,1,.66,3.34c.09,3.32,0,7-2.09,9.51a11.78,11.78,0,0,1-4.89,3.12A35.3,35.3,0,0,1,220,203.33c-9.84-1-19.16-6.18-29-5.55a27.68,27.68,0,0,0-12.4,4,6.77,6.77,0,0,0-.83.57,6.66,6.66,0,0,0-.82-.57,27.72,27.72,0,0,0-12.41-4c-9.87-.63-19.19,4.52-29,5.55A35.34,35.34,0,0,1,119,201.09a11.68,11.68,0,0,1-4.88-3.12c-2.13-2.55-2.18-6.19-2.1-9.51a6.88,6.88,0,0,1,.66-3.34,2.37,2.37,0,0,1,2.9-1.14c-2.25-1.28-5.27-.11-6.84,1.94s-2,4.73-2.35,7.31c-.83,7.25-.49,15.16,3.86,21a18.38,18.38,0,0,0,20.65,6.1c4.66-1.76,8.44-5.4,13.16-7,3.93-1.31,8.18-1.11,12.31-.77s8.33.78,12.37-.09c3.64-.79,7.19-2.86,8.95-6.08,1.76,3.22,5.31,5.29,9,6.08,4,.87,8.24.43,12.37.09s8.39-.54,12.31.77c4.72,1.59,8.5,5.23,13.16,7a18.39,18.39,0,0,0,20.66-6.1c4.34-5.87,4.68-13.78,3.85-21C248.73,190.65,248.27,188,246.69,185.92Z"/></svg>