<svg id="Layer_1" data-name="Layer 1" xmlns="http://www.w3.org/2000/svg" viewBox="0 0 352.44 352.44"><defs><style>.cls-1{fill:#ffccbc;}.cls-2{fill:#ffab91;}.cls-3{fill:#d89b79;}.cls-4{fill:#c18161;}.cls-5{fill:#8c513a;}.cls-6{fill:#682319;}.cls-7{fill:#231f20;}</style></defs><circle class="cls-1" cx="176.22" cy="176.22" r="176.22"/><path class="cls-2" d="M176.36,0V352.43A176.22,176.22,0,0,0,176.36,0Z"/><ellipse class="cls-3" cx="178.34" cy="185.89" rx="85" ry="100.68"/><path class="cls-4" d="M178.34,85.21h-.64V286.56h.64c46.94,0,85-45.08,85-100.68S225.28,85.21,178.34,85.21Z"/><path class="cls-5" d="M178.53,246.18a28.69,28.69,0,0,0,28.57-28.33H150A28.7,28.7,0,0,0,178.53,246.18Z"/><path class="cls-3" d="M93,166.87a13,13,0,1,0,12.65,13A12.85,12.85,0,0,0,93,166.87Z"/><ellipse class="cls-4" cx="262.21" cy="179.9" rx="12.65" ry="13.03"/><path class="cls-6" d="M198.85,198.07H159.38a19.2,19.2,0,0,0-19.14,19.15v62.56a19.2,19.2,0,0,0,19.14,19.15h39.47A19.21,19.21,0,0,0,218,279.78V217.22A19.21,19.21,0,0,0,198.85,198.07Zm13.82,45.79A19.19,19.19,0,0,1,193.53,263H164.69a19.2,19.2,0,0,1-19.14-19.14V221.94a19.2,19.2,0,0,1,19.14-19.14h28.84a19.19,19.19,0,0,1,19.14,19.14Z"/><path class="cls-7" d="M162.12,173.73a7.49,7.49,0,1,0,7.49,7.49A7.49,7.49,0,0,0,162.12,173.73Z"/><path class="cls-7" d="M194.7,173.73a7.49,7.49,0,1,0,7.49,7.49A7.48,7.48,0,0,0,194.7,173.73Z"/><rect class="cls-7" x="143.55" y="153.89" width="26.06" height="4.55"/><rect class="cls-7" x="187.22" y="153.89" width="26.06" height="4.55"/><path class="cls-6" d="M251.62,97.81a6.13,6.13,0,0,0-.61-.18A.73.73,0,0,0,251.62,97.81Z"/><path class="cls-6" d="M258.91,106.57c-1-3.82-3.53-7.51-7.29-8.76a.73.73,0,0,1-.61-.18,6.13,6.13,0,0,1,.61.18,1.31,1.31,0,0,0,1-1.53c-.26-.91-1.25-1.39-2.16-1.71-4-1.43-8.41-2-11.9-4.36A33.82,33.82,0,0,0,235.34,88c-2.35-1.2-5.15-1-7.78-1.41-5.7-.8-10.62-4.15-15.72-6.78-19.39-10-43-9.84-63.9-3.31l6.66.11a92.44,92.44,0,0,0-31.82,14.71l7.94-1.54a101.41,101.41,0,0,0-25.54,17.71l6.5-1.45a36.9,36.9,0,0,0-21.61,20.62,9.41,9.41,0,0,1,4.32-1.38,279.92,279.92,0,0,1,.18,42.95l4.9,0a61.58,61.58,0,0,1,9.09-28.12c.22.94.43,1.88.64,2.82l17.11-16.56a17.42,17.42,0,0,1-5.22,9.15,53.8,53.8,0,0,0,20.76-10.85,8.74,8.74,0,0,1-1.1,4.44,121.43,121.43,0,0,0,34.15-12.76,30.34,30.34,0,0,1-7.52,6.39l7.12-2.32q-1.32,1.92-2.66,3.83a52.81,52.81,0,0,0,22.35-9.95l-1.35,4a98.34,98.34,0,0,0,21.54-14.4,37.07,37.07,0,0,0,10.11,9.86l3.13-3.93a33.52,33.52,0,0,0,11.25,19.47c.15-1,.31-2.08.46-3.13,8.12,11.1,16.14,27.12,17,40.75,2.21-.47,4.25,0,5.95-.17-.47-3.54.28-36.46.68-45.17C263.19,117.4,259.92,110.6,258.91,106.57Z"/></svg>