<svg id="Layer_1" data-name="Layer 1" xmlns="http://www.w3.org/2000/svg" viewBox="0 0 352.44 352.44"><defs><style>.cls-1{fill:#e64a19;}.cls-2{fill:#d84315;}.cls-3{fill:#ffccbc;}.cls-4{fill:#efac9a;}.cls-5{fill:#231f20;}.cls-6{fill:#b76b5c;}</style></defs><circle class="cls-1" cx="176.22" cy="176.22" r="176.22"/><path class="cls-2" d="M176.36,0V352.43A176.22,176.22,0,0,0,176.36,0Z"/><ellipse class="cls-3" cx="177.35" cy="173.54" rx="85" ry="100.68"/><path class="cls-4" d="M177.35,72.86h-.64V274.22h.64c46.94,0,85-45.08,85-100.69S224.29,72.86,177.35,72.86Z"/><path class="cls-5" d="M161.25,161.59a7.49,7.49,0,1,0,7.49,7.48A7.48,7.48,0,0,0,161.25,161.59Z"/><path class="cls-5" d="M193.83,161.59a7.49,7.49,0,1,0,7.49,7.48A7.49,7.49,0,0,0,193.83,161.59Z"/><rect class="cls-5" x="142.68" y="141.75" width="26.06" height="4.55"/><rect class="cls-5" x="186.34" y="141.75" width="26.06" height="4.55"/><path class="cls-3" d="M92.42,154.36a13,13,0,1,0,12.65,13A12.85,12.85,0,0,0,92.42,154.36Z"/><path class="cls-4" d="M262.42,154.36a13,13,0,1,0,12.65,13A12.85,12.85,0,0,0,262.42,154.36Z"/><path class="cls-6" d="M177.54,233.84a28.7,28.7,0,0,0,28.57-28.34H149A28.7,28.7,0,0,0,177.54,233.84Z"/><path class="cls-5" d="M224.06,216.47a7.63,7.63,0,0,1-4.57-4.88,28.83,28.83,0,0,1-1.18-6.81c-.69-6.39-2.66-13.24-7.93-16.91-4-2.78-9.12-3.23-14-3.11a75,75,0,0,0-11.18,1.11,54.4,54.4,0,0,0-8.5,1.89,54.75,54.75,0,0,0-8.51-1.89A74.81,74.81,0,0,0,157,184.76c-4.86-.12-10,.33-14,3.11-5.27,3.67-7.24,10.52-7.93,16.91a28.83,28.83,0,0,1-1.18,6.81,7.63,7.63,0,0,1-4.57,4.88c-2.21.68-5-.45-5.59-2.68-1.8,3.74.73,8.67,4.69,9.94s8.51-.78,10.76-4.27,2.39-7.69,4.25-11.26c2.1-4,6.19-6.79,10.55-8.09a36.05,36.05,0,0,1,13.54-.88c2.56.22,6.37.92,9.15.33,2.77.59,6.58-.11,9.14-.33a36.05,36.05,0,0,1,13.54.88c4.37,1.3,8.45,4,10.55,8.09,1.86,3.57,2.08,7.87,4.25,11.26S221,225,225,223.73s6.49-6.2,4.69-9.94C229.06,216,226.27,217.15,224.06,216.47Z"/><path class="cls-5" d="M176.45,245.44c-17.32,0-31.81-14.83-35.42-34.67a62.08,62.08,0,0,0-7.92,30.79c0,29.71,19.7,53.8,44,53.8s44-24.09,44-53.8a61.67,61.67,0,0,0-9-32.56C209.11,229.72,194.28,245.44,176.45,245.44Z"/></svg>