<svg id="Layer_1" data-name="Layer 1" xmlns="http://www.w3.org/2000/svg" viewBox="0 0 352.44 352.44"><defs><style>.cls-1{fill:#c2185b;}.cls-2{fill:#880e4f;}.cls-3{fill:#d89b79;}.cls-4{fill:#c18161;}.cls-5{fill:#8c513a;}.cls-6{fill:#231f20;}.cls-7{fill:#60585a;}</style></defs><circle class="cls-1" cx="176.22" cy="176.22" r="176.22" transform="translate(-72.99 176.22) rotate(-45)"/><path class="cls-2" d="M176.36,0V352.43A176.22,176.22,0,0,0,176.36,0Z"/><ellipse class="cls-3" cx="176.81" cy="177.2" rx="85" ry="100.68"/><path class="cls-4" d="M176.81,76.51h-.64V277.87h.64c46.94,0,85-45.08,85-100.68S223.75,76.51,176.81,76.51Z"/><path class="cls-5" d="M177,237.49a28.7,28.7,0,0,0,28.57-28.34H148.43A28.7,28.7,0,0,0,177,237.49Z"/><path class="cls-6" d="M160.71,165.24a7.49,7.49,0,1,0,7.49,7.49A7.49,7.49,0,0,0,160.71,165.24Z"/><path class="cls-6" d="M193.29,165.24a7.49,7.49,0,1,0,7.49,7.49A7.49,7.49,0,0,0,193.29,165.24Z"/><rect class="cls-6" x="142.14" y="145.41" width="26.06" height="4.55"/><rect class="cls-6" x="185.8" y="145.41" width="26.06" height="4.55"/><path class="cls-3" d="M91.33,162.09a13,13,0,1,0,12.65,13A12.84,12.84,0,0,0,91.33,162.09Z"/><path class="cls-4" d="M259.56,163.59a13,13,0,1,0,12.65,13A12.84,12.84,0,0,0,259.56,163.59Z"/><path class="cls-7" d="M106.33,116.3c-7.84,11-8.84,22.61-13,35.5-1,3.27-2,9,.76,9.66,1.47.35,1.91,2.31,3,3.4,5.75,5.94,7.72,14.61,8.13,22.87s-.47,16.6.68,24.79A52.23,52.23,0,0,1,120,211.06q-4-25.29-6.79-50.72c-.79-7.13-1.52-14.36-.38-21.43s4.38-14.09,10.14-18.35l.42-.29a52.75,52.75,0,0,1-13.71-8.46C108.54,113.24,107.44,114.73,106.33,116.3Z"/><path class="cls-7" d="M245.33,114.3l-.57-.94a124.37,124.37,0,0,1-14.86,8.23,20.54,20.54,0,0,1,2.28,1.47c5.77,4.26,9,11.27,10.14,18.35s.42,14.3-.37,21.43q-2.83,25.42-6.8,50.72A52.19,52.19,0,0,1,249.24,215c1.15-8.19.27-16.53.68-24.79s2.38-16.93,8.14-22.87A17.92,17.92,0,0,0,261,164c1.68-3,.66-6.71-.39-10C256.46,141.09,252.29,125.93,245.33,114.3Z"/></svg>