<svg id="Layer_1" data-name="Layer 1" xmlns="http://www.w3.org/2000/svg" viewBox="0 0 352.44 352.44"><defs><style>.cls-1{fill:#607d8b;}.cls-2{fill:#546e7a;}.cls-3{fill:#ffccbc;}.cls-4{fill:#efac9a;}.cls-5{fill:#231f20;}.cls-6{fill:#d81b60;}.cls-7{fill:#e64a19;}</style></defs><circle class="cls-1" cx="176.22" cy="176.22" r="176.22" transform="translate(-72.99 176.22) rotate(-45)"/><path class="cls-2" d="M176.36,0V352.43A176.22,176.22,0,0,0,176.36,0Z"/><ellipse class="cls-3" cx="94.59" cy="202.31" rx="12.65" ry="13.03"/><ellipse class="cls-4" cx="263.83" cy="202.31" rx="12.65" ry="13.03"/><ellipse class="cls-3" cx="176.4" cy="204.43" rx="85" ry="100.68"/><path class="cls-4" d="M176.4,103.74h-.64V305.1h.64c46.94,0,85-45.08,85-100.68S223.34,103.74,176.4,103.74Z"/><path class="cls-5" d="M193.53,191.74a7.49,7.49,0,1,0,7.48,7.49A7.49,7.49,0,0,0,193.53,191.74Z"/><circle class="cls-5" cx="157.77" cy="199.67" r="7.49" transform="translate(-41.77 41.74) rotate(-13.33)"/><path class="cls-6" d="M190,246.2c-2.5-1-4.85-2.58-7.42-3.22s-5.57-.13-7.24,2.38h-.44c-1.66-2.51-4.66-3-7.23-2.38s-4.93,2.21-7.42,3.22a17.64,17.64,0,0,1-10.92.76c6.22,9.13,16.19,14.11,25.79,12.93,9.61,1.18,19.58-3.8,25.79-12.93A17.6,17.6,0,0,1,190,246.2Z"/><path class="cls-7" d="M215.72,106.06a12.42,12.42,0,0,0,.09-1.36,13.21,13.21,0,0,0-2.53-7.59,13.25,13.25,0,0,0,2.53-7.59,12.83,12.83,0,0,0-1.89-6.58,12.83,12.83,0,0,0,1.89-6.58,13.44,13.44,0,0,0-2.91-8.09,13.49,13.49,0,0,0,2.91-8.1c0-12.2-18.73-22.09-41.82-22.09S132.16,48,132.16,60.17a13.49,13.49,0,0,0,2.91,8.1,13.44,13.44,0,0,0-2.91,8.09,12.83,12.83,0,0,0,1.89,6.58,12.83,12.83,0,0,0-1.89,6.58,13.33,13.33,0,0,0,2.53,7.59,13.28,13.28,0,0,0-2.53,7.59,11.75,11.75,0,0,0,.33,2.71,91.08,91.08,0,0,0-45.7,79.42c0,.56,0,1.12,0,1.68h177c0-.56,0-1.12,0-1.68A91,91,0,0,0,215.72,106.06Z"/></svg>